<svg width="1063" height="536" viewBox="0 0 1063 536" fill="none" xmlns="http://www.w3.org/2000/svg">
<path d="M521.6 459.9L521.2 462.4L525.4 463L525.8 460.5L521.6 459.9Z" fill="#FFD6A9"/>
<path d="M516.3 445.8L524.3 446.9L524.6 445L516.6 443.9L516.3 445.8Z" fill="#FFD6A9"/>
<path d="M510.2 488.6L518.1 489.7L518.4 487.8L510.5 486.7L510.2 488.6Z" fill="#FFD6A9"/>
<path d="M511.673 450.96L511.871 449.477L514.937 449.872L518.003 450.268L517.805 451.751L517.608 453.235L514.541 452.84L511.475 452.444L511.673 450.96Z" fill="#AFAFAF" stroke="#1E1E1E" stroke-width="0.193469" stroke-miterlimit="9.7832"/>
<path d="M520.378 458.28L520.575 456.796L523.642 457.192L526.708 457.587L526.51 459.071L526.312 460.555L523.246 460.159L520.18 459.763L520.378 458.28Z" fill="#AFAFAF" stroke="#1E1E1E" stroke-width="0.193469" stroke-miterlimit="9.7832"/>
<path d="M508.31 475.194L508.508 473.71L511.574 474.106L514.64 474.501L514.443 475.985L514.245 477.469L511.179 477.073L508.112 476.677L508.31 475.194Z" fill="#AFAFAF" stroke="#1E1E1E" stroke-width="0.193469" stroke-miterlimit="9.7832"/>
<path d="M517.41 479.348L517.608 477.864L520.674 478.26L523.74 478.656L523.542 480.139L523.344 481.623L520.278 481.227L517.212 480.832L517.41 479.348Z" fill="#AFAFAF" stroke="#1E1E1E" stroke-width="0.193469" stroke-miterlimit="9.7832"/>
<path d="M507.42 484.095L507.618 482.611L510.684 483.007L513.75 483.403L513.552 484.886L513.355 486.37L510.288 485.974L507.222 485.579L507.42 484.095Z" fill="#AFAFAF" stroke="#1E1E1E" stroke-width="0.193469" stroke-miterlimit="9.7832"/>
<path d="M507.816 481.128L508.013 479.645L511.08 480.04L514.146 480.436L513.948 481.919L513.75 483.403L510.684 483.007L507.618 482.612L507.816 481.128Z" fill="#AFAFAF" stroke="#1E1E1E" stroke-width="0.193469" stroke-miterlimit="9.7832"/>
<path d="M495.65 476.479L496.738 468.764L502.87 469.654L509.003 470.544L508.508 474.006L508.013 477.468V477.072L508.112 476.677L511.179 477.072L514.245 477.468L514.542 475.292L514.838 473.116H514.739H514.64L514.542 473.709L514.443 474.303L511.376 473.907L508.607 473.512L508.805 472.028L509.003 470.544L511.772 470.94L514.838 471.336L514.739 471.929L514.64 472.522H514.739H514.838L515.036 471.336L515.234 470.149H515.135H515.036L514.937 470.742L514.838 471.336L511.772 470.94L508.706 470.544L508.904 469.061L509.101 467.577L512.168 467.973L515.234 468.368L515.135 468.962L515.036 469.555H515.135H515.234L515.432 468.368L515.63 467.181H515.531H515.432L515.333 467.775L515.234 468.368L512.168 467.973L509.101 467.577L509.299 466.093L509.497 464.61L512.563 465.005L515.63 465.401L515.531 465.994L515.432 466.588H515.531H515.63L515.728 465.994L515.827 465.401L512.761 465.005L509.695 464.61L510.091 461.543L510.486 458.477L510.684 456.994L510.882 455.51L513.948 455.906L517.014 456.301L516.915 456.796L516.816 457.29H516.915H517.014L517.212 456.103L517.41 454.916L517.311 455.51L517.212 456.103L514.146 455.708L511.08 455.312L511.278 453.828L511.475 452.345L514.542 452.74L517.608 453.136L517.509 453.73L517.41 454.323H517.509H517.608L518.003 451.652L518.399 448.982H518.3H518.201L518.102 449.575L518.003 450.169L514.937 449.773L511.871 449.377L512.069 447.894L512.267 446.41L515.333 446.806L518.399 447.201L518.3 447.795L518.201 448.388H518.3H518.399L518.498 447.795L518.597 447.201L519.19 447.3L519.784 447.399V447.103L520.575 447.201V447.498L521.169 447.597L521.762 447.696L524.828 448.092L527.894 448.487L527.697 449.971L527.499 451.455L527.301 452.938L527.103 454.422L526.905 455.906L526.708 457.389L523.641 456.994L520.575 456.598L520.377 458.18L520.179 459.763L522.454 460.06L524.729 460.357L524.63 461.049L524.531 461.741L524.037 461.642L523.542 461.543L523.443 462.335L523.345 463.126L521.465 462.829L519.586 462.533L522.652 462.928L525.718 463.324L525.521 464.807L525.323 466.291L525.125 467.775L524.927 469.258L524.729 470.742L524.531 472.226L521.465 471.83L518.399 471.435L518.201 472.621L518.003 473.808L518.201 472.72L518.399 471.632L521.465 472.028L524.531 472.424L524.136 475.49L523.74 478.556L520.674 478.16L517.608 477.765L517.41 479.347L517.212 480.93L520.278 481.326L523.345 481.721L523.147 483.205L522.949 484.688L522.751 486.172L522.553 487.656L519.487 487.26L516.421 486.865L514.937 486.667L513.454 486.469L513.849 483.403L514.245 480.336L511.179 479.941L508.112 479.545V479.15V478.754L507.618 482.216L507.123 485.678L500.991 484.787L494.858 483.897L495.65 476.479Z" fill="#AFAFAF"/>
<path d="M522.949 484.688L522.751 486.172L522.553 487.656L519.487 487.26L516.421 486.865L514.937 486.667L513.454 486.469L513.849 483.403L514.245 480.336L511.179 479.941L508.112 479.545V479.15V478.754L507.618 482.216L507.123 485.678L500.991 484.787L494.858 483.897L495.65 476.479L496.738 468.764L502.87 469.654L509.003 470.544M509.003 470.544L508.508 474.006L508.013 477.468V477.072L508.112 476.677L511.179 477.072L514.245 477.468L514.542 475.292L514.838 473.116H514.739H514.64L514.542 473.709L514.443 474.303L511.376 473.907L508.607 473.512L508.805 472.028L509.003 470.544ZM509.003 470.544L511.772 470.94M509.101 467.577L508.904 469.061L508.706 470.544L511.772 470.94L514.838 471.336M514.838 471.336L514.739 471.929L514.64 472.522H514.739H514.838L515.036 471.336L515.234 470.149H515.135H515.036L514.937 470.742L514.838 471.336ZM509.101 467.577L512.168 467.973L515.234 468.368M517.212 456.103L517.41 454.916L517.311 455.51L517.212 456.103L517.014 457.29H516.915H516.816L516.915 456.796L517.014 456.301L513.948 455.906L510.882 455.51L510.684 456.994L510.486 458.477L510.091 461.543L509.695 464.61L512.761 465.005L515.827 465.401L515.728 465.994L515.63 466.588H515.531H515.432L515.531 465.994L515.63 465.401L512.563 465.005L509.497 464.61L509.299 466.093L509.101 467.577M515.234 468.368L515.135 468.962L515.036 469.555H515.135H515.234L515.432 468.368L515.63 467.181H515.531H515.432L515.333 467.775L515.234 468.368ZM510.486 458.477L513.552 458.873L516.619 459.269L516.718 458.675L516.816 458.082M517.212 456.103L514.146 455.708L511.08 455.312L511.278 453.828L511.475 452.345L514.542 452.74L517.608 453.136L517.509 453.73L517.41 454.323H517.509H517.608L518.003 451.652L518.399 448.982H518.3H518.201L518.102 449.575L518.003 450.169L514.937 449.773L511.871 449.377L512.069 447.894L512.267 446.41L515.333 446.806L518.399 447.201L518.3 447.795L518.201 448.388H518.3H518.399L518.498 447.795L518.597 447.201L519.19 447.3L519.784 447.399V447.103L520.575 447.201V447.498L521.169 447.597L521.762 447.696M521.762 447.696L521.663 448.289L521.564 448.883M521.762 447.696L524.828 448.092L527.894 448.487L527.697 449.971L527.499 451.455M527.499 451.455L524.433 451.059L521.366 450.663M527.499 451.455L527.301 452.938L527.103 454.422M521.366 450.663L521.465 450.07L521.564 449.476M521.366 450.663L521.267 451.257L521.169 451.85M527.103 454.422L524.037 454.026L520.971 453.631M527.103 454.422L526.905 455.906L526.708 457.389L523.641 456.994L520.575 456.598M520.971 453.631L521.07 453.037L521.169 452.444M520.971 453.631L520.872 454.224L520.773 454.818M519.586 462.533L521.465 462.829L523.345 463.126L523.443 462.335L523.542 461.543L524.037 461.642L524.531 461.741L524.63 461.049L524.729 460.357L522.454 460.06L520.179 459.763L520.377 458.18L520.575 456.598L520.674 456.004L520.773 455.411M524.927 469.258L525.125 467.775L525.323 466.291L525.521 464.807L525.718 463.324L522.652 462.928L519.586 462.533L519.19 465.599L518.795 468.665M518.795 468.665L518.696 469.258L518.597 469.852M518.795 468.665H519.19H519.586M525.323 466.291L523.048 465.994L520.773 465.698M524.927 469.258L522.652 468.962L520.377 468.665M524.927 469.258L524.729 470.742L524.531 472.226L521.465 471.83L518.399 471.435M518.399 471.435L518.498 470.841L518.597 470.248M518.399 471.435L518.201 472.621L518.003 473.808L518.201 472.72L518.399 471.632L521.465 472.028L524.531 472.424L524.136 475.49L523.74 478.556L520.674 478.16L517.608 477.765M517.212 480.93L517.41 479.347L517.608 477.765L517.806 476.677L518.003 475.589M517.212 480.93L517.113 481.523L517.014 482.117M517.212 480.93L520.278 481.326L523.345 481.721L523.147 483.205L522.949 484.688M522.949 484.688L519.883 484.293L516.816 483.897M516.619 485.084L516.718 484.491L516.816 483.897L516.915 483.304L517.014 482.71M516.421 486.865L516.52 486.271L516.619 485.678" stroke="#1E1E1E" stroke-width="0.193469" stroke-miterlimit="9.7832"/>
<path d="M523.636 449.453L523.4 448.118L523.625 448.146L523.739 448.914L523.782 449.199C523.787 449.186 523.82 449.1 523.881 448.942L524.178 448.213L524.402 448.241L524.503 449.011L524.537 449.265L524.642 449.025L524.953 448.308L525.165 448.334L524.605 449.572L524.379 449.544L524.268 448.748L524.246 448.523L523.864 449.481L523.636 449.453ZM526.089 449.275L526.3 449.329C526.259 449.474 526.184 449.583 526.077 449.655C525.971 449.726 525.847 449.753 525.707 449.736C525.531 449.715 525.396 449.64 525.303 449.512C525.21 449.383 525.177 449.212 525.203 448.997C525.22 448.858 525.258 448.739 525.317 448.641C525.376 448.542 525.455 448.473 525.555 448.432C525.656 448.392 525.762 448.378 525.873 448.391C526.012 448.408 526.122 448.458 526.203 448.54C526.283 448.621 526.327 448.728 526.337 448.861L526.121 448.868C526.111 448.779 526.083 448.71 526.037 448.66C525.991 448.61 525.932 448.581 525.859 448.572C525.749 448.558 525.655 448.587 525.577 448.658C525.499 448.728 525.449 448.848 525.428 449.018C525.407 449.191 525.425 449.321 525.482 449.407C525.538 449.494 525.62 449.543 525.726 449.557C525.812 449.567 525.887 449.549 525.951 449.504C526.014 449.459 526.061 449.382 526.089 449.275Z" fill="black"/>
<path d="M513.502 447.807L513.724 447.805C513.734 447.932 513.765 448.026 513.818 448.088C513.872 448.15 513.942 448.186 514.029 448.196C514.131 448.209 514.222 448.184 514.301 448.122C514.381 448.059 514.427 447.976 514.44 447.87C514.452 447.77 514.43 447.684 514.372 447.611C514.315 447.538 514.236 447.495 514.135 447.483C514.093 447.478 514.041 447.479 513.978 447.488L514.025 447.3C514.04 447.303 514.051 447.305 514.06 447.306C514.153 447.318 514.24 447.304 514.32 447.264C514.4 447.225 514.447 447.155 514.459 447.054C514.469 446.974 514.45 446.904 514.402 446.845C514.354 446.786 514.288 446.751 514.202 446.741C514.117 446.73 514.043 446.748 513.98 446.795C513.917 446.841 513.871 446.917 513.842 447.021L513.628 446.956C513.673 446.813 513.747 446.707 513.852 446.639C513.956 446.57 514.079 446.544 514.219 446.561C514.316 446.573 514.403 446.605 514.479 446.657C514.556 446.708 514.611 446.772 514.645 446.849C514.68 446.926 514.692 447.005 514.682 447.086C514.673 447.163 514.644 447.23 514.595 447.288C514.546 447.346 514.479 447.389 514.394 447.416C514.496 447.453 514.571 447.513 514.62 447.597C514.669 447.68 514.686 447.779 514.672 447.894C514.653 448.049 514.58 448.174 514.454 448.268C514.328 448.362 514.178 448.398 514.006 448.377C513.85 448.358 513.726 448.295 513.634 448.19C513.542 448.084 513.499 447.957 513.502 447.807ZM514.932 447.569C514.958 447.359 515 447.193 515.058 447.071C515.118 446.947 515.194 446.856 515.287 446.797C515.381 446.738 515.493 446.717 515.622 446.732C515.718 446.744 515.799 446.774 515.866 446.821C515.933 446.868 515.986 446.931 516.024 447.009C516.062 447.087 516.088 447.179 516.102 447.287C516.116 447.393 516.112 447.535 516.09 447.711C516.065 447.919 516.023 448.085 515.964 448.208C515.906 448.331 515.83 448.422 515.735 448.482C515.642 448.541 515.53 448.562 515.4 448.546C515.229 448.525 515.102 448.448 515.019 448.313C514.92 448.151 514.891 447.903 514.932 447.569ZM515.156 447.597C515.12 447.888 515.131 448.087 515.187 448.192C515.244 448.296 515.322 448.355 515.422 448.367C515.522 448.379 515.612 448.341 515.692 448.252C515.773 448.164 515.831 447.974 515.866 447.683C515.902 447.391 515.891 447.193 515.835 447.088C515.778 446.984 515.699 446.925 515.598 446.913C515.498 446.9 515.412 446.933 515.342 447.011C515.254 447.11 515.192 447.305 515.156 447.597ZM517.028 448.715L516.809 448.688L516.98 447.298C516.921 447.342 516.846 447.384 516.754 447.423C516.663 447.463 516.582 447.491 516.511 447.508L516.537 447.297C516.666 447.255 516.781 447.198 516.882 447.128C516.984 447.057 517.058 446.986 517.105 446.914L517.246 446.931L517.028 448.715Z" fill="black"/>
<path d="M512.987 450.893L513.208 450.891C513.218 451.018 513.25 451.112 513.303 451.174C513.357 451.236 513.427 451.272 513.513 451.282C513.616 451.295 513.707 451.27 513.786 451.208C513.865 451.145 513.912 451.061 513.924 450.956C513.937 450.856 513.914 450.77 513.857 450.697C513.799 450.624 513.72 450.581 513.619 450.569C513.578 450.564 513.526 450.565 513.462 450.574L513.51 450.385C513.524 450.389 513.536 450.391 513.545 450.392C513.638 450.404 513.724 450.39 513.804 450.35C513.885 450.311 513.931 450.241 513.943 450.14C513.953 450.06 513.934 449.99 513.886 449.931C513.839 449.872 513.772 449.837 513.686 449.827C513.602 449.816 513.528 449.834 513.465 449.881C513.402 449.927 513.355 450.003 513.326 450.107L513.113 450.042C513.157 449.899 513.232 449.793 513.336 449.725C513.441 449.656 513.563 449.63 513.704 449.647C513.8 449.659 513.887 449.691 513.964 449.743C514.04 449.794 514.095 449.858 514.129 449.935C514.164 450.012 514.177 450.091 514.167 450.172C514.157 450.249 514.128 450.316 514.079 450.374C514.03 450.432 513.963 450.475 513.878 450.502C513.98 450.539 514.055 450.599 514.104 450.683C514.153 450.766 514.171 450.865 514.157 450.98C514.138 451.135 514.065 451.26 513.939 451.354C513.812 451.448 513.663 451.484 513.49 451.463C513.334 451.444 513.21 451.381 513.118 451.276C513.027 451.17 512.983 451.043 512.987 450.893ZM514.416 450.655C514.442 450.445 514.484 450.279 514.543 450.156C514.602 450.033 514.678 449.942 514.772 449.883C514.866 449.824 514.977 449.803 515.107 449.818C515.202 449.83 515.283 449.86 515.35 449.907C515.418 449.954 515.47 450.017 515.508 450.095C515.546 450.173 515.572 450.265 515.586 450.373C515.6 450.479 515.596 450.621 515.575 450.797C515.549 451.005 515.507 451.171 515.449 451.294C515.39 451.417 515.314 451.508 515.22 451.567C515.126 451.627 515.015 451.648 514.885 451.632C514.713 451.611 514.586 451.533 514.504 451.399C514.405 451.237 514.376 450.989 514.416 450.655ZM514.641 450.683C514.605 450.974 514.615 451.173 514.671 451.278C514.728 451.382 514.806 451.441 514.907 451.453C515.007 451.465 515.097 451.427 515.176 451.338C515.257 451.25 515.315 451.06 515.351 450.769C515.386 450.477 515.376 450.279 515.319 450.174C515.263 450.07 515.184 450.011 515.082 449.999C514.982 449.986 514.897 450.019 514.827 450.097C514.738 450.196 514.676 450.391 514.641 450.683ZM515.749 451.231L515.971 451.229C515.981 451.356 516.012 451.45 516.065 451.512C516.119 451.574 516.189 451.61 516.276 451.62C516.378 451.633 516.469 451.608 516.548 451.546C516.628 451.483 516.674 451.399 516.687 451.294C516.699 451.194 516.677 451.108 516.619 451.035C516.562 450.962 516.482 450.919 516.382 450.907C516.34 450.902 516.288 450.903 516.225 450.912L516.272 450.724C516.287 450.727 516.298 450.729 516.307 450.73C516.4 450.742 516.487 450.728 516.567 450.688C516.647 450.649 516.693 450.579 516.706 450.478C516.716 450.398 516.697 450.328 516.649 450.269C516.601 450.21 516.535 450.175 516.449 450.165C516.364 450.154 516.29 450.172 516.227 450.219C516.164 450.265 516.118 450.341 516.089 450.445L515.875 450.38C515.92 450.237 515.994 450.131 516.099 450.063C516.203 449.994 516.325 449.968 516.466 449.985C516.563 449.997 516.65 450.029 516.726 450.081C516.803 450.132 516.858 450.196 516.892 450.273C516.927 450.35 516.939 450.429 516.929 450.51C516.92 450.587 516.891 450.654 516.842 450.712C516.793 450.77 516.726 450.813 516.641 450.84C516.743 450.877 516.818 450.937 516.867 451.021C516.916 451.104 516.933 451.203 516.919 451.318C516.9 451.473 516.827 451.598 516.701 451.692C516.575 451.786 516.425 451.822 516.252 451.801C516.097 451.782 515.973 451.719 515.881 451.614C515.789 451.508 515.745 451.381 515.749 451.231Z" fill="black"/>
<path d="M512.472 453.764L512.694 453.762C512.704 453.889 512.735 453.983 512.788 454.045C512.842 454.107 512.913 454.143 512.999 454.154C513.102 454.166 513.192 454.141 513.271 454.079C513.351 454.016 513.397 453.933 513.41 453.828C513.423 453.727 513.4 453.641 513.342 453.568C513.285 453.495 513.206 453.452 513.105 453.44C513.064 453.435 513.011 453.436 512.948 453.445L512.996 453.257C513.01 453.26 513.022 453.262 513.031 453.263C513.123 453.275 513.21 453.261 513.29 453.221C513.37 453.182 513.417 453.112 513.429 453.011C513.439 452.931 513.42 452.861 513.372 452.802C513.325 452.743 513.258 452.708 513.172 452.698C513.087 452.687 513.014 452.705 512.95 452.752C512.887 452.798 512.841 452.874 512.812 452.978L512.599 452.913C512.643 452.77 512.718 452.664 512.822 452.596C512.926 452.527 513.049 452.501 513.189 452.518C513.286 452.53 513.373 452.562 513.449 452.614C513.526 452.665 513.581 452.729 513.615 452.806C513.65 452.883 513.663 452.962 513.653 453.043C513.643 453.12 513.614 453.187 513.565 453.245C513.516 453.303 513.449 453.346 513.364 453.373C513.466 453.41 513.541 453.471 513.59 453.554C513.639 453.637 513.656 453.736 513.642 453.851C513.623 454.006 513.551 454.131 513.424 454.225C513.298 454.319 513.149 454.355 512.976 454.334C512.82 454.315 512.696 454.253 512.604 454.147C512.513 454.042 512.469 453.914 512.472 453.764ZM513.902 453.526C513.928 453.316 513.97 453.15 514.028 453.028C514.088 452.904 514.164 452.813 514.257 452.754C514.352 452.695 514.463 452.674 514.592 452.69C514.688 452.701 514.769 452.731 514.836 452.778C514.903 452.825 514.956 452.888 514.994 452.966C515.032 453.044 515.058 453.136 515.072 453.244C515.086 453.35 515.082 453.492 515.061 453.668C515.035 453.876 514.993 454.042 514.934 454.165C514.876 454.288 514.8 454.379 514.706 454.439C514.612 454.498 514.501 454.519 514.37 454.503C514.199 454.482 514.072 454.405 513.99 454.27C513.891 454.108 513.861 453.86 513.902 453.526ZM514.126 453.554C514.091 453.845 514.101 454.044 514.157 454.149C514.214 454.253 514.292 454.312 514.392 454.324C514.493 454.336 514.583 454.298 514.662 454.209C514.743 454.121 514.801 453.931 514.836 453.64C514.872 453.348 514.862 453.15 514.805 453.045C514.749 452.941 514.67 452.882 514.568 452.87C514.468 452.858 514.383 452.89 514.312 452.968C514.224 453.067 514.162 453.262 514.126 453.554ZM515.233 454.106L515.465 454.115C515.468 454.228 515.497 454.317 515.551 454.381C515.607 454.444 515.678 454.481 515.765 454.492C515.87 454.505 515.964 454.476 516.046 454.406C516.129 454.336 516.178 454.235 516.194 454.104C516.209 453.98 516.186 453.877 516.124 453.797C516.064 453.716 515.977 453.669 515.864 453.656C515.794 453.647 515.728 453.655 515.668 453.681C515.607 453.705 515.558 453.741 515.519 453.788L515.318 453.736L515.602 452.845L516.485 452.953L516.459 453.161L515.75 453.075L515.596 453.54C515.712 453.479 515.828 453.456 515.946 453.47C516.101 453.489 516.225 453.559 516.318 453.679C516.412 453.8 516.448 453.944 516.428 454.113C516.408 454.274 516.344 454.407 516.236 454.513C516.105 454.643 515.94 454.695 515.743 454.671C515.582 454.652 515.455 454.59 515.364 454.487C515.273 454.384 515.229 454.257 515.233 454.106Z" fill="black"/>
<path d="M511.939 456.872L512.161 456.869C512.171 456.996 512.202 457.091 512.255 457.153C512.309 457.214 512.379 457.25 512.466 457.261C512.568 457.273 512.659 457.249 512.738 457.186C512.818 457.124 512.864 457.04 512.877 456.935C512.889 456.835 512.867 456.748 512.809 456.676C512.752 456.602 512.673 456.559 512.572 456.547C512.53 456.542 512.478 456.544 512.415 456.552L512.462 456.364C512.477 456.367 512.488 456.37 512.497 456.371C512.59 456.382 512.677 456.368 512.757 456.329C512.837 456.289 512.884 456.219 512.896 456.118C512.906 456.038 512.887 455.969 512.839 455.91C512.791 455.85 512.725 455.816 512.639 455.805C512.554 455.795 512.48 455.813 512.417 455.859C512.354 455.906 512.308 455.981 512.279 456.086L512.065 456.02C512.11 455.877 512.184 455.772 512.289 455.703C512.393 455.634 512.516 455.608 512.656 455.625C512.753 455.637 512.84 455.669 512.916 455.721C512.993 455.772 513.048 455.836 513.082 455.913C513.117 455.991 513.129 456.07 513.119 456.15C513.11 456.227 513.081 456.295 513.032 456.353C512.983 456.411 512.916 456.453 512.831 456.48C512.933 456.517 513.008 456.578 513.057 456.662C513.106 456.745 513.123 456.844 513.109 456.958C513.09 457.114 513.018 457.238 512.891 457.333C512.765 457.426 512.615 457.462 512.443 457.441C512.287 457.422 512.163 457.36 512.071 457.254C511.979 457.149 511.936 457.021 511.939 456.872ZM513.369 456.634C513.395 456.424 513.437 456.257 513.495 456.135C513.555 456.012 513.631 455.921 513.724 455.862C513.818 455.803 513.93 455.781 514.059 455.797C514.155 455.809 514.236 455.838 514.303 455.886C514.37 455.933 514.423 455.995 514.461 456.074C514.499 456.151 514.525 456.244 514.539 456.351C514.553 456.458 514.549 456.599 514.527 456.775C514.502 456.984 514.46 457.15 514.401 457.273C514.343 457.395 514.267 457.486 514.172 457.546C514.079 457.605 513.967 457.627 513.837 457.611C513.666 457.59 513.539 457.512 513.456 457.377C513.357 457.215 513.328 456.967 513.369 456.634ZM513.593 456.661C513.557 456.953 513.568 457.151 513.624 457.256C513.681 457.361 513.759 457.419 513.859 457.431C513.959 457.444 514.049 457.406 514.129 457.317C514.21 457.228 514.268 457.039 514.303 456.748C514.339 456.455 514.328 456.257 514.272 456.153C514.215 456.048 514.136 455.99 514.035 455.977C513.935 455.965 513.849 455.998 513.779 456.075C513.691 456.174 513.629 456.369 513.593 456.661ZM514.847 456.137L514.872 455.927L516.022 456.068L516.001 456.238C515.873 456.344 515.742 456.49 515.606 456.676C515.471 456.862 515.36 457.057 515.274 457.26C515.212 457.403 515.164 457.563 515.13 457.738L514.906 457.711C514.926 457.571 514.974 457.406 515.05 457.214C515.127 457.023 515.226 456.842 515.346 456.67C515.467 456.498 515.59 456.356 515.716 456.243L514.847 456.137Z" fill="black"/>
<path d="M522.551 452.107L522.773 452.105C522.783 452.231 522.815 452.326 522.868 452.388C522.922 452.45 522.992 452.486 523.078 452.496C523.181 452.509 523.272 452.484 523.35 452.421C523.43 452.359 523.477 452.275 523.489 452.17C523.502 452.07 523.479 451.984 523.422 451.911C523.364 451.838 523.285 451.795 523.184 451.782C523.143 451.777 523.09 451.779 523.027 451.788L523.075 451.599C523.089 451.603 523.101 451.605 523.11 451.606C523.202 451.617 523.289 451.603 523.369 451.564C523.45 451.525 523.496 451.455 523.508 451.354C523.518 451.274 523.499 451.204 523.451 451.145C523.404 451.086 523.337 451.051 523.251 451.041C523.167 451.03 523.093 451.048 523.03 451.095C522.966 451.141 522.92 451.216 522.891 451.321L522.678 451.256C522.722 451.113 522.797 451.007 522.901 450.939C523.005 450.869 523.128 450.843 523.268 450.861C523.365 450.872 523.452 450.904 523.529 450.956C523.605 451.008 523.66 451.072 523.694 451.149C523.729 451.226 523.742 451.305 523.732 451.386C523.722 451.463 523.693 451.53 523.644 451.588C523.595 451.646 523.528 451.688 523.443 451.716C523.545 451.753 523.62 451.813 523.669 451.897C523.718 451.98 523.735 452.079 523.721 452.194C523.702 452.349 523.63 452.474 523.503 452.568C523.377 452.662 523.228 452.698 523.055 452.677C522.899 452.658 522.775 452.595 522.683 452.49C522.592 452.384 522.548 452.257 522.551 452.107ZM523.981 451.869C524.007 451.659 524.049 451.493 524.108 451.37C524.167 451.247 524.243 451.156 524.336 451.097C524.431 451.038 524.542 451.016 524.672 451.032C524.767 451.044 524.848 451.074 524.915 451.121C524.982 451.168 525.035 451.231 525.073 451.309C525.111 451.387 525.137 451.479 525.151 451.587C525.165 451.693 525.161 451.835 525.14 452.011C525.114 452.219 525.072 452.385 525.014 452.508C524.955 452.63 524.879 452.722 524.785 452.781C524.691 452.84 524.58 452.862 524.45 452.846C524.278 452.825 524.151 452.747 524.069 452.613C523.97 452.45 523.941 452.203 523.981 451.869ZM524.205 451.896C524.17 452.188 524.18 452.386 524.236 452.492C524.293 452.596 524.371 452.655 524.472 452.667C524.572 452.679 524.662 452.641 524.741 452.552C524.822 452.464 524.88 452.274 524.915 451.983C524.951 451.691 524.941 451.492 524.884 451.388C524.828 451.283 524.749 451.225 524.647 451.213C524.547 451.2 524.462 451.233 524.392 451.31C524.303 451.409 524.241 451.605 524.205 451.896ZM526.427 452.845L526.402 453.054L525.228 452.911C525.232 452.858 525.247 452.808 525.271 452.762C525.311 452.686 525.368 452.613 525.443 452.543C525.519 452.474 525.625 452.396 525.762 452.309C525.975 452.175 526.12 452.066 526.2 451.982C526.279 451.897 526.323 451.814 526.334 451.731C526.344 451.645 526.322 451.568 526.267 451.502C526.213 451.434 526.136 451.395 526.037 451.383C525.932 451.37 525.844 451.391 525.773 451.446C525.702 451.502 525.66 451.585 525.645 451.696L525.424 451.646C525.46 451.48 525.533 451.36 525.644 451.285C525.755 451.21 525.895 451.182 526.064 451.203C526.234 451.224 526.363 451.287 526.451 451.394C526.539 451.501 526.574 451.624 526.557 451.764C526.548 451.835 526.525 451.903 526.488 451.968C526.45 452.033 526.393 452.099 526.316 452.167C526.24 452.235 526.115 452.325 525.942 452.438C525.798 452.532 525.705 452.597 525.663 452.632C525.621 452.666 525.585 452.701 525.556 452.738L526.427 452.845Z" fill="black"/>
<path d="M522.025 455.073L522.247 455.071C522.257 455.197 522.288 455.292 522.341 455.354C522.395 455.415 522.465 455.452 522.552 455.462C522.654 455.475 522.745 455.45 522.824 455.387C522.904 455.325 522.95 455.241 522.963 455.136C522.975 455.036 522.953 454.95 522.895 454.877C522.838 454.804 522.759 454.761 522.658 454.748C522.616 454.743 522.564 454.745 522.501 454.754L522.548 454.565C522.563 454.569 522.574 454.571 522.583 454.572C522.676 454.583 522.763 454.569 522.843 454.53C522.923 454.491 522.969 454.42 522.982 454.319C522.992 454.239 522.973 454.17 522.925 454.111C522.877 454.052 522.811 454.017 522.725 454.006C522.64 453.996 522.566 454.014 522.503 454.06C522.44 454.107 522.394 454.182 522.365 454.287L522.151 454.221C522.196 454.079 522.27 453.973 522.375 453.904C522.479 453.835 522.602 453.809 522.742 453.826C522.839 453.838 522.926 453.87 523.002 453.922C523.079 453.973 523.134 454.038 523.168 454.115C523.203 454.192 523.215 454.271 523.205 454.352C523.196 454.428 523.167 454.496 523.118 454.554C523.069 454.612 523.002 454.654 522.917 454.682C523.019 454.719 523.094 454.779 523.143 454.863C523.192 454.946 523.209 455.045 523.195 455.16C523.176 455.315 523.103 455.439 522.977 455.534C522.851 455.627 522.701 455.664 522.528 455.642C522.373 455.623 522.249 455.561 522.157 455.456C522.065 455.35 522.022 455.223 522.025 455.073ZM523.455 454.835C523.481 454.625 523.523 454.459 523.581 454.336C523.64 454.213 523.717 454.122 523.81 454.063C523.904 454.004 524.016 453.982 524.145 453.998C524.24 454.01 524.322 454.039 524.389 454.087C524.456 454.134 524.509 454.196 524.547 454.275C524.585 454.352 524.611 454.445 524.625 454.552C524.639 454.659 524.635 454.8 524.613 454.977C524.588 455.185 524.546 455.351 524.487 455.474C524.429 455.596 524.352 455.687 524.258 455.747C524.165 455.806 524.053 455.828 523.923 455.812C523.752 455.791 523.625 455.713 523.542 455.578C523.443 455.416 523.414 455.168 523.455 454.835ZM523.679 454.862C523.643 455.154 523.654 455.352 523.71 455.457C523.766 455.562 523.845 455.62 523.945 455.633C524.045 455.645 524.135 455.607 524.215 455.518C524.295 455.43 524.354 455.24 524.389 454.949C524.425 454.657 524.414 454.458 524.357 454.354C524.301 454.249 524.222 454.191 524.121 454.178C524.02 454.166 523.935 454.199 523.865 454.276C523.777 454.375 523.715 454.571 523.679 454.862ZM525.428 455.965L525.48 455.54L524.71 455.446L524.734 455.246L525.685 454.194L525.864 454.216L525.723 455.367L525.963 455.396L525.938 455.596L525.698 455.567L525.646 455.992L525.428 455.965ZM525.505 455.34L525.603 454.539L524.948 455.272L525.505 455.34Z" fill="black"/>
<path d="M521.753 458.162L521.975 458.159C521.985 458.286 522.016 458.381 522.069 458.443C522.123 458.504 522.193 458.54 522.28 458.551C522.382 458.564 522.473 458.539 522.552 458.476C522.632 458.414 522.678 458.33 522.691 458.225C522.703 458.125 522.681 458.038 522.623 457.966C522.566 457.892 522.487 457.849 522.386 457.837C522.344 457.832 522.292 457.834 522.229 457.843L522.276 457.654C522.291 457.657 522.302 457.66 522.311 457.661C522.404 457.672 522.491 457.658 522.571 457.619C522.651 457.579 522.698 457.509 522.71 457.408C522.72 457.328 522.701 457.259 522.653 457.2C522.605 457.14 522.539 457.106 522.453 457.095C522.368 457.085 522.294 457.103 522.231 457.149C522.168 457.196 522.122 457.271 522.093 457.376L521.879 457.31C521.924 457.167 521.998 457.062 522.103 456.993C522.207 456.924 522.33 456.898 522.47 456.915C522.567 456.927 522.654 456.959 522.73 457.011C522.807 457.062 522.862 457.126 522.896 457.204C522.931 457.281 522.943 457.36 522.933 457.441C522.924 457.517 522.895 457.585 522.846 457.643C522.797 457.701 522.73 457.743 522.645 457.77C522.747 457.808 522.822 457.868 522.871 457.952C522.92 458.035 522.937 458.134 522.923 458.248C522.904 458.404 522.831 458.528 522.705 458.623C522.579 458.716 522.429 458.753 522.257 458.731C522.101 458.712 521.977 458.65 521.885 458.544C521.793 458.439 521.75 458.311 521.753 458.162ZM523.183 457.924C523.209 457.714 523.251 457.547 523.309 457.425C523.369 457.302 523.445 457.211 523.538 457.152C523.632 457.093 523.744 457.071 523.873 457.087C523.969 457.099 524.05 457.128 524.117 457.176C524.184 457.223 524.237 457.285 524.275 457.364C524.313 457.441 524.339 457.534 524.353 457.641C524.367 457.748 524.363 457.889 524.341 458.065C524.316 458.274 524.274 458.44 524.215 458.563C524.157 458.685 524.081 458.776 523.986 458.836C523.893 458.895 523.781 458.917 523.651 458.901C523.48 458.88 523.353 458.802 523.27 458.667C523.171 458.505 523.142 458.257 523.183 457.924ZM523.407 457.951C523.371 458.243 523.382 458.441 523.438 458.546C523.494 458.651 523.573 458.709 523.673 458.721C523.773 458.734 523.863 458.696 523.943 458.607C524.024 458.518 524.082 458.329 524.117 458.038C524.153 457.746 524.142 457.547 524.085 457.443C524.029 457.338 523.95 457.28 523.849 457.267C523.749 457.255 523.663 457.288 523.593 457.365C523.505 457.464 523.443 457.659 523.407 457.951ZM525.753 457.766L525.534 457.756C525.525 457.668 525.505 457.603 525.474 457.56C525.423 457.49 525.354 457.45 525.268 457.44C525.198 457.431 525.135 457.443 525.078 457.475C525.003 457.517 524.94 457.584 524.888 457.675C524.837 457.766 524.8 457.901 524.776 458.078C524.839 458.004 524.91 457.953 524.991 457.923C525.071 457.894 525.153 457.884 525.237 457.895C525.382 457.912 525.499 457.981 525.588 458.101C525.677 458.22 525.712 458.365 525.691 458.534C525.677 458.646 525.64 458.747 525.58 458.837C525.521 458.926 525.446 458.991 525.356 459.032C525.265 459.073 525.167 459.086 525.06 459.073C524.879 459.051 524.739 458.966 524.64 458.819C524.542 458.671 524.512 458.443 524.549 458.136C524.591 457.793 524.685 457.551 524.831 457.411C524.958 457.289 525.116 457.239 525.303 457.262C525.443 457.279 525.552 457.332 525.631 457.421C525.711 457.511 525.752 457.626 525.753 457.766ZM524.769 458.423C524.759 458.498 524.766 458.572 524.789 458.644C524.813 458.717 524.852 458.775 524.905 458.818C524.958 458.861 525.016 458.886 525.079 458.893C525.171 458.905 525.254 458.877 525.33 458.811C525.405 458.745 525.451 458.648 525.466 458.52C525.481 458.398 525.46 458.297 525.404 458.219C525.347 458.14 525.269 458.094 525.169 458.082C525.071 458.07 524.983 458.095 524.906 458.158C524.828 458.22 524.783 458.308 524.769 458.423Z" fill="black"/>
<path d="M510.579 465.879L510.801 465.876C510.811 466.003 510.842 466.097 510.895 466.16C510.949 466.221 511.02 466.257 511.106 466.268C511.209 466.28 511.299 466.255 511.378 466.193C511.458 466.13 511.504 466.047 511.517 465.942C511.53 465.842 511.507 465.755 511.449 465.683C511.392 465.609 511.313 465.566 511.212 465.554C511.171 465.549 511.118 465.551 511.055 465.559L511.103 465.371C511.117 465.374 511.129 465.376 511.137 465.378C511.23 465.389 511.317 465.375 511.397 465.336C511.477 465.296 511.524 465.226 511.536 465.125C511.546 465.045 511.527 464.976 511.479 464.916C511.431 464.857 511.365 464.822 511.279 464.812C511.194 464.802 511.12 464.82 511.057 464.866C510.994 464.912 510.948 464.988 510.919 465.093L510.706 465.027C510.75 464.884 510.825 464.779 510.929 464.71C511.033 464.641 511.156 464.615 511.296 464.632C511.393 464.644 511.48 464.676 511.556 464.728C511.633 464.779 511.688 464.843 511.722 464.92C511.757 464.998 511.769 465.077 511.76 465.157C511.75 465.234 511.721 465.301 511.672 465.359C511.623 465.417 511.556 465.46 511.471 465.487C511.573 465.524 511.648 465.585 511.697 465.669C511.746 465.752 511.763 465.851 511.749 465.965C511.73 466.12 511.658 466.245 511.531 466.339C511.405 466.433 511.256 466.469 511.083 466.448C510.927 466.429 510.803 466.367 510.711 466.261C510.62 466.156 510.576 466.028 510.579 465.879ZM512.009 465.64C512.035 465.43 512.077 465.264 512.135 465.142C512.195 465.019 512.271 464.928 512.364 464.869C512.458 464.81 512.57 464.788 512.699 464.804C512.795 464.815 512.876 464.845 512.943 464.893C513.01 464.939 513.063 465.002 513.101 465.08C513.139 465.158 513.165 465.251 513.179 465.358C513.193 465.465 513.189 465.606 513.167 465.782C513.142 465.991 513.1 466.156 513.041 466.28C512.983 466.402 512.907 466.493 512.812 466.553C512.719 466.612 512.607 466.634 512.477 466.618C512.306 466.597 512.179 466.519 512.096 466.384C511.997 466.222 511.968 465.974 512.009 465.64ZM512.233 465.668C512.198 465.959 512.208 466.158 512.264 466.263C512.321 466.368 512.399 466.426 512.499 466.438C512.6 466.451 512.689 466.412 512.769 466.324C512.85 466.235 512.908 466.046 512.943 465.755C512.979 465.462 512.969 465.264 512.912 465.159C512.856 465.055 512.777 464.996 512.675 464.984C512.575 464.972 512.49 465.004 512.419 465.082C512.331 465.181 512.269 465.376 512.233 465.668ZM513.366 466.279L513.578 466.285C513.584 466.386 513.609 466.461 513.654 466.512C513.698 466.562 513.76 466.593 513.838 466.602C513.905 466.61 513.966 466.602 514.02 466.578C514.074 466.553 514.121 466.517 514.159 466.47C514.198 466.423 514.233 466.357 514.266 466.272C514.298 466.187 514.32 466.1 514.331 466.009C514.332 466 514.334 465.985 514.335 465.966C514.283 466.03 514.217 466.079 514.135 466.113C514.055 466.147 513.971 466.158 513.883 466.148C513.736 466.13 513.618 466.061 513.529 465.942C513.44 465.823 513.407 465.676 513.428 465.502C513.45 465.322 513.521 465.183 513.64 465.086C513.76 464.989 513.9 464.951 514.06 464.97C514.176 464.984 514.277 465.028 514.365 465.102C514.453 465.176 514.515 465.274 514.55 465.396C514.586 465.516 514.591 465.686 514.564 465.904C514.537 466.131 514.49 466.309 514.424 466.438C514.358 466.566 514.272 466.659 514.166 466.717C514.06 466.776 513.942 466.797 513.811 466.781C513.672 466.764 513.564 466.712 513.485 466.624C513.406 466.536 513.367 466.421 513.366 466.279ZM514.355 465.604C514.37 465.479 514.349 465.375 514.291 465.294C514.234 465.212 514.158 465.166 514.065 465.154C513.968 465.142 513.878 465.171 513.797 465.242C513.715 465.312 513.667 465.41 513.651 465.536C513.637 465.649 513.66 465.746 513.719 465.825C513.779 465.904 513.859 465.949 513.96 465.962C514.061 465.974 514.148 465.949 514.221 465.886C514.295 465.823 514.34 465.729 514.355 465.604Z" fill="black"/>
<path d="M518.623 479.553L518.844 479.551C518.854 479.678 518.886 479.772 518.939 479.834C518.993 479.896 519.063 479.932 519.149 479.943C519.252 479.955 519.343 479.93 519.422 479.868C519.502 479.805 519.548 479.722 519.561 479.617C519.573 479.516 519.55 479.43 519.493 479.357C519.435 479.284 519.356 479.241 519.255 479.229C519.214 479.224 519.162 479.225 519.098 479.234L519.146 479.046C519.16 479.049 519.172 479.051 519.181 479.052C519.274 479.064 519.36 479.05 519.441 479.01C519.521 478.971 519.567 478.901 519.579 478.8C519.589 478.72 519.57 478.65 519.523 478.591C519.475 478.532 519.408 478.497 519.323 478.487C519.238 478.476 519.164 478.494 519.101 478.541C519.038 478.587 518.992 478.663 518.962 478.767L518.749 478.702C518.794 478.559 518.868 478.453 518.972 478.385C519.077 478.316 519.199 478.29 519.34 478.307C519.437 478.319 519.523 478.351 519.6 478.403C519.676 478.454 519.732 478.518 519.766 478.595C519.8 478.672 519.813 478.751 519.803 478.832C519.794 478.909 519.765 478.976 519.716 479.034C519.667 479.092 519.6 479.135 519.514 479.162C519.616 479.199 519.692 479.26 519.74 479.343C519.789 479.426 519.807 479.525 519.793 479.64C519.774 479.795 519.701 479.92 519.575 480.014C519.449 480.108 519.299 480.144 519.126 480.123C518.97 480.104 518.846 480.042 518.754 479.936C518.663 479.831 518.619 479.703 518.623 479.553ZM520.053 479.315C520.078 479.105 520.12 478.939 520.179 478.817C520.238 478.694 520.314 478.602 520.408 478.543C520.502 478.484 520.614 478.463 520.743 478.479C520.838 478.49 520.919 478.52 520.987 478.567C521.054 478.614 521.106 478.677 521.144 478.755C521.182 478.833 521.208 478.925 521.222 479.033C521.236 479.14 521.232 479.281 521.211 479.457C521.185 479.665 521.143 479.831 521.085 479.954C521.026 480.077 520.95 480.168 520.856 480.228C520.763 480.287 520.651 480.308 520.521 480.292C520.35 480.271 520.223 480.194 520.14 480.059C520.041 479.897 520.012 479.649 520.053 479.315ZM520.277 479.343C520.241 479.634 520.251 479.833 520.307 479.938C520.364 480.042 520.443 480.101 520.543 480.113C520.643 480.125 520.733 480.087 520.813 479.999C520.893 479.91 520.951 479.72 520.987 479.43C521.023 479.137 521.012 478.939 520.955 478.834C520.899 478.73 520.82 478.671 520.718 478.659C520.618 478.647 520.533 478.679 520.463 478.757C520.374 478.856 520.312 479.051 520.277 479.343ZM521.78 479.438C521.694 479.394 521.632 479.338 521.596 479.272C521.56 479.205 521.547 479.129 521.558 479.043C521.574 478.914 521.633 478.811 521.737 478.734C521.841 478.658 521.97 478.629 522.124 478.648C522.279 478.667 522.398 478.727 522.482 478.829C522.565 478.93 522.599 479.046 522.583 479.175C522.573 479.257 522.543 479.326 522.492 479.382C522.441 479.438 522.37 479.477 522.278 479.499C522.383 479.548 522.459 479.615 522.505 479.701C522.553 479.788 522.57 479.886 522.557 479.996C522.538 480.147 522.469 480.268 522.349 480.359C522.229 480.449 522.081 480.483 521.906 480.462C521.73 480.44 521.595 480.371 521.501 480.255C521.406 480.138 521.368 480.001 521.387 479.846C521.401 479.731 521.442 479.638 521.51 479.567C521.578 479.496 521.668 479.453 521.78 479.438ZM521.782 479.063C521.771 479.147 521.79 479.219 521.838 479.279C521.885 479.339 521.952 479.374 522.039 479.385C522.123 479.395 522.195 479.377 522.254 479.331C522.315 479.285 522.35 479.223 522.359 479.146C522.369 479.066 522.35 478.996 522.3 478.935C522.252 478.873 522.187 478.837 522.105 478.827C522.021 478.817 521.949 478.835 521.888 478.882C521.826 478.928 521.791 478.989 521.782 479.063ZM521.611 479.875C521.604 479.937 521.611 479.999 521.633 480.061C521.655 480.123 521.694 480.173 521.748 480.213C521.802 480.251 521.863 480.275 521.93 480.283C522.034 480.296 522.124 480.273 522.201 480.214C522.277 480.155 522.321 480.074 522.334 479.971C522.346 479.866 522.322 479.775 522.26 479.697C522.199 479.62 522.116 479.575 522.011 479.562C521.908 479.55 521.819 479.573 521.743 479.633C521.667 479.692 521.624 479.773 521.611 479.875Z" fill="black"/>
<path d="M518.418 482.432L518.64 482.43C518.65 482.557 518.681 482.651 518.734 482.713C518.788 482.775 518.858 482.811 518.945 482.821C519.047 482.834 519.138 482.809 519.217 482.747C519.297 482.684 519.343 482.601 519.356 482.495C519.368 482.395 519.346 482.309 519.288 482.236C519.231 482.163 519.152 482.12 519.051 482.108C519.009 482.103 518.957 482.104 518.894 482.113L518.941 481.925C518.956 481.928 518.967 481.93 518.976 481.931C519.069 481.943 519.156 481.929 519.236 481.889C519.316 481.85 519.363 481.78 519.375 481.679C519.385 481.599 519.366 481.529 519.318 481.47C519.27 481.411 519.204 481.376 519.118 481.366C519.033 481.355 518.959 481.373 518.896 481.42C518.833 481.466 518.787 481.542 518.758 481.646L518.544 481.581C518.589 481.438 518.663 481.332 518.768 481.264C518.872 481.195 518.995 481.169 519.135 481.186C519.232 481.198 519.319 481.23 519.395 481.282C519.472 481.333 519.527 481.397 519.561 481.474C519.596 481.551 519.608 481.63 519.598 481.711C519.589 481.788 519.56 481.855 519.511 481.913C519.462 481.971 519.395 482.014 519.31 482.041C519.412 482.078 519.487 482.138 519.536 482.222C519.585 482.305 519.602 482.404 519.588 482.519C519.569 482.674 519.497 482.799 519.37 482.893C519.244 482.987 519.094 483.023 518.922 483.002C518.766 482.983 518.642 482.92 518.55 482.815C518.458 482.709 518.415 482.582 518.418 482.432ZM520.562 483.171L520.344 483.144L520.514 481.754C520.456 481.798 520.38 481.84 520.289 481.879C520.198 481.919 520.117 481.947 520.046 481.964L520.072 481.753C520.201 481.711 520.316 481.654 520.417 481.584C520.518 481.513 520.593 481.442 520.64 481.37L520.781 481.387L520.562 483.171ZM521.229 482.363C521.255 482.153 521.297 481.987 521.355 481.865C521.415 481.741 521.491 481.65 521.584 481.591C521.679 481.532 521.79 481.511 521.919 481.527C522.015 481.538 522.096 481.568 522.163 481.615C522.23 481.662 522.283 481.725 522.321 481.803C522.359 481.881 522.385 481.973 522.399 482.081C522.413 482.187 522.409 482.329 522.388 482.505C522.362 482.713 522.32 482.879 522.262 483.002C522.203 483.125 522.127 483.216 522.033 483.276C521.939 483.335 521.828 483.356 521.698 483.34C521.526 483.319 521.399 483.242 521.317 483.107C521.218 482.945 521.188 482.697 521.229 482.363ZM521.453 482.391C521.418 482.682 521.428 482.881 521.484 482.986C521.541 483.09 521.619 483.149 521.719 483.161C521.82 483.173 521.91 483.135 521.989 483.046C522.07 482.958 522.128 482.768 522.163 482.477C522.199 482.185 522.189 481.987 522.132 481.882C522.076 481.778 521.997 481.719 521.895 481.707C521.795 481.695 521.71 481.727 521.64 481.805C521.551 481.904 521.489 482.099 521.453 482.391Z" fill="black"/>
<path d="M510.035 469.044L510.257 469.041C510.267 469.168 510.298 469.262 510.351 469.325C510.405 469.386 510.476 469.422 510.562 469.433C510.665 469.445 510.755 469.42 510.834 469.358C510.914 469.296 510.96 469.212 510.973 469.107C510.986 469.007 510.963 468.92 510.905 468.848C510.848 468.774 510.769 468.731 510.668 468.719C510.627 468.714 510.574 468.716 510.511 468.724L510.559 468.536C510.573 468.539 510.585 468.542 510.593 468.543C510.686 468.554 510.773 468.54 510.853 468.501C510.933 468.461 510.98 468.391 510.992 468.29C511.002 468.21 510.983 468.141 510.935 468.081C510.888 468.022 510.821 467.988 510.735 467.977C510.65 467.967 510.577 467.985 510.513 468.031C510.45 468.077 510.404 468.153 510.375 468.258L510.162 468.192C510.206 468.049 510.281 467.944 510.385 467.875C510.489 467.806 510.612 467.78 510.752 467.797C510.849 467.809 510.936 467.841 511.012 467.893C511.089 467.944 511.144 468.008 511.178 468.085C511.213 468.163 511.226 468.242 511.216 468.322C511.206 468.399 511.177 468.466 511.128 468.524C511.079 468.582 511.012 468.625 510.927 468.652C511.029 468.689 511.104 468.75 511.153 468.834C511.202 468.917 511.219 469.016 511.205 469.13C511.186 469.285 511.114 469.41 510.987 469.505C510.861 469.598 510.712 469.634 510.539 469.613C510.383 469.594 510.259 469.532 510.167 469.426C510.076 469.321 510.032 469.193 510.035 469.044ZM512.179 469.782L511.961 469.755L512.131 468.366C512.073 468.409 511.998 468.451 511.906 468.49C511.815 468.53 511.734 468.558 511.663 468.575L511.689 468.364C511.818 468.322 511.933 468.265 512.034 468.195C512.136 468.125 512.21 468.053 512.257 467.981L512.398 467.998L512.179 469.782ZM513.377 469.928L513.158 469.902L513.329 468.512C513.27 468.556 513.195 468.597 513.103 468.637C513.012 468.677 512.931 468.705 512.86 468.722L512.886 468.511C513.015 468.468 513.13 468.412 513.231 468.342C513.333 468.271 513.407 468.2 513.454 468.128L513.595 468.145L513.377 469.928Z" fill="black"/>
<path d="M509.894 471.948L510.116 471.946C510.126 472.072 510.157 472.167 510.21 472.229C510.264 472.29 510.334 472.327 510.421 472.337C510.524 472.35 510.614 472.325 510.693 472.262C510.773 472.2 510.819 472.116 510.832 472.011C510.844 471.911 510.822 471.825 510.764 471.752C510.707 471.679 510.628 471.636 510.527 471.623C510.486 471.618 510.433 471.62 510.37 471.629L510.418 471.44C510.432 471.444 510.443 471.446 510.452 471.447C510.545 471.458 510.632 471.444 510.712 471.405C510.792 471.366 510.839 471.295 510.851 471.194C510.861 471.114 510.842 471.045 510.794 470.986C510.746 470.927 510.68 470.892 510.594 470.881C510.509 470.871 510.435 470.889 510.372 470.935C510.309 470.982 510.263 471.057 510.234 471.162L510.021 471.096C510.065 470.954 510.14 470.848 510.244 470.779C510.348 470.71 510.471 470.684 510.611 470.701C510.708 470.713 510.795 470.745 510.871 470.797C510.948 470.848 511.003 470.913 511.037 470.99C511.072 471.067 511.084 471.146 511.075 471.227C511.065 471.303 511.036 471.371 510.987 471.429C510.938 471.487 510.871 471.529 510.786 471.557C510.888 471.594 510.963 471.654 511.012 471.738C511.061 471.821 511.078 471.92 511.064 472.035C511.045 472.19 510.973 472.314 510.846 472.409C510.72 472.502 510.57 472.539 510.398 472.517C510.242 472.498 510.118 472.436 510.026 472.331C509.935 472.225 509.891 472.098 509.894 471.948ZM512.038 472.686L511.82 472.66L511.99 471.27C511.932 471.314 511.857 471.355 511.765 471.395C511.674 471.434 511.593 471.463 511.522 471.479L511.548 471.269C511.677 471.226 511.792 471.17 511.893 471.099C511.994 471.029 512.069 470.958 512.116 470.886L512.257 470.903L512.038 472.686ZM512.657 472.286L512.878 472.284C512.888 472.41 512.92 472.505 512.973 472.567C513.027 472.629 513.097 472.665 513.183 472.675C513.286 472.688 513.377 472.663 513.456 472.6C513.536 472.538 513.582 472.454 513.595 472.349C513.607 472.249 513.584 472.163 513.527 472.09C513.469 472.017 513.39 471.974 513.289 471.961C513.248 471.956 513.196 471.958 513.132 471.967L513.18 471.778C513.194 471.782 513.206 471.784 513.215 471.785C513.308 471.796 513.394 471.782 513.475 471.743C513.555 471.704 513.601 471.633 513.613 471.532C513.623 471.452 513.604 471.383 513.557 471.324C513.509 471.265 513.442 471.23 513.357 471.219C513.272 471.209 513.198 471.227 513.135 471.273C513.072 471.32 513.026 471.395 512.996 471.5L512.783 471.435C512.828 471.292 512.902 471.186 513.006 471.117C513.111 471.048 513.233 471.022 513.374 471.039C513.471 471.051 513.557 471.083 513.634 471.135C513.71 471.186 513.766 471.251 513.8 471.328C513.834 471.405 513.847 471.484 513.837 471.565C513.828 471.641 513.799 471.709 513.75 471.767C513.701 471.825 513.634 471.867 513.548 471.895C513.65 471.932 513.726 471.992 513.774 472.076C513.823 472.159 513.841 472.258 513.827 472.373C513.808 472.528 513.735 472.652 513.609 472.747C513.483 472.84 513.333 472.877 513.16 472.856C513.004 472.836 512.88 472.774 512.788 472.669C512.697 472.563 512.653 472.436 512.657 472.286Z" fill="black"/>
<path d="M509.62 475.054L509.842 475.052C509.852 475.179 509.883 475.273 509.936 475.335C509.99 475.397 510.061 475.433 510.147 475.444C510.25 475.456 510.34 475.431 510.419 475.369C510.499 475.306 510.545 475.223 510.558 475.118C510.571 475.017 510.548 474.931 510.49 474.858C510.433 474.785 510.354 474.742 510.253 474.73C510.212 474.725 510.159 474.726 510.096 474.735L510.144 474.547C510.158 474.55 510.17 474.552 510.178 474.553C510.271 474.565 510.358 474.551 510.438 474.511C510.518 474.472 510.565 474.402 510.577 474.301C510.587 474.221 510.568 474.151 510.52 474.092C510.473 474.033 510.406 473.998 510.32 473.988C510.235 473.977 510.161 473.995 510.098 474.042C510.035 474.088 509.989 474.164 509.96 474.268L509.747 474.203C509.791 474.06 509.866 473.954 509.97 473.886C510.074 473.817 510.197 473.791 510.337 473.808C510.434 473.82 510.521 473.852 510.597 473.904C510.674 473.955 510.729 474.019 510.763 474.096C510.798 474.173 510.811 474.252 510.801 474.333C510.791 474.41 510.762 474.477 510.713 474.535C510.664 474.593 510.597 474.636 510.512 474.663C510.614 474.7 510.689 474.761 510.738 474.844C510.787 474.927 510.804 475.026 510.79 475.141C510.771 475.296 510.699 475.421 510.572 475.515C510.446 475.609 510.297 475.645 510.124 475.624C509.968 475.605 509.844 475.543 509.752 475.437C509.661 475.332 509.617 475.204 509.62 475.054ZM511.764 475.793L511.546 475.766L511.716 474.376C511.658 474.42 511.583 474.462 511.491 474.501C511.4 474.541 511.319 474.569 511.248 474.586L511.274 474.375C511.403 474.333 511.518 474.276 511.619 474.206C511.72 474.135 511.795 474.064 511.842 473.992L511.983 474.009L511.764 475.793ZM512.381 475.396L512.613 475.405C512.616 475.518 512.645 475.607 512.699 475.671C512.755 475.734 512.826 475.771 512.913 475.782C513.018 475.795 513.112 475.766 513.194 475.696C513.277 475.626 513.326 475.525 513.342 475.394C513.357 475.27 513.334 475.167 513.272 475.087C513.212 475.007 513.125 474.959 513.012 474.946C512.942 474.937 512.876 474.945 512.816 474.971C512.755 474.995 512.706 475.031 512.667 475.078L512.466 475.026L512.749 474.135L513.633 474.243L513.607 474.452L512.898 474.365L512.744 474.83C512.86 474.769 512.976 474.746 513.094 474.76C513.249 474.779 513.373 474.849 513.466 474.969C513.56 475.09 513.596 475.234 513.576 475.403C513.556 475.564 513.492 475.697 513.384 475.803C513.253 475.933 513.088 475.985 512.891 475.961C512.73 475.942 512.603 475.88 512.512 475.777C512.421 475.674 512.377 475.547 512.381 475.396Z" fill="black"/>
<path d="M508.823 481.101L509.045 481.099C509.055 481.226 509.086 481.32 509.139 481.382C509.193 481.444 509.263 481.48 509.35 481.49C509.452 481.503 509.543 481.478 509.622 481.416C509.702 481.353 509.748 481.269 509.761 481.164C509.773 481.064 509.751 480.978 509.693 480.905C509.636 480.832 509.556 480.789 509.455 480.777C509.414 480.772 509.362 480.773 509.299 480.782L509.346 480.594C509.361 480.597 509.372 480.599 509.381 480.6C509.474 480.612 509.561 480.598 509.641 480.558C509.721 480.519 509.767 480.449 509.78 480.348C509.789 480.268 509.771 480.198 509.723 480.139C509.675 480.08 509.608 480.045 509.523 480.035C509.438 480.024 509.364 480.042 509.301 480.089C509.238 480.135 509.192 480.211 509.163 480.315L508.949 480.25C508.994 480.107 509.068 480.001 509.173 479.933C509.277 479.864 509.399 479.838 509.54 479.855C509.637 479.867 509.724 479.899 509.8 479.951C509.877 480.002 509.932 480.066 509.966 480.143C510.001 480.22 510.013 480.299 510.003 480.38C509.994 480.457 509.965 480.524 509.916 480.582C509.867 480.64 509.8 480.683 509.714 480.71C509.817 480.747 509.892 480.807 509.941 480.891C509.99 480.974 510.007 481.073 509.993 481.188C509.974 481.343 509.901 481.468 509.775 481.562C509.649 481.656 509.499 481.692 509.326 481.671C509.17 481.652 509.046 481.589 508.954 481.484C508.863 481.378 508.819 481.251 508.823 481.101ZM510.967 481.84L510.749 481.813L510.919 480.423C510.86 480.467 510.785 480.508 510.693 480.548C510.603 480.588 510.522 480.616 510.451 480.633L510.477 480.422C510.605 480.379 510.721 480.323 510.822 480.253C510.923 480.182 510.997 480.111 511.045 480.039L511.185 480.056L510.967 481.84ZM512.823 480.705L512.604 480.696C512.595 480.608 512.575 480.542 512.544 480.499C512.493 480.43 512.424 480.39 512.337 480.379C512.268 480.371 512.205 480.383 512.147 480.415C512.073 480.457 512.01 480.523 511.958 480.614C511.907 480.706 511.87 480.84 511.846 481.017C511.908 480.944 511.98 480.892 512.061 480.863C512.141 480.833 512.223 480.824 512.306 480.834C512.452 480.852 512.569 480.921 512.657 481.041C512.747 481.16 512.781 481.304 512.761 481.474C512.747 481.585 512.71 481.686 512.65 481.776C512.59 481.866 512.516 481.931 512.425 481.971C512.335 482.012 512.237 482.026 512.13 482.013C511.948 481.99 511.808 481.906 511.71 481.758C511.612 481.61 511.581 481.383 511.619 481.076C511.661 480.732 511.755 480.491 511.901 480.35C512.028 480.228 512.185 480.178 512.373 480.201C512.512 480.218 512.622 480.272 512.701 480.361C512.781 480.45 512.822 480.565 512.823 480.705ZM511.838 481.362C511.829 481.437 511.836 481.511 511.859 481.584C511.883 481.656 511.922 481.714 511.974 481.758C512.027 481.8 512.085 481.825 512.148 481.833C512.241 481.844 512.324 481.817 512.4 481.751C512.475 481.684 512.52 481.587 512.536 481.46C512.551 481.337 512.53 481.236 512.473 481.158C512.417 481.079 512.339 481.033 512.239 481.021C512.141 481.009 512.053 481.035 511.975 481.097C511.898 481.159 511.852 481.247 511.838 481.362Z" fill="black"/>
<path d="M508.615 484.123L508.837 484.12C508.847 484.247 508.878 484.341 508.932 484.404C508.985 484.465 509.056 484.501 509.142 484.512C509.245 484.524 509.335 484.499 509.414 484.437C509.494 484.375 509.541 484.291 509.553 484.186C509.566 484.086 509.543 483.999 509.486 483.927C509.428 483.853 509.349 483.81 509.248 483.798C509.207 483.793 509.154 483.795 509.091 483.803L509.139 483.615C509.153 483.618 509.165 483.621 509.174 483.622C509.266 483.633 509.353 483.619 509.433 483.58C509.514 483.54 509.56 483.47 509.572 483.369C509.582 483.289 509.563 483.22 509.515 483.161C509.468 483.101 509.401 483.067 509.315 483.056C509.231 483.046 509.157 483.064 509.094 483.11C509.03 483.157 508.984 483.232 508.955 483.337L508.742 483.271C508.786 483.128 508.861 483.023 508.965 482.954C509.069 482.885 509.192 482.859 509.332 482.876C509.429 482.888 509.516 482.92 509.592 482.972C509.669 483.023 509.724 483.087 509.758 483.164C509.793 483.242 509.806 483.321 509.796 483.401C509.786 483.478 509.757 483.546 509.708 483.604C509.659 483.661 509.592 483.704 509.507 483.731C509.609 483.768 509.684 483.829 509.733 483.913C509.782 483.996 509.799 484.095 509.785 484.209C509.766 484.364 509.694 484.489 509.567 484.584C509.441 484.677 509.292 484.713 509.119 484.692C508.963 484.673 508.839 484.611 508.747 484.505C508.656 484.4 508.612 484.272 508.615 484.123ZM510.76 484.861L510.541 484.834L510.712 483.445C510.653 483.488 510.578 483.53 510.486 483.57C510.395 483.609 510.314 483.637 510.243 483.654L510.269 483.443C510.398 483.401 510.513 483.345 510.614 483.274C510.716 483.204 510.79 483.132 510.837 483.06L510.978 483.078L510.76 484.861ZM512.018 485.015L512.07 484.59L511.3 484.496L511.324 484.296L512.276 483.244L512.454 483.266L512.313 484.417L512.553 484.446L512.528 484.646L512.289 484.617L512.237 485.042L512.018 485.015ZM512.095 484.39L512.193 483.589L511.539 484.322L512.095 484.39Z" fill="black"/>
<path d="M518.521 485.976L518.319 484.594L518.491 484.615L518.643 485.82L519.113 484.691L519.305 484.715L519.496 485.925L519.927 484.791L520.091 484.811L519.57 486.105L519.374 486.081L519.182 484.891L518.717 486L518.521 485.976ZM520.826 484.876C520.92 484.887 521.002 484.909 521.07 484.941C521.139 484.971 521.198 485.011 521.249 485.061L521.156 485.183C521.099 485.133 521.042 485.096 520.986 485.074C520.93 485.051 520.87 485.035 520.808 485.027C520.689 485.013 520.59 485.041 520.513 485.112C520.435 485.181 520.388 485.286 520.371 485.427L520.35 485.598C520.332 485.746 520.353 485.863 520.412 485.951C520.472 486.039 520.562 486.09 520.681 486.105C520.773 486.116 520.851 486.113 520.914 486.095C520.978 486.076 521.037 486.052 521.089 486.021L521.152 486.165C521.125 486.18 521.095 486.195 521.063 486.209C521.031 486.224 520.996 486.236 520.956 486.244C520.916 486.254 520.872 486.261 520.823 486.263C520.773 486.267 520.719 486.266 520.659 486.258C520.484 486.237 520.354 486.167 520.269 486.049C520.185 485.93 520.155 485.773 520.179 485.577L520.199 485.411C520.211 485.314 520.235 485.229 520.27 485.158C520.308 485.085 520.353 485.027 520.407 484.983C520.462 484.938 520.524 484.906 520.595 484.888C520.667 484.87 520.743 484.866 520.826 484.876Z" fill="black"/>
</svg>
