<svg width="1063" height="536" viewBox="0 0 1063 536" fill="none" xmlns="http://www.w3.org/2000/svg">
<path d="M354.8 215.5L346.9 268.3L363.5 270.8L371.4 218L363.9 216.9V217.1L363.8 217.9L363 217.8L362.2 217.7L362.3 216.9V216.7L354.8 215.5ZM361.1 223.7L361.9 223.8L362.7 223.9L362.6 224.7L362.5 225.5L361.7 225.4L360.9 225.3V225.2L361 224.4L361.1 223.7ZM359.9 231.5L360.7 231.6L361.5 231.7L361.4 232.5L361.3 233.3L360.5 233.2L359.7 233.1L359.8 232.3L359.9 231.5ZM358.8 239.1L359.6 239.2L360.4 239.3L360.3 240.1L360.2 240.9L359.4 240.8L358.6 240.7L358.7 239.9L358.8 239.1ZM357.6 246.9L358.4 247L359.2 247.1L359.1 247.9L359 248.7L358.2 248.6L357.4 248.5L357.5 247.7L357.6 246.9ZM356.4 254.6L357.2 254.7L358 254.8L357.9 255.6L357.8 256.4L357 256.3L356.2 256.2L356.3 255.4L356.4 254.6ZM355.2 262.3L356 262.4L356.8 262.5L356.7 263.3L356.6 264.1L355.8 264L355 263.9L355.1 263.1L355.2 262.3Z" fill="#70777F"/>
<path d="M494.4 147.1L491.6 147.6L493.5 158.1L494.1 158V158.2L489.1 159.1L488.5 159.2L488.7 160.1H488.5L485.6 146L474.8 147.9L478.4 165.7L489.2 163.8L488.8 161.8H489L489.5 163.9L497.5 162.4V162.6L497 162.7L497.1 163.4L500.3 162.8L500.2 162.1L499.7 162.2V162L500.1 161.9L499.2 157.3L495.5 157.9V157.7L496.2 157.6L494.4 147.1Z" fill="#70777F"/>
<path d="M384.4 126.1L382.6 126.5L382.7 127L383 126.9V127L382.7 127.1L383.4 130L385.9 129.4L385.6 128L384.9 128.2L384.5 126.7L384.2 126.8V126.7L384.5 126.6L384.4 126.1Z" fill="#70777F"/>
<path d="M64.9 174.4L62.8 174.1L62.5 176.1L65.4 176.5L65.3 176.9L76.9 178.5L77.3 175.2L65.7 173.6L65.6 174.4H64.9Z" fill="#70777F"/>
<path d="M226.8 189.6L224.3 189.3L224.1 191.2L227.1 191.6L227 192.1L238 193.4L238.4 190.4L227.4 189.1L227.3 189.7L226.8 189.6Z" fill="#70777F"/>
<path d="M494.6 166.9L501.1 165.6L500.5 162L494 163.3L494.6 166.9Z" fill="#FFD700"/>
<path d="M63.8 167.1L65.9 167.4L64.9 174.5L62.8 174.2L63.8 167.1Z" fill="#FFD700"/>
<path d="M225.2 182L227.7 182.3L226.8 189.6L224.3 189.3L225.2 182Z" fill="#FFD700"/>
<path d="M476.5 156.7L487.4 154.6L487.1 152.9L476.2 155L476.5 156.7Z" fill="#FFD700"/>
<path d="M350.9 260.1C350.7 257.8 352.7 257.2 351.9 252.7C351.6 251.3 355.5 252 355.3 253.2C355 255.4 354.2 257.9 354.3 260.6C354.3 261.8 351 261.4 350.9 260.1Z" fill="#FFD700"/>
<path d="M361.5 218C362.3 218.2 362.5 221.2 361.8 223.2C361.1 225.1 359.3 224.5 358.7 223.4C357.7 221.3 357.6 218.8 358.4 218.2C359.1 217.7 360 217.5 361.5 218Z" fill="#FFD700"/>
<path d="M382.9 120.3L381.1 120.7L382.4 126.4L384.2 126L382.9 120.3Z" fill="#FFD700"/>
</svg>
