<svg width="1063" height="536" viewBox="0 0 1063 536" fill="none" xmlns="http://www.w3.org/2000/svg">
<path d="M521.6 459.9L521.2 462.4L525.4 463L525.8 460.5L521.6 459.9Z" fill="#FFD6A9"/>
<path d="M516.3 445.8L524.3 446.9L524.6 445L516.6 443.9L516.3 445.8Z" fill="#FFD6A9"/>
<path d="M510.2 488.6L518.1 489.7L518.4 487.8L510.5 486.7L510.2 488.6Z" fill="#FFD6A9"/>
<path d="M511.673 450.96L511.871 449.476L514.937 449.872L518.003 450.267L517.806 451.751L517.608 453.235L514.542 452.839L511.475 452.444L511.673 450.96Z" fill="#AFAFAF" stroke="#1E1E1E" stroke-width="0.197821" stroke-miterlimit="10"/>
<path d="M520.377 458.279L520.575 456.796L523.641 457.191L526.708 457.587L526.51 459.07L526.312 460.554L523.246 460.158L520.179 459.763L520.377 458.279Z" fill="#AFAFAF" stroke="#1E1E1E" stroke-width="0.197821" stroke-miterlimit="10"/>
<path d="M508.31 475.193L508.508 473.709L511.574 474.105L514.64 474.5L514.443 475.984L514.245 477.468L511.179 477.072L508.112 476.677L508.31 475.193Z" fill="#AFAFAF" stroke="#1E1E1E" stroke-width="0.197821" stroke-miterlimit="10"/>
<path d="M517.41 479.347L517.608 477.864L520.674 478.259L523.74 478.655L523.542 480.138L523.345 481.622L520.278 481.226L517.212 480.831L517.41 479.347Z" fill="#AFAFAF" stroke="#1E1E1E" stroke-width="0.197821" stroke-miterlimit="10"/>
<path d="M507.42 484.095L507.618 482.611L510.684 483.007L513.75 483.402L513.552 484.886L513.355 486.37L510.288 485.974L507.222 485.579L507.42 484.095Z" fill="#AFAFAF" stroke="#1E1E1E" stroke-width="0.197821" stroke-miterlimit="10"/>
<path d="M507.816 481.127L508.013 479.644L511.08 480.039L514.146 480.435L513.948 481.919L513.75 483.402L510.684 483.007L507.618 482.611L507.816 481.127Z" fill="#AFAFAF" stroke="#1E1E1E" stroke-width="0.197821" stroke-miterlimit="10"/>
<path d="M495.65 476.479L496.738 468.764L502.87 469.654L509.003 470.544L508.508 474.006L508.013 477.468V477.072L508.112 476.676L511.179 477.072L514.245 477.468L514.542 475.292L514.838 473.116H514.739H514.64L514.542 473.709L514.443 474.303L511.376 473.907L508.607 473.511L508.805 472.028L509.003 470.544L511.772 470.94L514.838 471.335L514.739 471.929L514.64 472.522H514.739H514.838L515.036 471.335L515.234 470.148H515.135H515.036L514.937 470.742L514.838 471.335L511.772 470.94L508.706 470.544L508.904 469.06L509.101 467.577L512.168 467.972L515.234 468.368L515.135 468.962L515.036 469.555H515.135H515.234L515.432 468.368L515.629 467.181H515.531H515.432L515.333 467.775L515.234 468.368L512.168 467.972L509.101 467.577L509.299 466.093L509.497 464.609L512.563 465.005L515.629 465.401L515.531 465.994L515.432 466.588H515.531H515.629L515.728 465.994L515.827 465.401L512.761 465.005L509.695 464.609L510.091 461.543L510.486 458.477L510.684 456.993L510.882 455.51L513.948 455.905L517.014 456.301L516.915 456.796L516.816 457.29H516.915H517.014L517.212 456.103L517.41 454.916L517.311 455.51L517.212 456.103L514.146 455.707L511.08 455.312L511.277 453.828L511.475 452.345L514.542 452.74L517.608 453.136L517.509 453.729L517.41 454.323H517.509H517.608L518.003 451.652L518.399 448.982H518.3H518.201L518.102 449.575L518.003 450.169L514.937 449.773L511.871 449.377L512.069 447.894L512.267 446.41L515.333 446.806L518.399 447.201L518.3 447.795L518.201 448.388H518.3H518.399L518.498 447.795L518.597 447.201L519.19 447.3L519.784 447.399V447.102L520.575 447.201V447.498L521.169 447.597L521.762 447.696L524.828 448.091L527.894 448.487L527.697 449.971L527.499 451.454L527.301 452.938L527.103 454.422L526.905 455.905L526.707 457.389L523.641 456.993L520.575 456.598L520.377 458.18L520.179 459.763L522.454 460.06L524.729 460.356L524.63 461.049L524.531 461.741L524.037 461.642L523.542 461.543L523.443 462.334L523.345 463.126L521.465 462.829L519.586 462.532L522.652 462.928L525.718 463.324L525.521 464.807L525.323 466.291L525.125 467.775L524.927 469.258L524.729 470.742L524.531 472.226L521.465 471.83L518.399 471.434L518.201 472.621L518.003 473.808L518.201 472.72L518.399 471.632L521.465 472.028L524.531 472.423L524.136 475.49L523.74 478.556L520.674 478.16L517.608 477.765L517.41 479.347L517.212 480.93L520.278 481.325L523.345 481.721L523.147 483.205L522.949 484.688L522.751 486.172L522.553 487.656L519.487 487.26L516.421 486.864L514.937 486.666L513.454 486.469L513.849 483.402L514.245 480.336L511.179 479.941L508.112 479.545V479.149V478.754L507.618 482.215L507.123 485.677L500.991 484.787L494.858 483.897L495.65 476.479Z" fill="#AFAFAF"/>
<path d="M522.949 484.688L522.751 486.172L522.553 487.656L519.487 487.26L516.421 486.864L514.937 486.666L513.454 486.469L513.849 483.402L514.245 480.336L511.179 479.941L508.112 479.545V479.149V478.754L507.618 482.215L507.123 485.677L500.991 484.787L494.858 483.897L495.65 476.479L496.738 468.764L502.87 469.654L509.003 470.544M509.003 470.544L508.508 474.006L508.013 477.468V477.072L508.112 476.676L511.179 477.072L514.245 477.468L514.542 475.292L514.838 473.116H514.739H514.64L514.542 473.709L514.443 474.303L511.376 473.907L508.607 473.511L508.805 472.028L509.003 470.544ZM509.003 470.544L511.772 470.94M509.101 467.577L508.904 469.06L508.706 470.544L511.772 470.94L514.838 471.335M514.838 471.335L514.739 471.929L514.64 472.522H514.739H514.838L515.036 471.335L515.234 470.148H515.135H515.036L514.937 470.742L514.838 471.335ZM509.101 467.577L512.168 467.972L515.234 468.368M517.212 456.103L517.41 454.916L517.311 455.51L517.212 456.103L517.014 457.29H516.915H516.816L516.915 456.796L517.014 456.301L513.948 455.905L510.882 455.51L510.684 456.993L510.486 458.477L510.091 461.543L509.695 464.609L512.761 465.005L515.827 465.401L515.728 465.994L515.629 466.588H515.531H515.432L515.531 465.994L515.629 465.401L512.563 465.005L509.497 464.609L509.299 466.093L509.101 467.577M515.234 468.368L515.135 468.962L515.036 469.555H515.135H515.234L515.432 468.368L515.629 467.181H515.531H515.432L515.333 467.775L515.234 468.368ZM510.486 458.477L513.552 458.873L516.619 459.268L516.718 458.675L516.816 458.081M517.212 456.103L514.146 455.707L511.08 455.312L511.277 453.828L511.475 452.345L514.542 452.74L517.608 453.136L517.509 453.729L517.41 454.323H517.509H517.608L518.003 451.652L518.399 448.982H518.3H518.201L518.102 449.575L518.003 450.169L514.937 449.773L511.871 449.377L512.069 447.894L512.267 446.41L515.333 446.806L518.399 447.201L518.3 447.795L518.201 448.388H518.3H518.399L518.498 447.795L518.597 447.201L519.19 447.3L519.784 447.399V447.102L520.575 447.201V447.498L521.169 447.597L521.762 447.696M521.762 447.696L521.663 448.289L521.564 448.883M521.762 447.696L524.828 448.091L527.894 448.487L527.697 449.971L527.499 451.454M527.499 451.454L524.433 451.059L521.366 450.663M527.499 451.454L527.301 452.938L527.103 454.422M521.366 450.663L521.465 450.07L521.564 449.476M521.366 450.663L521.267 451.257L521.169 451.85M527.103 454.422L524.037 454.026L520.971 453.63M527.103 454.422L526.905 455.905L526.707 457.389L523.641 456.993L520.575 456.598M520.971 453.63L521.07 453.037L521.169 452.443M520.971 453.63L520.872 454.224L520.773 454.817M519.586 462.532L521.465 462.829L523.345 463.126L523.443 462.334L523.542 461.543L524.037 461.642L524.531 461.741L524.63 461.049L524.729 460.356L522.454 460.06L520.179 459.763L520.377 458.18L520.575 456.598L520.674 456.004L520.773 455.411M524.927 469.258L525.125 467.775L525.323 466.291L525.521 464.807L525.718 463.324L522.652 462.928L519.586 462.532L519.19 465.599L518.795 468.665M518.795 468.665L518.696 469.258L518.597 469.852M518.795 468.665H519.19H519.586M525.323 466.291L523.048 465.994L520.773 465.697M524.927 469.258L522.652 468.962L520.377 468.665M524.927 469.258L524.729 470.742L524.531 472.226L521.465 471.83L518.399 471.434M518.399 471.434L518.498 470.841L518.597 470.247M518.399 471.434L518.201 472.621L518.003 473.808L518.201 472.72L518.399 471.632L521.465 472.028L524.531 472.423L524.136 475.49L523.74 478.556L520.674 478.16L517.608 477.765M517.212 480.93L517.41 479.347L517.608 477.765L517.806 476.676L518.003 475.588M517.212 480.93L517.113 481.523L517.014 482.117M517.212 480.93L520.278 481.325L523.345 481.721L523.147 483.205L522.949 484.688M522.949 484.688L519.883 484.293L516.816 483.897M516.619 485.084L516.718 484.49L516.816 483.897L516.915 483.304L517.014 482.71M516.421 486.864L516.52 486.271L516.619 485.677" stroke="#1E1E1E" stroke-width="0.197821" stroke-miterlimit="10"/>
<path d="M523.56 449.496L523.399 448.39L523.536 448.407L523.658 449.371L524.035 448.468L524.188 448.487L524.341 449.454L524.686 448.548L524.817 448.564L524.4 449.599L524.243 449.579L524.09 448.628L523.717 449.515L523.56 449.496ZM525.405 448.615C525.48 448.625 525.545 448.642 525.6 448.667C525.655 448.692 525.703 448.724 525.743 448.764L525.669 448.861C525.623 448.821 525.577 448.792 525.533 448.774C525.488 448.755 525.44 448.743 525.39 448.736C525.295 448.725 525.216 448.747 525.154 448.804C525.092 448.86 525.054 448.944 525.041 449.056L525.024 449.193C525.009 449.311 525.026 449.405 525.074 449.476C525.122 449.546 525.193 449.587 525.289 449.599C525.363 449.608 525.425 449.605 525.475 449.591C525.526 449.576 525.573 449.556 525.615 449.532L525.666 449.647C525.644 449.659 525.62 449.671 525.595 449.682C525.569 449.694 525.54 449.703 525.509 449.71C525.477 449.718 525.441 449.723 525.402 449.725C525.363 449.728 525.319 449.727 525.272 449.721C525.131 449.704 525.027 449.648 524.96 449.554C524.892 449.459 524.868 449.333 524.887 449.177L524.903 449.044C524.913 448.966 524.932 448.898 524.96 448.841C524.99 448.783 525.027 448.736 525.07 448.701C525.113 448.665 525.163 448.64 525.22 448.625C525.277 448.61 525.339 448.607 525.405 448.615Z" fill="black"/>
<path d="M513.652 447.105C513.672 447.078 513.697 447.053 513.725 447.029C513.754 447.006 513.786 446.986 513.821 446.97C513.858 446.953 513.899 446.942 513.942 446.935C513.988 446.927 514.037 446.926 514.092 446.933C514.157 446.941 514.214 446.957 514.263 446.98C514.314 447.004 514.355 447.034 514.387 447.07C514.421 447.105 514.444 447.146 514.459 447.194C514.473 447.24 514.477 447.289 514.471 447.342L514.468 447.362C514.465 447.39 514.457 447.419 514.446 447.45C514.434 447.479 514.417 447.507 514.395 447.534C514.373 447.561 514.344 447.585 514.31 447.606C514.275 447.628 514.233 447.643 514.183 447.653C514.28 447.683 514.35 447.731 514.393 447.798C514.437 447.865 514.454 447.94 514.444 448.024L514.44 448.054C514.434 448.105 514.419 448.155 514.396 448.201C514.373 448.248 514.34 448.289 514.296 448.324C514.255 448.358 514.201 448.383 514.136 448.399C514.072 448.416 513.997 448.418 513.909 448.408C513.826 448.398 513.747 448.374 513.672 448.338C513.598 448.304 513.531 448.255 513.47 448.193L513.553 448.09C513.617 448.149 513.678 448.193 513.736 448.223C513.796 448.254 513.859 448.273 513.925 448.281C513.987 448.288 514.041 448.286 514.087 448.274C514.133 448.262 514.17 448.245 514.2 448.222C514.231 448.197 514.255 448.169 514.271 448.138C514.288 448.105 514.299 448.072 514.303 448.039L514.306 448.013C514.313 447.959 514.307 447.913 514.289 447.876C514.272 447.838 514.248 447.806 514.217 447.783C514.188 447.758 514.154 447.739 514.116 447.726C514.078 447.713 514.042 447.705 514.008 447.701L513.847 447.681L513.862 447.562L514.028 447.582C514.073 447.588 514.113 447.584 514.148 447.573C514.184 447.559 514.213 447.541 514.238 447.517C514.264 447.493 514.284 447.466 514.298 447.436C514.314 447.404 514.324 447.373 514.328 447.343L514.33 447.327C514.338 447.255 514.32 447.196 514.275 447.149C514.231 447.101 514.166 447.071 514.078 447.06C514.021 447.053 513.965 447.059 513.909 447.076C513.853 447.092 513.801 447.13 513.752 447.19L513.652 447.105ZM515.681 447.988C515.656 448.19 515.598 448.341 515.508 448.44C515.419 448.538 515.288 448.576 515.115 448.555C514.946 448.535 514.83 448.465 514.766 448.347C514.703 448.229 514.683 448.07 514.708 447.869L514.735 447.646C514.76 447.447 514.817 447.297 514.909 447.198C515 447.099 515.129 447.06 515.296 447.08C515.465 447.101 515.582 447.171 515.647 447.289C515.712 447.405 515.732 447.564 515.708 447.765L515.681 447.988ZM515.565 447.746C515.587 447.569 515.573 447.438 515.524 447.354C515.477 447.269 515.396 447.22 515.281 447.205C515.171 447.192 515.081 447.221 515.012 447.291C514.944 447.362 514.9 447.486 514.878 447.662L514.851 447.888C514.829 448.066 514.842 448.197 514.891 448.282C514.941 448.367 515.021 448.417 515.131 448.43C515.245 448.444 515.335 448.416 515.403 448.347C515.471 448.276 515.516 448.151 515.537 447.972L515.565 447.746ZM516.332 448.682L516.486 447.426L516.115 447.594L516.065 447.475L516.541 447.255L516.646 447.268L516.471 448.699L516.332 448.682Z" fill="black"/>
<path d="M513.136 450.19C513.157 450.163 513.181 450.138 513.21 450.115C513.238 450.091 513.27 450.072 513.306 450.056C513.343 450.039 513.383 450.027 513.427 450.02C513.472 450.012 513.522 450.012 513.576 450.018C513.641 450.026 513.698 450.042 513.748 450.066C513.798 450.089 513.84 450.119 513.872 450.155C513.905 450.19 513.929 450.232 513.943 450.279C513.958 450.325 513.962 450.375 513.955 450.428L513.953 450.447C513.949 450.475 513.942 450.504 513.93 450.535C513.918 450.565 513.901 450.593 513.879 450.62C513.857 450.647 513.829 450.671 513.794 450.692C513.759 450.713 513.717 450.729 513.667 450.739C513.764 450.768 513.834 450.816 513.877 450.883C513.921 450.951 513.938 451.026 513.928 451.109L513.925 451.139C513.918 451.191 513.904 451.24 513.88 451.287C513.857 451.334 513.824 451.375 513.781 451.41C513.739 451.443 513.685 451.468 513.62 451.485C513.557 451.501 513.481 451.504 513.394 451.493C513.31 451.483 513.231 451.46 513.156 451.424C513.083 451.389 513.015 451.341 512.954 451.278L513.038 451.176C513.102 451.235 513.163 451.279 513.221 451.309C513.28 451.339 513.343 451.358 513.409 451.366C513.471 451.374 513.525 451.372 513.571 451.36C513.617 451.348 513.655 451.33 513.684 451.307C513.716 451.283 513.739 451.255 513.755 451.223C513.773 451.19 513.783 451.157 513.787 451.124L513.791 451.099C513.797 451.044 513.791 450.999 513.773 450.961C513.756 450.923 513.733 450.892 513.702 450.868C513.673 450.843 513.639 450.824 513.6 450.811C513.563 450.799 513.527 450.79 513.492 450.786L513.331 450.766L513.346 450.647L513.513 450.668C513.558 450.673 513.598 450.67 513.633 450.658C513.668 450.645 513.698 450.626 513.722 450.603C513.748 450.579 513.768 450.552 513.783 450.521C513.799 450.49 513.808 450.459 513.812 450.428L513.814 450.412C513.823 450.341 513.805 450.281 513.759 450.234C513.715 450.186 513.65 450.156 513.563 450.146C513.506 450.139 513.449 450.144 513.393 450.161C513.338 450.177 513.285 450.215 513.236 450.275L513.136 450.19ZM515.165 451.073C515.14 451.276 515.083 451.427 514.993 451.526C514.903 451.624 514.772 451.662 514.6 451.641C514.43 451.62 514.314 451.551 514.251 451.433C514.187 451.315 514.168 451.155 514.192 450.954L514.219 450.732C514.244 450.532 514.302 450.383 514.393 450.284C514.485 450.185 514.614 450.145 514.78 450.166C514.95 450.187 515.067 450.256 515.132 450.374C515.197 450.491 515.217 450.65 515.192 450.851L515.165 451.073ZM515.05 450.831C515.071 450.654 515.058 450.523 515.009 450.44C514.961 450.355 514.88 450.305 514.765 450.291C514.655 450.277 514.566 450.306 514.497 450.377C514.429 450.448 514.384 450.571 514.363 450.747L514.335 450.974C514.313 451.151 514.327 451.282 514.375 451.368C514.425 451.453 514.505 451.502 514.615 451.516C514.729 451.53 514.82 451.502 514.887 451.432C514.955 451.361 515 451.236 515.022 451.058L515.05 450.831ZM515.517 450.482C515.537 450.455 515.562 450.429 515.59 450.406C515.619 450.383 515.651 450.363 515.686 450.347C515.723 450.33 515.764 450.318 515.807 450.312C515.853 450.304 515.903 450.303 515.957 450.31C516.022 450.318 516.079 450.333 516.128 450.357C516.179 450.381 516.221 450.411 516.252 450.447C516.286 450.482 516.31 450.523 516.324 450.57C516.338 450.616 516.342 450.666 516.336 450.719L516.333 450.739C516.33 450.767 516.322 450.796 516.311 450.827C516.299 450.856 516.282 450.884 516.26 450.911C516.238 450.938 516.209 450.962 516.175 450.983C516.14 451.005 516.098 451.02 516.048 451.03C516.145 451.06 516.215 451.108 516.258 451.175C516.302 451.242 516.319 451.317 516.309 451.401L516.305 451.43C516.299 451.482 516.284 451.531 516.261 451.578C516.238 451.625 516.205 451.666 516.161 451.701C516.12 451.735 516.066 451.76 516.001 451.776C515.937 451.792 515.862 451.795 515.774 451.785C515.691 451.774 515.612 451.751 515.537 451.715C515.463 451.681 515.396 451.632 515.335 451.57L515.418 451.467C515.482 451.526 515.543 451.57 515.601 451.6C515.661 451.63 515.724 451.649 515.79 451.658C515.852 451.665 515.906 451.663 515.952 451.651C515.998 451.639 516.035 451.622 516.065 451.598C516.096 451.574 516.12 451.546 516.136 451.514C516.153 451.482 516.164 451.449 516.168 451.416L516.171 451.39C516.178 451.336 516.172 451.29 516.154 451.253C516.137 451.214 516.113 451.183 516.083 451.159C516.053 451.134 516.019 451.115 515.981 451.103C515.943 451.09 515.907 451.082 515.873 451.077L515.712 451.058L515.727 450.939L515.893 450.959C515.938 450.964 515.979 450.961 516.014 450.949C516.049 450.936 516.079 450.918 516.103 450.894C516.129 450.87 516.149 450.843 516.163 450.813C516.179 450.781 516.189 450.75 516.193 450.719L516.195 450.704C516.203 450.632 516.185 450.573 516.14 450.526C516.096 450.477 516.031 450.448 515.943 450.437C515.886 450.43 515.83 450.435 515.774 450.453C515.718 450.469 515.666 450.507 515.617 450.566L515.517 450.482Z" fill="black"/>
<path d="M512.621 453.061C512.642 453.034 512.667 453.009 512.695 452.986C512.724 452.962 512.755 452.943 512.791 452.927C512.828 452.91 512.868 452.898 512.912 452.891C512.957 452.884 513.007 452.883 513.062 452.89C513.126 452.898 513.184 452.913 513.233 452.937C513.284 452.96 513.325 452.99 513.357 453.026C513.39 453.061 513.414 453.103 513.429 453.15C513.443 453.196 513.447 453.246 513.441 453.299L513.438 453.318C513.435 453.346 513.427 453.376 513.415 453.406C513.404 453.436 513.387 453.464 513.365 453.491C513.343 453.518 513.314 453.542 513.279 453.563C513.245 453.584 513.202 453.6 513.153 453.61C513.25 453.639 513.32 453.688 513.363 453.755C513.407 453.822 513.424 453.897 513.414 453.98L513.41 454.01C513.404 454.062 513.389 454.111 513.366 454.158C513.343 454.205 513.309 454.246 513.266 454.281C513.224 454.315 513.171 454.34 513.106 454.356C513.042 454.372 512.966 454.375 512.879 454.364C512.796 454.354 512.717 454.331 512.642 454.295C512.568 454.26 512.501 454.212 512.44 454.149L512.523 454.047C512.587 454.106 512.648 454.15 512.706 454.18C512.766 454.21 512.828 454.229 512.895 454.237C512.957 454.245 513.011 454.243 513.057 454.231C513.102 454.219 513.14 454.201 513.17 454.178C513.201 454.154 513.225 454.126 513.241 454.094C513.258 454.061 513.269 454.029 513.273 453.995L513.276 453.97C513.283 453.915 513.277 453.87 513.258 453.832C513.242 453.794 513.218 453.763 513.187 453.739C513.158 453.714 513.124 453.695 513.085 453.682C513.048 453.67 513.012 453.661 512.978 453.657L512.817 453.637L512.831 453.518L512.998 453.539C513.043 453.544 513.083 453.541 513.118 453.529C513.153 453.516 513.183 453.498 513.208 453.474C513.233 453.45 513.254 453.423 513.268 453.392C513.284 453.361 513.294 453.33 513.298 453.299L513.299 453.283C513.308 453.212 513.29 453.153 513.245 453.105C513.201 453.057 513.135 453.028 513.048 453.017C512.991 453.01 512.935 453.015 512.879 453.032C512.823 453.048 512.771 453.086 512.722 453.146L512.621 453.061ZM514.65 453.944C514.626 454.147 514.568 454.298 514.478 454.397C514.388 454.495 514.257 454.533 514.085 454.512C513.916 454.491 513.799 454.422 513.736 454.304C513.672 454.186 513.653 454.026 513.678 453.825L513.705 453.603C513.729 453.403 513.787 453.254 513.879 453.155C513.97 453.056 514.099 453.017 514.266 453.037C514.435 453.058 514.552 453.127 514.617 453.245C514.682 453.362 514.702 453.521 514.678 453.722L514.65 453.944ZM514.535 453.703C514.557 453.525 514.543 453.395 514.494 453.311C514.447 453.226 514.366 453.176 514.25 453.162C514.141 453.149 514.051 453.177 513.982 453.248C513.914 453.319 513.87 453.442 513.848 453.618L513.82 453.845C513.799 454.022 513.812 454.153 513.861 454.239C513.911 454.324 513.991 454.373 514.101 454.387C514.214 454.401 514.305 454.373 514.373 454.303C514.441 454.232 514.485 454.108 514.507 453.929L514.535 453.703ZM515.68 454.248C515.694 454.133 515.676 454.046 515.626 453.987C515.577 453.927 515.5 453.891 515.397 453.879C515.336 453.871 515.281 453.876 515.23 453.892C515.18 453.909 515.137 453.931 515.101 453.957L514.97 453.941L515.112 453.163L515.848 453.253L515.833 453.38L515.22 453.305L515.134 453.822C515.17 453.796 515.216 453.776 515.272 453.765C515.329 453.753 515.387 453.75 515.446 453.758C515.516 453.766 515.576 453.786 515.626 453.816C515.678 453.845 515.719 453.882 515.75 453.926C515.781 453.97 515.802 454.021 515.812 454.078C515.824 454.135 515.826 454.195 515.818 454.259L515.814 454.288C515.808 454.34 515.793 454.39 515.77 454.44C515.746 454.488 515.713 454.53 515.67 454.567C515.628 454.602 515.574 454.628 515.509 454.646C515.443 454.665 515.366 454.669 515.278 454.658C515.18 454.646 515.095 454.621 515.025 454.583C514.954 454.546 514.89 454.499 514.832 454.442L514.918 454.338C514.98 454.399 515.041 454.445 515.101 454.475C515.161 454.504 515.226 454.523 515.293 454.531C515.357 454.539 515.411 454.536 515.457 454.523C515.505 454.508 515.544 454.488 515.576 454.463C515.607 454.437 515.631 454.408 515.647 454.375C515.663 454.34 515.673 454.307 515.677 454.274L515.68 454.248Z" fill="black"/>
<path d="M512.088 456.17C512.109 456.143 512.134 456.117 512.162 456.094C512.191 456.071 512.223 456.051 512.258 456.035C512.295 456.018 512.335 456.006 512.379 456C512.425 455.992 512.474 455.991 512.529 455.998C512.593 456.006 512.651 456.022 512.7 456.045C512.751 456.069 512.792 456.099 512.824 456.135C512.857 456.17 512.881 456.211 512.896 456.258C512.91 456.304 512.914 456.354 512.908 456.407L512.905 456.427C512.902 456.455 512.894 456.484 512.882 456.515C512.871 456.544 512.854 456.572 512.832 456.599C512.81 456.626 512.781 456.65 512.746 456.671C512.712 456.693 512.669 456.708 512.62 456.718C512.717 456.748 512.787 456.796 512.83 456.863C512.874 456.93 512.891 457.005 512.881 457.089L512.877 457.118C512.871 457.17 512.856 457.219 512.833 457.266C512.81 457.313 512.776 457.354 512.733 457.389C512.691 457.423 512.638 457.448 512.573 457.464C512.509 457.48 512.433 457.483 512.346 457.473C512.263 457.462 512.184 457.439 512.109 457.403C512.035 457.369 511.968 457.32 511.907 457.258L511.99 457.155C512.054 457.214 512.115 457.258 512.173 457.288C512.233 457.318 512.295 457.337 512.362 457.346C512.424 457.353 512.478 457.351 512.524 457.339C512.569 457.327 512.607 457.31 512.637 457.287C512.668 457.262 512.692 457.234 512.708 457.203C512.725 457.17 512.736 457.137 512.74 457.104L512.743 457.078C512.75 457.024 512.744 456.978 512.726 456.941C512.709 456.902 512.685 456.871 512.654 456.847C512.625 456.822 512.591 456.803 512.552 456.791C512.515 456.778 512.479 456.77 512.445 456.765L512.284 456.746L512.299 456.627L512.465 456.647C512.51 456.652 512.55 456.649 512.585 456.637C512.62 456.624 512.65 456.606 512.675 456.582C512.7 456.558 512.721 456.531 512.735 456.501C512.751 456.469 512.761 456.438 512.765 456.408L512.767 456.392C512.775 456.32 512.757 456.261 512.712 456.214C512.668 456.165 512.602 456.136 512.515 456.125C512.458 456.118 512.402 456.123 512.346 456.141C512.29 456.157 512.238 456.195 512.189 456.254L512.088 456.17ZM514.117 457.053C514.093 457.255 514.035 457.406 513.945 457.505C513.855 457.603 513.724 457.641 513.552 457.62C513.383 457.599 513.266 457.53 513.203 457.412C513.14 457.294 513.12 457.135 513.145 456.934L513.172 456.711C513.196 456.511 513.254 456.362 513.346 456.263C513.437 456.164 513.566 456.125 513.733 456.145C513.902 456.166 514.019 456.235 514.084 456.353C514.149 456.47 514.169 456.629 514.145 456.83L514.117 457.053ZM514.002 456.811C514.024 456.633 514.01 456.503 513.961 456.419C513.914 456.334 513.833 456.284 513.718 456.27C513.608 456.257 513.518 456.286 513.449 456.356C513.381 456.427 513.337 456.551 513.315 456.727L513.287 456.953C513.266 457.13 513.279 457.262 513.328 457.347C513.378 457.432 513.458 457.482 513.568 457.495C513.681 457.509 513.772 457.481 513.84 457.412C513.908 457.341 513.952 457.216 513.974 457.037L514.002 456.811ZM514.654 457.733L514.497 457.714L515.238 456.481L514.434 456.382L514.45 456.255L515.409 456.372L515.396 456.48L514.654 457.733Z" fill="black"/>
<path d="M522.701 451.405C522.721 451.378 522.746 451.353 522.774 451.329C522.803 451.306 522.835 451.286 522.87 451.271C522.907 451.254 522.948 451.242 522.991 451.235C523.037 451.227 523.087 451.227 523.141 451.233C523.206 451.241 523.263 451.257 523.312 451.28C523.363 451.304 523.405 451.334 523.436 451.37C523.47 451.405 523.494 451.446 523.508 451.494C523.522 451.54 523.526 451.589 523.52 451.642L523.518 451.662C523.514 451.69 523.506 451.719 523.495 451.75C523.483 451.779 523.466 451.808 523.444 451.834C523.422 451.861 523.393 451.885 523.359 451.907C523.324 451.928 523.282 451.944 523.232 451.954C523.329 451.983 523.399 452.031 523.442 452.098C523.486 452.165 523.503 452.241 523.493 452.324L523.489 452.354C523.483 452.405 523.468 452.455 523.445 452.502C523.422 452.548 523.389 452.589 523.345 452.624C523.304 452.658 523.25 452.683 523.185 452.699C523.121 452.716 523.046 452.719 522.958 452.708C522.875 452.698 522.796 452.675 522.721 452.639C522.647 452.604 522.58 452.556 522.519 452.493L522.602 452.39C522.666 452.449 522.727 452.494 522.785 452.524C522.845 452.554 522.908 452.573 522.974 452.581C523.036 452.589 523.09 452.586 523.136 452.575C523.182 452.563 523.219 452.545 523.249 452.522C523.28 452.497 523.304 452.469 523.32 452.438C523.337 452.405 523.348 452.372 523.352 452.339L523.355 452.313C523.362 452.259 523.356 452.213 523.338 452.176C523.321 452.138 523.297 452.107 523.267 452.083C523.237 452.058 523.203 452.039 523.165 452.026C523.127 452.013 523.091 452.005 523.057 452.001L522.896 451.981L522.911 451.862L523.078 451.882C523.123 451.888 523.163 451.885 523.198 451.873C523.233 451.86 523.263 451.841 523.287 451.817C523.313 451.794 523.333 451.766 523.347 451.736C523.363 451.704 523.373 451.673 523.377 451.643L523.379 451.627C523.387 451.556 523.369 451.496 523.324 451.449C523.28 451.401 523.215 451.371 523.127 451.36C523.07 451.354 523.014 451.359 522.958 451.376C522.902 451.392 522.85 451.43 522.801 451.49L522.701 451.405ZM524.73 452.288C524.705 452.49 524.647 452.641 524.557 452.74C524.468 452.838 524.337 452.877 524.165 452.856C523.995 452.835 523.879 452.766 523.815 452.648C523.752 452.53 523.732 452.37 523.757 452.169L523.784 451.947C523.809 451.747 523.867 451.597 523.958 451.498C524.049 451.399 524.178 451.36 524.345 451.381C524.514 451.401 524.632 451.471 524.696 451.589C524.761 451.706 524.782 451.864 524.757 452.066L524.73 452.288ZM524.614 452.046C524.636 451.869 524.622 451.738 524.573 451.654C524.526 451.569 524.445 451.52 524.33 451.506C524.22 451.492 524.13 451.521 524.061 451.592C523.994 451.663 523.949 451.786 523.927 451.962L523.9 452.188C523.878 452.366 523.891 452.497 523.94 452.582C523.99 452.668 524.07 452.717 524.18 452.73C524.294 452.744 524.384 452.717 524.452 452.647C524.52 452.576 524.565 452.451 524.587 452.272L524.614 452.046ZM525.542 452.246C525.587 452.205 525.624 452.169 525.652 452.139C525.68 452.109 525.701 452.082 525.716 452.058C525.733 452.033 525.744 452.011 525.75 451.992C525.758 451.973 525.763 451.954 525.765 451.935L525.767 451.919C525.776 451.848 525.759 451.789 525.717 451.742C525.675 451.694 525.611 451.664 525.524 451.654C525.46 451.646 525.399 451.654 525.34 451.678C525.28 451.701 525.222 451.752 525.166 451.83L525.063 451.746C525.084 451.718 525.109 451.69 525.138 451.661C525.167 451.631 525.201 451.605 525.24 451.583C525.279 451.561 525.323 451.544 525.371 451.532C525.421 451.521 525.476 451.519 525.535 451.526C525.599 451.534 525.655 451.55 525.705 451.573C525.754 451.597 525.795 451.627 525.827 451.663C525.859 451.697 525.882 451.739 525.897 451.786C525.911 451.832 525.915 451.882 525.909 451.935L525.906 451.954C525.901 451.993 525.89 452.03 525.872 452.065C525.855 452.099 525.833 452.132 525.806 452.164C525.781 452.196 525.751 452.227 525.718 452.258C525.685 452.289 525.65 452.32 525.616 452.352L525.107 452.82L525.842 452.91L525.826 453.037L524.917 452.925L524.931 452.806L525.542 452.246Z" fill="black"/>
<path d="M522.175 454.37C522.195 454.343 522.22 454.318 522.248 454.294C522.277 454.271 522.309 454.251 522.344 454.235C522.381 454.218 522.422 454.207 522.465 454.2C522.511 454.192 522.56 454.191 522.615 454.198C522.68 454.206 522.737 454.222 522.786 454.245C522.837 454.269 522.878 454.299 522.91 454.335C522.944 454.37 522.967 454.411 522.982 454.459C522.996 454.505 523 454.554 522.994 454.607L522.991 454.627C522.988 454.655 522.98 454.684 522.969 454.715C522.957 454.744 522.94 454.772 522.918 454.799C522.896 454.826 522.867 454.85 522.833 454.871C522.798 454.893 522.755 454.908 522.706 454.918C522.803 454.948 522.873 454.996 522.916 455.063C522.96 455.13 522.977 455.206 522.967 455.289L522.963 455.319C522.957 455.37 522.942 455.42 522.919 455.466C522.896 455.513 522.862 455.554 522.819 455.589C522.777 455.623 522.724 455.648 522.659 455.664C522.595 455.681 522.52 455.683 522.432 455.673C522.349 455.663 522.27 455.639 522.195 455.603C522.121 455.569 522.054 455.52 521.993 455.458L522.076 455.355C522.14 455.414 522.201 455.458 522.259 455.488C522.319 455.519 522.382 455.538 522.448 455.546C522.51 455.553 522.564 455.551 522.61 455.539C522.656 455.528 522.693 455.51 522.723 455.487C522.754 455.462 522.778 455.434 522.794 455.403C522.811 455.37 522.822 455.337 522.826 455.304L522.829 455.278C522.836 455.224 522.83 455.178 522.812 455.141C522.795 455.103 522.771 455.072 522.74 455.048C522.711 455.023 522.677 455.004 522.639 454.991C522.601 454.978 522.565 454.97 522.531 454.966L522.37 454.946L522.385 454.827L522.551 454.847C522.596 454.853 522.636 454.849 522.671 454.838C522.707 454.825 522.736 454.806 522.761 454.782C522.787 454.758 522.807 454.731 522.821 454.701C522.837 454.669 522.847 454.638 522.851 454.608L522.853 454.592C522.861 454.52 522.843 454.461 522.798 454.414C522.754 454.366 522.688 454.336 522.601 454.325C522.544 454.318 522.488 454.324 522.432 454.341C522.376 454.357 522.324 454.395 522.275 454.455L522.175 454.37ZM524.204 455.253C524.179 455.455 524.121 455.606 524.031 455.705C523.941 455.803 523.81 455.841 523.638 455.82C523.469 455.8 523.353 455.73 523.289 455.612C523.226 455.495 523.206 455.335 523.231 455.134L523.258 454.911C523.282 454.712 523.34 454.562 523.432 454.463C523.523 454.364 523.652 454.325 523.819 454.345C523.988 454.366 524.105 454.436 524.17 454.554C524.235 454.67 524.255 454.829 524.231 455.03L524.204 455.253ZM524.088 455.011C524.11 454.834 524.096 454.703 524.047 454.619C524 454.534 523.919 454.485 523.804 454.47C523.694 454.457 523.604 454.486 523.535 454.557C523.467 454.627 523.423 454.751 523.401 454.927L523.374 455.153C523.352 455.331 523.365 455.462 523.414 455.547C523.464 455.632 523.544 455.682 523.654 455.695C523.768 455.709 523.858 455.681 523.926 455.612C523.994 455.541 524.039 455.416 524.06 455.237L524.088 455.011ZM525.28 455.09L525.225 455.541L525.436 455.567L525.42 455.694L525.21 455.668L525.171 455.986L525.032 455.969L525.071 455.651L524.354 455.563L524.37 455.436L525.185 454.535L525.344 454.554L524.531 455.456L525.086 455.524L525.142 455.073L525.28 455.09Z" fill="black"/>
<path d="M521.902 457.459C521.923 457.432 521.947 457.407 521.976 457.383C522.004 457.36 522.036 457.34 522.072 457.325C522.109 457.308 522.149 457.296 522.193 457.289C522.238 457.281 522.288 457.281 522.342 457.287C522.407 457.295 522.464 457.311 522.514 457.334C522.565 457.358 522.606 457.388 522.638 457.424C522.671 457.459 522.695 457.5 522.709 457.548C522.724 457.594 522.728 457.643 522.721 457.696L522.719 457.716C522.716 457.744 522.708 457.773 522.696 457.804C522.684 457.833 522.668 457.862 522.645 457.888C522.623 457.915 522.595 457.939 522.56 457.961C522.525 457.982 522.483 457.998 522.433 458.008C522.531 458.037 522.601 458.085 522.643 458.152C522.688 458.219 522.705 458.295 522.694 458.378L522.691 458.408C522.684 458.459 522.67 458.509 522.646 458.555C522.623 458.602 522.59 458.643 522.547 458.678C522.505 458.712 522.452 458.737 522.386 458.753C522.323 458.77 522.247 458.773 522.16 458.762C522.076 458.752 521.997 458.729 521.922 458.693C521.849 458.658 521.781 458.609 521.721 458.547L521.804 458.444C521.868 458.503 521.929 458.548 521.987 458.578C522.046 458.608 522.109 458.627 522.175 458.635C522.238 458.642 522.291 458.64 522.337 458.628C522.383 458.617 522.421 458.599 522.451 458.576C522.482 458.551 522.505 458.523 522.521 458.492C522.539 458.459 522.549 458.426 522.553 458.393L522.557 458.367C522.563 458.313 522.557 458.267 522.539 458.23C522.522 458.192 522.499 458.161 522.468 458.137C522.439 458.112 522.405 458.093 522.366 458.08C522.329 458.067 522.293 458.059 522.258 458.055L522.098 458.035L522.112 457.916L522.279 457.936C522.324 457.942 522.364 457.939 522.399 457.927C522.434 457.914 522.464 457.895 522.488 457.871C522.514 457.848 522.534 457.82 522.549 457.79C522.565 457.758 522.574 457.727 522.578 457.697L522.58 457.681C522.589 457.609 522.571 457.55 522.525 457.503C522.482 457.455 522.416 457.425 522.329 457.414C522.272 457.407 522.215 457.413 522.16 457.43C522.104 457.446 522.052 457.484 522.003 457.544L521.902 457.459ZM523.931 458.342C523.906 458.544 523.849 458.695 523.759 458.794C523.669 458.892 523.538 458.931 523.366 458.91C523.197 458.889 523.08 458.819 523.017 458.702C522.953 458.584 522.934 458.424 522.958 458.223L522.986 458.001C523.01 457.801 523.068 457.651 523.159 457.552C523.251 457.453 523.38 457.414 523.546 457.435C523.716 457.455 523.833 457.525 523.898 457.643C523.963 457.759 523.983 457.918 523.958 458.12L523.931 458.342ZM523.816 458.1C523.837 457.923 523.824 457.792 523.775 457.708C523.728 457.623 523.646 457.574 523.531 457.56C523.421 457.546 523.332 457.575 523.263 457.646C523.195 457.717 523.15 457.84 523.129 458.016L523.101 458.242C523.079 458.42 523.093 458.551 523.142 458.636C523.192 458.722 523.271 458.771 523.381 458.784C523.495 458.798 523.586 458.771 523.653 458.701C523.721 458.63 523.766 458.505 523.788 458.326L523.816 458.1ZM525.076 457.835C525.035 457.803 524.989 457.777 524.939 457.756C524.891 457.734 524.839 457.72 524.783 457.713C524.716 457.705 524.657 457.711 524.607 457.734C524.558 457.754 524.515 457.789 524.478 457.837C524.441 457.884 524.41 457.945 524.385 458.019C524.36 458.091 524.339 458.174 524.322 458.269C524.335 458.249 524.353 458.228 524.376 458.207C524.4 458.186 524.428 458.167 524.459 458.151C524.492 458.135 524.529 458.123 524.571 458.116C524.612 458.108 524.658 458.106 524.708 458.113C524.769 458.12 524.825 458.137 524.877 458.164C524.93 458.19 524.975 458.225 525.011 458.269C525.049 458.311 525.076 458.361 525.093 458.42C525.112 458.477 525.117 458.541 525.108 458.611L525.103 458.659C525.094 458.729 525.074 458.791 525.043 458.845C525.013 458.897 524.974 458.941 524.927 458.976C524.881 459.01 524.827 459.035 524.767 459.049C524.707 459.063 524.644 459.066 524.578 459.058C524.511 459.05 524.449 459.03 524.392 458.999C524.336 458.969 524.29 458.928 524.252 458.875C524.214 458.822 524.187 458.757 524.171 458.682C524.155 458.604 524.153 458.516 524.165 458.417L524.171 458.369C524.19 458.216 524.217 458.087 524.254 457.983C524.293 457.878 524.338 457.795 524.392 457.733C524.445 457.671 524.506 457.629 524.574 457.607C524.643 457.584 524.718 457.578 524.8 457.588C524.865 457.596 524.928 457.612 524.988 457.637C525.049 457.662 525.105 457.693 525.156 457.73L525.076 457.835ZM524.304 458.533C524.297 458.587 524.299 458.637 524.31 458.682C524.32 458.728 524.338 458.769 524.363 458.804C524.389 458.839 524.42 458.868 524.458 458.89C524.497 458.912 524.541 458.926 524.589 458.932C524.638 458.938 524.684 458.937 524.727 458.927C524.77 458.916 524.808 458.899 524.84 458.874C524.874 458.849 524.902 458.817 524.923 458.778C524.945 458.737 524.96 458.69 524.966 458.636L524.97 458.606C524.976 458.553 524.973 458.505 524.959 458.462C524.946 458.417 524.926 458.379 524.899 458.348C524.872 458.315 524.839 458.288 524.8 458.269C524.762 458.249 524.721 458.237 524.677 458.232C524.635 458.227 524.593 458.23 524.551 458.241C524.51 458.252 524.472 458.269 524.438 458.293C524.404 458.317 524.375 458.348 524.35 458.385C524.327 458.421 524.313 458.462 524.307 458.507L524.304 458.533Z" fill="black"/>
<path d="M510.729 465.176C510.75 465.149 510.774 465.124 510.803 465.101C510.831 465.077 510.863 465.058 510.898 465.042C510.935 465.025 510.976 465.013 511.02 465.006C511.065 464.998 511.115 464.998 511.169 465.004C511.234 465.012 511.291 465.028 511.34 465.051C511.391 465.075 511.433 465.105 511.465 465.141C511.498 465.176 511.522 465.217 511.536 465.265C511.551 465.311 511.555 465.36 511.548 465.413L511.546 465.433C511.542 465.461 511.535 465.49 511.523 465.521C511.511 465.551 511.494 465.579 511.472 465.606C511.45 465.632 511.422 465.656 511.387 465.678C511.352 465.699 511.31 465.715 511.26 465.725C511.357 465.754 511.427 465.802 511.47 465.869C511.514 465.936 511.531 466.012 511.521 466.095L511.517 466.125C511.511 466.177 511.496 466.226 511.473 466.273C511.45 466.32 511.417 466.36 511.373 466.395C511.332 466.429 511.278 466.454 511.213 466.471C511.149 466.487 511.074 466.49 510.986 466.479C510.903 466.469 510.824 466.446 510.749 466.41C510.675 466.375 510.608 466.327 510.547 466.264L510.63 466.161C510.694 466.22 510.755 466.265 510.814 466.295C510.873 466.325 510.936 466.344 511.002 466.352C511.064 466.36 511.118 466.358 511.164 466.346C511.21 466.334 511.248 466.316 511.277 466.293C511.308 466.269 511.332 466.241 511.348 466.209C511.365 466.176 511.376 466.143 511.38 466.11L511.383 466.084C511.39 466.03 511.384 465.984 511.366 465.947C511.349 465.909 511.325 465.878 511.295 465.854C511.266 465.829 511.232 465.81 511.193 465.797C511.155 465.784 511.12 465.776 511.085 465.772L510.924 465.752L510.939 465.633L511.106 465.653C511.151 465.659 511.191 465.656 511.226 465.644C511.261 465.631 511.291 465.612 511.315 465.588C511.341 465.565 511.361 465.538 511.375 465.507C511.391 465.475 511.401 465.444 511.405 465.414L511.407 465.398C511.416 465.327 511.397 465.267 511.352 465.22C511.308 465.172 511.243 465.142 511.155 465.132C511.098 465.125 511.042 465.13 510.986 465.147C510.931 465.163 510.878 465.201 510.829 465.261L510.729 465.176ZM512.758 466.059C512.733 466.262 512.676 466.412 512.586 466.512C512.496 466.609 512.365 466.648 512.193 466.627C512.023 466.606 511.907 466.537 511.843 466.419C511.78 466.301 511.76 466.141 511.785 465.94L511.812 465.718C511.837 465.518 511.895 465.368 511.986 465.27C512.077 465.171 512.206 465.131 512.373 465.152C512.543 465.172 512.66 465.242 512.725 465.36C512.789 465.477 512.81 465.636 512.785 465.837L512.758 466.059ZM512.642 465.817C512.664 465.64 512.65 465.509 512.602 465.425C512.554 465.34 512.473 465.291 512.358 465.277C512.248 465.263 512.159 465.292 512.089 465.363C512.022 465.434 511.977 465.557 511.955 465.733L511.928 465.96C511.906 466.137 511.92 466.268 511.968 466.353C512.018 466.439 512.098 466.488 512.208 466.502C512.322 466.516 512.413 466.488 512.48 466.418C512.548 466.347 512.593 466.222 512.615 466.044L512.642 465.817ZM513.044 466.513C513.086 466.545 513.131 466.572 513.181 466.594C513.231 466.617 513.284 466.631 513.341 466.638C513.414 466.647 513.476 466.641 513.529 466.621C513.581 466.599 513.625 466.564 513.66 466.516C513.696 466.468 513.725 466.408 513.747 466.335C513.769 466.263 513.787 466.18 513.801 466.088C513.788 466.108 513.77 466.129 513.747 466.15C513.725 466.171 513.697 466.191 513.664 466.208C513.632 466.225 513.595 466.237 513.552 466.247C513.511 466.255 513.465 466.256 513.415 466.25C513.354 466.243 513.297 466.226 513.244 466.199C513.192 466.171 513.147 466.136 513.11 466.092C513.073 466.049 513.046 465.998 513.027 465.941C513.01 465.882 513.006 465.818 513.015 465.748L513.021 465.7C513.029 465.63 513.049 465.568 513.08 465.514C513.11 465.46 513.149 465.416 513.195 465.381C513.242 465.345 513.295 465.32 513.355 465.306C513.416 465.291 513.479 465.287 513.546 465.295C513.612 465.303 513.673 465.323 513.728 465.354C513.785 465.384 513.832 465.426 513.87 465.48C513.907 465.533 513.934 465.598 513.951 465.675C513.968 465.751 513.971 465.839 513.959 465.938L513.951 465.998C513.932 466.155 513.905 466.286 513.869 466.391C513.835 466.494 513.792 466.575 513.74 466.635C513.689 466.694 513.628 466.733 513.559 466.752C513.489 466.771 513.41 466.776 513.321 466.765C513.257 466.757 513.195 466.741 513.136 466.716C513.077 466.691 513.023 466.66 512.972 466.623L513.044 466.513ZM513.819 465.826C513.826 465.773 513.824 465.723 513.813 465.676C513.803 465.63 513.785 465.588 513.76 465.553C513.735 465.516 513.703 465.487 513.664 465.465C513.627 465.441 513.583 465.427 513.534 465.421C513.485 465.415 513.439 465.417 513.396 465.428C513.353 465.439 513.315 465.457 513.281 465.482C513.248 465.508 513.221 465.542 513.198 465.583C513.177 465.623 513.163 465.67 513.157 465.723L513.153 465.753C513.147 465.807 513.15 465.857 513.163 465.901C513.177 465.944 513.197 465.983 513.224 466.015C513.251 466.047 513.283 466.073 513.321 466.094C513.36 466.113 513.402 466.126 513.445 466.131C513.486 466.136 513.528 466.133 513.569 466.122C513.612 466.111 513.651 466.093 513.685 466.068C513.719 466.042 513.747 466.012 513.771 465.976C513.795 465.94 513.81 465.898 513.816 465.852L513.819 465.826Z" fill="black"/>
<path d="M518.772 478.851C518.793 478.824 518.817 478.798 518.846 478.775C518.874 478.752 518.906 478.732 518.942 478.716C518.979 478.699 519.019 478.687 519.063 478.681C519.108 478.673 519.158 478.672 519.212 478.679C519.277 478.687 519.334 478.703 519.384 478.726C519.434 478.75 519.476 478.78 519.508 478.816C519.541 478.851 519.565 478.892 519.579 478.939C519.594 478.985 519.598 479.035 519.591 479.088L519.589 479.108C519.585 479.136 519.578 479.165 519.566 479.196C519.554 479.225 519.537 479.253 519.515 479.28C519.493 479.307 519.465 479.331 519.43 479.352C519.395 479.374 519.353 479.389 519.303 479.399C519.4 479.429 519.47 479.477 519.513 479.544C519.557 479.611 519.574 479.686 519.564 479.77L519.561 479.799C519.554 479.851 519.54 479.9 519.516 479.947C519.493 479.994 519.46 480.035 519.417 480.07C519.375 480.104 519.321 480.129 519.256 480.145C519.193 480.161 519.117 480.164 519.03 480.154C518.946 480.143 518.867 480.12 518.792 480.084C518.719 480.05 518.651 480.001 518.59 479.939L518.674 479.836C518.738 479.895 518.799 479.939 518.857 479.969C518.916 479.999 518.979 480.018 519.045 480.027C519.107 480.034 519.161 480.032 519.207 480.02C519.253 480.008 519.291 479.991 519.32 479.968C519.352 479.943 519.375 479.915 519.391 479.884C519.409 479.851 519.419 479.818 519.423 479.785L519.427 479.759C519.433 479.705 519.427 479.659 519.409 479.622C519.392 479.583 519.369 479.552 519.338 479.528C519.309 479.503 519.275 479.484 519.236 479.472C519.199 479.459 519.163 479.451 519.128 479.446L518.967 479.427L518.982 479.308L519.149 479.328C519.194 479.333 519.234 479.33 519.269 479.319C519.304 479.305 519.334 479.287 519.358 479.263C519.384 479.239 519.404 479.212 519.419 479.182C519.435 479.15 519.444 479.119 519.448 479.089L519.45 479.073C519.459 479.001 519.441 478.942 519.395 478.895C519.351 478.846 519.286 478.817 519.199 478.806C519.142 478.799 519.085 478.804 519.029 478.822C518.974 478.838 518.921 478.876 518.872 478.936L518.772 478.851ZM520.801 479.734C520.776 479.936 520.719 480.087 520.629 480.186C520.539 480.284 520.408 480.322 520.236 480.301C520.066 480.281 519.95 480.211 519.887 480.093C519.823 479.975 519.804 479.816 519.828 479.615L519.855 479.392C519.88 479.192 519.938 479.043 520.029 478.944C520.121 478.845 520.25 478.806 520.416 478.826C520.586 478.847 520.703 478.916 520.768 479.034C520.833 479.151 520.853 479.31 520.828 479.511L520.801 479.734ZM520.685 479.492C520.707 479.315 520.694 479.184 520.645 479.1C520.597 479.015 520.516 478.965 520.401 478.951C520.291 478.938 520.202 478.967 520.133 479.037C520.065 479.108 520.02 479.232 519.999 479.408L519.971 479.634C519.949 479.811 519.963 479.943 520.011 480.028C520.061 480.113 520.141 480.163 520.251 480.176C520.365 480.19 520.456 480.162 520.523 480.093C520.591 480.022 520.636 479.897 520.658 479.718L520.685 479.492ZM521.281 479.325C521.277 479.363 521.279 479.401 521.288 479.437C521.297 479.473 521.312 479.505 521.333 479.533C521.355 479.561 521.382 479.584 521.415 479.603C521.447 479.622 521.485 479.634 521.527 479.639C521.569 479.644 521.609 479.642 521.645 479.631C521.681 479.621 521.713 479.605 521.739 479.583C521.768 479.56 521.791 479.533 521.808 479.5C521.825 479.467 521.837 479.432 521.841 479.394L521.844 479.37C521.853 479.296 521.835 479.234 521.788 479.186C521.743 479.136 521.678 479.106 521.594 479.095C521.508 479.085 521.437 479.098 521.381 479.136C521.326 479.172 521.293 479.227 521.284 479.301L521.281 479.325ZM521.156 480.019C521.152 480.056 521.155 480.091 521.165 480.125C521.176 480.158 521.194 480.189 521.219 480.216C521.244 480.243 521.274 480.266 521.311 480.286C521.349 480.304 521.393 480.316 521.443 480.322C521.494 480.328 521.54 480.327 521.581 480.319C521.622 480.309 521.658 480.294 521.687 480.273C521.718 480.253 521.742 480.228 521.761 480.198C521.779 480.168 521.791 480.134 521.795 480.097L521.798 480.073C521.804 480.031 521.8 479.992 521.789 479.955C521.777 479.919 521.759 479.886 521.734 479.858C521.709 479.829 521.678 479.806 521.64 479.788C521.603 479.77 521.561 479.758 521.513 479.752C521.467 479.747 521.423 479.748 521.382 479.756C521.342 479.765 521.306 479.78 521.273 479.802C521.243 479.822 521.217 479.848 521.197 479.881C521.177 479.913 521.164 479.951 521.159 479.995L521.156 480.019ZM521.019 479.972C521.029 479.892 521.061 479.826 521.116 479.772C521.172 479.717 521.241 479.683 521.322 479.668C521.257 479.628 521.209 479.577 521.177 479.516C521.147 479.454 521.137 479.386 521.146 479.31L521.15 479.279C521.156 479.227 521.172 479.181 521.197 479.139C521.224 479.098 521.258 479.064 521.299 479.037C521.339 479.01 521.386 478.991 521.439 478.98C521.492 478.967 521.549 478.965 521.609 478.972C521.668 478.979 521.722 478.995 521.77 479.02C521.82 479.044 521.861 479.074 521.894 479.11C521.927 479.146 521.951 479.187 521.966 479.233C521.981 479.28 521.986 479.329 521.98 479.38L521.976 479.412C521.967 479.487 521.939 479.551 521.894 479.603C521.85 479.656 521.791 479.694 521.717 479.717C521.754 479.733 521.787 479.754 521.816 479.779C521.847 479.805 521.871 479.834 521.89 479.867C521.91 479.899 521.925 479.934 521.934 479.971C521.943 480.007 521.945 480.045 521.94 480.085L521.936 480.118C521.929 480.175 521.911 480.226 521.883 480.271C521.856 480.316 521.82 480.353 521.775 480.383C521.731 480.411 521.679 480.431 521.62 480.442C521.561 480.454 521.497 480.456 521.428 480.447C521.359 480.439 521.298 480.422 521.243 480.396C521.188 480.371 521.143 480.339 521.106 480.301C521.07 480.262 521.044 480.217 521.027 480.166C521.012 480.116 521.008 480.063 521.015 480.006L521.019 479.972Z" fill="black"/>
<path d="M518.645 482.747C518.666 482.72 518.691 482.695 518.719 482.671C518.748 482.648 518.779 482.628 518.815 482.613C518.852 482.596 518.892 482.584 518.936 482.577C518.982 482.569 519.031 482.568 519.086 482.575C519.15 482.583 519.208 482.599 519.257 482.622C519.308 482.646 519.349 482.676 519.381 482.712C519.414 482.747 519.438 482.788 519.453 482.836C519.467 482.882 519.471 482.931 519.465 482.984L519.462 483.004C519.459 483.032 519.451 483.061 519.439 483.092C519.428 483.121 519.411 483.15 519.389 483.176C519.367 483.203 519.338 483.227 519.303 483.249C519.269 483.27 519.226 483.285 519.177 483.296C519.274 483.325 519.344 483.373 519.387 483.44C519.431 483.507 519.448 483.583 519.438 483.666L519.434 483.696C519.428 483.747 519.413 483.797 519.39 483.843C519.367 483.89 519.333 483.931 519.29 483.966C519.248 484 519.195 484.025 519.13 484.041C519.066 484.058 518.99 484.061 518.903 484.05C518.82 484.04 518.741 484.017 518.666 483.981C518.592 483.946 518.525 483.897 518.464 483.835L518.547 483.732C518.611 483.791 518.672 483.836 518.73 483.866C518.79 483.896 518.852 483.915 518.919 483.923C518.981 483.93 519.035 483.928 519.081 483.916C519.126 483.905 519.164 483.887 519.194 483.864C519.225 483.839 519.249 483.811 519.265 483.78C519.282 483.747 519.293 483.714 519.297 483.681L519.3 483.655C519.307 483.601 519.301 483.555 519.282 483.518C519.266 483.48 519.242 483.449 519.211 483.425C519.182 483.4 519.148 483.381 519.109 483.368C519.072 483.355 519.036 483.347 519.002 483.343L518.841 483.323L518.855 483.204L519.022 483.224C519.067 483.23 519.107 483.227 519.142 483.215C519.177 483.202 519.207 483.183 519.232 483.159C519.257 483.135 519.278 483.108 519.292 483.078C519.308 483.046 519.318 483.015 519.322 482.985L519.323 482.969C519.332 482.897 519.314 482.838 519.269 482.791C519.225 482.743 519.159 482.713 519.072 482.702C519.015 482.695 518.959 482.701 518.903 482.718C518.847 482.734 518.795 482.772 518.746 482.832L518.645 482.747ZM520.136 484.179L520.29 482.922L519.918 483.09L519.868 482.971L520.345 482.751L520.45 482.764L520.275 484.196L520.136 484.179ZM521.865 483.776C521.84 483.978 521.783 484.129 521.693 484.228C521.603 484.326 521.472 484.364 521.3 484.343C521.13 484.322 521.014 484.253 520.95 484.135C520.887 484.017 520.867 483.858 520.892 483.657L520.919 483.434C520.944 483.234 521.002 483.085 521.093 482.986C521.184 482.887 521.313 482.848 521.48 482.868C521.65 482.889 521.767 482.958 521.831 483.076C521.896 483.193 521.917 483.352 521.892 483.553L521.865 483.776ZM521.749 483.534C521.771 483.356 521.757 483.226 521.709 483.142C521.661 483.057 521.58 483.007 521.465 482.993C521.355 482.98 521.266 483.008 521.196 483.079C521.129 483.15 521.084 483.274 521.062 483.45L521.035 483.676C521.013 483.853 521.026 483.985 521.075 484.07C521.125 484.155 521.205 484.205 521.315 484.218C521.429 484.232 521.519 484.204 521.587 484.135C521.655 484.064 521.7 483.939 521.722 483.76L521.749 483.534Z" fill="black"/>
<path d="M510.185 468.341C510.206 468.314 510.23 468.289 510.259 468.266C510.287 468.242 510.319 468.223 510.355 468.207C510.392 468.19 510.432 468.178 510.476 468.171C510.521 468.163 510.571 468.163 510.625 468.169C510.69 468.177 510.747 468.193 510.797 468.217C510.847 468.24 510.889 468.27 510.921 468.306C510.954 468.341 510.978 468.383 510.992 468.43C511.007 468.476 511.011 468.526 511.004 468.579L511.002 468.598C510.998 468.626 510.991 468.655 510.979 468.686C510.967 468.716 510.95 468.744 510.928 468.771C510.906 468.798 510.878 468.822 510.843 468.843C510.808 468.864 510.766 468.88 510.716 468.89C510.813 468.919 510.883 468.967 510.926 469.034C510.97 469.102 510.987 469.177 510.977 469.26L510.974 469.29C510.967 469.342 510.952 469.391 510.929 469.438C510.906 469.485 510.873 469.526 510.83 469.561C510.788 469.594 510.734 469.619 510.669 469.636C510.606 469.652 510.53 469.655 510.443 469.644C510.359 469.634 510.28 469.611 510.205 469.575C510.132 469.54 510.064 469.492 510.003 469.429L510.087 469.327C510.151 469.386 510.212 469.43 510.27 469.46C510.329 469.49 510.392 469.509 510.458 469.517C510.52 469.525 510.574 469.523 510.62 469.511C510.666 469.499 510.704 469.481 510.733 469.458C510.765 469.434 510.788 469.406 510.804 469.374C510.822 469.341 510.832 469.308 510.836 469.275L510.839 469.25C510.846 469.195 510.84 469.15 510.822 469.112C510.805 469.074 510.781 469.043 510.751 469.019C510.722 468.994 510.688 468.975 510.649 468.962C510.612 468.95 510.576 468.941 510.541 468.937L510.38 468.917L510.395 468.798L510.562 468.819C510.607 468.824 510.647 468.821 510.682 468.809C510.717 468.796 510.747 468.777 510.771 468.754C510.797 468.73 510.817 468.703 510.832 468.672C510.847 468.641 510.857 468.61 510.861 468.579L510.863 468.563C510.872 468.492 510.853 468.432 510.808 468.385C510.764 468.337 510.699 468.307 510.612 468.297C510.555 468.29 510.498 468.295 510.442 468.312C510.387 468.328 510.334 468.366 510.285 468.426L510.185 468.341ZM511.675 469.773L511.829 468.516L511.458 468.684L511.408 468.566L511.884 468.346L511.989 468.359L511.814 469.79L511.675 469.773ZM512.866 469.919L513.019 468.662L512.648 468.83L512.598 468.711L513.075 468.491L513.18 468.504L513.005 469.936L512.866 469.919Z" fill="black"/>
<path d="M510.044 471.245C510.065 471.218 510.089 471.193 510.118 471.169C510.146 471.146 510.178 471.126 510.213 471.111C510.25 471.094 510.291 471.082 510.335 471.075C510.38 471.067 510.43 471.067 510.484 471.073C510.549 471.081 510.606 471.097 510.655 471.12C510.706 471.144 510.748 471.174 510.779 471.21C510.813 471.245 510.837 471.286 510.851 471.334C510.865 471.38 510.869 471.429 510.863 471.482L510.861 471.502C510.857 471.53 510.85 471.559 510.838 471.59C510.826 471.619 510.809 471.648 510.787 471.674C510.765 471.701 510.737 471.725 510.702 471.747C510.667 471.768 510.625 471.784 510.575 471.794C510.672 471.823 510.742 471.871 510.785 471.938C510.829 472.005 510.846 472.081 510.836 472.164L510.832 472.194C510.826 472.245 510.811 472.295 510.788 472.342C510.765 472.388 510.732 472.429 510.688 472.464C510.647 472.498 510.593 472.523 510.528 472.539C510.464 472.556 510.389 472.559 510.301 472.548C510.218 472.538 510.139 472.515 510.064 472.479C509.99 472.444 509.923 472.396 509.862 472.333L509.945 472.23C510.009 472.289 510.07 472.334 510.129 472.364C510.188 472.394 510.251 472.413 510.317 472.421C510.379 472.428 510.433 472.426 510.479 472.414C510.525 472.403 510.562 472.385 510.592 472.362C510.623 472.337 510.647 472.309 510.663 472.278C510.68 472.245 510.691 472.212 510.695 472.179L510.698 472.153C510.705 472.099 510.699 472.053 510.681 472.016C510.664 471.978 510.64 471.947 510.61 471.923C510.58 471.898 510.547 471.879 510.508 471.866C510.47 471.853 510.434 471.845 510.4 471.841L510.239 471.821L510.254 471.702L510.421 471.722C510.466 471.728 510.506 471.725 510.541 471.713C510.576 471.7 510.606 471.681 510.63 471.657C510.656 471.634 510.676 471.606 510.69 471.576C510.706 471.544 510.716 471.513 510.72 471.483L510.722 471.467C510.731 471.396 510.712 471.336 510.667 471.289C510.623 471.241 510.558 471.211 510.47 471.2C510.413 471.193 510.357 471.199 510.301 471.216C510.246 471.232 510.193 471.27 510.144 471.33L510.044 471.245ZM511.534 472.677L511.688 471.42L511.317 471.588L511.267 471.469L511.743 471.249L511.848 471.262L511.673 472.694L511.534 472.677ZM512.424 471.536C512.445 471.509 512.47 471.484 512.498 471.461C512.527 471.437 512.559 471.418 512.594 471.402C512.631 471.385 512.671 471.373 512.715 471.366C512.761 471.358 512.81 471.358 512.865 471.364C512.929 471.372 512.987 471.388 513.036 471.412C513.087 471.435 513.128 471.465 513.16 471.501C513.193 471.536 513.217 471.578 513.232 471.625C513.246 471.671 513.25 471.721 513.244 471.774L513.241 471.793C513.238 471.821 513.23 471.851 513.218 471.881C513.207 471.911 513.19 471.939 513.168 471.966C513.146 471.993 513.117 472.017 513.082 472.038C513.048 472.059 513.005 472.075 512.956 472.085C513.053 472.114 513.123 472.162 513.166 472.229C513.21 472.297 513.227 472.372 513.217 472.455L513.213 472.485C513.207 472.537 513.192 472.586 513.169 472.633C513.146 472.68 513.112 472.721 513.069 472.756C513.027 472.789 512.974 472.815 512.909 472.831C512.845 472.847 512.769 472.85 512.682 472.839C512.599 472.829 512.52 472.806 512.445 472.77C512.371 472.735 512.304 472.687 512.243 472.624L512.326 472.522C512.39 472.581 512.451 472.625 512.509 472.655C512.569 472.685 512.631 472.704 512.698 472.712C512.76 472.72 512.814 472.718 512.86 472.706C512.905 472.694 512.943 472.676 512.973 472.653C513.004 472.629 513.028 472.601 513.044 472.569C513.061 472.536 513.072 472.503 513.076 472.47L513.079 472.445C513.086 472.39 513.08 472.345 513.062 472.307C513.045 472.269 513.021 472.238 512.99 472.214C512.961 472.189 512.927 472.17 512.888 472.157C512.851 472.145 512.815 472.136 512.781 472.132L512.62 472.112L512.635 471.993L512.801 472.014C512.846 472.019 512.886 472.016 512.921 472.004C512.956 471.991 512.986 471.972 513.011 471.949C513.036 471.925 513.057 471.898 513.071 471.867C513.087 471.836 513.097 471.805 513.101 471.774L513.103 471.758C513.111 471.687 513.093 471.628 513.048 471.58C513.004 471.532 512.938 471.502 512.851 471.492C512.794 471.485 512.738 471.49 512.682 471.507C512.626 471.523 512.574 471.561 512.525 471.621L512.424 471.536Z" fill="black"/>
<path d="M509.769 474.352C509.79 474.325 509.815 474.3 509.843 474.276C509.872 474.253 509.903 474.233 509.939 474.217C509.976 474.2 510.016 474.189 510.06 474.182C510.106 474.174 510.155 474.173 510.21 474.18C510.274 474.188 510.332 474.204 510.381 474.227C510.432 474.251 510.473 474.281 510.505 474.317C510.538 474.352 510.562 474.393 510.577 474.44C510.591 474.487 510.595 474.536 510.589 474.589L510.586 474.609C510.583 474.637 510.575 474.666 510.563 474.697C510.552 474.726 510.535 474.754 510.513 474.781C510.491 474.808 510.462 474.832 510.427 474.853C510.393 474.875 510.35 474.89 510.301 474.9C510.398 474.93 510.468 474.978 510.511 475.045C510.555 475.112 510.572 475.187 510.562 475.271L510.558 475.301C510.552 475.352 510.537 475.401 510.514 475.448C510.491 475.495 510.457 475.536 510.414 475.571C510.372 475.605 510.319 475.63 510.254 475.646C510.19 475.663 510.114 475.665 510.027 475.655C509.944 475.645 509.865 475.621 509.79 475.585C509.716 475.551 509.649 475.502 509.588 475.44L509.671 475.337C509.735 475.396 509.796 475.44 509.854 475.47C509.914 475.5 509.976 475.52 510.043 475.528C510.105 475.535 510.159 475.533 510.205 475.521C510.25 475.509 510.288 475.492 510.318 475.469C510.349 475.444 510.373 475.416 510.389 475.385C510.406 475.352 510.417 475.319 510.421 475.286L510.424 475.26C510.431 475.206 510.425 475.16 510.406 475.123C510.39 475.085 510.366 475.053 510.335 475.03C510.306 475.004 510.272 474.986 510.233 474.973C510.196 474.96 510.16 474.952 510.126 474.947L509.965 474.928L509.979 474.809L510.146 474.829C510.191 474.835 510.231 474.831 510.266 474.82C510.301 474.806 510.331 474.788 510.356 474.764C510.381 474.74 510.402 474.713 510.416 474.683C510.432 474.651 510.442 474.62 510.446 474.59L510.447 474.574C510.456 474.502 510.438 474.443 510.393 474.396C510.349 474.347 510.283 474.318 510.196 474.307C510.139 474.3 510.083 474.305 510.027 474.323C509.971 474.339 509.919 474.377 509.87 474.437L509.769 474.352ZM511.26 475.783L511.414 474.527L511.042 474.695L510.992 474.576L511.469 474.356L511.574 474.369L511.399 475.8L511.26 475.783ZM512.828 475.538C512.842 475.423 512.824 475.336 512.774 475.278C512.725 475.218 512.648 475.182 512.545 475.169C512.484 475.162 512.429 475.166 512.378 475.183C512.328 475.199 512.285 475.221 512.249 475.248L512.118 475.232L512.26 474.453L512.997 474.543L512.981 474.67L512.368 474.595L512.282 475.113C512.318 475.086 512.364 475.067 512.42 475.055C512.477 475.043 512.535 475.041 512.594 475.048C512.664 475.057 512.724 475.076 512.774 475.106C512.826 475.136 512.867 475.172 512.898 475.216C512.929 475.26 512.95 475.311 512.96 475.369C512.972 475.425 512.974 475.485 512.966 475.549L512.962 475.579C512.956 475.63 512.941 475.681 512.918 475.73C512.894 475.779 512.861 475.821 512.818 475.857C512.776 475.892 512.722 475.919 512.657 475.936C512.591 475.955 512.514 475.959 512.426 475.948C512.328 475.936 512.243 475.911 512.173 475.873C512.102 475.836 512.038 475.789 511.981 475.733L512.066 475.628C512.128 475.69 512.189 475.735 512.249 475.765C512.309 475.794 512.374 475.813 512.441 475.821C512.505 475.829 512.559 475.826 512.605 475.813C512.653 475.799 512.692 475.779 512.724 475.753C512.755 475.727 512.779 475.698 512.795 475.665C512.811 475.631 512.821 475.597 512.825 475.564L512.828 475.538Z" fill="black"/>
<path d="M508.972 480.399C508.993 480.372 509.017 480.346 509.046 480.323C509.074 480.3 509.106 480.28 509.142 480.264C509.179 480.247 509.219 480.235 509.263 480.229C509.308 480.221 509.358 480.22 509.412 480.227C509.477 480.235 509.534 480.25 509.584 480.274C509.634 480.298 509.676 480.328 509.708 480.364C509.741 480.399 509.765 480.44 509.779 480.487C509.794 480.533 509.798 480.583 509.791 480.636L509.789 480.656C509.785 480.683 509.778 480.713 509.766 480.744C509.754 480.773 509.737 480.801 509.715 480.828C509.693 480.855 509.665 480.879 509.63 480.9C509.595 480.921 509.553 480.937 509.503 480.947C509.6 480.976 509.67 481.025 509.713 481.092C509.757 481.159 509.774 481.234 509.764 481.318L509.761 481.347C509.754 481.399 509.74 481.448 509.716 481.495C509.693 481.542 509.66 481.583 509.617 481.618C509.575 481.652 509.521 481.677 509.456 481.693C509.393 481.709 509.317 481.712 509.23 481.701C509.146 481.691 509.067 481.668 508.992 481.632C508.919 481.598 508.851 481.549 508.79 481.487L508.874 481.384C508.938 481.443 508.999 481.487 509.057 481.517C509.116 481.547 509.179 481.566 509.245 481.574C509.307 481.582 509.361 481.58 509.407 481.568C509.453 481.556 509.491 481.539 509.52 481.515C509.552 481.491 509.575 481.463 509.591 481.431C509.609 481.399 509.619 481.366 509.623 481.333L509.627 481.307C509.633 481.253 509.627 481.207 509.609 481.17C509.592 481.131 509.569 481.1 509.538 481.076C509.509 481.051 509.475 481.032 509.436 481.019C509.399 481.007 509.363 480.998 509.328 480.994L509.167 480.975L509.182 480.855L509.349 480.876C509.394 480.881 509.434 480.878 509.469 480.866C509.504 480.853 509.534 480.835 509.558 480.811C509.584 480.787 509.604 480.76 509.619 480.73C509.635 480.698 509.644 480.667 509.648 480.636L509.65 480.621C509.659 480.549 509.641 480.49 509.595 480.443C509.551 480.394 509.486 480.365 509.399 480.354C509.342 480.347 509.285 480.352 509.229 480.37C509.174 480.386 509.121 480.424 509.072 480.483L508.972 480.399ZM510.462 481.83L510.616 480.574L510.245 480.742L510.195 480.623L510.671 480.403L510.776 480.416L510.601 481.847L510.462 481.83ZM512.146 480.775C512.104 480.743 512.059 480.716 512.009 480.696C511.96 480.674 511.909 480.659 511.853 480.652C511.785 480.644 511.727 480.651 511.677 480.673C511.628 480.694 511.584 480.728 511.548 480.776C511.511 480.824 511.48 480.885 511.455 480.958C511.43 481.03 511.409 481.114 511.392 481.208C511.405 481.189 511.423 481.168 511.446 481.147C511.47 481.125 511.498 481.107 511.529 481.09C511.562 481.074 511.599 481.063 511.64 481.056C511.682 481.047 511.728 481.046 511.778 481.052C511.839 481.06 511.895 481.077 511.947 481.103C512 481.13 512.045 481.165 512.081 481.208C512.119 481.25 512.146 481.301 512.163 481.359C512.182 481.417 512.187 481.48 512.178 481.551L512.172 481.598C512.164 481.668 512.144 481.73 512.113 481.784C512.083 481.837 512.044 481.881 511.997 481.915C511.951 481.95 511.897 481.974 511.837 481.988C511.777 482.002 511.714 482.006 511.648 481.997C511.581 481.989 511.518 481.969 511.462 481.938C511.406 481.909 511.36 481.867 511.322 481.814C511.284 481.761 511.257 481.697 511.241 481.621C511.225 481.544 511.223 481.456 511.235 481.356L511.241 481.309C511.259 481.155 511.287 481.026 511.324 480.922C511.363 480.818 511.408 480.735 511.462 480.673C511.515 480.611 511.576 480.569 511.644 480.546C511.713 480.524 511.788 480.517 511.87 480.528C511.935 480.535 511.998 480.552 512.058 480.577C512.119 480.602 512.175 480.633 512.226 480.67L512.146 480.775ZM511.374 481.472C511.367 481.526 511.369 481.576 511.38 481.622C511.39 481.668 511.408 481.708 511.433 481.743C511.459 481.779 511.49 481.807 511.528 481.83C511.566 481.852 511.61 481.866 511.659 481.872C511.708 481.878 511.754 481.876 511.797 481.867C511.84 481.856 511.878 481.838 511.91 481.814C511.944 481.789 511.972 481.756 511.993 481.717C512.015 481.677 512.03 481.63 512.036 481.575L512.04 481.546C512.046 481.493 512.043 481.445 512.029 481.401C512.016 481.357 511.996 481.319 511.969 481.287C511.942 481.254 511.909 481.228 511.87 481.208C511.832 481.189 511.791 481.177 511.747 481.171C511.705 481.166 511.663 481.169 511.621 481.18C511.579 481.191 511.542 481.209 511.508 481.233C511.474 481.257 511.445 481.287 511.42 481.325C511.397 481.361 511.382 481.401 511.377 481.446L511.374 481.472Z" fill="black"/>
<path d="M508.765 483.42C508.786 483.393 508.81 483.368 508.839 483.344C508.867 483.321 508.899 483.301 508.935 483.285C508.972 483.268 509.012 483.257 509.056 483.25C509.101 483.242 509.151 483.241 509.205 483.248C509.27 483.256 509.327 483.272 509.377 483.295C509.427 483.319 509.469 483.349 509.501 483.385C509.534 483.42 509.558 483.461 509.572 483.508C509.587 483.555 509.591 483.604 509.584 483.657L509.582 483.677C509.578 483.705 509.571 483.734 509.559 483.765C509.547 483.794 509.53 483.822 509.508 483.849C509.486 483.876 509.458 483.9 509.423 483.921C509.388 483.943 509.346 483.958 509.296 483.968C509.393 483.998 509.463 484.046 509.506 484.113C509.55 484.18 509.567 484.255 509.557 484.339L509.554 484.369C509.547 484.42 509.532 484.469 509.509 484.516C509.486 484.563 509.453 484.604 509.41 484.639C509.368 484.673 509.314 484.698 509.249 484.714C509.186 484.731 509.11 484.733 509.023 484.723C508.939 484.713 508.86 484.689 508.785 484.653C508.712 484.619 508.644 484.57 508.583 484.508L508.667 484.405C508.731 484.464 508.792 484.508 508.85 484.538C508.909 484.568 508.972 484.588 509.038 484.596C509.1 484.603 509.154 484.601 509.2 484.589C509.246 484.577 509.284 484.56 509.313 484.537C509.345 484.512 509.368 484.484 509.384 484.453C509.402 484.42 509.412 484.387 509.416 484.354L509.419 484.328C509.426 484.274 509.42 484.228 509.402 484.191C509.385 484.153 509.361 484.121 509.331 484.098C509.302 484.072 509.268 484.054 509.229 484.041C509.192 484.028 509.156 484.02 509.121 484.015L508.96 483.996L508.975 483.877L509.142 483.897C509.187 483.903 509.227 483.899 509.262 483.888C509.297 483.874 509.327 483.856 509.351 483.832C509.377 483.808 509.397 483.781 509.412 483.751C509.428 483.719 509.437 483.688 509.441 483.658L509.443 483.642C509.452 483.57 509.434 483.511 509.388 483.464C509.344 483.415 509.279 483.386 509.192 483.375C509.135 483.368 509.078 483.373 509.022 483.391C508.967 483.407 508.914 483.445 508.865 483.505L508.765 483.42ZM510.255 484.851L510.409 483.595L510.038 483.763L509.988 483.644L510.464 483.424L510.569 483.437L510.394 484.868L510.255 484.851ZM511.871 484.14L511.816 484.591L512.026 484.617L512.011 484.744L511.8 484.718L511.761 485.036L511.622 485.019L511.661 484.701L510.945 484.613L510.96 484.486L511.776 483.585L511.934 483.604L511.121 484.506L511.677 484.574L511.732 484.123L511.871 484.14Z" fill="black"/>
<path d="M518.439 485.954L518.278 484.848L518.415 484.865L518.537 485.829L518.914 484.926L519.067 484.944L519.22 485.912L519.565 485.005L519.696 485.021L519.279 486.056L519.122 486.037L518.969 485.085L518.596 485.973L518.439 485.954ZM520.284 485.073C520.359 485.082 520.424 485.1 520.479 485.125C520.534 485.149 520.582 485.181 520.622 485.221L520.548 485.319C520.502 485.278 520.456 485.249 520.412 485.232C520.367 485.213 520.319 485.2 520.269 485.194C520.174 485.183 520.095 485.205 520.033 485.262C519.971 485.318 519.933 485.402 519.92 485.514L519.903 485.651C519.888 485.769 519.905 485.863 519.953 485.933C520.001 486.004 520.072 486.045 520.168 486.056C520.242 486.065 520.304 486.063 520.354 486.049C520.405 486.034 520.452 486.014 520.494 485.989L520.545 486.104C520.523 486.117 520.499 486.128 520.474 486.14C520.448 486.152 520.419 486.161 520.388 486.168C520.356 486.176 520.32 486.181 520.281 486.183C520.242 486.186 520.198 486.185 520.151 486.179C520.01 486.162 519.906 486.106 519.839 486.012C519.771 485.916 519.747 485.791 519.766 485.634L519.782 485.501C519.792 485.423 519.811 485.356 519.839 485.299C519.869 485.241 519.906 485.194 519.949 485.159C519.992 485.123 520.043 485.097 520.099 485.083C520.156 485.068 520.218 485.065 520.284 485.073Z" fill="black"/>
</svg>
