<svg width="131" height="142" viewBox="0 0 131 142" fill="none" xmlns="http://www.w3.org/2000/svg">
<path d="M79 44.2H80.5V50.8H79V44.2Z" fill="#72726E"/>
<path d="M74.9 44.2H76.4V50.8H74.9V44.2Z" fill="#72726E"/>
<path d="M94.7 0V10.1H95.4V10.4H94.7V18.5H90.5V22H82.7V27.5H75.3V28.5H69.1V12.6H60.3V12H60.8V6.3H53.2V9.2H57.9V12.5H53.2V30.4H62.2V41.8H65.1V51.2H65.4V51.9H45.7V56.1H26V45.2H33.1V39.7H25.5V41.4H28.7V43.2H24V69H30.6V69.6H17.8V72.2H17.2V71.9H12.8V75.8H12.5V75.5H8.1V76.5H3V69.3H0V78.5H12.5V78H13.1V78.5H17.2V78H17.8V78.5H21V71.9H19.8V71.6H27.8V70.7H28V78.5H30.1V87.6H24V95.9H23.3V93.9H17.7V101.4H23.3V97H24V99.5H30.1V114.3H23.7V117.3H30.4V117.8H24V122.1H33.1V109.5H42.2V95.2H39.1V106.5H33.1V84.9H45.7V87.4H55.9V79H65.1V84.5H68.1V79H75.2V91.6H68.8V98.5H82.6V94.8H75.2V94.3H89.9V98.7H90.8V99H89V100.5H69.3V104.9H112.7V100.5H93.7V99H92V98.6H92.9V94.2H102.9V72.4H100.9V59.9H98.9V60.5H90.2V53.9H98.9V54.5H100.9V53.9H103.3V34.9H104V27.5H103.3V9.2H97.3V11.3H96.9V10.4H96.4V10.1H96.9V2H99.5V0H94.7ZM96.9 12.4H97.3V12.9H100.5V24.7H96.9V12.4ZM96.9 26.7H100.5V35.6H97.3V36.4H88.3V36.8H88V36.4H83.2V33.8H77.3V33.3H76.9V33H77.3V30.5H97L96.9 26.7ZM64.1 30.4H75.2V32.9H75.7V33.1H75.2V33.6H73.3V39.2H79.1V39.7H64.1V30.4ZM87.9 38.9H88.2V39.2H93.8V39.8H92.3V44.3H95.5V39.3H100.5V51.9H90.1V49.9H91.2V43.1H86.2V49.9H87.1V51.9H78.7V42.8H80.8V39.8H80.2V39.3H87.9V38.9ZM68.1 42.8H76.7V51.9H75V53.9H75.8V60.5H68.2V53.9H68.8V51.9H67.7V51.2H68.1V42.8ZM55.9 54.9H65.1V63.5H65.5V63.7H65.1V75.6H65.5V75.9H55.8V54.9H55.9ZM33.1 58.1H45.7V81.9H33.1V69.6H31.6V69H33.1V58.1ZM67.7 63.5H87.1V68.7H90.1V63.5H98V72.4H75.2V75.9H67.7V75.6H68.2V63.7H67.7V63.5Z" fill="#72726E"/>
<path d="M39.1 95.3V106.6H42.2V95.3H39.1Z" fill="#FFDB69" stroke="#474747" stroke-width="0.1" stroke-miterlimit="10"/>
<path d="M30.2 114.3H23.6V117.3H30.2V114.3Z" fill="#FFDB69" stroke="#474747" stroke-width="0.1" stroke-miterlimit="10"/>
<path d="M23.8 120.3H26.7V121.8H23.8V120.3Z" fill="#FFDB69" stroke="#474747" stroke-width="0.1" stroke-miterlimit="10"/>
<path d="M28.3 75.1V78.2H29.7V75.1H28.3Z" fill="#FFDB69" stroke="#474747" stroke-width="0.1" stroke-miterlimit="10"/>
<path d="M75.2 95.3H84.3V98.3H75.2V95.3Z" fill="#FFDB69" stroke="#474747" stroke-width="0.1" stroke-miterlimit="10"/>
<path d="M87.1 63.4V71.7H90.1V63.4H87.1Z" fill="#FFDB69" stroke="#474747" stroke-width="0.1" stroke-miterlimit="10"/>
<path d="M86.2 49.9V39.6H91.2V49.9H86.2Z" fill="#FFDB69" stroke="#474747" stroke-width="0.1" stroke-miterlimit="10"/>
<path d="M98.6 39.1H101.5V37.8H98.6V39.1Z" fill="#FFDB69" stroke="#474747" stroke-width="0.1" stroke-miterlimit="10"/>
<path d="M98.5 9.60001V11H101.4V9.60001H98.5Z" fill="#FFDB69" stroke="#474747" stroke-width="0.1" stroke-miterlimit="10"/>
<path d="M45.9 62.8H47.3V67.7H45.9V62.8Z" fill="#FFDB69" stroke="#474747" stroke-width="0.1" stroke-miterlimit="10"/>
<path d="M54.4 60H55.8V64.9H54.4V60Z" fill="#FFDB69" stroke="#474747" stroke-width="0.1" stroke-miterlimit="10"/>
<path d="M53.7 6.39999H56.6V7.69999H53.7V6.39999Z" fill="#FFDB69" stroke="#474747" stroke-width="0.1" stroke-miterlimit="10"/>
<path d="M33.3 94.6H32V97.5H33.3V94.6Z" fill="#FFDB69" stroke="#474747" stroke-width="0.1" stroke-miterlimit="10"/>
<path d="M30.3 65.9H24V69.1H30.4V65.9H30.3ZM28.8 67.4V67.6H25.5V67.4H28.8Z" fill="#FFDB69" stroke="#474747" stroke-width="0.1" stroke-miterlimit="10"/>
<path d="M30.3 39.7H24V42.9H30.4V39.7H30.3ZM28.8 41.2V41.4H25.5V41.2H28.8Z" fill="#FFDB69" stroke="#474747" stroke-width="0.1" stroke-miterlimit="10"/>
<path d="M53.2 30.1H56.2V28.9H53.2V30.1Z" fill="#FFDB69" stroke="#474747" stroke-width="0.1" stroke-miterlimit="10"/>
<path d="M78.2 37.7H75.3V39H78.2V37.7Z" fill="#FFDB69" stroke="#474747" stroke-width="0.1" stroke-miterlimit="10"/>
<path d="M92.3 42.9V48.8H95.4V42.9H92.3ZM93.8 44.1H94V47.7H93.8V44.1Z" fill="#FFDB69" stroke="#474747" stroke-width="0.1" stroke-miterlimit="10"/>
<path d="M0.100006 74.7V71.8H1.50001V74.7H0.100006Z" fill="#FFDB69" stroke="#474747" stroke-width="0.1" stroke-miterlimit="10"/>
<path d="M54.5 81.1C54.5 83.1 52.9 84.7 50.9 84.7C49.9 84.7 49 84.3 48.4 83.6C47.7 82.9 47.3 82 47.3 81.1C47.3 80.1 47.7 79.2 48.4 78.6C49.1 77.9 50 77.5 50.9 77.5C52.9 77.5 54.5 79.2 54.5 81.1Z" fill="#212121"/>
<path d="M54.5 58.9C54.5 60.9 52.9 62.5 50.9 62.5C49.9 62.5 49 62.1 48.4 61.4C47.8 60.7 47.3 59.8 47.3 58.9C47.3 58 47.7 57 48.4 56.4C49.1 55.8 50 55.3 50.9 55.3C52.9 55.3 54.5 56.9 54.5 58.9Z" fill="#212121"/>
<path d="M54.5 69.6C54.5 71.6 52.9 73.2 50.9 73.2C49.9 73.2 49 72.8 48.4 72.1C47.8 71.4 47.3 70.5 47.3 69.6C47.3 68.7 47.7 67.7 48.4 67.1C49.1 66.5 50 66 50.9 66C52.9 66.1 54.5 67.7 54.5 69.6Z" fill="#212121"/>
<path d="M91.7 87L93.2 80.7L95.2 81.2L93.7 87.5L91.7 87Z" fill="#212121"/>
<path d="M94 87.4L94.4 85.2L96.5 85.6L96.1 87.8L94 87.4Z" fill="#212121"/>
<path d="M89.9 85.4H91.6V87.1H89.9V85.4Z" fill="#212121"/>
<path d="M90.3 84.8L90.7 83L92.4 83.4L92 85.2L90.3 84.8Z" fill="#212121"/>
<path d="M86.4 87.8H87.5V88.9H86.4V87.8Z" fill="#212121"/>
<path d="M86.4 77.9H87.5V79H86.4V77.9Z" fill="#212121"/>
<path d="M100.1 81.3H102V83.2H100.1V81.3Z" fill="#212121"/>
<path d="M100.5 83.6H102V86.1H100.5V83.6Z" fill="#212121"/>
<path d="M100 86.3H101.9V88.2H100V86.3Z" fill="#212121"/>
</svg>
