<svg width="131" height="142" viewBox="0 0 131 142" fill="none" xmlns="http://www.w3.org/2000/svg">
<path d="M25.3 10.2V11.1H30.4V23.1H25.3V24H85V23.1H34.3V11.1H96.8V10.2H25.3ZM94.8 24.5V24.7H25.3V25.6H50.4V37.8H37.2V38.7H40.4L40.3 40.4H33.3V39.4H28.7V39.5V39.6H24.5V43H31V46.6H30.8V43.2H26V49.3H30.9V47.5H31.1V51.5H30.9V49.7H26V54.3L30.9 54.1V52.3H31.1V56.4H30.9V54.4L26 54.6V65.6H30.9V62.1H31.1V65.9H27.8H24.5V69H31.4V69.3H3.89999V117.3H18.3V115.3H18V71.4H34V99.4H34.9V89.3H49.6V99.4H50.5V45.3H51.1V99.4H67.7V43.3H69.2V99.4H85.8V51.5H86.4V99.4H87.3V84.3H102V99.4H102.9V51.5H103.4V39.7H84.1V40.5H67.8V40H67.5L67.6 39.8L67 39.4L67.3 38.9L67.1 38.8H96.9V24.5H94.8ZM54.3 25.7H94.8V37.9H54.3V25.7ZM41.5 38.8H66.4L66.2 39.1L66.5 39.3L66 39.8L66.4 40V39.9L66.8 40.1V40.4H42.2H41.4L41.5 38.8ZM33.4 43.4H34V69.4H33.4V56.4V43.4ZM34.9 43.4H42.3H48.6V43.7H46.7V45.4H49.6V84.9H34.9V43.4ZM49.8 43.4H51.1V43.7H49.8V43.4ZM52.1 43.4H66.8V53.1H52.1V43.4ZM70.1 43.4H84.1V51.6H84.9V72.1H70.1V43.4ZM87.2 51.6H101.9V79.9H87.2V51.6ZM52.7 55.2H66.1V55.7H52.7V55.2ZM30.9 57.1H31.1V61.2H30.9V59.1V57.1ZM52.1 57.8H66.8V97.5H52.1V57.8ZM13.8 71.5H17.1V74.5H16.8V76.6H17.1V99H4.79999V73.5H13.8V71.5ZM70.1 76.7H84.8V97.4H70.1V97.3H70.3V95.4H70.1V76.7ZM4.79999 102.8H17.1V115.3H4.79999V102.8Z" fill="#DFD7BF" stroke="#444444" stroke-width="0.2" stroke-miterlimit="10"/>
<path d="M34.3 11.1H30.4V23.1H34.3V11.1Z" fill="#596281"/>
<path d="M54.3 25.5H50.4V37.9H54.3V25.5Z" fill="#596281"/>
<path d="M49.6 84.9H34.9V89.3H49.6V84.9Z" fill="#596281"/>
<path d="M17.1 99H4.79999V102.8H17.1V99Z" fill="#596281"/>
<path d="M84.8 72.1H70.1V76.7H84.8V72.1Z" fill="#596281"/>
<path d="M66.8 53.1H52.1V57.8H66.8V53.1Z" fill="#596281"/>
<path d="M102 79.9H87.2V84.3H102V79.9Z" fill="#596281"/>
<path d="M33.5 43.4V42.9" stroke="black" stroke-width="0.2"/>
<path d="M33.5 41.2V40.5" stroke="black" stroke-width="0.2"/>
<path d="M11.1 72H12V69.3" stroke="black" stroke-width="0.2"/>
<path d="M9.5 72H4.5V69.3" stroke="black" stroke-width="0.2"/>
<path d="M30.9 60.5H28.7" stroke="black" stroke-width="0.2"/>
<path d="M30.3 39.7H24V42.9H30.4V39.7H30.3ZM28.8 41.2V41.4H25.5V41.2H28.8Z" fill="#FFDB69" stroke="#474747" stroke-width="0.1" stroke-miterlimit="10"/>
<path d="M30.3 65.9H24V69.1H30.4V65.9H30.3ZM28.8 67.4V67.6H25.5V67.4H28.8Z" fill="#FFDB69" stroke="#474747" stroke-width="0.1" stroke-miterlimit="10"/>
<path d="M18.2 111.3V117.4H21V111.3H18.2ZM19.5 112.5H19.6V116.2H19.5V112.5Z" fill="#FFDB69" stroke="#474747" stroke-width="0.1" stroke-miterlimit="10"/>
<path d="M14.2 69.5V75.4H16.9V69.5H14.2ZM15.5 70.6H15.6V74.2H15.5V70.6Z" fill="#FFDB69" stroke="#474747" stroke-width="0.1" stroke-miterlimit="10"/>
<path d="M52.1 93.5V99.5H54.8V93.5H52.1ZM53.4 94.6L53.5 98.3H53.4V94.6Z" fill="#FFDB69" stroke="#474747" stroke-width="0.1" stroke-miterlimit="10"/>
<path d="M70.3 93.5V99.5H73V93.5H70.3ZM71.6 94.6L71.7 98.3H71.6V94.6Z" fill="#FFDB69" stroke="#474747" stroke-width="0.1" stroke-miterlimit="10"/>
<path d="M96.7 21.9H90.8V24.6H96.7V21.9ZM95.6 23.2V23.3H92V23.2H95.6Z" fill="#FFDB69" stroke="#474747" stroke-width="0.1" stroke-miterlimit="10"/>
<path d="M46.7 43.5V49.6H49.4V43.5H46.7ZM48 44.7L48.1 48.4H48V44.7Z" fill="#FFDB69" stroke="#474747" stroke-width="0.1" stroke-miterlimit="10"/>
</svg>
