<svg width="131" height="142" viewBox="0 0 131 142" fill="none" xmlns="http://www.w3.org/2000/svg">
<path d="M33.4 98.5V97.5H32.1V94.6H46.3V99.5H33.4V98.5Z" fill="#B2AFA6" stroke="#444444" stroke-width="0.3" stroke-miterlimit="10"/>
<path d="M51.2 15.4V17.5H52.5V27.5H71.1V25.4H69.8V15.4H51.2ZM59 17.5H63.5V25.4H59V17.5Z" fill="#B2AFA6" stroke="#444444" stroke-width="0.3" stroke-miterlimit="10"/>
<path d="M73.3 33.6H83.4V39.5H73.3V33.6Z" fill="#B2AFA6" stroke="#444444" stroke-width="0.3" stroke-miterlimit="10"/>
<path d="M25.3 29.7V39.4H30.4V39.8H24.6V43H31.2V43.2H18.6V55H20.6V57.6H18.6V65.7H31.1V65.9H24.6V69H28.8H31V69.3H27.6V89.4H33V69.3H32.7V69H33V65.8H32.1V65.6H33V43.1H32V43H33V39.8H31.3V39.4H32.1V37.6H29.4V29.7H25.3ZM22.1 51.3H31.1V57.5H22.1V56.3H22.3V57.3H26.5V54.4H22.3V55.2H22.1V53.2V51.3Z" fill="#B2AFA6" stroke="#444444" stroke-width="0.3" stroke-miterlimit="10"/>
<path d="M84.1 39.8H74.7V42.7H84V41.2H84.4V41.8H87.7V42H84.4V51.2H92V50.4H92.2V51.2H95.5V50.4H95.8V51.2H102.9V46H102V45.7H102.9V40H90.9V40.2H90.7V40H84.4V40.1H84.1V39.8ZM90.7 41.1H90.9V41.6H92.3V42.8H95.5V41.6H100.2V45.7H101.1V46H95.8V49.5H95.5V49.1H92.2V49.5H92V42H88.7V41.8H90.8L90.7 41.1Z" fill="#B2AFA6" stroke="#444444" stroke-width="0.3" stroke-miterlimit="10"/>
<path d="M21.3 48.3H32V49.1H21.3V48.3Z" fill="#606060"/>
<path d="M21 45.4H30.9V46.2H21V45.4Z" fill="#606060"/>
<path d="M21.8 43.1H30.4V43.5H21.8V43.1Z" fill="#606060"/>
<path d="M20.9 59.9H25.6V60.5H20.9V59.9Z" fill="#606060"/>
<path d="M28.2 59.9H32.9V60.5H28.2V59.9Z" fill="#606060"/>
<path d="M28.2 62.7H32.9V63.3H28.2V62.7Z" fill="#606060"/>
<path d="M20.9 62.7H25.6V63.3H20.9V62.7Z" fill="#606060"/>
<path d="M21.7 65.2H29.5V65.6H21.7V65.2Z" fill="#606060"/>
<path d="M24.7 57.5H26.4V57.9H24.7V57.5Z" fill="#606060"/>
<mask id="path-15-inside-1_8_106" fill="white">
<path d="M28 29.7H25.3V25.5H28"/>
</mask>
<path d="M28 29.7H25.3V25.5H28" fill="#FFDB69"/>
<path d="M25.3 29.7H25.2V29.8H25.3V29.7ZM25.3 25.5V25.4H25.2V25.5H25.3ZM28 29.7V29.6H25.3V29.7V29.8H28V29.7ZM25.3 29.7H25.4V25.5H25.3H25.2V29.7H25.3ZM25.3 25.5V25.6H28V25.5V25.4H25.3V25.5Z" fill="black" mask="url(#path-15-inside-1_8_106)"/>
<mask id="path-17-inside-2_8_106" fill="white">
<path d="M24.7 87.4H27.6V88.7H24.7"/>
</mask>
<path d="M24.7 87.4H27.6V88.7H24.7" fill="#FFDB69"/>
<path d="M27.6 87.4H27.7V87.3H27.6V87.4ZM27.6 88.7V88.8H27.7V88.7H27.6ZM24.7 87.4V87.5H27.6V87.4V87.3H24.7V87.4ZM27.6 87.4H27.5V88.7H27.6H27.7V87.4H27.6ZM27.6 88.7V88.6H24.7V88.7V88.8H27.6V88.7Z" fill="black" mask="url(#path-17-inside-2_8_106)"/>
<mask id="path-19-inside-3_8_106" fill="white">
<path d="M24.7 72.3H27.6V73.6H24.7"/>
</mask>
<path d="M24.7 72.3H27.6V73.6H24.7" fill="#FFDB69"/>
<path d="M27.6 72.3H27.7V72.2H27.6V72.3ZM27.6 73.6V73.7H27.7V73.6H27.6ZM24.7 72.3V72.4H27.6V72.3V72.2H24.7V72.3ZM27.6 72.3H27.5V73.6H27.6H27.7V72.3H27.6ZM27.6 73.6V73.5H24.7V73.6V73.7H27.6V73.6Z" fill="black" mask="url(#path-19-inside-3_8_106)"/>
<path d="M84.0496 42.7498V46.3504H82.7498V42.7498H84.0496Z" fill="#FFDB69" stroke="black" stroke-width="0.1"/>
<path d="M84.5504 34.0498V39.3496H83.4498V34.0498H84.5504Z" fill="#FFDB69" stroke="black" stroke-width="0.1"/>
<path d="M33.25 94.6498V97.4496H32.0498V94.6498H33.25Z" fill="#FFDB69" stroke="black" stroke-width="0.1"/>
<path d="M47.65 94.7498V97.5496H46.4498V94.7498H47.65Z" fill="#FFDB69" stroke="black" stroke-width="0.1"/>
<path d="M52.4504 17.5498V20.8496H51.3498V17.5498H52.4504Z" fill="#FFDB69" stroke="black" stroke-width="0.1"/>
<path d="M70.9504 21.9498V25.4498H69.8498V21.9498H70.9504Z" fill="#FFDB69" stroke="black" stroke-width="0.1"/>
<path d="M15.1504 65.0498V66.3496H12.0498V65.0498H15.1504Z" fill="#FFDB69" stroke="black" stroke-width="0.1"/>
<path d="M95.3498 42.9498V48.7496H92.3498V42.9498H95.3498ZM93.7502 47.7496H94.05V44.0504H93.7502V47.7496Z" fill="#FFDB69" stroke="black" stroke-width="0.1"/>
<path d="M24.9156 55.847C25.0504 55.802 25.1631 55.8239 25.2818 55.8714C25.3423 55.8956 25.4026 55.9255 25.4693 55.9573C25.5333 55.9878 25.6021 56.0186 25.6773 56.0442V56.0452C25.7868 56.0999 25.901 56.1004 25.9801 56.1116C26.0218 56.1176 26.0558 56.1262 26.0836 56.1419C26.1095 56.1566 26.1324 56.1801 26.1529 56.22C26.1576 56.2521 26.1712 56.2849 26.1852 56.3128C26.1942 56.3309 26.2046 56.3503 26.2144 56.3684C26.2243 56.3867 26.2339 56.4045 26.2428 56.4221C26.261 56.4587 26.2734 56.4901 26.2769 56.5159C26.2802 56.5396 26.2751 56.5538 26.2643 56.5647L26.2496 56.5794V56.5999C26.2496 56.6156 26.2463 56.6247 26.2418 56.6311C26.2363 56.6389 26.2266 56.6471 26.2096 56.6585C26.1775 56.6798 26.1196 56.7104 26.065 56.7649C25.9807 56.8493 25.8995 56.8499 25.8004 56.8499C25.7805 56.8499 25.7408 56.8447 25.6871 56.8352C25.6347 56.826 25.572 56.8136 25.5094 56.8011C25.4472 56.7886 25.3843 56.7754 25.3307 56.7659C25.2783 56.7567 25.2299 56.7503 25.1998 56.7503C25.1501 56.7503 25.0287 56.75 24.8961 56.7259C24.7621 56.7015 24.6248 56.6536 24.5357 56.5647C24.4968 56.5258 24.4734 56.4634 24.4615 56.3919C24.451 56.3287 24.4499 56.2649 24.4498 56.2161C24.4988 56.1574 24.5258 56.081 24.5475 56.0159C24.5706 55.9464 24.5913 55.8898 24.6236 55.8499H24.9078L24.9156 55.847Z" fill="#FFDB69" stroke="black" stroke-width="0.1"/>
<path d="M30.3496 39.7498V42.8504H24.0498V39.7498H30.3496ZM25.4502 41.45H28.8496V41.1502H25.4502V41.45Z" fill="#FFDB69" stroke="black" stroke-width="0.1"/>
<path d="M30.3496 65.9498V69.0504H24.0498V65.9498H30.3496ZM25.4502 67.65H28.8496V67.3502H25.4502V67.65Z" fill="#FFDB69" stroke="black" stroke-width="0.1"/>
<path d="M20.95 111.35V117.35H18.2498V111.35H20.95ZM19.45 116.25H19.6502V112.45H19.45V116.25Z" fill="#FFDB69" stroke="black" stroke-width="0.1"/>
<path d="M16.8504 69.5498V75.3496H14.2498V69.5498H16.8504ZM15.45 74.25H15.6502V70.5498H15.45V74.25Z" fill="#FFDB69" stroke="black" stroke-width="0.1"/>
<path d="M54.7504 93.5498V99.4502H52.1498V93.5498H54.7504ZM53.4496 94.5986L53.35 94.5996V98.3496H53.5512L53.5502 98.2988L53.4496 94.5986Z" fill="#FFDB69" stroke="black" stroke-width="0.1"/>
<path d="M72.9504 93.5498V99.4502H70.3498V93.5498H72.9504ZM71.6496 94.5986L71.55 94.5996V98.3496H71.7512L71.7502 98.2988L71.6496 94.5986Z" fill="#FFDB69" stroke="black" stroke-width="0.1"/>
<path d="M96.6496 21.9498V24.5504H90.8498V21.9498H96.6496ZM91.9504 23.3502H95.6496V23.15H91.9504V23.3502Z" fill="#FFDB69" stroke="black" stroke-width="0.1"/>
<path d="M49.3504 43.5498V49.5498H46.7498V43.5498H49.3504ZM48.0496 44.6982L47.95 44.7002V48.4502H48.1512L48.1502 48.3984L48.0496 44.6982Z" fill="#FFDB69" stroke="black" stroke-width="0.1"/>
<path d="M28.1 31.9V31.4H25.3" stroke="#5B5B5B" stroke-width="0.2"/>
<path d="M28.1 33.3V38.9H25.3" stroke="#5B5B5B" stroke-width="0.2"/>
<path d="M23.3 55.9V54.5" stroke="#5B5B5B" stroke-width="0.2"/>
<path d="M24.4 55.9V54.5" stroke="#5B5B5B" stroke-width="0.2"/>
<path d="M25.6 55.9V54.5" stroke="#5B5B5B" stroke-width="0.2"/>
<path d="M20.6 55V51.3H20.1" stroke="#5B5B5B" stroke-width="0.2"/>
<path d="M19.1 51.3H18.6" stroke="#5B5B5B" stroke-width="0.2"/>
</svg>
