<svg width="131" height="142" viewBox="0 0 131 142" fill="none" xmlns="http://www.w3.org/2000/svg">
<g clip-path="url(#clip0_8_106)">
<path d="M97.3 2.5V6.3H50.1L49.7 9.3H57.9V9.6H41.5H31V9.3H49.2L49.6 6.3H25.3V9.3H30.2V9.6H25.3V15.1H1.5V21.5H25.2V39.5H30.2V39.8H24.5V43H31V45.5H27V46.4H26.8V45.5H21V50.5H26.8V47.6H27V50.5H29.3V50.8H23.1V58.4H29.2V58.7H23.1V65.8H31.5V65.9H24.5V69H31.2V69.3H3.4V74.4H2.9V69.3H0V87H2.9V75.3H3.4V81.9V94.4H2.9V91.4H0V121.2H3.3V126H8V125.4H8.3V141.2H14.8V120.5H15.1V122.2H30.7V120H33.3V117.7H31.8V117.3H33.4V105.9V94.5H39.2V100.5V106.5H42.2V100.5V94.5H46.3V98H46.1V94.8H42.4V99.6H46.1V99H46.3V99.5H56.6V123.9H63V99.5H83.3H103.4V97.1H127.8V90.7H103.4V79.1H103.6V81.4H106.2V79.4H106.5V81.7H103.6V86.7H121.5V74.4L119.5 74.5L119.3 71.9L120.7 71.8L120.5 62.5L119.7 60L120.2 55.8L121.3 51.6L121.2 47.3L125.3 46.7V34.9H126.7V28.7H122V35.5H113.5V35.2H121.3V28.8H101.6V23.1V17.5H110.1H118.6V9.5H130.9V3.1H118.6V2.5H97.3ZM101.6 8.7H102.6V9.4H101.6V9.2H97.3V10.7H97V10.2H96.4V9.6H96.1V9.3H96.5V8.9H99.1H101.7L101.6 8.7ZM60.1 9.3H62.2V9.6H61.4V10.3H60.8V9.6H60.1V9.3ZM64.4 9.3H65.7V9.6H64.4V9.3ZM68.4 9.3H69.4V9.6H68.4V9.3ZM72.2 9.3H85.9V9.6H72.2V9.3ZM88.6 9.3H89.6V9.6H88.6V9.3ZM92.4 9.3H93.4V9.6H92.4V9.3ZM96.9 12.1H97.2V26.3H96.9V19.2V12.1ZM96.9 27.5H97.2V28.4H97.9V29.3H97.2V28.6H96.9V27.5ZM82.4 33.5H83.5V36.5V39.4H86.2V49.9H91.2V39.4H94.5V39.7H92.4V42.9H95.6V41.7H96.4V41.9H96V49.6H95.8V49.2H92.4V51.3H95.8V50.2H96V51.3H99V51.6H84.1V39.7H73.3V35.8H73.7V39.3H83V33.9H82.4V33.5ZM73.3 33.5H81.4V33.9H73.7V34.9H73.3V33.5ZM96.9 35.3H99.5V35.6H97.2V36.7H96.9V35.3ZM100.7 35.3H105.2V52.6H103.4V52.2H102.6V51.6H99.7V51.3H103.3V46H97.5V41.9H97.1V41.7H101.2V41.9H97.8V45.8H103.4V41.9H102V41.7H103.4V39.7H95.5V39.4H97V37.8H97.3V39.4H103.3V35.6H100.7V35.3ZM108.2 35.3H110.1V35.6H108.6V56.1H103.7V59.4H106.9V60H106.5V59.7H103.7V60H103.5V55.4H106.1H108.3L108.2 35.3ZM36.9 38.6H37.6V39.2V39.8H33.4V43.5H33.1V39.8H31.5V39.5H37L36.9 38.6ZM60.8 38.6H61.4V39.4H64.4V39.7H60.8V38.6ZM65.4 39.4H69.4V40.3H68.5V51.6H69.4V52.2H68.5V63.4H69.3V64.1H68.5V75.3H69.4V75.6V75.9H69H68.6V77H68.3V75.9H67.5V75.2H68.3V64.1H67.6V63.4H68.3V52.2H67.5V51.6H68.3V40.3H67.5V39.7H65.5L65.4 39.4ZM0.9 42.8V69H12V66.3H17.3V69H22.9V50.8H20.8V45.2H23.9V42.8H0.9ZM33.1 44.7H33.4V66.8H33.1V63.8V47.6V44.7ZM103.4 60.9H103.6V62.9H106.4V60.9H106.8V63.2H108.2V69.2H111V75.1H106.5V77.9H106.2V75.1H103.6V78.2H103.4V73.1V60.9ZM33.1 68H33.4V68.7V69.4V79.6V89.8H28.2V89.6V89.4H33V69.4H32.5V69H33.1V68ZM68.3 86.8H68.6V87.2H69.5V87.8H68.6V88.1H68.3V87.8H67.5V87.2H68.3V86.8ZM2.9 95.4H3.4V99.5V103.6H2.9V95.4ZM2.9 104.7H3.3V110.2H2.9V104.7ZM2.9 111.2H3.3V114.3V117.4H5.7V117.7H2.9V111.2ZM6.8 117.4H8.3V124.2H8V117.7H6.8V117.4ZM14.8 117.4H30V117.8H15.1V119.6H14.8V117.4Z" fill="#DFD7BF" stroke="#444444" stroke-width="0.3" stroke-miterlimit="10"/>
<path d="M45.9 52.7H55.7V86.8H45.9V52.7Z" fill="#A8A8A8"/>
<path d="M78.9 43.3H80.4V50H78.9V43.3Z" fill="#A8A8A8"/>
<path d="M74 43.3H75.5V50H74V43.3Z" fill="#A8A8A8"/>
<path d="M33 69.3V89.3H28.2V69.3H33Z" fill="#A8A8A8"/>
<path d="M25.9 22.9H30.7V24.6H25.9V22.9Z" fill="#EEA462"/>
<path d="M62.8 14.6H68.2V27.6H62.8V14.6Z" fill="#EEA462"/>
<path d="M39.6 24.1H41.5V26.2H39.6V24.1Z" fill="#EEA462"/>
<path d="M70.8 60.9H73.6V66.4H70.8V60.9Z" fill="#EEA462"/>
<path d="M74.3 61.5L77.1 61.8L76.5 67.3L73.7 67L74.3 61.5Z" fill="#EEA462"/>
<path d="M86 76.9L87 79.5L81.8 81.4L80.8 78.8L86 76.9Z" fill="#EEA462"/>
<path d="M90.7 79.8H93.5V85.3H90.7V79.8Z" fill="#EEA462"/>
<path d="M95.6 79H98.4V84.5H95.6V79Z" fill="#EEA462"/>
<path d="M90 74.7H95.2V77.5H90V74.7Z" fill="#EEA462"/>
<path d="M101.2 66.8H98.7V73H101.2V66.8Z" fill="#EEA462"/>
<path d="M76.2 89.6L74.4 84.4L72.6 85L74.4 90.2L76.2 89.6Z" fill="#EEA462"/>
<path d="M48.4 87.6L43.6 89.7L42.9 88L47.7 85.9L48.4 87.6Z" fill="#EEA462"/>
<path d="M73.7 6.39999C73.9 6.39999 75.6 6.49999 75.6 6.49999V7.49999L73.7 7.39999V6.39999Z" fill="#EEA462"/>
<path d="M22.7 16.9L22.5 18.6L17.7 18L17.9 16.3L22.7 16.9Z" fill="#EEA462"/>
<path d="M58.8 51.6H63.7V49.9H58.8V51.6Z" fill="#EEA462"/>
<path d="M68.2 46.3L63.4 45.9L63.3 47.6L68 48L68.2 46.3Z" fill="#EEA462"/>
<path d="M65.2 41.1V46H66.9V41.1H65.2Z" fill="#EEA462"/>
<path d="M54.1 14.6H59.4V27.6H54.1V14.6Z" fill="#EEA462"/>
<path d="M96.6 53.5V54H96.8V54.2L95.5 54V54.1L96.8 54.3L96.6 55L95.3 54.8V54.9L96.6 55.1V55.3H96.4L96.3 55.8L97.3 55.9V55.6L99.7 55.9L100 54.1L97.6 53.8V53.6L96.6 53.5Z" fill="#EEA462"/>
<path d="M98.2 64.2V63.7H98V63.4H99.3V63.3H98V62.8H99.3V62.7H97.9V62.5H98.1V62H97.1V62.3L94.7 62.2V64L97.2 64.1V64.3L98.2 64.2Z" fill="#EEA462"/>
<path d="M92.1 55.4V54.9H91.9V54.6H93.2V54.5H91.9V54H93.2V53.9H91.8V53.7H92V53.2H91V53.5L88.6 53.4V55.2L91.1 55.3V55.5L92.1 55.4Z" fill="#EEA462"/>
<path d="M83.6 58.8L83.3 58.4L83.1 58.5L83 58.3L84.1 57.6L84 57.5L82.9 58.2L82.6 57.7L83.7 57L83.6 56.9L82.5 57.6L82.4 57.4L82.6 57.3L82.3 56.8L81.5 57.3L81.6 57.5L79.5 58.8L80.5 60.4L82.6 59.1L82.7 59.3L83.6 58.8Z" fill="#EEA462"/>
<path d="M33.6 91.2V91.7H33.8V91.9L32.5 92V92.1L33.8 92V92.5L32.5 92.6V92.7L33.8 92.6V92.8H33.6V93.3L34.6 93.2V92.9L37 92.7L36.8 90.9L34.3 91.1V90.9L33.6 91.2Z" fill="#EEA462"/>
<path d="M11.7 107.4L11.2 107.3L11.1 107.5L10.9 107.4L11.3 106.1H11.2L10.8 107.3L10.3 107.1L10.7 105.9H10.6L10.2 107.2L9.99999 107.1L10.1 106.9L9.59999 106.7L9.29999 107.6L9.49999 107.7L8.79999 110.1L10.6 110.6L11.3 108.2L11.5 108.3L11.7 107.4Z" fill="#EEA462"/>
<path d="M112.8 11L112.9 11.5H113.1V11.7L111.8 11.8V11.9L113.1 11.8L113.2 12.3L111.9 12.4V12.5L113.2 12.4V12.6H113L113.1 13.1L114.1 13V12.7L116.5 12.5L116.3 10.7L113.8 10.9V10.7L112.8 11Z" fill="#EEA462"/>
<path d="M109.1 7.50001L109.2 7.00001L109 6.90001L109.1 6.70001L110.4 7.00001V6.90001L109.1 6.60001L109.2 6.10001L110.5 6.40001V6.30001L109.2 6.00001L109.3 5.80001L109.5 5.90001L109.6 5.40001L108.7 5.00001L108.6 5.20001L106.2 4.60001L105.8 6.40001L108.2 7.00001L108.1 7.20001L109.1 7.50001Z" fill="#EEA462"/>
<path d="M78.5 42.4H80.9V48.8H78.5V42.4Z" fill="#EEA462"/>
<path d="M37 66.1L37.4 65.8L37.3 65.6L37.5 65.4L38.4 66.4L38.5 66.3L37.7 65.3L38 65L38.8 66L38.9 65.9L38 64.9L38.2 64.8L38.3 65L38.7 64.6L38.1 63.9L38 64L36.4 62.1L35 63.4L36.6 65.3L36.4 65.4L37 66.1Z" fill="#EEA462"/>
<path d="M9.1 20L9.3 19.5L9.1 19.4L9.2 19.2L10.5 19.7V19.6L9.3 19.1L9.5 18.6L10.7 19.1V19L9.4 18.5L9.5 18.3L9.7 18.4L9.9 17.9L9 17.5V17.7L6.7 16.8L6 18.5L8.3 19.4L8.2 19.6L9.1 20Z" fill="#EEA462"/>
<path d="M44.4 12.3L44 12.6L44.1 12.8L43.9 13L43.1 11.9H43L43.8 12.9L43.4 13.2L42.6 12.2L42.5 12.3L43.3 13.4L43.1 13.5L43 13.3L42.6 13.6L43.2 14.4L43.4 14.2L44.9 16.2L46.4 15.1L44.9 13.1L45.1 13L44.4 12.3Z" fill="#EEA462"/>
<path d="M90.6 22L90.1 22.2L90.2 22.4L90 22.5L89.6 21.2H89.5L89.9 22.4L89.4 22.6L89 21.4H88.9L89.3 22.7L89.1 22.8L89 22.6L88.5 22.8L88.8 23.7L89 23.6L89.8 25.9L91.5 25.3L90.6 23L90.8 22.9L90.6 22Z" fill="#EEA462"/>
<path d="M124.3 33.4L123.8 33.6L123.9 33.8L123.7 33.9L123.2 32.7H123.1L123.6 33.9L123.1 34.1L122.6 32.9H122.5L123 34.1L122.8 34.2L122.7 34L122.2 34.2L122.6 35.1L122.8 35L123.7 37.3L125.4 36.6L124.5 34.3L124.7 34.2L124.3 33.4Z" fill="#EEA462"/>
<path d="M115.5 71.6L118.2 66.1L120.3 67.1L117.6 72.6L115.5 71.6Z" fill="#EEA462"/>
<path d="M116.1 57.6H122.6V60H116.1V57.6Z" fill="#EEA462"/>
<path d="M108.5 51.4H111.7V53.5H108.5V51.4Z" fill="#EEA462"/>
<path d="M114.1 49.1L115.6 47.7L120.3 53L118.8 54.4L114.1 49.1Z" fill="#EEA462"/>
<path d="M116.7 39.2V36H118.8V39.1H116.7V39.2Z" fill="#EEA462"/>
<path d="M118.3 62.8L118.4 66L120.5 65.9L120.4 62.7L118.3 62.8Z" fill="#EEA462"/>
<path d="M42.1498 95.3498V106.55H39.1498V95.3498H42.1498Z" fill="#FFDB69" stroke="black" stroke-width="0.1"/>
<path d="M30.1498 114.35V117.25H23.6498V114.35H30.1498Z" fill="#FFDB69" stroke="black" stroke-width="0.1"/>
<path d="M26.6496 120.35V121.75H23.8498V120.35H26.6496Z" fill="#FFDB69" stroke="black" stroke-width="0.1"/>
<path d="M29.6496 75.1498V78.1498H28.3498V75.1498H29.6496Z" fill="#FFDB69" stroke="black" stroke-width="0.1"/>
<path d="M84.2498 95.3498V98.2502H75.2498V95.3498H84.2498Z" fill="#FFDB69" stroke="black" stroke-width="0.1"/>
<path d="M90.0502 63.4498V71.65H87.1498V63.4498H90.0502Z" fill="#FFDB69" stroke="black" stroke-width="0.1"/>
<path d="M91.1502 39.6498V49.85H86.2498V39.6498H91.1502Z" fill="#FFDB69" stroke="black" stroke-width="0.1"/>
<path d="M101.45 37.8498V39.05H98.6498V37.8498H101.45Z" fill="#FFDB69" stroke="black" stroke-width="0.1"/>
<path d="M101.35 9.64981V10.9496H98.5498V9.64981H101.35Z" fill="#FFDB69" stroke="black" stroke-width="0.1"/>
<path d="M47.2496 62.8498V67.6496H45.9498V62.8498H47.2496Z" fill="#FFDB69" stroke="black" stroke-width="0.1"/>
<path d="M55.7496 60.0498V64.8496H54.4498V60.0498H55.7496Z" fill="#FFDB69" stroke="black" stroke-width="0.1"/>
<path d="M56.5496 6.4498V7.64999H53.7498V6.4498H56.5496Z" fill="#FFDB69" stroke="black" stroke-width="0.1"/>
<path d="M33.25 94.6498V97.4496H32.0498V94.6498H33.25Z" fill="#FFDB69" stroke="black" stroke-width="0.1"/>
<path d="M56.1502 28.9498V30.0504H53.2498V28.9498H56.1502Z" fill="#FFDB69" stroke="black" stroke-width="0.1"/>
<path d="M78.1496 37.7498V38.95H75.3498V37.7498H78.1496Z" fill="#FFDB69" stroke="black" stroke-width="0.1"/>
<path d="M1.44962 71.8498V74.6496H0.149811V71.8498H1.44962Z" fill="#FFDB69" stroke="black" stroke-width="0.1"/>
<path d="M20.95 111.35V117.35H18.2498V111.35H20.95ZM19.45 116.25H19.6502V112.45H19.45V116.25Z" fill="#FFDB69" stroke="black" stroke-width="0.1"/>
<path d="M16.8504 69.5498V75.3496H14.2498V69.5498H16.8504ZM15.45 74.25H15.6502V70.5498H15.45V74.25Z" fill="#FFDB69" stroke="black" stroke-width="0.1"/>
<path d="M54.7504 93.5498V99.4502H52.1498V93.5498H54.7504ZM53.4496 94.5986L53.35 94.5996V98.3496H53.5512L53.5502 98.2988L53.4496 94.5986Z" fill="#FFDB69" stroke="black" stroke-width="0.1"/>
<path d="M72.9504 93.5498V99.4502H70.3498V93.5498H72.9504ZM71.6496 94.5986L71.55 94.5996V98.3496H71.7512L71.7502 98.2988L71.6496 94.5986Z" fill="#FFDB69" stroke="black" stroke-width="0.1"/>
<path d="M96.6496 21.9498V24.5504H90.8498V21.9498H96.6496ZM91.9504 23.3502H95.6496V23.15H91.9504V23.3502Z" fill="#FFDB69" stroke="black" stroke-width="0.1"/>
<path d="M49.3504 43.5498V49.5498H46.7498V43.5498H49.3504ZM48.0496 44.6982L47.95 44.7002V48.4502H48.1512L48.1502 48.3984L48.0496 44.6982Z" fill="#FFDB69" stroke="black" stroke-width="0.1"/>
<mask id="path-66-inside-1_8_106" fill="white">
<path d="M28 29.7H25.3V25.5H28"/>
</mask>
<path d="M28 29.7H25.3V25.5H28" fill="#FFDB69"/>
<path d="M25.3 29.7H25.2V29.8H25.3V29.7ZM25.3 25.5V25.4H25.2V25.5H25.3ZM28 29.7V29.6H25.3V29.7V29.8H28V29.7ZM25.3 29.7H25.4V25.5H25.3H25.2V29.7H25.3ZM25.3 25.5V25.6H28V25.5V25.4H25.3V25.5Z" fill="black" mask="url(#path-66-inside-1_8_106)"/>
<path d="M30.3496 39.7498V42.8504H24.0498V39.7498H30.3496ZM25.4502 41.45H28.8496V41.1502H25.4502V41.45Z" fill="#FFDB69" stroke="black" stroke-width="0.1"/>
<path d="M30.3496 65.9498V69.0504H24.0498V65.9498H30.3496ZM25.4502 67.65H28.8496V67.3502H25.4502V67.65Z" fill="#FFDB69" stroke="black" stroke-width="0.1"/>
<mask id="path-70-inside-2_8_106" fill="white">
<path d="M24.7 87.4H27.6V88.7H24.7"/>
</mask>
<path d="M24.7 87.4H27.6V88.7H24.7" fill="#FFDB69"/>
<path d="M27.6 87.4H27.7V87.3H27.6V87.4ZM27.6 88.7V88.8H27.7V88.7H27.6ZM24.7 87.4V87.5H27.6V87.4V87.3H24.7V87.4ZM27.6 87.4H27.5V88.7H27.6H27.7V87.4H27.6ZM27.6 88.7V88.6H24.7V88.7V88.8H27.6V88.7Z" fill="black" mask="url(#path-70-inside-2_8_106)"/>
<mask id="path-72-inside-3_8_106" fill="white">
<path d="M24.7 72.3H27.6V73.6H24.7"/>
</mask>
<path d="M24.7 72.3H27.6V73.6H24.7" fill="#FFDB69"/>
<path d="M27.6 72.3H27.7V72.2H27.6V72.3ZM27.6 73.6V73.7H27.7V73.6H27.6ZM24.7 72.3V72.4H27.6V72.3V72.2H24.7V72.3ZM27.6 72.3H27.5V73.6H27.6H27.7V72.3H27.6ZM27.6 73.6V73.5H24.7V73.6V73.7H27.6V73.6Z" fill="black" mask="url(#path-72-inside-3_8_106)"/>
<path d="M84.0496 42.7498V46.3504H82.7498V42.7498H84.0496Z" fill="#FFDB69" stroke="black" stroke-width="0.1"/>
<path d="M84.5504 34.0498V39.3496H83.4498V34.0498H84.5504Z" fill="#FFDB69" stroke="black" stroke-width="0.1"/>
<path d="M33.25 94.6498V97.4496H32.0498V94.6498H33.25Z" fill="#FFDB69" stroke="black" stroke-width="0.1"/>
<path d="M47.65 94.7498V97.5496H46.4498V94.7498H47.65Z" fill="#FFDB69" stroke="black" stroke-width="0.1"/>
<path d="M52.4504 17.5498V20.8496H51.3498V17.5498H52.4504Z" fill="#FFDB69" stroke="black" stroke-width="0.1"/>
<path d="M70.9504 21.9498V25.4498H69.8498V21.9498H70.9504Z" fill="#FFDB69" stroke="black" stroke-width="0.1"/>
<path d="M15.1504 65.0498V66.3496H12.0498V65.0498H15.1504Z" fill="#FFDB69" stroke="black" stroke-width="0.1"/>
<path d="M6.49999 80.1L5.89999 74L8.29999 73.8L8.89999 79.9" stroke="#5B5B5B" stroke-width="0.2"/>
<path d="M8.30002 87.4H14.4" stroke="#5B5B5B" stroke-width="0.2"/>
<path d="M8.30002 89.8H14.4" stroke="#5B5B5B" stroke-width="0.2"/>
<path d="M5.60001 98.3L16.8 94.4" stroke="#5B5B5B" stroke-width="0.2"/>
<path d="M6.39999 100.7L17.4 96.7" stroke="#5B5B5B" stroke-width="0.2"/>
<path d="M36.9 34.9V28.8" stroke="#5B5B5B" stroke-width="0.2"/>
<path d="M39.2 34.9V28.8" stroke="#5B5B5B" stroke-width="0.2"/>
<path d="M40.1 23.4H46.3V17.4" stroke="#5B5B5B" stroke-width="0.2"/>
<path d="M40.1 20.5H46.3" stroke="#5B5B5B" stroke-width="0.2"/>
<path d="M47.5 23.4H49.2V17.4" stroke="#5B5B5B" stroke-width="0.2"/>
<path d="M97 28.6V33.8" stroke="#5B5B5B" stroke-width="0.2"/>
<path d="M97 34.8V35.3" stroke="#5B5B5B" stroke-width="0.2"/>
<path d="M8.30002 130.1H9.70002" stroke="#5B5B5B" stroke-width="0.2"/>
<path d="M10.8 130.1H14.8" stroke="#5B5B5B" stroke-width="0.2"/>
<path d="M118.6 9.50001V5.20001" stroke="#5B5B5B" stroke-width="0.2"/>
<path d="M3.20001 119.7V121.2" stroke="#5B5B5B" stroke-width="0.2"/>
<path d="M59.1 99.6H63" stroke="#5B5B5B" stroke-width="0.2"/>
<path d="M58 99.6H56.6" stroke="#5B5B5B" stroke-width="0.2"/>
<path d="M103.5 95.7V97.1" stroke="#5B5B5B" stroke-width="0.2"/>
<path d="M103.5 90.7V94.6" stroke="#5B5B5B" stroke-width="0.2"/>
<path d="M115.7 94.6V90.6" stroke="#5B5B5B" stroke-width="0.2"/>
<path d="M115.7 95.6V97.1" stroke="#5B5B5B" stroke-width="0.2"/>
<path d="M25.2 21.5V17.1" stroke="#5B5B5B" stroke-width="0.2"/>
<path d="M25.2 16V15.1" stroke="#5B5B5B" stroke-width="0.2"/>
<path d="M12.5 17.1V21.5" stroke="#5B5B5B" stroke-width="0.2"/>
<path d="M12.5 16V15.1" stroke="#5B5B5B" stroke-width="0.2"/>
<path d="M57.4 39.4H49.1" stroke="#5B5B5B" stroke-width="0.2"/>
<path d="M58.9 39.4H60.9" stroke="#5B5B5B" stroke-width="0.2"/>
<path d="M43.2 37.7L49.2 38.4" stroke="#5B5B5B" stroke-width="0.2"/>
<path d="M49.4 36.1L43.4 35.4" stroke="#5B5B5B" stroke-width="0.2"/>
<path d="M32.6 45.5H33.1" stroke="#5B5B5B" stroke-width="0.2"/>
<path d="M31.6 45.5H31.1" stroke="#5B5B5B" stroke-width="0.2"/>
<path d="M46.3 43.2H45.7V47.4" stroke="#5B5B5B" stroke-width="0.2"/>
<path d="M45.7 49.1V49.7H53.7V43.2" stroke="#5B5B5B" stroke-width="0.2"/>
<path d="M53.7 41.8V39.3" stroke="#5B5B5B" stroke-width="0.2"/>
<path d="M50.8 46.5V39.4" stroke="#5B5B5B" stroke-width="0.2"/>
<path d="M47.9 43.2H50.7" stroke="#5B5B5B" stroke-width="0.2"/>
<path d="M118.6 4.00001V3.10001" stroke="#5B5B5B" stroke-width="0.2"/>
<path d="M89 92.7V90.8H101.7V92.7" stroke="#5B5B5B" stroke-width="0.2"/>
<path d="M101.7 95.3V97.2H89V95.3" stroke="#5B5B5B" stroke-width="0.2"/>
<path d="M3.20001 104.7V103.6" stroke="#5B5B5B" stroke-width="0.2"/>
<path d="M8.30002 117.5H9.60002" stroke="#5B5B5B" stroke-width="0.2"/>
<path d="M10.8 117.5H14.8" stroke="#5B5B5B" stroke-width="0.2"/>
<path d="M65.7 9.39999H68.4" stroke="#5B5B5B" stroke-width="0.2"/>
<path d="M69.4 9.39999H72.1" stroke="#5B5B5B" stroke-width="0.2"/>
<path d="M85.8 9.39999H88.6" stroke="#5B5B5B" stroke-width="0.2"/>
<path d="M89.6 9.39999H92.3" stroke="#5B5B5B" stroke-width="0.2"/>
<path d="M93.3 9.39999H96" stroke="#5B5B5B" stroke-width="0.2"/>
<path d="M3.50001 45.7L1.20001 45.8L1.10001 43.2L7.10001 43L7.20001 45.6L4.60001 45.7" stroke="#5B5B5B" stroke-width="0.2"/>
<path d="M56.6 111.8H58" stroke="#5B5B5B" stroke-width="0.2"/>
<path d="M59.1 111.8H63" stroke="#5B5B5B" stroke-width="0.2"/>
<path d="M54.5 81.1C54.5 82 54.1 82.9 53.5 83.6C52.9 84.3 51.9 84.6 51 84.6C50.1 84.6 49.2 84.2 48.5 83.6C47.8 83 47.5 82 47.5 81.1C47.5 80.2 47.9 79.3 48.5 78.6C49.1 77.9 50.1 77.6 51 77.6C51.9 77.6 52.8 78 53.5 78.6C54.2 79.2 54.5 80.1 54.5 81.1Z" fill="#A9C1C4"/>
<path d="M54.5 59C54.5 59.9 54.1 60.8 53.5 61.5C52.9 62.2 51.9 62.5 51 62.5C50.1 62.5 49.2 62.1 48.5 61.5C47.8 60.9 47.5 59.9 47.5 59C47.5 58.1 47.9 57.2 48.5 56.5C49.2 55.8 50.1 55.5 51 55.5C51.9 55.5 52.8 55.9 53.5 56.5C54.2 57.1 54.5 58 54.5 59Z" fill="#A9C1C4"/>
<path d="M54.5 69.7C54.5 70.6 54.1 71.5 53.5 72.2C52.9 72.9 51.9 73.2 51 73.2C50.1 73.2 49.2 72.8 48.5 72.2C47.8 71.6 47.5 70.6 47.5 69.7C47.5 68.8 47.9 67.9 48.5 67.2C49.1 66.5 50.1 66.2 51 66.2C51.9 66.2 52.8 66.6 53.5 67.2C54.2 67.8 54.5 68.8 54.5 69.7Z" fill="#A9C1C4"/>
<path d="M64.2 59C64.2 59.8 63.9 60.5 63.4 61C62.9 61.5 62.1 61.8 61.4 61.8C60.6 61.8 59.9 61.5 59.4 61C58.9 60.5 58.6 59.7 58.6 59C58.6 58.2 58.9 57.5 59.4 57C59.9 56.5 60.7 56.2 61.4 56.2C62.2 56.2 62.9 56.5 63.4 57C63.9 57.5 64.2 58.2 64.2 59Z" fill="#A9C1C4"/>
<path d="M64.2 81.1C64.2 81.9 63.9 82.6 63.4 83.1C62.9 83.6 62.1 83.9 61.4 83.9C60.6 83.9 59.9 83.6 59.4 83.1C58.9 82.6 58.6 81.8 58.6 81.1C58.6 80.4 58.9 79.6 59.4 79.1C59.9 78.6 60.7 78.3 61.4 78.3C62.2 78.3 62.9 78.6 63.4 79.1C63.9 79.6 64.2 80.3 64.2 81.1Z" fill="#A9C1C4"/>
<path d="M64.2 69.7C64.2 70.5 63.9 71.2 63.4 71.7C62.9 72.2 62.1 72.5 61.4 72.5C60.6 72.5 59.9 72.2 59.4 71.7C58.9 71.2 58.6 70.4 58.6 69.7C58.6 68.9 58.9 68.2 59.4 67.7C59.9 67.2 60.7 66.9 61.4 66.9C62.2 66.9 62.9 67.2 63.4 67.7C63.9 68.2 64.2 68.9 64.2 69.7Z" fill="#A9C1C4"/>
<path d="M76.7 13.9V15.8H75.8V18.6H76.7V20.4H83.8V18.6H89.5V15.8H83.8V13.9H76.7Z" fill="#A9C1C4"/>
</g>
<defs>
<clipPath id="clip0_8_106">
<rect width="130.8" height="141.2" fill="white"/>
</clipPath>
</defs>
</svg>
