<svg width="349" height="489" viewBox="0 0 349 489" fill="none" xmlns="http://www.w3.org/2000/svg">
<g clip-path="url(#clip0_2_6899)">
<path d="M74.7 12.0999V62.2999H57.6V66.2999H17.5V172.8L19.9 174.3L17.9 179H13.8V206.9H17.2V269.2H61.9001V257H72V242.3H85.3V217.4H106.4V238.4H112.9V326.3H105.1L102.7 330.7V335.7H95V376.5L102.2 402.1L125.7 438.6L139.6 445.1H193.9V449.8L206.8 453.9V460.6H211.8L220.1 465.8H273.2V435.7H285.2V398L253.2 393.5L229.1 381.8V355H198.3V339.4H191V304.7H203.4V292.6H247V264.4H271.5V242.5H291.8V230.5H272.7V189H283.7V176.7H298.7V173.6H317V135.6H283.8V58.5999H226.2V33.2999H216.6V12.0999H74.7Z" fill="#B0D2ED"/>
<path d="M74.7 12.0999V62.2999H57.6V66.2999H17.5V172.8L19.9 174.3L17.9 179H13.8V206.9H17.2V269.2H61.9001V257H72V242.3H85.3V217.4H106.4V238.4H112.9V326.3H105.1L102.7 330.7V335.7H95V376.5L102.2 402.1L125.7 438.6L139.6 445.1H193.9V449.8L206.8 453.9V460.6H211.8L220.1 465.8H273.2V435.7H285.2V398L253.2 393.5L229.1 381.8V355H198.3V339.4H191V304.7H203.4V292.6H247V264.4H271.5V242.5H291.8V230.5H272.7V189H283.7V176.7H298.7V173.6H317V135.6H283.8V58.5999H226.2V33.2999H216.6V12.0999H74.7Z" fill="#F9EEE1"/>
<path d="M310.4 8.8999V31.3999L310.3 32.1999L310 32.9999L309.5 33.6999L308.8 34.2999L308 34.5999H222.1L214.8 35.0999L208.5 36.1999L201.2 38.3999L194 41.5999L187.8 45.3999L182.4 49.4999L176.9 54.6999L171.6 60.8999L168.6 65.6999L168.3 65.9999L167.8 66.2999L166.9 66.4999H154.5V43.7999H148.2V66.6999H147.4V36.8999L145.7 36.3999L144 35.5999L142.3 34.5999L141 33.2999H86.2L84.8 34.9999L83.6 35.9999L82.2 36.8999L80 37.4999H77.9V59.9999H135.4V73.8999L135.8 74.8999L136.6 75.7999L137.8 76.1999H160.9L162.1 76.6999L163 77.4999L163.6 78.6999L163.7 79.4999L163.5 80.2999L162.5 86.1999L161.7 93.3999L161.4 97.1999L161.2 104.1L161.1 110.9V173.9L160.6 175.1L160.2 175.8L159.5 176.3L158.8 176.6L158 176.7H156.3V176.9H142.9V184H78.3V182.5H141.1V178.9H42.7L41.5 178.8L40.6 178.5L39.8 178L39.3 177.3L39 176.6L38.9 175.9V121.1L43.7 117.7V97.6999L39 94.6999V65.2999L39.1 64.5999L39.4 63.7999L39.9 63.0999L40.6 62.5999L41.4 62.2999L42.1 62.1999H63.9V49.0999H60.9V26.9999H49.1V48.9999H41.8L41.1 48.8999L40.3 48.4999L39.8 47.9999L39.4 47.2999L39.2 46.5999L39 45.9999V15.9999H33V177.5H27.9V125.4L25.1 114.3V84.0999L28 64.8999V15.8999H22V176.1L21.7 177L21.2 177.8L20.5 178.3L19.6 178.7L18.7 178.8H0V201H18.8L19.6 201.1L20.5 201.4L21.3 202.1L21.8 203L22 203.9V313.2L21.9 314L21.6 314.7L21.1 315.4L20.4 315.9L19.6 316.2L18.7 316.3H8.7V321.3H18.8L19.8 321.4L20.6 321.7L21.3 322.2L21.7 322.8L22 323.5V323.6V414.3H27.9V202.5H33V224.7L35.9 236V265.8L33 285.5V414.6H39V370.2L39.4 368.7L40.5 367.5L42.2 367.1H88.9V353.8H42.3L40.6 353.4L39.5 352.2L39.1 350.5V289.2L43.8 286.4V266.3L39 263V204.3L39.2 203.3L39.7 202.3L40.5 201.6L41.4 201.2L42.3 201.1H141V197.5H78.2V195.9H142.7V202.9H156.1V203.2H158.1L159.3 203.4L160.2 204L160.7 204.8L161 205.9V352.6L160.7 353.8L160.1 354.7L159.4 355.2L158.3 355.5H145L143.9 355.3L143 354.7L142.5 353.8L142.3 352.5V338.7H99.3V367H142.4V365.3L142.6 364.2L143.3 363.2L144.3 362.5L145.5 362.2H158.2L159.4 362.5L160.4 363.2L161.1 364.3L161.9 373.2L163 380.6L163.7 383.6L165.1 388.5L167.6 394.6L170.3 399.2L173.7 403.7L177.7 408.1L182.4 412.5L187.6 416.5L193.8 420.3L200.7 423.5L202.8 424.5L203.8 425.3L204.4 426.4L204.6 427.6V484.4H217.8V431L218.1 429.6L218.8 428.6L219.8 427.9L220.9 427.6H307.4L308.6 427.9L309.6 428.6L310.2 429.5L310.4 430.7V475.4H319.6V396.5L344.7 363L337.4 357.5L310.3 393.6V411.4L310.2 412.2L310 412.9L309.5 413.7L308.7 414.2L307.9 414.5L307.1 414.6H264.2L263.5 414.5L263 414L262.6 413.4L262.5 412.6L266.5 395.4L255.9 393.9L253.3 412.2L253.1 413L252.8 413.5L252.4 413.9L251.8 414.3L251 414.5H220.7L218.6 414.4L214.5 414L210.4 413.2L206.3 411.8L202.4 410.2L198.7 408.1L194.2 405.2L190.2 401.8L186 398L182.1 393.4L181.2 391.9L181.1 391.7L181.2 391.5L181.8 391.6L184.3 392.5L186.7 393.3L189.1 393.9L191.6 394.3L194.2 394.7L196.2 394.8H197.6V395.4H220.6V388.3H197.6V388.9H197L192.7 388.6L190 388L187.5 387.4L184.1 386.2L181.6 385L178.9 383.2L176.7 381.1L176.5 380.4L175.5 376L174.9 371.5L174.5 366.8L174.4 342.5V244L174.8 243.3L175.3 242.6L176 242.1L176.9 241.8L177.8 241.7H290.5C291 241.8 291.7 241.8 291.7 241.8L292.6 242.2L293.3 242.9L293.8 243.7L293.9 244.5V248.9H288.2V284H325.1V248.7H312.9V275.8H305.8V248.7H300.6V244L300.9 243.1L301.5 242.4L302.5 241.9L304.4 241.6H331.8V232.4H214.1L213.8 232.2L213.6 231.8V228.7L213 227.5L211.5 226.2L209.7 224.9L204.4 221.6L201.5 219.3L198.5 216.1L196.6 213.4L195.5 210.8L194.8 208.3L194.6 204.6L195.1 199.7L196.3 195L198.7 187.5L200.1 181.1L200.4 174.7L200.3 168.3L200.1 163.5H179.3V198H182.8V206.7H179.5L181.1 212.6L182.7 216.2L184.8 219.3L188.2 222.6L191.9 224.8L195.5 226.2L200.5 227.6H202L202.5 228L204.1 231.4L203.8 232.1L203.4 232.4H191.8L189.8 232.1L187.5 231.3L184.9 230.1L182.3 228.4L179.9 226.4L177.5 223.5L175.8 220.5L174.8 217.2L174.3 213.1V96.9999L174.5 91.9999L174.8 88.9999L175.3 88.3999H175.7L176 88.5999L179.2 93.4999V149.4H200.3V144.9L200.1 138.5L199.8 132.1L199.3 125.7L198.2 119.2L196.4 111.9L193.6 104.9L190.9 99.8999L186.8 93.4999L183.9 88.3999L181.2 82.0999L178.2 74.7999L179.7 71.4999L181.4 68.7999L183.9 65.6999L187.7 61.7999L191.4 58.4999L192.3 57.8999H192.9L210.8 70.6999L216.2 64.0999L205 56.1999L203.2 54.5999L201.7 53.3999L201.5 52.7999L201.7 52.2999L203.5 51.3999L208.3 49.6999L212.1 48.6999L217.4 47.9999L221.3 47.6999H304.6L305.5 47.7999L306.3 48.0999L306.9 48.4999L307.4 49.1999L308 49.9999L308.1 50.7999L308.3 58.1999L308.6 65.4999L308.9 68.3999L309.9 72.0999L311.1 74.8999L312.8 77.7999L314.5 80.0999L316.5 82.2999L319.1 84.3999L321.8 86.1999L325.2 87.7999L328.8 88.7999L332.7 89.3999H349.2V80.3999H341.6L335.8 80.0999L330.9 79.2999L327 77.6999L324 75.4999L321.8 71.8999L320.5 66.4999L320 58.3999V8.8999H310.4ZM232.3 39.2999H285.1V43.1999H232.3V39.2999ZM84.4 46.7999H99.6V49.3999H84.4V46.7999ZM104.7 46.7999H119.7V49.3999H104.7V46.7999ZM124.8 46.7999H140V49.3999H124.8V46.7999ZM165.9 254.7H169.8V307.6H165.9V254.7ZM105.2 351.2H136V353.8H105.2V351.2Z" fill="#BABABA" stroke="#5B5B5B" stroke-width="0.5" stroke-miterlimit="10"/>
<path d="M44.5 205.7H66.5V210.7L44.5 216.2V205.7Z" fill="#CDDDAF" stroke="#556043" stroke-width="0.3" stroke-miterlimit="10"/>
<path d="M50.5 227.7V232.4L61.2 235V227.7H50.5Z" fill="#CDDDAF" stroke="#556043" stroke-width="0.3" stroke-miterlimit="10"/>
<path d="M61.2 217.3L50.5 219.9V224.7H61.2V217.3Z" fill="#CDDDAF" stroke="#556043" stroke-width="0.3" stroke-miterlimit="10"/>
<path d="M66.5 241.7V246.7H44.5V236.2L66.5 241.7Z" fill="#CDDDAF" stroke="#556043" stroke-width="0.3" stroke-miterlimit="10"/>
<path d="M45.3 306.7V312.6H52.9001V308.6L45.3 306.7Z" fill="#CDDDAF" stroke="#556043" stroke-width="0.3" stroke-miterlimit="10"/>
<path d="M65.7001 306.7L58.1001 308.6V312.6H65.7001V306.7Z" fill="#CDDDAF" stroke="#556043" stroke-width="0.3" stroke-miterlimit="10"/>
<path d="M58.1001 292.9V296.9L65.7001 298.8V292.9H58.1001Z" fill="#CDDDAF" stroke="#556043" stroke-width="0.3" stroke-miterlimit="10"/>
<path d="M45.3 292.9V298.8L52.9001 296.9V293H45.3V292.9Z" fill="#CDDDAF" stroke="#556043" stroke-width="0.3" stroke-miterlimit="10"/>
<path d="M45.3 328.3V319.4H65V323.4L45.3 328.3Z" fill="#CDDDAF" stroke="#556043" stroke-width="0.3" stroke-miterlimit="10"/>
<path d="M46 332.1V336.1H65.7V327.1L46 332.1Z" fill="#CDDDAF" stroke="#556043" stroke-width="0.3" stroke-miterlimit="10"/>
<path d="M71.1001 328.7V336.1H81.7001V331.3L71.1001 328.7Z" fill="#CDDDAF" stroke="#556043" stroke-width="0.3" stroke-miterlimit="10"/>
<path d="M71.1001 324.2V319.5H81.7001V326.9L71.1001 324.2Z" fill="#CDDDAF" stroke="#556043" stroke-width="0.3" stroke-miterlimit="10"/>
<path d="M88.1001 312.9V322.8L91.2001 321.9V313.7L88.1001 312.9Z" fill="#CDDDAF" stroke="#556043" stroke-width="0.3" stroke-miterlimit="10"/>
<path d="M88.3 330.3V336.8H94.8L94 333.7H91.4V331.2L88.3 330.3Z" fill="#CDDDAF" stroke="#556043" stroke-width="0.3" stroke-miterlimit="10"/>
<path d="M108.3 369.4V372.8L118.2 370.3V369.4H108.3Z" fill="#CDDDAF" stroke="#556043" stroke-width="0.3" stroke-miterlimit="10"/>
<path d="M98.3999 369.4V375.3L106 373.4V369.5H98.3999V369.4Z" fill="#CDDDAF" stroke="#556043" stroke-width="0.3" stroke-miterlimit="10"/>
<path d="M144.1 369.4V373.4L151.7 375.3V369.4H144.1Z" fill="#CDDDAF" stroke="#556043" stroke-width="0.3" stroke-miterlimit="10"/>
<path d="M132 369.4V370.3L141.9 372.8V369.4H132Z" fill="#CDDDAF" stroke="#556043" stroke-width="0.3" stroke-miterlimit="10"/>
<path d="M137.8 333.6V335.6H144.8V333.6H137.8Z" fill="#CDDDAF" stroke="#556043" stroke-width="0.3" stroke-miterlimit="10"/>
<path d="M126.4 333.6V335.6H133.5V333.6H126.4Z" fill="#CDDDAF" stroke="#556043" stroke-width="0.3" stroke-miterlimit="10"/>
<path d="M114.6 333.6V335.6H121.6V333.6H114.6Z" fill="#CDDDAF" stroke="#556043" stroke-width="0.3" stroke-miterlimit="10"/>
<path d="M103.2 333.6V335.6H110.2V333.6H103.2Z" fill="#CDDDAF" stroke="#556043" stroke-width="0.3" stroke-miterlimit="10"/>
<path d="M150.8 335.7H157.8V326H155.8V330H152.9V328.7H150.9V335.7H150.8Z" fill="#CDDDAF" stroke="#556043" stroke-width="0.3" stroke-miterlimit="10"/>
<path d="M150.8 312.8V314.8H155.8V317.3H157.8V310.3H155.8V312.8H150.8Z" fill="#CDDDAF" stroke="#556043" stroke-width="0.3" stroke-miterlimit="10"/>
<path d="M153.1 299.2H155.9V301.4H158V294.3H153.2V299.2H153.1Z" fill="#CDDDAF" stroke="#556043" stroke-width="0.3" stroke-miterlimit="10"/>
<path d="M150.9 203.4H149.5V204.8H150.9V203.4Z" fill="#CDDDAF" stroke="#556043" stroke-width="0.3" stroke-miterlimit="10"/>
<path d="M146.4 203.2H139.4V204.7H146.4V203.2Z" fill="#CDDDAF" stroke="#556043" stroke-width="0.3" stroke-miterlimit="10"/>
<path d="M134.8 203.4H136.2V204.8H134.8V203.4Z" fill="#CDDDAF" stroke="#556043" stroke-width="0.3" stroke-miterlimit="10"/>
<path d="M127.6 203.4H129V204.8H127.6V203.4Z" fill="#CDDDAF" stroke="#556043" stroke-width="0.3" stroke-miterlimit="10"/>
<path d="M122.4 203.2V204.7H112.4V203.2H122.4Z" fill="#CDDDAF" stroke="#556043" stroke-width="0.3" stroke-miterlimit="10"/>
<path d="M107.6 203.4H109V204.8H107.6V203.4Z" fill="#CDDDAF" stroke="#556043" stroke-width="0.3" stroke-miterlimit="10"/>
<path d="M94.3 203.2H104.3V204.7H94.3V203.2Z" fill="#CDDDAF" stroke="#556043" stroke-width="0.3" stroke-miterlimit="10"/>
<path d="M88.6001 203.4H90.0001V204.8H88.6001V203.4Z" fill="#CDDDAF" stroke="#556043" stroke-width="0.3" stroke-miterlimit="10"/>
<path d="M80 203.4H81.4V204.8H80V203.4Z" fill="#CDDDAF" stroke="#556043" stroke-width="0.3" stroke-miterlimit="10"/>
<path d="M71.3 203.1H75.3V204.6H71.3V203.1Z" fill="#CDDDAF" stroke="#556043" stroke-width="0.3" stroke-miterlimit="10"/>
<path d="M160.7 364.1H159.9V386.3L160.1 388.1L160.7 390L161.7 391.7L163 393.2L164.6 394.4L166.4 395.2L167.8 395.5L166.6 392.8L165.1 389L164.1 385.8L163.1 382L162.5 378.4L161.8 373.7L161 364.3L160.7 364.1Z" fill="#CDDDAF" stroke="#556043" stroke-width="0.3" stroke-miterlimit="10"/>
<path d="M164 403.8L166.8 404.6V411.3L161.7 409.9L164 403.8Z" fill="#CDDDAF" stroke="#556043" stroke-width="0.3" stroke-miterlimit="10"/>
<path d="M168.7 428.5V421.4L168.9 420.8L169.3 420.4L169.8 420.2H170.1L170.6 420.4L171 420.8L171.2 421.4V428.5L171 429L170.6 429.4L170 429.6H169.7L169.1 429.4L168.7 429V428.5Z" fill="#CDDDAF" stroke="#556043" stroke-width="0.3" stroke-miterlimit="10"/>
<path d="M176.9 433.5V426.4L177.1 425.8L177.5 425.4L178 425.2H178.3L178.8 425.4L179.2 425.8L179.4 426.4V433.5L179.2 434L178.8 434.4L178.2 434.6H178L177.4 434.4L177 434L176.9 433.5Z" fill="#CDDDAF" stroke="#556043" stroke-width="0.3" stroke-miterlimit="10"/>
<path d="M185.1 428.5V421.4L185.3 420.8L185.7 420.4L186.2 420.2H186.5L187 420.4L187.4 420.8L187.6 421.4V428.5L187.4 429L187 429.4L186.4 429.6H186.1L185.5 429.4L185.1 429V428.5Z" fill="#CDDDAF" stroke="#556043" stroke-width="0.3" stroke-miterlimit="10"/>
<path d="M197.3 449.3V442.2L197.5 441.6L197.9 441.2L198.4 441H198.7L199.2 441.2L199.6 441.6L199.8 442.2V449.3L199.6 449.8L199.2 450.2L198.6 450.4H198.3L197.7 450.2L197.3 449.8V449.3Z" fill="#CDDDAF" stroke="#556043" stroke-width="0.3" stroke-miterlimit="10"/>
<path d="M189.2 438.9H196.3L196.9 439.1L197.3 439.5L197.5 440V440.3L197.3 440.8L196.9 441.2L196.3 441.4H189.2L188.7 441.2L188.3 440.8L188.1 440.2V440L188.3 439.4L188.7 439L189.2 438.9Z" fill="#CDDDAF" stroke="#556043" stroke-width="0.3" stroke-miterlimit="10"/>
<path d="M203 438.1H204.2V453.3H203V438.1Z" fill="#CDDDAF" stroke="#556043" stroke-width="0.3" stroke-miterlimit="10"/>
<path d="M193.1 420.4V426.2L193.3 427.4L193.9 428.3L194.9 428.9L195.9 429.1H204.5V427.7L204.3 426.6L203.6 425.5L202.7 424.8C202.7 424.8 197 422.3 196.9 422.3C196.8 422.3 193.1 420.4 193.1 420.4Z" fill="#CDDDAF" stroke="#556043" stroke-width="0.3" stroke-miterlimit="10"/>
<path d="M233.3 428.4H241.1V429.5L237.2 430.5L233.3 429.5V428.4Z" fill="#CDDDAF" stroke="#556043" stroke-width="0.3" stroke-miterlimit="10"/>
<path d="M267.4 428.4H275.2V429.5L271.3 430.5L267.4 429.5V428.4Z" fill="#CDDDAF" stroke="#556043" stroke-width="0.3" stroke-miterlimit="10"/>
<path d="M289 428.4H296.8V429.5L292.9 430.5L289 429.5V428.4Z" fill="#CDDDAF" stroke="#556043" stroke-width="0.3" stroke-miterlimit="10"/>
<path d="M218.7 459.2V451.4H219.8L220.8 455.3L219.8 459.2H218.7Z" fill="#CDDDAF" stroke="#556043" stroke-width="0.3" stroke-miterlimit="10"/>
<path d="M299.4 413.1H292.4V411H299.4V413.1Z" fill="#CDDDAF" stroke="#556043" stroke-width="0.3" stroke-miterlimit="10"/>
<path d="M279.9 409.2H282.6V405.4H284.6V409.2H284.7V414H277.6V412H279.9V409.2Z" fill="#CDDDAF" stroke="#556043" stroke-width="0.3" stroke-miterlimit="10"/>
<path d="M282.6 400H287.4V395.1H282.6V400Z" fill="#CDDDAF" stroke="#556043" stroke-width="0.3" stroke-miterlimit="10"/>
<path d="M236.3 407.6H244.9V405.4H241.1V402.7H238.4V400.5H236.3V407.6Z" fill="#CDDDAF" stroke="#556043" stroke-width="0.3" stroke-miterlimit="10"/>
<path d="M215.3 405.4V395.9H199.4V397.1H214V405.4H215.3Z" fill="#CDDDAF" stroke="#556043" stroke-width="0.3" stroke-miterlimit="10"/>
<path d="M197.5 384.4H220V387.7H197.5V384.4Z" fill="#CDDDAF" stroke="#556043" stroke-width="0.3" stroke-miterlimit="10"/>
<path d="M197.5 374.2H219.1V375.4H197.5V374.2Z" fill="#CDDDAF" stroke="#556043" stroke-width="0.3" stroke-miterlimit="10"/>
<path d="M208.6 368.2H223.8V369.6H208.6V368.2Z" fill="#CDDDAF" stroke="#556043" stroke-width="0.3" stroke-miterlimit="10"/>
<path d="M178.1 368.2H197.5V369.6H178.1V368.2Z" fill="#CDDDAF" stroke="#556043" stroke-width="0.3" stroke-miterlimit="10"/>
<path d="M182.6 370.1H189.2V376.7H182.6V370.1Z" fill="#CDDDAF" stroke="#556043" stroke-width="0.3" stroke-miterlimit="10"/>
<path d="M178.3 358.5V340.7H179.6V358.5H178.3Z" fill="#CDDDAF" stroke="#556043" stroke-width="0.3" stroke-miterlimit="10"/>
<path d="M178.3 324.9V307.2H179.7V324.9H178.3Z" fill="#CDDDAF" stroke="#556043" stroke-width="0.3" stroke-miterlimit="10"/>
<path d="M178.3 299.2V290.7H179.7V299.2H178.3Z" fill="#CDDDAF" stroke="#556043" stroke-width="0.3" stroke-miterlimit="10"/>
<path d="M178.3 282.1V273.7H179.7V282.1H178.3Z" fill="#CDDDAF" stroke="#556043" stroke-width="0.3" stroke-miterlimit="10"/>
<path d="M178.3 257.8V249.4H179.7V257.8H178.3Z" fill="#CDDDAF" stroke="#556043" stroke-width="0.3" stroke-miterlimit="10"/>
<path d="M182.1 245.5H190.5V246.9H182.1V245.5Z" fill="#CDDDAF" stroke="#556043" stroke-width="0.3" stroke-miterlimit="10"/>
<path d="M196.8 245.5H223.4V247H196.8V245.5Z" fill="#CDDDAF" stroke="#556043" stroke-width="0.3" stroke-miterlimit="10"/>
<path d="M234.2 245.5H261.2V246.9H234.2V245.5Z" fill="#CDDDAF" stroke="#556043" stroke-width="0.3" stroke-miterlimit="10"/>
<path d="M270.8 245.4H279.2V258H277.4V246.9H270.8V245.4Z" fill="#CDDDAF" stroke="#556043" stroke-width="0.3" stroke-miterlimit="10"/>
<path d="M279.1 267.7V280.3H277.4V267.7H279.1Z" fill="#CDDDAF" stroke="#556043" stroke-width="0.3" stroke-miterlimit="10"/>
<path d="M284.7 284.6H293.5V286.4H284.7V284.6Z" fill="#CDDDAF" stroke="#556043" stroke-width="0.3" stroke-miterlimit="10"/>
<path d="M298 284.6H315.9V286.4H298V284.6Z" fill="#CDDDAF" stroke="#556043" stroke-width="0.3" stroke-miterlimit="10"/>
<path d="M319.9 284.6H328.7V286.3H319.9V284.6Z" fill="#CDDDAF" stroke="#556043" stroke-width="0.3" stroke-miterlimit="10"/>
<path d="M325.3 278.8H328.9V248.7H325.3V278.8Z" fill="#CDDDAF" stroke="#556043" stroke-width="0.3" stroke-miterlimit="10"/>
<path d="M312.7 248.7V275.6H309.5V248.7H312.7Z" fill="#CDDDAF" stroke="#556043" stroke-width="0.3" stroke-miterlimit="10"/>
<path d="M284.4 248.8H288V278.9H284.4V248.8Z" fill="#CDDDAF" stroke="#556043" stroke-width="0.3" stroke-miterlimit="10"/>
<path d="M334.6 228.2H341.6V226.2H334.6V228.2Z" fill="#CDDDAF" stroke="#556043" stroke-width="0.3" stroke-miterlimit="10"/>
<path d="M323.8 228.4H330.8V226.4H323.8V228.4Z" fill="#CDDDAF" stroke="#556043" stroke-width="0.3" stroke-miterlimit="10"/>
<path d="M314 228.3H321V226.3H314V228.3Z" fill="#CDDDAF" stroke="#556043" stroke-width="0.3" stroke-miterlimit="10"/>
<path d="M291.5 228.4H298.5V226.4H291.5V228.4Z" fill="#CDDDAF" stroke="#556043" stroke-width="0.3" stroke-miterlimit="10"/>
<path d="M276.9 228.3H283.9V226.3H276.9V228.3Z" fill="#CDDDAF" stroke="#556043" stroke-width="0.3" stroke-miterlimit="10"/>
<path d="M258 221.7V228.5H245.5V221.7H258Z" fill="#CDDDAF" stroke="#556043" stroke-width="0.3" stroke-miterlimit="10"/>
<path d="M234.7 221.6V228.4H230.5L226.9 228L222.9 226.9L217.7 225L212.9 222.7L209.4 220.8L205.4 218.2L202.9 215.9L200.5 213.2L206.4 209.9L208.3 212.1L211 214.4L214.7 216.9L218.2 218.7L222.7 220.2L226.2 220.9L230 221.3L234.7 221.6Z" fill="#CDDDAF" stroke="#556043" stroke-width="0.3" stroke-miterlimit="10"/>
<path d="M204.6 207.1L198.8 210.5L198.2 209L197.8 206.8V203.6L198.1 200.5L198.9 197.3L200.6 192.1L202 187.5L202.6 185.1L203 182.7L203.4 179.5L203.6 173.8L203.5 168.7L203.7 173.7L204 175L204.7 176.1L205.6 176.8L206.7 177.2L207.9 177.3L209.1 177L210.3 176.3L211.2 175.3L211.7 173.9L211.8 172.5V167.1L212 174.8V177.1L211.8 178.8L211.2 180.5L207 191L205.4 195.2L204.6 197.7L204.1 199.8L203.9 202.7L204 204.8L204.6 207.1Z" fill="#CDDDAF" stroke="#556043" stroke-width="0.3" stroke-miterlimit="10"/>
<path d="M209.1 162.4H206.6V166.2L207.1 173.5L207.2 173.9L207.6 174.1H207.9L208.3 174L208.6 173.8L208.8 173.3L209.2 166.8L209.1 162.4Z" fill="#CDDDAF" stroke="#556043" stroke-width="0.3" stroke-miterlimit="10"/>
<path d="M212.2 151.1H203.5V147.3L203.4 139.5L203.2 133.1L203 129L202.4 124.4L201.5 119.2L200.8 115.7L200.2 113.4L203.9 112.4L204.6 115.5L205.4 118.3L206.9 122.1L212 134.3L212.2 137.1V151.1Z" fill="#CDDDAF" stroke="#556043" stroke-width="0.3" stroke-miterlimit="10"/>
<path d="M199.2 110.2L196.7 104.3L194.4 99.5998L190.7 93.8998L188.2 89.6998L187.1 87.5998L186.3 85.1998L185.9 83.5998L185.8 82.4998V81.0998L186 79.3998L186.9 76.4998L187.9 74.4998L189.1 72.7998L190.5 71.2998L196.9 75.8998L195.7 78.0998L195 80.2998L194.7 82.8998L195 85.7998L195.8 88.7998L196.8 91.6998L199.1 97.0998L200.5 100.9L202.4 106.2L203.1 108.7L199.2 110.2Z" fill="#CDDDAF" stroke="#556043" stroke-width="0.3" stroke-miterlimit="10"/>
<path d="M198.9 62.3999L205.7 67.1999L204.9 68.3999L198.1 63.5999L198.9 62.3999Z" fill="#CDDDAF" stroke="#556043" stroke-width="0.3" stroke-miterlimit="10"/>
<path d="M221.1 162.2H214.4V172.3L214.5 173.3L214.8 173.7L215.2 173.9L215.6 173.8L216.2 173.4L217.9 171.5L219.1 169.9L220.1 167.9L220.7 166.1L220.9 164.1L221.1 162.2Z" fill="#CDDDAF" stroke="#556043" stroke-width="0.3" stroke-miterlimit="10"/>
<path d="M221.1 150.6H214.4L214.5 140.4L214.7 139.8L215.2 139.5H215.6L216.1 139.8L218.3 142.5L219.6 144.4L220.7 146.9L221.1 148.9V150.6Z" fill="#CDDDAF" stroke="#556043" stroke-width="0.3" stroke-miterlimit="10"/>
<path d="M247.3 215.7V219.2H259.8L261.5 218.5L263.1 217.4L263.7 216.4V215.3L263.3 213.4L262.6 211.3L260.7 209L249.9 201L249.4 200.9L249 201.2L248.5 202.2L247.9 204.3L247.5 208.3V210.9L247.9 211.4L248.6 211.5H251L253.4 211.8L255.4 212.5L256.8 213.4L255.3 216.5L254.2 215.9L252.5 215.5L247.3 215.7Z" fill="#CDDDAF" stroke="#556043" stroke-width="0.3" stroke-miterlimit="10"/>
<path d="M270 225.5C271.105 225.5 272 224.604 272 223.5C272 222.395 271.105 221.5 270 221.5C268.895 221.5 268 222.395 268 223.5C268 224.604 268.895 225.5 270 225.5Z" fill="#CDDDAF" stroke="#556043" stroke-width="0.3" stroke-miterlimit="10"/>
<path d="M279.2 223.6L284.2 222.7L289.1 222.2L293.6 222.1L298 222.5L291.2 218.5L288.6 217.5L286.4 217.4L284.7 218.1L282.1 220.2L279.2 223.6Z" fill="#CDDDAF" stroke="#556043" stroke-width="0.3" stroke-miterlimit="10"/>
<path d="M236.4 212.7H244.2L244.8 212.4L245.1 211.8L245.3 206.8L246 202.3L247 198.3L248 195L248.1 194.2L247.7 193.4L243.8 191.3H243.1L242.5 191.8L238.1 201.6L236.5 206L235.8 209.1L235.7 211.8L236 212.5L236.4 212.7Z" fill="#CDDDAF" stroke="#556043" stroke-width="0.3" stroke-miterlimit="10"/>
<path d="M259.854 194.878C260.343 193.411 259.55 191.825 258.083 191.336C256.616 190.847 255.03 191.64 254.541 193.107C254.052 194.574 254.845 196.16 256.312 196.649C257.779 197.138 259.365 196.345 259.854 194.878Z" fill="#CDDDAF" stroke="#556043" stroke-width="0.3" stroke-miterlimit="10"/>
<path d="M233 215.7L232.8 217.1L232.4 218.1L231.5 218.8L230.2 219.1L228 219L224.4 218.4L219.4 216.9L215.9 215.2L212 212.4L209.2 209.9L207.9 208.3V207.9L208.2 207.7L209.4 207.5H210.6L226.1 207.8L228.7 207.6H229.2L231.5 208.4L232.2 208.8L232.9 209.7L233.2 210.8L233.3 211.8L231.5 212L228.4 212.8L225.5 213.4H223.2L221.2 213.1L219.5 212.6L218.4 216.1L219.9 216.6L222 217L224.4 217.2L227.4 216.9L230.2 216.3L232.4 215.8L233 215.7Z" fill="#CDDDAF" stroke="#556043" stroke-width="0.3" stroke-miterlimit="10"/>
<path d="M212.7 205.2H210.5L209.6 205L208.2 203.9L207.3 202.8L206.5 200.9L206.4 199.8L206.9 197.6L209.1 191.7L213.7 180.5L214.4 179.2L215.6 177.3L215.9 177.2L216.2 177.3L218.6 179L220.1 180.3L220.2 180.6L220 181L218.9 181.6L217.5 182.7L216.5 184.1L216 185.6L215.9 187.2V196.8H215.2L214.9 194.4V192.4L215 190.6L211.1 190.3L211 193.3L211.2 196.8L211.7 200.2L212.5 203.9L212.7 205.2Z" fill="#CDDDAF" stroke="#556043" stroke-width="0.3" stroke-miterlimit="10"/>
<path d="M220.1 205.6L222 205.7H225.6L230.8 205.3L232.6 205L234.2 203.9L235.5 201.8L240.6 190.6L240.7 189.9L240.2 189.2L238.3 187.8L236.1 185.9L232.4 182.2L231.5 181.3L230.7 181.1H229.8L228.7 181.6L227.7 182L226.6 182.2H225.5H223.3L221.5 182.4L219.9 183.2L218.7 184.5L218 186L217.9 188.2V203.2L218.3 204.5L219.1 205.2L220.1 205.6Z" fill="#CDDDAF" stroke="#556043" stroke-width="0.3" stroke-miterlimit="10"/>
<path d="M221.2 179.8L221.4 180.2L221.8 180.3L223 180.2H224.9H226.4L227.4 180L228.4 179.5L228.9 179L229 178.6L228.8 178.4L226.4 178.6L223.2 179L221.7 179.4L221.2 179.7V179.8Z" fill="#CDDDAF" stroke="#556043" stroke-width="0.3" stroke-miterlimit="10"/>
<path d="M218 176.9L219.6 176L221.4 175.4L223.6 175L226.2 174.7L224.9 172.5L224.1 171.7C224.1 171.7 222.8 171 222.7 171C222.6 171 221.9 170.9 221.9 170.9L221.3 171.2L219.8 172.5L217.2 175.7L217.1 176L217.2 176.3L218 176.9Z" fill="#CDDDAF" stroke="#556043" stroke-width="0.3" stroke-miterlimit="10"/>
<path d="M223.4 162.3L223 166.7L223.2 167.8L224 168.7L225.2 169.5L226.4 170.6L228.7 174.5L230.5 174.4L233.5 173.9L235.8 173L237.9 171.7L240.2 169.2L239.5 166.7L239.2 164.3V162.4H238.5L238.3 164.2L237.7 165.6L236.8 167L235.8 168L234.3 169L232.9 169.6L231.2 169.8L229.4 169.6L227.6 169L226.3 168.2L225 166.9L224 165.4L223.5 163.9L223.4 162.3Z" fill="#CDDDAF" stroke="#556043" stroke-width="0.3" stroke-miterlimit="10"/>
<path d="M231.9 178.6L234.2 181.1L237 183.9L239.6 186.2L241.1 187.2H241.7L242.2 186.8L243.4 184.5L245.3 180.6L245.4 179.8L245.2 179.1L244.2 178.1L243.2 176.6L241.8 173.9L241.5 173.7L241.1 173.8L239.8 175.2L237.2 176.6L234.5 177.6L232 178.1L231.6 178.3L231.9 178.6Z" fill="#CDDDAF" stroke="#556043" stroke-width="0.3" stroke-miterlimit="10"/>
<path d="M247.5 181.1L244.2 187.8L244.1 188.5L244.4 189.2L247.7 191.2H248.4L248.8 190.9L250.9 181.9L250.8 181.5L250.4 181.2L248.1 180.8L247.7 180.9L247.5 181.1Z" fill="#CDDDAF" stroke="#556043" stroke-width="0.3" stroke-miterlimit="10"/>
<path d="M249.4 178.7L251.1 179L251.7 178.8L252.1 178.3L253 174.1L253.4 171.3L253.6 167.1V165.3L253.3 164.7L252.7 164.6L252.4 165.2L251.8 169.4L251.1 172.7L250.2 175.8L249.2 178V178.4L249.4 178.7Z" fill="#CDDDAF" stroke="#556043" stroke-width="0.3" stroke-miterlimit="10"/>
<path d="M247.1 177L248.4 173.8L249.1 170.9L249.6 167.7V164.6L249.4 162.2H247.6L247.1 164.5L246 167.2L244.7 169.5L243.5 171.3L243.4 171.7L243.8 172.6L244.9 175.1L245.7 176.4L246.3 177.1L246.8 177.2L247.1 177Z" fill="#CDDDAF" stroke="#556043" stroke-width="0.3" stroke-miterlimit="10"/>
<path d="M243.7 162.2H241.3L241.4 164.2L241.7 165.9L241.9 166.2L242.2 166.1L243.2 164.1L243.7 162.2Z" fill="#CDDDAF" stroke="#556043" stroke-width="0.3" stroke-miterlimit="10"/>
<path d="M241.9 155.3H248.9V157.4H241.9V155.3Z" fill="#CDDDAF" stroke="#556043" stroke-width="0.3" stroke-miterlimit="10"/>
<path d="M223.3 150.5L223.1 148.4L222.7 146.8L222.8 145.9L223.2 145.2L224.3 144.4L225.6 143.3L226.7 141.9L228.4 139.2L229.5 137.6L230 137L230.7 136.8L231.5 137L239.5 145.3L239.8 145.7V146.3L239.1 150.6H238.4V149.3L238.1 147.9L237.4 146.4L236.5 145.3L235.2 144.4L233.9 143.8L232.2 143.3L230.8 143.2L229.2 143.3L227.8 143.8L226.6 144.5L225.5 145.4L224.6 146.6L223.9 147.7L223.5 149.3L223.3 150.5Z" fill="#CDDDAF" stroke="#556043" stroke-width="0.3" stroke-miterlimit="10"/>
<path d="M215.3 155.3H222.3V157.4H215.3V155.3Z" fill="#CDDDAF" stroke="#556043" stroke-width="0.3" stroke-miterlimit="10"/>
<path d="M240.6 144L240.8 143.4L238 140.3L232.3 134.5L231.8 135L240.6 144Z" fill="#CDDDAF" stroke="#556043" stroke-width="0.3" stroke-miterlimit="10"/>
<path d="M230.3 133.5L230.8 133.1L225.8 128L222 123.7L220.3 121.3L218.6 118.3L217.3 120.3L230.3 133.5Z" fill="#CDDDAF" stroke="#556043" stroke-width="0.3" stroke-miterlimit="10"/>
<path d="M223.5 142.4L224.3 141.6L227 137.4L228.6 135.3L228.8 134.6L228.4 133.8L216.6 121.9L215.2 124.3L214 127.1L212.9 130.1L212.8 130.7L213.1 131.8L213.7 133.1L216.7 137.3L219.5 140.7L220.4 142.1L221.4 142.8L222.5 142.9L223.5 142.4Z" fill="#CDDDAF" stroke="#556043" stroke-width="0.3" stroke-miterlimit="10"/>
<path d="M211.5 127.5L212.8 124.4L214.3 121.4L216.2 118.3L217.8 116L217.3 113.4L217 110.5V108H211L209.7 108.3L208.2 109.4L207.2 110.9L206.7 112.5V114.3L207.9 117.9L211.5 127.5Z" fill="#CDDDAF" stroke="#556043" stroke-width="0.3" stroke-miterlimit="10"/>
<path d="M220.8 108.1V110.1L221.1 112.2L223.3 110L225.8 108L220.8 108.1Z" fill="#CDDDAF" stroke="#556043" stroke-width="0.3" stroke-miterlimit="10"/>
<path d="M221.4 115L221.7 116.2L222.6 118L224.1 120.3L226.5 123.1L233.2 130.1L236.2 127L238.6 125L240.7 123.5L235.4 111.8L233.9 110.1L232.5 109L231.7 108.7L230.2 108.8L228.2 109.3L226.3 110.5L223.5 112.8L221.4 115Z" fill="#CDDDAF" stroke="#556043" stroke-width="0.3" stroke-miterlimit="10"/>
<path d="M235 131.7L240.1 137L242.3 139.4L243.6 136.4L244.5 134.6L245 134L245.1 133.6L244.1 130.2L241.9 125.6L239.7 127.2L236.6 130.2L235 131.7Z" fill="#CDDDAF" stroke="#556043" stroke-width="0.3" stroke-miterlimit="10"/>
<path d="M244.4 141.8L245.7 143.7L247.1 146.6L247.6 150.5H249.2L249.5 148V145.9L249.2 143.5L248.6 140.8L247.7 138.1L247 136.5L246.6 136.3L246.2 136.5L245.2 137.9L244.4 139.5L243.9 140.8V141.4L244.4 141.8Z" fill="#CDDDAF" stroke="#556043" stroke-width="0.3" stroke-miterlimit="10"/>
<path d="M241.3 150.6H244L243.5 148.2L242.4 145.9L242.2 145.8L242.1 146L241.6 148.7L241.3 150.6Z" fill="#CDDDAF" stroke="#556043" stroke-width="0.3" stroke-miterlimit="10"/>
<path d="M242.8 122.3L246.2 120.6L249.2 119.3L248.5 115.7L247.1 111.8L245.1 108.9L242.7 106.4L242.2 106.2L238.7 106.6L236.9 106.9L236.5 107.3L236.4 108L237.2 109.8L242.8 122.3Z" fill="#CDDDAF" stroke="#556043" stroke-width="0.3" stroke-miterlimit="10"/>
<path d="M257.1 111C258.149 111 259 110.149 259 109.1C259 108.051 258.149 107.2 257.1 107.2C256.051 107.2 255.2 108.051 255.2 109.1C255.2 110.149 256.051 111 257.1 111Z" fill="#CDDDAF" stroke="#556043" stroke-width="0.3" stroke-miterlimit="10"/>
<path d="M243.8 124.4L247.3 131.8L247.9 132.3L248.5 132.5L250.9 132.3L249.2 121.6L243.8 124.4Z" fill="#CDDDAF" stroke="#556043" stroke-width="0.3" stroke-miterlimit="10"/>
<path d="M251.2 133.9L249.3 134.3L249 134.7L248.9 135.1L249.9 137.4L250.9 140.2L251.5 142.7L251.9 145.7L252.1 146.4L252.6 146.7L253.1 146.6L253.5 146L253.4 145.2L251.2 133.9Z" fill="#CDDDAF" stroke="#556043" stroke-width="0.3" stroke-miterlimit="10"/>
<path d="M205.9 74.7998L201.2 79.0998L198.8 77.3998L197.9 79.0998L197.1 81.7998L197 84.7998L197.9 88.6998L199.5 92.7998L201.3 96.8998L204.6 106.1L205.4 108.6L206.8 107.3L208.7 106.4L210.6 106.1L216.8 106L216.7 105.1H205.9V74.7998Z" fill="#CDDDAF" stroke="#556043" stroke-width="0.3" stroke-miterlimit="10"/>
<path d="M205.6 56.0998L217.2 63.8998H282L285.2 64.2998L289 66.2998L291.6 69.3998L292.6 72.2998V74.9998L291.5 78.0998L288.9 80.9998L285.9 82.5998L282 83.5998H277.5V93.3998L281 96.1998L285.8 98.1998L292.5 99.5998L299.1 100.2H303.3V88.0998H298.4V68.0998H303.2V63.8998H299.9V56.6998H303.2V54.1998L303 53.3998L302.4 52.8998L301.5 52.4998H255V56.1998H246.7V52.4998H221.2L217.9 52.6998L213.7 53.1998L209.4 54.3998L205.6 56.0998Z" fill="#CDDDAF" stroke="#556043" stroke-width="0.3" stroke-miterlimit="10"/>
<path d="M193 227.5H200L195.4 226.3L192.9 225.4L190 224L187.7 222.4L185.5 220.4L183.5 217.9L182 215.3L180.9 212.5L179.3 206.9V212.3L179.5 215.2L179.9 217.2L180.3 218.3L180.8 219.4L181.6 220.7L182.8 222.3L184.3 223.9L186 225.1L187.7 226.1L189.4 226.8L191.3 227.3L193 227.5Z" fill="#CDDDAF" stroke="#556043" stroke-width="0.3" stroke-miterlimit="10"/>
<path d="M237.7 231.3H240.3V232H237.7V231.3Z" fill="#CDDDAF" stroke="#556043" stroke-width="0.3" stroke-miterlimit="10"/>
<path d="M175.6 203.2V205.8H174.9V203.2H175.6Z" fill="#CDDDAF" stroke="#556043" stroke-width="0.3" stroke-miterlimit="10"/>
<path d="M175.6 182.3V184.9H174.9V182.3H175.6Z" fill="#CDDDAF" stroke="#556043" stroke-width="0.3" stroke-miterlimit="10"/>
<path d="M175.6 166.7V169.3H174.9V166.7H175.6Z" fill="#CDDDAF" stroke="#556043" stroke-width="0.3" stroke-miterlimit="10"/>
<path d="M175.6 145.9V148.5H174.9V145.9H175.6Z" fill="#CDDDAF" stroke="#556043" stroke-width="0.3" stroke-miterlimit="10"/>
<path d="M175.6 116V118.6H174.9V116H175.6Z" fill="#CDDDAF" stroke="#556043" stroke-width="0.3" stroke-miterlimit="10"/>
<path d="M185.7 65.7998L184 67.7998L183.5 67.2998L185.2 65.2998L185.7 65.7998Z" fill="#CDDDAF" stroke="#556043" stroke-width="0.3" stroke-miterlimit="10"/>
<path d="M213.7 49.5999L211.1 50.0999L211 49.3999L213.6 48.8999L213.7 49.5999Z" fill="#CDDDAF" stroke="#556043" stroke-width="0.3" stroke-miterlimit="10"/>
<path d="M168.7 428.5V421.4L168.9 420.8L169.3 420.4L169.8 420.2H170.1L170.6 420.4L171 420.8L171.2 421.4V428.5L171 429L170.6 429.4L170 429.6H169.7L169.1 429.4L168.7 429V428.5Z" fill="#CDDDAF" stroke="#556043" stroke-width="0.3" stroke-miterlimit="10"/>
<path d="M180.3 162H184.9V163.3H180.3V162Z" fill="#CDDDAF" stroke="#556043" stroke-width="0.3" stroke-miterlimit="10"/>
<path d="M195.2 162H199.8V163.3H195.2V162Z" fill="#CDDDAF" stroke="#556043" stroke-width="0.3" stroke-miterlimit="10"/>
<path d="M195.2 149.6H199.8V150.9H195.2V149.6Z" fill="#CDDDAF" stroke="#556043" stroke-width="0.3" stroke-miterlimit="10"/>
<path d="M180.3 149.6H184.9V150.9H180.3V149.6Z" fill="#CDDDAF" stroke="#556043" stroke-width="0.3" stroke-miterlimit="10"/>
<path d="M166.2 265.1V297.3H169.4V265.1H166.2Z" fill="#CDDDAF" stroke="#556043" stroke-width="0.3" stroke-miterlimit="10"/>
<path d="M242.7 39.5999H274.8V42.7999H242.7V39.5999Z" fill="#CDDDAF" stroke="#556043" stroke-width="0.3" stroke-miterlimit="10"/>
<path d="M84.7 47.0999H99.3V49.0999H84.7V47.0999Z" fill="#CDDDAF" stroke="#556043" stroke-width="0.3" stroke-miterlimit="10"/>
<path d="M104.9 47.0999H119.5V49.0999H104.9V47.0999Z" fill="#CDDDAF" stroke="#556043" stroke-width="0.3" stroke-miterlimit="10"/>
<path d="M125.1 47.0999H139.7V49.0999H125.1V47.0999Z" fill="#CDDDAF" stroke="#556043" stroke-width="0.3" stroke-miterlimit="10"/>
<path d="M261 25.0999H254V27.0999H261V25.0999Z" fill="#CDDDAF" stroke="#556043" stroke-width="0.3" stroke-miterlimit="10"/>
<path d="M246.4 25.0999H239.4V27.0999H246.4V25.0999Z" fill="#CDDDAF" stroke="#556043" stroke-width="0.3" stroke-miterlimit="10"/>
<path d="M232.6 25.0999H225.6V27.0999H232.6V25.0999Z" fill="#CDDDAF" stroke="#556043" stroke-width="0.3" stroke-miterlimit="10"/>
<path d="M162.7 58.3998L164.1 55.9998L165.9 53.2998L168.1 50.4998L170.5 47.7998L172.8 45.4998L174.9 43.5998L173.7 42.6998L171.6 41.7998L169.1 41.4998L166.6 41.7998L164.4 42.5998L162.5 43.8998L161.2 45.3998L160.1 47.1998L159.4 49.3998L159.2 51.8998L159.6 54.1998L160.7 56.4998L162.7 58.3998Z" fill="#CDDDAF" stroke="#556043" stroke-width="0.3" stroke-miterlimit="10"/>
<path d="M175.4 36.4999L188.8 32.8999L188.4 31.5999L175 35.1999L175.4 36.4999Z" fill="#CDDDAF" stroke="#556043" stroke-width="0.3" stroke-miterlimit="10"/>
<path d="M189.4 32.7999L202.8 29.1999L202.4 27.8999L189 31.4999L189.4 32.7999Z" fill="#CDDDAF" stroke="#556043" stroke-width="0.3" stroke-miterlimit="10"/>
<path d="M147.9 42.3999H156.1V65.8999H154.8V43.3999H147.8V42.3999H147.9Z" fill="#CDDDAF" stroke="#556043" stroke-width="0.3" stroke-miterlimit="10"/>
<path d="M126 30.7998H137.4V32.7998H126V30.7998Z" fill="#CDDDAF" stroke="#556043" stroke-width="0.3" stroke-miterlimit="10"/>
<path d="M107.8 30.7998H119.2V32.7998H107.8V30.7998Z" fill="#CDDDAF" stroke="#556043" stroke-width="0.3" stroke-miterlimit="10"/>
<path d="M75.5 61.0999H77.5V37.7H75.5V61.0999Z" fill="#CDDDAF" stroke="#556043" stroke-width="0.3" stroke-miterlimit="10"/>
<path d="M135 60.2998V62.2998H125.4V60.2998H135Z" fill="#CDDDAF" stroke="#556043" stroke-width="0.3" stroke-miterlimit="10"/>
<path d="M119.1 60.2V62.2999H96V60.2H119.1Z" fill="#CDDDAF" stroke="#556043" stroke-width="0.3" stroke-miterlimit="10"/>
<path d="M92.1 60.2V62.2999H75.3V61.4H77.8V60.2999L92.1 60.2Z" fill="#CDDDAF" stroke="#556043" stroke-width="0.3" stroke-miterlimit="10"/>
<path d="M74.7 72.7998V37.2998H66.7V46.6998H61.3V48.6998H66.7V62.8998H58.4V68.1998H53.5V66.6998H47V80.4998H49V72.8998L74.7 72.7998Z" fill="#CDDDAF" stroke="#556043" stroke-width="0.3" stroke-miterlimit="10"/>
<path d="M46.8999 48.6998H48.8999V26.4998H46.8999V48.6998Z" fill="#CDDDAF" stroke="#556043" stroke-width="0.3" stroke-miterlimit="10"/>
<path d="M54.4999 81.0999H64.9999V78.8999H74.6999V83.4999H73.1999L71.0999 84.3999L69.8999 86.4999L69.7999 87.3999H67.1999V84.9999H60.0999V87.3999H54.3999L54.4999 81.0999Z" fill="#CDDDAF" stroke="#556043" stroke-width="0.3" stroke-miterlimit="10"/>
<path d="M77.7 81.0999H84.7V82.6999H77.7V81.0999Z" fill="#CDDDAF" stroke="#556043" stroke-width="0.3" stroke-miterlimit="10"/>
<path d="M47 85.7H49V97.7H47V85.7Z" fill="#CDDDAF" stroke="#556043" stroke-width="0.3" stroke-miterlimit="10"/>
<path d="M54.8999 99.3999H61.8999V101.4H54.8999V99.3999Z" fill="#CDDDAF" stroke="#556043" stroke-width="0.3" stroke-miterlimit="10"/>
<path d="M47 126.7H48.9V119.1H54.1V112.2H47V126.7Z" fill="#CDDDAF" stroke="#556043" stroke-width="0.3" stroke-miterlimit="10"/>
<path d="M66.6 96.7998L66 103.5L67.7 103.7L68.3 96.9998L66.6 96.7998Z" fill="#CDDDAF" stroke="#556043" stroke-width="0.3" stroke-miterlimit="10"/>
<path d="M52.1001 129H56.9001V133.8H52.1001V129Z" fill="#CDDDAF" stroke="#556043" stroke-width="0.3" stroke-miterlimit="10"/>
<path d="M47 135.6H49V160.3H47V135.6Z" fill="#CDDDAF" stroke="#556043" stroke-width="0.3" stroke-miterlimit="10"/>
<path d="M54.8999 150.5H61.8999V152.6H54.8999V150.5Z" fill="#CDDDAF" stroke="#556043" stroke-width="0.3" stroke-miterlimit="10"/>
<path d="M54.6001 159.7V169.1H75.4001V166.1H73.6001L71.2001 165L70.2001 163.4L69.8001 161.9H64.3001V159.6L54.6001 159.7Z" fill="#CDDDAF" stroke="#556043" stroke-width="0.3" stroke-miterlimit="10"/>
<path d="M54.8 174.8H75.3001V176.4H54.8V174.8Z" fill="#CDDDAF" stroke="#556043" stroke-width="0.3" stroke-miterlimit="10"/>
<path d="M78.7 173V174.4H91V170.6H86.5V173.1L78.7 173Z" fill="#CDDDAF" stroke="#556043" stroke-width="0.3" stroke-miterlimit="10"/>
<path d="M94.3999 174.7H104.5V176.3H94.3999V174.7Z" fill="#CDDDAF" stroke="#556043" stroke-width="0.3" stroke-miterlimit="10"/>
<path d="M112.5 174.7H122.6V176.3H112.5V174.7Z" fill="#CDDDAF" stroke="#556043" stroke-width="0.3" stroke-miterlimit="10"/>
<path d="M125.5 174.3H137.8V169.9H133.2V172.4H125.5V174.3Z" fill="#CDDDAF" stroke="#556043" stroke-width="0.3" stroke-miterlimit="10"/>
<path d="M139.7 174.8H146.8V176.3H139.7V174.8Z" fill="#CDDDAF" stroke="#556043" stroke-width="0.3" stroke-miterlimit="10"/>
<path d="M148.5 174H155.4V167.1H148.5V174Z" fill="#CDDDAF" stroke="#556043" stroke-width="0.3" stroke-miterlimit="10"/>
<path d="M157.4 141.6V137.1L157.5 136.8L157.7 136.6L158 136.5H158.3L158.6 136.6L158.8 136.8L158.9 137.1V141.6L158.8 141.9L158.6 142.1L158.3 142.2H158L157.7 142.1L157.5 141.9L157.4 141.6Z" fill="#CDDDAF" stroke="#556043" stroke-width="0.3" stroke-miterlimit="10"/>
<path d="M157.4 108.3V103.8L157.5 103.5L157.7 103.3L158 103.2H158.3L158.6 103.3L158.8 103.5L158.9 103.8V108.3L158.8 108.6L158.6 108.8L158.3 108.9H158L157.7 108.8L157.5 108.6L157.4 108.3Z" fill="#CDDDAF" stroke="#556043" stroke-width="0.3" stroke-miterlimit="10"/>
<path d="M87.6 67.9998C88.7598 67.9998 89.7 67.0596 89.7 65.8998C89.7 64.74 88.7598 63.7998 87.6 63.7998C86.4402 63.7998 85.5 64.74 85.5 65.8998C85.5 67.0596 86.4402 67.9998 87.6 67.9998Z" fill="#CDDDAF" stroke="#556043" stroke-width="0.3" stroke-miterlimit="10"/>
<path d="M116.1 67.9998C117.26 67.9998 118.2 67.0596 118.2 65.8998C118.2 64.74 117.26 63.7998 116.1 63.7998C114.94 63.7998 114 64.74 114 65.8998C114 67.0596 114.94 67.9998 116.1 67.9998Z" fill="#CDDDAF" stroke="#556043" stroke-width="0.3" stroke-miterlimit="10"/>
<path d="M130.6 67.9998C131.76 67.9998 132.7 67.0596 132.7 65.8998C132.7 64.74 131.76 63.7998 130.6 63.7998C129.44 63.7998 128.5 64.74 128.5 65.8998C128.5 67.0596 129.44 67.9998 130.6 67.9998Z" fill="#CDDDAF" stroke="#556043" stroke-width="0.3" stroke-miterlimit="10"/>
<path d="M167.8 60.2999C168.518 60.2999 169.1 59.7179 169.1 59C169.1 58.282 168.518 57.7 167.8 57.7C167.082 57.7 166.5 58.282 166.5 59C166.5 59.7179 167.082 60.2999 167.8 60.2999Z" fill="#CDDDAF" stroke="#556043" stroke-width="0.3" stroke-miterlimit="10"/>
<path d="M176.5 50.0998C177.218 50.0998 177.8 49.5177 177.8 48.7998C177.8 48.0818 177.218 47.4998 176.5 47.4998C175.782 47.4998 175.2 48.0818 175.2 48.7998C175.2 49.5177 175.782 50.0998 176.5 50.0998Z" fill="#CDDDAF" stroke="#556043" stroke-width="0.3" stroke-miterlimit="10"/>
<path d="M182.9 44.8998C183.618 44.8998 184.2 44.3178 184.2 43.5998C184.2 42.8818 183.618 42.2998 182.9 42.2998C182.182 42.2998 181.6 42.8818 181.6 43.5998C181.6 44.3178 182.182 44.8998 182.9 44.8998Z" fill="#CDDDAF" stroke="#556043" stroke-width="0.3" stroke-miterlimit="10"/>
<path d="M192.2 38.9999C192.918 38.9999 193.5 38.4179 193.5 37.6999C193.5 36.9819 192.918 36.3999 192.2 36.3999C191.482 36.3999 190.9 36.9819 190.9 37.6999C190.9 38.4179 191.482 38.9999 192.2 38.9999Z" fill="#CDDDAF" stroke="#556043" stroke-width="0.3" stroke-miterlimit="10"/>
<path d="M202.5 34.7999C203.218 34.7999 203.8 34.2179 203.8 33.5C203.8 32.782 203.218 32.2 202.5 32.2C201.782 32.2 201.2 32.782 201.2 33.5C201.2 34.2179 201.782 34.7999 202.5 34.7999Z" fill="#CDDDAF" stroke="#556043" stroke-width="0.3" stroke-miterlimit="10"/>
<path d="M213 32.6999C213.718 32.6999 214.3 32.1178 214.3 31.3999C214.3 30.6819 213.718 30.0999 213 30.0999C212.282 30.0999 211.7 30.6819 211.7 31.3999C211.7 32.1178 212.282 32.6999 213 32.6999Z" fill="#CDDDAF" stroke="#556043" stroke-width="0.3" stroke-miterlimit="10"/>
<path d="M222.9 31.9999C223.618 31.9999 224.2 31.4179 224.2 30.6999C224.2 29.9819 223.618 29.3999 222.9 29.3999C222.182 29.3999 221.6 29.9819 221.6 30.6999C221.6 31.4179 222.182 31.9999 222.9 31.9999Z" fill="#CDDDAF" stroke="#556043" stroke-width="0.3" stroke-miterlimit="10"/>
<path d="M247.3 212.8V214.7C252.8 214.7 253.9 215 255.6 215.7V213.7C254 213.1 252.9 212.8 247.3 212.8Z" fill="#809FC1"/>
<path d="M219 215.4L219.6 213.5C226.4 215.5 228.6 213.1 233.3 212.7V214.6C229.7 215.3 225.2 217.4 219 215.4Z" fill="#809FC1"/>
<path d="M213.6 204.6L215.6 204.7C215.3 201.5 213.9 197.8 214.1 190.9L212.2 190.7C211.8 197.8 213.4 201.5 213.6 204.6Z" fill="#809FC1"/>
<path d="M217.9 178.2L219.5 179.5C221.5 178.1 223.8 177.8 228 177.6L226.6 175.7C222.7 176 220.2 176.4 217.9 178.2Z" fill="#809FC1"/>
<path d="M229.3 175.5C233.5 175.2 237.5 174.2 240.6 170.3L241.4 172.4C238.3 175.7 234.7 176.9 230.7 177.3L229.3 175.5Z" fill="#809FC1"/>
<path d="M243.1 170.3L242.3 167.8C243.4 166 244.1 164.9 244.7 162.2H246.7C246 165.5 244.5 168 243.1 170.3Z" fill="#809FC1"/>
<path d="M242.7 144.4L243.5 142.3C245.2 144.7 246.8 147.3 246.8 150.5H244.9C244.9 148.1 244.3 146.7 242.7 144.4Z" fill="#809FC1"/>
<path d="M241 142.3L241.8 140.2C239.7 137.8 236.8 135 234.2 132.4L232.9 133.8C237.8 138.8 240.4 141.4 241 142.3Z" fill="#809FC1"/>
<path d="M231.3 132.2L232.6 130.8C230.1 128.2 222 120.7 220.6 115.8L219.2 117.6C220.8 121.9 229 129.9 231.3 132.2Z" fill="#809FC1"/>
<path d="M217.8 108H219.8C219.9 109.7 220 111.4 220.2 113.1L218.5 115C218.1 112.8 217.8 110.5 217.8 108Z" fill="#809FC1"/>
<path d="M225.3 158.2H236.9V154.6H225.3V158.2Z" fill="#809FC1"/>
<path d="M225 150.7H236.9L236.7 149L235.7 147.3L234.4 146.1L232.6 145.1L230.9 144.8L229 145.1L227.3 146L226.2 147.3L225.4 149L225 150.7Z" fill="#809FC1"/>
<path d="M225 162.1H236.9L236.7 163.8L235.7 165.5L234.4 166.7L232.6 167.7L230.9 168L229 167.7L227.3 166.8L226.2 165.5L225.4 163.8L225 162.1Z" fill="#809FC1"/>
<path d="M73.1999 83.3C72.4999 83.6 71.6999 83.9 70.9999 84.2C70.5999 84.9 70.1999 85.7 69.7999 86.4C69.2999 92.2 68.7999 98 68.2999 103.8C66.7999 104.5 65.3999 105.2 63.8999 105.9C63.0999 107.3 62.2999 108.7 61.3999 110.1V120.3H68.1999V143.2C68.6999 149.5 69.1999 155.7 69.6999 162C69.8999 162.5 69.9999 163 70.1999 163.5C70.4999 164.1 70.8999 164.6 71.1999 165.2C71.9999 165.6 72.7999 166 73.6999 166.3C77.6999 166.3 81.7999 166.3 85.7999 166.3C88.5999 162.9 91.2999 159.6 94.0999 156.2C100.7 157.4 107.3 158.6 113.9 159.8H141.3C142.2 159.4 143.2 158.9 144.1 158.5C144.5 157.8 145 157 145.4 156.3C146.2 146.7 147 137.1 147.9 127.4C147.9 125.5 147.9 123.7 147.9 121.8C147.6 117.6 147.2 113.5 146.9 109.3H141.5C141.1 105.2 140.8 101.1 140.4 97C140.1 96.6 139.8 96.1 139.5 95.7C139.1 95.3 138.6 94.8 138.2 94.4C137.6 94.2 137 94 136.4 93.8H114.5V86.6C114 85.7 113.5 84.9 113 84C112.3 83.7 111.6 83.5 110.9 83.2L73.1999 83.3Z" fill="#838483" stroke="#383838" stroke-width="0.05" stroke-miterlimit="10"/>
<path d="M79.7 211.6V273.1C83.6 277 87.4 280.8 91.3 284.7H92.3V303.1H102.4V325L103.5 326.1H139.7C140 325.8 140.3 325.5 140.7 325.1V303.3H149.4V286.8H148.8V276.3H149.3V269.6H148.8V262.2C149 262.2 149.2 262.2 149.5 262.2V231.1H145.8C140.5 225.8 135.2 220.5 129.9 215.2V211.6H79.7Z" fill="#838483" stroke="#383838" stroke-width="0.05" stroke-miterlimit="10"/>
<path d="M51.1001 -0.100098V9.1999L63.0001 17.3999V37.3999H79.9001L82.1001 36.7999L83.5001 35.8999L84.7001 34.8999L86.2001 33.1999L94.0001 23.9999H102.9V26.3999H131.8V26.6999H137L145 33.4999L146.8 34.2999L148.6 34.6999H149.9L163.8 31.8999L164.7 35.3999L174 32.9999L174.6 35.1999L188.5 31.4999V31.6999L202.6 27.8999L201.3 23.4999L210.6 20.9999L211.7 20.4999L212.7 19.7999L213.6 18.8999L214.3 17.8999H256L261.7 25.9999L262.8 26.8999L263.7 27.4999L264.7 27.8999L266.1 28.2999L289.9 30.3999L291.4 30.2999L292.7 29.8999L294 29.1999L295.1 28.1999L296 27.0999L296.6 25.8999L297 24.5999V23.3999V-9.76548e-05L51.1001 -0.100098Z" fill="#565656" fill-opacity="0.8" stroke="#424242" stroke-width="0.5"/>
<path d="M47 287.7H65.6V262H61.7V252H54.5V253H45.5V262.7H47V287.7Z" fill="#838483" stroke="#383838" stroke-width="0.05" stroke-miterlimit="10"/>
<path d="M158.1 340.4H145.5V353H158.1V340.4Z" fill="#838483" stroke="#383838" stroke-width="0.05" stroke-miterlimit="10"/>
<path d="M187.6 488.4V451.2H198.4V440.2H167V411.7L161.6 410.2L162.4 407.9L161.5 407.5L159.9 412.2L149.8 406L142.7 394.8L141.4 383.1H146.4V382.3H74.8V488.4H187.6Z" fill="#838483" stroke="#383838" stroke-width="0.05" stroke-miterlimit="10"/>
<path d="M255.4 432.5V440.3L253.3 439.8V448.5H236.1V461.5H231.1V465.6H224.1V467.5H225.1V488.4H260L259 485.1L259.6 484.9L258.7 481.9L256.4 482.6L253 470.4L246.7 467.1L259 467.4L258.9 467.9L261.9 468L262.1 465.6L274.5 465.9L286.1 454.2L285.1 450.6L305.7 455.4V432.4H304V433.4H294.2V435.2H292.9V434.1H291.5V435.2H288.3V434.1H287V435.2H285.7V433.4H275.6V435.2H274.3V434.1H273V435.2H269.8V434.1H268.4V435.2H267.1V433.4H257.3V432.4H255.4V432.5Z" fill="#838483" stroke="#383838" stroke-width="0.05" stroke-miterlimit="10"/>
<path d="M348.9 346.4L334.9 332.5H279.5L279.4 398.8L279.2 401.3L251.4 397.7L223.8 384.3V359.9H193.8V344H185.6V260H271.6V286.9H279.6V290H334.6V283.5H335.8V254.9L336.1 253.1L336.8 251.5L338 250L339.2 249.2L340.7 248.7L342.3 248.4H348.8L348.9 346.4Z" fill="#838483" stroke="#383838" stroke-width="0.05" stroke-miterlimit="10"/>
<path d="M239 188.4L229.7 183.9L221.8 200.3L231.1 204.8L239 188.4Z" fill="#838483" stroke="#383838" stroke-width="0.05" stroke-miterlimit="10"/>
<path d="M290.3 406.3H303.3V390.3H290.3V406.3Z" fill="#838483" stroke="#383838" stroke-width="0.05" stroke-miterlimit="10"/>
<path d="M255.7 162.6H255.3V163.6H264.5L262.4 175.2L262.1 177.1L261.9 178.8V180.8V183.7L262.2 187.2L263.4 193.4L265 198.4L266.7 202.1L268.9 205.6L272.7 210.5L284.9 210.8L290.8 213.5V214.4H301V217.8L301.7 218.1L303.1 218.5L305.1 218.8H307L348.8 211.3V147H327.6V103.4L325.4 100.6L321.6 98.0999L314.5 98.2999L294 101.6V95.3999H283.5V87.5999L287.2 86.5999L290.1 84.9999L294 81.3999L296.1 77.2999L296.2 75.2999L295.7 70.6999L293.6 66.1999L289.6 62.7999L286.3 61.5999L283.7 61.0999H213.2L205.8 68.4999V104.7H227.7V104H249L249.7 104.7H261.2V114.7L263.4 120.3L264.7 125.5L265.2 131.7L264.8 137.5L264.2 141.2L263.1 145.4L261.5 149.7H255.4V151H255.8L255.7 162.6Z" fill="#838483" stroke="#383838" stroke-width="0.05" stroke-miterlimit="10"/>
<path d="M348.9 376.5L334.3 396.5V400.8H327.7V410.2H324.7V456.1H325.3V458.3H327.9V467.9H348.9V376.5Z" fill="#838483" stroke="#383838" stroke-width="0.05" stroke-miterlimit="10"/>
<path d="M113.2 62.4998V66.9998H100.1V67.2998H95.8V62.2998H100.1V62.5998L113.2 62.4998Z" fill="#838483" stroke="#383838" stroke-width="0.05" stroke-miterlimit="10"/>
<path d="M169.9 264.8H165.7V254.5H169.9V264.8Z" fill="#838483" stroke="#383838" stroke-width="0.05" stroke-miterlimit="10"/>
<path d="M169.9 307.7H165.7V297.4H169.9V307.7Z" fill="#838483" stroke="#383838" stroke-width="0.05" stroke-miterlimit="10"/>
<path d="M242.4 39.0999V43.2999H232.1V39.0999H242.4Z" fill="#838483" stroke="#383838" stroke-width="0.05" stroke-miterlimit="10"/>
<path d="M285.3 39.0999V43.2999H275V39.0999H285.3Z" fill="#838483" stroke="#383838" stroke-width="0.05" stroke-miterlimit="10"/>
<path d="M157 216.1H152.6V219H157V216.1Z" fill="#838483" stroke="#383838" stroke-width="0.05" stroke-miterlimit="10"/>
<path d="M157 244.7H152.6V247.6H157V244.7Z" fill="#838483" stroke="#383838" stroke-width="0.05" stroke-miterlimit="10"/>
<path d="M157 264.7H152.6V267.6H157V264.7Z" fill="#838483" stroke="#383838" stroke-width="0.05" stroke-miterlimit="10"/>
<path d="M157 284.7H152.6V287.6H157V284.7Z" fill="#838483" stroke="#383838" stroke-width="0.05" stroke-miterlimit="10"/>
<path d="M248 409.7V405.3H245.1V409.7H248Z" fill="#838483" stroke="#383838" stroke-width="0.05" stroke-miterlimit="10"/>
<path d="M271.5 410.5V406H268.6V410.4H271.5V410.5Z" fill="#838483" stroke="#383838" stroke-width="0.05" stroke-miterlimit="10"/>
<path d="M79.3 284.8V211.4H149.7V303.3H146.3V330.2L144.7 331.8H98.3L96.7 330.2V303.5H92.1V284.9L79.3 284.8Z" fill="#565656" fill-opacity="0.8" stroke="#424242" stroke-width="0.5"/>
<path d="M115.2 160.4H141.1L144.1 159L145.7 156.7L148.6 126.4L145.8 91.6L144.2 89.1L141.7 87.9H115.2V85.8L113.8 83.1L110.7 82H73.1001L70.3001 83.5L68.9001 85.7L67.3001 104L63.8001 105.6L61.1001 110V130L67.8001 149L68.9001 163L70.6001 165.8L73.3001 166.9H110.9L114 165.6L115.2 162.7V160.4Z" fill="#565656" fill-opacity="0.8" stroke="#424242" stroke-width="0.5"/>
<path d="M158.3 340.2H142.2V353.2H158.3V340.2Z" fill="#565656" fill-opacity="0.8" stroke="#424242" stroke-width="0.5"/>
<path d="M192.7 488.4V479H196.5V461.2H192.7V451.2H198.4V440.2H167.6V411.4L161.6 409.9L162.4 407.9L157.3 405.6L153.3 402.4L149.7 397.9L147.3 392.5L146.3 387.2V382.2H144.2V376L125.8 371.5H123.9L105.5 376.1V382.3H61.7V386H58.5V396.5H61.7V411.9H60.6V463.8H61.7V479.2H58.6V488.4H192.7Z" fill="#565656" fill-opacity="0.8" stroke="#424242" stroke-width="0.5"/>
<path d="M224.1 488.4V465.5H227.5L228 439.3L237.9 439.5L238 435.4L241.8 436.4L241.6 436.8L255.4 440.3V432.5H305.9V455.5L285.3 450.7L286.3 454.3L274.7 466L262.3 465.7L262.1 468.1L259.1 468L259.2 467.5L246.9 467.2L253.2 470.5L256.6 482.7L258.9 482L259.8 485L259.2 485.2L260.2 488.5L224.1 488.4Z" fill="#565656" fill-opacity="0.8" stroke="#424242" stroke-width="0.5"/>
<path d="M348.9 346.4L334.9 332.5H279.5V351.6L281.7 379.6L280.7 385.6L279.5 401.5L256 405L231.9 399L231 396.6L223.8 384.2V368H185.6V251H279.5V289.8H334.5V283.3H335.7V254.7L336 252.9L336.7 251.3L337.9 249.8L339.1 249L340.6 248.5L342.2 248.2H348.7L348.9 346.4Z" fill="#565656" fill-opacity="0.8" stroke="#424242" stroke-width="0.5"/>
<path d="M239 188.4L229.7 183.9L221.8 200.3L231.1 204.8L239 188.4Z" fill="#565656" fill-opacity="0.8" stroke="#424242" stroke-width="0.5"/>
<path d="M203.8 58.8999L204.7 105.5L244.6 110.2L244.8 110.9L247.3 111L249.4 114.2L250.1 117.2L250.7 118.2L249.6 119.4L247.9 123.9L253.8 148.5L256.8 148.8L256.9 149.9H254.7L253.9 150.7V162.9L254.7 163.7H256.3L256.5 165.1L256.8 165.2L256.5 167.5L255.6 167.8L255.5 168.2L254.7 168.5L250.1 187L249.4 190.7L248.9 195L249.5 195.1H250.8L253.2 196.3L255.6 198.6L257.1 199.2L259 201.6L259.3 205L257.4 208.2L257.2 208.8L261.8 212.2L263.8 214.1L265.1 216.1L265.4 217.2L265.3 218.1L264.8 218.9L263.4 220.2L262.5 221.6L261.9 223.1L261.6 225L261.8 226.4L262.3 227.7L262.9 228.8L263.9 229.8L265 230.7L266.4 231.3L268 231.6H269.5L271.2 231.2L273.5 230.3L274.9 229.6L276.5 228.6L278.7 226.8L281.8 224.2L284.6 221.8L286 220.6L287.1 220.2L288.6 220.1L290.2 220.2L291.8 220.5L293.4 222L295.1 223.4L296.6 224.4L298.5 225.3L300.4 225.9L302.2 226.4L304.8 226.9L308.5 227.2H312.5L316.5 226.9L320.8 226.4L325.5 225.6L330.8 224.5L336.9 223.1L343.7 221.5L349.1 220.3V150.3H334.3V106.2L334.2 104.3L333.6 100.1L332.6 97.5999L331.4 95.8999L330.4 94.6999L328.7 93.2999L326.5 91.9999L323.9 90.8999L321.7 90.2999L319.1 90.0999L316.5 90.1999L312.9 90.6999L308.4 91.6999L295.6 94.6999L294.6 94.9999L289.1 93.9999L286.7 93.1999L283.9 91.2999L282.7 89.8999L281.6 88.7999H283L285.3 88.5999L287.7 87.8999L290.2 86.7999L292.1 85.3999L294.1 83.5999L295.7 81.1999L296.8 78.5999L297.4 76.0999V72.2999L297 70.0999L296 67.8999L294.5 65.5999L292.7 63.5999L290.9 62.2999L288.2 60.8999L285.3 59.9999L281.9 59.7999L203.8 58.8999Z" fill="#565656" fill-opacity="0.8" stroke="#424242" stroke-width="0.5"/>
<path d="M46.8 66.3999V168.8" stroke="#C4E3C3"/>
<path d="M46.8001 157.1H37.6001V163.3" stroke="#C4E3C3"/>
<path d="M29.4 144.9L28.1 156.1L25.6 162.7L23.1 173.3L19.8 174.2" stroke="#C4E3C3"/>
<path d="M72 217.2V204.9" stroke="#C4E3C3"/>
<path d="M72.1001 235V260.5" stroke="#C4E3C3"/>
<path d="M45.5 253.7H19.3V276H45.4001L45.5 253.7Z" fill="#FF0000" fill-opacity="0.4" stroke="#FF0000" stroke-width="2" stroke-dasharray="15 10"/>
<path d="M45.2 148.8L19.5 148.6V46.2998L45.2 46.4998V148.8Z" fill="#FF0000" fill-opacity="0.4" stroke="#FF0000" stroke-width="2" stroke-dasharray="15 10"/>
<path d="M272.9 253V220.8H312.6V253H272.9Z" fill="#FF0000" fill-opacity="0.4" stroke="#FF0000" stroke-width="2" stroke-dasharray="15 10"/>
<path d="M254.5 398.1V432.5H306.9V398.1H254.5Z" fill="#FF0000" fill-opacity="0.4" stroke="#FF0000" stroke-width="2" stroke-dasharray="15 10"/>
<path d="M75.2001 163.9V162.2H77.0001V163.5V161H69.9001L69.2001 152.4L68.5001 143.9H70.6001H72.7001V143.2H68.4001V120.1H61.6001V112.8H76.7001L80.0001 116V122.4V128.8H79.4001V129.7H82.7001V129.4H81.9001H81.1001V125.6V121.8H85.8001V122.4H88.8001H93.5001H95.2001V123.5H95.4001V122.4H98.0001V109.3H111.3V109.4H130V110.1H130.3V109.4H136.7V111.2H137V109.4H146.7V109.5L147.2 115.7L147.7 121.8V127.3L147.4 130.6L147 134H137V132.2H136.7V134H135.7V134.2H136.4V142.1H132.4V134.2H133.1V134H130.4V133.4H130V134.1H126V143.9H125.3V144.2H126.4V147.9H126.6V147.2H128.4H130.2V147.1V147H132.6V146.9H137H141.4V153.5H141.8H142.2V150.3V147H144H145.8L145.4 151.8L145 156.3L144.4 157.4L143.8 158.5L142.5 159.1L141.2 159.7H121.7V157H122V150.6H126.9V149.6H126.5V150.1H121.7V148.7H121.5V149.5H119.4V149.1H119V145H119.3V144.6H120.3H121.3V144.9V145.2H121.4H121.5V144.1H121.7H122.2H122.6V143.8H122V134H116.2V130.1H130V130.8H130.3V125.6H124.1V118.5H130.3V112.8H130V113.5H115.8V121.6H111.8V113.6H111.3V113.7H102.4V127.3H95.5001V125.8H95.3001V127.1H85.9001V131.7H93.7001V134.3V136.9H85.9001V139.8H83.2001H80.5001V139.3H79.8001V143.4H77.2001V144.1H78.8001V145.6V153.1V159.1H75.0001V159.2H76.9001H78.8001V162.5V165.7H75.1001L75.2001 163.9ZM130.4 153.9V153.5H127.1V154.3H130.4V153.9ZM139.2 154.3V153.5H136.2V150.4H135.5V153.6H136.1V154.3H139.2ZM80.5001 136.2H79.8001V137.4H80.5001V136.2ZM80.5001 131.5H79.8001V132.5H80.5001V131.5Z" fill="#D2D7DB" stroke="#303030" stroke-width="0.15" stroke-miterlimit="10"/>
<path d="M273.5 173.2V162.6H263.9V159.5H263.6V162.6H255.7V151.1H263.6V154.2H263.9V151.1H267.1H271.9H273.5V150.9L273.8 102.4H273.4V103.3H272.5V103.7H268.6V103.3H268.7V102.9H268V103.3H268.1V103.7H215.7V76.2L214.4 74.4L213.1 72.6H210H206.9V70V67.4L209.6 64.7L212.3 62H246.4H280.5V69.6H276.2H270H268V78.8H263.7V83.2H266.1V85.6H263.7V86.4V87.4V90.5V93.4H268V97H267.9V97.4H268.6V97H268.5V95.5H272.4V95.8H273.3V97H273.7V95.9H278.3V98.4V121.1V141.4H289.2V144.6H302.6V146V156.7V165.9H307.7V149H312.2V159V169H311.2H302.9V169.5H293.4V172.6H278.4V174.4H278.8V177.1V179.8V181.9V183.9H273.4V173.2H273.5Z" fill="#D2D7DB" stroke="#303030" stroke-width="0.15" stroke-miterlimit="10"/>
<path d="M226.7 202.4L222.5 200.4L224.4 196.4L226.4 192.3L227.6 191.5L228.8 190.7L230.2 187.9L231.6 185.1L235.5 187L238.7 188.6L234.9 196.5L231 204.4L226.7 202.4Z" fill="#D2D7DB" stroke="#303030" stroke-width="0.15" stroke-miterlimit="10"/>
<path d="M46 257.8V253.5H54.6V253.7V253.9H55V253.2V252.5H61.1V261.9H53.6H46.1L46 257.8Z" fill="#D2D7DB" stroke="#303030" stroke-width="0.15" stroke-miterlimit="10"/>
<path d="M185.9 279.5V260.1H231.3V260.2V260.3V260.4V260.6V260.8V260.9V261.1V261.3V261.4V261.5V261.6V261.7V261.8V262L231.2 262.7L231.1 263.6L231 264.3L230.9 264.9V265.2V265.4V265.6V265.7V265.9V266.2V266.4V266.5V266.7V266.9V267.2V267.6V268V268.3V268.6V268.8V268.9V269V269.2V269.3V269.4V269.5H230.8V269.6V269.7V269.8V269.9H230.7V270V270.1H230.6V270.2V270.3V270.4V270.5V270.6V270.7H230.5H230.4H230.3H230.2V270.6H230.1H230H229.7H229.4H229.3H229.2H228.9L228.3 270.5L227.6 270.4L227 270.3L226.4 270.2L226 270.1H225.6L225.1 270H224.9H224.5H224.2L223.8 269.9H223.5H223.4V273.4H223.9H224.4H225.5H226.6H226.9H227.5H227.8L228.6 273.5L229.4 273.6L229.7 273.7L230 273.8L230.3 273.9L230.6 274L230.9 274.1L231.2 274.2L231.6 274.3L232 274.4L232.2 274.5L232.4 274.6L232.6 274.7L232.8 274.8L233 274.9L233.2 275L233.4 275.1L233.6 275.2L233.8 275.3L234 275.4L234.2 275.5L234.4 275.6L234.6 275.7L234.9 275.8L235.1 275.9L235.2 276L235.3 276.1L235.4 276.2L235.5 276.3H235.6L235.8 276.4L235.9 276.5L236 276.6L236.2 276.7L236.3 276.8L236.5 276.9L236.7 277H236.8L236.9 277.1L237 277.2L237.1 277.3L237.2 277.4L237.4 277.5L237.7 277.7L237.8 277.8V277.9L237.9 278H238L238.1 278.1L238.3 278.2L238.4 278.3L238.7 278.5L239.1 278.8L239.2 278.9L239.3 279L239.4 279.1L239.5 279.2L239.6 279.3L239.7 279.4L239.8 279.5L239.9 279.6L240 279.7L240.1 279.8H240.2L240.3 279.9L240.4 280L240.5 280.1L240.7 280.3L240.9 280.6L241 280.7L241.1 280.8H241.2L241.3 281L241.4 281.2L241.5 281.3L241.6 281.4L241.7 281.5L241.9 281.8L242.1 282.1V282.2V282.3V282.4L242.2 282.5L242.3 282.7L242.4 282.9L242.5 283V283.1L242.6 283.2L242.7 283.3L242.8 283.5L242.9 283.7L243 283.8L243.1 284V284.1V284.2L243 284.3V284.4V284.5V284.6V284.7L242.9 284.8V284.9V285V285.1V285.2V285.3V285.4V285.5V285.6V285.7V285.8V285.9V286L242.8 286.1V286.2V286.3V286.4V286.5V286.6V286.7V286.8V286.9V287V287.1L242.7 287.2V287.3V287.4L242.6 287.5H242.5H242.4H242.3H242.2L242.1 287.4L242 287.3L241.6 287.1L241.1 286.8L240.9 286.6L240.8 286.5L240.7 286.4H240.6H240.5H240.4L240.3 286.3L240.2 286.2H240.1L239.6 286L239.1 285.7L239 285.6H238.9H238.8L238.6 285.5L238.4 285.4L238.3 285.3L238.2 285.2L238.1 285.1L238 285L237.9 284.9L237.8 284.8L237.7 284.7L237.6 284.6L237.5 284.5L237.4 284.4L237.3 284.3L237.2 284.2L237.1 284.1L236.6 283.8L236.3 283.6L236.2 283.5L236.1 283.4L236 283.3L235.9 283.2L235.8 283.1L235.7 283L235.6 282.9L235.5 282.8L235.4 282.7L235.3 282.6L235.2 282.5L235 282.4L234.9 282.3L234.7 282.2L234.5 282.1L233.9 283.3L233.2 284.5L233.1 284.7L233 284.8L232.4 284.4L231.7 284L231.5 283.9L231.4 283.8L231.2 283.7L231 283.6L230.6 283.9L230.2 284.2L229.5 284.7L228.9 285.1L228.8 285.2L227.9 285.9L227 286.5L226.9 286.6L226.7 286.7L226.5 286.8L226.4 286.9L226.2 286.8L226.1 286.7L223.6 285.3L221.1 283.8H221H220.9H220.8L220.7 283.7L220.6 283.6L220.5 283.5L220.4 283.4L220.3 283.3L220.2 283.2L220 283.1L219.8 283V282.2V281.4V281.2H219.7H219.6V281.4V283.4V285.1H214.2V282.6H217.3V280V277.4H218.2H219.1V277.5L219.2 278.1L219.3 278.6H219.4H219.5L219.6 278.2L219.7 277.7V273V268.4H219.6L218.8 268.5L218 268.6H217.7H217.3H217.1V270V273.8V276.2H215.9V276.3H214.6V276.2H212.5V276.3H208V276.2H206.7V275.2V272.3V270.3H206.8L206.9 270.2H207L207.1 270.1L207.2 270L207.4 269.9L207.6 269.8V269.6V269.4H207.5H207.2H206.7H206.1H205.4H205H204.8H204.6V269.5H204.2H203.7H203.5H203.1H202.9H202.5H201.9H201.5H201.2H200.8H200.1H199.9H199.3H198.4H198.1H197.9H197.7V270.5V271.5H197.6H197.5V271.7H197.9V273H198.1V272.3H206.1V276.2H198.1V275.6H197.9V276.1V277V277.4H203.4V278.3H204.5H206.1H206.7V282.6H203.4V283.9H203.3H203.2H198V298.2H188.9V298H188.7V298.2H186.1V279.5H185.9ZM188.7 296.9V296.7V296.6V296.5V294.3V292.1H188.8V291.8H188.5V297.1H188.7V296.9ZM195.4 294.8V292.1V287.2V283.1V286.9V291.3V291.9H194.8V292.2H195.4V296.6H194.9V296.7H195.5L195.4 294.8ZM191 296.6L190.9 294.3V292.1H191.1V291.8H190V292.1H190.7V294.3V296.5H190.3V296.6H191ZM193.2 295.8V293.5V292.1H193.5V291.8H192.3V292.1H193V294.3V296.5H192.5V296.6H193.2V295.8ZM190.2 287.6V287.3H186.3V287.9H190.2V287.6ZM195.4 276.7V272.5H195.8V272.3H195.4V271.3V270.1V269.8L192.8 267.1L190.2 264.4L189.7 264.8L189.3 265.2L189.6 265.5L189.8 265.8L191.3 267.3L193.9 270L195 271.2L195.2 271.3L195.3 271.4V275.5V280.2V280.8H195.4V276.7Z" fill="#D2D7DB" stroke="#303030" stroke-width="0.15" stroke-miterlimit="10"/>
<path d="M117.2 324.3V322.6H124V322.4H117.2V318.6V314.8H117.3H120.4H123.4V314.6H120.4H117.4V310.7V306.8H120.5H123.6V306.1V304.6V303.7H135.1V304.4H135.4V303.6H135.6V303.5V303.3V303.2H134.6V300.2V297.2H136H137.4V296.7V296.2H137.3H137.2H137.1V296.9H134.1V290.7H129.9H123.2H120.3H119.8V287.7H123.9V287H123.2L123 286.8L122.8 286.6V283.1V279.6L123 279.4L123.2 279.2H125.4L125.6 279.4L125.8 279.6V284.9H126V279.7L126.2 279.5L126.4 279.3H128.5H131.1H131.6V279H129.5V276.3V273.6V273.9V274.2H127V272H129.4V272.7H129.5V271.3V269.9H133.5V274.4V278.9H132.4V279H132.8H133.2L133.4 279.2L133.6 279.4V284.1H134V276.9V269.7H125.9V268.7V266.3V264.9H125.6V265.4H122.9L122.7 265.2L122.5 265V263.7V262.4L122.7 262.2L122.9 262H123.7V261.8H121.2V261.7H119.8V261.8H118.3V258.3H119.1H119.9V258.4H121.3V258.3H123.6H125.9V258.4H127.3V258.3H128.1V255.7H127.3V249.8H128.1V248.5V247.2H128.2H128.3V245.9H128.2V244H129.2V243.7H127.2L117.8 234.3V232.4H117.5V232.9V233.4H112.6V228.7V224H117.5V227.3V230.6H117.6H117.8V227.3V222.7V221.3H121.3V220.9H117.8V211.8H130.1V213.6V215.4L138.1 223.4L146.1 231.4H147.9H149.7V243.7H130.9V244H131.2H131.7H131.9V245.9H131.8V246.6V247.3H132V249.4V251.5H131.9H131.8V252.9H131.9H132V256.2V259.5H131.9V260.9H132V261.9H127V261.8H126.3H125.6V261.9H124.5V262.1H125.5V262.8H125.8V262.1H148.6V269.9H149.1V276.3H148.6V287H126.1L126 286.9L125.8 286.7L125.7 286.6V285.7H125.5V286.6L125.3 286.8L125.1 287H124.5V287.3H128.7H134.3H135.7V288.1V291V293.2H136.6V294.3H136.9V293.8V293.3H138.8H140.7V293.7V294.1H144.6H148.5V298.2V302.3H143.2V302.2V302.1H141.9H140.6V302.5V302.9H140.1H139.6V303.1V303.3H140.1V325L139.7 325.4L139.3 325.8H116.8L117.2 324.3ZM132.3 316.4V309.6V309H135.1V307.2V305.5H134.8V308.8H132.3V306.1H132H131.4H131V306.4H131.4H131.8V314.5V322.6H126V320.5V321.6V322.7H125.3V322.9H132.3V316.4ZM126.2 316V314.8H126V315.9V317.1V317.2H126.2V316ZM126.2 307.3V306.2H127.5V306H126V308.3H126.2V307.3ZM138.2 303.2V303V302.9H137.1V303V303.2V303.3H138.1L138.2 303.2ZM121.7 226.5L121.4 226.8L134.2 239.6L134.6 239.2L121.7 226.5Z" fill="#D2D7DB" stroke="#303030" stroke-width="0.15" stroke-miterlimit="10"/>
<path d="M151.6 352.5V352.4H148.9H146.1V351.6H145.8V349.8H146.1V341.1H151.6V340.9H157.7V352.8H151.6V352.5Z" fill="#D2D7DB" stroke="#303030" stroke-width="0.15" stroke-miterlimit="10"/>
<path d="M141.5 386.7L140.1 386.8L138.7 386.9H128.6H118.5V390.4H113.3V391.2H112.8V390H107.9V397.4H108.4V397.5H108.6V397.9H108.4V398H107.9V400.4L122.4 423.3L130.1 435.4L131.2 435.9L132.3 436.4L132.4 436.2L132.5 436H132.6L132.7 435.9L132.8 435.8L133 435.9L133.1 436V436.1V436.2L133 436.4L132.9 436.6L139.2 439.6L139.4 439.7L140.5 437.5L141.5 435.3L140.9 435L140.3 434.7L140.4 434.5L140.5 434.3L140.9 434.5L141.3 434.7L142.4 432.4L143.5 430.1L146.7 431.6L153.5 417.3L155.3 413.4L156.9 410.8L156.3 410.5L152.8 408.3L149.8 406.5L146.2 400.8L142.6 395.1L142.1 390.9L141.5 386.7ZM133 391V393.3V394L132.7 394.8L132.1 396L131.4 397L130.6 397.7L129.9 396.6L130.6 396.1L131.2 395.4L131.7 394.5L131.9 393.5V391.1L133 391ZM112.7 396.2H113.2V397H115.6V397.5H116.3V397.9H115.8V399.9H118.2V397.9H117.6V397.5H118.3V397H120.3V397.5H121V397.6V397.7H122.3V397.5H123V397H125.3L127.1 399.9L125.6 400.9L127.2 403.4L126.8 403.6L126.7 403.4L124.5 404.8L123.8 405.3L123.6 405.5L123.4 405.9L123.2 406.4L123.1 406.7V407.1V407.5V407.7L123.2 408.1L123.5 408.6L124.3 409.8L124.9 410.7L124.7 410.8L123.4 408.7L122 406.6L120.1 407.8L118.2 409L118.9 410.2L119.6 411.4L119.5 411.5L112.7 400.7V397.8H112.2V397.7H112V397.3H112.2V397.2H112.8V396.6L112.7 396.2ZM140.3 397.5L141 398.6L139.9 399.3L139.2 398.2L140.3 397.5ZM136.7 399.8L137.4 400.9L136.3 401.6L135.6 400.5L136.7 399.8ZM133 402.1L133.7 403.2L132.6 403.9L131.9 402.8L133 402.1ZM145.7 405.9L146.4 407L145.3 407.7L144.6 406.6L145.7 405.9ZM142 408.2L142.7 409.3L141.6 410L140.9 408.9L142 408.2ZM138.3 410.5L139 411.6L137.9 412.3L137.2 411.2L138.3 410.5ZM125.6 411.9L126.9 413.9L128.8 416.9L129.4 417.9L129.9 418.3L130.3 418.5L130.8 418.7L131.1 418.8H131.6H132.1L135.2 416.8L135.1 416.7L135.5 416.4L137.1 418.9L138.7 418L140.5 420.8L139.5 422.9L139.2 422.7H139.1L139 423L138.9 423.3L138.6 423.2L138.3 423.8L138 424.4L138.1 424.5H138.2L138.1 424.8L138 425.2L138.4 425.4L137.6 427.1L137 427L136.9 427.3L136.7 427.6H136.6H136.5L136.2 428.2L135.9 428.8L136 428.9L136.1 429L135.9 429.3L135.7 429.6L136.1 429.8L135.1 431.9L135.5 432.1L135.9 432.3L135.8 432.5L135.7 432.7L135.2 432.5L134.6 432.3L134.5 432.5L134.4 432.7H134.3H134.2V432.8L134.1 432.9L134 432.8L133.9 432.7V432.6V432.5H133.8L133.9 432.3L134 432.1L133.7 432L132.4 431.4L131.4 430.9L128.6 426.6L119.7 412.6L119.9 412.5L120.7 413.7L121.5 414.9L122.7 414.2L123.9 413.5L124 413.6L122.8 414.3L121.6 415.1L126.1 422.2L129.9 419.7L126.7 414.6L125.5 412.7L125.2 412.9L124.9 413.1L124.8 413L125.1 412.8L125.4 412.6L125.3 412.4L125.2 412.2L125.6 411.9ZM145.5 415.1L146.4 415.2L147 415.4L149.1 416.4L148.5 417.6L146.4 416.5L145.5 416.2H144.5L143.6 416.4L142.8 416.8L142.2 415.7L143.2 415.2L144.4 415L145.5 415.1Z" fill="#D2D7DB" stroke="#303030" stroke-width="0.15" stroke-miterlimit="10"/>
<path d="M264.1 459.8V455.8H264.7V455.5H249.1V461.6H242.7H236.3V448.8H249V450.6V452.4H252.9H256.9V452.2H257.6V451.7H256.9V449.6H259.9V451.7H259.2V452.2H259.9V452.4H264.3H268.6V454V455.5H267.2V455.8H267.9V463.8H264L264.1 459.8Z" fill="#D2D7DB" stroke="#303030" stroke-width="0.15" stroke-miterlimit="10"/>
</g>
<defs>
<clipPath id="clip0_2_6899">
<rect width="348.9" height="488.4" fill="white"/>
</clipPath>
</defs>
</svg>
