<svg width="349" height="489" viewBox="0 0 349 489" fill="none" xmlns="http://www.w3.org/2000/svg">
<path d="M127.5 416.8L124.3 411.8L122.8 409.4L126.5 407.1L130.3 404.7L129.3 403.1L128.3 401.5L129.6 400.7L130.9 399.9L129.9 398.4L129 397H123V397.5H122.5V397.8H122.2V397.9H122.8V399.9H120.4V397.9H121V397.8H120.8V397.5H120.3V397H118.4V397.5H115.6V397H113.4V391.4H122.8V386.8H124.7V386.5H123.9V383H115.1V379.4H127.1V386.5H126.5V386.8H133.2V389.9H133.6V387.2L135.6 385.2L137.6 383.2H146.3V386.7V387.6L146.4 388.8L146.5 389.8L146.6 390.5L146.8 391.2L147 392.1L147.1 392.3L134.3 396.2L133.9 395.6L133.5 395H133.3H133.1L135.5 398.9L138 402.8L138.1 402.7L138.3 402.6H138.4L136.6 399.8L134.8 397L147.3 393.2L147.5 393.7L147.8 394.4L148.1 395.1L148.3 395.5L148.5 395.9L148.7 396.4L148.9 396.8L149 397.1L149.1 397.3L149.4 397.8L149.7 398.2V398.3L150.2 399.1L150.3 399.3L151 400.3L151.7 401.2L152 401.5L152.4 401.9L152.7 402.3L144.3 412.2L140.8 406.6L140.6 406.7L140.4 406.8L144.7 413.7L140.6 416L139.7 414.6L137.2 416.2L135.2 413.1L132.4 414.9L133.3 416.2L128.6 419.2L127.5 416.8Z" fill="#70777F"/>
</svg>
