<svg width="349" height="489" viewBox="0 0 349 489" fill="none" xmlns="http://www.w3.org/2000/svg">
<path d="M75.2 163.3V161H74.2V148.9H68.9V148.8L68.7 146.5L68.5 144.2V144.1H79V161.1H77V162.5V161.7H78.8V165.8H75.1L75.2 163.3Z" fill="#ACB1B5" stroke="#3D3D3D" stroke-width="0.05" stroke-miterlimit="10"/>
<path d="M274.3 209.9V202.6H274.1V216.8H268.9V216.7V216.3V215.9V215.4V214.9L268.8 214.5L268.7 214.1L268.5 213.5L268.3 212.9L267.7 211.7L267.1 210.5L266.5 209.6L265.9 208.7L265.2 207.9L264.5 207.1L263.9 206.6L263.3 206.1L260.8 204.1L256.6 200.8L254.9 199.5L254.5 199.1L254 199L253.7 198.6L253.4 198.2L253.1 197.7L252.8 197.2L252.6 196.7L252.4 196.2L252.2 195.2L252 194.2V193V191.8L252.1 191.2L252.4 189.1L252.7 187.5L253 186.3L253.6 183.9L253.9 182.8H259.6H265.3V184.5H265.5V182.9H266.6V182.7H254L256.1 173.5L258.3 163.7H269.5V182.7H267.6V182.9H269.8V182.7L271.6 180H273.2V179.5V178.6H273V178.9V179.2H271V176.8H273V177.3H273.1V176.5H278V181.5H279.3V179H283.9V175.4H288.8V173.8H288.6V172.5H289.4V172.4H288.8H283.2H278.2V169.5H293.5V173.8H291.7V175.4H295.7V194.4L291.2 198.7L286.7 203H283.2H279.7V201.6H279.5V202.9H278V209.2H279.4V212.7H278V217.1H274.3V209.9ZM274.3 200.3V198.9L273.8 198.4L265.4 195.3V190.3V185.3H265.2V195.5L273.8 198.6L274.1 198.9V201.7H274.3V200.3ZM279.6 199.9V199.2H283.8L285.9 197.2L288 195.2L287.4 194.5H285.9H284.4V186H279.2V184H277.9V184.5L276.8 186.2L275.7 187.9H272.4L270.8 188.7L269.2 189.5V191.1V192.7L273.5 194.2L277.9 195.7V199.3H279.3V200.6H279.5L279.6 199.9Z" fill="#ACB1B5" stroke="#3D3D3D" stroke-width="0.05" stroke-miterlimit="10"/>
<path d="M121.8 238.7L117.4 234.3V225H117.2V227.1H114.8V226.9H114.6V229.2H113.3H112.1H112.2V226.8H112.1V222.9H117.2V223.4H117.4V211.9H129.9V215.3H129.8V215.5H126.5L123.7 218.3L120.9 221.1V232.4L128.7 240.3H140L142.8 237.5L145.6 234.7V231.4H145.7V231.3H147.5H149.3H149.4V237.6V243.9H138.2H127L121.8 238.7Z" fill="#ACB1B5" stroke="#3D3D3D" stroke-width="0.05" stroke-miterlimit="10"/>
<path d="M193.7 281V275H185.7V251H200.7V262.1H197.7V268.9H198.5V268.8H199.5V268.9H200.7V268.8H201.8V268.9H204.8V268.6H203.5V261H213.2V261.1V264.9V268.6H212V268.9H214.8V276.4H212.7V276.8H213.3V278.8H210.9V276.8H211.4V276.4H209.3V276.5H208V276.4H206.1V272.9H205.4V273.1H205.8V277.1H197.8V273.1H201.3V274.9H200.4V275.3H203.3V274.9H202.1V273.1H203H203.8V272.9H197.7V275.8V278.7H198V278.2H203V284.3H198V283.8H197.7V286.8H193.7V281Z" fill="#ACB1B5" stroke="#3D3D3D" stroke-width="0.05" stroke-miterlimit="10"/>
<path d="M134.4 299.9V296.9H137.1V295.9H136.8V296.6H133.8V295.8V292.7V290.3H119.5V290H119.4V287.6H119.5V287.3H128.5V287.1H127.8L127.6 286.9L127.4 286.7V284.3L127.6 284.1L127.8 283.9H131.8V283.7H129.1V283.3H125.8V273H122.9L122.7 272.8L122.5 272.6V271.3V270L122.7 269.8L122.9 269.6H124.3H125.8V262.4L126.1 262.2L126.4 262H149.5V287H145.8V283.8H145.5V287H141.4V283.8H141V287H136.9V283.8H133.9V284H134.6V286.6L134.4 286.8L134.2 287H129.8V287.2H136.1V293.1H137.1V294.2H137.4V293.1H141.2V294.1H144V293.7H149.1V302.2H143.9V296.4H141.3V298.4V302.7H134.7V299.9H134.4ZM146.5 298.1V296.8H146.3V299.5H146.5V298.1Z" fill="#ACB1B5" stroke="#3D3D3D" stroke-width="0.05" stroke-miterlimit="10"/>
<path d="M116.7 328.7V326.3H117.3V324.9H122V326.3H126.9V324.9H138.8L139.2 324.5L139.6 324.1V312.2H140.9V307.3H139.6V304.1H140.8L140.7 303.1H143.3V308.2H145V313.7V319.2L145.4 319.4L145.8 319.6V326.4L143.4 328.8L141 331.2H128.8H116.6V328.7H116.7Z" fill="#ACB1B5" stroke="#3D3D3D" stroke-width="0.05" stroke-miterlimit="10"/>
<path d="M151.1 351.8V350.8H155.8V350.5H153.8V343H155V342.8H151.8V340.7H152.3H152.8L153.2 340.6H153.6H154L154.6 340.7H156.3H157.9V340.8H158V346.6V352.4H157.9V352.9H151.1V351.8Z" fill="#ACB1B5" stroke="#3D3D3D" stroke-width="0.05" stroke-miterlimit="10"/>
<path d="M139.3 439.7L129.9 435.3L107.8 400.3V379.5H114.6H121.4H123.2H125V377H127V384.7H123.8V383.2H123.4V384.2V385.9V386.6L122.8 387H123.9H125V390.5H113.1V400.6L119.8 411.2L119.9 411.1L117.8 407.7L125.8 402.6L127.3 405L127.8 404.7L134.2 414.8L133.7 415.1L135.5 418L127.5 423L120.5 411.9L120.4 412L131.9 430.2L141.1 434.6L144.3 427.9L146.2 423.9L149.4 425.4L148.5 427.2V427.3L148.6 427.4L149.1 427.2L152 428.6L152.2 428.2L150.7 427.5L152.1 424.6L156.9 426.9L148.6 444.4L139.3 439.7Z" fill="#ACB1B5" stroke="#3D3D3D" stroke-width="0.05" stroke-miterlimit="10"/>
</svg>
