<svg width="349" height="489" viewBox="0 0 349 489" fill="none" xmlns="http://www.w3.org/2000/svg">
<path d="M163.5 55V66.7H162.4V62.3H156.2V78.4H155.5V114.5H157V120.2H155.5V126.5H156.5V127.5V130.1V131.2H155.5V132.6H156.6V134.2H155.5V136.1H155V147.1H155.4V148.5H155.6V160.5H155.5V161.9H157.1V168.5H155.5V174.4H155.8V176.8H142.3V173.4H95.7V183.5H106.1V195.8H95.7V204.6H142.2V203.6H153.9V202.9H155.8V204.8H155.5V211H156.8V216.6H155.5V259.8H156.9V264.2H155.5V281.2H155.2V291.2H155.5V301.1H155.2V313.1H155.5V314.3H180.1V293.9H179.7V291H180.1V286.4V280.8H178.7V279.2H180V274.3H179.8V264.2H178.2V260.1H179.8V234.4H192.5V225.7H179.8V216.1H178.2V211.4H179.8V167.8H178.2V163.7H179.8V148.5H178.9V146.4H179.8V120.2H178.5V114.4H179.8V98.8H200.6V87.7H179.8V84.3H180.5V79.8H180.2V78.9H180.5V74.3H179.8V55H171.7H163.5Z" fill="#999999"/>
<path d="M155.5 296.1H155.3V293.6H154.9H151.8H149.2V299.3H148.9V293.8H143.9V302.2H148.9V302H149.2V302.3H152.9V300.5H153.8V299.9H155.3V298.7H155.5" fill="#D1D1D1"/>
<path d="M186.4 267.3L179.9 267.4V268.1H179.7V270.8H179.9V271.5H184.9V274.2H188.7V271.5H193.6V287.2H188.7V287.9H188.4V283.4H186V280H180.5V280.9H180.1V286.5H180V291.1H180.2V292.7H188.5V290.6H188.8V291.3H193.7V292.8H197.7V284.7H202.9V283.5H203.1V279.4H202.9V278.2H197.7V276.5H198V277.2H205.9V273.2H198V273.9H197.7V267.4H192L186.4 267.3Z" fill="#D1D1D1"/>
<path d="M142.4 167.5V173.6H142.3V175.1H142.4V175.8H146.3H150.2V168.9H146.7V167.5H144.6H142.4Z" fill="#D1D1D1"/>
<path d="M147 162.2V168.8H154.9V167.5H156.5V167H157.1V164H156.5V163.7H155V162.1H151H147V162.2Z" fill="#D1D1D1"/>
<path d="M180.2 146.6V149.5H179.7V159.1H185.7V146.6H183H180.2Z" fill="#D1D1D1"/>
<path d="M142.4 127V130.4H137V131.3H136.8V130.2H132V134H133.1V134.3H132.5V142.2H136.4V134.3H135.7V134H136.8V132.9H137V134H146.7V130.5H149.3V130.8H149.8H150.6H150.8V130.5H155.4V130.1H156.5V127.5H155.4V127H148.9H142.4Z" fill="#D1D1D1"/>
<path d="M155 113.9H151.8H147.7H147V116H146.8V118.7H147V120.6H155V118.8H157V115.7H155V114.8V113.9Z" fill="#D1D1D1"/>
<path d="M154.8 24C154.7 24 154.6 24 154.5 24C154.1 24 153.7 24.1 153.3 24.2C153 24.3 152.7 24.4 152.4 24.5C152.1 24.6 151.9 24.8 151.6 24.9C151.2 25.1 150.8 25.4 150.5 25.7C150.2 26 149.9 26.3 149.7 26.6C149.5 26.9 149.2 27.2 149.1 27.6C148.8 28.1 148.6 28.6 148.4 29.1C148.1 29.7 147.9 30.4 147.9 31V64H154V33.3H156.4V54.9H156.2V78.3H155.5V83.8H163.1V115.3H156.9V119.3H163.1V136H155V147H163.1V163.5H157.1V167.5H163.1V178.6H95.7V182.2H155.3V197.1H95.7V200.9H163.1V212H156.9V215.2H163.1V219.3H155.5V230.6H163.1V259.8H156.9V263.8H163.1V280.9H155.3V291H163.1V308.1H156.6V311.9H163.1V314H172.1V311.9H180V307.9H172.1V291H180V280.9H172.1V279.1H179.9V274.2H172.1V263.9H178.1V260.4H172.1V215.8H178.1V211.8H172.1V167.6H178V164H172.1V159.1H179.7V149.5H172.1V119.2H178.4V115.3H172.1V97.2H200.5V89.3H172.1V84.3H180.3V74.3H172.1L172.2 60.5L172.5 58.4L173.4 55.6L174 54.7H164.7L164.1 57.2L163.5 60.5V66.8H162.4V49V31.2C162.4 30.7 162.3 30.3 162.2 30C162.1 29.6 161.9 29.2 161.8 28.8C161.6 28.3 161.4 27.8 161.1 27.4C160.9 27 160.6 26.7 160.3 26.4C160 26.1 159.7 25.8 159.4 25.6C159.1 25.4 158.8 25.2 158.4 25C157.9 24.8 157.4 24.5 156.9 24.4C156.5 24.3 156.2 24.2 155.8 24.2C155.6 24.2 155.4 24.2 155.2 24.2C155.1 24 155 24 154.8 24Z" fill="#6D747C"/>
</svg>
