<svg width="358" height="596" viewBox="0 0 358 596" fill="none" xmlns="http://www.w3.org/2000/svg">
<path d="M151.9 73.8001L163.7 58.2001C165.4 55.9001 168.5 55.0001 171.2 55.9001L182.1 59.7001L191 56.0001C193.5 55.0001 196.4 55.6001 198.3 57.5001L212.9 72.4001V76.9001L221 107.8C222.9 115.2 224.3 122.8 225.1 130.4L228.1 159.9L230 192.2C230.2 196.4 230.4 200.7 230.4 204.9V432.8C230.4 437.5 230.2 442.3 229.8 447L229.3 452.8C228.3 464.9 225.6 476.7 221.1 488L216.4 499.9C212.7 509.2 207.9 518 202 526.2L191 541.3C187.3 546.4 179.8 546.7 175.7 542L166.7 531.6C156.9 520.4 149.4 507.3 144.6 493.2L139.9 479.3C136.8 470.1 134.9 460.6 134.3 450.9L133.2 433.7C133 430.8 132.9 427.9 132.9 425V210.2C132.9 204.1 133.1 198.1 133.4 192L135.1 163.9C135.5 157.1 136.2 150.3 137.1 143.5L140.6 118.2C142 107.8 144.5 97.6001 148 87.7001L151.7 77.2001L151.9 73.8001Z" fill="#939393" stroke="black" stroke-miterlimit="10"/>
<path d="M217.8 156.4H204.2V167.7H217.8V156.4Z" fill="#D3D3D3"/>
<path d="M166.1 159.3H172.3V137.6H190.6V106.4H172.3H166.1H160.5L158.4 112.2H166.1V124.9H156.7V144.6H166.1V159.3Z" fill="#D3D3D3"/>
<path d="M187.4 231.8V233.6H176.2V232.1H172V233.4H169.8V235.9H167.3V231.8H161V240.9H202.7V231.8H196.5V236.1H193.9V231.8H187.4Z" fill="#D3D3D3"/>
<path d="M223.6 355.1L229.1 355V312.8H224.2V306.2H225.7V290.1H224.1V283.5H213.5V258.2H215.1V254H213.6V240.9H204.2V247.7H207.4V267.5H204.3V290.2H207.3V306.3H204.4V312.9H159.2V306.3H156.4V290H159.2V267.8H156.3V247.3H159.2V240.9H149.8V255.1H148.4V260.2H149.9V283.6H139.4V290.2H138V306.3H139.4V312.9H133.8V355.2H145.9V382.1H144V387.4H145.9V389.7V426.6H143.9V431.3H145.9V451.6L151.1 472.8H165.3H166.4H174.3V462.2H178.5V472.8H212.9L218.1 451.6H227.3L228.9 445.1H218V412.9H219.8V408.9H218V374.7H217.3V355.1H223.6ZM152.7 319.1H154.9V320.1H159.8V318.8H162.8V322.7H182.6V319H186.5V322H200.3V319H203.5V320.4H208.6V319H210.8V339.3V344H200V348.9H204.9V354.9H196.3V358.3H184.8V359.4H181.7V358.3H177.5V339.6H152.6V319.1H152.7ZM187.3 364.5V371.9H166.4V356.3H171.3V364.5H187.3ZM166.5 426.2V426.6V436.1H166.4H165.3H152V411.2H166.5V426.2ZM212 445.4H197.2V426.6H203.3V411.8H212V445.4ZM212 403.7H151.9V389.6H166.4V393.4H170.9V394.7H192.6V393.4H197.3V390H212V382.1H197.4V364.6H204.9V361H210.9H211V361.7H209.7V367.1H211V374.8H212V403.7ZM216.9 349.1V339.4V335.3H223L222.9 349.1H216.9Z" fill="#D3D3D3"/>
<path d="M207.4 267.5V247.7H204.2V240.9H159.2V247.3H156.3V267.8H159.2V290H156.4V306.3H159.2V312.9H204.4V306.3H207.3V290.2H204.3V267.5H207.4ZM197.9 305.6H165.4V247.2H197.9V305.6Z" fill="#9A9A8C"/>
<path d="M154.2 138.9H150.7V148H154.2V138.9Z" fill="#DBD8B9"/>
<path d="M160.5 130H157.3V139.7H160.5V130Z" fill="#DBD8B9"/>
<path d="M212.9 138.8H209.8V148.2H212.9V138.8Z" fill="#DBD8B9"/>
<path d="M182.642 131.928V128.728H172.942V131.928H182.642Z" fill="#DBD8B9"/>
<path d="M187.841 240.369V237.169H177.541V240.369H187.841Z" fill="#DBD8B9"/>
<path d="M186.835 244.369V241.369H176.735V244.369H186.835Z" fill="#DBD8B9"/>
<path d="M186.743 312.26V309.76H177.543V312.26H186.743Z" fill="#DBD8B9"/>
<path d="M177.447 322.092V319.092H168.247V322.092H177.447Z" fill="#DBD8B9"/>
<path d="M210.32 348.277V344.877H200.72V348.277H210.32Z" fill="#DBD8B9"/>
<path d="M141.5 241.5H138V251.9H141.5V241.5Z" fill="#DBD8B9"/>
<path d="M165.1 253.7H162V262.2H165.1V253.7Z" fill="#DBD8B9"/>
<path d="M201.6 253.7H198.5V262.2H201.6V253.7Z" fill="#DBD8B9"/>
<path d="M225.7 241.4H222.1V250.6H225.7V241.4Z" fill="#DBD8B9"/>
<path d="M208.2 275.2H205.1V285.1H208.2V275.2Z" fill="#DBD8B9"/>
<path d="M158.4 275.2H155.3V285.1H158.4V275.2Z" fill="#DBD8B9"/>
<path d="M201.6 292.8H198.5V301.3H201.6V292.8Z" fill="#DBD8B9"/>
<path d="M165.1 292.8H162V301.3H165.1V292.8Z" fill="#DBD8B9"/>
<path d="M185.3 411.1L187.6 416.4C179 420 170.3 416.8 170.3 416.8L172.1 411.1C172.1 411.1 177.6 414.4 185.3 411.1Z" fill="#DBD8B9"/>
<path d="M198 247.2H165.6V305.6H198V247.2Z" fill="#4F4F4F"/>
<path d="M222.8 335.3H216.9V349.1H222.8V335.3Z" fill="#4F4F4F"/>
<path d="M197.4 393.6H192.7V394.7H170.9V393.6H166.2V389.7H151.9V394.7V399.2V403.7H197.4H198.7H212V390H197.4V393.6Z" fill="#4F4F4F"/>
<path d="M166.3 411.2H151.9V436.1H166.3V411.2Z" fill="#4F4F4F"/>
<path d="M171.3 364.5V356.4H166.3V372H170.8H171.3H187.3V364.5H171.3Z" fill="#4F4F4F"/>
<path d="M208.4 319.1V320.5H203.4V319H200.1V322H186.4V319.1H182.5V322.7H162.7V318.9H159.5V320.1H154.8V319.1H152.7V339.5H177.6V358.2H181.7V359H184.8V358.2H196.3V354.8H204.9V348.9H200V344H210.6V323.7V319.1H208.4Z" fill="#4F4F4F"/>
<path d="M211 374.7V366.8H209.8V361.6H210.9V360.9H209.8H209.1H204.9V364.5H197.4V374.7V376.7V382.1H204.9H206H209.8H211H212V374.7H211Z" fill="#4F4F4F"/>
<path d="M197.2 426.6V445.4H212V427.7V426.6V411.8H203.4V426.6H197.2Z" fill="#4F4F4F"/>
<path d="M230.3 355V261H229.1H229H222V260.9V258.3V196.7L217.8 189.9V167.9H204.2V159.2V156.6H217.9V150.4C217.9 149.2 216.9 148.2 215.7 148.2H209.6V124.1L203.4 106H203H190.6V137.6H172.3V159.2H166.1V151.5V150.6V144.6H156.7V124.8H166.2V112.1H158.4L154.2 123.1V148H147.6C146.5 148 145.6 148.9 145.6 150V159.2V164.8V189.2L141.6 196.9V228.5V240.8V261.1H137.2V261.2H133.4V306.3V306.8V312.8H133V361.7H133.4V380.6H133.1V387.3H133V423.6V426.4V431.2L134.9 457L136.9 468.3L145.5 495.4L149.1 504.1L157 518.4L168.5 533.4L173.6 539.3L178.7 544.1L181.8 545.1L186.3 544.7L191.1 541.2L197.9 531.9L206.2 520.2L215.4 503.3L226.6 472.7H178.3V462.1H174.3V472.7H151.2L145.8 451.5V431.2H143.8V426.4H145.8V387.3H143.8V382H145.8V355.1H133.7V312.8H139.3V306.3H138V290.1H139.3V283.5H149.8V261.6V261.1V260.1H148.3V255H149.8V240.9H161V231.8H167.3V235.9H169.8V233.4H172V232H176.3V233.5H187.4V231.8H193.9V236H196.4V231.8H202.7V240.9H213.6V254H215.1V258.3H213.5V261V264V283.6H224.3V290.2H225.7V306.3H224.2V312.9H229V355H217.2V374.6H217.9V408.8H219.7V412.8H218V445H228.8L227.2 451.5H218L212.8 472.7H226.1L229.1 457L230.4 445V412.8V408.8V402.2V374.6V372.9V355H230.3Z" fill="#4F4F4F"/>
<path d="M212.5 76.9C204.9 66.2 198.6 61.1 198.6 61.1H166.1C158.3 65.9 152.3 77.4 152.3 77.4L151.9 73.8L164.4 57.3L168.7 55.5L173.1 56.6L182.1 59.8L192 56L194.4 55.6L196.6 56.3L212.8 72.4L212.5 76.9Z" fill="#4F4F4F"/>
<path d="M183.3 106.4H160.5L154.1 123.2V148H147.5C146.4 148 145.5 148.9 145.5 150V154.5" stroke="black" stroke-width="0.25" stroke-miterlimit="10"/>
<path d="M217.8 156.6V150.1C217.8 149 216.9 148.2 215.9 148.2H209.5V124.1L203.3 106H190.5" stroke="black" stroke-width="0.25" stroke-miterlimit="10"/>
<path d="M162.7 240.9H149.7V255.1H148.3V260.2H149.8V283.6H139.3V290.1H138V306.3H139.4V312.9" stroke="black" stroke-width="0.25" stroke-miterlimit="10"/>
<path d="M161 240.9V231.8H167.3V235.9H169.8V233.4H172V232.1H176.2V233.6H187.4V231.8H193.9V236.1H196.5V231.8H202.7V240.9" stroke="black" stroke-width="0.25" stroke-miterlimit="10"/>
<path d="M165.699 240.9H197.999" stroke="black" stroke-width="0.25" stroke-miterlimit="10"/>
<path d="M201.1 240.9H213.6V254H215.1V258.3H213.5V283.6H215.1" stroke="black" stroke-width="0.25" stroke-miterlimit="10"/>
<path d="M162.699 317.4V322.7H182.499V319.1H186.299V322.1H200.099V317.4" stroke="black" stroke-width="0.25" stroke-miterlimit="10"/>
<path d="M159.1 242.7V240.9" stroke="black" stroke-width="0.25" stroke-miterlimit="10"/>
<path d="M159.7 272.3H159.1V290H156.3V306.3H159.1V308" stroke="black" stroke-width="0.25" stroke-miterlimit="10"/>
<path d="M159.099 245.7V247.3H156.199V267.8H159.099V269.1H159.499" stroke="black" stroke-width="0.25" stroke-miterlimit="10"/>
<path d="M159.1 311.1V312.9" stroke="black" stroke-width="0.25" stroke-miterlimit="10"/>
<path d="M154.8 312.9H208.9" stroke="black" stroke-width="0.25" stroke-miterlimit="10"/>
<path d="M208.799 267.5H204.299V269.4H203.899" stroke="black" stroke-width="0.25" stroke-miterlimit="10"/>
<path d="M211.899 267.5H213.499" stroke="black" stroke-width="0.25" stroke-miterlimit="10"/>
<path d="M207.3 290.1H208.8" stroke="black" stroke-width="0.25" stroke-miterlimit="10"/>
<path d="M204.199 245.8V247.7H207.399V267.5" stroke="black" stroke-width="0.25" stroke-miterlimit="10"/>
<path d="M204.199 242.7V240.9" stroke="black" stroke-width="0.25" stroke-miterlimit="10"/>
<path d="M215.1 307.8V306.3H213.8L213.7 290.1H211.8" stroke="black" stroke-width="0.25" stroke-miterlimit="10"/>
<path d="M151.599 267.4H149.699" stroke="black" stroke-width="0.25" stroke-miterlimit="10"/>
<path d="M154.5 267.4H156.2" stroke="black" stroke-width="0.25" stroke-miterlimit="10"/>
<path d="M156.3 289.9H149.7V306.2H148.3V308" stroke="black" stroke-width="0.25" stroke-miterlimit="10"/>
<path d="M162.699 314.4V312.9" stroke="black" stroke-width="0.25" stroke-miterlimit="10"/>
<path d="M200.1 314.5V312.9" stroke="black" stroke-width="0.25" stroke-miterlimit="10"/>
<path d="M204.4 307.8V306.3H207.3V290.1H204.5V272.2H204" stroke="black" stroke-width="0.25" stroke-miterlimit="10"/>
<path d="M204.399 311V312.9" stroke="black" stroke-width="0.25" stroke-miterlimit="10"/>
<path d="M147.1 451.6H145.8V431.3H143.8V426.6H145.8V387.3H143.9V382.1H145.8V355.2H133.8V312.9H151.5" stroke="black" stroke-width="0.25" stroke-miterlimit="10"/>
<path d="M217.999 445.1V412.9H219.799V408.9H217.999V374.6H217.199V355" stroke="black" stroke-width="0.25" stroke-miterlimit="10"/>
<path d="M166.3 437.3V407.4" stroke="black" stroke-width="0.25" stroke-miterlimit="10"/>
<path d="M197.4 404.7V403.7H166.5V404.6" stroke="black" stroke-width="0.25" stroke-miterlimit="10"/>
<path d="M197.4 383.3V364.5H171.4V356.4H166.3" stroke="black" stroke-width="0.25" stroke-miterlimit="10"/>
<path d="M197.199 407.6V420.8" stroke="black" stroke-width="0.25" stroke-miterlimit="10"/>
<path d="M191.399 418.7V412.2H192.399V413.4H196.199V412.2H197.199V418.7H191.399Z" fill="black"/>
<path d="M197.199 418.7H166.199" stroke="black" stroke-width="0.25" stroke-miterlimit="10"/>
<path d="M177.599 319.1H168.199V322.1H177.599V319.1Z" stroke="black" stroke-width="0.25" stroke-miterlimit="10"/>
<path d="M186.8 309.7H177.6V312.3H186.8V309.7Z" stroke="black" stroke-width="0.25" stroke-miterlimit="10"/>
<path d="M210.299 344.9H200.699V348.3H210.299V344.9Z" stroke="black" stroke-width="0.25" stroke-miterlimit="10"/>
<path d="M208.3 275.2H205V285.1H208.3V275.2Z" stroke="black" stroke-width="0.25" stroke-miterlimit="10"/>
<path d="M158.4 275.1H155.3V285H158.4V275.1Z" stroke="black" stroke-width="0.25" stroke-miterlimit="10"/>
<path d="M141.5 241.4H138V251.9H141.5V241.4Z" stroke="black" stroke-width="0.25" stroke-miterlimit="10"/>
<path d="M187.9 237.2H177.6V240.4H187.9V237.2Z" stroke="black" stroke-width="0.25" stroke-miterlimit="10"/>
<path d="M186.9 241.4H176.8V244.4H186.9V241.4Z" stroke="black" stroke-width="0.25" stroke-miterlimit="10"/>
<path d="M225.7 241.4H222V250.7H225.7V241.4Z" stroke="black" stroke-width="0.25" stroke-miterlimit="10"/>
<path d="M182.6 128.7H173V131.9H182.6V128.7Z" stroke="black" stroke-width="0.25" stroke-miterlimit="10"/>
<path d="M212.9 138.8H209.8V148.2H212.9V138.8Z" stroke="black" stroke-width="0.25" stroke-miterlimit="10"/>
<path d="M154.199 138.8H150.699V148H154.199V138.8Z" stroke="black" stroke-width="0.25" stroke-miterlimit="10"/>
<path d="M172.1 411.1C172.1 411.1 177.3 414.2 185.3 411.1V410.6H172.1V411.1Z" stroke="black" stroke-width="0.25" stroke-miterlimit="10"/>
<path d="M170.3 418.5V416.8C170.3 416.8 178.2 420.1 187.6 416.4V418.6" stroke="black" stroke-width="0.25" stroke-miterlimit="10"/>
<path d="M173.6 132V128.7" stroke="black" stroke-width="0.25" stroke-miterlimit="10"/>
<path d="M177.399 132V128.7" stroke="black" stroke-width="0.25" stroke-miterlimit="10"/>
<path d="M174.199 132V128.7" stroke="black" stroke-width="0.25" stroke-miterlimit="10"/>
<path d="M174.899 132V128.7" stroke="black" stroke-width="0.25" stroke-miterlimit="10"/>
<path d="M175.5 132V128.7" stroke="black" stroke-width="0.25" stroke-miterlimit="10"/>
<path d="M176.1 132V128.7" stroke="black" stroke-width="0.25" stroke-miterlimit="10"/>
<path d="M176.8 132V128.7" stroke="black" stroke-width="0.25" stroke-miterlimit="10"/>
<path d="M178.1 132V128.7" stroke="black" stroke-width="0.25" stroke-miterlimit="10"/>
<path d="M181.899 132V128.7" stroke="black" stroke-width="0.25" stroke-miterlimit="10"/>
<path d="M178.699 132V128.7" stroke="black" stroke-width="0.25" stroke-miterlimit="10"/>
<path d="M179.3 132V128.7" stroke="black" stroke-width="0.25" stroke-miterlimit="10"/>
<path d="M180 132V128.7" stroke="black" stroke-width="0.25" stroke-miterlimit="10"/>
<path d="M180.6 132V128.7" stroke="black" stroke-width="0.25" stroke-miterlimit="10"/>
<path d="M181.199 132V128.7" stroke="black" stroke-width="0.25" stroke-miterlimit="10"/>
<path d="M178.3 240.4V237.2" stroke="black" stroke-width="0.25" stroke-miterlimit="10"/>
<path d="M182.1 240.4V237.2" stroke="black" stroke-width="0.25" stroke-miterlimit="10"/>
<path d="M178.899 240.4V237.2" stroke="black" stroke-width="0.25" stroke-miterlimit="10"/>
<path d="M179.5 240.4V237.2" stroke="black" stroke-width="0.25" stroke-miterlimit="10"/>
<path d="M180.199 240.4V237.2" stroke="black" stroke-width="0.25" stroke-miterlimit="10"/>
<path d="M180.8 240.4V237.2" stroke="black" stroke-width="0.25" stroke-miterlimit="10"/>
<path d="M181.399 240.4V237.2" stroke="black" stroke-width="0.25" stroke-miterlimit="10"/>
<path d="M182.8 240.4V237.2" stroke="black" stroke-width="0.25" stroke-miterlimit="10"/>
<path d="M186.6 240.4V237.2" stroke="black" stroke-width="0.25" stroke-miterlimit="10"/>
<path d="M187.199 240.4V237.2" stroke="black" stroke-width="0.25" stroke-miterlimit="10"/>
<path d="M183.399 240.4V237.2" stroke="black" stroke-width="0.25" stroke-miterlimit="10"/>
<path d="M184 240.4V237.2" stroke="black" stroke-width="0.25" stroke-miterlimit="10"/>
<path d="M184.699 240.4V237.2" stroke="black" stroke-width="0.25" stroke-miterlimit="10"/>
<path d="M185.3 240.4V237.2" stroke="black" stroke-width="0.25" stroke-miterlimit="10"/>
<path d="M185.899 240.4V237.2" stroke="black" stroke-width="0.25" stroke-miterlimit="10"/>
<path d="M178.5 244.4V241.3" stroke="black" stroke-width="0.25" stroke-miterlimit="10"/>
<path d="M177.899 244.4V241.3" stroke="black" stroke-width="0.25" stroke-miterlimit="10"/>
<path d="M177.3 244.4V241.3" stroke="black" stroke-width="0.25" stroke-miterlimit="10"/>
<path d="M182.3 244.4V241.3" stroke="black" stroke-width="0.25" stroke-miterlimit="10"/>
<path d="M179.1 244.4V241.3" stroke="black" stroke-width="0.25" stroke-miterlimit="10"/>
<path d="M179.8 244.4V241.3" stroke="black" stroke-width="0.25" stroke-miterlimit="10"/>
<path d="M180.399 244.4V241.3" stroke="black" stroke-width="0.25" stroke-miterlimit="10"/>
<path d="M181 244.4V241.3" stroke="black" stroke-width="0.25" stroke-miterlimit="10"/>
<path d="M181.699 244.4V241.3" stroke="black" stroke-width="0.25" stroke-miterlimit="10"/>
<path d="M183 244.4V241.3" stroke="black" stroke-width="0.25" stroke-miterlimit="10"/>
<path d="M183.6 244.4V241.3" stroke="black" stroke-width="0.25" stroke-miterlimit="10"/>
<path d="M184.199 244.4V241.3" stroke="black" stroke-width="0.25" stroke-miterlimit="10"/>
<path d="M184.899 244.4V241.3" stroke="black" stroke-width="0.25" stroke-miterlimit="10"/>
<path d="M185.5 244.4V241.3" stroke="black" stroke-width="0.25" stroke-miterlimit="10"/>
<path d="M186.1 244.4V241.3" stroke="black" stroke-width="0.25" stroke-miterlimit="10"/>
<path d="M178.3 312.3V309.7" stroke="black" stroke-width="0.25" stroke-miterlimit="10"/>
<path d="M182.199 312.3V309.7" stroke="black" stroke-width="0.25" stroke-miterlimit="10"/>
<path d="M178.899 312.3V309.7" stroke="black" stroke-width="0.25" stroke-miterlimit="10"/>
<path d="M179.6 312.3V309.7" stroke="black" stroke-width="0.25" stroke-miterlimit="10"/>
<path d="M180.199 312.3V309.7" stroke="black" stroke-width="0.25" stroke-miterlimit="10"/>
<path d="M180.899 312.3V309.7" stroke="black" stroke-width="0.25" stroke-miterlimit="10"/>
<path d="M181.5 312.3V309.7" stroke="black" stroke-width="0.25" stroke-miterlimit="10"/>
<path d="M182.8 312.3V309.7" stroke="black" stroke-width="0.25" stroke-miterlimit="10"/>
<path d="M183.399 312.3V309.7" stroke="black" stroke-width="0.25" stroke-miterlimit="10"/>
<path d="M184.1 312.3V309.7" stroke="black" stroke-width="0.25" stroke-miterlimit="10"/>
<path d="M184.699 312.3V309.7" stroke="black" stroke-width="0.25" stroke-miterlimit="10"/>
<path d="M185.3 312.3V309.7" stroke="black" stroke-width="0.25" stroke-miterlimit="10"/>
<path d="M186 312.3V309.7" stroke="black" stroke-width="0.25" stroke-miterlimit="10"/>
<path d="M169.1 322.1V319.1" stroke="black" stroke-width="0.25" stroke-miterlimit="10"/>
<path d="M172.899 322.1V319.1" stroke="black" stroke-width="0.25" stroke-miterlimit="10"/>
<path d="M169.699 322.1V319.1" stroke="black" stroke-width="0.25" stroke-miterlimit="10"/>
<path d="M170.3 322.1V319.1" stroke="black" stroke-width="0.25" stroke-miterlimit="10"/>
<path d="M171 322.1V319.1" stroke="black" stroke-width="0.25" stroke-miterlimit="10"/>
<path d="M171.6 322.1V319.1" stroke="black" stroke-width="0.25" stroke-miterlimit="10"/>
<path d="M172.199 322.1V319.1" stroke="black" stroke-width="0.25" stroke-miterlimit="10"/>
<path d="M173.5 322.1V319.1" stroke="black" stroke-width="0.25" stroke-miterlimit="10"/>
<path d="M174.199 322.1V319.1" stroke="black" stroke-width="0.25" stroke-miterlimit="10"/>
<path d="M174.8 322.1V319.1" stroke="black" stroke-width="0.25" stroke-miterlimit="10"/>
<path d="M175.399 322.1V319.1" stroke="black" stroke-width="0.25" stroke-miterlimit="10"/>
<path d="M176.1 322.1V319.1" stroke="black" stroke-width="0.25" stroke-miterlimit="10"/>
<path d="M176.699 322.1V319.1" stroke="black" stroke-width="0.25" stroke-miterlimit="10"/>
<path d="M201.5 348.3V344.9" stroke="black" stroke-width="0.25" stroke-miterlimit="10"/>
<path d="M205.3 348.3V344.9" stroke="black" stroke-width="0.25" stroke-miterlimit="10"/>
<path d="M202.1 348.3V344.9" stroke="black" stroke-width="0.25" stroke-miterlimit="10"/>
<path d="M202.699 348.3V344.9" stroke="black" stroke-width="0.25" stroke-miterlimit="10"/>
<path d="M203.399 348.3V344.9" stroke="black" stroke-width="0.25" stroke-miterlimit="10"/>
<path d="M204 348.3V344.9" stroke="black" stroke-width="0.25" stroke-miterlimit="10"/>
<path d="M204.6 348.3V344.9" stroke="black" stroke-width="0.25" stroke-miterlimit="10"/>
<path d="M206 348.3V344.9" stroke="black" stroke-width="0.25" stroke-miterlimit="10"/>
<path d="M206.6 348.3V344.9" stroke="black" stroke-width="0.25" stroke-miterlimit="10"/>
<path d="M207.199 348.3V344.9" stroke="black" stroke-width="0.25" stroke-miterlimit="10"/>
<path d="M207.899 348.3V344.9" stroke="black" stroke-width="0.25" stroke-miterlimit="10"/>
<path d="M208.5 348.3V344.9" stroke="black" stroke-width="0.25" stroke-miterlimit="10"/>
<path d="M209.1 348.3V344.9" stroke="black" stroke-width="0.25" stroke-miterlimit="10"/>
<path d="M209.8 348.3V344.9" stroke="black" stroke-width="0.25" stroke-miterlimit="10"/>
<path d="M150.699 139.4H154.199" stroke="black" stroke-width="0.25" stroke-miterlimit="10"/>
<path d="M150.699 143.3H154.199" stroke="black" stroke-width="0.25" stroke-miterlimit="10"/>
<path d="M150.699 140H154.199" stroke="black" stroke-width="0.25" stroke-miterlimit="10"/>
<path d="M150.699 140.7H154.199" stroke="black" stroke-width="0.25" stroke-miterlimit="10"/>
<path d="M150.699 141.3H154.199" stroke="black" stroke-width="0.25" stroke-miterlimit="10"/>
<path d="M150.699 142H154.199" stroke="black" stroke-width="0.25" stroke-miterlimit="10"/>
<path d="M150.699 142.6H154.199" stroke="black" stroke-width="0.25" stroke-miterlimit="10"/>
<path d="M150.699 143.9H154.199" stroke="black" stroke-width="0.25" stroke-miterlimit="10"/>
<path d="M150.699 147.7H154.199" stroke="black" stroke-width="0.25" stroke-miterlimit="10"/>
<path d="M150.699 144.5H154.199" stroke="black" stroke-width="0.25" stroke-miterlimit="10"/>
<path d="M150.699 145.2H154.199" stroke="black" stroke-width="0.25" stroke-miterlimit="10"/>
<path d="M150.699 145.8H154.199" stroke="black" stroke-width="0.25" stroke-miterlimit="10"/>
<path d="M150.699 146.4H154.199" stroke="black" stroke-width="0.25" stroke-miterlimit="10"/>
<path d="M150.699 147.1H154.199" stroke="black" stroke-width="0.25" stroke-miterlimit="10"/>
<path d="M157.199 130.7H160.599" stroke="black" stroke-width="0.25" stroke-miterlimit="10"/>
<path d="M157.199 134.6H160.599" stroke="black" stroke-width="0.25" stroke-miterlimit="10"/>
<path d="M157.199 131.4H160.599" stroke="black" stroke-width="0.25" stroke-miterlimit="10"/>
<path d="M157.199 132H160.599" stroke="black" stroke-width="0.25" stroke-miterlimit="10"/>
<path d="M157.199 132.6H160.599" stroke="black" stroke-width="0.25" stroke-miterlimit="10"/>
<path d="M157.199 133.3H160.599" stroke="black" stroke-width="0.25" stroke-miterlimit="10"/>
<path d="M157.199 133.9H160.599" stroke="black" stroke-width="0.25" stroke-miterlimit="10"/>
<path d="M157.199 135.2H160.599" stroke="black" stroke-width="0.25" stroke-miterlimit="10"/>
<path d="M157.199 139H160.599" stroke="black" stroke-width="0.25" stroke-miterlimit="10"/>
<path d="M157.199 135.8H160.599" stroke="black" stroke-width="0.25" stroke-miterlimit="10"/>
<path d="M157.199 136.5H160.599" stroke="black" stroke-width="0.25" stroke-miterlimit="10"/>
<path d="M157.199 137.1H160.599" stroke="black" stroke-width="0.25" stroke-miterlimit="10"/>
<path d="M157.199 137.7H160.599" stroke="black" stroke-width="0.25" stroke-miterlimit="10"/>
<path d="M157.199 138.4H160.599" stroke="black" stroke-width="0.25" stroke-miterlimit="10"/>
<path d="M222 245.4H225.7" stroke="black" stroke-width="0.25" stroke-miterlimit="10"/>
<path d="M222 242.2H225.7" stroke="black" stroke-width="0.25" stroke-miterlimit="10"/>
<path d="M222 242.8H225.7" stroke="black" stroke-width="0.25" stroke-miterlimit="10"/>
<path d="M222 243.4H225.7" stroke="black" stroke-width="0.25" stroke-miterlimit="10"/>
<path d="M222 244.1H225.7" stroke="black" stroke-width="0.25" stroke-miterlimit="10"/>
<path d="M222 244.7H225.7" stroke="black" stroke-width="0.25" stroke-miterlimit="10"/>
<path d="M222 246H225.7" stroke="black" stroke-width="0.25" stroke-miterlimit="10"/>
<path d="M222 246.6H225.7" stroke="black" stroke-width="0.25" stroke-miterlimit="10"/>
<path d="M222 247.3H225.7" stroke="black" stroke-width="0.25" stroke-miterlimit="10"/>
<path d="M222 247.9H225.7" stroke="black" stroke-width="0.25" stroke-miterlimit="10"/>
<path d="M222 248.5H225.7" stroke="black" stroke-width="0.25" stroke-miterlimit="10"/>
<path d="M222 249.2H225.7" stroke="black" stroke-width="0.25" stroke-miterlimit="10"/>
<path d="M222 249.8H225.7" stroke="black" stroke-width="0.25" stroke-miterlimit="10"/>
<path d="M137.899 245.3H141.599" stroke="black" stroke-width="0.25" stroke-miterlimit="10"/>
<path d="M137.899 242.1H141.599" stroke="black" stroke-width="0.25" stroke-miterlimit="10"/>
<path d="M137.899 242.8H141.599" stroke="black" stroke-width="0.25" stroke-miterlimit="10"/>
<path d="M137.899 243.4H141.599" stroke="black" stroke-width="0.25" stroke-miterlimit="10"/>
<path d="M137.899 244H141.599" stroke="black" stroke-width="0.25" stroke-miterlimit="10"/>
<path d="M137.899 244.7H141.599" stroke="black" stroke-width="0.25" stroke-miterlimit="10"/>
<path d="M137.899 246H141.599" stroke="black" stroke-width="0.25" stroke-miterlimit="10"/>
<path d="M137.899 246.6H141.599" stroke="black" stroke-width="0.25" stroke-miterlimit="10"/>
<path d="M137.899 247.2H141.599" stroke="black" stroke-width="0.25" stroke-miterlimit="10"/>
<path d="M137.899 247.9H141.599" stroke="black" stroke-width="0.25" stroke-miterlimit="10"/>
<path d="M137.899 248.5H141.599" stroke="black" stroke-width="0.25" stroke-miterlimit="10"/>
<path d="M137.899 249.2H141.599" stroke="black" stroke-width="0.25" stroke-miterlimit="10"/>
<path d="M137.899 249.8H141.599" stroke="black" stroke-width="0.25" stroke-miterlimit="10"/>
<path d="M137.899 250.5H141.599" stroke="black" stroke-width="0.25" stroke-miterlimit="10"/>
<path d="M137.899 251.2H141.599" stroke="black" stroke-width="0.25" stroke-miterlimit="10"/>
<path d="M155.3 279.1H158.4" stroke="black" stroke-width="0.25" stroke-miterlimit="10"/>
<path d="M155.3 275.9H158.4" stroke="black" stroke-width="0.25" stroke-miterlimit="10"/>
<path d="M155.3 276.5H158.4" stroke="black" stroke-width="0.25" stroke-miterlimit="10"/>
<path d="M155.3 277.2H158.4" stroke="black" stroke-width="0.25" stroke-miterlimit="10"/>
<path d="M155.3 277.8H158.4" stroke="black" stroke-width="0.25" stroke-miterlimit="10"/>
<path d="M155.3 278.4H158.4" stroke="black" stroke-width="0.25" stroke-miterlimit="10"/>
<path d="M155.3 279.8H158.4" stroke="black" stroke-width="0.25" stroke-miterlimit="10"/>
<path d="M155.3 280.4H158.4" stroke="black" stroke-width="0.25" stroke-miterlimit="10"/>
<path d="M155.3 281H158.4" stroke="black" stroke-width="0.25" stroke-miterlimit="10"/>
<path d="M155.3 281.7H158.4" stroke="black" stroke-width="0.25" stroke-miterlimit="10"/>
<path d="M155.3 282.3H158.4" stroke="black" stroke-width="0.25" stroke-miterlimit="10"/>
<path d="M155.3 282.9H158.4" stroke="black" stroke-width="0.25" stroke-miterlimit="10"/>
<path d="M155.3 283.6H158.4" stroke="black" stroke-width="0.25" stroke-miterlimit="10"/>
<path d="M155.3 284.3H158.4" stroke="black" stroke-width="0.25" stroke-miterlimit="10"/>
<path d="M165.1 292.8H162V301.3H165.1V292.8Z" stroke="black" stroke-width="0.25" stroke-miterlimit="10"/>
<path d="M162 295.4H165.1" stroke="black" stroke-width="0.25" stroke-miterlimit="10"/>
<path d="M162 293.5H165.1" stroke="black" stroke-width="0.25" stroke-miterlimit="10"/>
<path d="M162 294.1H165.1" stroke="black" stroke-width="0.25" stroke-miterlimit="10"/>
<path d="M162 294.7H165.1" stroke="black" stroke-width="0.25" stroke-miterlimit="10"/>
<path d="M162 296H165.1" stroke="black" stroke-width="0.25" stroke-miterlimit="10"/>
<path d="M162 296.6H165.1" stroke="black" stroke-width="0.25" stroke-miterlimit="10"/>
<path d="M162 297.3H165.1" stroke="black" stroke-width="0.25" stroke-miterlimit="10"/>
<path d="M162 297.9H165.1" stroke="black" stroke-width="0.25" stroke-miterlimit="10"/>
<path d="M162 298.5H165.1" stroke="black" stroke-width="0.25" stroke-miterlimit="10"/>
<path d="M162 299.2H165.1" stroke="black" stroke-width="0.25" stroke-miterlimit="10"/>
<path d="M162 299.9H165.1" stroke="black" stroke-width="0.25" stroke-miterlimit="10"/>
<path d="M162 300.5H165.1" stroke="black" stroke-width="0.25" stroke-miterlimit="10"/>
<path d="M201.6 292.8H198.5V301.3H201.6V292.8Z" stroke="black" stroke-width="0.25" stroke-miterlimit="10"/>
<path d="M198.5 295.4H201.6" stroke="black" stroke-width="0.25" stroke-miterlimit="10"/>
<path d="M198.5 293.5H201.6" stroke="black" stroke-width="0.25" stroke-miterlimit="10"/>
<path d="M198.5 294.1H201.6" stroke="black" stroke-width="0.25" stroke-miterlimit="10"/>
<path d="M198.5 294.7H201.6" stroke="black" stroke-width="0.25" stroke-miterlimit="10"/>
<path d="M198.5 296H201.6" stroke="black" stroke-width="0.25" stroke-miterlimit="10"/>
<path d="M198.5 296.6H201.6" stroke="black" stroke-width="0.25" stroke-miterlimit="10"/>
<path d="M198.5 297.3H201.6" stroke="black" stroke-width="0.25" stroke-miterlimit="10"/>
<path d="M198.5 297.9H201.6" stroke="black" stroke-width="0.25" stroke-miterlimit="10"/>
<path d="M198.5 298.5H201.6" stroke="black" stroke-width="0.25" stroke-miterlimit="10"/>
<path d="M198.5 299.2H201.6" stroke="black" stroke-width="0.25" stroke-miterlimit="10"/>
<path d="M198.5 299.9H201.6" stroke="black" stroke-width="0.25" stroke-miterlimit="10"/>
<path d="M198.5 300.5H201.6" stroke="black" stroke-width="0.25" stroke-miterlimit="10"/>
<path d="M165.1 253.7H162V262.2H165.1V253.7Z" stroke="black" stroke-width="0.25" stroke-miterlimit="10"/>
<path d="M162 256.3H165.1" stroke="black" stroke-width="0.25" stroke-miterlimit="10"/>
<path d="M162 254.4H165.1" stroke="black" stroke-width="0.25" stroke-miterlimit="10"/>
<path d="M162 255H165.1" stroke="black" stroke-width="0.25" stroke-miterlimit="10"/>
<path d="M162 255.6H165.1" stroke="black" stroke-width="0.25" stroke-miterlimit="10"/>
<path d="M162 256.9H165.1" stroke="black" stroke-width="0.25" stroke-miterlimit="10"/>
<path d="M162 257.6H165.1" stroke="black" stroke-width="0.25" stroke-miterlimit="10"/>
<path d="M162 258.2H165.1" stroke="black" stroke-width="0.25" stroke-miterlimit="10"/>
<path d="M162 258.9H165.1" stroke="black" stroke-width="0.25" stroke-miterlimit="10"/>
<path d="M162 259.5H165.1" stroke="black" stroke-width="0.25" stroke-miterlimit="10"/>
<path d="M162 260.1H165.1" stroke="black" stroke-width="0.25" stroke-miterlimit="10"/>
<path d="M162 260.8H165.1" stroke="black" stroke-width="0.25" stroke-miterlimit="10"/>
<path d="M162 261.4H165.1" stroke="black" stroke-width="0.25" stroke-miterlimit="10"/>
<path d="M201.6 253.7H198.5V262.2H201.6V253.7Z" stroke="black" stroke-width="0.25" stroke-miterlimit="10"/>
<path d="M198.5 256.3H201.6" stroke="black" stroke-width="0.25" stroke-miterlimit="10"/>
<path d="M198.5 254.4H201.6" stroke="black" stroke-width="0.25" stroke-miterlimit="10"/>
<path d="M198.5 255H201.6" stroke="black" stroke-width="0.25" stroke-miterlimit="10"/>
<path d="M198.5 255.6H201.6" stroke="black" stroke-width="0.25" stroke-miterlimit="10"/>
<path d="M198.5 256.9H201.6" stroke="black" stroke-width="0.25" stroke-miterlimit="10"/>
<path d="M198.5 257.6H201.6" stroke="black" stroke-width="0.25" stroke-miterlimit="10"/>
<path d="M198.5 258.2H201.6" stroke="black" stroke-width="0.25" stroke-miterlimit="10"/>
<path d="M198.5 258.9H201.6" stroke="black" stroke-width="0.25" stroke-miterlimit="10"/>
<path d="M198.5 259.5H201.6" stroke="black" stroke-width="0.25" stroke-miterlimit="10"/>
<path d="M198.5 260.1H201.6" stroke="black" stroke-width="0.25" stroke-miterlimit="10"/>
<path d="M198.5 260.8H201.6" stroke="black" stroke-width="0.25" stroke-miterlimit="10"/>
<path d="M198.5 261.4H201.6" stroke="black" stroke-width="0.25" stroke-miterlimit="10"/>
<path d="M205 279.1H208.3" stroke="black" stroke-width="0.25" stroke-miterlimit="10"/>
<path d="M205 275.9H208.3" stroke="black" stroke-width="0.25" stroke-miterlimit="10"/>
<path d="M205 276.5H208.3" stroke="black" stroke-width="0.25" stroke-miterlimit="10"/>
<path d="M205 277.2H208.3" stroke="black" stroke-width="0.25" stroke-miterlimit="10"/>
<path d="M205 277.8H208.3" stroke="black" stroke-width="0.25" stroke-miterlimit="10"/>
<path d="M205 278.4H208.3" stroke="black" stroke-width="0.25" stroke-miterlimit="10"/>
<path d="M205 279.8H208.3" stroke="black" stroke-width="0.25" stroke-miterlimit="10"/>
<path d="M205 280.4H208.3" stroke="black" stroke-width="0.25" stroke-miterlimit="10"/>
<path d="M205 281H208.3" stroke="black" stroke-width="0.25" stroke-miterlimit="10"/>
<path d="M205 281.7H208.3" stroke="black" stroke-width="0.25" stroke-miterlimit="10"/>
<path d="M205 282.3H208.3" stroke="black" stroke-width="0.25" stroke-miterlimit="10"/>
<path d="M205 282.9H208.3" stroke="black" stroke-width="0.25" stroke-miterlimit="10"/>
<path d="M205 283.6H208.3" stroke="black" stroke-width="0.25" stroke-miterlimit="10"/>
<path d="M205 284.3H208.3" stroke="black" stroke-width="0.25" stroke-miterlimit="10"/>
<path d="M209.699 139.5H212.899" stroke="black" stroke-width="0.25" stroke-miterlimit="10"/>
<path d="M209.699 143.3H212.899" stroke="black" stroke-width="0.25" stroke-miterlimit="10"/>
<path d="M209.699 140.1H212.899" stroke="black" stroke-width="0.25" stroke-miterlimit="10"/>
<path d="M209.699 140.8H212.899" stroke="black" stroke-width="0.25" stroke-miterlimit="10"/>
<path d="M209.699 141.4H212.899" stroke="black" stroke-width="0.25" stroke-miterlimit="10"/>
<path d="M209.699 142H212.899" stroke="black" stroke-width="0.25" stroke-miterlimit="10"/>
<path d="M209.699 142.7H212.899" stroke="black" stroke-width="0.25" stroke-miterlimit="10"/>
<path d="M209.699 144H212.899" stroke="black" stroke-width="0.25" stroke-miterlimit="10"/>
<path d="M209.699 144.6H212.899" stroke="black" stroke-width="0.25" stroke-miterlimit="10"/>
<path d="M209.699 145.2H212.899" stroke="black" stroke-width="0.25" stroke-miterlimit="10"/>
<path d="M209.699 145.9H212.899" stroke="black" stroke-width="0.25" stroke-miterlimit="10"/>
<path d="M209.699 146.5H212.899" stroke="black" stroke-width="0.25" stroke-miterlimit="10"/>
<path d="M209.699 147.1H212.899" stroke="black" stroke-width="0.25" stroke-miterlimit="10"/>
<path d="M170.3 416.8L172.1 411.1" stroke="black" stroke-width="0.25" stroke-miterlimit="10"/>
<path d="M173 411.6L171.3 417.2" stroke="black" stroke-width="0.25" stroke-miterlimit="10"/>
<path d="M173.999 411.9L172.399 417.5" stroke="black" stroke-width="0.25" stroke-miterlimit="10"/>
<path d="M174.8 412.1L173.5 417.7" stroke="black" stroke-width="0.25" stroke-miterlimit="10"/>
<path d="M175.699 412.3L174.399 417.9" stroke="black" stroke-width="0.25" stroke-miterlimit="10"/>
<path d="M176.4 412.4L175.5 418" stroke="black" stroke-width="0.25" stroke-miterlimit="10"/>
<path d="M177.2 412.5L176.6 418.1" stroke="black" stroke-width="0.25" stroke-miterlimit="10"/>
<path d="M177.899 412.5L177.699 418.2" stroke="black" stroke-width="0.25" stroke-miterlimit="10"/>
<path d="M178.699 412.5V418.1" stroke="black" stroke-width="0.25" stroke-miterlimit="10"/>
<path d="M179.399 412.5L179.799 418.1" stroke="black" stroke-width="0.25" stroke-miterlimit="10"/>
<path d="M180.199 412.4L180.899 418" stroke="black" stroke-width="0.25" stroke-miterlimit="10"/>
<path d="M180.899 412.3L181.899 417.9" stroke="black" stroke-width="0.25" stroke-miterlimit="10"/>
<path d="M181.699 412.1L183.099 417.7" stroke="black" stroke-width="0.25" stroke-miterlimit="10"/>
<path d="M182.6 412L184.2 417.5" stroke="black" stroke-width="0.25" stroke-miterlimit="10"/>
<path d="M183.3 411.8L185.3 417.2" stroke="black" stroke-width="0.25" stroke-miterlimit="10"/>
<path d="M184.1 411.6L186.5 416.8" stroke="black" stroke-width="0.25" stroke-miterlimit="10"/>
<path d="M185.3 411.1L187.6 416.4" stroke="black" stroke-width="0.25" stroke-miterlimit="10"/>
<path d="M151.899 440.1V451.6H150.199" stroke="black" stroke-width="0.25" stroke-miterlimit="10"/>
<path d="M216.5 451.6H218H227.2L228.7 445.1H216.9" stroke="black" stroke-width="0.25" stroke-miterlimit="10"/>
<path d="M218 451.6L212.8 472.8H178.3V462.2H174.3H162.3" stroke="black" stroke-width="0.25" stroke-miterlimit="10"/>
<path d="M145.8 451.6L151.1 472.8H174.2V462.2" stroke="black" stroke-width="0.25" stroke-miterlimit="10"/>
<path d="M153.099 457L151.899 451.6H186.399" stroke="black" stroke-width="0.25" stroke-miterlimit="10"/>
<path d="M154 460.1L157.4 472.8" stroke="black" stroke-width="0.25" stroke-miterlimit="10"/>
<path d="M159.3 462.2H154.5" stroke="black" stroke-width="0.25" stroke-miterlimit="10"/>
<path d="M166.3 462.2V459.2" stroke="black" stroke-width="0.25" stroke-miterlimit="10"/>
<path d="M166.3 456.1V440.1" stroke="black" stroke-width="0.25" stroke-miterlimit="10"/>
<path d="M189.6 451.6H213.3" stroke="black" stroke-width="0.25" stroke-miterlimit="10"/>
<path d="M189.6 472.8V464H201.5" stroke="black" stroke-width="0.25" stroke-miterlimit="10"/>
<path d="M204.5 464H208.5" stroke="black" stroke-width="0.25" stroke-miterlimit="10"/>
<path d="M210.3 456.6L211.6 451.6" stroke="black" stroke-width="0.25" stroke-miterlimit="10"/>
<path d="M209.5 460.1L206.1 472.8" stroke="black" stroke-width="0.25" stroke-miterlimit="10"/>
<path d="M184.2 451.3V442H182.1" stroke="black" stroke-width="0.25" stroke-miterlimit="10"/>
<path d="M178.8 442H166.3" stroke="black" stroke-width="0.25" stroke-miterlimit="10"/>
<path d="M184.199 445.4H192.399" stroke="black" stroke-width="0.25" stroke-miterlimit="10"/>
<path d="M195.5 445.4H213.8" stroke="black" stroke-width="0.25" stroke-miterlimit="10"/>
<path d="M212 407.3V445.1" stroke="black" stroke-width="0.25" stroke-miterlimit="10"/>
<path d="M197.199 424.1V426.6V445.4" stroke="black" stroke-width="0.25" stroke-miterlimit="10"/>
<path d="M197.199 426.6H203.299V411.8H211.999" stroke="black" stroke-width="0.25" stroke-miterlimit="10"/>
<path d="M197.399 403.7H211.999" stroke="black" stroke-width="0.25" stroke-miterlimit="10"/>
<path d="M212 404.6V386" stroke="black" stroke-width="0.25" stroke-miterlimit="10"/>
<path d="M197.4 386V393.6H192.7V394.7H170.9V393.6H166.3V386" stroke="black" stroke-width="0.25" stroke-miterlimit="10"/>
<path d="M166.3 383V353.4" stroke="black" stroke-width="0.25" stroke-miterlimit="10"/>
<path d="M187.3 364.5V372H166.3" stroke="black" stroke-width="0.25" stroke-miterlimit="10"/>
<path d="M212 383.3V374.6H211V366.8H209.8V361.6H210.9V355.1H212.9" stroke="black" stroke-width="0.25" stroke-miterlimit="10"/>
<path d="M217.999 355H215.899" stroke="black" stroke-width="0.25" stroke-miterlimit="10"/>
<path d="M151.899 437.3V407.6" stroke="black" stroke-width="0.25" stroke-miterlimit="10"/>
<path d="M166.499 403.7H151.899" stroke="black" stroke-width="0.25" stroke-miterlimit="10"/>
<path d="M151.899 404.7V386" stroke="black" stroke-width="0.25" stroke-miterlimit="10"/>
<path d="M166.499 389.7H151.899" stroke="black" stroke-width="0.25" stroke-miterlimit="10"/>
<path d="M166.499 381.7H151.899" stroke="black" stroke-width="2" stroke-miterlimit="10"/>
<path d="M151.899 383.3C151.899 383 151.899 377.5 151.899 377.5" stroke="black" stroke-width="0.25" stroke-miterlimit="10"/>
<path d="M211.999 382.1H197.399" stroke="black" stroke-width="0.25" stroke-miterlimit="10"/>
<path d="M211.999 390H197.399" stroke="black" stroke-width="0.25" stroke-miterlimit="10"/>
<path d="M151.899 374.6V355.2" stroke="black" stroke-width="0.25" stroke-miterlimit="10"/>
<path d="M166.3 350.4V344.3" stroke="black" stroke-width="0.25" stroke-miterlimit="10"/>
<path d="M166.3 341V339.5" stroke="black" stroke-width="0.25" stroke-miterlimit="10"/>
<path d="M145.8 355.2H147.1" stroke="black" stroke-width="0.25" stroke-miterlimit="10"/>
<path d="M150.1 355.2H154.4" stroke="black" stroke-width="0.25" stroke-miterlimit="10"/>
<path d="M157.3 355.2H160.7" stroke="black" stroke-width="0.25" stroke-miterlimit="10"/>
<path d="M163.899 355.2H166.299" stroke="black" stroke-width="0.25" stroke-miterlimit="10"/>
<path d="M142.6 348.9H140.5V340" stroke="black" stroke-width="0.25" stroke-miterlimit="10"/>
<path d="M145.5 348.6H152.7V339.5V319.1" stroke="black" stroke-width="0.25" stroke-miterlimit="10"/>
<path d="M152.699 339.5H177.599V358.2H181.699V359H184.799V358.2H196.299" stroke="black" stroke-width="0.25" stroke-miterlimit="10"/>
<path d="M152 348.6V355.1" stroke="black" stroke-width="1.5" stroke-miterlimit="10"/>
<path d="M166.3 345.9H157.3" stroke="black" stroke-width="0.25" stroke-miterlimit="10"/>
<path d="M154.399 345.9H152.699" stroke="black" stroke-width="0.25" stroke-miterlimit="10"/>
<path d="M196.3 359.8V354.8H204.9" stroke="black" stroke-width="0.25" stroke-miterlimit="10"/>
<path d="M196.5 363V364.5" stroke="black" stroke-width="0.25" stroke-miterlimit="10"/>
<path d="M204.899 359.3V364.5H197.399" stroke="black" stroke-width="0.25" stroke-miterlimit="10"/>
<path d="M204.9 356.1V348.9H200V344H210.6V319H208.4V320.4H203.3V319H200.1" stroke="black" stroke-width="0.25" stroke-miterlimit="10"/>
<path d="M215.1 311V312.9" stroke="black" stroke-width="0.25" stroke-miterlimit="10"/>
<path d="M211.899 312.9H229.099L228.999 355H217.999" stroke="black" stroke-width="0.25" stroke-miterlimit="10"/>
<path d="M210.6 319H222.8V322" stroke="black" stroke-width="0.25" stroke-miterlimit="10"/>
<path d="M222.8 325.3V350.5" stroke="black" stroke-width="0.25" stroke-miterlimit="10"/>
<path d="M222.8 353.7V355" stroke="black" stroke-width="0.25" stroke-miterlimit="10"/>
<path d="M222.799 349.1H216.899V335.3H222.799" stroke="black" stroke-width="0.25" stroke-miterlimit="10"/>
<path d="M215.3 339.3H216.9" stroke="black" stroke-width="0.25" stroke-miterlimit="10"/>
<path d="M212.4 339.3H210.6" stroke="black" stroke-width="0.25" stroke-miterlimit="10"/>
<path d="M148.3 310.9V312.9" stroke="black" stroke-width="0.25" stroke-miterlimit="10"/>
<path d="M148.3 283.6V285" stroke="black" stroke-width="0.25" stroke-miterlimit="10"/>
<path d="M148.3 288.2V289.9H149.9" stroke="black" stroke-width="0.25" stroke-miterlimit="10"/>
<path d="M140.8 297.4H138" stroke="black" stroke-width="1.5" stroke-miterlimit="10"/>
<path d="M149.599 297.4H146.699" stroke="black" stroke-width="1.5" stroke-miterlimit="10"/>
<path d="M216.599 297.4H213.699" stroke="black" stroke-width="1.5" stroke-miterlimit="10"/>
<path d="M225.7 297.4H222.5" stroke="black" stroke-width="1.5" stroke-miterlimit="10"/>
<path d="M140.5 336.8V319.1H154.8V320.1H159.7V318.9H162.7" stroke="black" stroke-width="0.25" stroke-miterlimit="10"/>
<path d="M213.699 290.1H215.099V288.5" stroke="black" stroke-width="0.25" stroke-miterlimit="10"/>
<path d="M215.1 285V283.6H224.3V290.1H225.7V306.3H224.2V312.9" stroke="black" stroke-width="0.25" stroke-miterlimit="10"/>
<path d="M210.899 360.9H204.899" stroke="black" stroke-width="0.25" stroke-miterlimit="10"/>
<path d="M151.899 436.1H166.299" stroke="black" stroke-width="0.25" stroke-miterlimit="10"/>
<path d="M145.5 333.8H152.7" stroke="black" stroke-width="0.25" stroke-miterlimit="10"/>
<path d="M142.5 333.8H140.5" stroke="black" stroke-width="0.25" stroke-miterlimit="10"/>
<path d="M145.6 154.5V189.3L141.6 197V261.2H133.1" stroke="black" stroke-width="0.25" stroke-miterlimit="10"/>
<path d="M217.799 162.3V156.6H204.199V167.9C204.199 167.9 217.899 167.8 217.799 167.9C217.699 168 217.799 165.3 217.799 165.3" stroke="black" stroke-width="0.25" stroke-miterlimit="10"/>
<path d="M217.8 167.9V189.9L221.9 196.7V261H230.3" stroke="black" stroke-width="0.25" stroke-miterlimit="10"/>
<path d="M197.999 247.2H165.399V305.8H197.999V247.2Z" stroke="black" stroke-width="0.25" stroke-miterlimit="10"/>
<path d="M166.299 411.2H151.899" stroke="black" stroke-width="0.25" stroke-miterlimit="10"/>
<path d="M183.499 418.7H179.699V421.4H183.499V418.7Z" fill="black"/>
<path d="M172.299 136.2V159.2H166.099V144.7H156.699V124.9H166.299V112.3H158.399L160.499 106.3" stroke="black" stroke-width="0.25" stroke-miterlimit="10"/>
<path d="M187.2 106.3H190.5V137.7H172.3" stroke="black" stroke-width="0.25" stroke-miterlimit="10"/>
<path d="M166.1 144.7V136.2" stroke="black" stroke-width="0.25" stroke-miterlimit="10"/>
<path d="M166.1 133.3V124.9" stroke="black" stroke-width="0.25" stroke-miterlimit="10"/>
<path d="M172.3 133.3C172.4 132.9 172.3 106.3 172.3 106.3" stroke="black" stroke-width="0.25" stroke-miterlimit="10"/>
<path d="M160.5 130.1H157.3V139.6H160.5V130.1Z" stroke="black" stroke-width="0.25" stroke-miterlimit="10"/>
<path d="M183.2 545.8C180.2 545.8 177.4 544.5 175.4 542.3L166.4 531.9C156.5 520.5 149.1 507.6 144.2 493.3L139.5 479.4C136.4 470.2 134.5 460.6 133.9 450.9L132.8 433.7C132.6 430.8 132.5 427.9 132.5 425V210.2C132.5 204.2 132.7 198 133 192L134.7 163.9C135.1 157.1 135.8 150.2 136.7 143.4L140.2 118.1C141.6 107.7 144.1 97.4 147.6 87.5L151.3 77.1L151.4 73.6L163.3 57.9C165.2 55.4 168.4 54.4 171.4 55.4L182.2 59.1L190.9 55.5C193.6 54.4 196.7 55 198.7 57.1L213.5 72.1V76.8L221.6 107.6C223.5 115 224.9 122.7 225.7 130.3L228.7 159.8L230.6 192.2C230.8 196.4 231 200.7 231 204.9V432.8C231 437.5 230.8 442.3 230.4 447L229.9 452.8C228.9 464.9 226.1 476.8 221.7 488.1L217 500C213.3 509.4 208.4 518.2 202.5 526.4L191.5 541.5C189.6 544.1 186.8 545.6 183.6 545.7C183.5 545.8 183.3 545.8 183.2 545.8ZM152.5 74L152.3 77.4L148.6 87.9C145.2 97.7 142.7 108 141.3 118.3L137.8 143.6C136.9 150.3 136.2 157.2 135.8 164L134.1 192.1C133.7 198.1 133.6 204.2 133.6 210.2V424.9C133.6 427.8 133.7 430.7 133.9 433.6L135 450.8C135.6 460.4 137.5 469.9 140.6 479L145.3 492.9C150.1 507 157.5 519.9 167.3 531.1L176.3 541.5C178.2 543.7 180.9 544.8 183.7 544.7C186.5 544.6 189.1 543.2 190.8 540.9L201.8 525.8C207.7 517.7 212.5 508.9 216.2 499.7L220.9 487.8C225.3 476.6 228.1 464.8 229.1 452.8L229.6 447C230 442.3 230.2 437.5 230.2 432.8V205C230.2 200.8 230.1 196.5 229.8 192.3L227.9 160L224.9 130.6C224.1 123 222.7 115.4 220.8 108L212.7 77V72.7L198 57.9C196.2 56.1 193.6 55.6 191.3 56.5L182.3 60.2L171.2 56.4C168.7 55.5 165.9 56.4 164.3 58.5L152.5 74Z" fill="black"/>
</svg>
