<svg width="358" height="596" viewBox="0 0 358 596" fill="none" xmlns="http://www.w3.org/2000/svg">
<path d="M229.3 186.9L227.1 152.7L223.4 121.8C222.8 117 221.9 112.2 220.7 107.5L212.4 75.1L212.3 71.3L197 55.8C195.3 54.1 192.6 53.6 190.4 54.6L182 58.5L171 54.9C168.7 54.2 166.2 54.9 164.7 56.8L151.9 72.8V76.2L143.7 103.1C141.9 109 140.6 115 139.8 121L135.6 152.7L133 202.2C132.8 205.9 132.7 209.6 132.7 213.3V414.6C132.7 420.2 132.9 425.8 133.3 431.4L135 455.2C135.3 458.9 135.8 462.5 136.6 466.1L138.3 473.8C139.6 479.7 141.5 485.5 143.9 491.1L148.6 501.9L153.4 510.5C156.2 515.5 159.4 520.3 163 524.8L172.6 536.7L177.7 541.2C181 544.1 186 543.8 189 540.6L193.5 535.8L203.7 521.5C205.2 519.4 206.5 517.2 207.6 514.9L215.7 498.8C216.5 497.2 217.2 495.5 217.9 493.8L221.9 482.8C223.8 477.7 225.2 472.5 226.2 467.2L228.1 457.1C228.8 453 229.3 448.9 229.5 444.8L230 433.5V198.8C229.7 194.8 229.6 190.8 229.3 186.9Z" fill="#4F4F4F" stroke="black" stroke-miterlimit="10"/>
<path d="M213.7 336.6V295.7H209.7V245.8C209.7 244.5 208.7 243.5 207.4 243.5H195.7C194.9 243.5 194.2 242.8 194.2 242V240.7H190.2V214.5H193.4V203.2L195.3 200.7C196.5 199.2 196.3 197 195 195.6L193.1 193.7C192.7 193.3 192.2 193.1 191.7 193.1H172C171.5 193.1 171 193.3 170.6 193.7L168.8 195.5C167.3 197 167.3 199.5 168.8 201L170.7 202.9V214.5H173.6V240.7H169.4V242.2C169.4 243 168.7 243.7 167.9 243.7H156.9C155.6 243.7 154.6 244.7 154.6 246V295.5H150V336.3H146.2V358.9H154.5V315.9H158.8V276H174.3V243.7H190.1V276H205.1V315.6H209.4V358.3H218V336.8H213.7V336.6ZM183.7 235.8H180.2V209.1H183.7V235.8Z" stroke="#939393" stroke-miterlimit="10"/>
<path d="M203.5 414V406.8H216.6V385.6L203.7 385.7L203.8 364.9L215.9 364.8L215.8 358.1H197.5V406H166.3V358.7H148V364.9H160.2V367.6H146.9V378.4H160.2V408.7V419.4V435H166.6V446.7H197.5V435H203.5H217V414H203.5ZM170.5 421V419.5L172.3 413.8V413H185.5V413.8L187.8 419.1V421H170.5Z" fill="#D3D3D3"/>
<path d="M176.1 197.5H188.2L189.7 201.2V209.1H174.4V200.9L176.1 197.5Z" fill="#D3D3D3"/>
<path d="M208.8 385.7C208.8 385.8 208.8 387.9 208.8 387.9L205.9 389.7H203.8V385.7H208.8Z" fill="black"/>
<path d="M208.8 414.1C208.8 414.2 208.8 416.3 208.8 416.3L205.9 418.1H203.8V414.1H208.8Z" fill="black"/>
<path d="M191.601 421V415.3H192.601V416.4H196.401V415.3H197.501V421H191.601Z" fill="black"/>
<path d="M172.3 413.6C172.3 413.6 177.5 416.7 185.5 413.6V413.1H172.3V413.6Z" stroke="black" stroke-width="0.25" stroke-miterlimit="10"/>
<path d="M150.1 358.7H147.8V364.9H160.2V371.6" stroke="black" stroke-width="0.25" stroke-miterlimit="10"/>
<path d="M160.2 374.3V435H166.5V446.6H197.5V433.8" stroke="black" stroke-width="0.25" stroke-miterlimit="10"/>
<path d="M153 358.7H166.5V407.5" stroke="black" stroke-width="0.25" stroke-miterlimit="10"/>
<path d="M160.2 367.7H146.9V378.5H160.2" stroke="black" stroke-width="0.25" stroke-miterlimit="10"/>
<path d="M160.2 364.9H161.8" stroke="black" stroke-width="0.25" stroke-miterlimit="10"/>
<path d="M164.8 365.1H166.5" stroke="black" stroke-width="0.25" stroke-miterlimit="10"/>
<path d="M166.5 406.1H197.5" stroke="black" stroke-width="0.25" stroke-miterlimit="10"/>
<path d="M197.5 407.5V358.2H210.9" stroke="black" stroke-width="0.25" stroke-miterlimit="10"/>
<path d="M166.5 411.2V430.8" stroke="black" stroke-width="0.25" stroke-miterlimit="10"/>
<path d="M166.5 435V433.6" stroke="black" stroke-width="0.25" stroke-miterlimit="10"/>
<path d="M197.5 421H166.5" stroke="black" stroke-width="0.25" stroke-miterlimit="10"/>
<path d="M197.5 411.2V430.4" stroke="black" stroke-width="0.25" stroke-miterlimit="10"/>
<path d="M182.2 446.6V435.8H190.7" stroke="black" stroke-width="0.25" stroke-miterlimit="10"/>
<path d="M193.7 435.8H197.5" stroke="black" stroke-width="0.25" stroke-miterlimit="10"/>
<path d="M213.901 358.2H215.801V364.8H202.101" stroke="black" stroke-width="0.25" stroke-miterlimit="10"/>
<path d="M199.2 364.8H197.5" stroke="black" stroke-width="0.25" stroke-miterlimit="10"/>
<path d="M203.7 364.8V385.7V395.1" stroke="black" stroke-width="0.25" stroke-miterlimit="10"/>
<path d="M203.7 406.8H216.6V385.7H203.7" stroke="black" stroke-width="0.25" stroke-miterlimit="10"/>
<path d="M203.7 398V423" stroke="black" stroke-width="0.25" stroke-miterlimit="10"/>
<path d="M205.6 394H203.7" stroke="black" stroke-width="0.25" stroke-miterlimit="10"/>
<path d="M208.8 394H209.8V398H216.6" stroke="black" stroke-width="0.25" stroke-miterlimit="10"/>
<path d="M208.8 422.4H209.9V426.3H217V414H203.7" stroke="black" stroke-width="0.25" stroke-miterlimit="10"/>
<path d="M197.5 435.1H217V426.3" stroke="black" stroke-width="0.25" stroke-miterlimit="10"/>
<path d="M203.7 425.6V435.1" stroke="black" stroke-width="0.25" stroke-miterlimit="10"/>
<path d="M205.8 422.2H203.7" stroke="black" stroke-width="0.25" stroke-miterlimit="10"/>
<path d="M185.3 209.1H174.4V200.9L176.1 197.5H188.2L189.7 201.2V209.1H188" stroke="black" stroke-width="0.25" stroke-miterlimit="10"/>
<path d="M162 268.8H159C158.2 268.8 157.5 268.1 157.5 267.3V259.2C157.5 258.4 158.2 257.7 159 257.7H162C162.8 257.7 163.5 258.4 163.5 259.2V267.3C163.4 268.2 162.8 268.8 162 268.8Z" fill="#D3D3D3"/>
<path d="M164.5 259.6H156V260.4H164.5V259.6Z" fill="#D3D3D3"/>
<path d="M164.5 262.9H156V263.7H164.5V262.9Z" fill="#D3D3D3"/>
<path d="M164.5 266.3H156V267.1H164.5V266.3Z" fill="#D3D3D3"/>
<path d="M205.3 267.4H202.3C201.5 267.4 200.8 266.7 200.8 265.9V257.8C200.8 257 201.5 256.3 202.3 256.3H205.3C206.1 256.3 206.8 257 206.8 257.8V265.9C206.8 266.8 206.1 267.4 205.3 267.4Z" fill="#D3D3D3"/>
<path d="M207.8 258.2H199.3V259H207.8V258.2Z" fill="#D3D3D3"/>
<path d="M207.8 261.6H199.3V262.4H207.8V261.6Z" fill="#D3D3D3"/>
<path d="M207.8 264.9H199.3V265.7H207.8V264.9Z" fill="#D3D3D3"/>
<path d="M164.9 245.5H156V252.7H164.9V245.5Z" stroke="#D3D3D3" stroke-width="0.5" stroke-miterlimit="10"/>
<path d="M156 248H164.9" stroke="#D3D3D3" stroke-width="0.5" stroke-miterlimit="10"/>
<path d="M156 249.9H164.9" stroke="#D3D3D3" stroke-width="0.5" stroke-miterlimit="10"/>
<path d="M158.9 245.5V252.7" stroke="#D3D3D3" stroke-width="0.5" stroke-miterlimit="10"/>
<path d="M161.7 245.5V252.7" stroke="#D3D3D3" stroke-width="0.5" stroke-miterlimit="10"/>
<path d="M162.4 247.4H158.4V250.5H162.4V247.4Z" fill="#D3D3D3"/>
<path d="M208.3 245.5H199.4V252.7H208.3V245.5Z" stroke="#D3D3D3" stroke-width="0.5" stroke-miterlimit="10"/>
<path d="M199.4 248H208.3" stroke="#D3D3D3" stroke-width="0.5" stroke-miterlimit="10"/>
<path d="M199.4 249.9H208.3" stroke="#D3D3D3" stroke-width="0.5" stroke-miterlimit="10"/>
<path d="M202.2 245.5V252.7" stroke="#D3D3D3" stroke-width="0.5" stroke-miterlimit="10"/>
<path d="M205.101 245.5V252.7" stroke="#D3D3D3" stroke-width="0.5" stroke-miterlimit="10"/>
<path d="M205.801 247.4H201.801V250.5H205.801V247.4Z" fill="#D3D3D3"/>
<path d="M190.1 235.8H173.5" stroke="#878787" stroke-width="0.1" stroke-miterlimit="10"/>
<path d="M185.601 413.7L187.901 419C179.301 422.6 170.601 419.4 170.601 419.4L172.401 413.7C172.301 413.7 177.801 416.9 185.601 413.7Z" fill="#DBD8B9"/>
<path d="M154.501 343.6H151.601V353.3H154.501V343.6Z" fill="#DBD8B9" stroke="black" stroke-width="0.25" stroke-miterlimit="10"/>
<path d="M151.601 344.5H154.501" stroke="black" stroke-width="0.25" stroke-miterlimit="10"/>
<path d="M151.601 345.4H154.501" stroke="black" stroke-width="0.25" stroke-miterlimit="10"/>
<path d="M151.601 346.2H154.501" stroke="black" stroke-width="0.25" stroke-miterlimit="10"/>
<path d="M151.601 347.1H154.501" stroke="black" stroke-width="0.25" stroke-miterlimit="10"/>
<path d="M151.601 347.9H154.501" stroke="black" stroke-width="0.25" stroke-miterlimit="10"/>
<path d="M151.601 348.8H154.501" stroke="black" stroke-width="0.25" stroke-miterlimit="10"/>
<path d="M151.601 349.6H154.501" stroke="black" stroke-width="0.25" stroke-miterlimit="10"/>
<path d="M151.601 350.5H154.501" stroke="black" stroke-width="0.25" stroke-miterlimit="10"/>
<path d="M151.601 351.4H154.501" stroke="black" stroke-width="0.25" stroke-miterlimit="10"/>
<path d="M151.601 352.3H154.501" stroke="black" stroke-width="0.25" stroke-miterlimit="10"/>
<path d="M212.3 343.6H209.4V353.3H212.3V343.6Z" fill="#DBD8B9" stroke="black" stroke-width="0.25" stroke-miterlimit="10"/>
<path d="M209.4 344.5H212.3" stroke="black" stroke-width="0.25" stroke-miterlimit="10"/>
<path d="M209.4 345.4H212.3" stroke="black" stroke-width="0.25" stroke-miterlimit="10"/>
<path d="M209.4 346.2H212.3" stroke="black" stroke-width="0.25" stroke-miterlimit="10"/>
<path d="M209.4 347.1H212.3" stroke="black" stroke-width="0.25" stroke-miterlimit="10"/>
<path d="M209.4 347.9H212.3" stroke="black" stroke-width="0.25" stroke-miterlimit="10"/>
<path d="M209.4 348.8H212.3" stroke="black" stroke-width="0.25" stroke-miterlimit="10"/>
<path d="M209.4 349.6H212.3" stroke="black" stroke-width="0.25" stroke-miterlimit="10"/>
<path d="M209.4 350.5H212.3" stroke="black" stroke-width="0.25" stroke-miterlimit="10"/>
<path d="M209.4 351.4H212.3" stroke="black" stroke-width="0.25" stroke-miterlimit="10"/>
<path d="M209.4 352.3H212.3" stroke="black" stroke-width="0.25" stroke-miterlimit="10"/>
<path d="M193.701 261.9H190.801V271.6H193.701V261.9Z" fill="#DBD8B9" stroke="black" stroke-width="0.25" stroke-miterlimit="10"/>
<path d="M190.801 262.9H193.701" stroke="black" stroke-width="0.25" stroke-miterlimit="10"/>
<path d="M190.801 263.8H193.701" stroke="black" stroke-width="0.25" stroke-miterlimit="10"/>
<path d="M190.801 264.6H193.701" stroke="black" stroke-width="0.25" stroke-miterlimit="10"/>
<path d="M190.801 265.4H193.701" stroke="black" stroke-width="0.25" stroke-miterlimit="10"/>
<path d="M190.801 266.3H193.701" stroke="black" stroke-width="0.25" stroke-miterlimit="10"/>
<path d="M190.801 267.1H193.701" stroke="black" stroke-width="0.25" stroke-miterlimit="10"/>
<path d="M190.801 268H193.701" stroke="black" stroke-width="0.25" stroke-miterlimit="10"/>
<path d="M190.801 268.8H193.701" stroke="black" stroke-width="0.25" stroke-miterlimit="10"/>
<path d="M190.801 269.8H193.701" stroke="black" stroke-width="0.25" stroke-miterlimit="10"/>
<path d="M190.801 270.6H193.701" stroke="black" stroke-width="0.25" stroke-miterlimit="10"/>
<path d="M173.1 261.9H170.2V271.6H173.1V261.9Z" fill="#DBD8B9" stroke="black" stroke-width="0.25" stroke-miterlimit="10"/>
<path d="M170.2 262.9H173" stroke="black" stroke-width="0.25" stroke-miterlimit="10"/>
<path d="M170.2 263.8H173" stroke="black" stroke-width="0.25" stroke-miterlimit="10"/>
<path d="M170.2 264.6H173" stroke="black" stroke-width="0.25" stroke-miterlimit="10"/>
<path d="M170.2 265.4H173" stroke="black" stroke-width="0.25" stroke-miterlimit="10"/>
<path d="M170.2 266.3H173" stroke="black" stroke-width="0.25" stroke-miterlimit="10"/>
<path d="M170.2 267.1H173" stroke="black" stroke-width="0.25" stroke-miterlimit="10"/>
<path d="M170.2 268H173" stroke="black" stroke-width="0.25" stroke-miterlimit="10"/>
<path d="M170.2 268.8H173" stroke="black" stroke-width="0.25" stroke-miterlimit="10"/>
<path d="M170.2 269.8H173" stroke="black" stroke-width="0.25" stroke-miterlimit="10"/>
<path d="M170.2 270.6H173" stroke="black" stroke-width="0.25" stroke-miterlimit="10"/>
<path d="M193.001 231H190.101V240.7H193.001V231Z" fill="#DBD8B9" stroke="black" stroke-width="0.25" stroke-miterlimit="10"/>
<path d="M190.101 231.9H193.001" stroke="black" stroke-width="0.25" stroke-miterlimit="10"/>
<path d="M190.101 232.8H193.001" stroke="black" stroke-width="0.25" stroke-miterlimit="10"/>
<path d="M190.101 233.6H193.001" stroke="black" stroke-width="0.25" stroke-miterlimit="10"/>
<path d="M190.101 234.5H193.001" stroke="black" stroke-width="0.25" stroke-miterlimit="10"/>
<path d="M190.101 235.3H193.001" stroke="black" stroke-width="0.25" stroke-miterlimit="10"/>
<path d="M190.101 236.2H193.001" stroke="black" stroke-width="0.25" stroke-miterlimit="10"/>
<path d="M190.101 237H193.001" stroke="black" stroke-width="0.25" stroke-miterlimit="10"/>
<path d="M190.101 237.9H193.001" stroke="black" stroke-width="0.25" stroke-miterlimit="10"/>
<path d="M190.101 238.8H193.001" stroke="black" stroke-width="0.25" stroke-miterlimit="10"/>
<path d="M190.101 239.7H193.001" stroke="black" stroke-width="0.25" stroke-miterlimit="10"/>
<path d="M188.6 235.8H185.7V240.2H188.6V235.8Z" fill="#DBD8B9" stroke="black" stroke-width="0.25" stroke-miterlimit="10"/>
<path d="M185.7 236.6H188.5" stroke="black" stroke-width="0.25" stroke-miterlimit="10"/>
<path d="M185.7 237.4H188.5" stroke="black" stroke-width="0.25" stroke-miterlimit="10"/>
<path d="M185.7 238.3H188.5" stroke="black" stroke-width="0.25" stroke-miterlimit="10"/>
<path d="M185.7 239.2H188.5" stroke="black" stroke-width="0.25" stroke-miterlimit="10"/>
<path d="M178.3 235.8H175.4V240.2H178.3V235.8Z" fill="#DBD8B9" stroke="black" stroke-width="0.25" stroke-miterlimit="10"/>
<path d="M175.4 236.6H178.3" stroke="black" stroke-width="0.25" stroke-miterlimit="10"/>
<path d="M175.4 237.4H178.3" stroke="black" stroke-width="0.25" stroke-miterlimit="10"/>
<path d="M175.4 238.3H178.3" stroke="black" stroke-width="0.25" stroke-miterlimit="10"/>
<path d="M175.4 239.2H178.3" stroke="black" stroke-width="0.25" stroke-miterlimit="10"/>
<path d="M173.6 231H170.7V240.7H173.6V231Z" fill="#DBD8B9" stroke="black" stroke-width="0.25" stroke-miterlimit="10"/>
<path d="M170.7 231.9H173.5" stroke="black" stroke-width="0.25" stroke-miterlimit="10"/>
<path d="M170.7 232.8H173.5" stroke="black" stroke-width="0.25" stroke-miterlimit="10"/>
<path d="M170.7 233.6H173.5" stroke="black" stroke-width="0.25" stroke-miterlimit="10"/>
<path d="M170.7 234.5H173.5" stroke="black" stroke-width="0.25" stroke-miterlimit="10"/>
<path d="M170.7 235.3H173.5" stroke="black" stroke-width="0.25" stroke-miterlimit="10"/>
<path d="M170.7 236.2H173.5" stroke="black" stroke-width="0.25" stroke-miterlimit="10"/>
<path d="M170.7 237H173.5" stroke="black" stroke-width="0.25" stroke-miterlimit="10"/>
<path d="M170.7 237.9H173.5" stroke="black" stroke-width="0.25" stroke-miterlimit="10"/>
<path d="M170.7 238.8H173.5" stroke="black" stroke-width="0.25" stroke-miterlimit="10"/>
<path d="M170.7 239.7H173.5" stroke="black" stroke-width="0.25" stroke-miterlimit="10"/>
<path d="M170.501 421V419.3C170.501 419.3 178.401 422.6 187.801 418.9V421.1" stroke="black" stroke-width="0.25" stroke-miterlimit="10"/>
<path d="M170.501 419.3L172.301 413.6" stroke="black" stroke-width="0.25" stroke-miterlimit="10"/>
<path d="M173.301 414L171.501 419.6" stroke="black" stroke-width="0.25" stroke-miterlimit="10"/>
<path d="M174.2 414.4L172.7 419.9" stroke="black" stroke-width="0.25" stroke-miterlimit="10"/>
<path d="M175.001 414.6L173.801 420.2" stroke="black" stroke-width="0.25" stroke-miterlimit="10"/>
<path d="M175.901 414.8L174.601 420.3" stroke="black" stroke-width="0.25" stroke-miterlimit="10"/>
<path d="M176.701 414.9L175.801 420.5" stroke="black" stroke-width="0.25" stroke-miterlimit="10"/>
<path d="M177.4 415L176.9 420.6" stroke="black" stroke-width="0.25" stroke-miterlimit="10"/>
<path d="M178.101 415L178.001 420.6" stroke="black" stroke-width="0.25" stroke-miterlimit="10"/>
<path d="M179.001 415V420.6" stroke="black" stroke-width="0.25" stroke-miterlimit="10"/>
<path d="M179.7 415L180 420.6" stroke="black" stroke-width="0.25" stroke-miterlimit="10"/>
<path d="M180.4 414.9L181.1 420.5" stroke="black" stroke-width="0.25" stroke-miterlimit="10"/>
<path d="M181.101 414.8L182.201 420.3" stroke="black" stroke-width="0.25" stroke-miterlimit="10"/>
<path d="M182.001 414.6L183.301 420.2" stroke="black" stroke-width="0.25" stroke-miterlimit="10"/>
<path d="M182.801 414.5L184.501 419.9" stroke="black" stroke-width="0.25" stroke-miterlimit="10"/>
<path d="M183.601 414.3L185.601 419.6" stroke="black" stroke-width="0.25" stroke-miterlimit="10"/>
<path d="M184.4 414L186.7 419.3" stroke="black" stroke-width="0.25" stroke-miterlimit="10"/>
<path d="M185.601 413.6L187.801 418.9" stroke="black" stroke-width="0.25" stroke-miterlimit="10"/>
</svg>
