<svg width="358" height="596" viewBox="0 0 358 596" fill="none" xmlns="http://www.w3.org/2000/svg">
<path d="M229.3 186.9L227.1 152.7L223.4 121.8C222.8 117 221.9 112.2 220.7 107.5L212.4 75.1L212.3 71.3L197 55.8C195.3 54.1 192.6 53.6 190.4 54.6L182 58.5L171 54.9C168.7 54.2 166.2 54.9 164.7 56.8L151.9 72.8V76.2L143.7 103.1C141.9 109 140.6 115 139.8 121L135.6 152.7L133 202.2C132.8 205.9 132.7 209.6 132.7 213.3V414.6C132.7 420.2 132.9 425.8 133.3 431.4L135 455.2C135.3 458.9 135.8 462.5 136.6 466.1L138.3 473.8C139.6 479.7 141.5 485.5 143.9 491.1L148.6 501.9L153.4 510.5C156.2 515.5 159.4 520.3 163 524.8L172.6 536.7L177.7 541.2C181 544.1 186 543.8 189 540.6L193.5 535.8L203.7 521.5C205.2 519.4 206.5 517.2 207.6 514.9L215.7 498.8C216.5 497.2 217.2 495.5 217.9 493.8L221.9 482.8C223.8 477.7 225.2 472.5 226.2 467.2L228.1 457.1C228.8 453 229.3 448.9 229.5 444.8L230 433.5V198.8C229.7 194.8 229.6 190.8 229.3 186.9Z" fill="#4F4F4F" stroke="black" stroke-miterlimit="10"/>
<path d="M198.6 366.7V350.8C198.6 350.2 198.1 349.7 197.5 349.7H188.1C187.8 349.7 187.5 349.6 187.3 349.3L186.4 348.4C186.2 348.2 185.9 348 185.6 348H176.1C175.8 348 175.5 348.1 175.3 348.4L174.4 349.3C174.2 349.5 173.9 349.7 173.6 349.7H164.6C164 349.7 163.5 350.2 163.5 350.8V366.7C163.5 367.3 163 367.8 162.4 367.8H145.4C144.8 367.8 144.3 368.3 144.3 368.9V433.8C144.3 434.4 144.8 434.9 145.4 434.9H216.2C216.8 434.9 217.3 434.4 217.3 433.8V368.9C217.3 368.3 216.8 367.8 216.2 367.8H199.6C199.1 367.8 198.6 367.3 198.6 366.7Z" fill="#939393" stroke="black" stroke-width="0.25" stroke-miterlimit="10"/>
<path d="M192.8 371.7V355.1C192.8 354.6 192.4 354.2 191.9 354.2H169.6C169.1 354.2 168.7 354.6 168.7 355.1V371.7H164.6C164.1 371.7 163.7 372.1 163.7 372.6V424.7C163.7 425.2 164.1 425.6 164.6 425.6H197.7C198.2 425.6 198.6 425.2 198.6 424.7V372.6C198.6 372.1 198.2 371.7 197.7 371.7H192.8Z" fill="#4F4F4F"/>
<path d="M156.2 395.2H153.3V404.9H156.2V395.2Z" fill="#DBD8B9" stroke="black" stroke-width="0.25" stroke-miterlimit="10"/>
<path d="M153.3 396.2H156.1" stroke="black" stroke-width="0.25" stroke-miterlimit="10"/>
<path d="M153.3 397.1H156.1" stroke="black" stroke-width="0.25" stroke-miterlimit="10"/>
<path d="M153.3 397.9H156.1" stroke="black" stroke-width="0.25" stroke-miterlimit="10"/>
<path d="M153.3 398.8H156.1" stroke="black" stroke-width="0.25" stroke-miterlimit="10"/>
<path d="M153.3 399.6H156.1" stroke="black" stroke-width="0.25" stroke-miterlimit="10"/>
<path d="M153.3 400.5H156.1" stroke="black" stroke-width="0.25" stroke-miterlimit="10"/>
<path d="M153.3 401.3H156.1" stroke="black" stroke-width="0.25" stroke-miterlimit="10"/>
<path d="M153.3 402.1H156.1" stroke="black" stroke-width="0.25" stroke-miterlimit="10"/>
<path d="M153.3 403.1H156.1" stroke="black" stroke-width="0.25" stroke-miterlimit="10"/>
<path d="M153.3 403.9H156.1" stroke="black" stroke-width="0.25" stroke-miterlimit="10"/>
<path d="M208.4 395.2H205.5V404.9H208.4V395.2Z" fill="#DBD8B9" stroke="black" stroke-width="0.25" stroke-miterlimit="10"/>
<path d="M205.5 396.2H208.4" stroke="black" stroke-width="0.25" stroke-miterlimit="10"/>
<path d="M205.5 397.1H208.4" stroke="black" stroke-width="0.25" stroke-miterlimit="10"/>
<path d="M205.5 397.9H208.4" stroke="black" stroke-width="0.25" stroke-miterlimit="10"/>
<path d="M205.5 398.8H208.4" stroke="black" stroke-width="0.25" stroke-miterlimit="10"/>
<path d="M205.5 399.6H208.4" stroke="black" stroke-width="0.25" stroke-miterlimit="10"/>
<path d="M205.5 400.5H208.4" stroke="black" stroke-width="0.25" stroke-miterlimit="10"/>
<path d="M205.5 401.3H208.4" stroke="black" stroke-width="0.25" stroke-miterlimit="10"/>
<path d="M205.5 402.1H208.4" stroke="black" stroke-width="0.25" stroke-miterlimit="10"/>
<path d="M205.5 403.1H208.4" stroke="black" stroke-width="0.25" stroke-miterlimit="10"/>
<path d="M205.5 403.9H208.4" stroke="black" stroke-width="0.25" stroke-miterlimit="10"/>
<path d="M206.3 358.2H203.4V367.9H206.3V358.2Z" fill="#DBD8B9" stroke="black" stroke-width="0.25" stroke-miterlimit="10"/>
<path d="M203.4 359.1H206.3" stroke="black" stroke-width="0.25" stroke-miterlimit="10"/>
<path d="M203.4 360H206.3" stroke="black" stroke-width="0.25" stroke-miterlimit="10"/>
<path d="M203.4 360.8H206.3" stroke="black" stroke-width="0.25" stroke-miterlimit="10"/>
<path d="M203.4 361.7H206.3" stroke="black" stroke-width="0.25" stroke-miterlimit="10"/>
<path d="M203.4 362.5H206.3" stroke="black" stroke-width="0.25" stroke-miterlimit="10"/>
<path d="M203.4 363.4H206.3" stroke="black" stroke-width="0.25" stroke-miterlimit="10"/>
<path d="M203.4 364.2H206.3" stroke="black" stroke-width="0.25" stroke-miterlimit="10"/>
<path d="M203.4 365.1H206.3" stroke="black" stroke-width="0.25" stroke-miterlimit="10"/>
<path d="M203.4 366H206.3" stroke="black" stroke-width="0.25" stroke-miterlimit="10"/>
<path d="M203.4 366.8H206.3" stroke="black" stroke-width="0.25" stroke-miterlimit="10"/>
<path d="M158.4 358.2H155.5V367.9H158.4V358.2Z" fill="#DBD8B9" stroke="black" stroke-width="0.25" stroke-miterlimit="10"/>
<path d="M155.5 359.1H158.3" stroke="black" stroke-width="0.25" stroke-miterlimit="10"/>
<path d="M155.5 360H158.3" stroke="black" stroke-width="0.25" stroke-miterlimit="10"/>
<path d="M155.5 360.8H158.3" stroke="black" stroke-width="0.25" stroke-miterlimit="10"/>
<path d="M155.5 361.7H158.3" stroke="black" stroke-width="0.25" stroke-miterlimit="10"/>
<path d="M155.5 362.5H158.3" stroke="black" stroke-width="0.25" stroke-miterlimit="10"/>
<path d="M155.5 363.4H158.3" stroke="black" stroke-width="0.25" stroke-miterlimit="10"/>
<path d="M155.5 364.2H158.3" stroke="black" stroke-width="0.25" stroke-miterlimit="10"/>
<path d="M155.5 365.1H158.3" stroke="black" stroke-width="0.25" stroke-miterlimit="10"/>
<path d="M155.5 366H158.3" stroke="black" stroke-width="0.25" stroke-miterlimit="10"/>
<path d="M155.5 366.8H158.3" stroke="black" stroke-width="0.25" stroke-miterlimit="10"/>
</svg>
