<svg width="358" height="596" viewBox="0 0 358 596" fill="none" xmlns="http://www.w3.org/2000/svg">
<path d="M229.7 186.6L227.5 152.4L223.8 121.5C223.2 116.7 222.3 111.9 221.1 107.2L212.8 74.8L212.7 71L197.4 55.5C195.7 53.8 193 53.3 190.8 54.3L182.4 58.2L171.4 54.6C169.1 53.9 166.6 54.6 165.1 56.5L152.3 72.5V75.9L144.1 102.8C142.3 108.7 141 114.7 140.2 120.7L136 152.4L133.4 201.9C133.2 205.6 133.1 209.3 133.1 213V414.3C133.1 419.9 133.3 425.5 133.7 431.1L135.4 454.9C135.7 458.6 136.2 462.2 137 465.8L138.7 473.5C140 479.4 141.9 485.2 144.3 490.8L149 501.6L153.8 510.2C156.6 515.2 159.8 520 163.4 524.5L173 536.4L178.1 540.9C181.4 543.8 186.4 543.5 189.4 540.3L193.9 535.5L204.1 521.2C205.6 519.1 206.9 516.9 208 514.6L216.1 498.5C216.9 496.9 217.6 495.2 218.3 493.5L222.3 482.5C224.2 477.4 225.6 472.2 226.6 466.9L228.5 456.8C229.2 452.7 229.7 448.6 229.9 444.5L230.4 433.2V198.5C230.1 194.5 229.9 190.5 229.7 186.6Z" fill="#4F4F4F" stroke="black" stroke-miterlimit="10"/>
<path d="M129.6 415.4V435H149.7L154.8 431.2H207.2L212.5 435H233V415.4L209.9 404.7H205.2V393.8H203.2V381.4L199 375.5V372.6C199 371.9 198.4 371.3 197.7 371.3H197V350.2H188.1L185.1 347.2C182.8 344.9 179.2 344.9 176.9 347.2L173.7 350.4H165.3V371.2H164.7C164 371.2 163.4 371.8 163.4 372.5V375.1L158.8 381.3V394H156.7V405.2H152L129.6 415.4Z" fill="#939393" stroke="black" stroke-width="0.25" stroke-miterlimit="10"/>
<path d="M149.599 412.3L134.199 419.2V429.5H149.399L153.599 426.1H208.099L212.799 429.5H227.999V419.2L212.499 412.3H197.599V400.7H164.199V412.3H149.599Z" fill="#D3D3D3"/>
<path d="M172.4 355.9H189.7V373.3L197.7 383.8V400.7H164.1V383.8L172.5 372.9L172.4 355.9Z" fill="#4F4F4F"/>
<path d="M163.5 399.1H160.6V408.8H163.5V399.1Z" fill="#DBD8B9" stroke="black" stroke-width="0.25" stroke-miterlimit="10"/>
<path d="M160.6 400.1H163.4" stroke="black" stroke-width="0.25" stroke-miterlimit="10"/>
<path d="M160.6 400.9H163.4" stroke="black" stroke-width="0.25" stroke-miterlimit="10"/>
<path d="M160.6 401.8H163.4" stroke="black" stroke-width="0.25" stroke-miterlimit="10"/>
<path d="M160.6 402.6H163.4" stroke="black" stroke-width="0.25" stroke-miterlimit="10"/>
<path d="M160.6 403.5H163.4" stroke="black" stroke-width="0.25" stroke-miterlimit="10"/>
<path d="M160.6 404.3H163.4" stroke="black" stroke-width="0.25" stroke-miterlimit="10"/>
<path d="M160.6 405.2H163.4" stroke="black" stroke-width="0.25" stroke-miterlimit="10"/>
<path d="M160.6 406H163.4" stroke="black" stroke-width="0.25" stroke-miterlimit="10"/>
<path d="M160.6 407H163.4" stroke="black" stroke-width="0.25" stroke-miterlimit="10"/>
<path d="M160.6 407.8H163.4" stroke="black" stroke-width="0.25" stroke-miterlimit="10"/>
<path d="M156.4 395.3H153.5V405H156.4V395.3Z" fill="#DBD8B9" stroke="black" stroke-width="0.25" stroke-miterlimit="10"/>
<path d="M153.5 396.2H156.3" stroke="black" stroke-width="0.25" stroke-miterlimit="10"/>
<path d="M153.5 397.1H156.3" stroke="black" stroke-width="0.25" stroke-miterlimit="10"/>
<path d="M153.5 397.9H156.3" stroke="black" stroke-width="0.25" stroke-miterlimit="10"/>
<path d="M153.5 398.8H156.3" stroke="black" stroke-width="0.25" stroke-miterlimit="10"/>
<path d="M153.5 399.6H156.3" stroke="black" stroke-width="0.25" stroke-miterlimit="10"/>
<path d="M153.5 400.5H156.3" stroke="black" stroke-width="0.25" stroke-miterlimit="10"/>
<path d="M153.5 401.3H156.3" stroke="black" stroke-width="0.25" stroke-miterlimit="10"/>
<path d="M153.5 402.2H156.3" stroke="black" stroke-width="0.25" stroke-miterlimit="10"/>
<path d="M153.5 403.1H156.3" stroke="black" stroke-width="0.25" stroke-miterlimit="10"/>
<path d="M153.5 403.9H156.3" stroke="black" stroke-width="0.25" stroke-miterlimit="10"/>
<path d="M208.799 395.3H205.899V405H208.799V395.3Z" fill="#DBD8B9" stroke="black" stroke-width="0.25" stroke-miterlimit="10"/>
<path d="M205.899 396.2H208.699" stroke="black" stroke-width="0.25" stroke-miterlimit="10"/>
<path d="M205.899 397.1H208.699" stroke="black" stroke-width="0.25" stroke-miterlimit="10"/>
<path d="M205.899 397.9H208.699" stroke="black" stroke-width="0.25" stroke-miterlimit="10"/>
<path d="M205.899 398.8H208.699" stroke="black" stroke-width="0.25" stroke-miterlimit="10"/>
<path d="M205.899 399.6H208.699" stroke="black" stroke-width="0.25" stroke-miterlimit="10"/>
<path d="M205.899 400.5H208.699" stroke="black" stroke-width="0.25" stroke-miterlimit="10"/>
<path d="M205.899 401.3H208.699" stroke="black" stroke-width="0.25" stroke-miterlimit="10"/>
<path d="M205.899 402.2H208.699" stroke="black" stroke-width="0.25" stroke-miterlimit="10"/>
<path d="M205.899 403.1H208.699" stroke="black" stroke-width="0.25" stroke-miterlimit="10"/>
<path d="M205.899 403.9H208.699" stroke="black" stroke-width="0.25" stroke-miterlimit="10"/>
<path d="M203.799 412.3H212.499L227.999 419.2V429.5H212.799L208.099 426.2H153.599L149.399 429.5H134.199V419.2L149.599 412.3H158.499" stroke="black" stroke-width="0.25" stroke-miterlimit="10"/>
<path d="M200.4 412.3H197.6" stroke="black" stroke-width="0.25" stroke-miterlimit="10"/>
<path d="M197.599 414.4V400.7H164.199V414" stroke="black" stroke-width="0.25" stroke-miterlimit="10"/>
<path d="M161.6 412.3H164.2" stroke="black" stroke-width="0.25" stroke-miterlimit="10"/>
<path d="M169.599 412.3H167.999V413.9H169.599V412.3Z" fill="black"/>
<path d="M166.499 400.7H164.199V403H166.499V400.7Z" fill="black"/>
<path d="M197.599 400.7H195.299V403H197.599V400.7Z" fill="black"/>
<path d="M181.799 412.3H180.199V413.9H181.799V412.3Z" fill="black"/>
<path d="M194.099 412.3H192.499V413.9H194.099V412.3Z" fill="black"/>
</svg>
