<svg width="358" height="596" viewBox="0 0 358 596" fill="none" xmlns="http://www.w3.org/2000/svg">
<path d="M229.8 187.4L227.6 153.2L223.9 122.3C223.3 117.5 222.4 112.7 221.2 108L212.9 75.6L212.8 71.8L197.5 56.3C195.8 54.6 193.1 54.1 190.9 55.1L182.5 59L171.5 55.4C169.2 54.7 166.7 55.4 165.2 57.3L152.4 73.3V76.7L144.2 103.6C142.4 109.5 141.1 115.5 140.3 121.5L136.1 153.2L133.5 202.7C133.3 206.4 133.2 210.1 133.2 213.8V415.1C133.2 420.7 133.4 426.3 133.8 431.9L135.5 455.7C135.8 459.4 136.3 463 137.1 466.6L138.8 474.3C140.1 480.2 142 486 144.4 491.6L149.1 502.4L153.9 511C156.7 516 159.9 520.8 163.5 525.3L173.1 537.2L178.2 541.7C181.5 544.6 186.5 544.3 189.5 541.1L194 536.3L204.2 522C205.7 519.9 207 517.7 208.1 515.4L216.2 499.3C217 497.7 217.7 496 218.4 494.3L222.4 483.3C224.3 478.2 225.7 473 226.7 467.7L228.6 457.6C229.3 453.5 229.8 449.4 230 445.3L230.5 434V199.3C230.2 195.4 230 191.4 229.8 187.4Z" fill="#4F4F4F" stroke="black" stroke-miterlimit="10"/>
<path d="M209.6 242V318.6H217.8V337.9H209.5V355.7H221.9V317.4H225.7V312.3H221.4C220 312.3 218.9 311.2 218.9 309.8V236.3H208.6V223.8C208.6 223.1 208 222.5 207.3 222.5H205.7V213L216.3 199.1C218.6 196.1 218.4 191.8 215.8 189.1C213 186.1 208.3 185.8 205.1 188.5L203.2 190.1H195.9C194.7 190.1 193.7 189.1 193.7 187.9V168.7C193.7 167.6 194.6 166.7 195.7 166.7H201.3L222.3 143.2V104.6L201 81.1H163L141.7 104.7V143.3L162.7 166.8H168.3C169.4 166.8 170.3 167.7 170.3 168.8V188C170.3 189.2 169.3 190.2 168.1 190.2H160.8L158.9 188.6C155.8 185.9 151.1 186.2 148.2 189.2C145.6 192 145.4 196.2 147.7 199.2L158.3 213.1V222.6H156.7C156 222.6 155.4 223.2 155.4 223.9V236.4H145.1V309.9C145.1 311.3 144 312.4 142.6 312.4H138.3V317.5H142.1V355.8H154.5V338H146.2V318.7H154.4V241.2H164.1V222.6H173.8V242.2L209.6 242Z" fill="#939393" stroke="black" stroke-width="0.25" stroke-miterlimit="10"/>
<path d="M197.5 403.2H166.5V418.4H197.5V403.2Z" fill="#939393" stroke="black" stroke-width="0.25" stroke-miterlimit="10"/>
<path d="M189.8 221.2V196.1H174.1V205.4H164.2V222.4H174.1V242H189.8H199.8V221.2H189.8Z" fill="#D3D3D3"/>
<path d="M170.4 179.2H160.6V182.4H170.4V179.2Z" fill="#DBD8B9"/>
<path d="M203.5 179.2H193.7V182.4H203.5V179.2Z" fill="#DBD8B9"/>
<path d="M187.699 238H177.899V241.2H187.699V238Z" fill="#DBD8B9"/>
<path d="M158.7 226.7H155.5V236.5H158.7V226.7Z" fill="#DBD8B9"/>
<path d="M208.599 226.7H205.399V236.5H208.599V226.7Z" fill="#DBD8B9"/>
<path d="M225.7 317.4H222.5V327.2H225.7V317.4Z" fill="#DBD8B9"/>
<path d="M141.5 317.4H138.3V327.2H141.5V317.4Z" fill="#DBD8B9"/>
<path d="M212.7 340.5H209.5V350.3H212.7V340.5Z" fill="#DBD8B9"/>
<path d="M154.3 340.5H151.1V350.3H154.3V340.5Z" fill="#DBD8B9"/>
<path d="M185.5 411.1C177.5 414.2 172.3 411.1 172.3 411.1L170.5 416.8C170.5 416.8 178.4 420.1 187.8 416.4L185.5 411.1Z" fill="#DBD8B9"/>
<path d="M191.601 418.5V412.2H192.601V413.3H196.401V412.2H197.401" stroke="black" stroke-width="0.25" stroke-miterlimit="10"/>
<path d="M172.3 411.1C172.3 411.1 177.5 414.2 185.5 411.1V410.6H172.3V411.1Z" stroke="black" stroke-width="0.25" stroke-miterlimit="10"/>
<path d="M170.5 418.5V416.8C170.5 416.8 178.4 420.1 187.8 416.4V418.6" stroke="black" stroke-width="0.25" stroke-miterlimit="10"/>
<path d="M170.5 416.7L172.3 411.1" stroke="black" stroke-width="0.25" stroke-miterlimit="10"/>
<path d="M173.2 411.5L171.5 417.1" stroke="black" stroke-width="0.25" stroke-miterlimit="10"/>
<path d="M174.201 411.8L172.601 417.4" stroke="black" stroke-width="0.25" stroke-miterlimit="10"/>
<path d="M175 412L173.7 417.6" stroke="black" stroke-width="0.25" stroke-miterlimit="10"/>
<path d="M175.901 412.2L174.601 417.8" stroke="black" stroke-width="0.25" stroke-miterlimit="10"/>
<path d="M176.6 412.3L175.7 418" stroke="black" stroke-width="0.25" stroke-miterlimit="10"/>
<path d="M177.4 412.4L176.8 418" stroke="black" stroke-width="0.25" stroke-miterlimit="10"/>
<path d="M178.1 412.4L177.9 418.1" stroke="black" stroke-width="0.25" stroke-miterlimit="10"/>
<path d="M178.9 412.4V418" stroke="black" stroke-width="0.25" stroke-miterlimit="10"/>
<path d="M179.601 412.4L179.901 418" stroke="black" stroke-width="0.25" stroke-miterlimit="10"/>
<path d="M180.4 412.3L181.1 418" stroke="black" stroke-width="0.25" stroke-miterlimit="10"/>
<path d="M181.101 412.2L182.101 417.8" stroke="black" stroke-width="0.25" stroke-miterlimit="10"/>
<path d="M181.9 412L183.3 417.6" stroke="black" stroke-width="0.25" stroke-miterlimit="10"/>
<path d="M182.7 411.9L184.4 417.4" stroke="black" stroke-width="0.25" stroke-miterlimit="10"/>
<path d="M183.5 411.7L185.5 417.1" stroke="black" stroke-width="0.25" stroke-miterlimit="10"/>
<path d="M184.3 411.5L186.6 416.7" stroke="black" stroke-width="0.25" stroke-miterlimit="10"/>
<path d="M185.5 411.1L187.8 416.3" stroke="black" stroke-width="0.25" stroke-miterlimit="10"/>
<path d="M191.601 418.4V411.9H192.601V413H196.401V411.9H197.401V418.4H191.601Z" fill="black"/>
<path d="M141.5 317.4H138.3V327.2H141.5V317.4Z" stroke="black" stroke-width="0.25" stroke-miterlimit="10"/>
<path d="M138.3 318.2H141.5" stroke="black" stroke-width="0.25" stroke-miterlimit="10"/>
<path d="M138.3 318.9H141.5" stroke="black" stroke-width="0.25" stroke-miterlimit="10"/>
<path d="M138.3 319.7H141.5" stroke="black" stroke-width="0.25" stroke-miterlimit="10"/>
<path d="M138.3 320.4H141.5" stroke="black" stroke-width="0.25" stroke-miterlimit="10"/>
<path d="M138.3 321.2H141.5" stroke="black" stroke-width="0.25" stroke-miterlimit="10"/>
<path d="M138.3 321.9H141.5" stroke="black" stroke-width="0.25" stroke-miterlimit="10"/>
<path d="M138.3 322.8H141.5" stroke="black" stroke-width="0.25" stroke-miterlimit="10"/>
<path d="M138.3 323.5H141.5" stroke="black" stroke-width="0.25" stroke-miterlimit="10"/>
<path d="M138.3 324.3H141.5" stroke="black" stroke-width="0.25" stroke-miterlimit="10"/>
<path d="M138.3 325H141.5" stroke="black" stroke-width="0.25" stroke-miterlimit="10"/>
<path d="M138.3 325.8H141.5" stroke="black" stroke-width="0.25" stroke-miterlimit="10"/>
<path d="M138.3 326.5H141.5" stroke="black" stroke-width="0.25" stroke-miterlimit="10"/>
<path d="M225.7 317.4H222.5V327.2H225.7V317.4Z" stroke="black" stroke-width="0.25" stroke-miterlimit="10"/>
<path d="M222.5 318.2H225.7" stroke="black" stroke-width="0.25" stroke-miterlimit="10"/>
<path d="M222.5 318.9H225.7" stroke="black" stroke-width="0.25" stroke-miterlimit="10"/>
<path d="M222.5 319.7H225.7" stroke="black" stroke-width="0.25" stroke-miterlimit="10"/>
<path d="M222.5 320.4H225.7" stroke="black" stroke-width="0.25" stroke-miterlimit="10"/>
<path d="M222.5 321.2H225.7" stroke="black" stroke-width="0.25" stroke-miterlimit="10"/>
<path d="M222.5 321.9H225.7" stroke="black" stroke-width="0.25" stroke-miterlimit="10"/>
<path d="M222.5 322.8H225.7" stroke="black" stroke-width="0.25" stroke-miterlimit="10"/>
<path d="M222.5 323.5H225.7" stroke="black" stroke-width="0.25" stroke-miterlimit="10"/>
<path d="M222.5 324.3H225.7" stroke="black" stroke-width="0.25" stroke-miterlimit="10"/>
<path d="M222.5 325H225.7" stroke="black" stroke-width="0.25" stroke-miterlimit="10"/>
<path d="M222.5 325.8H225.7" stroke="black" stroke-width="0.25" stroke-miterlimit="10"/>
<path d="M222.5 326.5H225.7" stroke="black" stroke-width="0.25" stroke-miterlimit="10"/>
<path d="M154.301 340.5H151.101V350.3H154.301V340.5Z" stroke="black" stroke-width="0.25" stroke-miterlimit="10"/>
<path d="M151.101 341.2H154.301" stroke="black" stroke-width="0.25" stroke-miterlimit="10"/>
<path d="M151.101 342H154.301" stroke="black" stroke-width="0.25" stroke-miterlimit="10"/>
<path d="M151.101 342.8H154.301" stroke="black" stroke-width="0.25" stroke-miterlimit="10"/>
<path d="M151.101 343.5H154.301" stroke="black" stroke-width="0.25" stroke-miterlimit="10"/>
<path d="M151.101 344.3H154.301" stroke="black" stroke-width="0.25" stroke-miterlimit="10"/>
<path d="M151.101 345H154.301" stroke="black" stroke-width="0.25" stroke-miterlimit="10"/>
<path d="M151.101 345.8H154.301" stroke="black" stroke-width="0.25" stroke-miterlimit="10"/>
<path d="M151.101 346.5H154.301" stroke="black" stroke-width="0.25" stroke-miterlimit="10"/>
<path d="M151.101 347.4H154.301" stroke="black" stroke-width="0.25" stroke-miterlimit="10"/>
<path d="M151.101 348.1H154.301" stroke="black" stroke-width="0.25" stroke-miterlimit="10"/>
<path d="M151.101 348.8H154.301" stroke="black" stroke-width="0.25" stroke-miterlimit="10"/>
<path d="M151.101 349.5H154.301" stroke="black" stroke-width="0.25" stroke-miterlimit="10"/>
<path d="M212.7 340.5H209.5V350.3H212.7V340.5Z" stroke="black" stroke-width="0.25" stroke-miterlimit="10"/>
<path d="M209.5 341.2H212.7" stroke="black" stroke-width="0.25" stroke-miterlimit="10"/>
<path d="M209.5 342H212.7" stroke="black" stroke-width="0.25" stroke-miterlimit="10"/>
<path d="M209.5 342.8H212.7" stroke="black" stroke-width="0.25" stroke-miterlimit="10"/>
<path d="M209.5 343.5H212.7" stroke="black" stroke-width="0.25" stroke-miterlimit="10"/>
<path d="M209.5 344.3H212.7" stroke="black" stroke-width="0.25" stroke-miterlimit="10"/>
<path d="M209.5 345H212.7" stroke="black" stroke-width="0.25" stroke-miterlimit="10"/>
<path d="M209.5 345.8H212.7" stroke="black" stroke-width="0.25" stroke-miterlimit="10"/>
<path d="M209.5 346.5H212.7" stroke="black" stroke-width="0.25" stroke-miterlimit="10"/>
<path d="M209.5 347.4H212.7" stroke="black" stroke-width="0.25" stroke-miterlimit="10"/>
<path d="M209.5 348.1H212.7" stroke="black" stroke-width="0.25" stroke-miterlimit="10"/>
<path d="M209.5 348.8H212.7" stroke="black" stroke-width="0.25" stroke-miterlimit="10"/>
<path d="M209.5 349.5H212.7" stroke="black" stroke-width="0.25" stroke-miterlimit="10"/>
<path d="M208.6 226.7H205.4V236.5H208.6V226.7Z" stroke="black" stroke-width="0.25" stroke-miterlimit="10"/>
<path d="M205.4 227.4H208.6" stroke="black" stroke-width="0.25" stroke-miterlimit="10"/>
<path d="M205.4 228.1H208.6" stroke="black" stroke-width="0.25" stroke-miterlimit="10"/>
<path d="M205.4 228.9H208.6" stroke="black" stroke-width="0.25" stroke-miterlimit="10"/>
<path d="M205.4 229.7H208.6" stroke="black" stroke-width="0.25" stroke-miterlimit="10"/>
<path d="M205.4 230.4H208.6" stroke="black" stroke-width="0.25" stroke-miterlimit="10"/>
<path d="M205.4 231.2H208.6" stroke="black" stroke-width="0.25" stroke-miterlimit="10"/>
<path d="M205.4 232H208.6" stroke="black" stroke-width="0.25" stroke-miterlimit="10"/>
<path d="M205.4 232.7H208.6" stroke="black" stroke-width="0.25" stroke-miterlimit="10"/>
<path d="M205.4 233.5H208.6" stroke="black" stroke-width="0.25" stroke-miterlimit="10"/>
<path d="M205.4 234.3H208.6" stroke="black" stroke-width="0.25" stroke-miterlimit="10"/>
<path d="M205.4 235H208.6" stroke="black" stroke-width="0.25" stroke-miterlimit="10"/>
<path d="M205.4 235.7H208.6" stroke="black" stroke-width="0.25" stroke-miterlimit="10"/>
<path d="M158.7 226.7H155.5V236.5H158.7V226.7Z" stroke="black" stroke-width="0.25" stroke-miterlimit="10"/>
<path d="M155.5 227.4H158.7" stroke="black" stroke-width="0.25" stroke-miterlimit="10"/>
<path d="M155.5 228.1H158.7" stroke="black" stroke-width="0.25" stroke-miterlimit="10"/>
<path d="M155.5 228.9H158.7" stroke="black" stroke-width="0.25" stroke-miterlimit="10"/>
<path d="M155.5 229.7H158.7" stroke="black" stroke-width="0.25" stroke-miterlimit="10"/>
<path d="M155.5 230.4H158.7" stroke="black" stroke-width="0.25" stroke-miterlimit="10"/>
<path d="M155.5 231.2H158.7" stroke="black" stroke-width="0.25" stroke-miterlimit="10"/>
<path d="M155.5 232H158.7" stroke="black" stroke-width="0.25" stroke-miterlimit="10"/>
<path d="M155.5 232.7H158.7" stroke="black" stroke-width="0.25" stroke-miterlimit="10"/>
<path d="M155.5 233.5H158.7" stroke="black" stroke-width="0.25" stroke-miterlimit="10"/>
<path d="M155.5 234.3H158.7" stroke="black" stroke-width="0.25" stroke-miterlimit="10"/>
<path d="M155.5 235H158.7" stroke="black" stroke-width="0.25" stroke-miterlimit="10"/>
<path d="M155.5 235.7H158.7" stroke="black" stroke-width="0.25" stroke-miterlimit="10"/>
<path d="M177.872 237.978V241.178H187.672V237.978H177.872Z" stroke="black" stroke-width="0.25" stroke-miterlimit="10"/>
<path d="M178.7 241.1V238" stroke="black" stroke-width="0.25" stroke-miterlimit="10"/>
<path d="M179.4 241.1V238" stroke="black" stroke-width="0.25" stroke-miterlimit="10"/>
<path d="M180.2 241.1V238" stroke="black" stroke-width="0.25" stroke-miterlimit="10"/>
<path d="M180.9 241.1V238" stroke="black" stroke-width="0.25" stroke-miterlimit="10"/>
<path d="M181.7 241.1V238" stroke="black" stroke-width="0.25" stroke-miterlimit="10"/>
<path d="M182.4 241.1V238" stroke="black" stroke-width="0.25" stroke-miterlimit="10"/>
<path d="M183.2 241.1V238" stroke="black" stroke-width="0.25" stroke-miterlimit="10"/>
<path d="M184 241.1V238" stroke="black" stroke-width="0.25" stroke-miterlimit="10"/>
<path d="M184.8 241.1V238" stroke="black" stroke-width="0.25" stroke-miterlimit="10"/>
<path d="M185.5 241.1V238" stroke="black" stroke-width="0.25" stroke-miterlimit="10"/>
<path d="M186.2 241.1V238" stroke="black" stroke-width="0.25" stroke-miterlimit="10"/>
<path d="M187 241.1V238" stroke="black" stroke-width="0.25" stroke-miterlimit="10"/>
<path d="M193.701 179.107V182.307H203.501V179.107H193.701Z" stroke="black" stroke-width="0.25" stroke-miterlimit="10"/>
<path d="M194.5 182.3V179.2" stroke="black" stroke-width="0.25" stroke-miterlimit="10"/>
<path d="M195.2 182.3V179.2" stroke="black" stroke-width="0.25" stroke-miterlimit="10"/>
<path d="M196 182.3V179.2" stroke="black" stroke-width="0.25" stroke-miterlimit="10"/>
<path d="M196.7 182.3V179.2" stroke="black" stroke-width="0.25" stroke-miterlimit="10"/>
<path d="M197.5 182.3V179.2" stroke="black" stroke-width="0.25" stroke-miterlimit="10"/>
<path d="M198.2 182.3V179.2" stroke="black" stroke-width="0.25" stroke-miterlimit="10"/>
<path d="M199.101 182.3V179.2" stroke="black" stroke-width="0.25" stroke-miterlimit="10"/>
<path d="M199.8 182.3V179.2" stroke="black" stroke-width="0.25" stroke-miterlimit="10"/>
<path d="M200.601 182.3V179.2" stroke="black" stroke-width="0.25" stroke-miterlimit="10"/>
<path d="M201.3 182.3V179.2" stroke="black" stroke-width="0.25" stroke-miterlimit="10"/>
<path d="M202.101 182.3V179.2" stroke="black" stroke-width="0.25" stroke-miterlimit="10"/>
<path d="M202.8 182.3V179.2" stroke="black" stroke-width="0.25" stroke-miterlimit="10"/>
<path d="M160.578 179.184V182.384H170.378V179.184H160.578Z" stroke="black" stroke-width="0.25" stroke-miterlimit="10"/>
<path d="M161.4 182.3V179.2" stroke="black" stroke-width="0.25" stroke-miterlimit="10"/>
<path d="M162.101 182.3V179.2" stroke="black" stroke-width="0.25" stroke-miterlimit="10"/>
<path d="M162.9 182.3V179.2" stroke="black" stroke-width="0.25" stroke-miterlimit="10"/>
<path d="M163.601 182.3V179.2" stroke="black" stroke-width="0.25" stroke-miterlimit="10"/>
<path d="M164.4 182.3V179.2" stroke="black" stroke-width="0.25" stroke-miterlimit="10"/>
<path d="M165.101 182.3V179.2" stroke="black" stroke-width="0.25" stroke-miterlimit="10"/>
<path d="M165.9 182.3V179.2" stroke="black" stroke-width="0.25" stroke-miterlimit="10"/>
<path d="M166.7 182.3V179.2" stroke="black" stroke-width="0.25" stroke-miterlimit="10"/>
<path d="M167.5 182.3V179.2" stroke="black" stroke-width="0.25" stroke-miterlimit="10"/>
<path d="M168.2 182.3V179.2" stroke="black" stroke-width="0.25" stroke-miterlimit="10"/>
<path d="M168.9 182.3V179.2" stroke="black" stroke-width="0.25" stroke-miterlimit="10"/>
<path d="M169.7 182.3V179.2" stroke="black" stroke-width="0.25" stroke-miterlimit="10"/>
<path d="M164.2 222.4V220" stroke="black" stroke-width="0.25" stroke-miterlimit="10"/>
<path d="M164.2 216.5V205.4H174.1" stroke="black" stroke-width="0.25" stroke-miterlimit="10"/>
<path d="M174.101 207.7V196.1H182.001" stroke="black" stroke-width="0.25" stroke-miterlimit="10"/>
<path d="M188.4 196.1H189.8V222.9" stroke="black" stroke-width="0.25" stroke-miterlimit="10"/>
<path d="M174.101 211V222.4" stroke="black" stroke-width="0.25" stroke-miterlimit="10"/>
<path d="M189.8 225.9V242" stroke="black" stroke-width="0.25" stroke-miterlimit="10"/>
<path d="M199.8 229.7V221.2H189.8" stroke="black" stroke-width="0.25" stroke-miterlimit="10"/>
<path d="M199.8 232.7V242" stroke="black" stroke-width="0.25" stroke-miterlimit="10"/>
<path d="M167.7 89.7999L148.3 110.2L148.8 140L167.7 160.4H197.3L215.8 139.9V110.3L197.3 89.7999H167.7Z" stroke="white" stroke-width="1.5" stroke-miterlimit="10"/>
<path d="M182.2 142.6C191.865 142.6 199.7 134.765 199.7 125.1C199.7 115.435 191.865 107.6 182.2 107.6C172.535 107.6 164.7 115.435 164.7 125.1C164.7 134.765 172.535 142.6 182.2 142.6Z" stroke="white" stroke-width="2.5" stroke-miterlimit="10"/>
<path d="M177.141 131.946V116.589H179.001V123.428H187.189V116.589H189.049V131.946H187.189V125.077H179.001V131.946H177.141Z" fill="white"/>
<path d="M168.2 109.8L171.4 107.5" stroke="white" stroke-miterlimit="10"/>
<path d="M167.2 108.4L170.3 106.1" stroke="white" stroke-miterlimit="10"/>
<path d="M166.1 107L169.3 104.7" stroke="white" stroke-miterlimit="10"/>
<path d="M165.1 105.6L168.2 103.3" stroke="white" stroke-miterlimit="10"/>
<path d="M164 104.2L167.2 101.9" stroke="white" stroke-miterlimit="10"/>
<path d="M163 102.8L166.1 100.5" stroke="white" stroke-miterlimit="10"/>
<path d="M161.899 101.4L165.099 99.1" stroke="white" stroke-miterlimit="10"/>
<path d="M160.899 100L163.999 97.7" stroke="white" stroke-miterlimit="10"/>
<path d="M193 107.8L196.1 110.3" stroke="white" stroke-miterlimit="10"/>
<path d="M194.1 106.4L197.2 108.9" stroke="white" stroke-miterlimit="10"/>
<path d="M195.2 105.1L198.3 107.5" stroke="white" stroke-miterlimit="10"/>
<path d="M196.3 103.7L199.4 106.1" stroke="white" stroke-miterlimit="10"/>
<path d="M197.399 102.3L200.399 104.8" stroke="white" stroke-miterlimit="10"/>
<path d="M198.5 101L201.5 103.4" stroke="white" stroke-miterlimit="10"/>
<path d="M199.6 99.6L202.6 102" stroke="white" stroke-miterlimit="10"/>
<path d="M200.6 98.2L203.7 100.7" stroke="white" stroke-miterlimit="10"/>
<path d="M171.5 155.7L175.4 155.9" stroke="white" stroke-miterlimit="10"/>
<path d="M171.3 157.5L175.2 157.6" stroke="white" stroke-miterlimit="10"/>
<path d="M171.3 158.9L175.2 159.1" stroke="white" stroke-miterlimit="10"/>
<path d="M171.6 154L175.5 154.1" stroke="white" stroke-miterlimit="10"/>
<path d="M171.7 152.2L175.6 152.4" stroke="white" stroke-miterlimit="10"/>
<path d="M171.7 150.5L175.6 150.6" stroke="white" stroke-miterlimit="10"/>
<path d="M171.8 148.7L175.7 148.9" stroke="white" stroke-miterlimit="10"/>
<path d="M171.899 147L175.799 147.1" stroke="white" stroke-miterlimit="10"/>
<path d="M171.899 145.2L175.799 145.4" stroke="white" stroke-miterlimit="10"/>
<path d="M172 143.5L175.9 143.6" stroke="white" stroke-miterlimit="10"/>
<path d="M189.399 155.9L193.299 155.7" stroke="white" stroke-miterlimit="10"/>
<path d="M189.5 157.6L193.4 157.3" stroke="white" stroke-miterlimit="10"/>
<path d="M189.7 159.1L193.6 158.9" stroke="white" stroke-miterlimit="10"/>
<path d="M189.3 154.2L193.2 153.9" stroke="white" stroke-miterlimit="10"/>
<path d="M189.2 152.4L193.1 152.2" stroke="white" stroke-miterlimit="10"/>
<path d="M189.1 150.7L193 150.4" stroke="white" stroke-miterlimit="10"/>
<path d="M189 148.9L192.9 148.7" stroke="white" stroke-miterlimit="10"/>
<path d="M188.8 147.2L192.7 146.9" stroke="white" stroke-miterlimit="10"/>
<path d="M188.7 145.4L192.6 145.2" stroke="white" stroke-miterlimit="10"/>
<path d="M188.6 143.7L192.5 143.4" stroke="white" stroke-miterlimit="10"/>
</svg>
