<svg width="358" height="596" viewBox="0 0 358 596" fill="none" xmlns="http://www.w3.org/2000/svg">
<path d="M229.6 186.9L227.4 152.7L223.7 121.8C223.1 117 222.2 112.2 221 107.5L212.7 75.1L212.6 71.3L197.3 55.8C195.6 54.1 192.9 53.6 190.7 54.6L182.3 58.5L171.3 54.9C169 54.2 166.5 54.9 165 56.8L152.2 72.8V76.2L144 103.1C142.2 109 140.9 115 140.1 121L135.9 152.7L133.3 202.2C133.1 205.9 133 209.6 133 213.3V414.6C133 420.2 133.2 425.8 133.6 431.4L135.3 455.2C135.6 458.9 136.1 462.5 136.9 466.1L138.6 473.8C139.9 479.7 141.8 485.5 144.2 491.1L148.9 501.9L153.7 510.5C156.5 515.5 159.7 520.3 163.3 524.8L172.9 536.7L178 541.2C181.3 544.1 186.3 543.8 189.3 540.6L193.8 535.8L204 521.5C205.5 519.4 206.8 517.2 207.9 514.9L216 498.8C216.8 497.2 217.5 495.5 218.2 493.8L222.2 482.8C224.1 477.7 225.5 472.5 226.5 467.2L228.4 457.1C229.1 453 229.6 448.9 229.8 444.8L230.3 433.5V198.8C229.9 194.8 229.8 190.8 229.6 186.9Z" fill="#4F4F4F" stroke="black" stroke-miterlimit="10"/>
<path d="M147.4 358.3V364.9H159.9V368.7H146V379.8H159.9V387H146V408.2H159.9V426.3H159.3V427.1H145.9V447.7H217.3V427.3H203.9V426.3H203.3V408.2H217.3V387.3H203.4V365.1H215.6V358.3H197.2V375.4H166.3V358.3H147.4Z" fill="#D3D3D3"/>
<path d="M154.2 358.3H146V321.8H147.4C148.4 321.8 149.2 321 149.2 320V266C149.2 266 145.3 265 144.8 262.1V250.8C144.8 250.8 146.1 248.6 149.1 247.9V239.1H161.1C162.7 239.1 164 237.8 164 236.2V199.1C164 198.5 164.5 198 165.1 198H173.9V243.8H154.4L154.2 358.3Z" fill="#939393"/>
<path d="M209.2 358.3H217.4V321.8H216.1C215.1 321.8 214.2 321 214.2 320V266C214.2 266 218.1 265 218.6 262.1V250.8C218.6 250.8 217.3 248.6 214.3 247.9V239.1H202.3C200.7 239.1 199.4 237.8 199.4 236.2V199.1C199.4 198.5 198.9 198 198.3 198H189.5V243.8H209L209.2 358.3Z" fill="#939393"/>
<path d="M208.5 387.3C208.5 387.4 208.5 389.5 208.5 389.5L205.6 391.3H203.5V387.3H208.5Z" fill="black"/>
<path d="M154.8 379.8C154.8 379.7 154.8 377.6 154.8 377.6L157.7 375.8H159.8V379.8H154.8Z" fill="black"/>
<path d="M154.8 408.2C154.8 408.1 154.8 406 154.8 406L157.7 404.2H159.8V408.2H154.8Z" fill="black"/>
<path d="M191.3 421V415.3H192.3V416.4H196.1V415.3H197.2V421H191.3Z" fill="black"/>
<path d="M172 413.6C172 413.6 177.2 416.7 185.2 413.6V413.1H172V413.6Z" stroke="black" stroke-width="0.25" stroke-miterlimit="10"/>
<path d="M185.3 413.7L187.6 419C179 422.6 170.3 419.4 170.3 419.4L172.1 413.7C172 413.7 177.5 416.9 185.3 413.7Z" fill="#DBD8B9"/>
<path d="M154.2 343.6H151.3V353.3H154.2V343.6Z" fill="#DBD8B9" stroke="black" stroke-width="0.25" stroke-miterlimit="10"/>
<path d="M151.3 344.5H154.2" stroke="black" stroke-width="0.25" stroke-miterlimit="10"/>
<path d="M151.3 345.4H154.2" stroke="black" stroke-width="0.25" stroke-miterlimit="10"/>
<path d="M151.3 346.2H154.2" stroke="black" stroke-width="0.25" stroke-miterlimit="10"/>
<path d="M151.3 347.1H154.2" stroke="black" stroke-width="0.25" stroke-miterlimit="10"/>
<path d="M151.3 347.9H154.2" stroke="black" stroke-width="0.25" stroke-miterlimit="10"/>
<path d="M151.3 348.8H154.2" stroke="black" stroke-width="0.25" stroke-miterlimit="10"/>
<path d="M151.3 349.6H154.2" stroke="black" stroke-width="0.25" stroke-miterlimit="10"/>
<path d="M151.3 350.5H154.2" stroke="black" stroke-width="0.25" stroke-miterlimit="10"/>
<path d="M151.3 351.4H154.2" stroke="black" stroke-width="0.25" stroke-miterlimit="10"/>
<path d="M151.3 352.3H154.2" stroke="black" stroke-width="0.25" stroke-miterlimit="10"/>
<path d="M212 343.6H209.1V353.3H212V343.6Z" fill="#DBD8B9" stroke="black" stroke-width="0.25" stroke-miterlimit="10"/>
<path d="M209.1 344.5H212" stroke="black" stroke-width="0.25" stroke-miterlimit="10"/>
<path d="M209.1 345.4H212" stroke="black" stroke-width="0.25" stroke-miterlimit="10"/>
<path d="M209.1 346.2H212" stroke="black" stroke-width="0.25" stroke-miterlimit="10"/>
<path d="M209.1 347.1H212" stroke="black" stroke-width="0.25" stroke-miterlimit="10"/>
<path d="M209.1 347.9H212" stroke="black" stroke-width="0.25" stroke-miterlimit="10"/>
<path d="M209.1 348.8H212" stroke="black" stroke-width="0.25" stroke-miterlimit="10"/>
<path d="M209.1 349.6H212" stroke="black" stroke-width="0.25" stroke-miterlimit="10"/>
<path d="M209.1 350.5H212" stroke="black" stroke-width="0.25" stroke-miterlimit="10"/>
<path d="M209.1 351.4H212" stroke="black" stroke-width="0.25" stroke-miterlimit="10"/>
<path d="M209.1 352.3H212" stroke="black" stroke-width="0.25" stroke-miterlimit="10"/>
<path d="M158.1 229.5H155.2V239.2H158.1V229.5Z" fill="#DBD8B9" stroke="black" stroke-width="0.25" stroke-miterlimit="10"/>
<path d="M155.2 230.5H158" stroke="black" stroke-width="0.25" stroke-miterlimit="10"/>
<path d="M155.2 231.3H158" stroke="black" stroke-width="0.25" stroke-miterlimit="10"/>
<path d="M155.2 232.1H158" stroke="black" stroke-width="0.25" stroke-miterlimit="10"/>
<path d="M155.2 233H158" stroke="black" stroke-width="0.25" stroke-miterlimit="10"/>
<path d="M155.2 233.8H158" stroke="black" stroke-width="0.25" stroke-miterlimit="10"/>
<path d="M155.2 234.7H158" stroke="black" stroke-width="0.25" stroke-miterlimit="10"/>
<path d="M155.2 235.5H158" stroke="black" stroke-width="0.25" stroke-miterlimit="10"/>
<path d="M155.2 236.4H158" stroke="black" stroke-width="0.25" stroke-miterlimit="10"/>
<path d="M155.2 237.3H158" stroke="black" stroke-width="0.25" stroke-miterlimit="10"/>
<path d="M155.2 238.2H158" stroke="black" stroke-width="0.25" stroke-miterlimit="10"/>
<path d="M208.1 229.5H205.2V239.2H208.1V229.5Z" fill="#DBD8B9" stroke="black" stroke-width="0.25" stroke-miterlimit="10"/>
<path d="M205.2 230.5H208" stroke="black" stroke-width="0.25" stroke-miterlimit="10"/>
<path d="M205.2 231.3H208" stroke="black" stroke-width="0.25" stroke-miterlimit="10"/>
<path d="M205.2 232.1H208" stroke="black" stroke-width="0.25" stroke-miterlimit="10"/>
<path d="M205.2 233H208" stroke="black" stroke-width="0.25" stroke-miterlimit="10"/>
<path d="M205.2 233.8H208" stroke="black" stroke-width="0.25" stroke-miterlimit="10"/>
<path d="M205.2 234.7H208" stroke="black" stroke-width="0.25" stroke-miterlimit="10"/>
<path d="M205.2 235.5H208" stroke="black" stroke-width="0.25" stroke-miterlimit="10"/>
<path d="M205.2 236.4H208" stroke="black" stroke-width="0.25" stroke-miterlimit="10"/>
<path d="M205.2 237.3H208" stroke="black" stroke-width="0.25" stroke-miterlimit="10"/>
<path d="M205.2 238.2H208" stroke="black" stroke-width="0.25" stroke-miterlimit="10"/>
<path d="M192.799 231.1H189.899V240.8H192.799V231.1Z" fill="#DBD8B9" stroke="black" stroke-width="0.25" stroke-miterlimit="10"/>
<path d="M189.899 232.1H192.799" stroke="black" stroke-width="0.25" stroke-miterlimit="10"/>
<path d="M189.899 232.9H192.799" stroke="black" stroke-width="0.25" stroke-miterlimit="10"/>
<path d="M189.899 233.7H192.799" stroke="black" stroke-width="0.25" stroke-miterlimit="10"/>
<path d="M189.899 234.6H192.799" stroke="black" stroke-width="0.25" stroke-miterlimit="10"/>
<path d="M189.899 235.4H192.799" stroke="black" stroke-width="0.25" stroke-miterlimit="10"/>
<path d="M189.899 236.3H192.799" stroke="black" stroke-width="0.25" stroke-miterlimit="10"/>
<path d="M189.899 237.1H192.799" stroke="black" stroke-width="0.25" stroke-miterlimit="10"/>
<path d="M189.899 238H192.799" stroke="black" stroke-width="0.25" stroke-miterlimit="10"/>
<path d="M189.899 238.9H192.799" stroke="black" stroke-width="0.25" stroke-miterlimit="10"/>
<path d="M189.899 239.8H192.799" stroke="black" stroke-width="0.25" stroke-miterlimit="10"/>
<path d="M173.299 231.1H170.399V240.8H173.299V231.1Z" fill="#DBD8B9" stroke="black" stroke-width="0.25" stroke-miterlimit="10"/>
<path d="M170.399 232.1H173.199" stroke="black" stroke-width="0.25" stroke-miterlimit="10"/>
<path d="M170.399 232.9H173.199" stroke="black" stroke-width="0.25" stroke-miterlimit="10"/>
<path d="M170.399 233.7H173.199" stroke="black" stroke-width="0.25" stroke-miterlimit="10"/>
<path d="M170.399 234.6H173.199" stroke="black" stroke-width="0.25" stroke-miterlimit="10"/>
<path d="M170.399 235.4H173.199" stroke="black" stroke-width="0.25" stroke-miterlimit="10"/>
<path d="M170.399 236.3H173.199" stroke="black" stroke-width="0.25" stroke-miterlimit="10"/>
<path d="M170.399 237.1H173.199" stroke="black" stroke-width="0.25" stroke-miterlimit="10"/>
<path d="M170.399 238H173.199" stroke="black" stroke-width="0.25" stroke-miterlimit="10"/>
<path d="M170.399 238.9H173.199" stroke="black" stroke-width="0.25" stroke-miterlimit="10"/>
<path d="M170.399 239.8H173.199" stroke="black" stroke-width="0.25" stroke-miterlimit="10"/>
<path d="M170.2 421V419.3C170.2 419.3 178.1 422.6 187.5 418.9V421.1" stroke="black" stroke-width="0.25" stroke-miterlimit="10"/>
<path d="M170.2 419.3L172 413.6" stroke="black" stroke-width="0.25" stroke-miterlimit="10"/>
<path d="M172.9 414L171.2 419.6" stroke="black" stroke-width="0.25" stroke-miterlimit="10"/>
<path d="M173.899 414.4L172.399 419.9" stroke="black" stroke-width="0.25" stroke-miterlimit="10"/>
<path d="M174.7 414.6L173.5 420.2" stroke="black" stroke-width="0.25" stroke-miterlimit="10"/>
<path d="M175.6 414.8L174.3 420.3" stroke="black" stroke-width="0.25" stroke-miterlimit="10"/>
<path d="M176.4 414.9L175.5 420.5" stroke="black" stroke-width="0.25" stroke-miterlimit="10"/>
<path d="M177.1 415L176.6 420.6" stroke="black" stroke-width="0.25" stroke-miterlimit="10"/>
<path d="M177.8 415L177.7 420.6" stroke="black" stroke-width="0.25" stroke-miterlimit="10"/>
<path d="M178.7 415V420.6" stroke="black" stroke-width="0.25" stroke-miterlimit="10"/>
<path d="M179.399 415L179.699 420.6" stroke="black" stroke-width="0.25" stroke-miterlimit="10"/>
<path d="M180.1 414.9L180.8 420.5" stroke="black" stroke-width="0.25" stroke-miterlimit="10"/>
<path d="M180.8 414.8L181.9 420.3" stroke="black" stroke-width="0.25" stroke-miterlimit="10"/>
<path d="M181.7 414.6L183 420.2" stroke="black" stroke-width="0.25" stroke-miterlimit="10"/>
<path d="M182.5 414.5L184.2 419.9" stroke="black" stroke-width="0.25" stroke-miterlimit="10"/>
<path d="M183.3 414.3L185.3 419.6" stroke="black" stroke-width="0.25" stroke-miterlimit="10"/>
<path d="M184.1 414L186.4 419.3" stroke="black" stroke-width="0.25" stroke-miterlimit="10"/>
<path d="M185.3 413.6L187.5 418.9" stroke="black" stroke-width="0.25" stroke-miterlimit="10"/>
<path d="M150 358.3H147.4V364.9H159.9V372.6" stroke="black" stroke-width="0.25" stroke-miterlimit="10"/>
<path d="M153.2 358.3H166.3V396.9" stroke="black" stroke-width="0.25" stroke-miterlimit="10"/>
<path d="M159.9 396.1V375.4" stroke="black" stroke-width="0.25" stroke-miterlimit="10"/>
<path d="M166.3 375.4H197.1" stroke="black" stroke-width="0.25" stroke-miterlimit="10"/>
<path d="M197.2 396.9V358.3H210.6" stroke="black" stroke-width="0.25" stroke-miterlimit="10"/>
<path d="M214 358.3H215.6V365.1H201.9" stroke="black" stroke-width="0.25" stroke-miterlimit="10"/>
<path d="M198.9 365.1H197.2" stroke="black" stroke-width="0.25" stroke-miterlimit="10"/>
<path d="M159.9 368.7H146V379.8H159.9" stroke="black" stroke-width="0.25" stroke-miterlimit="10"/>
<path d="M159.9 387H146V408.2H159.9" stroke="black" stroke-width="0.25" stroke-miterlimit="10"/>
<path d="M159.9 399.1V426.3" stroke="black" stroke-width="0.25" stroke-miterlimit="10"/>
<path d="M146 396.1H153.8V399.9H155" stroke="black" stroke-width="0.25" stroke-miterlimit="10"/>
<path d="M158.2 399.9H159.9" stroke="black" stroke-width="0.25" stroke-miterlimit="10"/>
<path d="M166.3 399.9V407" stroke="black" stroke-width="0.25" stroke-miterlimit="10"/>
<path d="M166.3 411.4V426.3" stroke="black" stroke-width="0.25" stroke-miterlimit="10"/>
<path d="M161.5 426.3H159.3V427.1H145.9V447.7H217.3V427.3H203.9V426.3H203.3V399.1" stroke="black" stroke-width="0.25" stroke-miterlimit="10"/>
<path d="M203.4 396.1V365.1" stroke="black" stroke-width="0.25" stroke-miterlimit="10"/>
<path d="M166.3 405.9H197.1" stroke="black" stroke-width="0.25" stroke-miterlimit="10"/>
<path d="M197.2 399.9V407" stroke="black" stroke-width="0.25" stroke-miterlimit="10"/>
<path d="M197.2 411.4V426.3H196.4V430.5H189.2" stroke="black" stroke-width="0.25" stroke-miterlimit="10"/>
<path d="M186.1 430.5H177.7" stroke="black" stroke-width="0.25" stroke-miterlimit="10"/>
<path d="M164.3 426.3H166.8V430.5H174.7" stroke="black" stroke-width="0.25" stroke-miterlimit="10"/>
<path d="M155.4 427.1V432.9" stroke="black" stroke-width="0.25" stroke-miterlimit="10"/>
<path d="M155.4 435.6V447.7" stroke="black" stroke-width="0.25" stroke-miterlimit="10"/>
<path d="M207.7 432.9V427.3" stroke="black" stroke-width="0.25" stroke-miterlimit="10"/>
<path d="M207.7 436V447.7" stroke="black" stroke-width="0.25" stroke-miterlimit="10"/>
<path d="M203.4 408.2H217.3V387.3H203.4" stroke="black" stroke-width="0.25" stroke-miterlimit="10"/>
<path d="M205.2 395.4H203.4" stroke="black" stroke-width="0.25" stroke-miterlimit="10"/>
<path d="M208.5 395.6H209.7V399.1H217.3" stroke="black" stroke-width="0.25" stroke-miterlimit="10"/>
<path d="M197.2 421H166.3" stroke="black" stroke-width="0.25" stroke-miterlimit="10"/>
<path d="M181.6 446.3V447.7" stroke="black" stroke-width="0.25" stroke-miterlimit="10"/>
<path d="M181.6 441.8V443.2" stroke="black" stroke-width="0.25" stroke-miterlimit="10"/>
<path d="M181.6 435.5V436.9" stroke="black" stroke-width="0.25" stroke-miterlimit="10"/>
<path d="M181.6 430.5V431.5" stroke="black" stroke-width="0.25" stroke-miterlimit="10"/>
</svg>
