<svg width="358" height="596" viewBox="0 0 358 596" fill="none" xmlns="http://www.w3.org/2000/svg">
<path d="M230.2 189.5L228 155.3L224.3 124.4C223.7 119.6 222.8 114.8 221.6 110.1L213.3 77.6999L213.2 73.8999L197.9 58.3999C196.2 56.6999 193.5 56.1999 191.3 57.1999L182.9 61.0999L171.9 57.4999C169.6 56.7999 167.1 57.4999 165.6 59.3999L152.8 75.3999V78.7999L144.6 105.7C142.8 111.6 141.5 117.6 140.7 123.6L136.5 155.3L133.9 204.8C133.7 208.5 133.6 212.2 133.6 215.9V417.2C133.6 422.8 133.8 428.4 134.2 434L135.9 457.8C136.2 461.5 136.7 465.1 137.5 468.7L139.2 476.4C140.5 482.3 142.4 488.1 144.8 493.7L149.5 504.5L154.3 513.1C157.1 518.1 160.3 522.9 163.9 527.4L173.5 539.3L178.6 543.8C181.9 546.7 186.9 546.4 189.9 543.2L194.4 538.4L204.6 524.1C206.1 522 207.4 519.8 208.5 517.5L216.6 501.4C217.4 499.8 218.1 498.1 218.8 496.4L222.8 485.4C224.7 480.3 226.1 475.1 227.1 469.8L229 459.7C229.7 455.6 230.2 451.5 230.4 447.4L230.9 436.1V201.5C230.6 197.5 230.4 193.5 230.2 189.5Z" fill="#4F4F4F" stroke="black" stroke-miterlimit="10"/>
<path d="M206.3 268.8V248.8H203.8V242.4H159.5V248.8H156V268.7H159V290.6H156.5V307H159V313.2H203.6V306.7H206.3V290.6H203.9V268.7H206.3V268.8ZM189 255.9H181.3V248.2H189V255.9Z" fill="#D3D3D3"/>
<path d="M186.2 242.4H176.4V245.4H186.2V242.4Z" fill="#DBD8B9"/>
<path d="M197.4 249.3H187.6V252.3H197.4V249.3Z" fill="#DBD8B9"/>
<path d="M186.2 309.8H176.4V312.8H186.2V309.8Z" fill="#DBD8B9"/>
<path d="M165 254.2H162V264H165V254.2Z" fill="#DBD8B9"/>
<path d="M200.8 254.2H197.8V264H200.8V254.2Z" fill="#DBD8B9"/>
<path d="M165 293.1H162V302.9H165V293.1Z" fill="#DBD8B9"/>
<path d="M200.8 293.1H197.8V302.9H200.8V293.1Z" fill="#DBD8B9"/>
<path d="M159 290.7H156.5V307.1H159V313.3H203.6V306.8H206.3V290.7H203.9V268.9H206.3V248.8H203.8V242.5H159.4V248.8H156V268.9H159.1L159 290.7Z" stroke="black" stroke-width="0.25" stroke-miterlimit="10"/>
<path d="M165 293.1H162V302.9H165V293.1Z" stroke="black" stroke-width="0.25" stroke-miterlimit="10"/>
<path d="M162 301.9H165.1" stroke="black" stroke-width="0.25" stroke-miterlimit="10"/>
<path d="M162 301.1H165.1" stroke="black" stroke-width="0.25" stroke-miterlimit="10"/>
<path d="M162 300.3H165.1" stroke="black" stroke-width="0.25" stroke-miterlimit="10"/>
<path d="M162 299.5H165.1" stroke="black" stroke-width="0.25" stroke-miterlimit="10"/>
<path d="M162 298.8H165.1" stroke="black" stroke-width="0.25" stroke-miterlimit="10"/>
<path d="M162 297.9H165.1" stroke="black" stroke-width="0.25" stroke-miterlimit="10"/>
<path d="M162 297.1H165.1" stroke="black" stroke-width="0.25" stroke-miterlimit="10"/>
<path d="M162 296.4H165.1" stroke="black" stroke-width="0.25" stroke-miterlimit="10"/>
<path d="M162 295.5H165.1" stroke="black" stroke-width="0.25" stroke-miterlimit="10"/>
<path d="M162 294.7H165.1" stroke="black" stroke-width="0.25" stroke-miterlimit="10"/>
<path d="M162 294H165.1" stroke="black" stroke-width="0.25" stroke-miterlimit="10"/>
<path d="M200.8 293.1H197.8V302.9H200.8V293.1Z" stroke="black" stroke-width="0.25" stroke-miterlimit="10"/>
<path d="M197.8 301.9H200.8" stroke="black" stroke-width="0.25" stroke-miterlimit="10"/>
<path d="M197.8 301.1H200.8" stroke="black" stroke-width="0.25" stroke-miterlimit="10"/>
<path d="M197.8 300.3H200.8" stroke="black" stroke-width="0.25" stroke-miterlimit="10"/>
<path d="M197.8 299.5H200.8" stroke="black" stroke-width="0.25" stroke-miterlimit="10"/>
<path d="M197.8 298.8H200.8" stroke="black" stroke-width="0.25" stroke-miterlimit="10"/>
<path d="M197.8 297.9H200.8" stroke="black" stroke-width="0.25" stroke-miterlimit="10"/>
<path d="M197.8 297.1H200.8" stroke="black" stroke-width="0.25" stroke-miterlimit="10"/>
<path d="M197.8 296.4H200.8" stroke="black" stroke-width="0.25" stroke-miterlimit="10"/>
<path d="M197.8 295.5H200.8" stroke="black" stroke-width="0.25" stroke-miterlimit="10"/>
<path d="M197.8 294.7H200.8" stroke="black" stroke-width="0.25" stroke-miterlimit="10"/>
<path d="M197.8 294H200.8" stroke="black" stroke-width="0.25" stroke-miterlimit="10"/>
<path d="M165 254.2H162V264H165V254.2Z" stroke="black" stroke-width="0.25" stroke-miterlimit="10"/>
<path d="M162 263.1H165.1" stroke="black" stroke-width="0.25" stroke-miterlimit="10"/>
<path d="M162 262.2H165.1" stroke="black" stroke-width="0.25" stroke-miterlimit="10"/>
<path d="M162 261.4H165.1" stroke="black" stroke-width="0.25" stroke-miterlimit="10"/>
<path d="M162 260.7H165.1" stroke="black" stroke-width="0.25" stroke-miterlimit="10"/>
<path d="M162 259.9H165.1" stroke="black" stroke-width="0.25" stroke-miterlimit="10"/>
<path d="M162 259H165.1" stroke="black" stroke-width="0.25" stroke-miterlimit="10"/>
<path d="M162 258.3H165.1" stroke="black" stroke-width="0.25" stroke-miterlimit="10"/>
<path d="M162 257.5H165.1" stroke="black" stroke-width="0.25" stroke-miterlimit="10"/>
<path d="M162 256.6H165.1" stroke="black" stroke-width="0.25" stroke-miterlimit="10"/>
<path d="M162 255.1H165.1" stroke="black" stroke-width="0.25" stroke-miterlimit="10"/>
<path d="M200.8 254.2H197.8V264H200.8V254.2Z" stroke="black" stroke-width="0.25" stroke-miterlimit="10"/>
<path d="M197.8 263.1H200.8" stroke="black" stroke-width="0.25" stroke-miterlimit="10"/>
<path d="M197.8 262.2H200.8" stroke="black" stroke-width="0.25" stroke-miterlimit="10"/>
<path d="M197.8 261.4H200.8" stroke="black" stroke-width="0.25" stroke-miterlimit="10"/>
<path d="M197.8 260.7H200.8" stroke="black" stroke-width="0.25" stroke-miterlimit="10"/>
<path d="M197.8 259.9H200.8" stroke="black" stroke-width="0.25" stroke-miterlimit="10"/>
<path d="M197.8 259H200.8" stroke="black" stroke-width="0.25" stroke-miterlimit="10"/>
<path d="M197.8 258.3H200.8" stroke="black" stroke-width="0.25" stroke-miterlimit="10"/>
<path d="M197.8 257.5H200.8" stroke="black" stroke-width="0.25" stroke-miterlimit="10"/>
<path d="M197.8 256.6H200.8" stroke="black" stroke-width="0.25" stroke-miterlimit="10"/>
<path d="M197.8 255.9H200.8" stroke="black" stroke-width="0.25" stroke-miterlimit="10"/>
<path d="M197.8 255.1H200.8" stroke="black" stroke-width="0.25" stroke-miterlimit="10"/>
<path d="M186.199 309.8H176.399V312.8H186.199V309.8Z" stroke="black" stroke-width="0.25" stroke-miterlimit="10"/>
<path d="M185.3 312.8V309.8" stroke="black" stroke-width="0.25" stroke-miterlimit="10"/>
<path d="M184.399 312.8V309.8" stroke="black" stroke-width="0.25" stroke-miterlimit="10"/>
<path d="M183.6 312.8V309.8" stroke="black" stroke-width="0.25" stroke-miterlimit="10"/>
<path d="M182.899 312.8V309.8" stroke="black" stroke-width="0.25" stroke-miterlimit="10"/>
<path d="M182.1 312.8V309.8" stroke="black" stroke-width="0.25" stroke-miterlimit="10"/>
<path d="M181.199 312.8V309.8" stroke="black" stroke-width="0.25" stroke-miterlimit="10"/>
<path d="M180.5 312.8V309.8" stroke="black" stroke-width="0.25" stroke-miterlimit="10"/>
<path d="M179.699 312.8V309.8" stroke="black" stroke-width="0.25" stroke-miterlimit="10"/>
<path d="M178.8 312.8V309.8" stroke="black" stroke-width="0.25" stroke-miterlimit="10"/>
<path d="M178.1 312.8V309.8" stroke="black" stroke-width="0.25" stroke-miterlimit="10"/>
<path d="M177.3 312.8V309.8" stroke="black" stroke-width="0.25" stroke-miterlimit="10"/>
<path d="M186.199 242.4H176.399V245.4H186.199V242.4Z" stroke="black" stroke-width="0.25" stroke-miterlimit="10"/>
<path d="M185.199 245.5V242.4" stroke="black" stroke-width="0.25" stroke-miterlimit="10"/>
<path d="M184.399 245.5V242.4" stroke="black" stroke-width="0.25" stroke-miterlimit="10"/>
<path d="M183.6 245.5V242.4" stroke="black" stroke-width="0.25" stroke-miterlimit="10"/>
<path d="M182.8 245.5V242.4" stroke="black" stroke-width="0.25" stroke-miterlimit="10"/>
<path d="M182 245.5V242.4" stroke="black" stroke-width="0.25" stroke-miterlimit="10"/>
<path d="M181.199 245.5V242.4" stroke="black" stroke-width="0.25" stroke-miterlimit="10"/>
<path d="M180.399 245.5V242.4" stroke="black" stroke-width="0.25" stroke-miterlimit="10"/>
<path d="M179.6 245.5V242.4" stroke="black" stroke-width="0.25" stroke-miterlimit="10"/>
<path d="M178.8 245.5V242.4" stroke="black" stroke-width="0.25" stroke-miterlimit="10"/>
<path d="M178 245.5V242.4" stroke="black" stroke-width="0.25" stroke-miterlimit="10"/>
<path d="M177.199 245.5V242.4" stroke="black" stroke-width="0.25" stroke-miterlimit="10"/>
<path d="M197.499 249.3H187.699V252.3H197.499V249.3Z" stroke="black" stroke-width="0.25" stroke-miterlimit="10"/>
<path d="M196.5 252.3V249.3" stroke="black" stroke-width="0.25" stroke-miterlimit="10"/>
<path d="M195.699 252.3V249.3" stroke="black" stroke-width="0.25" stroke-miterlimit="10"/>
<path d="M194.899 252.3V249.3" stroke="black" stroke-width="0.25" stroke-miterlimit="10"/>
<path d="M194.1 252.3V249.3" stroke="black" stroke-width="0.25" stroke-miterlimit="10"/>
<path d="M193.3 252.3V249.3" stroke="black" stroke-width="0.25" stroke-miterlimit="10"/>
<path d="M192.5 252.3V249.3" stroke="black" stroke-width="0.25" stroke-miterlimit="10"/>
<path d="M191.699 252.3V249.3" stroke="black" stroke-width="0.25" stroke-miterlimit="10"/>
<path d="M190.899 252.3V249.3" stroke="black" stroke-width="0.25" stroke-miterlimit="10"/>
<path d="M190.1 252.3V249.3" stroke="black" stroke-width="0.25" stroke-miterlimit="10"/>
<path d="M189.3 252.3V249.3" stroke="black" stroke-width="0.25" stroke-miterlimit="10"/>
<path d="M188.5 252.3V249.3" stroke="black" stroke-width="0.25" stroke-miterlimit="10"/>
<path d="M156.7 257.5H156" stroke="black" stroke-width="0.25" stroke-miterlimit="10"/>
<path d="M159.899 257.5H160.599L161.999 255.9H165.099" stroke="black" stroke-width="0.25" stroke-miterlimit="10"/>
<path d="M159.399 248.3L161.999 250.2V254.2" stroke="black" stroke-width="0.25" stroke-miterlimit="10"/>
<path d="M174.999 259.9H172.899V264H174.999V259.9Z" fill="#C6C6C5"/>
<path d="M177.7 273.7V264H175H172.9H170.5V273.7H173.3H174.7H177.7Z" fill="#DDDDDD"/>
<path d="M178.8 289.2V278.6H175.3V275.8H174.7V273.6H173.4V275.8H172.8V278.6H169.3V289.2H173.2V293C172.2 293.3 171.6 294.2 171.6 295.2C171.6 296.1 172.1 296.9 172.8 297.3V295.1C172.8 294.5 173.3 294 173.9 294C174.5 294 175 294.5 175 295.1V297.3C175.7 296.9 176.3 296.1 176.3 295.2C176.3 294.1 175.6 293.3 174.7 293V289.2H178.8ZM171.5 288.8C170.7 288.8 170 288.1 170 287.3V280.6C170 279.8 170.7 279.1 171.5 279.1H176.5C177.3 279.1 178 279.8 178 280.6V287.3C178 288.1 177.3 288.8 176.5 288.8H171.5Z" fill="#C6C6C5"/>
<path d="M173.9 294C173.3 294 172.8 294.5 172.8 295.1V297.3V299.5C173.2 299.3 173.6 299.2 174 299.2C174.3 299.2 174.7 299.3 175 299.4V297.3V295.1C175 294.5 174.5 294 173.9 294Z" fill="#DDDDDD"/>
<path d="M178 287.3V280.6C178 279.8 177.3 279.1 176.5 279.1H171.5C170.7 279.1 170 279.8 170 280.6V287.3C170 288.1 170.7 288.8 171.5 288.8H176.5C177.3 288.8 178 288.1 178 287.3Z" fill="#DDDDDD"/>
<path d="M172.8 299.5C171.7 300 171 301 171 302.3C171 304 172.4 305.3 174 305.3C175.6 305.3 177 303.9 177 302.3C177 301 176.1 299.9 174.9 299.4C174.6 299.3 174.3 299.2 173.9 299.2C173.6 299.3 173.2 299.4 172.8 299.5Z" fill="#E5E5E5"/>
<path d="M189.999 259.9H187.899V264H189.999V259.9Z" fill="#C6C6C5"/>
<path d="M192.699 273.7V264H189.999H187.899H185.499V273.7H188.299H189.599H192.699Z" fill="#DDDDDD"/>
<path d="M193.699 289.2V278.6H190.199V275.8H189.599V273.6H188.299V275.8H187.699V278.6H184.199V289.2H188.099V293C187.099 293.3 186.499 294.2 186.499 295.2C186.499 296.1 186.999 296.9 187.699 297.3V295.1C187.699 294.5 188.199 294 188.799 294C189.399 294 189.899 294.5 189.899 295.1V297.3C190.599 296.9 191.199 296.1 191.199 295.2C191.199 294.1 190.499 293.3 189.599 293V289.2H193.699ZM186.399 288.8C185.599 288.8 184.899 288.1 184.899 287.3V280.6C184.899 279.8 185.599 279.1 186.399 279.1H191.399C192.199 279.1 192.899 279.8 192.899 280.6V287.3C192.899 288.1 192.199 288.8 191.399 288.8H186.399Z" fill="#C6C6C5"/>
<path d="M188.799 294C188.199 294 187.699 294.5 187.699 295.1V297.3V299.5C188.099 299.3 188.499 299.2 188.899 299.2C189.199 299.2 189.599 299.3 189.899 299.4V297.3V295.1C189.899 294.5 189.399 294 188.799 294Z" fill="#DDDDDD"/>
<path d="M192.999 287.3V280.6C192.999 279.8 192.299 279.1 191.499 279.1H186.499C185.699 279.1 184.999 279.8 184.999 280.6V287.3C184.999 288.1 185.699 288.8 186.499 288.8H191.499C192.299 288.8 192.999 288.1 192.999 287.3Z" fill="#DDDDDD"/>
<path d="M187.699 299.5C186.599 300 185.899 301 185.899 302.3C185.899 304 187.299 305.3 188.899 305.3C190.499 305.3 191.899 303.9 191.899 302.3C191.899 301 190.999 299.9 189.799 299.4C189.499 299.3 189.199 299.2 188.799 299.2C188.499 299.3 188.099 299.4 187.699 299.5Z" fill="#E5E5E5"/>
</svg>
