<svg width="358" height="596" viewBox="0 0 358 596" fill="none" xmlns="http://www.w3.org/2000/svg">
<path d="M230.2 189.5L228 155.3L224.3 124.4C223.7 119.6 222.8 114.8 221.6 110.1L213.3 77.6999L213.2 73.8999L197.9 58.3999C196.2 56.6999 193.5 56.1999 191.3 57.1999L182.9 61.0999L171.9 57.4999C169.6 56.7999 167.1 57.4999 165.6 59.3999L152.8 75.3999V78.7999L144.6 105.7C142.8 111.6 141.5 117.6 140.7 123.6L136.5 155.3L133.9 204.8C133.7 208.5 133.6 212.2 133.6 215.9V417.2C133.6 422.8 133.8 428.4 134.2 434L135.9 457.8C136.2 461.5 136.7 465.1 137.5 468.7L139.2 476.4C140.5 482.3 142.4 488.1 144.8 493.7L149.5 504.5L154.3 513.1C157.1 518.1 160.3 522.9 163.9 527.4L173.5 539.3L178.6 543.8C181.9 546.7 186.9 546.4 189.9 543.2L194.4 538.4L204.6 524.1C206.1 522 207.4 519.8 208.5 517.5L216.6 501.4C217.4 499.8 218.1 498.1 218.8 496.4L222.8 485.4C224.7 480.3 226.1 475.1 227.1 469.8L229 459.7C229.7 455.6 230.2 451.5 230.4 447.4L230.9 436.1V201.5C230.6 197.5 230.4 193.5 230.2 189.5Z" fill="#4F4F4F" stroke="black" stroke-miterlimit="10"/>
<path d="M181.3 248.6V243.6H166.6V256.2H181.3V256.8H189.3V253.1H197.7V248.6H181.3Z" fill="#D3D3D3"/>
<path d="M197.2 249.1H187.8V252.6H197.2V249.1Z" fill="#DBD8B9"/>
<path d="M181.3 249.7V243.6H166.6V256.2H181.3" stroke="black" stroke-width="0.25" stroke-miterlimit="10"/>
<path d="M181.3 252.4V256.8H189.3V253.1H197.7V248.6H181.3" stroke="black" stroke-width="0.25" stroke-miterlimit="10"/>
<path d="M197.2 249.2H187.8V252.7H197.2V249.2Z" stroke="black" stroke-width="0.25" stroke-miterlimit="10"/>
<path d="M188.5 249.2V252.7" stroke="black" stroke-width="0.25" stroke-miterlimit="10"/>
<path d="M189.3 249.2V252.7" stroke="black" stroke-width="0.25" stroke-miterlimit="10"/>
<path d="M190.1 249.2V252.7" stroke="black" stroke-width="0.25" stroke-miterlimit="10"/>
<path d="M190.899 249.2V252.7" stroke="black" stroke-width="0.25" stroke-miterlimit="10"/>
<path d="M191.6 249.2V252.7" stroke="black" stroke-width="0.25" stroke-miterlimit="10"/>
<path d="M192.399 249.2V252.7" stroke="black" stroke-width="0.25" stroke-miterlimit="10"/>
<path d="M193.199 249.2V252.7" stroke="black" stroke-width="0.25" stroke-miterlimit="10"/>
<path d="M194 249.2V252.7" stroke="black" stroke-width="0.25" stroke-miterlimit="10"/>
<path d="M194.699 249.2V252.7" stroke="black" stroke-width="0.25" stroke-miterlimit="10"/>
<path d="M195.5 249.2V252.7" stroke="black" stroke-width="0.25" stroke-miterlimit="10"/>
<path d="M196.3 249.2V252.7" stroke="black" stroke-width="0.25" stroke-miterlimit="10"/>
</svg>
