<svg width="358" height="596" viewBox="0 0 358 596" fill="none" xmlns="http://www.w3.org/2000/svg">
<path d="M229.3 186.3L227.1 152.1L223.4 121.2C222.8 116.4 221.9 111.6 220.7 106.9L212.4 74.5L212.3 70.7L197 55.2C195.3 53.5 192.6 53 190.4 54L182 57.9L171 54.3C168.7 53.6 166.2 54.3 164.7 56.2L151.9 72.2V75.6L143.7 102.5C141.9 108.4 140.6 114.4 139.8 120.4L135.6 152.1L133 201.6C132.8 205.3 132.7 209 132.7 212.7V414C132.7 419.6 132.9 425.2 133.3 430.8L135 454.6C135.3 458.3 135.8 461.9 136.6 465.5L138.3 473.2C139.6 479.1 141.5 484.9 143.9 490.5L148.6 501.3L153.4 509.9C156.2 514.9 159.4 519.7 163 524.2L172.6 536.1L177.7 540.6C181 543.5 186 543.2 189 540L193.5 535.2L203.7 520.9C205.2 518.8 206.5 516.6 207.6 514.3L215.7 498.2C216.5 496.6 217.2 494.9 217.9 493.2L221.9 482.2C223.8 477.1 225.2 471.9 226.2 466.6L228.1 456.5C228.8 452.4 229.3 448.3 229.5 444.2L230 432.9V198.2C229.7 194.2 229.6 190.3 229.3 186.3Z" fill="#4F4F4F" stroke="black" stroke-miterlimit="10"/>
<path d="M145.5 367.8V358.2H151.9V352.9H165.9V350.3H174.6L176.5 348.2H186.5L188 350.3H199.9V352.6H210.6V357.6H217.4V367.8H192.9V355.1H182.2V352.6H180.3V355.1H169.9V367.8H145.5Z" fill="#939393"/>
<path d="M196.8 358.2V374.4H181V367.5H169V393H181V380.7H182.2V394.2H196.8V405.6H166.3V358.2H159.8V367.9H145.5V388.7H159.6V417H145.7V434.4H203.4V358.2H196.8ZM187.1 420.5H169.8V418.6L171.6 413.1V412.5H184.9V413L187.2 418.4L187.1 420.5Z" fill="#D3D3D3"/>
<path d="M190.9 420.4V414.7H191.9V415.8H195.8V414.7H196.8V420.4H190.9Z" fill="black"/>
<path d="M171.7 413C171.7 413 176.9 416.1 184.9 413V412.5H171.7V413Z" stroke="black" stroke-width="0.25" stroke-miterlimit="10"/>
<path d="M161.3 367.8H145.5V388.6H159.7" stroke="black" stroke-width="0.25" stroke-miterlimit="10"/>
<path d="M161.3 358.2H159.8V419" stroke="black" stroke-width="0.25" stroke-miterlimit="10"/>
<path d="M159.8 416.9H145.7V434.4H203.4V358.2H201.7" stroke="black" stroke-width="0.25" stroke-miterlimit="10"/>
<path d="M198.6 358.2H196.8V374.3H181V367.5H168.9V393H181V380.7H196.8V384.4" stroke="black" stroke-width="0.25" stroke-miterlimit="10"/>
<path d="M164.5 358.2H166.3V406.6" stroke="black" stroke-width="0.25" stroke-miterlimit="10"/>
<path d="M159.8 421.7V434.4" stroke="black" stroke-width="0.25" stroke-miterlimit="10"/>
<path d="M166.2 424.6V434.4" stroke="black" stroke-width="0.25" stroke-miterlimit="10"/>
<path d="M166.2 421.7V409.2" stroke="black" stroke-width="0.25" stroke-miterlimit="10"/>
<path d="M161.5 417.4H159.8" stroke="black" stroke-width="0.25" stroke-miterlimit="10"/>
<path d="M164.5 417.4H166.2" stroke="black" stroke-width="0.25" stroke-miterlimit="10"/>
<path d="M196.8 424.6V434.4" stroke="black" stroke-width="0.25" stroke-miterlimit="10"/>
<path d="M196.8 421.5V409.4" stroke="black" stroke-width="0.25" stroke-miterlimit="10"/>
<path d="M196.8 406.6V387.3" stroke="black" stroke-width="0.25" stroke-miterlimit="10"/>
<path d="M182.2 380.7V394.2H196.8" stroke="black" stroke-width="0.25" stroke-miterlimit="10"/>
<path d="M198.6 368.2H196.8" stroke="black" stroke-width="0.25" stroke-miterlimit="10"/>
<path d="M201.4 368.2H203.4" stroke="black" stroke-width="0.25" stroke-miterlimit="10"/>
<path d="M196.8 420.4H166.2" stroke="black" stroke-width="0.25" stroke-miterlimit="10"/>
<path d="M184.9 413.1L187.2 418.4C178.6 422 169.9 418.8 169.9 418.8L171.7 413.1C171.7 413.1 177.1 416.3 184.9 413.1Z" fill="#DBD8B9"/>
<path d="M207.201 358.5H204.301V368.2H207.201V358.5Z" fill="#DBD8B9" stroke="black" stroke-width="0.25" stroke-miterlimit="10"/>
<path d="M204.301 359.5H207.101" stroke="black" stroke-width="0.25" stroke-miterlimit="10"/>
<path d="M204.301 360.3H207.101" stroke="black" stroke-width="0.25" stroke-miterlimit="10"/>
<path d="M204.301 361.2H207.101" stroke="black" stroke-width="0.25" stroke-miterlimit="10"/>
<path d="M204.301 362H207.101" stroke="black" stroke-width="0.25" stroke-miterlimit="10"/>
<path d="M204.301 362.9H207.101" stroke="black" stroke-width="0.25" stroke-miterlimit="10"/>
<path d="M204.301 363.7H207.101" stroke="black" stroke-width="0.25" stroke-miterlimit="10"/>
<path d="M204.301 364.6H207.101" stroke="black" stroke-width="0.25" stroke-miterlimit="10"/>
<path d="M204.301 365.4H207.101" stroke="black" stroke-width="0.25" stroke-miterlimit="10"/>
<path d="M204.301 366.3H207.101" stroke="black" stroke-width="0.25" stroke-miterlimit="10"/>
<path d="M204.301 367.2H207.101" stroke="black" stroke-width="0.25" stroke-miterlimit="10"/>
<path d="M159.001 358.5H156.101V368.2H159.001V358.5Z" fill="#DBD8B9" stroke="black" stroke-width="0.25" stroke-miterlimit="10"/>
<path d="M156.101 359.5H158.901" stroke="black" stroke-width="0.25" stroke-miterlimit="10"/>
<path d="M156.101 360.3H158.901" stroke="black" stroke-width="0.25" stroke-miterlimit="10"/>
<path d="M156.101 361.2H158.901" stroke="black" stroke-width="0.25" stroke-miterlimit="10"/>
<path d="M156.101 362H158.901" stroke="black" stroke-width="0.25" stroke-miterlimit="10"/>
<path d="M156.101 362.9H158.901" stroke="black" stroke-width="0.25" stroke-miterlimit="10"/>
<path d="M156.101 363.7H158.901" stroke="black" stroke-width="0.25" stroke-miterlimit="10"/>
<path d="M156.101 364.6H158.901" stroke="black" stroke-width="0.25" stroke-miterlimit="10"/>
<path d="M156.101 365.4H158.901" stroke="black" stroke-width="0.25" stroke-miterlimit="10"/>
<path d="M156.101 366.3H158.901" stroke="black" stroke-width="0.25" stroke-miterlimit="10"/>
<path d="M156.101 367.2H158.901" stroke="black" stroke-width="0.25" stroke-miterlimit="10"/>
<path d="M165.901 343H163.001V352.7H165.901V343Z" fill="#DBD8B9" stroke="black" stroke-width="0.25" stroke-miterlimit="10"/>
<path d="M163.001 343.9H165.901" stroke="black" stroke-width="0.25" stroke-miterlimit="10"/>
<path d="M163.001 344.8H165.901" stroke="black" stroke-width="0.25" stroke-miterlimit="10"/>
<path d="M163.001 345.6H165.901" stroke="black" stroke-width="0.25" stroke-miterlimit="10"/>
<path d="M163.001 346.5H165.901" stroke="black" stroke-width="0.25" stroke-miterlimit="10"/>
<path d="M163.001 347.3H165.901" stroke="black" stroke-width="0.25" stroke-miterlimit="10"/>
<path d="M163.001 348.2H165.901" stroke="black" stroke-width="0.25" stroke-miterlimit="10"/>
<path d="M163.001 349H165.901" stroke="black" stroke-width="0.25" stroke-miterlimit="10"/>
<path d="M163.001 349.9H165.901" stroke="black" stroke-width="0.25" stroke-miterlimit="10"/>
<path d="M163.001 350.8H165.901" stroke="black" stroke-width="0.25" stroke-miterlimit="10"/>
<path d="M163.001 351.6H165.901" stroke="black" stroke-width="0.25" stroke-miterlimit="10"/>
<path d="M199.901 342.7H197.001V355.6H199.901V342.7Z" fill="#DBD8B9" stroke="black" stroke-width="0.25" stroke-miterlimit="10"/>
<path d="M197.001 346.9H199.901" stroke="black" stroke-width="0.25" stroke-miterlimit="10"/>
<path d="M197.001 347.8H199.901" stroke="black" stroke-width="0.25" stroke-miterlimit="10"/>
<path d="M197.001 345.3H199.901" stroke="black" stroke-width="0.25" stroke-miterlimit="10"/>
<path d="M197.001 346.1H199.901" stroke="black" stroke-width="0.25" stroke-miterlimit="10"/>
<path d="M197.001 343.6H199.901" stroke="black" stroke-width="0.25" stroke-miterlimit="10"/>
<path d="M197.001 344.4H199.901" stroke="black" stroke-width="0.25" stroke-miterlimit="10"/>
<path d="M197.001 348.6H199.901" stroke="black" stroke-width="0.25" stroke-miterlimit="10"/>
<path d="M197.001 349.5H199.901" stroke="black" stroke-width="0.25" stroke-miterlimit="10"/>
<path d="M197.001 350.3H199.901" stroke="black" stroke-width="0.25" stroke-miterlimit="10"/>
<path d="M197.001 351.2H199.901" stroke="black" stroke-width="0.25" stroke-miterlimit="10"/>
<path d="M197.001 352H199.901" stroke="black" stroke-width="0.25" stroke-miterlimit="10"/>
<path d="M197.001 352.9H199.901" stroke="black" stroke-width="0.25" stroke-miterlimit="10"/>
<path d="M197.001 353.8H199.901" stroke="black" stroke-width="0.25" stroke-miterlimit="10"/>
<path d="M197.001 354.7H199.901" stroke="black" stroke-width="0.25" stroke-miterlimit="10"/>
<path d="M175.2 380.4H169.9V397.1H175.2V380.4Z" fill="#DBD8B9" stroke="black" stroke-width="0.25" stroke-miterlimit="10"/>
<path d="M169.9 384.6H175.2" stroke="black" stroke-width="0.25" stroke-miterlimit="10"/>
<path d="M169.9 385.5H175.2" stroke="black" stroke-width="0.25" stroke-miterlimit="10"/>
<path d="M169.9 382.9H175.2" stroke="black" stroke-width="0.25" stroke-miterlimit="10"/>
<path d="M169.9 383.8H175.2" stroke="black" stroke-width="0.25" stroke-miterlimit="10"/>
<path d="M169.9 381.3H175.2" stroke="black" stroke-width="0.25" stroke-miterlimit="10"/>
<path d="M169.9 382.1H175.2" stroke="black" stroke-width="0.25" stroke-miterlimit="10"/>
<path d="M169.9 386.3H175.2" stroke="black" stroke-width="0.25" stroke-miterlimit="10"/>
<path d="M169.9 387.2H175.2" stroke="black" stroke-width="0.25" stroke-miterlimit="10"/>
<path d="M169.9 388H175.2" stroke="black" stroke-width="0.25" stroke-miterlimit="10"/>
<path d="M169.9 388.9H175.2" stroke="black" stroke-width="0.25" stroke-miterlimit="10"/>
<path d="M169.9 389.7H175.2" stroke="black" stroke-width="0.25" stroke-miterlimit="10"/>
<path d="M169.9 390.6H175.2" stroke="black" stroke-width="0.25" stroke-miterlimit="10"/>
<path d="M169.9 391.5H175.2" stroke="black" stroke-width="0.25" stroke-miterlimit="10"/>
<path d="M169.9 392.4H175.2" stroke="black" stroke-width="0.25" stroke-miterlimit="10"/>
<path d="M169.9 393.3H175.2" stroke="black" stroke-width="0.25" stroke-miterlimit="10"/>
<path d="M169.9 394.2H175.2" stroke="black" stroke-width="0.25" stroke-miterlimit="10"/>
<path d="M169.9 395H175.2" stroke="black" stroke-width="0.25" stroke-miterlimit="10"/>
<path d="M169.9 396H175.2" stroke="black" stroke-width="0.25" stroke-miterlimit="10"/>
<path d="M169.9 420.4V418.7C169.9 418.7 177.8 422 187.2 418.3V420.5" stroke="black" stroke-width="0.25" stroke-miterlimit="10"/>
<path d="M169.9 418.7L171.7 413" stroke="black" stroke-width="0.25" stroke-miterlimit="10"/>
<path d="M172.601 413.4L170.801 419" stroke="black" stroke-width="0.25" stroke-miterlimit="10"/>
<path d="M173.501 413.8L172.001 419.3" stroke="black" stroke-width="0.25" stroke-miterlimit="10"/>
<path d="M174.301 414L173.101 419.6" stroke="black" stroke-width="0.25" stroke-miterlimit="10"/>
<path d="M175.2 414.2L173.9 419.7" stroke="black" stroke-width="0.25" stroke-miterlimit="10"/>
<path d="M176.001 414.3L175.101 419.9" stroke="black" stroke-width="0.25" stroke-miterlimit="10"/>
<path d="M176.7 414.4L176.2 420" stroke="black" stroke-width="0.25" stroke-miterlimit="10"/>
<path d="M177.401 414.4L177.301 420" stroke="black" stroke-width="0.25" stroke-miterlimit="10"/>
<path d="M178.301 414.4V420" stroke="black" stroke-width="0.25" stroke-miterlimit="10"/>
<path d="M179.001 414.4L179.301 420" stroke="black" stroke-width="0.25" stroke-miterlimit="10"/>
<path d="M179.7 414.3L180.4 419.9" stroke="black" stroke-width="0.25" stroke-miterlimit="10"/>
<path d="M180.4 414.2L181.5 419.7" stroke="black" stroke-width="0.25" stroke-miterlimit="10"/>
<path d="M181.301 414L182.601 419.6" stroke="black" stroke-width="0.25" stroke-miterlimit="10"/>
<path d="M182.101 413.9L183.801 419.3" stroke="black" stroke-width="0.25" stroke-miterlimit="10"/>
<path d="M182.9 413.7L184.9 419" stroke="black" stroke-width="0.25" stroke-miterlimit="10"/>
<path d="M183.7 413.4L186 418.7" stroke="black" stroke-width="0.25" stroke-miterlimit="10"/>
<path d="M184.9 413L187.1 418.3" stroke="black" stroke-width="0.25" stroke-miterlimit="10"/>
<path d="M164.5 367.8H166.3" stroke="black" stroke-width="0.25" stroke-miterlimit="10"/>
<path d="M166.3 405.6H196.8" stroke="black" stroke-width="0.25" stroke-miterlimit="10"/>
</svg>
