<svg width="358" height="596" viewBox="0 0 358 596" fill="none" xmlns="http://www.w3.org/2000/svg">
<path d="M214.2 291H212.5" stroke="black" stroke-width="0.25" stroke-miterlimit="10"/>
<path d="M214.2 268.4H212.5" stroke="black" stroke-width="0.25" stroke-miterlimit="10"/>
<path d="M230.3 189.5L228.1 155.3L224.4 124.4C223.8 119.6 222.9 114.8 221.7 110.1L213.4 77.7L213.3 73.9L198 58.5C196.3 56.8 193.6 56.3 191.4 57.3L183 61.2L172 57.6C169.7 56.9 167.2 57.6 165.7 59.5L152.9 75.5V78.9L144.7 105.8C142.9 111.7 141.6 117.7 140.8 123.7L136.6 155.4L134 204.9C133.8 208.6 133.7 212.3 133.7 216V417.3C133.7 422.9 133.9 428.5 134.3 434.1L136 457.9C136.3 461.6 136.8 465.2 137.6 468.8L139.3 476.5C140.6 482.4 142.5 488.2 144.9 493.8L149.6 504.6L154.4 513.2C157.2 518.2 160.4 523 164 527.5L173.6 539.4L178.7 543.9C182 546.8 187 546.5 190 543.3L194.5 538.5L204.7 524.2C206.2 522.1 207.5 519.9 208.6 517.6L216.7 501.5C217.5 499.9 218.2 498.2 218.9 496.5L222.9 485.5C224.8 480.4 226.2 475.2 227.2 469.9L229.1 459.8C229.8 455.7 230.3 451.6 230.5 447.5L231 436.2V201.5C230.7 197.5 230.6 193.5 230.3 189.5Z" fill="#4F4F4F" stroke="black" stroke-miterlimit="10"/>
<path d="M167.1 160.6H173.5V157.9H191.7V142.9H173.5V130H167.1V126.7H157.5V146.5H167.1V160.6Z" fill="#D3D3D3"/>
<path d="M150.8 256.1H149.2V260.9H151.1V284.5H149.2V291H150.8V306.8H149.2V313.3H160.1V307H157.1V291H160.1V268.4H157.1V248.5H160.1V242.1H150.8V256.1Z" fill="#D3D3D3"/>
<path d="M196.9 236.9H194.8L194.7 233H188V234.1H176.7V233H172.5V234.1H170.5V236.9H168V233H162.2V242.1H203.1V233H196.9V236.9Z" fill="#D3D3D3"/>
<path d="M215.6 259.5V254.9H213.9V242.1H204.7V248.5H207.7V268.4H204.7V291H207.7V307H204.7V313H215.6V307H214V291H215.6V284.5H213.8V259.5H215.6Z" fill="#D3D3D3"/>
<path d="M182.1 248.5V243.7H167.4V255.8H182V256.6H190.2V253H198.3V248.5H190.2H182.1Z" fill="#D3D3D3"/>
<path d="M198 249.1H188V252.4H198V249.1Z" fill="#DBD8B9"/>
<path d="M207.701 268.4V248.4H204.701V242H160.101V248.4H157.101V268.4H160.101V291H157.101V307H160.101V313.4L204.701 313.1V307H207.701V291H204.701V268.4H207.701ZM198.801 306.5H166.001V248H167.401V243.7H182.101V248H198.801V306.5Z" fill="#9A9A8C"/>
<path d="M161.4 131.8H158.2V141.6H161.4V131.8Z" fill="#DBD8B9"/>
<path d="M188.7 238.3H178.7V241.6H188.7V238.3Z" fill="#DBD8B9"/>
<path d="M187.4 242.1H177.4V245.4H187.4V242.1Z" fill="#DBD8B9"/>
<path d="M187.101 309.7H177.101V313H187.101V309.7Z" fill="#DBD8B9"/>
<path d="M162.683 293.025V303.025H165.983V293.025H162.683Z" fill="#DBD8B9"/>
<path d="M198.823 293.066V303.066H202.123V293.066H198.823Z" fill="#DBD8B9"/>
<path d="M205.313 275.623V285.623H208.613V275.623H205.313Z" fill="#DBD8B9"/>
<path d="M156.264 275.573V285.573H159.564V275.573H156.264Z" fill="#DBD8B9"/>
<path d="M162.683 254.225V264.225H165.983V254.225H162.683Z" fill="#DBD8B9"/>
<path d="M198.823 254.266V264.266H202.123V254.266H198.823Z" fill="#DBD8B9"/>
<path d="M167.1 134.9V126.7H157.5V146.5H167.1" stroke="black" stroke-width="0.25" stroke-miterlimit="10"/>
<path d="M167.101 138.2V160.6H173.501V156.1" stroke="black" stroke-width="0.25" stroke-miterlimit="10"/>
<path d="M173.501 153.2V130H167.101" stroke="black" stroke-width="0.25" stroke-miterlimit="10"/>
<path d="M173.5 157.9H191.7V142.9H173.5" stroke="black" stroke-width="0.25" stroke-miterlimit="10"/>
<path d="M161.4 131.8H158.2V141.6H161.4V131.8Z" stroke="black" stroke-width="0.25" stroke-miterlimit="10"/>
<path d="M158.2 140.9H161.4" stroke="black" stroke-width="0.25" stroke-miterlimit="10"/>
<path d="M158.2 140.3H161.4" stroke="black" stroke-width="0.25" stroke-miterlimit="10"/>
<path d="M158.2 139.6H161.4" stroke="black" stroke-width="0.25" stroke-miterlimit="10"/>
<path d="M158.2 138.9H161.4" stroke="black" stroke-width="0.25" stroke-miterlimit="10"/>
<path d="M158.2 138.3H161.4" stroke="black" stroke-width="0.25" stroke-miterlimit="10"/>
<path d="M158.2 137.6H161.4" stroke="black" stroke-width="0.25" stroke-miterlimit="10"/>
<path d="M158.2 137H161.4" stroke="black" stroke-width="0.25" stroke-miterlimit="10"/>
<path d="M158.2 136.3H161.4" stroke="black" stroke-width="0.25" stroke-miterlimit="10"/>
<path d="M158.2 135.7H161.4" stroke="black" stroke-width="0.25" stroke-miterlimit="10"/>
<path d="M158.2 135H161.4" stroke="black" stroke-width="0.25" stroke-miterlimit="10"/>
<path d="M158.2 134.3H161.4" stroke="black" stroke-width="0.25" stroke-miterlimit="10"/>
<path d="M158.2 133.7H161.4" stroke="black" stroke-width="0.25" stroke-miterlimit="10"/>
<path d="M158.2 133H161.4" stroke="black" stroke-width="0.25" stroke-miterlimit="10"/>
<path d="M158.2 132.4H161.4" stroke="black" stroke-width="0.25" stroke-miterlimit="10"/>
<path d="M162.2 233V242H150.8V256.1H149.2V260.9H151.1V284.5H149.2V291H150.8V306.8H149.2V313.3H215.6V307H214.2V291H215.6V284.5H214V259.5H215.6V254.9H214V242.1H203.1V233H196.9V236.9H194.7V233H188V234.1H176.7V233H172.5V234.1H170.5V236.9H168V233H162.2Z" stroke="black" stroke-width="0.25" stroke-miterlimit="10"/>
<path d="M163.5 242.1H162.2" stroke="black" stroke-width="0.25" stroke-miterlimit="10"/>
<path d="M166.4 242.1H198.6" stroke="black" stroke-width="0.25" stroke-miterlimit="10"/>
<path d="M201.601 242.1H203.101" stroke="black" stroke-width="0.25" stroke-miterlimit="10"/>
<path d="M160.101 243.9V242.1" stroke="black" stroke-width="0.25" stroke-miterlimit="10"/>
<path d="M160.101 273.2V291H157.101V307H160.101V308.4" stroke="black" stroke-width="0.25" stroke-miterlimit="10"/>
<path d="M160.101 246.9V248.5H157.101V268.4H160.101V270.2" stroke="black" stroke-width="0.25" stroke-miterlimit="10"/>
<path d="M160.101 311.6V313.3" stroke="black" stroke-width="0.25" stroke-miterlimit="10"/>
<path d="M150.8 291H152.3" stroke="black" stroke-width="0.25" stroke-miterlimit="10"/>
<path d="M155.3 291H157.1" stroke="black" stroke-width="0.25" stroke-miterlimit="10"/>
<path d="M159.5 275.6H156.2V285.6H159.5V275.6Z" stroke="black" stroke-width="0.25" stroke-miterlimit="10"/>
<path d="M159.5 276.3H156.2" stroke="black" stroke-width="0.25" stroke-miterlimit="10"/>
<path d="M159.5 277.1H156.2" stroke="black" stroke-width="0.25" stroke-miterlimit="10"/>
<path d="M159.5 277.9H156.2" stroke="black" stroke-width="0.25" stroke-miterlimit="10"/>
<path d="M159.5 278.8H156.2" stroke="black" stroke-width="0.25" stroke-miterlimit="10"/>
<path d="M159.5 279.6H156.2" stroke="black" stroke-width="0.25" stroke-miterlimit="10"/>
<path d="M159.5 280.4H156.2" stroke="black" stroke-width="0.25" stroke-miterlimit="10"/>
<path d="M159.5 281.2H156.2" stroke="black" stroke-width="0.25" stroke-miterlimit="10"/>
<path d="M159.5 282.1H156.2" stroke="black" stroke-width="0.25" stroke-miterlimit="10"/>
<path d="M159.5 282.9H156.2" stroke="black" stroke-width="0.25" stroke-miterlimit="10"/>
<path d="M159.5 283.7H156.2" stroke="black" stroke-width="0.25" stroke-miterlimit="10"/>
<path d="M159.5 284.5H156.2" stroke="black" stroke-width="0.25" stroke-miterlimit="10"/>
<path d="M166 254.3H162.7V264.3H166V254.3Z" stroke="black" stroke-width="0.25" stroke-miterlimit="10"/>
<path d="M166 255H162.7" stroke="black" stroke-width="0.25" stroke-miterlimit="10"/>
<path d="M166 255.8H162.7" stroke="black" stroke-width="0.25" stroke-miterlimit="10"/>
<path d="M166 256.6H162.7" stroke="black" stroke-width="0.25" stroke-miterlimit="10"/>
<path d="M166 257.4H162.7" stroke="black" stroke-width="0.25" stroke-miterlimit="10"/>
<path d="M166 258.3H162.7" stroke="black" stroke-width="0.25" stroke-miterlimit="10"/>
<path d="M166 259.1H162.7" stroke="black" stroke-width="0.25" stroke-miterlimit="10"/>
<path d="M166 259.9H162.7" stroke="black" stroke-width="0.25" stroke-miterlimit="10"/>
<path d="M166 260.7H162.7" stroke="black" stroke-width="0.25" stroke-miterlimit="10"/>
<path d="M166 261.6H162.7" stroke="black" stroke-width="0.25" stroke-miterlimit="10"/>
<path d="M166 262.4H162.7" stroke="black" stroke-width="0.25" stroke-miterlimit="10"/>
<path d="M166 263.2H162.7" stroke="black" stroke-width="0.25" stroke-miterlimit="10"/>
<path d="M166 293.1H162.7V303.1H166V293.1Z" stroke="black" stroke-width="0.25" stroke-miterlimit="10"/>
<path d="M166 293.8H162.7" stroke="black" stroke-width="0.25" stroke-miterlimit="10"/>
<path d="M166 294.6H162.7" stroke="black" stroke-width="0.25" stroke-miterlimit="10"/>
<path d="M166 295.4H162.7" stroke="black" stroke-width="0.25" stroke-miterlimit="10"/>
<path d="M166 296.2H162.7" stroke="black" stroke-width="0.25" stroke-miterlimit="10"/>
<path d="M166 297.1H162.7" stroke="black" stroke-width="0.25" stroke-miterlimit="10"/>
<path d="M166 297.9H162.7" stroke="black" stroke-width="0.25" stroke-miterlimit="10"/>
<path d="M166 298.7H162.7" stroke="black" stroke-width="0.25" stroke-miterlimit="10"/>
<path d="M166 299.5H162.7" stroke="black" stroke-width="0.25" stroke-miterlimit="10"/>
<path d="M166 300.4H162.7" stroke="black" stroke-width="0.25" stroke-miterlimit="10"/>
<path d="M166 301.2H162.7" stroke="black" stroke-width="0.25" stroke-miterlimit="10"/>
<path d="M166 302H162.7" stroke="black" stroke-width="0.25" stroke-miterlimit="10"/>
<path d="M202.1 254.3H198.8V264.3H202.1V254.3Z" stroke="black" stroke-width="0.25" stroke-miterlimit="10"/>
<path d="M202.1 255H198.8" stroke="black" stroke-width="0.25" stroke-miterlimit="10"/>
<path d="M202.1 255.8H198.8" stroke="black" stroke-width="0.25" stroke-miterlimit="10"/>
<path d="M202.1 256.6H198.8" stroke="black" stroke-width="0.25" stroke-miterlimit="10"/>
<path d="M202.1 257.4H198.8" stroke="black" stroke-width="0.25" stroke-miterlimit="10"/>
<path d="M202.1 258.3H198.8" stroke="black" stroke-width="0.25" stroke-miterlimit="10"/>
<path d="M202.1 259.1H198.8" stroke="black" stroke-width="0.25" stroke-miterlimit="10"/>
<path d="M202.1 259.9H198.8" stroke="black" stroke-width="0.25" stroke-miterlimit="10"/>
<path d="M202.1 260.7H198.8" stroke="black" stroke-width="0.25" stroke-miterlimit="10"/>
<path d="M202.1 261.6H198.8" stroke="black" stroke-width="0.25" stroke-miterlimit="10"/>
<path d="M202.1 262.4H198.8" stroke="black" stroke-width="0.25" stroke-miterlimit="10"/>
<path d="M202.1 263.2H198.8" stroke="black" stroke-width="0.25" stroke-miterlimit="10"/>
<path d="M188.7 238.3H178.7V241.6H188.7V238.3Z" stroke="black" stroke-width="0.25" stroke-miterlimit="10"/>
<path d="M188 241.6V238.3" stroke="black" stroke-width="0.25" stroke-miterlimit="10"/>
<path d="M187.2 241.6V238.3" stroke="black" stroke-width="0.25" stroke-miterlimit="10"/>
<path d="M186.4 241.6V238.3" stroke="black" stroke-width="0.25" stroke-miterlimit="10"/>
<path d="M185.5 241.6V238.3" stroke="black" stroke-width="0.25" stroke-miterlimit="10"/>
<path d="M184.7 241.6V238.3" stroke="black" stroke-width="0.25" stroke-miterlimit="10"/>
<path d="M183.9 241.6V238.3" stroke="black" stroke-width="0.25" stroke-miterlimit="10"/>
<path d="M183.101 241.6V238.3" stroke="black" stroke-width="0.25" stroke-miterlimit="10"/>
<path d="M182.2 241.6V238.3" stroke="black" stroke-width="0.25" stroke-miterlimit="10"/>
<path d="M181.4 241.6V238.3" stroke="black" stroke-width="0.25" stroke-miterlimit="10"/>
<path d="M180.601 241.6V238.3" stroke="black" stroke-width="0.25" stroke-miterlimit="10"/>
<path d="M179.8 241.6V238.3" stroke="black" stroke-width="0.25" stroke-miterlimit="10"/>
<path d="M187.4 242.1H177.4V245.4H187.4V242.1Z" stroke="black" stroke-width="0.25" stroke-miterlimit="10"/>
<path d="M186.7 245.4V242.1" stroke="black" stroke-width="0.25" stroke-miterlimit="10"/>
<path d="M185.9 245.4V242.1" stroke="black" stroke-width="0.25" stroke-miterlimit="10"/>
<path d="M185 245.4V242.1" stroke="black" stroke-width="0.25" stroke-miterlimit="10"/>
<path d="M184.2 245.4V242.1" stroke="black" stroke-width="0.25" stroke-miterlimit="10"/>
<path d="M183.4 245.4V242.1" stroke="black" stroke-width="0.25" stroke-miterlimit="10"/>
<path d="M182.601 245.4V242.1" stroke="black" stroke-width="0.25" stroke-miterlimit="10"/>
<path d="M181.8 245.4V242.1" stroke="black" stroke-width="0.25" stroke-miterlimit="10"/>
<path d="M180.9 245.4V242.1" stroke="black" stroke-width="0.25" stroke-miterlimit="10"/>
<path d="M180.101 245.4V242.1" stroke="black" stroke-width="0.25" stroke-miterlimit="10"/>
<path d="M179.3 245.4V242.1" stroke="black" stroke-width="0.25" stroke-miterlimit="10"/>
<path d="M178.5 245.4V242.1" stroke="black" stroke-width="0.25" stroke-miterlimit="10"/>
<path d="M198 249.1H188V252.4H198V249.1Z" stroke="black" stroke-width="0.25" stroke-miterlimit="10"/>
<path d="M197.3 252.4V249.1" stroke="black" stroke-width="0.25" stroke-miterlimit="10"/>
<path d="M196.5 252.4V249.1" stroke="black" stroke-width="0.25" stroke-miterlimit="10"/>
<path d="M195.601 252.4V249.1" stroke="black" stroke-width="0.25" stroke-miterlimit="10"/>
<path d="M194.8 252.4V249.1" stroke="black" stroke-width="0.25" stroke-miterlimit="10"/>
<path d="M194 252.4V249.1" stroke="black" stroke-width="0.25" stroke-miterlimit="10"/>
<path d="M193.2 252.4V249.1" stroke="black" stroke-width="0.25" stroke-miterlimit="10"/>
<path d="M192.4 252.4V249.1" stroke="black" stroke-width="0.25" stroke-miterlimit="10"/>
<path d="M191.5 252.4V249.1" stroke="black" stroke-width="0.25" stroke-miterlimit="10"/>
<path d="M190.7 252.4V249.1" stroke="black" stroke-width="0.25" stroke-miterlimit="10"/>
<path d="M189.9 252.4V249.1" stroke="black" stroke-width="0.25" stroke-miterlimit="10"/>
<path d="M189.101 252.4V249.1" stroke="black" stroke-width="0.25" stroke-miterlimit="10"/>
<path d="M187.101 309.7H177.101V313H187.101V309.7Z" stroke="black" stroke-width="0.25" stroke-miterlimit="10"/>
<path d="M186.4 313V309.7" stroke="black" stroke-width="0.25" stroke-miterlimit="10"/>
<path d="M185.601 313V309.7" stroke="black" stroke-width="0.25" stroke-miterlimit="10"/>
<path d="M184.8 313V309.7" stroke="black" stroke-width="0.25" stroke-miterlimit="10"/>
<path d="M184 313V309.7" stroke="black" stroke-width="0.25" stroke-miterlimit="10"/>
<path d="M183.101 313V309.7" stroke="black" stroke-width="0.25" stroke-miterlimit="10"/>
<path d="M182.3 313V309.7" stroke="black" stroke-width="0.25" stroke-miterlimit="10"/>
<path d="M181.5 313V309.7" stroke="black" stroke-width="0.25" stroke-miterlimit="10"/>
<path d="M180.7 313V309.7" stroke="black" stroke-width="0.25" stroke-miterlimit="10"/>
<path d="M179.8 313V309.7" stroke="black" stroke-width="0.25" stroke-miterlimit="10"/>
<path d="M179 313V309.7" stroke="black" stroke-width="0.25" stroke-miterlimit="10"/>
<path d="M178.2 313V309.7" stroke="black" stroke-width="0.25" stroke-miterlimit="10"/>
<path d="M202.1 293.1H198.8V303.1H202.1V293.1Z" stroke="black" stroke-width="0.25" stroke-miterlimit="10"/>
<path d="M202.1 293.8H198.8" stroke="black" stroke-width="0.25" stroke-miterlimit="10"/>
<path d="M202.1 294.6H198.8" stroke="black" stroke-width="0.25" stroke-miterlimit="10"/>
<path d="M202.1 295.4H198.8" stroke="black" stroke-width="0.25" stroke-miterlimit="10"/>
<path d="M202.1 296.2H198.8" stroke="black" stroke-width="0.25" stroke-miterlimit="10"/>
<path d="M202.1 297.1H198.8" stroke="black" stroke-width="0.25" stroke-miterlimit="10"/>
<path d="M202.1 297.9H198.8" stroke="black" stroke-width="0.25" stroke-miterlimit="10"/>
<path d="M202.1 298.7H198.8" stroke="black" stroke-width="0.25" stroke-miterlimit="10"/>
<path d="M202.1 299.5H198.8" stroke="black" stroke-width="0.25" stroke-miterlimit="10"/>
<path d="M202.1 300.4H198.8" stroke="black" stroke-width="0.25" stroke-miterlimit="10"/>
<path d="M202.1 301.2H198.8" stroke="black" stroke-width="0.25" stroke-miterlimit="10"/>
<path d="M202.1 302H198.8" stroke="black" stroke-width="0.25" stroke-miterlimit="10"/>
<path d="M157.1 268.4H155.4" stroke="black" stroke-width="0.25" stroke-miterlimit="10"/>
<path d="M204.7 243.9V242.1" stroke="black" stroke-width="0.25" stroke-miterlimit="10"/>
<path d="M204.7 273.2V291H207.7V307H204.7V308.4" stroke="black" stroke-width="0.25" stroke-miterlimit="10"/>
<path d="M204.7 246.9V248.5H207.7V268.4H204.7V270.2" stroke="black" stroke-width="0.25" stroke-miterlimit="10"/>
<path d="M204.7 311.6V313.3" stroke="black" stroke-width="0.25" stroke-miterlimit="10"/>
<path d="M209.5 291H207.7" stroke="black" stroke-width="0.25" stroke-miterlimit="10"/>
<path d="M208.6 275.6H205.3V285.6H208.6V275.6Z" stroke="black" stroke-width="0.25" stroke-miterlimit="10"/>
<path d="M205.3 276.3H208.6" stroke="black" stroke-width="0.25" stroke-miterlimit="10"/>
<path d="M205.3 277.1H208.6" stroke="black" stroke-width="0.25" stroke-miterlimit="10"/>
<path d="M205.3 277.9H208.6" stroke="black" stroke-width="0.25" stroke-miterlimit="10"/>
<path d="M205.3 278.8H208.6" stroke="black" stroke-width="0.25" stroke-miterlimit="10"/>
<path d="M205.3 279.6H208.6" stroke="black" stroke-width="0.25" stroke-miterlimit="10"/>
<path d="M205.3 280.4H208.6" stroke="black" stroke-width="0.25" stroke-miterlimit="10"/>
<path d="M205.3 281.2H208.6" stroke="black" stroke-width="0.25" stroke-miterlimit="10"/>
<path d="M205.3 282.1H208.6" stroke="black" stroke-width="0.25" stroke-miterlimit="10"/>
<path d="M205.3 282.9H208.6" stroke="black" stroke-width="0.25" stroke-miterlimit="10"/>
<path d="M205.3 283.7H208.6" stroke="black" stroke-width="0.25" stroke-miterlimit="10"/>
<path d="M205.3 284.5H208.6" stroke="black" stroke-width="0.25" stroke-miterlimit="10"/>
<path d="M207.7 268.4H209.4" stroke="black" stroke-width="0.25" stroke-miterlimit="10"/>
<path d="M152.801 268.4H151.101" stroke="black" stroke-width="0.25" stroke-miterlimit="10"/>
<path d="M177.5 243.7H167.4V255.9H182.1" stroke="black" stroke-width="0.25" stroke-miterlimit="10"/>
<path d="M182.101 245.4V249.3" stroke="black" stroke-width="0.25" stroke-miterlimit="10"/>
<path d="M182.101 252.4V256.6H190.201V253H198.301V248.5H182.101" stroke="black" stroke-width="0.25" stroke-miterlimit="10"/>
</svg>
