<svg width="358" height="596" viewBox="0 0 358 596" fill="none" xmlns="http://www.w3.org/2000/svg">
<path d="M229.7 186.9L227.5 152.7L223.8 121.8C223.2 117 222.3 112.2 221.1 107.5L212.8 75.1L212.7 71.3L197.4 55.8C195.7 54.1 193 53.6 190.8 54.6L182.4 58.5L171.4 54.9C169.1 54.2 166.6 54.9 165.1 56.8L152.3 72.8V76.2L144.1 103.1C142.3 109 141 115 140.2 121L136 152.7L133.4 202.2C133.2 205.9 133.1 209.6 133.1 213.3V414.6C133.1 420.2 133.3 425.8 133.7 431.4L135.4 455.2C135.7 458.9 136.2 462.5 137 466.1L138.7 473.8C140 479.7 141.9 485.5 144.3 491.1L149 501.9L153.8 510.5C156.6 515.5 159.8 520.3 163.4 524.8L173 536.7L178.1 541.2C181.4 544.1 186.4 543.8 189.4 540.6L193.9 535.8L204.1 521.5C205.6 519.4 206.9 517.2 208 514.9L216.1 498.8C216.9 497.2 217.6 495.5 218.3 493.8L222.3 482.8C224.2 477.7 225.6 472.5 226.6 467.2L228.5 457.1C229.2 453 229.7 448.9 229.9 444.8L230.4 433.5V198.8C230.1 194.8 229.9 190.8 229.7 186.9Z" fill="#4F4F4F" stroke="black" stroke-miterlimit="10"/>
<path d="M133 417.6V431.9H150.7L155.2 427.4H207.4L213 431.9H230V417.6L212.9 409.6L211.7 411.1L203.3 408.9H198.8V384L187.5 370.5H174.9L163.8 384.1V409.1H159.9L150.5 411.5L149.6 409.8L133 417.6Z" fill="#D3D3D3" stroke="black" stroke-width="0.25" stroke-miterlimit="10"/>
<path d="M163.6 399.5H160.7V409.2H163.6V399.5Z" fill="#DBD8B9" stroke="black" stroke-width="0.25" stroke-miterlimit="10"/>
<path d="M160.7 400.5H163.5" stroke="black" stroke-width="0.25" stroke-miterlimit="10"/>
<path d="M160.7 401.3H163.5" stroke="black" stroke-width="0.25" stroke-miterlimit="10"/>
<path d="M160.7 402.1H163.5" stroke="black" stroke-width="0.25" stroke-miterlimit="10"/>
<path d="M160.7 403H163.5" stroke="black" stroke-width="0.25" stroke-miterlimit="10"/>
<path d="M160.7 403.8H163.5" stroke="black" stroke-width="0.25" stroke-miterlimit="10"/>
<path d="M160.7 404.7H163.5" stroke="black" stroke-width="0.25" stroke-miterlimit="10"/>
<path d="M160.7 405.5H163.5" stroke="black" stroke-width="0.25" stroke-miterlimit="10"/>
<path d="M160.7 406.4H163.5" stroke="black" stroke-width="0.25" stroke-miterlimit="10"/>
<path d="M160.7 407.3H163.5" stroke="black" stroke-width="0.25" stroke-miterlimit="10"/>
<path d="M160.7 408.2H163.5" stroke="black" stroke-width="0.25" stroke-miterlimit="10"/>
<path d="M171.8 397.8H165.2V405.9H171.8V397.8Z" fill="#C6C6C5"/>
<path d="M169.8 392.3H167.4V397.8H169.8V392.3Z" fill="#C6C6C5"/>
<path d="M168.6 405.8C170.809 405.8 172.6 404.009 172.6 401.8C172.6 399.591 170.809 397.8 168.6 397.8C166.39 397.8 164.6 399.591 164.6 401.8C164.6 404.009 166.39 405.8 168.6 405.8Z" fill="#DDDDDD"/>
<path d="M197.2 397.8H190.6V405.9H197.2V397.8Z" fill="#C6C6C5"/>
<path d="M195.1 392.3H192.7V397.8H195.1V392.3Z" fill="#C6C6C5"/>
<path d="M193.9 405.8C196.11 405.8 197.9 404.009 197.9 401.8C197.9 399.591 196.11 397.8 193.9 397.8C191.691 397.8 189.9 399.591 189.9 401.8C189.9 404.009 191.691 405.8 193.9 405.8Z" fill="#DDDDDD"/>
</svg>
