<svg width="1128" height="947" viewBox="0 0 1128 947" fill="none" xmlns="http://www.w3.org/2000/svg">
<g clip-path="url(#clip0_2_7194)">
<path d="M1127.7 747.2L1086.4 758.7L1049.7 770L1010.7 778.5L974 785.9L877.6 791.3L805.8 795.8L737.8 806.4L692.4 819.2L654 836.8L601.1 865.8L551.3 896.7L534.1 906.6L520.2 912.8L495 915.5L36.8999 915.6C36.8999 915.6 35.3999 872.7 35.2999 851.2C35.2999 840.4 36.4999 829.6 35.8999 818.8C35.5999 813.2 35.0999 807.5 33.5999 802.1C31.9999 796.2 27.9999 791.2 26.4999 785.3C25.1999 780.4 24.8999 775.2 24.5999 770.1C23.8999 758.5 26.0999 746.9 24.8999 735.3C23.6999 723.7 20.3999 712.4 17.4999 701.1C12.9999 684.7 5.99993 669.1 2.19993 652.5C1.19993 648.1 0.399932 643.7 0.199932 639.2C-0.300068 629 0.699931 618.9 1.49993 608.7C2.49993 597 1.69993 584.7 5.89993 573.6C7.39993 569.7 9.79993 566 12.8999 563.3C16.2999 560.2 21.4999 559.7 25.0999 556.9C28.6999 554.2 32.1999 550.9 34.3999 547C39.0999 538.9 40.6999 529.2 42.5999 519.9C44.9999 508.2 45.9999 496.2 46.6999 484.2C47.4999 470.8 46.7999 457.3 46.9999 443.9C47.2999 428.6 48.7999 413.3 48.2999 398.1C47.7999 383.5 45.5999 369 44.0999 354.5C40.5999 319.8 35.4999 285.2 32.9999 250.4C30.9999 221.4 30.0999 192.4 29.8999 163.3C29.5999 118.1 32.8999 27.7 32.8999 27.7L75.3999 27.6L107.5 13.9L107.4 1.2L166.6 1V13.8L177.2 22.3L316.8 23.2L327.1 13.6V1.2L407.6 1V13.3L418.2 22.9H1034.6C1034.6 22.9 1035.2 152.1 1038.8 171.1C1040.6 180.6 1042.2 190.6 1043.7 200.2C1046 215 1052.3 229.3 1057.8 243.2C1062.7 255.4 1071.1 269.5 1081 278.1C1097.4 292.4 1107.2 303.1 1118.7 319.1C1123.9 326.3 1123.2 334.7 1125.6 343.3C1127.3 349.5 1127.3 362.5 1127.3 362.5L1127.7 747.2Z" fill="#C6D1A3"/>
<path d="M272.8 335.6C276.2 335.4 279.7 334.1 282.4 332C283.8 330.9 285.8 329.4 285.5 327.6C285.1 324.7 280.3 324.5 278.5 322.2C277.3 320.7 276.5 318.8 276.1 317C275.9 316 276.5 315 276.2 314C275.8 312.3 274.3 311.1 273.7 309.5C272.6 306.5 273 303 271.6 300.1C270.7 298.3 268.8 297.1 267.6 295.5C266.8 294.4 266.7 292.3 265.4 291.9C263.8 291.4 262.1 292.9 260.8 293.9C258.5 295.7 256.5 298 255.4 300.8C254.7 302.7 254.7 304.9 255 306.9C255.7 310.4 258.3 313.3 259.5 316.8C260.1 318.6 260.1 320.6 260.7 322.4C261.8 325.8 262.9 329.4 265.2 332.1C266.1 333.2 267.4 334.1 268.7 334.7C270 335.3 271.4 335.7 272.8 335.6Z" fill="#CBE7F7"/>
<path d="M226.9 261.4C228.9 261.4 230.8 263.1 232.8 262.9C234.3 262.8 235.6 261.7 236.9 261C238.4 260.3 239.7 259.3 241.3 258.9C243.6 258.3 246.5 259.9 248.3 258.4C249.6 257.3 250.1 255 249.5 253.4C249.1 252.2 247.7 251.6 246.5 251C244.2 249.9 241.7 249.5 239.1 249.4C234.7 249.2 229.9 249.1 226 251.1C224.2 252.1 222.3 253.8 221.9 255.8C221.6 257.4 222.5 259 223.3 260.4C223.7 261 224.1 261.7 224.8 261.9C225.5 262.2 226.2 261.4 226.9 261.4Z" fill="#CBE7F7"/>
<path d="M193.3 216C190.9 214.4 187.6 212.5 185 213.7C182.7 214.7 181.2 218.1 181.8 220.6C182.2 222.5 185.2 222.6 186.3 224.2C187.4 225.9 187.1 228.1 187.9 229.9C188.3 230.8 188.8 231.8 189.6 232.4C191.7 233.9 195 233 197.2 234.5C199.1 235.8 199.4 238.7 201.3 240C203 241.1 205.7 242.5 207.4 241.4C208.9 240.4 207.9 237.8 208.4 236C209.5 232.5 213.8 229.7 213 226.1C212.7 224.7 211.2 223.8 209.9 223.4C206.8 222.4 203.2 225.8 200.2 224.6C196.8 223.2 196.3 218 193.3 216Z" fill="#CBE7F7"/>
<path d="M268.9 237.7C267.4 237.9 266 239 265.3 240.3C264.9 241.1 264.9 242.2 265.3 243C265.8 244 267 244.3 267.8 245C268.9 246.1 269.6 247.7 270.9 248.6C271.8 249.3 273 249.9 274.1 249.8C274.9 249.8 275.8 249.4 276.3 248.8C276.9 248 277.1 246.9 276.9 245.9C276.6 244.2 274.4 243.4 273.9 241.8C273.7 241.1 274.3 240.2 273.9 239.6C273 238.2 270.7 237.5 268.9 237.7Z" fill="#CBE7F7"/>
<path d="M222.8 234.7C221.2 234.6 219 235.3 218.3 236.8C217.4 238.6 218.9 240.7 219.4 242.6C219.9 244.3 220 246.5 221.5 247.5C223.4 248.8 226.7 249.4 228.4 247.8C230.6 245.8 230.1 241.5 228.8 238.9C227.7 236.6 225.2 234.9 222.8 234.7Z" fill="#CBE7F7"/>
<path d="M1047.6 518.5C1049.8 526.6 1048.2 536 1048.2 544.3C1048.2 549 1047.7 553.2 1046.5 557.8C1045.7 561.1 1039 587.9 1029.7 578.6C1025.9 574.8 1027.9 564.4 1024.1 560.7C1020.7 557.3 1006.2 552.8 1010.1 545C1013.2 538.9 1024.4 537.4 1029.2 532.7C1032.5 529.1 1043.1 501.8 1047.6 518.5Z" fill="#CBE7F7"/>
<path d="M1010.9 107.3C1013.6 105.5 1018.5 106.1 1020.7 108.6C1026.4 115.2 1020.3 126 1020 134.7C1019.6 148.6 1017.5 162.6 1018.7 176.4C1019.8 189.2 1023.8 201.6 1026.5 214.2C1028.4 222.9 1028.3 232.4 1032.4 240.3C1037 249.3 1046.3 255.2 1052.6 263.1C1057.9 269.8 1060.5 279.2 1067.6 284C1073 287.6 1070 288.6 1075.7 291.7C1086.5 297.6 1089 303.8 1096 314C1102.8 324.1 1107.7 335.9 1109.7 347.9C1112.5 365.3 1106.3 383.1 1106.4 400.7C1106.6 418.8 1111.6 436.7 1111 454.8C1110.7 463.6 1107.1 472.1 1107.1 480.9C1107.1 490.8 1111.3 500.4 1111.7 510.2C1112.1 519.3 1110.1 528.4 1109.7 537.6C1109.4 545 1109.6 552.4 1109.7 559.8C1109.9 577.6 1111.3 595.4 1111 613.3C1110.7 627.9 1108.5 642.4 1108.4 657C1108.2 673.7 1111.5 690.5 1110.4 707.2C1109.6 718.4 1113.8 734 1104.5 740.5C1100.5 743.3 1093.4 741.5 1090.2 737.9C1081.1 727.9 1087.7 711 1086.9 697.5C1086.2 684.5 1085.1 671.4 1085.6 658.4C1086 647.7 1087.7 637.1 1088.9 626.4C1090.4 612.7 1093.5 599.1 1093.5 585.3C1093.5 572 1089.8 558.8 1088.9 545.5C1088.2 535.7 1088.5 525.9 1088.2 516.2C1088 504.5 1086.9 492.7 1087.5 481C1088.1 470.9 1091.2 461.1 1091.4 451C1091.7 434.8 1087.7 418.9 1086.8 402.7C1086.2 391.4 1085.3 380.1 1086.1 368.8C1086.7 361.3 1091.8 353.9 1090 346.6C1087.5 336 1078.6 327.7 1070.4 320.5C1061 312.2 1064.5 309.9 1055.1 301.6C1045.2 292.9 1039.3 280.5 1031 270.3C1023.9 261.6 1013.7 255 1008.8 244.9C1003.5 233.8 1003.9 220.6 1002.3 208.4C1000.3 193.3 997.5 178 998.4 162.8C999.1 149.5 1003.1 136.6 1006.2 123.7C1007.6 118.1 1006.2 110.4 1010.9 107.3Z" fill="#CBE7F7"/>
<path d="M525.3 44.1998C521.5 43.9998 512.1 47.0998 516.2 51.1998C517 51.9998 521.9 50.0998 523.8 51.9998C526.3 54.4998 522 64.9998 520.2 66.7998C517.7 69.2998 513.6 71.2998 509.6 72.6998C508.3 73.1998 502.5 75.7998 503.3 77.3998C505.2 81.1998 520 77.1998 522.1 79.2998C523 80.1998 529.6 83.3998 531 82.6998C538.3 78.9998 529.6 65.3998 531.5 57.9998C531.9 56.4998 532 54.9998 532.5 53.4998C533.2 51.2998 537.1 48.9998 534.2 46.0998C531.2 43.0998 528.6 44.1998 525.3 44.1998Z" fill="#CBE7F7"/>
<path d="M439.3 60.6997C445.7 60.3997 439.1 71.7997 441.1 73.7997C446.2 78.8997 442.8 86.0997 436.5 87.6997C435.4 87.9997 432.3 87.8997 431.6 87.1997C424.3 79.8997 430.8 60.9997 439.3 60.6997Z" fill="#CBE7F7"/>
<path d="M453 57.2998C452.4 57.7998 450.9 57.7998 452 59.8998C452.8 61.4998 454.1 63.2998 455.1 64.2998C457.6 66.7998 452.3 71.8998 453.8 74.8998C455.2 77.6998 468 86.4998 471.8 82.5998C475.6 78.7998 468.8 72.1998 476.2 69.6998C481.1 68.0998 490.3 73.5998 494.2 69.6998C497.1 66.7998 489.6 62.2998 487.8 60.3998C485.9 58.4998 490.2 52.6998 488.1 50.5998C486.3 48.7998 478.4 49.1998 476.5 51.0998C472.4 55.1998 474.4 58.1998 467 61.8998C458.9 65.8998 456.5 54.2998 453 57.2998Z" fill="#CBE7F7"/>
<path d="M338.3 336.2C335.7 337.3 336.1 340.4 334.7 341.9C331.9 344.7 333.9 358.5 338.3 356.3C341.3 354.8 337.3 350.2 338.6 347.8C339.6 345.7 342.6 334.4 338.3 336.2Z" fill="#CBE7F7"/>
<path d="M321.3 331.3C323.3 327.1 324.3 318.4 321.3 315.3C317 311 299.5 309 295 313.5C290.8 317.7 313.9 316.7 314.1 316.9C317.7 320.5 318.3 337.5 321.3 331.3Z" fill="#CBE7F7"/>
<path d="M188.9 304C179.9 294.8 165.6 282.5 152.7 276C151.5 275.4 145.9 272.7 144.5 274.1C130.8 287.8 140.8 327.4 154.1 340.7C159 345.6 170 345.3 176.8 347C182.4 348.4 196.7 353 202.1 352.1C211.9 350.4 220.1 338.6 216.3 327.3C212 314 195.5 310.7 188.9 304Z" fill="#CBE7F7"/>
<path d="M827.1 138.5H683.8V149.2H552.2V285.4H544.2V558.2H552.1V676H550.2V694.9H569V692.7H683.9V705.7H827.2V578.4H864.9L869.6 558.3V285.2L864.9 265.8H827.1V138.5Z" fill="#777777"/>
<path d="M349.6 799.3C349.6 799.3 337.7 815.1 330.1 821.3C320 829.6 308.2 835.8 296.3 841.3C285 846.5 273.3 851.1 261.1 853.4C232.5 858.8 202.9 855.9 173.7 857.3C160.8 857.9 147.9 858.2 135.1 859.2C120.1 860.5 105.2 863.1 90.2 864.5C74.5 866 58.7 867.3 42.9 867.9C37.6 868.1 35.5 868.1 35.5 868.1" stroke="#848383" stroke-width="10" stroke-miterlimit="10"/>
<path d="M210.7 636.1C210.7 636.1 205 623.9 202.6 617.6C200.8 612.8 200.3 607.4 197.9 602.9C194 595.8 188.7 589.3 182.3 584.2C178.1 580.8 173.1 578.2 167.9 576.8C163 575.4 157.7 575.6 152.6 575.7C141.3 575.9 130.2 580.8 119 579.3C112.6 578.5 107.3 573.6 101 572.3C93.3 570.8 85.3 572.5 77.6 571.6C69.9 570.8 62.3 569.4 54.8 567.3C44.6 564.4 36.7 558.3 26.3 556.1" stroke="#848383" stroke-width="10" stroke-miterlimit="10"/>
<path d="M87.9001 721.1C87.9001 721.1 82.6001 696.3 81.5001 683.4C80.3001 669.5 80.3001 654.6 83.5001 641C86.0001 630.7 91.9001 622.6 94.6001 612.3C95.7001 608.3 95.6001 604.1 95.8001 600C96.3001 585 94.2001 570 94.3001 554.9C94.5001 537.4 92.7001 519.4 97.2001 502.5C98.8001 496.4 102.7 491.1 105.7 485.5C108.4 480.4 112.5 475.9 114.2 470.3C115.8 465.1 116.5 459.3 115.4 453.9C114.4 449.6 109.8 446.6 109 442.2C108 437 110.3 431.7 111 426.4C111.8 420.8 113.5 415.3 113.3 409.7C113 400.6 108.8 392.1 107.7 383.1C106.6 373 107.6 362.8 107.1 352.7C106.3 336.7 105 320.7 103 304.7C101.1 288.9 96.9001 273.4 95.4001 257.6C92.6001 227.8 95.5001 197.6 93.1001 167.8C92.2001 156.2 88.6001 144.9 88.4001 133.3C88.1001 118.7 91.9001 104.3 92.8001 89.6997C93.8001 72.5997 93.7001 38.1997 93.7001 38.1997" stroke="#848383" stroke-width="10" stroke-miterlimit="10"/>
<path d="M102.7 877.7C95.6999 877.7 93.0999 879.4 89.8999 882.7C77.8999 894.7 92.1999 908.9 105.6 904.4C108.4 903.5 116.3 886.6 113.1 883.4C111.8 882.1 109.4 881.9 108.1 880.5C106.4 878.9 105.6 877.7 102.7 877.7ZM261.9 880.8C259.7 880.8 256.4 883.3 256 883.7C253.9 885.8 247.9 880.8 245.7 883C241.6 887.1 237.4 893.1 232.2 898.3C229.4 901.1 225.1 900.1 222.6 902.6C220.2 905 218.4 908 215.7 908.9C202.8 913.1 155.6 906.5 153.1 909C150.3 911.8 123.5 910 114.6 910.1C95.7999 910.2 83.3999 895.7 73.5999 900.6C66.7999 904 54.4999 893.1 46.1999 908.8C44.3999 912.1 64.9999 914.7 66.7999 914.7C72.7999 914.7 80.9999 912.6 86.6999 912.6C93.3999 912.6 96.7999 912.3 102.8 914.3C109.6 916.6 119.2 912.5 125.6 914.7C135.9 918.1 146.2 912.4 151.3 913.6C153.2 914.1 170.3 916.2 174.6 916C177 915.9 181 913.7 183.9 913.7C186.2 913.7 193.6 914.2 195.6 915.2C199.4 917.1 208.3 914.8 215.9 914.3C221 913.9 230.3 914 230.5 914C232.7 914 238.6 912.7 241.2 911.9C248.1 909.6 257.2 918.7 264.4 911.5C268.6 907.3 280.4 915.8 285.8 912.6C288.7 910.9 285.9 906 287.2 903.3C295.9 885.8 281.6 890.7 272.6 886.2C269 884.4 265.3 883.2 263.3 881.2C262.8 880.9 262.4 880.8 261.9 880.8Z" fill="#979E78"/>
<path d="M923.7 455.3C922.2 454.5 920.9 453 919.9 452C919.1 451.2 917.3 450 916.9 449.2C916 447.4 920.2 442.2 923.1 443.6C924.1 444.1 924.7 445.1 925.5 445.8C926.3 446.6 927.5 447.3 928.2 448.3C930.2 451.4 926.1 454.7 923.7 455.3Z" fill="#979E78"/>
<path d="M1014.4 414.7C1015.6 414.1 1017.8 414.8 1018.8 413.8C1019.5 413.1 1020.6 413.2 1021.4 412.5C1022 411.9 1022.8 412.1 1023.6 411.8C1028.6 410.1 1032.4 422.6 1030.7 425.9C1030 427.3 1026.6 428.4 1024.8 428.7C1017.9 430.1 1016.2 426.2 1014.5 421C1014.3 420.4 1014.5 419.3 1014.2 418.7C1013.6 417.9 1013.3 415.2 1014.4 414.7Z" fill="#979E78"/>
<path d="M955.6 358.1C955.9 357.7 960.5 355.6 962.3 356.5C965.6 358.1 967.1 361.5 965.3 364.9C965.1 365.4 964.6 366.6 964.1 366.9C962.9 367.5 961.8 367.8 960.5 368.1C958 368.8 953.7 360.9 955.6 358.1Z" fill="#979E78"/>
<path d="M1003.8 374.9C1005.6 375.6 1007.9 376.2 1009.3 377.7C1011.1 379.5 1007.5 385.5 1005.4 384.4C1003.9 383.7 1000.8 380.7 1000.3 379.1C999.5 376.7 1001.7 374.1 1003.8 374.9Z" fill="#979E78"/>
<path d="M117.2 210.3C119.8 208.7 124.4 208 127.6 209.1C128.7 209.5 129.5 209.8 130.4 210.2C133.7 211.9 142.3 225.7 140.8 229.9C140.1 232 127.2 240.7 124.3 241.4C122.2 241.9 118.7 238.8 117.8 237.1C116.6 234.8 114.2 231.4 112.5 229.7C112 229.2 111.9 227.4 111.8 226.7C111 220.7 112.8 213.1 117.2 210.3Z" fill="#979E78"/>
<path d="M133.5 263.6C132.9 263.8 132.9 269.3 134 271.6C135.4 274.3 134.7 278.1 136.8 280.1C150 293.3 144.4 263.7 141.5 262.8C137.7 261.5 136.1 262.5 133.5 263.6Z" fill="#979E78"/>
<path d="M130 288C131.5 284.2 135.1 281.5 139.5 283.7C152.1 290 148.9 294.9 141.2 302.6C139.8 304 127.1 295.8 130 288Z" fill="#979E78"/>
<path d="M143.7 304.8C144.4 305.3 144.3 308.4 144.9 310.3C145.6 312.3 146.5 313.8 146.5 315.8C146.5 318.4 146.9 322.6 144.8 323.6C144.2 323.9 143.3 323.5 142.7 323.8C134 328.2 126.2 305.2 130.4 301.1C134.4 297.1 141.8 303.5 143.7 304.8Z" fill="#979E78"/>
<path d="M137.5 325.1C128.5 327.9 139.9 334.3 142.7 331.5C147.6 326.6 143.4 323.2 137.5 325.1Z" fill="#979E78"/>
<path d="M257.6 288.5C246.1 288.7 253.1 299.9 257.8 304.6C259.2 306 263.3 302.7 263.3 301.7C263.3 300.7 264.4 299.7 264 298.2C263.1 294.6 260.9 288.5 257.6 288.5Z" fill="#979E78"/>
<path d="M288.8 307.8C283.5 294.1 274.2 308.1 278.7 312.7C285.7 319.6 292.6 317.5 288.8 307.8Z" fill="#979E78"/>
<path d="M121.3 332.1C133.4 331.9 140.6 349.9 148.9 358.2C150.3 359.7 148.1 363.3 149.3 364.5C152.1 367.3 155.6 368.2 158.1 370.8C159.3 372 158.6 376.4 160.7 377.4C169.3 381.7 180 381.6 186.5 388.1C190.2 391.8 184 402.1 187.6 403.9C196 408.1 203 403.4 212.6 413.1C215.9 416.4 209.1 426.1 211.7 431.2C212.7 433.2 221 443.3 222.1 444C224.1 445.1 225.8 440 227.7 442.2C232.6 447.7 233.4 465.7 238.9 471.1C243 475.2 233 482.1 235.6 484.8C241 490.2 243.9 577.5 243.9 583.5C243.9 589.4 243.7 612.4 241 615.1C237.3 618.8 243.9 635.2 244.7 639C245.5 643 240.8 666.9 239.5 670.6C238.2 674.4 229.3 692.1 224.4 687.2C222.6 685.4 220.2 680 218.6 678.4C217 676.7 213.2 676.4 212 674C209.3 668.6 217.7 650.9 220.8 647.8C227.6 641 230.6 649.1 233.4 638C234.2 634.8 235.2 616.1 231.6 615.6C222.7 614.4 214.8 606.1 210.1 605.5C206.4 605 199.2 601.9 201.4 596.5C202.5 593.8 203.3 590.5 205.3 589C207.5 587.5 217.2 591.5 217.3 588.1C217.4 581.3 219.2 573.5 222.7 570.1C226.9 565.9 217.5 552.9 221.3 549.1C223.1 547.3 227.7 544.9 229.8 542.8C234.3 538.3 233.9 516.7 230.9 510.8C229.7 508.5 225.1 508.7 223.9 507.5C222.8 506.4 222 503.8 221 502.7C217.5 499.2 221.7 490.9 219.2 488.3C215.5 484.6 210.8 492.5 208 493C206 493.4 196.1 486.7 194.1 484.7C184.4 475 194.3 471.8 191.9 467C189 461.2 185.1 446.8 180.8 444.9C174.8 442.2 173.2 454.1 172.8 454.5C171.9 455.4 165.1 455.8 164 455.2C156.7 451.5 146.6 447.8 140.8 442C137.9 439.1 141.8 433 140.1 429.5C134.6 418.6 126.5 423.7 129.8 407.4C130 406.3 129.8 403.7 131.3 403C133.6 401.9 191.2 419.1 171.3 402.3C169.8 401 158.2 398.7 157.1 397.7C153.1 393.7 160 387.4 148.9 378.4C142.7 373.4 142.6 368.8 139 361.5C135.5 354.6 126.6 351.1 123.5 344.9C121.4 341.1 115.2 332.2 121.3 332.1Z" fill="#979E78"/>
<path d="M201.5 503.6C200 486.2 221 504.3 218.8 506.5C213.2 512.2 202.4 513.7 201.5 503.6Z" fill="#979E78"/>
<path d="M204.5 525.3C206.9 522.3 211.2 525.7 214.1 527.1C217.3 528.7 221.7 528.1 224.4 530.8C239.3 545.8 190.1 542.9 204.5 525.3Z" fill="#979E78"/>
<path d="M197.9 550C206 548.6 218.3 561.6 215.6 564.4C212.8 567.2 209.3 569.2 206.4 572.1C205.3 573.2 215.2 577.7 211.2 581.7C209.6 583.3 197.4 586.2 193.5 584.3C192 583.5 185 569.2 188 566.3C188.7 565.6 190.6 565.5 191.3 564.8C193.4 562.6 189.8 551.4 197.9 550Z" fill="#979E78"/>
<path d="M152.1 477.5C145.2 477.4 143.6 481 141.6 483C129.6 495 150.9 499.4 154.8 495.5C161.8 488.5 159 477.6 152.1 477.5Z" fill="#979E78"/>
<path d="M149.7 511.3C161.9 503.4 179.7 518.1 167.7 530.1C167.2 530.6 166.7 532.4 165.1 531.6C160.7 529.4 140.5 517.3 149.7 511.3Z" fill="#979E78"/>
<path d="M131.3 547.8C137.1 545.1 142.2 547.5 146.4 549.6C149.6 551.2 154.6 546.8 157.4 549.6C160.2 552.4 166 559.4 160.7 564.7C155.9 569.5 147.4 561.1 144.5 564C143.1 565.4 133.5 566.6 131.3 565.5C124.7 562.2 125 550.7 131.3 547.8Z" fill="#979E78"/>
<path d="M218.8 619.9C219.4 619.5 224.1 616.8 227.6 620.3C242.7 635.4 214.7 640.8 214.7 624.7C214.8 622.7 217 621.1 218.8 619.9Z" fill="#979E78"/>
<path d="M125.7 686.1C145.4 670.5 149.5 708.6 144.5 713.7C134.7 723.5 123.8 717.6 119.1 708.2C117.6 705.2 121.5 699.9 122 697.5C122.9 694.3 122.3 688.8 125.7 686.1Z" fill="#979E78"/>
<path d="M161.4 683.2C164.5 683.6 166.4 685.5 167.7 688C180.2 713 159.4 709.6 154.8 700.5C152.8 696.6 157.9 693.2 157 691.3C154.4 686 151.2 681.9 161.4 683.2Z" fill="#979E78"/>
<path d="M228.5 691.9C230.8 693.3 219.4 711.2 218.5 712.2C216.8 713.9 213.2 714.9 210.8 717.4C206.9 721.3 206.6 729 202 733.6C199.9 735.7 195.5 735.4 193.5 737.3C191.5 739.3 191.4 742.8 188.3 744.3C185.7 745.6 181.4 744.1 178.7 745.4C170.2 749.6 161.9 751.3 152.9 754.2C146.2 756.4 139.4 754.2 132.2 756C127.3 757.2 113.3 754.1 112.4 754.9C105.5 761.8 103.6 759.2 98.4999 755.5C92.5999 751.3 91.8999 748.7 101 744.6C104.8 742.9 105.7 746.9 108.7 747.9C114.4 749.8 121.1 749.4 127.5 749.4C130.5 749.4 137.4 750.7 140 749.4C143 747.9 150.2 743.2 153.2 740.2C155.8 737.6 161.7 739.2 165.3 738.4C171.3 736.9 185.4 728.9 190.3 721.8C192.9 718.1 176.4 712.9 182.2 707.1C186 703.3 198.2 707.3 202.4 703.1C204.1 701.4 204.9 699.2 207.2 696.8C208.6 695.4 211.7 696 213.1 694.6C219.4 688.6 217.8 685.3 228.5 691.9Z" fill="#979E78"/>
<path d="M169.5 712.6C170.7 712.1 174.1 711.7 176.9 714.4C179.6 717.1 177.6 721.2 177.6 724C177.6 741.7 153.3 729.1 164 718.5C166 716.5 166.5 713.9 169.5 712.6Z" fill="#979E78"/>
<path d="M748.1 742.4C744.8 742.8 740.9 743.4 738.6 745.6C737.9 746.3 738 747.3 737.5 748.2C735.7 751.9 739.9 754.3 742 756.4C742.8 757.2 742.9 758.3 743.8 759.2C744.1 759.5 748.3 758.8 748.3 758.8C748.8 758.3 749.9 758.2 750.6 757.5C752.1 756 753.4 753.9 754.7 752.6C755.4 751.9 753.3 745.4 753.1 745.1C752.7 744.7 748.8 742.3 748.1 742.4Z" fill="#979E78"/>
<path d="M413.5 171.7C407.8 171.6 406.5 173.6 405 178.1C403.2 183.6 406.6 187.2 409.6 190.2C412.4 193 408.1 198.7 410.9 201.5C411.6 202.2 417 202.1 417.6 201.5C424.1 195 415.6 191.6 417.9 187.1C421.4 180.2 423.9 172 413.5 171.7Z" fill="#979E78"/>
<path d="M325.1 833.5C326.6 832.8 331.2 828.2 333.3 830.3C337.2 834.2 338.4 855 328.3 851.7C318.8 848.5 315.4 837.9 325.1 833.5Z" fill="#979E78"/>
<path d="M323.7 779C332.5 779.3 328 796.9 328.3 797.2C329 797.9 330.1 803.9 329.4 805.4C328.2 807.7 321.5 817.5 318.7 814.7C317.6 813.6 315.7 813.1 314.8 812.2C313.1 810.5 315.3 805.2 313.7 803.6C305 794.9 311.7 778.5 323.7 779Z" fill="#979E78"/>
<path d="M249.2 811C254.1 812.6 265.2 815.7 265.2 822C265.2 825.5 263 826.8 261.6 829.5C257.7 837.2 265.3 835 252 841.6C245.7 844.7 239.3 841.7 235.2 837.7C234.9 837.4 215.6 840.2 215.6 829.9C215.6 823.4 225.7 820.6 230.6 818.1C232.1 817.3 234.2 820.6 235.2 819.5C241 813.9 238 807.4 249.2 811Z" fill="#979E78"/>
<path d="M293.8 814.3C296.9 814.6 296.8 810 298.1 807.5C299.3 805.1 296.1 799.5 295.6 796.8C294.8 792.2 298.5 784.9 296.7 781.1C295.6 779 293.7 777 292.4 775.8C291.1 774.5 284.5 766.9 281.7 769.7C280.2 771.2 279.3 772.3 278.1 774.7C276.1 778.7 280.4 787.6 282 790.7C284.3 795.3 277.2 803 281.6 807.5C286.7 812.5 289.2 813.8 293.8 814.3Z" fill="#979E78"/>
<path d="M80.7 855.7C83.1 856.4 90.7 856 94.2 852.4C95.5 851.1 100.6 852.8 102.2 851.1C106.3 847 113.3 843.6 120 841.3C122.4 840.5 146.3 840.3 138.5 832.5C135.7 829.7 123.2 832.5 121 834.8C119.4 836.4 110.7 834.6 108.2 835.8C106 836.9 96.7 842 94.9 843.8C90.6 848.1 77.4 841.4 74.1 839.8C71 838.2 70.8 835.9 70.8 832.5C70.8 816.3 75.9 820.6 84.1 812.5C85 811.6 83.9 810.3 83.6 810C76.1 802.5 66.5 812.7 62.8 820C61.4 822.8 63.5 827.2 62 830C58.3 837.4 50.5 845.1 59 853.5C67.7 862.2 71.1 852.8 76.2 854.3L80.7 855.7Z" fill="#979E78"/>
<path d="M46.8 762.1C48.8 760.5 60.1 760.6 60.4 760.4C62 759.6 68.6 756.3 67.4 754C62.6 744.3 54.7 753 47.8 750.7C44.4 749.6 38.6 747.6 35.1 748.8C28.4 751 23.3 762.1 32.8 765.2C39.7 767.5 43.6 764.6 46.8 762.1Z" fill="#979E78"/>
<path d="M175 305C174.2 303.5 172.6 302.6 171.9 301.2C170.6 298.7 168.9 297.3 166.4 295.7C157.8 290 155.2 307.5 159.3 311.6C162.6 314.9 162.1 301.3 162.4 301C162.8 300.6 163.4 300.4 164.2 300.1C164.6 300 165.8 300.1 166 300.3C168.9 303.2 169.5 307.4 174.3 307.4C175.4 307.3 175.4 305.7 175 305Z" fill="#979E78"/>
<path d="M162.4 316.5C159.8 317.9 170.9 334 173.4 328.9C174.2 327.2 165.9 316.8 164.8 315.7C164.2 315 163.1 316.2 162.4 316.5Z" fill="#979E78"/>
<path d="M314.5 367.4C316.9 367 330.6 366.5 334.7 370.6C340.8 376.7 332.4 389.6 335 397.3C337.3 404.2 341.2 415.6 337.4 423.2C337 424 335.2 429.3 336.3 430.5C337.3 431.5 336.4 434.4 337.4 435.4C343.9 441.9 339.2 459.2 334.2 464.2C332.9 465.5 334.1 468.6 333.1 469.6C331.4 471.3 334.2 478 334.2 480.1C334.2 484.3 330.5 497.3 331.2 498.7C332.6 501.4 336.1 515.8 336.1 518.6C336.1 522.5 334.7 529.1 333.4 532.1C332.6 533.9 335.7 569.4 335.7 572.7C335.7 574.6 335.4 580.5 332.2 578.9C326 575.8 329.4 564.3 325.7 560.6C324 558.9 326.1 541.9 325.6 540.5C324.9 538.4 323.1 533.4 324.3 531.1C325.3 529.1 328 522.4 326.7 519.8C324.5 515.4 317.4 498.5 320.5 492.3C322.1 489.1 323.2 485.5 323.7 481.8C324.2 478 324.3 471.7 322.6 468.3C321.7 466.4 327.2 445 328.3 443C329 441.5 325.2 429.8 324.3 427.9C322.6 424.5 325.2 410.6 326.7 407.4C328.1 404.7 324.2 395.9 323.5 392.9C322.7 389.8 324.8 385.8 323.5 383.2C322.7 381.6 321.6 380.5 320.3 379.2C319.8 378.7 317.6 379.2 317.1 378.7C309.7 371.3 295.1 391.9 293.4 395.4C292.8 396.6 289.1 403.7 286.9 402.7C284.5 401.5 283.7 397.8 283.7 394.9C283.7 386.5 287.8 382.2 294.2 379C296.1 378.1 298.1 373.9 300.4 372.8C301.6 372.2 304.3 371.3 305.3 370.4C306.8 368.4 311.3 367.9 314.5 367.4Z" fill="#979E78"/>
<path d="M330.7 611.5C335 614.7 328.4 628.4 329 629C330.3 630.3 331.4 634.9 332 636.5C335.4 646.7 327.5 653.4 325.5 661.3C324.2 666.6 327.3 675.8 322.5 679.4C320.4 681 313.6 684 310.9 681.3C307.5 677.9 313.9 671.2 313.9 668.1C313.9 653.2 316.9 654.5 322.3 643.8C323.9 640.7 321.7 628.1 320.1 626.6C317.9 624.4 321.5 620.7 322.1 618C323.4 611.3 324.8 607 330.7 611.5Z" fill="#979E78"/>
<path d="M327.4 694.7C333.1 698.5 322.9 710.7 325.5 718.7C329.6 731.1 330.6 746 325 757.2C323.6 759.9 318.1 765.6 314.2 761.8C308.4 756 316.4 744.4 316.4 737C316.4 733 313.9 726.2 312.1 722.7C309.4 717.3 314.8 697.1 318 693.9C320.6 691.3 325.8 693.6 327.4 694.7Z" fill="#979E78"/>
<path d="M116.7 811.7C116.6 800.5 129.9 803.7 137.2 800.1C142.8 797.3 148.4 799.3 153.4 799.3C160.1 799.3 181.8 791.9 185.7 793.9C192 797.1 178.7 801.4 177.1 803.1C175.1 805.1 176.3 809.3 174.1 810.4C166.2 814.4 168.2 804.7 156 816.9C153.8 819.1 147.1 812.7 144.4 813.4C138.2 814.9 139.4 821.6 133.6 815.8C129.3 811.4 116.7 820.6 116.7 811.7Z" fill="#979E78"/>
<path d="M230.1 783.4C231.6 780.6 232.4 777.1 234.4 775C234.7 774.7 230.8 766.2 233.9 762.1C237.3 757.6 240.6 756.7 244.4 752.9C246.7 750.6 247.4 747.2 249 745.6C251.5 743.1 253.6 741.8 255.7 739.7C257.1 738.3 264.9 726.5 267.8 729.5C268.8 730.5 272 746 271 747C269.8 748.2 267.1 748.2 265.9 749.4C264.7 750.6 265.2 752.8 264.3 753.7C263.3 754.7 261.5 754.6 260.5 755.6C258.1 758 257.9 761.9 255.4 764.5C253.8 766.1 251.6 767.5 250.3 768.8C248.4 770.7 251.3 774.4 250 776.9C248.9 779 238.1 788.8 236 789.8C232.2 791.8 228.1 787.1 230.1 783.4Z" fill="#979E78"/>
<path d="M287.4 600.4C286.8 601.3 281.6 610.5 284.4 613.3C285.3 614.2 286.5 615.4 286.8 616.5C289.3 626.5 280 639.7 283 645.9C283.9 647.7 288.5 659.6 293 655.1C305.6 642.5 290.1 625.2 299.7 615.5C300.4 614.8 303.9 608.1 302.9 607.1C301.9 606.1 299.4 606.3 298.6 605.5C294.1 601 292.8 592.3 287.4 600.4Z" fill="#979E78"/>
<path d="M285.8 495.5C287.6 499.2 284.3 505.7 286.1 509.2C287.1 511.2 289.5 512.8 290.7 515.1C292.8 519.2 282.7 525.9 288 536.4C290 540.4 282.9 546 289.6 549.3C291.1 550 291.6 551.8 293.1 552.5C295.1 553.5 298.3 552.4 300.1 553C301 553.3 303.5 557.2 304.4 556.8C311 553.5 300 540.8 299 537.9C293.5 521.5 308.6 515.3 306.8 508.3C305.5 503.1 300.5 504.1 298.4 499.9C296.8 496.8 298.8 494.9 296 492.1C295.3 491.4 297.3 471 293.6 467.3C289.4 463.1 287.6 466.4 285 471.3C282.1 477 281.9 487.8 285.8 495.5Z" fill="#979E78"/>
<path d="M863.3 161.4H827.1Z" fill="black"/>
<path d="M863.3 161.4H827.1" stroke="url(#paint0_linear_2_7194)"/>
<path d="M858.6 231.4V265.8Z" fill="black"/>
<path d="M858.6 231.4V265.8" stroke="url(#paint1_linear_2_7194)"/>
<path d="M858.6 615V576.6Z" fill="black"/>
<path d="M858.6 615V576.6" stroke="url(#paint2_linear_2_7194)"/>
<path d="M863.4 682H827.4Z" fill="black"/>
<path d="M863.4 682H827.4" stroke="url(#paint3_linear_2_7194)"/>
<path d="M657.1 507.2V490Z" fill="black"/>
<path d="M657.1 507.2V490" stroke="url(#paint4_linear_2_7194)" stroke-width="10.6711"/>
<path d="M560 278.5H578.8Z" fill="black"/>
<path d="M560 278.5H578.8" stroke="url(#paint5_linear_2_7194)"/>
<path d="M576.4 191.9H585.7Z" fill="black"/>
<path d="M576.4 191.9H585.7" stroke="url(#paint6_linear_2_7194)"/>
<path d="M548.6 422H559.9Z" fill="black"/>
<path d="M548.6 422H559.9" stroke="url(#paint7_linear_2_7194)"/>
<path d="M574 575.8H585.5Z" fill="black"/>
<path d="M574 575.8H585.5" stroke="url(#paint8_linear_2_7194)"/>
<path d="M685.2 566.7H702Z" fill="black"/>
<path d="M685.2 566.7H702" stroke="url(#paint9_linear_2_7194)"/>
<path d="M863.4 415.9V428.5Z" fill="black"/>
<path d="M863.4 415.9V428.5" stroke="url(#paint10_linear_2_7194)"/>
<path d="M669.5 289.5H660.4Z" fill="black"/>
<path d="M669.5 289.5H660.4" stroke="url(#paint11_linear_2_7194)"/>
<path d="M669.8 552.8H660.7Z" fill="black"/>
<path d="M669.8 552.8H660.7" stroke="url(#paint12_linear_2_7194)"/>
<path d="M25 777.3L36 776.8" stroke="#70372A" stroke-width="3"/>
<path d="M47.8999 776.2L105 773.3C105 773.3 138.9 772.4 155.3 768.5C167.4 765.6 179.3 761.4 190 755.1C201.2 748.4 211.2 739.5 219.8 729.7C228.5 719.9 236.5 709.2 241.4 697.1C246.3 684.9 248.5 658.3 248.5 658.3L251.9 348.5C251.9 348.5 250.2 333.9 248 326.9C245.4 318.7 242 310.5 237.3 303.3C231.7 294.7 224.2 287.5 216.9 280.3C211.3 274.7 205.1 269.9 199.3 264.7C189.6 256 179.1 248 170.2 238.4C164.3 232 158.6 225.2 154.2 217.7C150.3 211.1 147.1 203.9 145 196.5C142.6 188.2 140.9 170.7 140.9 170.7L140.2 18.0996" stroke="#70372A" stroke-width="3" stroke-dasharray="21.92 11.96"/>
<path d="M140.2 12.0996L140.1 1.09961" stroke="#70372A" stroke-width="3"/>
<path d="M26 783.8L37 783.1" stroke="#70372A" stroke-width="3"/>
<path d="M49 782.2L105.6 778.4C105.6 778.4 140.1 777.3 156.8 773.4C169.4 770.5 182 766.3 193.3 759.8C205.2 752.9 216 743.8 225.2 733.6C234.7 723.1 243.5 711.4 248.8 698.3C253.9 685.7 256 658.2 256 658.2L259.5 348.2C259.5 348.2 258.3 333.5 256.3 326.4C253.9 318.1 250.5 310 246 302.7C240.8 294.2 233.9 286.8 227.1 279.6C221.6 273.8 215.2 268.8 209.2 263.4C199.4 254.6 189 246.6 179.8 237.3C173.8 231.1 167.8 224.8 163.1 217.5C158.9 210.9 155.5 203.7 153.1 196.3C150.4 188 148.2 170.5 148.2 170.5V18.0996" stroke="#70372A" stroke-width="3" stroke-dasharray="22.13 12.07"/>
<path d="M148.2 12.0996V1.09961" stroke="#70372A" stroke-width="3"/>
<path d="M75.6001 27.6L107.7 13.9L107.6 1.2L166.6 1V13.8L177.2 22.3L316.8 23.2L327.1 13.6V1.2L407.6 1V13.3L418.2 22.9H1016" stroke="black" stroke-miterlimit="10"/>
<path d="M1086.4 758.6L1049.7 769.9L1010.7 778.4L974 785.8L877.6 791.2L805.8 795.7L737.8 806.3L692.4 819.1L654 836.8L601.1 865.8L551.3 896.7L534.1 906.6L520.2 912.8L495 915.5L71.8 915.6" stroke="black" stroke-miterlimit="10"/>
<path d="M1114.8 758.6L1114.4 362.5C1114.4 362.5 1114.4 349.5 1112.7 343.3C1110.4 334.7 1106.5 326.4 1101.3 319.1C1089.8 303.1 1070.4 293.9 1058.6 278.1C1050.7 267.6 1045.3 255.4 1040.4 243.2C1034.8 229.3 1030.1 215 1027.8 200.2C1026.3 190.6 1027.1 180.8 1026.9 171.1C1025.9 121.7 1025.2 22.8999 1025.2 22.8999H984.2C984.2 22.8999 984.8 121.7 985.9 171.1C986.1 180.8 985.3 190.6 986.8 200.2C989.1 215 993.8 229.3 999.4 243.2C1004.3 255.4 1009.7 267.6 1017.6 278.1C1029.4 293.9 1048.8 303.1 1060.3 319.1C1065.5 326.3 1069.4 334.7 1071.7 343.3C1073.4 349.5 1073.4 362.5 1073.4 362.5L1073.8 758.6H1114.8Z" fill="#FF0000" fill-opacity="0.4" stroke="#FF0000" stroke-width="2" stroke-dasharray="20 10"/>
<path d="M84.9 915.6C84.9 915.6 83.4 872.7 83.3 851.2C83.3 840.4 84.5 829.6 83.9 818.8C83.6 813.2 83.1 807.5 81.6 802.1C80 796.2 76 791.2 74.5 785.3C73.2 780.4 72.9 775.2 72.6 770.1C71.9 758.5 74.1 746.9 72.9 735.3C71.7 723.7 68.4 712.4 65.5 701.1C61.2 684.7 54.1 669.1 50.3 652.5C49.3 648.1 48.5 643.7 48.3 639.2C47.8 629 48.8 618.9 49.6 608.7C50.6 597 49.8 584.7 54 573.6C55.5 569.7 57.9 566 61 563.3C64.4 560.2 69.6 559.7 73.2 556.9C76.8 554.2 80.3 550.9 82.5 547C87.2 538.9 88.8 529.2 90.7 519.9C93.1 508.2 94.1 496.2 94.8 484.2C95.6 470.8 94.9 457.3 95.1 443.9C95.4 428.6 96.9 413.3 96.4 398.1C95.9 383.5 93.7 369 92.2 354.5C88.7 319.8 83.6 285.2 81.1 250.4C79.1 221.4 78.2 192.4 78 163.3C77.7 118.1 81 27.6997 81 27.6997H39.5C39.5 27.6997 36.2 118.1 36.5 163.3C36.7 192.3 37.5 221.4 39.6 250.4C42.1 285.2 47.2 319.8 50.7 354.5C52.2 369 54.4 383.5 54.9 398.1C55.4 413.4 53.8 428.6 53.6 443.9C53.4 457.3 54.1 470.8 53.3 484.2C52.6 496.2 51.6 508.2 49.2 519.9C47.3 529.1 45.7 538.8 41 547C38.7 550.9 35.3 554.1 31.7 556.9C28 559.7 22.9 560.3 19.5 563.3C16.4 566.1 13.9 569.7 12.5 573.6C8.29999 584.6 9.09999 596.9 8.09999 608.7C7.19999 618.8 6.19999 629 6.79999 639.2C6.99999 643.7 7.79999 648.1 8.79999 652.5C12.6 669 19.7 684.7 24 701.1C27 712.4 30.3 723.7 31.4 735.3C32.6 746.8 30.4 758.5 31.1 770.1C31.4 775.2 31.7 780.4 33 785.3C34.6 791.2 38.5 796.3 40.1 802.1C41.6 807.5 42.1 813.2 42.4 818.8C43 829.6 41.8 840.4 41.8 851.2C41.9 872.7 43.4 915.6 43.4 915.6H84.9Z" fill="#FF0000" fill-opacity="0.4" stroke="#FF0000" stroke-width="2" stroke-dasharray="20 10"/>
<path d="M81.5 28.7998L87.7 28.8998V34.9998L81.5 34.8998V28.7998Z" fill="#1A2632"/>
<path d="M101.2 28.7998H107.3V35.1998H101.2V28.7998Z" fill="#1A2632"/>
<path d="M81.4999 165.4L87.6999 165.5L87.5999 171.7L81.3999 171.6L81.4999 165.4Z" fill="#1A2632"/>
<path d="M101.2 165.5H107.3V171.9H101.2V165.5Z" fill="#1A2632"/>
<path d="M94.8 350.9H100.9V356.9H94.8V350.9Z" fill="#1A2632"/>
<path d="M114.5 350.8H120.2V356.8H114.5V350.8Z" fill="#1A2632"/>
<path d="M84.5999 536.3H90.3999V542.1H84.5999V536.3Z" fill="#1A2632"/>
<path d="M104.2 536.5H110.1V542.5H104.2V536.5Z" fill="#1A2632"/>
<path d="M74.3999 721.8H80.4999V727.7H74.3999V721.8Z" fill="#1A2632"/>
<path d="M93.8999 721.8H100.1V727.8H93.8999V721.8Z" fill="#1A2632"/>
<path d="M74.2 821.3H80.5V827.5H74.2V821.3Z" fill="#1A2632"/>
<path d="M93.8 821.3H100.1V827.5H93.8V821.3Z" fill="#1A2632"/>
<path d="M971.7 95.8999H977.8V102.1H971.7V95.8999Z" fill="#1A2632"/>
<path d="M911.8 240.8H917.9V247H911.8V240.8Z" fill="#1A2632"/>
<path d="M933.3 379.7H939.4V385.9H933.3V379.7Z" fill="#1A2632"/>
<path d="M936 511.6H942.1V517.8H936V511.6Z" fill="#1A2632"/>
<path d="M934.2 641H940.3V647.2H934.2V641Z" fill="#1A2632"/>
<path d="M943.3 774.7H949.4V780.9H943.3V774.7Z" fill="#1A2632"/>
<path d="M930.1 240.9L935.7 238.6L938.1 244.3L932.5 246.6L930.1 240.9Z" fill="#1A2632"/>
<path d="M1004.8 322.7L1008.9 318.2L1013.4 322.4L1009.3 326.9L1004.8 322.7Z" fill="#1A2632"/>
<path d="M1084.6 366.8L1086.6 361.1L1092.4 363.1L1090.4 368.8L1084.6 366.8Z" fill="#1A2632"/>
<path d="M77.2 916.2V823.9L77 724.7L97.3 353.9L84.5 168.1V24.6997" stroke="#FFCE00" stroke-width="2" stroke-miterlimit="10" stroke-dasharray="6 6"/>
<path d="M97 915.6V823.9L96.8 724.8L117.1 353.8L104.1 168.2V15.8999" stroke="#FFCE00" stroke-width="2" stroke-miterlimit="10" stroke-dasharray="6 6"/>
<path d="M918.5 97.6997L974.9 98.5997H1022.5" stroke="#FFCE00" stroke-width="2" stroke-miterlimit="10" stroke-dasharray="6 6"/>
<path d="M905.9 194.2L915.4 253.1L937.4 391.4L939.9 523.8L937.9 652.9L947.2 787.1" stroke="#FFCE00" stroke-width="2" stroke-miterlimit="10" stroke-dasharray="6 6"/>
<path d="M917.4 184.7L934 242.6L1009.8 323.3L1087.8 365.1L1128.1 373.8" stroke="#FFCE00" stroke-width="2" stroke-miterlimit="10" stroke-dasharray="6 6"/>
<path d="M346.4 326.5L345 439.3M332.4 915.1L332.9 892.6L339.4 886.1L339.9 843.5M343.3 576.2L344.1 515.6M344.2 507.5L344.8 456.9L342.7 448.4" stroke="#6E7982" stroke-width="2" stroke-miterlimit="10"/>
<path d="M346.2 362.7H350.8M359.4 362.7H373.5M381.6 362.7H385.4" stroke="#6E7982" stroke-width="2" stroke-miterlimit="10"/>
<path d="M343.8 544.7H348.6M356.5 544.7H371M379.4 544.7H384.3" stroke="#6E7982" stroke-width="2" stroke-miterlimit="10"/>
<path d="M211.3 347.1H246M263.9 347.1H281.7" stroke="#6E7982" stroke-width="2" stroke-miterlimit="10"/>
<path d="M474.1 105.1H494.5V88.1999H546.3M546.3 83.6999V51.0999M546.3 36.8999V23.8999" stroke="#6E7982" stroke-width="2" stroke-miterlimit="10"/>
<path d="M706.8 113.7L706.7 96.6998L709.3 91.8998H747.2L762.7 107.4H817.1V62.6998L822.3 60.3998L833.2 48.2998H912.3L932 67.8998V74.8998M932.1 82.8998V131.6M932 163.8V214.2H900.2L888.5 225.9V286.7L892.1 293.7V310.3M892 348.5V353.9L888.4 358.5V374.4M888.5 424.5V430L899 435.5V462.1M899 476.3V487.6H893.8L888.5 491.2V495.7M888.5 529.2L891.5 534.4H907.4M919.9 534.4H932.1V551.2M932.1 561.1V616.7M932.1 622.6V633.1H893.7" stroke="#6E7982" stroke-width="2" stroke-miterlimit="10"/>
<path d="M991.6 622L1015.4 632.6" stroke="#6E7982" stroke-width="2" stroke-miterlimit="10"/>
<path d="M1050.2 768.2V759.4M1050.2 746.4V711.8M1050.2 700.7V687.6L1035.3 676.5" stroke="#6E7982" stroke-width="2" stroke-miterlimit="10"/>
<path d="M610.6 737.3H663.7V769.8L652.1 775.2M647.8 777.2L610 794.9H573.3V771.3M573.4 766.8V737.3H599.3" stroke="#6E7982" stroke-width="2" stroke-miterlimit="10"/>
<path d="M494.5 88.2V83" stroke="#6E7982" stroke-width="2" stroke-miterlimit="10"/>
<path d="M488.9 738.2H472V753.6C471 754.4 469.9 755.1 468.9 755.9V800C469.9 800.9 471 801.8 472 802.8V812.1H508.7M518.8 812.1H544V802.8C545 801.9 546.1 801 547.1 800V755.8C546.1 755 545 754.3 544 753.5V738.1H498.8" stroke="#6E7982" stroke-width="2" stroke-miterlimit="10"/>
<path d="M371.8 791.3C386.3 765.5 414.4 760.7 433.3 740.2" stroke="#848383" stroke-width="10" stroke-miterlimit="10"/>
<path d="M453.7 715.6C453.9 728.2 439.6 741.8 427 741.7C414.7 741.5 402.3 729.7 402.5 715.6C402.7 702.5 412.8 690.8 426.6 690.7C441.1 690.6 453.5 703.4 453.7 715.6Z" stroke="#848383" stroke-width="10" stroke-miterlimit="10"/>
<path d="M375.8 611.6C376 623.1 388.4 637.9 402.6 638.2C415.5 638.5 433 625.5 434.1 615.5" stroke="#848383" stroke-width="10" stroke-miterlimit="10"/>
<path d="M433.8 690.2C435.1 317.9 434.8 151 434.7 144.7C434.6 138.4 435.4 134.8 437.3 132.1C439.2 129.4 441.7 126.8 445.3 124.7C448.9 122.6 460.2 121.3 465 121.1C469.8 120.8 478.6 120 533.1 119.9" stroke="#848383" stroke-width="10" stroke-miterlimit="10"/>
<path d="M738.5 703.9V725.3" stroke="#848383" stroke-width="10" stroke-miterlimit="10"/>
<path d="M939.5 725.4L452.5 724.6" stroke="#848383" stroke-width="10" stroke-miterlimit="10"/>
<path d="M695.9 722.2C695.9 729.1 696.1 733.9 696.2 739.4C696.4 747.9 696.4 753.3 696.4 760.3C696.1 765.5 697.1 771.3 691.3 774.8C663 790.9 628.9 805.2 599.8 820.3C590.8 824.7 577.8 832.4 569.5 834.8C562 837 555.1 836.6 547.3 836.6C527.2 836.7 509 836.8 487.2 836.8C468.5 836.8 444.6 838.6 438.3 833.7C431.8 828.2 429 820.9 428 811C427.1 797.7 427.5 787.2 427.5 773.4C427.5 762.4 428.5 748.9 428.3 740.4" stroke="#848383" stroke-width="10" stroke-miterlimit="10"/>
<path d="M535.7 120.9C535.7 120.9 535.6 234 535.3 262C535.3 266.4 535.6 269.6 534.1 272.9C532.7 276 529.8 277.9 528.5 280.8C527.3 283.5 526.8 287.5 526.8 290.6C526.9 334.1 526.1 370.7 525.9 410.8C525.7 455.6 525.6 500.5 525.9 545.1C525.9 548.5 525.8 554.3 526.6 557.7C527.5 561.7 530.6 565.3 532.6 567.6C536.1 571.6 535.3 575 535.3 580.4C535.4 626.7 535.1 721 535.1 721" stroke="#848383" stroke-width="10" stroke-miterlimit="10"/>
<path d="M532.5 119.8C642 120 743.4 119.3 853.2 119.3" stroke="#848383" stroke-width="10" stroke-miterlimit="10"/>
<path d="M939.5 725.4C939.5 725.4 940 709 939.5 694.3C939 679.5 924.6 668.6 908.6 666.3C895.6 664.4 864.4 664.8 864.4 664.8" stroke="#848383" stroke-width="10" stroke-miterlimit="10"/>
<path d="M878 666C877.8 617.4 877.8 441.9 876.7 144.3C876.1 135 870.6 119.4 853.1 119.4" stroke="#848383" stroke-width="10" stroke-miterlimit="10"/>
<path d="M1002.5 787.7C1002.5 787.7 1000.7 768.1 990.9 747C987.9 741 982.4 734.3 976.6 730.9C967.3 725.4 939.5 725.3 939.5 725.3C939.5 725.3 910.1 725.3 893.6 724.3C881.8 721.2 878.4 710.9 878.2 701.8C877.9 688.8 878 672.4 878 666.3" stroke="#848383" stroke-width="10" stroke-miterlimit="10"/>
<path d="M513.9 659.7H532.9" stroke="#848383" stroke-width="10" stroke-miterlimit="10"/>
<path d="M514.2 621.1H532.4" stroke="#848383" stroke-width="10" stroke-miterlimit="10"/>
<path d="M512.8 550.9H524" stroke="#848383" stroke-width="10" stroke-miterlimit="10"/>
<path d="M512.4 512.4H524.4" stroke="#848383" stroke-width="10" stroke-miterlimit="10"/>
<path d="M512.4 441.5H524.4" stroke="#848383" stroke-width="10" stroke-miterlimit="10"/>
<path d="M449.6 512.1H436.3" stroke="#848383" stroke-width="10" stroke-miterlimit="10"/>
<path d="M449.6 550.6H436.2" stroke="#848383" stroke-width="10" stroke-miterlimit="10"/>
<path d="M450.9 402.9H436.2" stroke="#848383" stroke-width="10" stroke-miterlimit="10"/>
<path d="M512.6 332.4H524.6" stroke="#848383" stroke-width="10" stroke-miterlimit="10"/>
<path d="M513.1 293.4H524.7" stroke="#848383" stroke-width="10" stroke-miterlimit="10"/>
<path d="M451.6 293H435.8" stroke="#848383" stroke-width="10" stroke-miterlimit="10"/>
<path d="M451.2 330.9H435.4" stroke="#848383" stroke-width="10" stroke-miterlimit="10"/>
<path d="M514.2 224.1H532.7" stroke="#848383" stroke-width="10" stroke-miterlimit="10"/>
<path d="M434.4 146.2H534.5" stroke="#848383" stroke-width="10" stroke-miterlimit="10"/>
<path d="M631.7 120.9V144.9" stroke="#848383" stroke-width="10" stroke-miterlimit="10"/>
<path d="M614.4 721V689.9" stroke="#848383" stroke-width="10" stroke-miterlimit="10"/>
<path d="M604.8 722.6V738.4" stroke="#848383" stroke-width="10" stroke-miterlimit="10"/>
<path d="M493.8 726.7V740.8" stroke="#848383" stroke-width="10" stroke-miterlimit="10"/>
<path d="M525.2 402.1H513.2" stroke="#848383" stroke-width="10" stroke-miterlimit="10"/>
<path d="M864.6 175.3H879.8" stroke="#848383" stroke-width="10" stroke-miterlimit="10"/>
<path d="M536.8 235.7H555.3" stroke="#848383" stroke-width="10" stroke-miterlimit="10"/>
<path d="M528.1 376.3H546.6" stroke="#848383" stroke-width="10" stroke-miterlimit="10"/>
<path d="M528.4 466.2H546.9" stroke="#848383" stroke-width="10" stroke-miterlimit="10"/>
<path d="M536.2 621.1H554.7" stroke="#848383" stroke-width="10" stroke-miterlimit="10"/>
<path d="M846 108.2V117.1" stroke="#848383" stroke-width="10" stroke-miterlimit="10"/>
<path d="M903.5 80.8999L903.7 159.4" stroke="#848383" stroke-width="10" stroke-miterlimit="10"/>
<path d="M1028 79.0999L875 78.8999" stroke="#848383" stroke-width="10" stroke-miterlimit="10"/>
<path d="M902.5 117.2C885.2 117 869.8 116.9 868.6 123.3" stroke="#848383" stroke-width="10" stroke-miterlimit="10"/>
<path d="M1130.1 751C1101.3 757.1 1076.2 768.2 1047.6 775.3C1023.7 781.3 999.6 786.9 975.3 790.4C954.2 793.5 932.8 794.2 911.5 795.7C870.3 798.6 828.9 798.1 787.9 802.9C765.4 805.5 743.3 809.4 721.3 815.2C703.1 820 685.9 827 668.8 834.8C633.9 850.6 601.7 870.8 569.1 891.2C540.3 909.2 523 915.6 523 915.6" stroke="#848383" stroke-width="10" stroke-miterlimit="10"/>
<path d="M1117.3 757.3C1117.3 757.3 1119.8 497.2 1120.6 368.9C1120.7 356.7 1119.5 344.3 1116.2 332.6C1113.2 322.2 1106 313.4 1099 305.1C1091.5 296.2 1080.8 290.6 1073.1 281.9C1067.1 275.2 1061.7 267.8 1057.3 259.9C1049 244.9 1042.5 229.1 1037.5 212.5C1032.3 195.2 1030.9 176.8 1029.2 158.8C1027.4 138.7 1027.5 118.4 1027.5 98.1998C1027.5 63.1998 1026.8 22.7998 1026.8 22.7998" stroke="#848383" stroke-width="10" stroke-miterlimit="10"/>
<path d="M478.5 39.0996C451.6 53.7996 439.1 63.1996 420.8 84.1996C397.7 112.2 379.3 146.9 379 196" stroke="#848383" stroke-width="10" stroke-miterlimit="10"/>
<path d="M348.8 915.6C348.9 762.2 351.8 616.7 353.6 462.3C354.5 385.1 356.8 265.4 357.3 188.3C357.9 111.2 356.7 76.4998 356.8 -0.200195" stroke="#848383" stroke-width="10" stroke-miterlimit="10"/>
<path d="M259.2 38.7998C287.4 54.9998 291.8 58.7998 314.5 81.3998C338.6 110.1 358.7 146 357.4 195.9" stroke="#848383" stroke-width="10" stroke-miterlimit="10"/>
<path d="M371.1 915.6C371.1 762.2 374.8 579.9 376.7 425.4C377.6 348.2 378.4 270.9 379 193.8C379.6 116.7 378.9 76.7 378.9 0" stroke="#848383" stroke-width="10" stroke-miterlimit="10"/>
<path d="M771.2 115.8L747.2 91.8999L709 91.9999L706.8 96.4999L706.9 115.9" fill="#F7E8D7"/>
<path d="M823.9 83.1997V109.4H864.7V83.1997H823.9Z" fill="#F7E8D7"/>
<path d="M827.1 265.8V155.8H864.9V265.8H827.1Z" fill="#F7E8D7"/>
<path d="M910.5 108V88.3999H926.8V108H910.5Z" fill="#F7E8D7"/>
<path d="M907.2 146.6V120.6H923.6V146.6H907.2Z" fill="#F7E8D7"/>
<path d="M901.1 170.7V160H922.3V170.7H901.1Z" fill="#F7E8D7"/>
<path d="M900.7 190.2V179.4H922.4V190.2H900.7Z" fill="#F7E8D7"/>
<path d="M574.2 738.2V794.2H609.8L662.8 769.4L663 738.2H574.2Z" fill="#F7E8D7"/>
<path d="M448 159V253.9H515.5V159H448ZM477.9 172.4C480.5 172.5 483.2 173 485.7 173.6C488.7 174.3 491.8 175 494.3 176.8C495.6 177.8 497 179.1 497.3 180.8C497.7 182.5 496.8 184.4 496.2 186C495.3 188.3 493.3 190 492.4 192.3C491.6 194.4 491.2 196.7 491.1 199C491 201.4 491.2 203.9 491.7 206.3C492.1 208.2 493.3 209.9 493.8 211.9C494.2 213.5 494.9 215.2 494.4 216.8C493.9 218.4 492.4 219.4 491.1 220.4C489.2 221.9 486.5 222.4 484.6 223.9C482.9 225.2 481.6 227 480.2 228.7C478.5 230.7 477.4 233.4 475.3 235C473.2 236.6 470.5 238.5 467.8 238C465.1 237.5 462.8 234.9 461.9 232.3C461 229.6 462 226.5 463.3 224.1C465.1 220.9 469.2 219.7 471.4 216.8C473.2 214.3 474.5 211.4 475.2 208.4C475.8 205.6 475.9 202.5 475.4 199.7C474.8 196.5 473.5 193.3 471.8 190.5C470.3 188.2 467.6 186.8 466.1 184.5C465.2 183.1 464 181.4 464.2 179.7C464.4 178.1 465.9 176.7 467.2 175.7C469.5 174 472.4 172.9 475.3 172.5C476.2 172.5 477.1 172.4 477.9 172.4Z" fill="#F7E8D7"/>
<path d="M446.4 364.6V261.4H515V364.5H446.4V364.6Z" fill="#F7E8D7"/>
<path d="M446.7 425.7V372H515.5V425.7H446.7Z" fill="#F7E8D7"/>
<path d="M446.4 472.3V434.3H515.4V472.3H446.4Z" fill="#F7E8D7"/>
<path d="M446.3 583.5V479.4H515.5V583.5H446.3Z" fill="#F7E8D7"/>
<path d="M446.1 590.9V666.3L489.9 710.4H515.4V590.9H446.1Z" fill="#F7E8D7"/>
<path d="M472.8 738.9V753.9L469.7 756.2V799.7L472.8 802.5V811.4H543.3V802.5L546.4 799.7V756.2L543.3 753.9V738.9H472.8Z" fill="#F7E8D7"/>
<path d="M881.3 430.6V490H888.8L893.5 486.8H898.3V436L888.1 430.6H881.3Z" fill="#F7E8D7"/>
<path d="M899.4 632.099V535.5H931.1V632.099H899.4Z" fill="#F7E8D7"/>
<path d="M827.2 688.4V578.4H864.9V688.4H827.2Z" fill="#F7E8D7"/>
<path d="M768.8 138.6V123.1H716.6L716.7 138.6" fill="#F7E8D7"/>
<path d="M200.7 653.8L208.6 632.9L216.3 635.8L214.1 641.6L216.7 642.6L214.2 649.2L216 649.9L212.8 658.5L200.7 653.8Z" fill="#F7E8D7"/>
<path d="M713.9 138.5L714.2 286.2H654.9V297.299H678.6V307.2H643.7V264.5H666.5V149.2H595.9V208.7L589.5 208.8L589.6 198.4L585.7 198.3V186.1L576.1 177.4H552.3V302.4H568.8V356.7H544.2V394.4H615.4V449.6H544.2V487.7H610.5L610.2 591.599H574.3V582.099H585.4V569.7H552.1V644H586.2V692.7L639.5 692.9V669.299H686.7V572.099H711.6V561.7H686.7H680.1V558.799H654.3V546.7H677.1V547.7H655.4V557.7L716.2 557.9V545.5H717.2V557.9H717.5V705.7H769.3V676.4H794.8V657.7H827.1V619.099H770.6V558H851.2V557.799H851.6V525.099H869.3V466H851.6V447.1H869.3V396.4H851.6V378.2H869.3V319.2H851.6V283.6H800.3V526H717.1V537.799H716V531.299H693.7V511.1H688.4V489.5H641.3V475.299L646.4 475.1L646.3 462.4H641.4V447H695.6V397H641.4V333.9L687.2 333.799V326.7H748V285.7H772.4V224.9H827V186.7H795.1V168.4H770.3L770.1 138.6L713.9 138.5ZM589.7 271.4H623.6V284.6H589.7V271.4Z" fill="#C6C2C2"/>
<path d="M538.5 407.399H545.6V414.199H560V429.399H545.5V436.599H538.8L538.5 407.399Z" fill="#C6C2C2"/>
<path d="M897.7 189.3V195.7H894.7V189.3H897.7Z" fill="#273744"/>
<path d="M897.7 181.8V188.8H894.8V181.8H897.7Z" fill="#273744"/>
<path d="M930 167.5V173.3H925.3V167.5H930Z" fill="#273744"/>
<path d="M873.7 84.9995V87.9995H865V106.4H892.9V90.1995H893.5V84.9995H873.7Z" fill="#273744"/>
<path d="M930 157V162.8H925.4V157H930Z" fill="#273744"/>
<path d="M925.2 147.8V154.1H919.2V147.8H925.2Z" fill="#273744"/>
<path d="M914.2 147.8V154H908.2V147.8H914.2Z" fill="#273744"/>
<path d="M926.7 68.0996V74.3996H920.4V68.0996H926.7Z" fill="#273744"/>
<path d="M917.1 68.0996V74.3996H910.6V68.0996H917.1Z" fill="#273744"/>
<path d="M446.1 442.1L453.5 434.7L458.2 439.5L450.8 446.9L446.1 442.1Z" fill="#273744"/>
<path d="M492.6 250.2H506.5V241H492.6V250.2Z" fill="#273744"/>
<path d="M711 527.8H700.5V531.5H711V527.8Z" fill="#273744"/>
<path d="M1007.7 769.4L1018 766.5L1016.5 761.3L1006.2 764.2L1007.7 769.4Z" fill="#273744"/>
<path d="M1008.6 771.5L1018.7 768.6L1020.2 774L1010.1 776.9L1008.6 771.5Z" fill="#273744"/>
<path d="M151.9 70.1997V84.0997H161.1V70.1997H151.9Z" fill="#273744"/>
<path d="M422.8 714.7V717.9L429.1 719.2V713.5L422.8 714.7Z" fill="#273744"/>
<path d="M605.1 79.9997L606.7 74.8997L600.2 74.1997L599.3 77.1997L605.1 79.9997Z" fill="#273744"/>
<path d="M405.4 473.9V477.1L411.7 478.4V472.7L405.4 473.9Z" fill="#273744"/>
<path d="M186.7 635.7L191.4 622.6L201.8 626.3L197.1 639.4L186.7 635.7Z" fill="#273744"/>
<path d="M109.9 582.6H116.7V588.3H109.9V582.6Z" fill="#273744"/>
<path d="M114.1 568.3L121.9 569.2L121.1 576.3L113.3 575.4L114.1 568.3Z" fill="#273744"/>
<path d="M140.5 565.8L149.6 566.1L149.5 570.5L140.4 570.2L140.5 565.8Z" fill="#273744"/>
<path d="M183.9 643.8L180.3 653.7L193.4 658.4L197 648.5L183.9 643.8Z" fill="#273744"/>
<path d="M150.6 636.899L144.5 646.099L149.3 649.299L155.4 640.099L150.6 636.899Z" fill="#273744"/>
<path d="M140.6 652.5L142.9 663.3L148.5 662.1L146.2 651.3L140.6 652.5Z" fill="#273744"/>
<path d="M127.3 667.8H138.3V662.1H127.3V667.8Z" fill="#273744"/>
<path d="M127.5 647.099L130.7 638.5L136.5 640.599L133.3 649.2L127.5 647.099Z" fill="#273744"/>
<path d="M122.6 651.7V660.8H126.6V651.7H122.6Z" fill="#273744"/>
<path d="M789.7 732.3H800.4V738.1H789.7V732.3Z" fill="#273744"/>
<path d="M788.5 744H795.8V750.799H788.5V744Z" fill="#273744"/>
<path d="M782.3 751H788.4V756.299H782.3V751Z" fill="#273744"/>
<path d="M774.5 765.5H787.1V768.2H774.5V765.5Z" fill="#273744"/>
<path d="M774.2 756.599H777.1V742.899H774.2V756.599Z" fill="#273744"/>
<path d="M801.2 744.7L801.6 757.5L804.6 757.4L804.2 744.6L801.2 744.7Z" fill="#273744"/>
<path d="M789.8 708.7H800.4V714.4H789.8V708.7Z" fill="#273744"/>
<path d="M772.2 708.1L770.6 718.3L773.6 718.8L775.2 708.6L772.2 708.1Z" fill="#273744"/>
<path d="M1001.3 425.799L1004.9 421.5L1013 428.5L1009.3 432.7L1001.3 425.799Z" fill="#273744"/>
<path d="M1014.9 425.8L1012.1 430.1L1017.6 433.7L1020.4 429.4L1014.9 425.8Z" fill="#273744"/>
<path d="M1026.5 433.9L1030.6 431.5L1028.3 427.6L1024.2 430L1026.5 433.9Z" fill="#273744"/>
<path d="M1017.5 442.599L1023.7 440.399L1025.6 445.699L1019.4 447.899L1017.5 442.599Z" fill="#273744"/>
<path d="M473.8 104.199V96.3994H477.2V104.199H473.8Z" fill="#273744"/>
<path d="M352.8 400.999V389.899H346.9V400.999H352.8Z" fill="#273744"/>
<path d="M352.8 416.8V405.7H346.9V416.8H352.8Z" fill="#273744"/>
<path d="M352 486.1V475H346.1V486.1H352Z" fill="#273744"/>
<path d="M361.7 484.9V473.8H355.8V484.9H361.7Z" fill="#273744"/>
<path d="M382.9 501.9V490.8H377V501.9H382.9Z" fill="#273744"/>
<path d="M369.3 403.6V394.5H374.3V403.6H369.3Z" fill="#273744"/>
<path d="M368 483.1V474H373V483.1H368Z" fill="#273744"/>
<path d="M932.7 610.8H940.2V614.7H932.7V610.8Z" fill="#273744"/>
<path d="M495 87.6995V82.9995H498.9V87.6995H495Z" fill="#273744"/>
</g>
<defs>
<linearGradient id="paint0_linear_2_7194" x1="827.396" y1="161.4" x2="865.867" y2="161.4" gradientUnits="userSpaceOnUse">
<stop stop-color="white" stop-opacity="0.5"/>
<stop offset="1" stop-color="white" stop-opacity="0"/>
</linearGradient>
<linearGradient id="paint1_linear_2_7194" x1="858.6" y1="267.055" x2="858.6" y2="229.669" gradientUnits="userSpaceOnUse">
<stop stop-color="white" stop-opacity="0.5"/>
<stop offset="1" stop-color="white" stop-opacity="0"/>
</linearGradient>
<linearGradient id="paint2_linear_2_7194" x1="858.6" y1="575.08" x2="858.6" y2="615.834" gradientUnits="userSpaceOnUse">
<stop stop-color="white" stop-opacity="0.5"/>
<stop offset="1" stop-color="white" stop-opacity="0"/>
</linearGradient>
<linearGradient id="paint3_linear_2_7194" x1="826.428" y1="682" x2="864.823" y2="682" gradientUnits="userSpaceOnUse">
<stop stop-color="white" stop-opacity="0.5"/>
<stop offset="1" stop-color="white" stop-opacity="0"/>
</linearGradient>
<linearGradient id="paint4_linear_2_7194" x1="657.1" y1="507.307" x2="657.1" y2="489.816" gradientUnits="userSpaceOnUse">
<stop stop-color="white" stop-opacity="0"/>
<stop offset="1" stop-color="white" stop-opacity="0.5"/>
</linearGradient>
<linearGradient id="paint5_linear_2_7194" x1="559.838" y1="278.5" x2="578.791" y2="278.5" gradientUnits="userSpaceOnUse">
<stop stop-color="white" stop-opacity="0"/>
<stop offset="1" stop-color="white" stop-opacity="0.5"/>
</linearGradient>
<linearGradient id="paint6_linear_2_7194" x1="577.137" y1="191.9" x2="585.267" y2="191.9" gradientUnits="userSpaceOnUse">
<stop stop-color="white" stop-opacity="0"/>
<stop offset="1" stop-color="white" stop-opacity="0.5"/>
</linearGradient>
<linearGradient id="paint7_linear_2_7194" x1="549.201" y1="422" x2="559.91" y2="422" gradientUnits="userSpaceOnUse">
<stop stop-color="white" stop-opacity="0"/>
<stop offset="1" stop-color="white" stop-opacity="0.5"/>
</linearGradient>
<linearGradient id="paint8_linear_2_7194" x1="574.347" y1="575.8" x2="585.572" y2="575.8" gradientUnits="userSpaceOnUse">
<stop stop-color="white" stop-opacity="0"/>
<stop offset="1" stop-color="white" stop-opacity="0.5"/>
</linearGradient>
<linearGradient id="paint9_linear_2_7194" x1="685.304" y1="566.7" x2="702.332" y2="566.7" gradientUnits="userSpaceOnUse">
<stop stop-color="white" stop-opacity="0"/>
<stop offset="1" stop-color="white" stop-opacity="0.5"/>
</linearGradient>
<linearGradient id="paint10_linear_2_7194" x1="863.4" y1="428.516" x2="863.4" y2="415.776" gradientUnits="userSpaceOnUse">
<stop stop-color="white" stop-opacity="0.5"/>
<stop offset="1" stop-color="white" stop-opacity="0"/>
</linearGradient>
<linearGradient id="paint11_linear_2_7194" x1="661.148" y1="289.5" x2="668.931" y2="289.5" gradientUnits="userSpaceOnUse">
<stop stop-color="white" stop-opacity="0.5"/>
<stop offset="1" stop-color="white" stop-opacity="0"/>
</linearGradient>
<linearGradient id="paint12_linear_2_7194" x1="660.571" y1="552.8" x2="669.358" y2="552.8" gradientUnits="userSpaceOnUse">
<stop stop-color="white" stop-opacity="0.5"/>
<stop offset="1" stop-color="white" stop-opacity="0"/>
</linearGradient>
<clipPath id="clip0_2_7194">
<rect width="1127.7" height="947" fill="white"/>
</clipPath>
</defs>
</svg>
