<svg width="1128" height="947" viewBox="0 0 1128 947" fill="none" xmlns="http://www.w3.org/2000/svg">
<path d="M683.8 138.5V149.4H552.4V286.1H544.4V558.6H552.3V692.7H683.8V705.5H827.2V578.4H865L869.8 557.8V285L865 265.8H827.2V138.5H683.8Z" fill="#373549"/>
<path d="M852.4 558.4H797.6V692.9H685.1V704.4H826V688.1H827.3V676.3H826V577.2H852.5V578.5H864V577.2L868.5 557.2V448.6H852.3L852.4 558.4Z" fill="#F4D2D0"/>
<path d="M685.1 149.8H797.7V286H852.4V396H868.6V285.1L864.1 267V265.7H852.6V267H826V168H827.3V156H826V139.8H685.1V149.8Z" fill="#F4D2D0"/>
<path d="M782 149.8V151.1H758.9V157.1H757.2V151.1H729.3V156.1H727.6V151.1H717V151.6H715.3V151H711.1V159.4H709.4V151H681.7V158.3H680V151H662.8V152.3H661.1V151H639.8V154.4H638.1V151H624.2V157.4H622.5V151H603V161.7H601.3V151H584.6V151.7H582.9V151H568.7V151.7H567V151H554.5V172.6H564.4V159H566.1V159.8H575.1V159H576.8V161.5H566.1V174.3H554.5V176.5H576.5V181L578.1 185H589.7V186.7H576.9L575 181.9V202.2L576.9 197.8H589.7V199.5H578.1L576.5 203V207H554.1V239.4H583.9V241.1H555.4V251.5H557.9V249H559.6V253.2H555.4V256.2H561.8V246.2H563.5V247H574.3V248.7H572.7V249.4H571V248.7H563.5V262.3H571V251.5H580.1V263.1H588.8V248.7H579.2V247H588.8V241.1H588V239.4H590.6V254.9H595.8V258.4H594.1V256.6H590.6V264.9H580.2V271.7H594.1V263.3H595.8V273.4H587V276.8H560.7V280.9H587V283.7H604.2V287.6H566.6V295.5L557.5 300.5V310.2H555.8V299.5L564.9 294.5V287.6H546.4V372.6H555.8V371.7H557.6L557.5 387.3H555.8V374.4H550.5V380.6H547.8V378.9H548.8V374.4H546.4V399.8H555.8V391.9H557.5V399.8H559.7V413.7H562.5V415.4H549.5V413.7H557.9V401.5H546.3V407.1V407.2H539.6V410.6L536.9 415.5V430.5L539.6 434.2V437.9H545.1L549.1 429.6H562.6V431.3H550.2L546.4 439.1V442.8H557.5V451.9H555.8V444.5H546.4V470.2H555.8V456.4H557.5V487.5H555.8V471.9H546.4V514H555.8V501.1H557.5V524.4H555.8V515.7H546.4V557H564.9V550.4L555.8 544.7V538.4H557.5V543.8L566.6 549.5V557.1H598.4V560.8H574.1V568H590.6V569.7H573.8V581.6H590.6V583.3H574.1V588.7H572.4V588.1H563.4V595.7H561V594H561.4V588.1H553.8V594H559.2V595.7H553.8V597.5H555.7V599.2H553.8V603.1H557.1V598.4H558.8V603.1H562.9V599.2H561V597.5H564.6V606.3H562.9V604.8H553.8V612.3H562.9V608.4H564.6V616.5H562.9V614H553.8V622H562.9V618.6H564.6V626.3H562.9V623.7H553.8V630.2H562.9V628.2H564.6V630.2H565.1V631.9H553.8V639.7H555.9V641.4H553.8V674.2H558.3V674.3H568.5V676H564.4V680.2H562.7V676H558.3V685H571.9V676H570.5V674.3H573.6V686.7H566.9V687.8H565V686.7H558.1H553.6V691.4H565V689.4H566.7V691.4H577.4V676H579.1V691.4H733.1V656.3H734.8V670.9H742.9V656.3H744.6V670.9H752.2V656.3H753.9V670.9H755.3V672.6H734.7V691.4H796.1V672L803.1 665L800.1 662L796.1 666V663.3L803.1 656.3L800.1 653.3L796.1 657.3V654.7L803.1 647.7L800.1 644.7L796.1 648.7V645.9L803.1 638.9L800.1 635.9L796.1 639.9V637.2L803.1 630.2L800.1 627.2L796.1 631.2V628.5L803.1 621.5L800.1 618.5L796.1 622.5V619.8L803.1 612.8L800.1 609.8L796.1 613.8V611.1L803.1 604.1L800.1 601.1L796.1 605.1V575.6H797.3V565.6H796.1V561.7H770.5V571.6H768.8V570.9H768V569.2H768.9V561.7H765.5V569.2H765.9V570.9H765.5V579.9H744.8V580.6H743V578.1H746.7V577.5H748.4V578.1H752.2V574.1H753.9V578.1H763.7V570.8H746.7V564.8H748.4V569.1H763.7V561.6H754V566.3H752.3V561.6H748.5V562.2H746.8V561.6H735V564.8H733.3V561.6H718.3V560.1H712.3V565.7H686.2V569.7H712.3V575.2H684.5V560.1H655V557.8H655.1V557H672.2V556.1H721.3V555.2H722.4V544.2H724.1V547H731.2V548.7H724.1V555.1H730.3V552.1H726.2V550.4H732V555.1H733.8V548.7H733.1V547H733.8V539.5H741.3V523.7H737.1V522H741.3V508H738.5V506.3H741.8H744.4V557.1H797.4V512.1H811.6V513.8H799.1V526.8H823.5V519.8H825.2V528.5H799.1V557H837.3V558.2H845.7V557H850.9V447.3H854.5V448.6H864.3V447.3H867.3V430.9H860.5V427.7H861.6V429.7H867.3V415.8H861.6V424H860.5V414.3H867.3V397.2H864.3V396H854.5V397.3H850.9V287.3H845.7V286H837.3V287.3H799.3V315.9H825.3V324.4H823.6V317.6H799.3V330.1H816V331.8H797.6V287.2H743V336.8H741.1V321.8H737.3V320.1H741.1V304.4H733.5V290H731.3V294.4H726.1V292.7H729.5V290H723V295.6H730.6V297.3H723V299.7H721.3V289.9H708.3V288.6H674.2V289.6H672.5V287.2H643.5V287.1V283.7V283.6H645.5V280.3H647.2V283.6H666.3V276.1H668V283.6H708V276.1H709.7V283.6H727.3V277.7H729V283.6H756.9V277.7H758.6V283.6H796.2V280.3H797.5V271.6H796.2V240L800 243.8L803 240.8L796.2 233.9V231.2L800 235L803 232L796.2 225.1V222.4L800 226.2L803 223.2L796.2 216.3V213.6L800 217.4L803 214.4L796.2 207.5V204.8L800 208.6L803 205.6L796.2 198.7V195.9L800 199.7L803 196.7L796.2 189.8V187L800 190.8L803 187.8L796.2 180.9V178.2L800 182L803 179L796.2 172.1V151H790.5V149.7L782 149.8ZM582.8 153.3H584.5V155.7H576.6V156.9H574.9V155.7H565.9V156.3H564.2V153.9H582.8V153.3ZM592.4 155.4H598.3V161.7H596.6V157.1H592.4V155.4ZM661.1 156.3H662.8V163.5H680V161.2H681.7V165.3H646.3V160.4H638V157.5H639.7V158.7H648V163.6H661L661.1 156.3ZM589.5 160.2H591.2V177H589.5V160.2ZM757.1 160.2H758.8V162.3H757.1V160.2ZM757.1 165.1H758.8V173.5H771.2V261.4H758.8V268.7H757.1V259.7H769.5V175.3H757.1V165.1ZM727.5 165.7H729.2V268.6H727.5V248.4H691.6V246.7H727.5V230.6H717V228.9H727.5V165.7ZM698 170.2H711V214H709.3V202H699.6V200.3H709.3V171.9H698V170.2ZM622.4 171H624.1V175.3H630.8V177H624.1V178.9H622.4V171ZM684.4 172.7H690.5V174.4H686.1V211.1H695.6V212.8H686.1V238.4H684.4V212.8H674.9V211.1H684.4V179.9H675.5V178.2H684.4V172.7ZM637.9 175.3H644.8V178.1H668.3V179.8H661.9V189.4H660.2V179.8H644.9V189.4H643.2V177H638L637.9 175.3ZM604.7 176.5H608.9V180.3H604.7V176.5ZM643.1 194.6H644.8V202.6H674.8V204.3H644.8V228.9H651.5V230.6H644.8V246.7H674.8V248.4H660.1V265.3H670.4V267H658.4V254.5L654.6 248.4H643.1V194.6ZM604.9 203.7H609.1V207.5H604.9V203.7ZM577.6 230.9H581.8V234.7H577.6V230.9ZM621.8 248.8H623.5V255.9L632.1 263.2H646.8V266.9H644.2V264.8H631L621.6 256.7L621.8 248.8ZM684.7 257.2H686.4V265.2H708.4V257.7H710.1V265.2H715.8V266.9H689.4V273.4H687.7V267H677.7V265.3H684.6L684.7 257.2ZM604.8 258.2H608.9V261.9H604.8V258.2ZM757.1 272.5H758.8V274.8H757.1V272.5ZM622.4 281.9H627.5V287.2H622.4V281.9ZM624.1 283.6V285.4H625.7V283.6H624.1ZM554.3 290.1H556V292.4H548.2V290.7H554.3V290.1ZM709.1 293.5H710.8V294.8H716.7V327.4H734.2V336.8H732.6V352H709.7V327.4H665V332.2L667.1 334.3L666 335.4L663.6 333H650.9L648.5 335.4L647.2 334L649 332.2V327.4H618.1V342.5H633.9V344.2H616.4V300.5H672.7V293.8H674.4V294.8H684.3V296.5H683.3V297.1H681.6V296.5H674.4V300.3H679.4V302H674.4V311.8H682.1V299H692.5V311.8H699.7V302H694.8V300.3H699.7V296.5H692.7V297.1H691V296.5H690.3V294.8H703.5V296.5H702.7V303.7H707.3V296.5H704.9V294.8H709.2L709.1 293.5ZM721.5 302.2H723.2V302.7H730.8V304.4H730.3V311.2H727.2V309.5H728.5V304.4H723.1V309.5H724.7V311.2H723.1V313.1H721.4V303.5V302.2H721.5ZM567.8 304.4H578.9V306.1H569.5V317.6H600.5V306.1H591.8V304.4H602.2V357.5H600.1V355.8H600.4V345.8H586.4V355.8H596.6V357.5L567.7 357.6V333H569.4V342.2H582.9V320.9H569.4V328.8H567.7V318.2V304.4H567.8ZM583.5 304.4H587V306.1H583.5V304.4ZM555.5 314.7H557.2V326.5H555.5V314.7ZM721.5 315.7H723.2V320.1H734.2V321.8H721.4L721.5 315.7ZM823.7 328.1H825.4V330.1H835.6V356.9H833.9V331.8H823.7V328.1ZM819.4 330.1H820.9V331.8H819.4V330.1ZM555.5 331.2H557.2L557.3 347.6H555.6L555.5 331.2ZM547.5 339.7H550.2V347.7H547.5V346H548.5V341.5H547.5V339.7ZM656.2 343.7H660.4L663.8 347.1V353.9L660.9 356.8H655.1L651.8 353.5L653 352.3L655.8 355.1H660.1L661.9 353.2V347.9L659.5 345.5H656V343.7H656.2ZM653.4 344.6L654.6 345.8L652.4 348L651.2 346.8L653.4 344.6ZM555.6 351.5H557.3V367H555.6V351.5ZM674.4 355.7H696.6V365.8H694.9V357.4H675.1L672.9 359.6L671.7 358.4L674.4 355.7ZM709.8 357.2H732.7V367.3H731V365.3H711.6V367H709.9L709.8 357.2ZM615.7 357.6H626.7V359.3H617.5V361.6H615.8L615.7 357.6ZM629.6 357.6H640.2L645.6 363L644.4 364.2L639.5 359.3H629.6V357.6ZM833.9 362.5H835.6V379.9H833.9V362.5ZM615.7 364.3H617.4V371.6H648.9V368.3L647 366.4L648.2 365.2L650.6 367.6V399.3H648.9V391.2H620.3V413.6H628.6V415.3H610V413.6H616.4V391.2H569.6V413.6H577.4V415.3H567.8V371.1H577.4V372.8H569.6V388.7H600.3V372.8H592.4V371.1H615.7V364.3ZM665.6 365.2L666.8 366.5L664.8 368.4V376.2H694.9V372H696.6V409.2H663V400.4H664.7V407.5H676.4V394.4H663V391.8H677.8V380H664.8V386.6H663.1V367.7L665.6 365.2ZM584.2 371.1H586.7V372.8H584.2V371.1ZM709.8 371.9H711.5V374.8H730.9V371.9H732.6V401L730 403.5L728.8 402.3L730.9 400.3V399.1H709.7L709.8 371.9ZM833.9 385.9H835.6V399.5H818.6V406.8H816.9V397.8H833.9V385.9ZM648.9 405.2H650.6V415.2H642.7V413.5H648.9V405.2ZM584.2 413.5H604.1V415.2H584.2V413.5ZM633.1 413.5H636.8V415.2H633.1V413.5ZM707 415.1L708.2 416.3L707.2 417.3V424.4H707.6V426.1H705.5V416.6L707 415.1ZM710.6 415.1L712.1 416.6V425.6H713.1V429.1H711.4V426.1H710V424.4H710.4V417.3L709.4 416.3L710.6 415.1ZM816.9 416.3H818.6V427.7H816.9V416.3ZM717.1 423.9H727.1V431H742.2V432.7H725.4V425.6H717.1V423.9ZM567.8 429.7H577.4V431.4H569.6V440.5H567.9L567.8 429.7ZM584.2 429.7H603.3V431.4H584.2V429.7ZM609.4 429.7H627.2V431.4H620.4V453.8H649.2V445.4H650.9V464.9H649.2V456.5H602.6V473.7H592.2V472H600.1V456.5H569.6V472H577.4V473.7H567.8V445.5H569.5V453.9H617V431.5H609.4V429.7ZM631.2 429.7H637.7V431.4H631.2V429.7ZM642 429.7H650.8V439.3H649.1V431.4H642V429.7ZM718.1 432.6H719.8V439.8H718.1V432.6ZM711.4 433.1H713.1V436.4H711.4V433.1ZM663 434.7H684.4V436.4H680.7V464.9H695V449.6H696.7V473.4H695V467.4H664.7V477L667.5 479.8L666.3 481L663 477.6V449.9H664.7V464.8H679V436.3H664.7V444.7H663V434.7ZM688.1 434.7H696.8V444.1H695V436.4H688L688.1 434.7ZM817.1 437.8H818.8V443.9H835.6V514H825.4V516.3H823.7V514H819.2V512.3H833.9V445.7H817.1V437.8ZM725.4 438.5H742.2V440.2H727.1V446.9H732.7V450.8H731V448.6H724.2V446.9H725.4V438.5ZM711.4 441.4H713.1V444.9H711.4V441.4ZM709.8 446.9H719.4V448.6H711.6V450.8H709.9L709.8 446.9ZM709.8 455.4H711.5V456.9H731V455.4H732.7V472.3H723.8V475.6H731.6V477.3H723.8V484.7H731.6V486.4H727.2V491.5H731.6V493.2H727.2V498.5H731.6V500.2H727.2V506.3H733.2H735.6V508H734V517.7H716.9V549H707.2V540.3H702.6V549H699.3H690.2V547.3H699.3V544.4H694.5V542.7H699.3V533.3H692.8V546.1H681.3V533.3H674.8V542.7H679.2V544.4H674.2V547.3H684.1V549H674.2V549.9H672.5V544.7H670.7H665.2V543H670.5V520.3H615.6V512.2H617.3V516H650V511.4L646.7 508.1L647.8 507.1L651 510.6H663L666.9 506.5L667.9 507.5L666.9 508.4V510.2H672.1V513.5H670.4V512H666.9V517.2H670.4V515.9H672.1V517.2H709.6V502H703.1V500.3H709.6L709.8 455.4ZM649.1 470H650.8V477.1L640.8 486.9H632.8V485.2H640L649 476.4L649.1 470ZM582.4 471.9H586.9V473.6H582.4V471.9ZM609.4 471.9H617.4V485.3H627.2V487H615.7V473.6H609.5L609.4 471.9ZM695 477.7H696.7V488H673L669.9 484.9L671.1 483.7L673.7 486.3H695V477.7ZM567.8 486.9H579V488.6H569.5L569.4 498.1H600.2L600.3 488.6H591.5V486.9H602V497.4V530.2H600.3V527.2H569.5V538H578.2V539.7H567.8V514.9H569.5V523.4H584.2V501.8H569.5V509.9H567.8V486.9ZM583.5 486.9H586.8V488.6H583.5V486.9ZM652.3 489.1H654V491.6L652.7 492.9V499.9L651.8 500.8L653.4 502.4H660.5L661.6 501.3L659.6 499.3L661.3 497.6V489.2H663V498.3L662 499.3L664 501.3L661.1 504.1H652.6L649.3 500.8L650.9 499.2V492.2L652.2 490.9L652.3 489.1ZM615.7 500.3H638.2V502H617.5V505.9H615.8L615.7 500.3ZM673.7 500.3H698.6V502H673.7V500.3ZM722.4 522.1H734.7V523.8H724.2V527.5H722.5L722.4 522.1ZM615.7 524.9H617.4V543H626.4V544.7H615.6L615.7 524.9ZM722.4 530.3H724.1V532.7H724.7V534.4H724.1V539.3H728.2V534.4H727.1V532.7H729.9V539.4H731.2V541.1H724.1V541.3H722.4V533.6V530.3ZM600.4 534.1H602.1V539.7H591.6V538H600.4V534.1ZM583.2 538H587.3V539.7H583.2V538ZM641.4 543H647.7V544.7H641.4V543ZM733.2 566.7H734.9V578.4H733.2V566.7ZM746.8 571.9H748.5V575.2H746.8V571.9ZM768.9 574.6H770.6V672.8H764.7V671.1H768.9V633.1H763.7V631.4H768.9V585H768V583.3H768.9V574.6ZM733.2 581.3H734.9V631.4H756.4V633.1H754.1V648.3H752.4V633.1H734.9V648.7H733.2V581.3ZM743 582.5H744.7V583.2H765.8V584.9H765.4V587.9H763.7V584.9H752.5V604.5H763.7V590.2H765.4V619.8H763.7V606.2H752.4V626H763.7V622.3H765.4V627.7H737.8V592.2H739.5V604.5H750.7V585H739.5V589.7H737.8V583.3H742.9V582.5H743ZM601.1 587.5L602.3 588.7L595.5 595.5L594.3 594.3L601.1 587.5ZM572.1 591.6H573.8V594.6H569.2V600.7H572.8V602.4H569.2V607.8H572.8V609.5H569.2V615.1H572.8V616.8H569.2V622.4H572.8V624.1H569.2V629.3H572.8V631H569.2V631.9H566.8V630.2H567.5V592.9H572.1V591.6ZM587.7 601.1L588.9 602.3L587.2 604V635.2H585.5V603.3L587.7 601.1ZM759 631.4H761.1V633.1H759V631.4ZM743 637.7H744.7V648.3H743V637.7ZM558.5 639.8H569V645.3H585.5V641.1H587.2V647H579.2V673H577.5V667.6H559.2V645.6H560.9V652.3H567.2V651.5H568.9V655.5H569.3V657.2H567.2V654H560.9V665.9H577.4V657.3H571.7V655.6H577.4V647H568.9V649.3H567.2V641.5H560.9V642.4H559.2V641.5H558.4L558.5 639.8ZM759 671.1H761.1V672.8H759V671.1Z" fill="#A59FC1"/>
<path d="M657.3 489.2V502.4Z" fill="black"/>
<path d="M657.3 489.2V502.4" stroke="url(#paint0_linear_2_7194)" stroke-width="10"/>
<path d="M593 297.8H579.8Z" fill="black"/>
<path d="M593 297.8H579.8" stroke="url(#paint1_linear_2_7194)"/>
<path d="M654.1 289.8H666Z" fill="black"/>
<path d="M654.1 289.8H666" stroke="url(#paint2_linear_2_7194)"/>
<path d="M589.6 278.8H560.2Z" fill="black"/>
<path d="M589.6 278.8H560.2" stroke="url(#paint3_linear_2_7194)"/>
<path d="M574.7 192.3H590.6Z" fill="black"/>
<path d="M574.7 192.3H590.6" stroke="url(#paint4_linear_2_7194)"/>
<path d="M711.7 567H686Z" fill="black"/>
<path d="M711.7 567H686" stroke="url(#paint5_linear_2_7194)"/>
<path d="M573.6 575.9H589.9Z" fill="black"/>
<path d="M573.6 575.9H589.9" stroke="url(#paint6_linear_2_7194)"/>
<path d="M592.9 547.2H579.9Z" fill="black"/>
<path d="M592.9 547.2H579.9" stroke="url(#paint7_linear_2_7194)"/>
<path d="M548.5 422.4H564.8Z" fill="black"/>
<path d="M548.5 422.4H564.8" stroke="url(#paint8_linear_2_7194)"/>
<path d="M583.9 422.4H596.8Z" fill="black"/>
<path d="M583.9 422.4H596.8" stroke="url(#paint9_linear_2_7194)"/>
<path d="M641.8 422.4H628.8Z" fill="black"/>
<path d="M641.8 422.4H628.8" stroke="url(#paint10_linear_2_7194)"/>
<path d="M672.9 422.4H686.1Z" fill="black"/>
<path d="M672.9 422.4H686.1" stroke="url(#paint11_linear_2_7194)"/>
<path d="M863.4 416.2V428.8Z" fill="black"/>
<path d="M863.4 416.2V428.8" stroke="url(#paint12_linear_2_7194)"/>
<path d="M654.6 553H667.1Z" fill="black"/>
<path d="M654.6 553H667.1" stroke="url(#paint13_linear_2_7194)"/>
<defs>
<linearGradient id="paint0_linear_2_7194" x1="657.3" y1="502.362" x2="657.3" y2="489.193" gradientUnits="userSpaceOnUse">
<stop stop-opacity="0.5"/>
<stop offset="1" stop-color="#777777" stop-opacity="0"/>
</linearGradient>
<linearGradient id="paint1_linear_2_7194" x1="579.559" y1="297.8" x2="593.302" y2="297.8" gradientUnits="userSpaceOnUse">
<stop stop-color="white" stop-opacity="0.5"/>
<stop offset="1" stop-color="white" stop-opacity="0"/>
</linearGradient>
<linearGradient id="paint2_linear_2_7194" x1="654.518" y1="289.8" x2="665.972" y2="289.8" gradientUnits="userSpaceOnUse">
<stop stop-opacity="0.5"/>
<stop offset="1" stop-color="#777777" stop-opacity="0"/>
</linearGradient>
<linearGradient id="paint3_linear_2_7194" x1="559.699" y1="278.8" x2="590.407" y2="278.8" gradientUnits="userSpaceOnUse">
<stop stop-opacity="0.5"/>
<stop offset="1" stop-color="#777777" stop-opacity="0"/>
</linearGradient>
<linearGradient id="paint4_linear_2_7194" x1="576.357" y1="192.3" x2="589.808" y2="192.3" gradientUnits="userSpaceOnUse">
<stop stop-opacity="0.5"/>
<stop offset="1" stop-color="#777777" stop-opacity="0"/>
</linearGradient>
<linearGradient id="paint5_linear_2_7194" x1="684.662" y1="567" x2="711.624" y2="567" gradientUnits="userSpaceOnUse">
<stop stop-opacity="0.5"/>
<stop offset="1" stop-color="#777777" stop-opacity="0"/>
</linearGradient>
<linearGradient id="paint6_linear_2_7194" x1="573.392" y1="575.9" x2="589.562" y2="575.9" gradientUnits="userSpaceOnUse">
<stop stop-opacity="0.5"/>
<stop offset="1" stop-color="#777777" stop-opacity="0"/>
</linearGradient>
<linearGradient id="paint7_linear_2_7194" x1="580.149" y1="547.2" x2="592.899" y2="547.2" gradientUnits="userSpaceOnUse">
<stop stop-color="white" stop-opacity="0.5"/>
<stop offset="1" stop-color="white" stop-opacity="0"/>
</linearGradient>
<linearGradient id="paint8_linear_2_7194" x1="548.241" y1="422.4" x2="564.776" y2="422.4" gradientUnits="userSpaceOnUse">
<stop stop-opacity="0.5"/>
<stop offset="1" stop-color="#777777" stop-opacity="0"/>
</linearGradient>
<linearGradient id="paint9_linear_2_7194" x1="584.406" y1="422.4" x2="596.593" y2="422.4" gradientUnits="userSpaceOnUse">
<stop stop-color="white" stop-opacity="0"/>
<stop offset="1" stop-color="white" stop-opacity="0.5"/>
</linearGradient>
<linearGradient id="paint10_linear_2_7194" x1="628.658" y1="422.4" x2="641.477" y2="422.4" gradientUnits="userSpaceOnUse">
<stop stop-color="white" stop-opacity="0.5"/>
<stop offset="1" stop-color="white" stop-opacity="0"/>
</linearGradient>
<linearGradient id="paint11_linear_2_7194" x1="673.344" y1="422.4" x2="686.222" y2="422.4" gradientUnits="userSpaceOnUse">
<stop stop-color="white" stop-opacity="0"/>
<stop offset="1" stop-color="white" stop-opacity="0.5"/>
</linearGradient>
<linearGradient id="paint12_linear_2_7194" x1="863.4" y1="428.769" x2="863.4" y2="416.15" gradientUnits="userSpaceOnUse">
<stop stop-opacity="0.5"/>
<stop offset="1" stop-color="#777777" stop-opacity="0"/>
</linearGradient>
<linearGradient id="paint13_linear_2_7194" x1="655.253" y1="553" x2="667.298" y2="553" gradientUnits="userSpaceOnUse">
<stop stop-color="#777777" stop-opacity="0"/>
<stop offset="1" stop-opacity="0.5"/>
</linearGradient>
</defs>
</svg>
