<svg width="1128" height="947" viewBox="0 0 1128 947" fill="none" xmlns="http://www.w3.org/2000/svg">
<path d="M552.2 149.8V286H544.3V558.7H552.3V692.9H797.8V559H852.8V448.9H869.3V395.6H852.2V285.9H797.8V149.8H552.2ZM653.3 340.5H661.5L667.2 346.2V354.4L661.5 360.1H653.3L647.6 354.4V346.2L653.3 340.5ZM653.7 413.6H661.1L663.6 416.1H692.2L695 418.9V426.1L692.1 429H663.4L660.8 431.6H653.6L651 429H622.6L619.6 426V418.9L622.4 416.1H651L653.7 413.6ZM572.3 416.1H602.7L605.5 418.9V426.1L602.6 429H572.4L569.4 426V418.9L572.3 416.1ZM653.2 485H661.4L667.1 490.7V498.9L661.4 504.6H653.2L647.5 498.9V490.7L653.2 485Z" fill="#6D504E"/>
<path d="M566.5 288V295.8L557 300.9V342.8H555.3V331.4H545.9V370.6H555.3V357.5H557V372.4H545.9V406.1H538.2V411.2L536 415.4V429L538.2 433.2V438.7H545.9V472.4H557V489H555.3V474.2H545.9V513.3H555.3V500.8H557V526.5H555.3V518.2H545.9V558.4H564.4V550L555.3 545V539.4H557V543.9L566.1 548.9V558.4H597.2V546.7H602.7V548.4H599V558.4H626.3V548.4H621.7V546.7C650.5 546.7 582 546.7 662.8 546.7V558.4H672.7V552.7H674.4V558.4H709.3V555.1H711V558.4H734.4V549.4H726.5V552.6H730.5V554.3H724.8V549.4H711V550.2L710.9 550.7V552.3H709.2V550H705.5V541H702.2V548H703V549.7H689V548H698.9V533.9H692V546.4H681.4V533.9H674.3V548H684.2V549.7H674.3V550.4H672.6V535.7H626.7V534H632.6V520.6H618.2V534H623.8V535.7H616.5V500.9H624.8V502.6H618.2V516.1H647.7V511.4L646.5 510.2L647.7 509L648.9 510.2H664L675.6 498.6H699.7V488.7H704.3V490.4H701.4V498.6H704.8V494H703V492.3H708V494H706.4V498.6H710.2V490.4H706.7V488.7H710.2V465.4H707.5V463.7H710.2V380.6H706.5V378.9H710.2V356.3H707.3V354.6H710.2V346.5H706.1V351.2H707.3V352.9H703.3V351.2H704.4V346.5H701.8V354.6H704.6V356.3H700.1V346.5H696.6V347.1H694.9V345.1H674.8L663.4 334.1H650.9L648.1 336.9L646.9 335.7L647.7 334.9V327.2H618.2V342H625.7V343.7H616.5V308.8H623.8V310.5H618.2V324.6H632.7V310.5H628.3V308.8H672.9V293.8H674.6V295.5H683.9V297.2H674.6V312.6H681.7V299H692V312.6H699.2V297.2H689.4V295.5H703.4V297.2H702.8V304.1H706.1V297.1H705.5V295.4H709.5V293.7H711.2V296.2H733.7V288H726.6V290.9H730.7V292.6H724.9V288H711.2V291H709.5V288H674.6V291H672.9V288H662.4V298.2H628.3L627.8 298.3H620.9V296.6H626.3V288H599.5V296.6H616.4V298.3H597.7V288H566.5ZM570.7 294H592.7V301.9H570.7V300.2H591V295.8H570.7V294ZM568.9 308.2H579.2V309.9H570.6V320.3H582.9V308.8H587.4V320.3H600.4V309.9H591.8V308.2H602.1V331.9H600.4V322.4H590.8V328.3H589.1V322.4H587.4V342.4H600.4V335.6H602.1V357.2H601H582.8V345.7H570.5V355.3H578.2V357H568.8V336.3H570.5V342.8H582.8V322.4H570.5V331.3H568.8L568.9 308.2ZM592.8 326.4H594.5V338.9H597.8V340.6H592.8V326.4ZM589.2 331.3H590.9V339.7H589.2V331.3ZM642.1 340L643.3 341.2L640.8 343.7H632V342H640.1L642.1 340ZM653.3 340.5H661.5L667.2 346.2V354.4L661.5 360.1H653.3L647.6 354.4V346.2L653.3 340.5ZM555.3 347.9H557V351.9H555.3V347.9ZM694.8 354.7H696.5V357.8H674.9L673.3 359.4L672.1 358.2L674.2 356.1H694.8V354.7ZM617.1 357.5H640.3L650.6 367.5L650.5 393.6H648.8V391.3H620.3V406.3H627.3V408H609.4V406.3H617V396.6H596V406.3H602.5V408H577.4L575.5 406.1L576.7 404.9L578.1 406.3H589.9V398.6H589.3V396.9H589.9V372.4H589.3V370.7H617.2L617.1 357.5ZM665.2 365.2L666.4 366.4L665.2 367.6V378L670.3 377.9V368.7H682.1V370.3H688.2V368.7H696.4V375.3H694.7V370.4H690V375.3H688.3V372H682.2V375.3H680.5V370.4H672.2V377.9H680.5V377.2H682.2V377.9H688.3V377.2H690V377.9H694.8V377.2H696.5V378.8H698.6V380.5H696.5V397.7H694.8V381.3H685.3V384.9L685.2 385.4H683.5L683.4 384.9H680.8V399.4H683.5V398.2H685.2V401.1H680.8V406.1H694.8V401H696.5V407.8H663.5V388.2H665.2V406.1H676.4V381.3L665.2 381.4V383.3H663.5V366.8L665.2 365.2ZM569.5 370.7H586.6V372.4H586V376.7H584.3V372.4H582.4V376.7H580.7V372.4H571.3V378.3H586V385.8H584.3V380.1H582.4V385.8H580.7V380.1H571.3V387.5H586.1V394.5H584.4V389.2H582.5V394.5H580.8V389.2H571.4V396.9H587.7V398.6H571.4V399.2L572.5 400.3L571.3 401.5L569.7 399.9V370.7H569.5ZM683.5 387.8H685.2V396.7H683.5V387.8ZM648.8 396.7H650.5V408H642.4V406.3H648.8V396.7ZM633 406.3H636.8V408H633V406.3ZM653.7 413.6H661.1L663.6 416.1H692.2L695 418.9V420.4H673.1V424.7L695 424.8V426L692.1 428.9H663.4L660.8 431.5H653.6L651 428.9H622.6L619.6 425.9L619.5 424.7H641.1V420.3L619.6 420.2V418.8L622.4 416H651L653.7 413.6ZM602.7 416.1L605.5 418.9V420.4H584.1V424.8H605.5V426L602.6 428.9H572.4L569.4 425.9V418.8L572.2 416H602.7V416.1ZM577.3 436.5H627.3V438.2H620.3V443.2H621.9V444.9H620.3V453.5H622.8V448H621.4V446.3H625.7V448H624.4V453.5H627V444.9H624V443.2H628.9V446.4H637.8V448.7H644.8V450.4H637.8V451.9H636V448H628.8V453.5H643.1V451.4H644.8V453.5H649.1V438.1H642.1V436.4H650.8V477L641.1 486.9H633V485.2H640.4L649.1 476.3V457.7H642.3C642.3 473.4 642.3 449.1 642.3 472.2H638.8V470.5H641.2V462.4H638.4V467H639.6V468.7H635.5V467H636.7V462.4H633.8V470.5H637V472.2H631.4V466.5H628.8V464.8H631.4V457.7H618V464.8H625.9V466.5H616.3V462.9H608.9V457.7H594.6V461.2H595.4V462.9H594.6V472.1H603.9V473.8H589.3V472.1H590.4V449.3H570.8V455.6H580.8V451H582.5V455.6H585V451H586.7V457.3H570.8V464.7H580.8V459.5H582.5V464.7H585V459.5H586.7V466.4H570.8V472H580.8V468.3H582.5V472H585V468.3H586.7V473.7H569V445.2L570.5 443.7L571.7 444.9L570.7 445.9V447.4H578.5V446.7H580.2V447.4H591.9V444.5H580.2L580 444.9H578.5V442.8H591.9V438.1H578L576.6 439.5L575.4 438.3L577.3 436.5ZM633 436.5H636.3V438.2H633V436.5ZM663.3 436.5H696.9V443.5H695.2V438.2H680.8V444.1H684.4V446.5H682.7V445.8H680.9V460.6H682.7V459.7H684.4V463.6H695.2V447.2H696.9V463.6H698.5V465.3H694.8V466.1H693.1V465.3H690.2V467.6H688.5V465.3H672.2V473.6H680.9V468.6H682.6V473.6H688.4V471H690.1V473.8H693V468.8H694.7V475.5H670.4V465.4H665V476.2L667.2 478.4L666 479.6L663.3 476.9V461.3H665V463.6H670.4V454.4H672.6V450.8H674.3V454.4H675.8V456.1H672V463.6H677V451.6H675.7V450H677V438.2H665V457.1H663.3V436.5ZM682.7 448.7H684.4V457.6H682.7V448.7ZM597.6 461.2H606.2V462.9H597.6V461.2ZM609.3 472.1H618.4V485.1H627.3V486.8H616.7V473.8H609.3V472.1ZM653.2 485H661.4L667.1 490.7V498.9L661.4 504.6H653.2L647.5 498.9V490.7L653.2 485ZM673.4 484.9L674.9 486.4H695.9V489.7H694.2V488H674.2L672.2 486L673.4 484.9ZM587.1 487.4V498.9H601.3V501.4H587.1V516.3H592V518.4H590.3V518H587.1V521.9H590.3V519.9H592V521.9H599.7V512.5H601.4V536.1H591.1V534.4H599.6V525H587V536.1H583.6V525H570.6V534.4H578.6V536.1H568.8V513.1H570.5V522H583.5V501.5H581V512.3H582.2V514H579.2V501.4H570.6V507.4H568.9L569 487.4H587.1ZM555.3 492.8H557V496.8H555.3V492.8ZM630.3 500.9H640.4L642.7 503.2L641.5 504.4L639.7 502.6H630.3V500.9ZM555.3 529.9H557V536H555.3V529.9ZM570.3 543.4H592.5V551.3H570.3V549.6H590.8V545.1H570.3V543.4ZM606.2 546.4H616.2V548.1H606.2V546.4Z" fill="#E0BFBF"/>
<path d="M570.4 297.9H591Z" fill="black"/>
<path d="M570.4 297.9H591" stroke="url(#paint0_linear_2_7194)"/>
<path d="M605.6 422.6H584.1Z" fill="black"/>
<path d="M605.6 422.6H584.1" stroke="url(#paint1_linear_2_7194)"/>
<path d="M619.6 422.6H641.2Z" fill="black"/>
<path d="M619.6 422.6H641.2" stroke="url(#paint2_linear_2_7194)"/>
<path d="M695 422.7H673.1Z" fill="black"/>
<path d="M695 422.7H673.1" stroke="url(#paint3_linear_2_7194)"/>
<path d="M570.5 547.4H590.8Z" fill="black"/>
<path d="M570.5 547.4H590.8" stroke="url(#paint4_linear_2_7194)"/>
<defs>
<linearGradient id="paint0_linear_2_7194" x1="570.747" y1="297.9" x2="591.22" y2="297.9" gradientUnits="userSpaceOnUse">
<stop stop-color="#777777" stop-opacity="0"/>
<stop offset="1" stop-opacity="0.5"/>
</linearGradient>
<linearGradient id="paint1_linear_2_7194" x1="583.656" y1="422.6" x2="605.477" y2="422.6" gradientUnits="userSpaceOnUse">
<stop stop-opacity="0.5"/>
<stop offset="1" stop-color="#777777" stop-opacity="0"/>
</linearGradient>
<linearGradient id="paint2_linear_2_7194" x1="619.793" y1="422.6" x2="641.307" y2="422.6" gradientUnits="userSpaceOnUse">
<stop stop-color="#777777" stop-opacity="0"/>
<stop offset="1" stop-opacity="0.5"/>
</linearGradient>
<linearGradient id="paint3_linear_2_7194" x1="673.227" y1="422.7" x2="695.3" y2="422.7" gradientUnits="userSpaceOnUse">
<stop stop-opacity="0.5"/>
<stop offset="1" stop-color="#777777" stop-opacity="0"/>
</linearGradient>
<linearGradient id="paint4_linear_2_7194" x1="570.806" y1="547.4" x2="591.414" y2="547.4" gradientUnits="userSpaceOnUse">
<stop stop-color="#777777" stop-opacity="0"/>
<stop offset="1" stop-opacity="0.5"/>
</linearGradient>
</defs>
</svg>
