<svg width="828" height="762" viewBox="0 0 828 762" fill="none" xmlns="http://www.w3.org/2000/svg">
<path d="M403.7 612.8L402.9 638.3L406.6 638.4V640.4L413.3 640.6L413.2 638.5L428.7 637.7C428.7 637.7 428.9 613.7 428.4 613.7C427.9 613.5 403.7 612.8 403.7 612.8Z" fill="#AAAAAA"/>
<path d="M405.6 623.5V626.3L406.6 629.4L409 628L408.5 626.4L408.4 623.9L405.6 623.5Z" fill="#F9EA3A"/>
<path d="M425.7 626.5L425.6 623.2L424.7 620.2L422.2 621.5L422.8 623.1L422.9 626.1L425.7 626.5Z" fill="#F9EA3A"/>
<path d="M408.2 640.3H411.6L413.2 640.4V638.3L408.2 638.2V640.3Z" fill="#F9EA3A"/>
<path d="M517.445 492.755L511.727 513.792L579.47 532.205L585.188 511.168L517.445 492.755Z" fill="#AAAAAA"/>
<path d="M631.5 422L653.5 428L635 496L613 490L614.5 484.5L622.6 486.6L623.6 482.3L615.7 480.2L631.5 422Z" fill="#AAAAAA"/>
<path d="M485 384L483.3 391.1L485.4 391.7L473.7 434.9L484.4 437.8L486.9 428.6L501.3 432.5L512.5 391.3L485 384Z" fill="#AAAAAA"/>
<path d="M277.2 346.3L277.9 343.8L276.6 343.4L275.9 345.9L269.4 344.2L265.7 357.8L299 366.9L302.8 353.1L277.2 346.3Z" fill="#AAAAAA"/>
<path d="M299 366.9L265.7 357.8L278.5 310.8L311.9 319.9L299 366.9Z" stroke="black" stroke-width="0.3" stroke-miterlimit="10"/>
<path d="M275.9 346L276.6 343.4L273.4 342.5L272.7 345.2L275.9 346Z" fill="#F9EA3A"/>
<path d="M274.1 342.7L273.3 345.4" stroke="black" stroke-width="0.3" stroke-miterlimit="10"/>
<path d="M274.7 342.9L274 345.6" stroke="black" stroke-width="0.3" stroke-miterlimit="10"/>
<path d="M275.3 343L274.6 345.7" stroke="black" stroke-width="0.3" stroke-miterlimit="10"/>
<path d="M276 343.2L275.2 345.9" stroke="black" stroke-width="0.3" stroke-miterlimit="10"/>
<path d="M276.6 343.4L275.8 346" stroke="black" stroke-width="0.3" stroke-miterlimit="10"/>
<path d="M276 346L269.4 344.2" stroke="black" stroke-width="0.3" stroke-miterlimit="10"/>
<path d="M273.4 342.6L277.9 343.8L277.2 346.3L302.8 353.1" stroke="black" stroke-width="0.3" stroke-miterlimit="10"/>
<path d="M485.4 391.7L486.6 386.9L484.5 386.3L484.2 387.8L483.3 391.1L485.4 391.7Z" fill="#F9EA3A"/>
<path d="M485.6 418.2L484.3 417.9L483.8 420.1L480.1 419.2L481.2 414.9L484.9 415.8L486.1 416.1L485.6 418.2Z" fill="#F9EA3A"/>
<path d="M480.6 416.9L485.5 418.2" stroke="black" stroke-width="0.3" stroke-miterlimit="10"/>
<path d="M480.1 419.2L481.2 414.8" stroke="black" stroke-width="0.3" stroke-miterlimit="10"/>
<path d="M480.7 419.3L481.9 414.9" stroke="black" stroke-width="0.3" stroke-miterlimit="10"/>
<path d="M481.4 419.4L482.5 415" stroke="black" stroke-width="0.3" stroke-miterlimit="10"/>
<path d="M481.9 419.6L483.1 415.2" stroke="black" stroke-width="0.3" stroke-miterlimit="10"/>
<path d="M482.5 419.8L483.7 415.4" stroke="black" stroke-width="0.3" stroke-miterlimit="10"/>
<path d="M483.1 420L484.3 415.6" stroke="black" stroke-width="0.3" stroke-miterlimit="10"/>
<path d="M483.8 420.1L484.9 415.7" stroke="black" stroke-width="0.3" stroke-miterlimit="10"/>
<path d="M484.9 418L485.5 415.8" stroke="black" stroke-width="0.3" stroke-miterlimit="10"/>
<path d="M485.5 418.3L486.2 416" stroke="black" stroke-width="0.3" stroke-miterlimit="10"/>
<path d="M479.3 414.2L487.2 416.3L487 417" stroke="black" stroke-width="0.3" stroke-miterlimit="10"/>
<path d="M463.4 365.6L495.7 374.4L493.1 384C492.5 386 493.6 386.3 493.6 386.3L512.4 391.4L501.2 432.6L486.8 428.7L484.3 437.9L431.8 423.6L440.7 390.8L447.7 392.7C448.6 393 449.6 392.4 449.8 391.5L452.7 380.5L457.6 381.8C458.2 382 459 381 459 381L463.4 365.6Z" stroke="black" stroke-width="0.3" stroke-miterlimit="10"/>
<path d="M485.4 391.8L483.2 391.2L485 384L493.7 386.2" stroke="black" stroke-width="0.3" stroke-miterlimit="10"/>
<path d="M486.6 387.9L484.3 387.3" stroke="black" stroke-width="0.3" stroke-miterlimit="10"/>
<path d="M486.4 388.6L484.1 388" stroke="black" stroke-width="0.3" stroke-miterlimit="10"/>
<path d="M486.2 389.4L483.9 388.8" stroke="black" stroke-width="0.3" stroke-miterlimit="10"/>
<path d="M486 390.1L483.7 389.5" stroke="black" stroke-width="0.3" stroke-miterlimit="10"/>
<path d="M485.7 390.8L483.4 390.2" stroke="black" stroke-width="0.3" stroke-miterlimit="10"/>
<path d="M473.7 434.9L486.7 387L484.4 386.4" stroke="black" stroke-width="0.3" stroke-miterlimit="10"/>
<path d="M486.5 418.8L486 420.8L478.1 418.7" stroke="black" stroke-width="0.3" stroke-miterlimit="10"/>
<path d="M627.3 486.5L625.5 493.3L613 490L631.5 422L653.5 428L650.9 437.6" stroke="black" stroke-width="0.3" stroke-miterlimit="10"/>
<path d="M627.7 484.9L628.5 482" stroke="black" stroke-width="0.3" stroke-miterlimit="10"/>
<path d="M628.9 480.7L630.9 473L640.6 475.6" stroke="black" stroke-width="0.3" stroke-miterlimit="10"/>
<path d="M649.4 443.1L644.5 441.8" stroke="black" stroke-width="0.3" stroke-miterlimit="10"/>
<path d="M643.2 441.5L639.2 440.4" stroke="black" stroke-width="0.3" stroke-miterlimit="10"/>
<path d="M640.9 429.9L641.9 430.1" stroke="black" stroke-width="0.3" stroke-miterlimit="10"/>
<path d="M639.2 429.5L630.1 427" stroke="black" stroke-width="0.3" stroke-miterlimit="10"/>
<path d="M637.4 430.3L637.7 429.1" stroke="black" stroke-width="0.3" stroke-miterlimit="10"/>
<path d="M634 435.9L632.7 435.5L633.3 433.1L630.1 432.2L628.8 436.8L632.7 437.9L633.4 438.1L634 435.9Z" fill="#F9EA3A"/>
<path d="M629.3 434.6L634.1 435.9" stroke="black" stroke-width="0.3" stroke-miterlimit="10"/>
<path d="M630.1 432.2L628.8 436.9" stroke="black" stroke-width="0.3" stroke-miterlimit="10"/>
<path d="M630.7 432.4L629.4 437.1" stroke="black" stroke-width="0.3" stroke-miterlimit="10"/>
<path d="M631.4 432.5L630.1 437.2" stroke="black" stroke-width="0.3" stroke-miterlimit="10"/>
<path d="M632 432.8L630.7 437.5" stroke="black" stroke-width="0.3" stroke-miterlimit="10"/>
<path d="M632.7 432.9L631.4 437.6" stroke="black" stroke-width="0.3" stroke-miterlimit="10"/>
<path d="M633.3 433.1L632 437.8" stroke="black" stroke-width="0.3" stroke-miterlimit="10"/>
<path d="M633.3 435.6L632.7 437.9" stroke="black" stroke-width="0.3" stroke-miterlimit="10"/>
<path d="M634 435.8L633.4 438.1" stroke="black" stroke-width="0.3" stroke-miterlimit="10"/>
<path d="M622.5 479.5L621.2 479.1L620.4 481.5L617.2 480.6L618.5 475.9L622.4 477L623.1 477.2L622.5 479.5Z" fill="#F9EA3A"/>
<path d="M617.8 478.1L622.6 479.5" stroke="black" stroke-width="0.3" stroke-miterlimit="10"/>
<path d="M617.2 480.6L618.5 475.9" stroke="black" stroke-width="0.3" stroke-miterlimit="10"/>
<path d="M617.9 480.7L619.2 476" stroke="black" stroke-width="0.3" stroke-miterlimit="10"/>
<path d="M618.5 481L619.8 476.3" stroke="black" stroke-width="0.3" stroke-miterlimit="10"/>
<path d="M619.2 481.1L620.5 476.4" stroke="black" stroke-width="0.3" stroke-miterlimit="10"/>
<path d="M619.8 481.2L621.1 476.6" stroke="black" stroke-width="0.3" stroke-miterlimit="10"/>
<path d="M620.4 481.5L621.8 476.8" stroke="black" stroke-width="0.3" stroke-miterlimit="10"/>
<path d="M621.8 479.3L622.4 477" stroke="black" stroke-width="0.3" stroke-miterlimit="10"/>
<path d="M622.4 479.4L623.1 477.2" stroke="black" stroke-width="0.3" stroke-miterlimit="10"/>
<path d="M636.9 432L636.4 433.9L628.8 432" stroke="black" stroke-width="0.3" stroke-miterlimit="10"/>
<path d="M635.7 436.6L635.1 438.6L627.5 436.6" stroke="black" stroke-width="0.3" stroke-miterlimit="10"/>
<path d="M622.6 486.6L623.6 482.3L615.7 480.2" stroke="black" stroke-width="0.3" stroke-miterlimit="10"/>
<path d="M617.1 475.4L624.7 477.6L624.1 479.8" stroke="black" stroke-width="0.3" stroke-miterlimit="10"/>
<path d="M628.2 483L637.8 485.6L650.9 437.6L640.7 434.8L637.9 444.9L648.2 447.6" stroke="black" stroke-width="0.3" stroke-miterlimit="10"/>
<path d="M625.5 493.3L635 496L637.8 485.6" stroke="black" stroke-width="0.3" stroke-miterlimit="10"/>
<path d="M641.4 431.6L643.2 425.2" stroke="black" stroke-width="0.3" stroke-miterlimit="10"/>
<path d="M640.7 434.8L641.1 433.3" stroke="black" stroke-width="0.3" stroke-miterlimit="10"/>
<path d="M624.3 487L614.5 484.5" stroke="black" stroke-width="0.3" stroke-miterlimit="10"/>
<path d="M626.1 487.5L626.9 487.7" stroke="black" stroke-width="0.3" stroke-miterlimit="10"/>
<path d="M520.3 501.9L521.5 502.2" stroke="black" stroke-width="0.3" stroke-miterlimit="10"/>
<path d="M523.4 507.8L521.2 516.3" stroke="black" stroke-width="0.3" stroke-miterlimit="10"/>
<path d="M527.3 502.3L527.6 500.9L525.3 500.3L526.1 497L530.8 498.2L529.7 502.1L529.6 502.9L527.3 502.3Z" fill="#F9EA3A"/>
<path d="M528.5 497.6L527.3 502.4" stroke="black" stroke-width="0.3" stroke-miterlimit="10"/>
<path d="M526.1 497L530.8 498.3" stroke="black" stroke-width="0.3" stroke-miterlimit="10"/>
<path d="M526 497.7L530.7 498.9" stroke="black" stroke-width="0.3" stroke-miterlimit="10"/>
<path d="M525.9 498.4L530.4 499.6" stroke="black" stroke-width="0.3" stroke-miterlimit="10"/>
<path d="M525.6 499L530.4 500.2" stroke="black" stroke-width="0.3" stroke-miterlimit="10"/>
<path d="M525.5 499.6L530.2 500.9" stroke="black" stroke-width="0.3" stroke-miterlimit="10"/>
<path d="M525.3 500.3L530 501.5" stroke="black" stroke-width="0.3" stroke-miterlimit="10"/>
<path d="M527.5 501.5L529.7 502.1" stroke="black" stroke-width="0.3" stroke-miterlimit="10"/>
<path d="M527.3 502.2L529.5 502.8" stroke="black" stroke-width="0.3" stroke-miterlimit="10"/>
<path d="M526.6 495.1L524.6 503.1L522.6 502.6" stroke="black" stroke-width="0.3" stroke-miterlimit="10"/>
<path d="M531.2 496.4L529.2 504.5L527 503.8" stroke="black" stroke-width="0.3" stroke-miterlimit="10"/>
<path d="M570.3 513.8L570.7 512.5L573 513.1L573.9 509.8L569.3 508.6L568.2 512.5L568 513.2L570.3 513.8Z" fill="#F9EA3A"/>
<path d="M571.5 509.1L570.3 513.9" stroke="black" stroke-width="0.3" stroke-miterlimit="10"/>
<path d="M573.9 509.8L569.2 508.6" stroke="black" stroke-width="0.3" stroke-miterlimit="10"/>
<path d="M573.7 510.5L569 509.3" stroke="black" stroke-width="0.3" stroke-miterlimit="10"/>
<path d="M573.6 511.2L568.9 509.9" stroke="black" stroke-width="0.3" stroke-miterlimit="10"/>
<path d="M573.3 511.8L568.6 510.6" stroke="black" stroke-width="0.3" stroke-miterlimit="10"/>
<path d="M573.2 512.4L568.5 511.2" stroke="black" stroke-width="0.3" stroke-miterlimit="10"/>
<path d="M573 513.1L568.3 511.8" stroke="black" stroke-width="0.3" stroke-miterlimit="10"/>
<path d="M570.5 513.1L568.2 512.5" stroke="black" stroke-width="0.3" stroke-miterlimit="10"/>
<path d="M570.3 513.8L568.1 513.2" stroke="black" stroke-width="0.3" stroke-miterlimit="10"/>
<path d="M517.405 492.685L511.687 513.722L579.43 532.135L585.148 511.098L517.405 492.685Z" stroke="black" stroke-width="0.3" stroke-miterlimit="10"/>
<path d="M575.8 516.8L577.1 517.1" stroke="black" stroke-width="0.3" stroke-miterlimit="10"/>
<path d="M576.6 518.8L579.1 509.5" stroke="black" stroke-width="0.3" stroke-miterlimit="10"/>
<path d="M576.2 520.3L575.9 521.2" stroke="black" stroke-width="0.3" stroke-miterlimit="10"/>
<path d="M574 516.3L572.4 515.8L574.5 508.2" stroke="black" stroke-width="0.3" stroke-miterlimit="10"/>
<path d="M569.6 506.9L567.6 514.7L569.5 515.2" stroke="black" stroke-width="0.3" stroke-miterlimit="10"/>
<path d="M514 505.2L520.2 506.9" stroke="black" stroke-width="0.3" stroke-miterlimit="10"/>
<path d="M574.9 520.8L582 522.7" stroke="black" stroke-width="0.3" stroke-miterlimit="10"/>
<path d="M570.5 519.7L573 520.3" stroke="black" stroke-width="0.3" stroke-miterlimit="10"/>
<path d="M568.6 529.2L571.2 519.8" stroke="black" stroke-width="0.3" stroke-miterlimit="10"/>
<path d="M559.1 526.6L561.7 517.3L568.6 519.2" stroke="black" stroke-width="0.3" stroke-miterlimit="10"/>
<path d="M564.3 523.8L563.2 527.7" stroke="black" stroke-width="0.3" stroke-miterlimit="10"/>
<path d="M564.6 522.3L565.7 518.4" stroke="black" stroke-width="0.3" stroke-miterlimit="10"/>
<path d="M521.5 507.1L524.5 508" stroke="black" stroke-width="0.3" stroke-miterlimit="10"/>
<path d="M526 508.4L533.5 510.4L531.2 518.9" stroke="black" stroke-width="0.3" stroke-miterlimit="10"/>
<path d="M522.3 494L519.8 503.5" stroke="black" stroke-width="0.3" stroke-miterlimit="10"/>
<path d="M519.3 505.5L519 506.5" stroke="black" stroke-width="0.3" stroke-miterlimit="10"/>
<path d="M544.287 509.712L541.003 508.832L540.174 511.922L543.458 512.803L544.287 509.712Z" stroke="black" stroke-width="0.3" stroke-miterlimit="10"/>
<path d="M403 638.2H407" stroke="black" stroke-width="0.3" stroke-miterlimit="10"/>
<path d="M422.6 638.2L422.1 660.7L402.8 660.3L403 638.2L403.7 612.8L428.4 613.5L428.8 637.5L424.1 638.2H408.2V640.3" stroke="black" stroke-width="0.3" stroke-miterlimit="10"/>
<path d="M413.2 638.2V640.3" stroke="black" stroke-width="0.3" stroke-miterlimit="10"/>
<path d="M408.9 638.2V640.3" stroke="black" stroke-width="0.3" stroke-miterlimit="10"/>
<path d="M409.7 638.2V640.3" stroke="black" stroke-width="0.3" stroke-miterlimit="10"/>
<path d="M410.4 638.2V640.3" stroke="black" stroke-width="0.3" stroke-miterlimit="10"/>
<path d="M411.1 638.2V640.3" stroke="black" stroke-width="0.3" stroke-miterlimit="10"/>
<path d="M411.8 638.2V640.3" stroke="black" stroke-width="0.3" stroke-miterlimit="10"/>
<path d="M412.5 638.2V640.3" stroke="black" stroke-width="0.3" stroke-miterlimit="10"/>
<path d="M413.4 640.4L406.7 640.3V638.3" stroke="black" stroke-width="0.3" stroke-miterlimit="10"/>
<path d="M415.7 629.2C418.075 629.2 420 627.275 420 624.9C420 622.525 418.075 620.6 415.7 620.6C413.325 620.6 411.4 622.525 411.4 624.9C411.4 627.275 413.325 629.2 415.7 629.2Z" stroke="black" stroke-width="0.3" stroke-miterlimit="10"/>
<path d="M422.4 632.5C420.6 634.1 418.2 635.1 415.7 635.1C413.1 635.1 410.7 634.1 408.9 632.5" stroke="black" stroke-width="0.3" stroke-miterlimit="10"/>
<path d="M407.3 630.7C406.2 629.1 405.5 627.1 405.5 624.9C405.5 619.3 410 614.8 415.6 614.8C421.2 614.8 425.7 619.3 425.7 624.9C425.7 627.1 425 629.1 423.8 630.8" stroke="black" stroke-width="0.3" stroke-miterlimit="10"/>
<path d="M425.7 626.5L422.9 626.1C423 625.7 423 625.3 423 624.9C423 623.6 422.7 622.4 422.1 621.4L424.6 620.1" stroke="black" stroke-width="0.3" stroke-miterlimit="10"/>
<path d="M406.6 629.4L409 628C408.6 627 408.3 626 408.3 624.9C408.3 624.6 408.3 624.2 408.4 623.9L405.6 623.5" stroke="black" stroke-width="0.3" stroke-miterlimit="10"/>
<path d="M405.6 624.3L408.2 624.5" stroke="black" stroke-width="0.3" stroke-miterlimit="10"/>
<path d="M405.6 625.3L408.3 625.1" stroke="black" stroke-width="0.3" stroke-miterlimit="10"/>
<path d="M405.6 626.3L408.3 625.9" stroke="black" stroke-width="0.3" stroke-miterlimit="10"/>
<path d="M405.8 627.3L408.5 626.4" stroke="black" stroke-width="0.3" stroke-miterlimit="10"/>
<path d="M406 628.1L408.6 627.1" stroke="black" stroke-width="0.3" stroke-miterlimit="10"/>
<path d="M406.3 628.8L408.8 627.6" stroke="black" stroke-width="0.3" stroke-miterlimit="10"/>
<path d="M424.9 620.7L422.4 622" stroke="black" stroke-width="0.3" stroke-miterlimit="10"/>
<path d="M425.2 621.5L422.6 622.6" stroke="black" stroke-width="0.3" stroke-miterlimit="10"/>
<path d="M425.5 622.4L422.8 623.2" stroke="black" stroke-width="0.3" stroke-miterlimit="10"/>
<path d="M425.7 623.2L422.9 623.7" stroke="black" stroke-width="0.3" stroke-miterlimit="10"/>
<path d="M425.8 624.1L423 624.3" stroke="black" stroke-width="0.3" stroke-miterlimit="10"/>
<path d="M425.8 624.9H423" stroke="black" stroke-width="0.3" stroke-miterlimit="10"/>
<path d="M425.8 625.6L423 625.5" stroke="black" stroke-width="0.3" stroke-miterlimit="10"/>
</svg>
