<svg width="828" height="762" viewBox="0 0 828 762" fill="none" xmlns="http://www.w3.org/2000/svg">
<path d="M402.8 660.3L407.3 660.5L407.2 664.1H414.5V660.5L422.1 660.7L422.6 638.2L428.8 637.5L428.4 613.5L407.9 613L407.8 618.1L403.7 618L402.8 660.3Z" fill="#AAAAAA"/>
<path d="M561.7 517.4L559.2 526.6L511.7 513.7L517.4 492.7L585.1 511.1L581.9 522.9L561.7 517.4Z" fill="#AAAAAA"/>
<path d="M640.7 434.8L643.2 425.2L631.5 422L613 490L625.5 493.3L628.2 483L637.8 485.6L650.9 437.6L640.7 434.8Z" fill="#AAAAAA"/>
<path d="M581.6 349.7L575.6 372.7L642.8 390.8L649 367.9L581.6 349.7Z" fill="#AAAAAA"/>
<path d="M559.4 332.5L557.4 339.8L566.7 342.4L568.5 335L559.4 332.5Z" fill="#AAAAAA"/>
<path d="M487.5 384.1L512.5 391.3L510 400.3L500.3 397.7L498.1 405.5L507.9 408.1L501.3 432.5L476.3 425.1L478.2 418.8L472.9 417.3L477.7 400.1L455.5 394.2L458.3 384L454.6 383L453.7 386L451.4 385.4L452.8 380.4L486.1 389.1L487.5 384.1Z" fill="#AAAAAA"/>
<path d="M476.3 322.6L470.5 344.1L519.8 357.5L525.6 336L476.3 322.6Z" fill="#AAAAAA"/>
<path d="M396 384.6L380.6 380.6L387.5 355.3L372.4 351.2L373.7 346.6L376.7 347.4L379.1 338.8L406.4 346.3L396 384.6Z" fill="#AAAAAA"/>
<path d="M276.2 319.1L268.1 348.9L277.4 351.4L274.9 360.3L280.1 361.7L290.8 322.9L276.2 319.1Z" fill="#AAAAAA"/>
<path d="M148.9 193.8L153.8 195.1L155.8 188.2L147 185.7L149.5 177L157.8 179.2L159.9 171.2L151.9 168.9L154.2 160.5L160.5 162.3L161.9 157.7L159.4 157L162 148.2L153.1 145.9L150.7 154.6L151.8 154.8L142.3 188.2L149.9 190.3L148.9 193.8Z" fill="#AAAAAA"/>
<path d="M199.3 168.8L198.1 172.8L204.5 174.5L202.1 183.1L193.8 180.7L191.6 188.9L199.5 191.1L197.1 199.8L188.5 197.4L186.6 204.5L191.6 205.8L192.6 202.5L200.3 204.7L209.3 171.7L199.3 168.8Z" fill="#AAAAAA"/>
<path d="M162.253 155.674L160.418 155.181L159.64 158.078L161.475 158.571L162.253 155.674Z" fill="#F9EA3A"/>
<path d="M154.6 155.6L159.4 157L165.1 137.2L152 133.6L148.9 144.6L161.9 148.3" stroke="black" stroke-width="0.3" stroke-miterlimit="10"/>
<path d="M160.8 152.2L161.3 152.4L165.1 153.4L164.3 156.3L160 155" stroke="black" stroke-width="0.3" stroke-miterlimit="10"/>
<path d="M159.7 158L161.3 152.4" stroke="black" stroke-width="0.3" stroke-miterlimit="10"/>
<path d="M213.3 171.4L201.8 168.5L207.4 148.7L215 150.8L211.3 164.2C211 165.2 211.6 166.1 212.6 166.4L214.6 166.9L213.3 171.4Z" stroke="black" stroke-width="0.3" stroke-miterlimit="10"/>
<path d="M200.9 169.9L202.6 163.9" stroke="black" stroke-width="0.3" stroke-miterlimit="10"/>
<path d="M202.2 166.9L201.8 166.8" stroke="black" stroke-width="0.3" stroke-miterlimit="10"/>
<path d="M207.489 176.303L205.848 175.859L204.619 180.395L206.26 180.84L207.489 176.303Z" stroke="black" stroke-width="0.3" stroke-miterlimit="10"/>
<path d="M159.6 158L161.5 158.5" stroke="black" stroke-width="0.3" stroke-miterlimit="10"/>
<path d="M159.9 157.5L161.7 158" stroke="black" stroke-width="0.3" stroke-miterlimit="10"/>
<path d="M160 156.9L161.9 157.4" stroke="black" stroke-width="0.3" stroke-miterlimit="10"/>
<path d="M160.2 156.3L162 156.7" stroke="black" stroke-width="0.3" stroke-miterlimit="10"/>
<path d="M160.3 155.7L162.2 156.2" stroke="black" stroke-width="0.3" stroke-miterlimit="10"/>
<path d="M159.837 171.225L159.396 172.866L162.39 173.671L162.831 172.029L159.837 171.225Z" fill="#F9EA3A"/>
<path d="M162.3 173.8L162.8 172" stroke="black" stroke-width="0.3" stroke-miterlimit="10"/>
<path d="M161.8 173.5L162.3 171.9" stroke="black" stroke-width="0.3" stroke-miterlimit="10"/>
<path d="M161.3 173.4L161.7 171.7" stroke="black" stroke-width="0.3" stroke-miterlimit="10"/>
<path d="M160.7 173.2L161.1 171.6" stroke="black" stroke-width="0.3" stroke-miterlimit="10"/>
<path d="M160.1 173.1L160.6 171.4" stroke="black" stroke-width="0.3" stroke-miterlimit="10"/>
<path d="M159.5 172.9L160 171.3" stroke="black" stroke-width="0.3" stroke-miterlimit="10"/>
<path d="M159.121 193.343L158.628 195.178L162.008 196.086L162.501 194.251L159.121 193.343Z" fill="#F9EA3A"/>
<path d="M161.9 196.1L162.5 194.2" stroke="black" stroke-width="0.3" stroke-miterlimit="10"/>
<path d="M161.4 195.9L161.9 194" stroke="black" stroke-width="0.3" stroke-miterlimit="10"/>
<path d="M160.7 195.7L161.2 193.8" stroke="black" stroke-width="0.3" stroke-miterlimit="10"/>
<path d="M160.1 195.5L160.6 193.7" stroke="black" stroke-width="0.3" stroke-miterlimit="10"/>
<path d="M159.5 195.4L160 193.5" stroke="black" stroke-width="0.3" stroke-miterlimit="10"/>
<path d="M158.8 195.2L159.3 193.3" stroke="black" stroke-width="0.3" stroke-miterlimit="10"/>
<path d="M154.578 192.075L154.085 193.91L156.596 194.585L157.089 192.75L154.578 192.075Z" fill="#F9EA3A"/>
<path d="M156.2 194.4L156.7 192.6" stroke="black" stroke-width="0.3" stroke-miterlimit="10"/>
<path d="M155.5 194.3L156 192.4" stroke="black" stroke-width="0.3" stroke-miterlimit="10"/>
<path d="M154.9 194.1L155.4 192.2" stroke="black" stroke-width="0.3" stroke-miterlimit="10"/>
<path d="M154.2 193.9L154.7 192.1" stroke="black" stroke-width="0.3" stroke-miterlimit="10"/>
<path d="M162.4 155.7L160.5 162.3L154.2 160.5L151.9 168.9L165.6 172.8L164.5 176.6L161.7 175.8L162.4 173.7L159.5 172.9L157.8 179.2L149.5 177L147 185.7L155.8 188.2L154.7 192L162.5 194.2L163.2 191.9L167.4 193L166.2 197.4L154.1 194L153.8 195.1L148.9 193.8L149.9 190.3L142.3 188.2L151.6 154.8" stroke="black" stroke-width="0.3" stroke-miterlimit="10"/>
<path d="M190.77 179.965L190.329 181.606L193.323 182.411L193.764 180.769L190.77 179.965Z" fill="#F9EA3A"/>
<path d="M193.3 182.5L193.7 180.7" stroke="black" stroke-width="0.3" stroke-miterlimit="10"/>
<path d="M192.8 182.2L193.2 180.6" stroke="black" stroke-width="0.3" stroke-miterlimit="10"/>
<path d="M192.2 182.1L192.7 180.4" stroke="black" stroke-width="0.3" stroke-miterlimit="10"/>
<path d="M191.6 181.9L192.1 180.3" stroke="black" stroke-width="0.3" stroke-miterlimit="10"/>
<path d="M191.1 181.8L191.5 180.1" stroke="black" stroke-width="0.3" stroke-miterlimit="10"/>
<path d="M190.5 181.6L190.9 180" stroke="black" stroke-width="0.3" stroke-miterlimit="10"/>
<path d="M182.455 201.94L182.948 200.105L179.568 199.197L179.075 201.032L182.455 201.94Z" fill="#F9EA3A"/>
<path d="M179.6 199.1L179.1 201.1" stroke="black" stroke-width="0.3" stroke-miterlimit="10"/>
<path d="M180.2 199.4L179.7 201.2" stroke="black" stroke-width="0.3" stroke-miterlimit="10"/>
<path d="M180.8 199.5L180.3 201.4" stroke="black" stroke-width="0.3" stroke-miterlimit="10"/>
<path d="M181.5 199.7L181 201.6" stroke="black" stroke-width="0.3" stroke-miterlimit="10"/>
<path d="M182.1 199.9L181.6 201.7" stroke="black" stroke-width="0.3" stroke-miterlimit="10"/>
<path d="M182.8 200.1L182.3 201.9" stroke="black" stroke-width="0.3" stroke-miterlimit="10"/>
<path d="M186.968 203.176L187.461 201.342L184.95 200.667L184.457 202.502L186.968 203.176Z" fill="#F9EA3A"/>
<path d="M185.4 200.8L184.9 202.7" stroke="black" stroke-width="0.3" stroke-miterlimit="10"/>
<path d="M186 201L185.5 202.8" stroke="black" stroke-width="0.3" stroke-miterlimit="10"/>
<path d="M186.7 201.2L186.2 203" stroke="black" stroke-width="0.3" stroke-miterlimit="10"/>
<path d="M187.4 201.3L186.9 203.2" stroke="black" stroke-width="0.3" stroke-miterlimit="10"/>
<path d="M201.774 166.78L199.939 166.287L199.109 169.377L200.943 169.87L201.774 166.78Z" fill="#F9EA3A"/>
<path d="M199.1 169.2L201 169.8" stroke="black" stroke-width="0.3" stroke-miterlimit="10"/>
<path d="M199.3 168.8L201.2 169.2" stroke="black" stroke-width="0.3" stroke-miterlimit="10"/>
<path d="M199.5 168.2L201.3 168.7" stroke="black" stroke-width="0.3" stroke-miterlimit="10"/>
<path d="M199.6 167.5L201.5 168" stroke="black" stroke-width="0.3" stroke-miterlimit="10"/>
<path d="M199.8 166.9L201.8 167.4" stroke="black" stroke-width="0.3" stroke-miterlimit="10"/>
<path d="M200 166.2L201.8 166.7" stroke="black" stroke-width="0.3" stroke-miterlimit="10"/>
<path d="M203 164.1L198.7 162.9L197.9 165.6L200 166.2L198.1 172.8L204.5 174.5L202.1 183.1L188.4 179.1L187.3 182.9L189.8 183.6L190.4 181.6L193.3 182.5L191.6 188.9L199.5 191.1L197.1 199.8L188.5 197.4L187.4 201.3L179.6 199.1L180.3 196.7L176.1 195.5L175 199.9L187 203.1L186.6 204.5L191.6 205.8L192.6 202.5L200.3 204.7L209.3 171.7L201.2 169.2" stroke="black" stroke-width="0.3" stroke-miterlimit="10"/>
<path d="M153 145.8L150.7 154.6L151.6 154.9L152.6 155.1" stroke="black" stroke-width="0.3" stroke-miterlimit="10"/>
<path d="M301.4 357.8L282.5 352.6" stroke="black" stroke-width="0.3" stroke-miterlimit="10"/>
<path d="M285.5 363.2L288.1 354.1" stroke="black" stroke-width="0.3" stroke-miterlimit="10"/>
<path d="M293.1 365.3L295.5 356.2" stroke="black" stroke-width="0.3" stroke-miterlimit="10"/>
<path d="M279 345.4L274.9 360.3L299 366.9L302.7 353.2L283.9 348" stroke="black" stroke-width="0.3" stroke-miterlimit="10"/>
<path d="M286.6 321.9L276.2 319.1L268 348.8L277.4 351.3" stroke="black" stroke-width="0.3" stroke-miterlimit="10"/>
<path d="M289.3 322.5L290.8 322.9" stroke="black" stroke-width="0.3" stroke-miterlimit="10"/>
<path d="M279.7 342.7L281.1 337.4" stroke="black" stroke-width="0.3" stroke-miterlimit="10"/>
<path d="M281.8 335.6L283 331.2" stroke="black" stroke-width="0.3" stroke-miterlimit="10"/>
<path d="M283.5 329L285.5 321.6" stroke="black" stroke-width="0.3" stroke-miterlimit="10"/>
<path d="M282.7 332.3L273.3 329.8" stroke="black" stroke-width="0.3" stroke-miterlimit="10"/>
<path d="M280.9 338.4L271.6 335.9" stroke="black" stroke-width="0.3" stroke-miterlimit="10"/>
<path d="M396 384.6L380.6 380.6L387.5 355.3L372.4 351.2L376 337.9L406.4 346.3L396 384.6Z" stroke="black" stroke-width="0.3" stroke-miterlimit="10"/>
<path d="M373.7 346.6L381.2 348.5" stroke="black" stroke-width="0.3" stroke-miterlimit="10"/>
<path d="M379.1 338.8L376.7 347.4" stroke="black" stroke-width="0.3" stroke-miterlimit="10"/>
<path d="M385.9 340.5L383.5 349.1" stroke="black" stroke-width="0.3" stroke-miterlimit="10"/>
<path d="M391.2 342L388.7 350.6L388.2 350.5" stroke="black" stroke-width="0.3" stroke-miterlimit="10"/>
<path d="M383.1 349L386.7 350" stroke="black" stroke-width="0.3" stroke-miterlimit="10"/>
<path d="M396 343.4L394.5 348.5" stroke="black" stroke-width="0.3" stroke-miterlimit="10"/>
<path d="M392.9 354.5L391.9 357.7" stroke="black" stroke-width="0.3" stroke-miterlimit="10"/>
<path d="M391.3 360.3L388.1 371.8" stroke="black" stroke-width="0.3" stroke-miterlimit="10"/>
<path d="M387.5 374L385.4 381.8" stroke="black" stroke-width="0.3" stroke-miterlimit="10"/>
<path d="M398.9 374L388.3 371.2" stroke="black" stroke-width="0.3" stroke-miterlimit="10"/>
<path d="M400.6 367.7L390.1 364.9" stroke="black" stroke-width="0.3" stroke-miterlimit="10"/>
<path d="M396.1 355.1L397.4 355.5L396.7 357.8L400.5 358.8L401.7 354.3L398 353.3L396.7 352.9L396.1 355.1Z" fill="#F9EA3A"/>
<path d="M401.2 356.5L396.2 355.1" stroke="black" stroke-width="0.3" stroke-miterlimit="10"/>
<path d="M400.5 358.8L401.7 354.3" stroke="black" stroke-width="0.3" stroke-miterlimit="10"/>
<path d="M399.9 358.6L401.1 354" stroke="black" stroke-width="0.3" stroke-miterlimit="10"/>
<path d="M399.2 358.4L400.5 353.8" stroke="black" stroke-width="0.3" stroke-miterlimit="10"/>
<path d="M398.6 358.2L399.9 353.7" stroke="black" stroke-width="0.3" stroke-miterlimit="10"/>
<path d="M398 358.1L399.2 353.5" stroke="black" stroke-width="0.3" stroke-miterlimit="10"/>
<path d="M397.3 357.9L398.6 353.4" stroke="black" stroke-width="0.3" stroke-miterlimit="10"/>
<path d="M396.7 357.7L398 353.1" stroke="black" stroke-width="0.3" stroke-miterlimit="10"/>
<path d="M396.7 355.2L397.3 352.9" stroke="black" stroke-width="0.3" stroke-miterlimit="10"/>
<path d="M396 355.2L396.7 352.7" stroke="black" stroke-width="0.3" stroke-miterlimit="10"/>
<path d="M393.8 351L393.6 351.9L404.1 354.8" stroke="black" stroke-width="0.3" stroke-miterlimit="10"/>
<path d="M402.8 359.5L392.4 356.7" stroke="black" stroke-width="0.3" stroke-miterlimit="10"/>
<path d="M275.5 348.4L273.6 347.9L274.2 345.6L271.1 344.7L269.9 349.2L273.6 350.3L274.9 350.6L275.5 348.4Z" fill="#F9EA3A"/>
<path d="M270.4 347L275.4 348.4" stroke="black" stroke-width="0.3" stroke-miterlimit="10"/>
<path d="M271.1 344.7L269.9 349.3" stroke="black" stroke-width="0.3" stroke-miterlimit="10"/>
<path d="M271.7 344.9L270.5 349.5" stroke="black" stroke-width="0.3" stroke-miterlimit="10"/>
<path d="M272.4 345.2L271.1 349.7" stroke="black" stroke-width="0.3" stroke-miterlimit="10"/>
<path d="M273 345.3L271.7 349.9" stroke="black" stroke-width="0.3" stroke-miterlimit="10"/>
<path d="M273.6 345.5L272.4 350" stroke="black" stroke-width="0.3" stroke-miterlimit="10"/>
<path d="M274.2 345.6L273 350.2" stroke="black" stroke-width="0.3" stroke-miterlimit="10"/>
<path d="M274.2 348.1L273.6 350.4" stroke="black" stroke-width="0.3" stroke-miterlimit="10"/>
<path d="M274.9 348.3L274.2 350.6" stroke="black" stroke-width="0.3" stroke-miterlimit="10"/>
<path d="M275.6 348.3L274.9 350.6" stroke="black" stroke-width="0.3" stroke-miterlimit="10"/>
<path d="M278.6 346.7L269.3 344.2" stroke="black" stroke-width="0.3" stroke-miterlimit="10"/>
<path d="M276.2 319.1L278.5 310.8L293.1 314.8L280.1 361.7" stroke="black" stroke-width="0.3" stroke-miterlimit="10"/>
<path d="M484.5 333.6L487.5 334.4" stroke="black" stroke-width="0.3" stroke-miterlimit="10"/>
<path d="M510.6 340.7L514.5 341.7" stroke="black" stroke-width="0.3" stroke-miterlimit="10"/>
<path d="M516.2 342.2L519.7 343.1" stroke="black" stroke-width="0.3" stroke-miterlimit="10"/>
<path d="M521.3 343.6L523.5 344.2" stroke="black" stroke-width="0.3" stroke-miterlimit="10"/>
<path d="M489.1 334.9L500.1 337.8" stroke="black" stroke-width="0.3" stroke-miterlimit="10"/>
<path d="M487.9 339.4L498.2 342.2" stroke="black" stroke-width="0.3" stroke-miterlimit="10"/>
<path d="M499.9 342.5L505.3 344" stroke="black" stroke-width="0.3" stroke-miterlimit="10"/>
<path d="M507 344.5L516.2 347" stroke="black" stroke-width="0.3" stroke-miterlimit="10"/>
<path d="M522.2 348.6L518 347.4" stroke="black" stroke-width="0.3" stroke-miterlimit="10"/>
<path d="M488.4 325.9L486.2 334" stroke="black" stroke-width="0.3" stroke-miterlimit="10"/>
<path d="M494.2 327.5L492 335.7" stroke="black" stroke-width="0.3" stroke-miterlimit="10"/>
<path d="M512.7 341.2L514.9 333" stroke="black" stroke-width="0.3" stroke-miterlimit="10"/>
<path d="M518.1 342.8L520.3 334.6" stroke="black" stroke-width="0.3" stroke-miterlimit="10"/>
<path d="M494.9 341.3L492.5 350.1" stroke="black" stroke-width="0.3" stroke-miterlimit="10"/>
<path d="M484.3 341.3L482.7 347.4" stroke="black" stroke-width="0.3" stroke-miterlimit="10"/>
<path d="M501.1 342.9L498.7 351.8" stroke="black" stroke-width="0.3" stroke-miterlimit="10"/>
<path d="M509.3 345L506.9 353.8" stroke="black" stroke-width="0.3" stroke-miterlimit="10"/>
<path d="M484.5 340.8L484.6 340.3" stroke="black" stroke-width="0.3" stroke-miterlimit="10"/>
<path d="M484.7 340L484.8 339.6" stroke="black" stroke-width="0.3" stroke-miterlimit="10"/>
<path d="M484.9 339.3L485.1 338.5" stroke="black" stroke-width="0.3" stroke-miterlimit="10"/>
<path d="M480.8 335.1L479.4 334.7L478.8 337L475.1 336L476.4 331.4L480.1 332.5L481.5 332.9L480.8 335.1Z" fill="#F9EA3A"/>
<path d="M475.7 333.6L480.7 335" stroke="black" stroke-width="0.3" stroke-miterlimit="10"/>
<path d="M475.1 336L476.4 331.4" stroke="black" stroke-width="0.3" stroke-miterlimit="10"/>
<path d="M475.7 336.1L477 331.5" stroke="black" stroke-width="0.3" stroke-miterlimit="10"/>
<path d="M476.4 336.2L477.7 331.6" stroke="black" stroke-width="0.3" stroke-miterlimit="10"/>
<path d="M477 336.5L478.3 331.9" stroke="black" stroke-width="0.3" stroke-miterlimit="10"/>
<path d="M477.6 336.6L478.9 332.1" stroke="black" stroke-width="0.3" stroke-miterlimit="10"/>
<path d="M478.2 336.8L479.5 332.3" stroke="black" stroke-width="0.3" stroke-miterlimit="10"/>
<path d="M479.5 334.7L480.2 332.4" stroke="black" stroke-width="0.3" stroke-miterlimit="10"/>
<path d="M480.2 334.9L480.8 332.6" stroke="black" stroke-width="0.3" stroke-miterlimit="10"/>
<path d="M480.8 335.2L481.5 332.7" stroke="black" stroke-width="0.3" stroke-miterlimit="10"/>
<path d="M505.5 337.5L505.8 336.3L507.9 336.9L508.9 333.3L504.6 332.3L503.7 335.8L503.4 337L505.5 337.5Z" fill="#F9EA3A"/>
<path d="M506.7 332.7L505.4 337.4" stroke="black" stroke-width="0.3" stroke-miterlimit="10"/>
<path d="M508.9 333.4L504.6 332.2" stroke="black" stroke-width="0.3" stroke-miterlimit="10"/>
<path d="M508.6 333.9L504.4 332.8" stroke="black" stroke-width="0.3" stroke-miterlimit="10"/>
<path d="M508.4 334.5L504.2 333.4" stroke="black" stroke-width="0.3" stroke-miterlimit="10"/>
<path d="M508.3 335.1L504.1 334" stroke="black" stroke-width="0.3" stroke-miterlimit="10"/>
<path d="M508.2 335.7L503.9 334.6" stroke="black" stroke-width="0.3" stroke-miterlimit="10"/>
<path d="M508.1 336.3L503.8 335.2" stroke="black" stroke-width="0.3" stroke-miterlimit="10"/>
<path d="M507.9 336.9L503.6 335.8" stroke="black" stroke-width="0.3" stroke-miterlimit="10"/>
<path d="M505.6 336.9L503.4 336.3" stroke="black" stroke-width="0.3" stroke-miterlimit="10"/>
<path d="M505.6 337.5L503.3 336.9" stroke="black" stroke-width="0.3" stroke-miterlimit="10"/>
<path d="M474.1 330.7L482.8 333.1" stroke="black" stroke-width="0.3" stroke-miterlimit="10"/>
<path d="M472.9 335.2L486.2 338.9" stroke="black" stroke-width="0.3" stroke-miterlimit="10"/>
<path d="M501.8 338.4L502.9 338.6L505.1 330.4L476.3 322.6L470.5 344.1L519.8 357.5L525.6 336L509.2 331.5L507 339.8L508.9 340.3" stroke="black" stroke-width="0.3" stroke-miterlimit="10"/>
<path d="M460 371.3L460.6 368.9L458.7 368.3L458.1 370.8L457.2 374L460.8 374.9L461.7 371.7L460 371.3Z" fill="#F9EA3A"/>
<path d="M478.059 410.35L476.127 409.83L475.01 413.983L476.942 414.502L478.059 410.35Z" fill="#F9EA3A"/>
<path d="M469.643 403.746L465.201 402.551L464.448 405.352L468.89 406.547L469.643 403.746Z" fill="#F9EA3A"/>
<path d="M470.066 401.938L467.845 401.341L467.325 403.272L469.546 403.87L470.066 401.938Z" fill="#F9EA3A"/>
<path d="M475.578 387.884L471.522 386.792L470.898 389.11L474.954 390.201L475.578 387.884Z" fill="#F9EA3A"/>
<path d="M474.984 390.188L472.956 389.642L472.774 390.318L474.802 390.864L474.984 390.188Z" fill="#F9EA3A"/>
<path d="M454.569 383.275L452.251 382.651L451.498 385.452L453.815 386.075L454.569 383.275Z" fill="#F9EA3A"/>
<path d="M458.728 382.004L455.155 381.043L454.635 382.974L458.208 383.935L458.728 382.004Z" fill="#F9EA3A"/>
<path d="M476.3 425.1L487 428.1L484.4 437.7L431.9 423.4L440.8 390.6L447.8 392.5C448.7 392.8 449.7 392.2 449.9 391.3L452.8 380.3L486.1 389" stroke="black" stroke-width="0.3" stroke-miterlimit="10"/>
<path d="M489.7 375.8L476.3 425.1" stroke="black" stroke-width="0.3" stroke-miterlimit="10"/>
<path d="M490.3 373.8L490.5 373" stroke="black" stroke-width="0.3" stroke-miterlimit="10"/>
<path d="M493.1 385.7L487.5 384.1" stroke="black" stroke-width="0.3" stroke-miterlimit="10"/>
<path d="M477.3 391.5L489.1 394.6" stroke="black" stroke-width="0.3" stroke-miterlimit="10"/>
<path d="M491.8 395.4L495.6 396.4" stroke="black" stroke-width="0.3" stroke-miterlimit="10"/>
<path d="M498 397.1L510 400.3" stroke="black" stroke-width="0.3" stroke-miterlimit="10"/>
<path d="M449 392.5L482.8 401.5" stroke="black" stroke-width="0.3" stroke-miterlimit="10"/>
<path d="M458.9 382L455.5 394.2" stroke="black" stroke-width="0.3" stroke-miterlimit="10"/>
<path d="M463.9 383.3L462.7 387.4L468 388.8" stroke="black" stroke-width="0.3" stroke-miterlimit="10"/>
<path d="M476 386.6L474.8 390.7" stroke="black" stroke-width="0.3" stroke-miterlimit="10"/>
<path d="M469.5 389.3L470.7 389.6L471.9 385.3" stroke="black" stroke-width="0.3" stroke-miterlimit="10"/>
<path d="M496.4 411.6L496.8 410.4L506.6 413.2" stroke="black" stroke-width="0.3" stroke-miterlimit="10"/>
<path d="M489.7 412.1L492.7 400.6" stroke="black" stroke-width="0.3" stroke-miterlimit="10"/>
<path d="M493.4 398L493.9 396" stroke="black" stroke-width="0.3" stroke-miterlimit="10"/>
<path d="M500.3 397.7L499.6 400L499 402.6L498.1 405.5L507.9 408.1" stroke="black" stroke-width="0.3" stroke-miterlimit="10"/>
<path d="M494.3 420.1L495.8 414.5" stroke="black" stroke-width="0.3" stroke-miterlimit="10"/>
<path d="M492.5 426.2L493.5 422.8" stroke="black" stroke-width="0.3" stroke-miterlimit="10"/>
<path d="M491.5 429.8L492.1 427.8" stroke="black" stroke-width="0.3" stroke-miterlimit="10"/>
<path d="M492.8 425.1L486.5 423.3" stroke="black" stroke-width="0.3" stroke-miterlimit="10"/>
<path d="M465.1 402.5L464 407L468.4 408.2L470.8 399.2L468.4 398.5L466.5 406" stroke="black" stroke-width="0.3" stroke-miterlimit="10"/>
<path d="M473.6 387.3L472.8 390.3" stroke="black" stroke-width="0.3" stroke-miterlimit="10"/>
<path d="M453.7 386.1L454.5 383L458.3 384" stroke="black" stroke-width="0.3" stroke-miterlimit="10"/>
<path d="M462.4 369.3L458.7 368.4L456.6 376.2L460.1 377.1L459 380.8C459 380.8 458.2 381.8 457.6 381.6L457.1 383.5" stroke="black" stroke-width="0.3" stroke-miterlimit="10"/>
<path d="M459.2 374.3L460.6 368.8" stroke="black" stroke-width="0.3" stroke-miterlimit="10"/>
<path d="M475.9 409.7L474.8 414" stroke="black" stroke-width="0.3" stroke-miterlimit="10"/>
<path d="M477.9 410.3L476.8 414.6" stroke="black" stroke-width="0.3" stroke-miterlimit="10"/>
<path d="M485.6 418.2L484.3 417.9L483.8 420.1L480.1 419.2L481.2 414.9L484.9 415.8L486.1 416.1L485.6 418.2Z" fill="#F9EA3A"/>
<path d="M480.6 416.9L485.5 418.2" stroke="black" stroke-width="0.3" stroke-miterlimit="10"/>
<path d="M480.1 419.2L481.2 414.8" stroke="black" stroke-width="0.3" stroke-miterlimit="10"/>
<path d="M480.7 419.3L481.9 414.9" stroke="black" stroke-width="0.3" stroke-miterlimit="10"/>
<path d="M481.4 419.4L482.5 415" stroke="black" stroke-width="0.3" stroke-miterlimit="10"/>
<path d="M481.9 419.6L483.1 415.2" stroke="black" stroke-width="0.3" stroke-miterlimit="10"/>
<path d="M482.5 419.8L483.7 415.4" stroke="black" stroke-width="0.3" stroke-miterlimit="10"/>
<path d="M483.1 420L484.3 415.6" stroke="black" stroke-width="0.3" stroke-miterlimit="10"/>
<path d="M483.8 420.1L484.9 415.7" stroke="black" stroke-width="0.3" stroke-miterlimit="10"/>
<path d="M484.9 418L485.5 415.8" stroke="black" stroke-width="0.3" stroke-miterlimit="10"/>
<path d="M485.5 418.3L486.2 416" stroke="black" stroke-width="0.3" stroke-miterlimit="10"/>
<path d="M477.7 400.1L472.9 417.3L487.2 421.1L486.4 424.2" stroke="black" stroke-width="0.3" stroke-miterlimit="10"/>
<path d="M489 414.4L488.4 416.6L479.3 414.2" stroke="black" stroke-width="0.3" stroke-miterlimit="10"/>
<path d="M475.7 410.5L477.7 411.1" stroke="black" stroke-width="0.3" stroke-miterlimit="10"/>
<path d="M475.5 411.1L477.5 411.7" stroke="black" stroke-width="0.3" stroke-miterlimit="10"/>
<path d="M475.3 411.8L477.3 412.4" stroke="black" stroke-width="0.3" stroke-miterlimit="10"/>
<path d="M475.2 412.5L477.2 413.1" stroke="black" stroke-width="0.3" stroke-miterlimit="10"/>
<path d="M475 413.2L477 413.7" stroke="black" stroke-width="0.3" stroke-miterlimit="10"/>
<path d="M474.8 413.8L476.8 414.4" stroke="black" stroke-width="0.3" stroke-miterlimit="10"/>
<path d="M475.8 409.8L477.8 410.4" stroke="black" stroke-width="0.3" stroke-miterlimit="10"/>
<path d="M464.4 405.3L468.9 406.6" stroke="black" stroke-width="0.3" stroke-miterlimit="10"/>
<path d="M464.5 404.6L469 405.9" stroke="black" stroke-width="0.3" stroke-miterlimit="10"/>
<path d="M464.6 404L469.1 405.3" stroke="black" stroke-width="0.3" stroke-miterlimit="10"/>
<path d="M464.8 403.3L469.3 404.6" stroke="black" stroke-width="0.3" stroke-miterlimit="10"/>
<path d="M465 402.6L469.6 403.9" stroke="black" stroke-width="0.3" stroke-miterlimit="10"/>
<path d="M467.3 402.5L469.8 403.2" stroke="black" stroke-width="0.3" stroke-miterlimit="10"/>
<path d="M467.4 401.8L470 402.6" stroke="black" stroke-width="0.3" stroke-miterlimit="10"/>
<path d="M467.6 401.3L470.1 402" stroke="black" stroke-width="0.3" stroke-miterlimit="10"/>
<path d="M470.9 389L475 390.1" stroke="black" stroke-width="0.3" stroke-miterlimit="10"/>
<path d="M472.7 390.2L474.9 390.7" stroke="black" stroke-width="0.3" stroke-miterlimit="10"/>
<path d="M471 388.5L475.1 389.6" stroke="black" stroke-width="0.3" stroke-miterlimit="10"/>
<path d="M471.1 387.9L475.3 389" stroke="black" stroke-width="0.3" stroke-miterlimit="10"/>
<path d="M471.3 387.4L475.4 388.5" stroke="black" stroke-width="0.3" stroke-miterlimit="10"/>
<path d="M471.3 386.9L475.5 387.9" stroke="black" stroke-width="0.3" stroke-miterlimit="10"/>
<path d="M460.8 374.8L457.4 373.8" stroke="black" stroke-width="0.3" stroke-miterlimit="10"/>
<path d="M461 374.1L457.5 373.2" stroke="black" stroke-width="0.3" stroke-miterlimit="10"/>
<path d="M461.7 371.9L458.2 370.9" stroke="black" stroke-width="0.3" stroke-miterlimit="10"/>
<path d="M461.5 372.5L458 371.5" stroke="black" stroke-width="0.3" stroke-miterlimit="10"/>
<path d="M461.4 373L457.9 372.1" stroke="black" stroke-width="0.3" stroke-miterlimit="10"/>
<path d="M461.2 373.6L457.7 372.6" stroke="black" stroke-width="0.3" stroke-miterlimit="10"/>
<path d="M460.1 370.8L458.3 370.3" stroke="black" stroke-width="0.3" stroke-miterlimit="10"/>
<path d="M460.2 370.2L458.4 369.7" stroke="black" stroke-width="0.3" stroke-miterlimit="10"/>
<path d="M460.4 369.6L458.6 369.1" stroke="black" stroke-width="0.3" stroke-miterlimit="10"/>
<path d="M454.5 383L455.1 381.1" stroke="black" stroke-width="0.3" stroke-miterlimit="10"/>
<path d="M455.3 383.1L455.8 381.2" stroke="black" stroke-width="0.3" stroke-miterlimit="10"/>
<path d="M455.9 383.3L456.5 381.3" stroke="black" stroke-width="0.3" stroke-miterlimit="10"/>
<path d="M456.6 383.4L457.1 381.5" stroke="black" stroke-width="0.3" stroke-miterlimit="10"/>
<path d="M457.8 383.8L458.3 381.8" stroke="black" stroke-width="0.3" stroke-miterlimit="10"/>
<path d="M454.5 383.3L452.2 382.7" stroke="black" stroke-width="0.3" stroke-miterlimit="10"/>
<path d="M454.4 384L452 383.3" stroke="black" stroke-width="0.3" stroke-miterlimit="10"/>
<path d="M454.2 384.6L451.8 384" stroke="black" stroke-width="0.3" stroke-miterlimit="10"/>
<path d="M453.9 385.3L451.6 384.6" stroke="black" stroke-width="0.3" stroke-miterlimit="10"/>
<path d="M453.7 386L451.4 385.4" stroke="black" stroke-width="0.3" stroke-miterlimit="10"/>
<path d="M475.9 391L474.8 390.7" stroke="black" stroke-width="0.3" stroke-miterlimit="10"/>
<path d="M459.3 386.4L457.7 386" stroke="black" stroke-width="0.3" stroke-miterlimit="10"/>
<path d="M460.6 395.5L462.7 387.4L460.7 386.8" stroke="black" stroke-width="0.3" stroke-miterlimit="10"/>
<path d="M485.8 426L485.4 427.7" stroke="black" stroke-width="0.3" stroke-miterlimit="10"/>
<path d="M498.1 405.5L497.8 406.6" stroke="black" stroke-width="0.3" stroke-miterlimit="10"/>
<path d="M497.4 408.4L496.8 410.4" stroke="black" stroke-width="0.3" stroke-miterlimit="10"/>
<path d="M487 428.2L486.9 428.6L501.3 432.5L512.5 391.3L493.7 386.2C493.7 386.2 492.6 385.9 493.2 383.9L495.8 374.3L463.5 365.5L460.3 377.1" stroke="black" stroke-width="0.3" stroke-miterlimit="10"/>
<path d="M599.9 354.7L581.6 349.7L575.6 372.7" stroke="black" stroke-width="0.3" stroke-miterlimit="10"/>
<path d="M624.9 374L598.3 366.8" stroke="black" stroke-width="0.3" stroke-miterlimit="10"/>
<path d="M590.3 363.6L578.7 360.5" stroke="black" stroke-width="0.3" stroke-miterlimit="10"/>
<path d="M609.8 365.7L612 366.2" stroke="black" stroke-width="0.3" stroke-miterlimit="10"/>
<path d="M613.4 358.2L611.3 366.1" stroke="black" stroke-width="0.3" stroke-miterlimit="10"/>
<path d="M637.5 372.7L646.9 375.2" stroke="black" stroke-width="0.3" stroke-miterlimit="10"/>
<path d="M636.4 377L645.8 379.6" stroke="black" stroke-width="0.3" stroke-miterlimit="10"/>
<path d="M610.2 370L607.2 381.1" stroke="black" stroke-width="0.3" stroke-miterlimit="10"/>
<path d="M638.1 374.1L638.4 372.9" stroke="black" stroke-width="0.3" stroke-miterlimit="10"/>
<path d="M637.2 377.3L637.6 375.7" stroke="black" stroke-width="0.3" stroke-miterlimit="10"/>
<path d="M633.5 376.4L630.5 387.4L642.8 390.8L649 367.9L602.7 355.4" stroke="black" stroke-width="0.3" stroke-miterlimit="10"/>
<path d="M629 375.3L626 386.3L594.3 377.7L591.7 377L594.8 365.9" stroke="black" stroke-width="0.3" stroke-miterlimit="10"/>
<path d="M593.6 361.1L594.1 359.1L591.7 358.4L592.6 355.1L597.3 356.3L596.3 360.3L595.9 361.7L593.6 361.1Z" fill="#F9EA3A"/>
<path d="M595.1 355.7L593.7 361" stroke="black" stroke-width="0.3" stroke-miterlimit="10"/>
<path d="M592.6 355.1L597.4 356.4" stroke="black" stroke-width="0.3" stroke-miterlimit="10"/>
<path d="M592.5 355.8L597.3 357.1" stroke="black" stroke-width="0.3" stroke-miterlimit="10"/>
<path d="M592.3 356.5L597 357.7" stroke="black" stroke-width="0.3" stroke-miterlimit="10"/>
<path d="M592.1 357.1L596.9 358.4" stroke="black" stroke-width="0.3" stroke-miterlimit="10"/>
<path d="M591.9 357.8L596.7 359" stroke="black" stroke-width="0.3" stroke-miterlimit="10"/>
<path d="M591.7 358.4L596.5 359.7" stroke="black" stroke-width="0.3" stroke-miterlimit="10"/>
<path d="M594 359.7L596.3 360.3" stroke="black" stroke-width="0.3" stroke-miterlimit="10"/>
<path d="M593.8 360.4L596.1 361" stroke="black" stroke-width="0.3" stroke-miterlimit="10"/>
<path d="M593.5 361.1L595.9 361.7" stroke="black" stroke-width="0.3" stroke-miterlimit="10"/>
<path d="M607.1 364.9L595.8 361.8L597.9 354.1" stroke="black" stroke-width="0.3" stroke-miterlimit="10"/>
<path d="M593.2 352.9C593.2 352.9 590.1 364.4 590.1 364.7L591.2 365.1" stroke="black" stroke-width="0.3" stroke-miterlimit="10"/>
<path d="M632.3 371.7L632.6 370.2L634.9 370.9L636 367.1L631.5 365.7L630.5 369.7L630.1 371.1L632.3 371.7Z" fill="#F9EA3A"/>
<path d="M633.7 366.3L632.3 371.6" stroke="black" stroke-width="0.3" stroke-miterlimit="10"/>
<path d="M636 367.1L631.5 365.7" stroke="black" stroke-width="0.3" stroke-miterlimit="10"/>
<path d="M635.8 367.7L631.3 366.4" stroke="black" stroke-width="0.3" stroke-miterlimit="10"/>
<path d="M635.6 368.4L631.2 367.1" stroke="black" stroke-width="0.3" stroke-miterlimit="10"/>
<path d="M635.4 369L630.9 367.7" stroke="black" stroke-width="0.3" stroke-miterlimit="10"/>
<path d="M635.3 369.7L630.7 368.4" stroke="black" stroke-width="0.3" stroke-miterlimit="10"/>
<path d="M635.1 370.4L630.6 369" stroke="black" stroke-width="0.3" stroke-miterlimit="10"/>
<path d="M634.9 371L630.5 369.7" stroke="black" stroke-width="0.3" stroke-miterlimit="10"/>
<path d="M632.5 371L630.3 370.4" stroke="black" stroke-width="0.3" stroke-miterlimit="10"/>
<path d="M632.4 371.7L630.1 371.1" stroke="black" stroke-width="0.3" stroke-miterlimit="10"/>
<path d="M614.4 366.9L630.2 371.1L632.2 363.3" stroke="black" stroke-width="0.3" stroke-miterlimit="10"/>
<path d="M636.7 364.5L634.6 372.1L635.7 372.4" stroke="black" stroke-width="0.3" stroke-miterlimit="10"/>
<path d="M566.8 342.1L566.7 342.4L557.4 339.8" stroke="black" stroke-width="0.3" stroke-miterlimit="10"/>
<path d="M593 365.3L595.7 366.1" stroke="black" stroke-width="0.3" stroke-miterlimit="10"/>
<path d="M630.5 375.6L627.5 374.9" stroke="black" stroke-width="0.3" stroke-miterlimit="10"/>
<path d="M634.5 376.7L632.3 376.1" stroke="black" stroke-width="0.3" stroke-miterlimit="10"/>
<path d="M591.7 377L587.1 375.8L550.3 365.8L559.4 332.5L568.5 335L567.5 338.8" stroke="black" stroke-width="0.3" stroke-miterlimit="10"/>
<path d="M626 386.3L630.5 387.4" stroke="black" stroke-width="0.3" stroke-miterlimit="10"/>
<path d="M627.3 486.5L625.5 493.3L613 490L631.5 422L643.2 425.2L640.7 434.8" stroke="black" stroke-width="0.3" stroke-miterlimit="10"/>
<path d="M627.7 484.9L628.5 482" stroke="black" stroke-width="0.3" stroke-miterlimit="10"/>
<path d="M628.9 480.7L630.9 473L640.6 475.6" stroke="black" stroke-width="0.3" stroke-miterlimit="10"/>
<path d="M626.1 487.2L627 487.4" stroke="black" stroke-width="0.3" stroke-miterlimit="10"/>
<path d="M624 486.7L614.6 484.2" stroke="black" stroke-width="0.3" stroke-miterlimit="10"/>
<path d="M622.6 485L622.3 486.3" stroke="black" stroke-width="0.3" stroke-miterlimit="10"/>
<path d="M649.4 443.1L644.5 441.8" stroke="black" stroke-width="0.3" stroke-miterlimit="10"/>
<path d="M643.2 441.5L639.2 440.4" stroke="black" stroke-width="0.3" stroke-miterlimit="10"/>
<path d="M640.9 429.9L641.9 430.1" stroke="black" stroke-width="0.3" stroke-miterlimit="10"/>
<path d="M639.2 429.5L630.1 427" stroke="black" stroke-width="0.3" stroke-miterlimit="10"/>
<path d="M637.4 430.3L637.7 429.1" stroke="black" stroke-width="0.3" stroke-miterlimit="10"/>
<path d="M634 435.9L632.7 435.5L633.3 433.1L630.1 432.2L628.8 436.8L632.7 437.9L633.4 438.1L634 435.9Z" fill="#F9EA3A"/>
<path d="M629.3 434.6L634.1 435.9" stroke="black" stroke-width="0.3" stroke-miterlimit="10"/>
<path d="M630.1 432.2L628.8 436.9" stroke="black" stroke-width="0.3" stroke-miterlimit="10"/>
<path d="M630.7 432.4L629.4 437.1" stroke="black" stroke-width="0.3" stroke-miterlimit="10"/>
<path d="M631.4 432.5L630.1 437.2" stroke="black" stroke-width="0.3" stroke-miterlimit="10"/>
<path d="M632 432.8L630.7 437.5" stroke="black" stroke-width="0.3" stroke-miterlimit="10"/>
<path d="M632.7 432.9L631.4 437.6" stroke="black" stroke-width="0.3" stroke-miterlimit="10"/>
<path d="M633.3 433.1L632 437.8" stroke="black" stroke-width="0.3" stroke-miterlimit="10"/>
<path d="M633.3 435.6L632.7 437.9" stroke="black" stroke-width="0.3" stroke-miterlimit="10"/>
<path d="M634 435.8L633.4 438.1" stroke="black" stroke-width="0.3" stroke-miterlimit="10"/>
<path d="M622.5 479.1L621.2 478.8L620.4 481.1L617.2 480.2L618.5 475.6L622.4 476.7L623.1 476.9L622.5 479.1Z" fill="#F9EA3A"/>
<path d="M617.8 477.8L622.6 479.1" stroke="black" stroke-width="0.3" stroke-miterlimit="10"/>
<path d="M617.2 480.2L618.5 475.5" stroke="black" stroke-width="0.3" stroke-miterlimit="10"/>
<path d="M617.9 480.3L619.2 475.6" stroke="black" stroke-width="0.3" stroke-miterlimit="10"/>
<path d="M618.5 480.6L619.8 475.9" stroke="black" stroke-width="0.3" stroke-miterlimit="10"/>
<path d="M619.2 480.7L620.5 476" stroke="black" stroke-width="0.3" stroke-miterlimit="10"/>
<path d="M619.8 480.9L621.1 476.2" stroke="black" stroke-width="0.3" stroke-miterlimit="10"/>
<path d="M620.4 481.1L621.8 476.4" stroke="black" stroke-width="0.3" stroke-miterlimit="10"/>
<path d="M621.8 478.9L622.4 476.7" stroke="black" stroke-width="0.3" stroke-miterlimit="10"/>
<path d="M622.4 479.1L623.1 476.9" stroke="black" stroke-width="0.3" stroke-miterlimit="10"/>
<path d="M636.9 432L636.4 433.9L628.8 432" stroke="black" stroke-width="0.3" stroke-miterlimit="10"/>
<path d="M635.7 436.6L635.1 438.6L627.5 436.6" stroke="black" stroke-width="0.3" stroke-miterlimit="10"/>
<path d="M623 483.6L623.4 482L615.7 479.9" stroke="black" stroke-width="0.3" stroke-miterlimit="10"/>
<path d="M617.1 475.1L624.7 477.2L624.1 479.4" stroke="black" stroke-width="0.3" stroke-miterlimit="10"/>
<path d="M648.2 447.4L637.9 444.6L639.9 437.6" stroke="black" stroke-width="0.3" stroke-miterlimit="10"/>
<path d="M640.4 435.7L640.7 434.8L650.9 437.6L637.8 485.6L628.2 483" stroke="black" stroke-width="0.3" stroke-miterlimit="10"/>
<path d="M522.4 494.1L520 503.6" stroke="black" stroke-width="0.3" stroke-miterlimit="10"/>
<path d="M519.4 505.6L519.2 506.6" stroke="black" stroke-width="0.3" stroke-miterlimit="10"/>
<path d="M520.4 502L521.5 502.3" stroke="black" stroke-width="0.3" stroke-miterlimit="10"/>
<path d="M526.1 508.4L533.5 510.5L531.1 519" stroke="black" stroke-width="0.3" stroke-miterlimit="10"/>
<path d="M523.4 507.8L521.2 516.3" stroke="black" stroke-width="0.3" stroke-miterlimit="10"/>
<path d="M527.3 502.3L527.6 500.9L525.3 500.3L526.1 497L530.8 498.2L529.7 502.1L529.6 502.9L527.3 502.3Z" fill="#F9EA3A"/>
<path d="M528.5 497.6L527.3 502.4" stroke="black" stroke-width="0.3" stroke-miterlimit="10"/>
<path d="M526.1 497L530.8 498.3" stroke="black" stroke-width="0.3" stroke-miterlimit="10"/>
<path d="M526 497.7L530.7 498.9" stroke="black" stroke-width="0.3" stroke-miterlimit="10"/>
<path d="M525.9 498.4L530.4 499.6" stroke="black" stroke-width="0.3" stroke-miterlimit="10"/>
<path d="M525.6 499L530.4 500.2" stroke="black" stroke-width="0.3" stroke-miterlimit="10"/>
<path d="M525.5 499.6L530.2 500.9" stroke="black" stroke-width="0.3" stroke-miterlimit="10"/>
<path d="M525.3 500.3L530 501.5" stroke="black" stroke-width="0.3" stroke-miterlimit="10"/>
<path d="M527.5 501.5L529.7 502.1" stroke="black" stroke-width="0.3" stroke-miterlimit="10"/>
<path d="M527.3 502.2L529.5 502.8" stroke="black" stroke-width="0.3" stroke-miterlimit="10"/>
<path d="M526.6 495.1L524.6 503.1L522.7 502.6" stroke="black" stroke-width="0.3" stroke-miterlimit="10"/>
<path d="M531.2 496.4L529.2 504.5L527 503.8" stroke="black" stroke-width="0.3" stroke-miterlimit="10"/>
<path d="M570.3 513.8L570.7 512.5L573 513.1L573.9 509.8L569.3 508.6L568.2 512.5L568 513.2L570.3 513.8Z" fill="#F9EA3A"/>
<path d="M571.5 509.1L570.3 513.9" stroke="black" stroke-width="0.3" stroke-miterlimit="10"/>
<path d="M573.9 509.8L569.2 508.6" stroke="black" stroke-width="0.3" stroke-miterlimit="10"/>
<path d="M573.7 510.5L569 509.3" stroke="black" stroke-width="0.3" stroke-miterlimit="10"/>
<path d="M573.6 511.2L568.9 509.9" stroke="black" stroke-width="0.3" stroke-miterlimit="10"/>
<path d="M573.3 511.8L568.6 510.6" stroke="black" stroke-width="0.3" stroke-miterlimit="10"/>
<path d="M573.2 512.4L568.5 511.2" stroke="black" stroke-width="0.3" stroke-miterlimit="10"/>
<path d="M573 513.1L568.3 511.8" stroke="black" stroke-width="0.3" stroke-miterlimit="10"/>
<path d="M570.5 513.1L568.2 512.5" stroke="black" stroke-width="0.3" stroke-miterlimit="10"/>
<path d="M570.3 513.8L568.1 513.2" stroke="black" stroke-width="0.3" stroke-miterlimit="10"/>
<path d="M581.9 522.9L561.7 517.4L559.2 526.6L511.7 513.7L517.4 492.7L585.1 511.1L581.9 522.9Z" stroke="black" stroke-width="0.3" stroke-miterlimit="10"/>
<path d="M575.8 516.8L577.1 517.1" stroke="black" stroke-width="0.3" stroke-miterlimit="10"/>
<path d="M576.6 518.8L579.1 509.5" stroke="black" stroke-width="0.3" stroke-miterlimit="10"/>
<path d="M576.2 520.3L575.9 521.3" stroke="black" stroke-width="0.3" stroke-miterlimit="10"/>
<path d="M574 516.3L572.4 515.8L574.5 508.2" stroke="black" stroke-width="0.3" stroke-miterlimit="10"/>
<path d="M569.6 506.9L567.6 514.7L569.5 515.2" stroke="black" stroke-width="0.3" stroke-miterlimit="10"/>
<path d="M514 505.2L520 506.8" stroke="black" stroke-width="0.3" stroke-miterlimit="10"/>
<path d="M521.4 507.2L524.5 508" stroke="black" stroke-width="0.3" stroke-miterlimit="10"/>
<path d="M423.5 613.4L423.3 619.2" stroke="black" stroke-width="0.3" stroke-miterlimit="10"/>
<path d="M428.6 623.1L423.4 623V621.9" stroke="black" stroke-width="0.3" stroke-miterlimit="10"/>
<path d="M419.3 617.7V618.4L403.7 618L403 638.2H404.5" stroke="black" stroke-width="0.3" stroke-miterlimit="10"/>
<path d="M416.1 615.7H414.6L414.5 618.2L411 618.1L411.2 613.1L415.4 613.3H416.2L416.1 615.7Z" fill="#F9EA3A"/>
<path d="M411 615.5L416.2 615.7" stroke="black" stroke-width="0.3" stroke-miterlimit="10"/>
<path d="M411 618.1L411.2 613" stroke="black" stroke-width="0.3" stroke-miterlimit="10"/>
<path d="M411.7 618.1L411.9 613" stroke="black" stroke-width="0.3" stroke-miterlimit="10"/>
<path d="M412.4 618.2L412.6 613.2" stroke="black" stroke-width="0.3" stroke-miterlimit="10"/>
<path d="M413.1 618.1L413.3 613.1" stroke="black" stroke-width="0.3" stroke-miterlimit="10"/>
<path d="M413.8 618.2L414 613.1" stroke="black" stroke-width="0.3" stroke-miterlimit="10"/>
<path d="M414.5 618.2L414.7 613.1" stroke="black" stroke-width="0.3" stroke-miterlimit="10"/>
<path d="M415.3 615.7L415.4 613.3" stroke="black" stroke-width="0.3" stroke-miterlimit="10"/>
<path d="M416 615.7L416.1 613.3" stroke="black" stroke-width="0.3" stroke-miterlimit="10"/>
<path d="M419.3 614.8L419.4 613.3L407.9 613L407.8 618.1" stroke="black" stroke-width="0.3" stroke-miterlimit="10"/>
<path d="M413.8 662.1H412.5V659.9H409.5V664.1H413.1L413.7 664.2L413.8 662.1Z" fill="#F9EA3A"/>
<path d="M409.5 662.1H413.8" stroke="black" stroke-width="0.3" stroke-miterlimit="10"/>
<path d="M409.6 659.9L409.5 664.2" stroke="black" stroke-width="0.3" stroke-miterlimit="10"/>
<path d="M410.2 659.9L410.1 664.2" stroke="black" stroke-width="0.3" stroke-miterlimit="10"/>
<path d="M410.8 659.8L410.7 664.1" stroke="black" stroke-width="0.3" stroke-miterlimit="10"/>
<path d="M411.3 659.9V664.2" stroke="black" stroke-width="0.3" stroke-miterlimit="10"/>
<path d="M411.9 659.9V664.2" stroke="black" stroke-width="0.3" stroke-miterlimit="10"/>
<path d="M412.5 659.9V664.2" stroke="black" stroke-width="0.3" stroke-miterlimit="10"/>
<path d="M413.1 662.1V664.1" stroke="black" stroke-width="0.3" stroke-miterlimit="10"/>
<path d="M413.7 662.1L413.6 664.1" stroke="black" stroke-width="0.3" stroke-miterlimit="10"/>
<path d="M414.5 659.9H407.2V664.1H414.5V659.9Z" stroke="black" stroke-width="0.3" stroke-miterlimit="10"/>
<path d="M423.4 623L409.2 622.9L409.1 625.2" stroke="black" stroke-width="0.3" stroke-miterlimit="10"/>
<path d="M409.1 628V633" stroke="black" stroke-width="0.3" stroke-miterlimit="10"/>
<path d="M409.1 635.7V638.2" stroke="black" stroke-width="0.3" stroke-miterlimit="10"/>
<path d="M420.6 633.5V623" stroke="black" stroke-width="0.3" stroke-miterlimit="10"/>
<path d="M409.1 629.9H420.6" stroke="black" stroke-width="0.3" stroke-miterlimit="10"/>
<path d="M420.6 636.2V638.2" stroke="black" stroke-width="0.3" stroke-miterlimit="10"/>
<path d="M419.4 613.3L428.4 613.5L428.8 637.5L424.1 638.2H407.1" stroke="black" stroke-width="0.3" stroke-miterlimit="10"/>
<path d="M403 638.2L402.8 660.3L407.3 660.5" stroke="black" stroke-width="0.3" stroke-miterlimit="10"/>
<path d="M414.5 660.5L422.1 660.7L422.6 638.2" stroke="black" stroke-width="0.3" stroke-miterlimit="10"/>
</svg>
