<svg width="828" height="762" viewBox="0 0 828 762" fill="none" xmlns="http://www.w3.org/2000/svg">
<path d="M428.4 613.5L403.7 612.8L402.8 660.3L407.2 660.5V664.1H414.5L414.4 660.5L422 660.7L422.5 638.2L428.7 637.5L428.4 613.5ZM420.6 629.9H409.1L409.2 622.6L420.6 622.7V629.9Z" fill="#AAAAAA"/>
<path d="M522.4 494.1L519.3 506.5L514 505.2L511.7 513.7L521.2 516.3L523.4 507.8L533.5 510.5L531.4 519L579.4 532.1L585.1 511.1L522.4 494.1Z" fill="#AAAAAA"/>
<path d="M631.5 422L615.7 479.9L623.4 482L622.4 486.3L627 487.6L625.5 493.3L635 496L653.5 428L631.5 422Z" fill="#AAAAAA"/>
<path d="M568.5 335L566.5 342.2L557.4 339.8L550.3 365.8L642.8 390.8L649 367.9L581.4 349.8L584.2 339L568.5 335Z" fill="#AAAAAA"/>
<path d="M463.4 365.6L462.4 369.3L458.7 368.3L456.6 376.2L460.1 377.1L458.9 380.8C458.7 381.5 458 381.8 457.3 381.7L452.7 380.4L449.5 392.6L468.4 398L467.1 403.2L465 402.5L464 407L468.5 408.2L462.3 431.8L484.5 437.8L487 428.6L501.4 432.5L512.6 391.3L492.8 386L495.8 374.4L463.4 365.6Z" fill="#AAAAAA"/>
<path d="M394 392.1L363.6 383.8L376 337.9L406.4 346.2L394 392.1Z" fill="#AAAAAA"/>
<path d="M299 366.9L265.7 357.8L278.5 310.8L311.8 319.9L299 366.9Z" fill="#AAAAAA"/>
<path d="M164.5 137L161.5 148.7L152.9 146.2L150.1 156.1L172.3 162L168.9 174.7L146.7 169L145.6 173.4L192.5 186L188.5 200.5L141.7 187.8L138.8 198.5L197.6 214.5L200.6 203.7L191 201.1L194.9 186.5L204.5 189.1L205.7 184.6L171.3 175.4L174.7 162.7L209.2 172L215 150.7L164.5 137Z" fill="#AAAAAA"/>
<path d="M164.5 137L215 150.7L197.6 214.5L138.8 198.5L152.9 146.2L161.5 148.7L164.5 137Z" stroke="black" stroke-width="0.3" stroke-miterlimit="10"/>
<path d="M150.7 154.4L209.7 170.3" stroke="black" stroke-width="0.3" stroke-miterlimit="10"/>
<path d="M150.1 156.1L209.2 172" stroke="black" stroke-width="0.3" stroke-miterlimit="10"/>
<path d="M172.3 162L168.9 174.7L146.7 169" stroke="black" stroke-width="0.3" stroke-miterlimit="10"/>
<path d="M174.7 162.7L171.3 175.4L205.7 184.6" stroke="black" stroke-width="0.3" stroke-miterlimit="10"/>
<path d="M145.6 173.4L192.5 186L188.5 200.5L141.7 187.8" stroke="black" stroke-width="0.3" stroke-miterlimit="10"/>
<path d="M204.5 189.1L194.9 186.5L191 201.1L200.6 203.7" stroke="black" stroke-width="0.3" stroke-miterlimit="10"/>
<path d="M200.1 205.4L141.1 189.8" stroke="black" stroke-width="0.3" stroke-miterlimit="10"/>
<path d="M155.6 147L154.9 149.5L160.8 151.1" stroke="black" stroke-width="0.3" stroke-miterlimit="10"/>
<path d="M161.5 148.7L159.2 156.6" stroke="black" stroke-width="0.3" stroke-miterlimit="10"/>
<path d="M161.3 148.8L160.7 151L155.1 149.4L155.7 147.1L161.3 148.8Z" fill="#F9EA3A"/>
<path d="M155.6 149.6L156.2 147.2" stroke="black" stroke-width="0.3" stroke-miterlimit="10"/>
<path d="M156.2 149.8L156.9 147.4" stroke="black" stroke-width="0.3" stroke-miterlimit="10"/>
<path d="M156.9 150.1L157.5 147.6" stroke="black" stroke-width="0.3" stroke-miterlimit="10"/>
<path d="M157.5 150.2L158.2 147.8" stroke="black" stroke-width="0.3" stroke-miterlimit="10"/>
<path d="M158.2 150.4L158.9 147.9" stroke="black" stroke-width="0.3" stroke-miterlimit="10"/>
<path d="M158.9 150.5L159.5 148.1" stroke="black" stroke-width="0.3" stroke-miterlimit="10"/>
<path d="M159.5 150.7L160.2 148.3" stroke="black" stroke-width="0.3" stroke-miterlimit="10"/>
<path d="M160.2 150.9L160.8 148.4" stroke="black" stroke-width="0.3" stroke-miterlimit="10"/>
<path d="M280.1 361.7L282.5 352.6L282.9 352.7" stroke="black" stroke-width="0.3" stroke-miterlimit="10"/>
<path d="M285.5 363.2L288.1 354.1" stroke="black" stroke-width="0.3" stroke-miterlimit="10"/>
<path d="M293.1 365.3L295.5 356.2" stroke="black" stroke-width="0.3" stroke-miterlimit="10"/>
<path d="M299 366.9L265.7 357.8L278.5 310.8L311.9 319.9L299 366.9Z" stroke="black" stroke-width="0.3" stroke-miterlimit="10"/>
<path d="M268 348.7L277 351.1L276.7 352.3" stroke="black" stroke-width="0.3" stroke-miterlimit="10"/>
<path d="M275.5 348.4L273.6 347.8L274.2 345.5L271.1 344.6L269.9 349.2L273.6 350.2L274.9 350.6L275.5 348.4Z" fill="#F9EA3A"/>
<path d="M270.4 347L275.4 348.4" stroke="black" stroke-width="0.3" stroke-miterlimit="10"/>
<path d="M271.1 344.7L269.9 349.2" stroke="black" stroke-width="0.3" stroke-miterlimit="10"/>
<path d="M271.7 344.9L270.5 349.5" stroke="black" stroke-width="0.3" stroke-miterlimit="10"/>
<path d="M272.4 345.1L271.1 349.7" stroke="black" stroke-width="0.3" stroke-miterlimit="10"/>
<path d="M273 345.2L271.7 349.8" stroke="black" stroke-width="0.3" stroke-miterlimit="10"/>
<path d="M273.6 345.4L272.4 350" stroke="black" stroke-width="0.3" stroke-miterlimit="10"/>
<path d="M274.2 345.5L273 350.1" stroke="black" stroke-width="0.3" stroke-miterlimit="10"/>
<path d="M275.2 345.8L275.9 343.1L272.8 342.2L272 344.9L275.2 345.8Z" fill="#F9EA3A"/>
<path d="M273.4 342.5L272.6 345.1" stroke="black" stroke-width="0.3" stroke-miterlimit="10"/>
<path d="M274 342.7L273.3 345.4" stroke="black" stroke-width="0.3" stroke-miterlimit="10"/>
<path d="M274.6 342.8L273.9 345.5" stroke="black" stroke-width="0.3" stroke-miterlimit="10"/>
<path d="M275.3 343L274.5 345.6" stroke="black" stroke-width="0.3" stroke-miterlimit="10"/>
<path d="M275.9 343.1L275.2 345.8" stroke="black" stroke-width="0.3" stroke-miterlimit="10"/>
<path d="M274.2 348L273.6 350.3" stroke="black" stroke-width="0.3" stroke-miterlimit="10"/>
<path d="M274.9 348.2L274.2 350.5" stroke="black" stroke-width="0.3" stroke-miterlimit="10"/>
<path d="M275.6 348.3L274.9 350.6" stroke="black" stroke-width="0.3" stroke-miterlimit="10"/>
<path d="M279.6 346.9L269.4 344.2" stroke="black" stroke-width="0.3" stroke-miterlimit="10"/>
<path d="M286.5 321.7L289.8 322.6L288.8 326.4L285.5 325.4L286.5 321.7Z" stroke="black" stroke-width="0.3" stroke-miterlimit="10"/>
<path d="M294.9 344.4L298.2 345.3L297.1 349L293.9 348.1L294.9 344.4Z" stroke="black" stroke-width="0.3" stroke-miterlimit="10"/>
<path d="M276.1 354.6L274.6 360.2" stroke="black" stroke-width="0.3" stroke-miterlimit="10"/>
<path d="M282 347.5L302.8 353.1" stroke="black" stroke-width="0.3" stroke-miterlimit="10"/>
<path d="M272.7 342.3L277.2 343.6L276.5 346.1" stroke="black" stroke-width="0.3" stroke-miterlimit="10"/>
<path d="M284.8 353.2L288.8 354.3" stroke="black" stroke-width="0.3" stroke-miterlimit="10"/>
<path d="M291 354.9L301.5 357.8" stroke="black" stroke-width="0.3" stroke-miterlimit="10"/>
<path d="M373.7 346.6L381.2 348.5" stroke="black" stroke-width="0.3" stroke-miterlimit="10"/>
<path d="M379.1 338.8L376.7 347.4" stroke="black" stroke-width="0.3" stroke-miterlimit="10"/>
<path d="M385.9 340.5L383.5 349.1" stroke="black" stroke-width="0.3" stroke-miterlimit="10"/>
<path d="M391.2 342L388.7 350.6L388.2 350.5" stroke="black" stroke-width="0.3" stroke-miterlimit="10"/>
<path d="M383.1 349L386.7 350" stroke="black" stroke-width="0.3" stroke-miterlimit="10"/>
<path d="M396 343.4L394.5 348.5" stroke="black" stroke-width="0.3" stroke-miterlimit="10"/>
<path d="M396.1 355.1L397.4 355.5L396.7 357.8L400.5 358.8L401.7 354.3L398 353.3L396.7 352.9L396.1 355.1Z" fill="#F9EA3A"/>
<path d="M401.2 356.5L396.2 355.1" stroke="black" stroke-width="0.3" stroke-miterlimit="10"/>
<path d="M400.5 358.8L401.7 354.3" stroke="black" stroke-width="0.3" stroke-miterlimit="10"/>
<path d="M399.9 358.6L401.1 354" stroke="black" stroke-width="0.3" stroke-miterlimit="10"/>
<path d="M399.2 358.4L400.5 353.8" stroke="black" stroke-width="0.3" stroke-miterlimit="10"/>
<path d="M398.6 358.2L399.9 353.7" stroke="black" stroke-width="0.3" stroke-miterlimit="10"/>
<path d="M398 358.1L399.2 353.5" stroke="black" stroke-width="0.3" stroke-miterlimit="10"/>
<path d="M397.3 357.9L398.6 353.4" stroke="black" stroke-width="0.3" stroke-miterlimit="10"/>
<path d="M396.7 357.7L398 353.1" stroke="black" stroke-width="0.3" stroke-miterlimit="10"/>
<path d="M396.7 355.2L397.3 352.9" stroke="black" stroke-width="0.3" stroke-miterlimit="10"/>
<path d="M396 355.2L396.7 352.7" stroke="black" stroke-width="0.3" stroke-miterlimit="10"/>
<path d="M393.8 351L393.6 351.9L404.1 354.8" stroke="black" stroke-width="0.3" stroke-miterlimit="10"/>
<path d="M402.8 359.5L391.2 356.3" stroke="black" stroke-width="0.3" stroke-miterlimit="10"/>
<path d="M389.2 355.6L372.5 351" stroke="black" stroke-width="0.3" stroke-miterlimit="10"/>
<path d="M394 392.1L363.6 383.8L376 337.9L406.4 346.2L394 392.1Z" stroke="black" stroke-width="0.3" stroke-miterlimit="10"/>
<path d="M385 389.6L382.1 400.6L364 395.7L367 384.7" stroke="black" stroke-width="0.3" stroke-miterlimit="10"/>
<path d="M476.3 322.6L470.5 344.1L519.8 357.5L525.6 336L476.3 322.6Z" fill="#AAAAAA"/>
<path d="M480.8 335.1L479.4 334.7L478.8 337L475.1 336L476.4 331.4L480.1 332.5L481.5 332.9L480.8 335.1Z" fill="#F9EA3A"/>
<path d="M475.7 333.6L480.7 335" stroke="black" stroke-width="0.3" stroke-miterlimit="10"/>
<path d="M475.1 336L476.4 331.4" stroke="black" stroke-width="0.3" stroke-miterlimit="10"/>
<path d="M475.7 336.1L477 331.5" stroke="black" stroke-width="0.3" stroke-miterlimit="10"/>
<path d="M476.4 336.2L477.7 331.6" stroke="black" stroke-width="0.3" stroke-miterlimit="10"/>
<path d="M477 336.5L478.3 331.9" stroke="black" stroke-width="0.3" stroke-miterlimit="10"/>
<path d="M477.6 336.6L478.9 332.1" stroke="black" stroke-width="0.3" stroke-miterlimit="10"/>
<path d="M478.2 336.8L479.5 332.3" stroke="black" stroke-width="0.3" stroke-miterlimit="10"/>
<path d="M479.5 334.7L480.2 332.4" stroke="black" stroke-width="0.3" stroke-miterlimit="10"/>
<path d="M480.2 334.9L480.8 332.6" stroke="black" stroke-width="0.3" stroke-miterlimit="10"/>
<path d="M480.8 335.2L481.5 332.7" stroke="black" stroke-width="0.3" stroke-miterlimit="10"/>
<path d="M474.1 330.7L482.8 333.1L482.7 333.4" stroke="black" stroke-width="0.3" stroke-miterlimit="10"/>
<path d="M472.9 335.2L481.5 337.6L481.9 336" stroke="black" stroke-width="0.3" stroke-miterlimit="10"/>
<path d="M476.3 322.6L470.5 344.1L519.8 357.5L525.6 336L476.3 322.6Z" stroke="black" stroke-width="0.3" stroke-miterlimit="10"/>
<path d="M479.4 339L482.6 339.9L481.8 343.1L478.5 342.2L479.4 339Z" stroke="black" stroke-width="0.3" stroke-miterlimit="10"/>
<path d="M460 371.3L460.6 368.9L458.7 368.3L458.1 370.8L457.2 374L460.8 374.9L461.7 371.7L460 371.3Z" fill="#F9EA3A"/>
<path d="M485.4 391.7L486.6 386.9L484.5 386.3L484.2 387.8L483.3 391.1L485.4 391.7Z" fill="#F9EA3A"/>
<path d="M469.643 403.746L465.201 402.551L464.448 405.352L468.89 406.547L469.643 403.746Z" fill="#F9EA3A"/>
<path d="M470.066 401.938L467.845 401.341L467.325 403.272L469.546 403.87L470.066 401.938Z" fill="#F9EA3A"/>
<path d="M493.1 385.7L487.5 384.1L483.5 399.1" stroke="black" stroke-width="0.3" stroke-miterlimit="10"/>
<path d="M484.9 393.5L489.1 394.6" stroke="black" stroke-width="0.3" stroke-miterlimit="10"/>
<path d="M491.8 395.4L495.6 396.4" stroke="black" stroke-width="0.3" stroke-miterlimit="10"/>
<path d="M498 397.1L510 400.3" stroke="black" stroke-width="0.3" stroke-miterlimit="10"/>
<path d="M495.8 413.8L496.2 412.6L505.9 415.4" stroke="black" stroke-width="0.3" stroke-miterlimit="10"/>
<path d="M489.7 412.1L492.7 400.6" stroke="black" stroke-width="0.3" stroke-miterlimit="10"/>
<path d="M493.4 398L493.9 396" stroke="black" stroke-width="0.3" stroke-miterlimit="10"/>
<path d="M494.3 420.1L495.6 415.4" stroke="black" stroke-width="0.3" stroke-miterlimit="10"/>
<path d="M492.5 426.2L493.5 422.8" stroke="black" stroke-width="0.3" stroke-miterlimit="10"/>
<path d="M491.5 429.8L492.1 427.8" stroke="black" stroke-width="0.3" stroke-miterlimit="10"/>
<path d="M468.6 398.1L466.5 406" stroke="black" stroke-width="0.3" stroke-miterlimit="10"/>
<path d="M465.1 402.5L464 407L468.4 408.2L470.4 401.3" stroke="black" stroke-width="0.3" stroke-miterlimit="10"/>
<path d="M459.2 374.3L460.6 368.8" stroke="black" stroke-width="0.3" stroke-miterlimit="10"/>
<path d="M485.6 418.2L484.3 417.9L483.8 420.1L480.1 419.2L481.2 414.9L484.9 415.8L486.1 416.1L485.6 418.2Z" fill="#F9EA3A"/>
<path d="M480.6 416.9L485.5 418.2" stroke="black" stroke-width="0.3" stroke-miterlimit="10"/>
<path d="M480.1 419.2L481.2 414.8" stroke="black" stroke-width="0.3" stroke-miterlimit="10"/>
<path d="M480.7 419.3L481.9 414.9" stroke="black" stroke-width="0.3" stroke-miterlimit="10"/>
<path d="M481.4 419.4L482.5 415" stroke="black" stroke-width="0.3" stroke-miterlimit="10"/>
<path d="M481.9 419.6L483.1 415.2" stroke="black" stroke-width="0.3" stroke-miterlimit="10"/>
<path d="M482.5 419.8L483.7 415.4" stroke="black" stroke-width="0.3" stroke-miterlimit="10"/>
<path d="M483.1 420L484.3 415.6" stroke="black" stroke-width="0.3" stroke-miterlimit="10"/>
<path d="M483.8 420.1L484.9 415.7" stroke="black" stroke-width="0.3" stroke-miterlimit="10"/>
<path d="M484.9 418L485.5 415.8" stroke="black" stroke-width="0.3" stroke-miterlimit="10"/>
<path d="M485.5 418.3L486.2 416" stroke="black" stroke-width="0.3" stroke-miterlimit="10"/>
<path d="M489 414.4L488.4 416.6L479.3 414.2" stroke="black" stroke-width="0.3" stroke-miterlimit="10"/>
<path d="M464.4 405.3L468.9 406.6" stroke="black" stroke-width="0.3" stroke-miterlimit="10"/>
<path d="M464.5 404.6L469 405.9" stroke="black" stroke-width="0.3" stroke-miterlimit="10"/>
<path d="M464.6 404L469.1 405.3" stroke="black" stroke-width="0.3" stroke-miterlimit="10"/>
<path d="M464.8 403.3L469.3 404.6" stroke="black" stroke-width="0.3" stroke-miterlimit="10"/>
<path d="M465 402.6L469.6 403.9" stroke="black" stroke-width="0.3" stroke-miterlimit="10"/>
<path d="M467.3 402.5L469.8 403.2" stroke="black" stroke-width="0.3" stroke-miterlimit="10"/>
<path d="M467.4 401.8L470 402.6" stroke="black" stroke-width="0.3" stroke-miterlimit="10"/>
<path d="M467.6 401.3L470.1 402" stroke="black" stroke-width="0.3" stroke-miterlimit="10"/>
<path d="M460.8 374.8L457.4 373.8" stroke="black" stroke-width="0.3" stroke-miterlimit="10"/>
<path d="M461 374.1L457.5 373.2" stroke="black" stroke-width="0.3" stroke-miterlimit="10"/>
<path d="M461.7 371.9L458.2 370.9" stroke="black" stroke-width="0.3" stroke-miterlimit="10"/>
<path d="M461.5 372.5L458 371.5" stroke="black" stroke-width="0.3" stroke-miterlimit="10"/>
<path d="M461.4 373L457.9 372.1" stroke="black" stroke-width="0.3" stroke-miterlimit="10"/>
<path d="M461.2 373.6L457.7 372.6" stroke="black" stroke-width="0.3" stroke-miterlimit="10"/>
<path d="M460.1 370.8L458.3 370.3" stroke="black" stroke-width="0.3" stroke-miterlimit="10"/>
<path d="M460.2 370.2L458.4 369.7" stroke="black" stroke-width="0.3" stroke-miterlimit="10"/>
<path d="M460.4 369.6L458.6 369.1" stroke="black" stroke-width="0.3" stroke-miterlimit="10"/>
<path d="M497.3 408.8L496.2 412.6" stroke="black" stroke-width="0.3" stroke-miterlimit="10"/>
<path d="M497.6 407.2L497.8 406.5L507.5 409.3" stroke="black" stroke-width="0.3" stroke-miterlimit="10"/>
<path d="M499 402.3L497.8 406.5" stroke="black" stroke-width="0.3" stroke-miterlimit="10"/>
<path d="M487 421.1L478.2 418.7L482.8 402L449.7 392.6L452.9 380.4L457.8 381.7C458.4 381.9 459.2 380.9 459.2 380.9L460.3 377.2L456.8 376.3L458.9 368.5L462.6 369.4L463.6 365.7L495.9 374.5L493.3 384.1C492.7 386.1 493.8 386.4 493.8 386.4L512.6 391.5L501.4 432.7L487 428.8L487.1 428.4L476.5 425.5L475.6 428.7" stroke="black" stroke-width="0.3" stroke-miterlimit="10"/>
<path d="M470.7 399.9L471.1 398.7" stroke="black" stroke-width="0.3" stroke-miterlimit="10"/>
<path d="M476.7 408.8L477.2 406.9L469.4 404.8" stroke="black" stroke-width="0.3" stroke-miterlimit="10"/>
<path d="M460.2 377.2L461.7 371.7" stroke="black" stroke-width="0.3" stroke-miterlimit="10"/>
<path d="M468.4 408.2L462.2 431.8C462.2 431.8 484.2 438.4 484.4 437.8C484.6 437.2 486.9 428.6 486.9 428.6" stroke="black" stroke-width="0.3" stroke-miterlimit="10"/>
<path d="M472.2 425.3L464.5 423.3" stroke="black" stroke-width="0.3" stroke-miterlimit="10"/>
<path d="M474.9 415.4L467 413.4" stroke="black" stroke-width="0.3" stroke-miterlimit="10"/>
<path d="M476 411.4L474.6 416.6" stroke="black" stroke-width="0.3" stroke-miterlimit="10"/>
<path d="M471.4 428.6L469.8 434" stroke="black" stroke-width="0.3" stroke-miterlimit="10"/>
<path d="M473.9 419.3L472 426.2" stroke="black" stroke-width="0.3" stroke-miterlimit="10"/>
<path d="M499.6 399.7L500.1 397.7" stroke="black" stroke-width="0.3" stroke-miterlimit="10"/>
<path d="M482.6 402.6L491.6 405" stroke="black" stroke-width="0.3" stroke-miterlimit="10"/>
<path d="M490 411L480.9 408.6" stroke="black" stroke-width="0.3" stroke-miterlimit="10"/>
<path d="M474.9 430.8L473.7 435.1" stroke="black" stroke-width="0.3" stroke-miterlimit="10"/>
<path d="M487.3 384.6L485 384L483.2 391.2L485.4 391.8" stroke="black" stroke-width="0.3" stroke-miterlimit="10"/>
<path d="M486.7 387L484.4 386.4" stroke="black" stroke-width="0.3" stroke-miterlimit="10"/>
<path d="M486.6 387.9L484.3 387.3" stroke="black" stroke-width="0.3" stroke-miterlimit="10"/>
<path d="M486.4 388.6L484.1 388" stroke="black" stroke-width="0.3" stroke-miterlimit="10"/>
<path d="M486.2 389.4L483.9 388.8" stroke="black" stroke-width="0.3" stroke-miterlimit="10"/>
<path d="M486 390.1L483.7 389.5" stroke="black" stroke-width="0.3" stroke-miterlimit="10"/>
<path d="M485.7 390.8L483.4 390.2" stroke="black" stroke-width="0.3" stroke-miterlimit="10"/>
<path d="M624.9 374L598.3 366.8" stroke="black" stroke-width="0.3" stroke-miterlimit="10"/>
<path d="M609.8 365.7L612 366.2" stroke="black" stroke-width="0.3" stroke-miterlimit="10"/>
<path d="M613.4 358.2L611.3 366.1" stroke="black" stroke-width="0.3" stroke-miterlimit="10"/>
<path d="M637.5 372.7L646.9 375.2" stroke="black" stroke-width="0.3" stroke-miterlimit="10"/>
<path d="M636.4 377L645.8 379.6" stroke="black" stroke-width="0.3" stroke-miterlimit="10"/>
<path d="M610.2 370L607.2 381.1" stroke="black" stroke-width="0.3" stroke-miterlimit="10"/>
<path d="M638.1 374.1L638.4 372.9" stroke="black" stroke-width="0.3" stroke-miterlimit="10"/>
<path d="M637.2 377.3L637.6 375.7" stroke="black" stroke-width="0.3" stroke-miterlimit="10"/>
<path d="M630.5 387.4L642.8 390.8L649 367.9L624.6 361.3" stroke="black" stroke-width="0.3" stroke-miterlimit="10"/>
<path d="M593.6 361.1L594.1 359.1L591.7 358.4L592.6 355.1L597.3 356.3L596.3 360.3L595.9 361.7L593.6 361.1Z" fill="#F9EA3A"/>
<path d="M595.1 355.7L593.7 361" stroke="black" stroke-width="0.3" stroke-miterlimit="10"/>
<path d="M592.6 355.1L597.4 356.4" stroke="black" stroke-width="0.3" stroke-miterlimit="10"/>
<path d="M592.5 355.8L597.3 357.1" stroke="black" stroke-width="0.3" stroke-miterlimit="10"/>
<path d="M592.3 356.5L597 357.7" stroke="black" stroke-width="0.3" stroke-miterlimit="10"/>
<path d="M592.1 357.1L596.9 358.4" stroke="black" stroke-width="0.3" stroke-miterlimit="10"/>
<path d="M591.9 357.8L596.7 359" stroke="black" stroke-width="0.3" stroke-miterlimit="10"/>
<path d="M591.7 358.4L596.5 359.7" stroke="black" stroke-width="0.3" stroke-miterlimit="10"/>
<path d="M594 359.7L596.3 360.3" stroke="black" stroke-width="0.3" stroke-miterlimit="10"/>
<path d="M593.8 360.4L596.1 361" stroke="black" stroke-width="0.3" stroke-miterlimit="10"/>
<path d="M593.5 361.1L595.9 361.7" stroke="black" stroke-width="0.3" stroke-miterlimit="10"/>
<path d="M607.1 364.9L595.8 361.8L597.9 354.1L581.4 349.8" stroke="black" stroke-width="0.3" stroke-miterlimit="10"/>
<path d="M632.3 371.7L632.6 370.2L634.9 370.9L636 367.1L631.5 365.7L630.5 369.7L630.1 371.1L632.3 371.7Z" fill="#F9EA3A"/>
<path d="M633.7 366.3L632.3 371.6" stroke="black" stroke-width="0.3" stroke-miterlimit="10"/>
<path d="M636 367.1L631.5 365.7" stroke="black" stroke-width="0.3" stroke-miterlimit="10"/>
<path d="M635.8 367.7L631.3 366.4" stroke="black" stroke-width="0.3" stroke-miterlimit="10"/>
<path d="M635.6 368.4L631.2 367.1" stroke="black" stroke-width="0.3" stroke-miterlimit="10"/>
<path d="M635.4 369L630.9 367.7" stroke="black" stroke-width="0.3" stroke-miterlimit="10"/>
<path d="M635.3 369.7L630.7 368.4" stroke="black" stroke-width="0.3" stroke-miterlimit="10"/>
<path d="M635.1 370.4L630.6 369" stroke="black" stroke-width="0.3" stroke-miterlimit="10"/>
<path d="M634.9 371L630.5 369.7" stroke="black" stroke-width="0.3" stroke-miterlimit="10"/>
<path d="M632.5 371L630.3 370.4" stroke="black" stroke-width="0.3" stroke-miterlimit="10"/>
<path d="M632.4 371.7L630.1 371.1" stroke="black" stroke-width="0.3" stroke-miterlimit="10"/>
<path d="M614.4 366.9L630.2 371.1L632.2 363.3" stroke="black" stroke-width="0.3" stroke-miterlimit="10"/>
<path d="M636.7 364.5L634.6 372.1L635.7 372.4" stroke="black" stroke-width="0.3" stroke-miterlimit="10"/>
<path d="M566.8 342.1L566.7 342.4L557.4 339.8" stroke="black" stroke-width="0.3" stroke-miterlimit="10"/>
<path d="M634.4 376.7L627.5 374.9" stroke="black" stroke-width="0.3" stroke-miterlimit="10"/>
<path d="M630.5 387.4L587.1 375.8L550.3 365.8L559.4 332.5L568.5 335L567.5 338.8" stroke="black" stroke-width="0.3" stroke-miterlimit="10"/>
<path d="M575.2 372.6L578 362.8" stroke="black" stroke-width="0.3" stroke-miterlimit="10"/>
<path d="M568.5 335L584.2 339L578.8 359.7" stroke="black" stroke-width="0.3" stroke-miterlimit="10"/>
<path d="M617.8 359.4L597.9 354.1" stroke="black" stroke-width="0.3" stroke-miterlimit="10"/>
<path d="M628.9 375.2L625.8 386.2" stroke="black" stroke-width="0.3" stroke-miterlimit="10"/>
<path d="M590.9 360.7L593.1 352.9" stroke="black" stroke-width="0.3" stroke-miterlimit="10"/>
<path d="M590.5 362.4L586.9 375.8" stroke="black" stroke-width="0.3" stroke-miterlimit="10"/>
<path d="M595.5 366.1L589.9 364.7" stroke="black" stroke-width="0.3" stroke-miterlimit="10"/>
<path d="M627.3 486.5L625.5 493.3L613 490L631.5 422L653.5 428L650.9 437.6" stroke="black" stroke-width="0.3" stroke-miterlimit="10"/>
<path d="M627.7 484.9L628.5 482" stroke="black" stroke-width="0.3" stroke-miterlimit="10"/>
<path d="M628.9 480.7L630.9 473L640.6 475.6" stroke="black" stroke-width="0.3" stroke-miterlimit="10"/>
<path d="M627 487.6L614.6 484.2" stroke="black" stroke-width="0.3" stroke-miterlimit="10"/>
<path d="M649.4 443.1L644.5 441.8" stroke="black" stroke-width="0.3" stroke-miterlimit="10"/>
<path d="M643.2 441.5L639.2 440.4" stroke="black" stroke-width="0.3" stroke-miterlimit="10"/>
<path d="M640.9 429.9L641.9 430.1" stroke="black" stroke-width="0.3" stroke-miterlimit="10"/>
<path d="M639.2 429.5L630.1 427" stroke="black" stroke-width="0.3" stroke-miterlimit="10"/>
<path d="M637.4 430.3L637.7 429.1" stroke="black" stroke-width="0.3" stroke-miterlimit="10"/>
<path d="M634 435.9L632.7 435.5L633.3 433.1L630.1 432.2L628.8 436.8L632.7 437.9L633.4 438.1L634 435.9Z" fill="#F9EA3A"/>
<path d="M629.3 434.6L634.1 435.9" stroke="black" stroke-width="0.3" stroke-miterlimit="10"/>
<path d="M630.1 432.2L628.8 436.9" stroke="black" stroke-width="0.3" stroke-miterlimit="10"/>
<path d="M630.7 432.4L629.4 437.1" stroke="black" stroke-width="0.3" stroke-miterlimit="10"/>
<path d="M631.4 432.5L630.1 437.2" stroke="black" stroke-width="0.3" stroke-miterlimit="10"/>
<path d="M632 432.8L630.7 437.5" stroke="black" stroke-width="0.3" stroke-miterlimit="10"/>
<path d="M632.7 432.9L631.4 437.6" stroke="black" stroke-width="0.3" stroke-miterlimit="10"/>
<path d="M633.3 433.1L632 437.8" stroke="black" stroke-width="0.3" stroke-miterlimit="10"/>
<path d="M633.3 435.6L632.7 437.9" stroke="black" stroke-width="0.3" stroke-miterlimit="10"/>
<path d="M634 435.8L633.4 438.1" stroke="black" stroke-width="0.3" stroke-miterlimit="10"/>
<path d="M622.5 479.1L621.2 478.8L620.4 481.1L617.2 480.2L618.5 475.6L622.4 476.7L623.1 476.9L622.5 479.1Z" fill="#F9EA3A"/>
<path d="M617.8 477.8L622.6 479.1" stroke="black" stroke-width="0.3" stroke-miterlimit="10"/>
<path d="M617.2 480.2L618.5 475.5" stroke="black" stroke-width="0.3" stroke-miterlimit="10"/>
<path d="M617.9 480.3L619.2 475.6" stroke="black" stroke-width="0.3" stroke-miterlimit="10"/>
<path d="M618.5 480.6L619.8 475.9" stroke="black" stroke-width="0.3" stroke-miterlimit="10"/>
<path d="M619.2 480.7L620.5 476" stroke="black" stroke-width="0.3" stroke-miterlimit="10"/>
<path d="M619.8 480.9L621.1 476.2" stroke="black" stroke-width="0.3" stroke-miterlimit="10"/>
<path d="M620.4 481.1L621.8 476.4" stroke="black" stroke-width="0.3" stroke-miterlimit="10"/>
<path d="M621.8 478.9L622.4 476.7" stroke="black" stroke-width="0.3" stroke-miterlimit="10"/>
<path d="M622.4 479.1L623.1 476.9" stroke="black" stroke-width="0.3" stroke-miterlimit="10"/>
<path d="M636.9 432L636.4 433.9L628.8 432" stroke="black" stroke-width="0.3" stroke-miterlimit="10"/>
<path d="M635.7 436.6L635.1 438.6L627.5 436.6" stroke="black" stroke-width="0.3" stroke-miterlimit="10"/>
<path d="M622.4 486.3L623.4 482L615.7 479.9" stroke="black" stroke-width="0.3" stroke-miterlimit="10"/>
<path d="M617.1 475.1L624.7 477.2L624.1 479.4" stroke="black" stroke-width="0.3" stroke-miterlimit="10"/>
<path d="M628.2 483L637.8 485.6L650.9 437.6L640.7 434.8L637.9 444.9L641.9 445.9" stroke="black" stroke-width="0.3" stroke-miterlimit="10"/>
<path d="M625.5 493.3L635 496L637.8 485.6" stroke="black" stroke-width="0.3" stroke-miterlimit="10"/>
<path d="M641.4 431.6L643.2 425.2" stroke="black" stroke-width="0.3" stroke-miterlimit="10"/>
<path d="M640.7 434.8L641.1 433.3" stroke="black" stroke-width="0.3" stroke-miterlimit="10"/>
<path d="M643.2 446.2L648.2 447.5" stroke="black" stroke-width="0.3" stroke-miterlimit="10"/>
<path d="M632.925 459.131L629.928 458.337L629.083 461.527L632.08 462.321L632.925 459.131Z" stroke="black" stroke-width="0.3" stroke-miterlimit="10"/>
<path d="M522.4 494.1L519.3 506.5" stroke="black" stroke-width="0.3" stroke-miterlimit="10"/>
<path d="M520.4 502L521.9 502.4" stroke="black" stroke-width="0.3" stroke-miterlimit="10"/>
<path d="M531.4 519L533.5 510.5L521.9 507.3" stroke="black" stroke-width="0.3" stroke-miterlimit="10"/>
<path d="M523.4 507.8L521.2 516.3" stroke="black" stroke-width="0.3" stroke-miterlimit="10"/>
<path d="M527.3 502.3L527.6 500.9L525.3 500.3L526.1 497L530.8 498.2L529.7 502.1L529.6 502.9L527.3 502.3Z" fill="#F9EA3A"/>
<path d="M528.5 497.6L527.3 502.4" stroke="black" stroke-width="0.3" stroke-miterlimit="10"/>
<path d="M526.1 497L530.8 498.3" stroke="black" stroke-width="0.3" stroke-miterlimit="10"/>
<path d="M526 497.7L530.7 498.9" stroke="black" stroke-width="0.3" stroke-miterlimit="10"/>
<path d="M525.9 498.4L530.4 499.6" stroke="black" stroke-width="0.3" stroke-miterlimit="10"/>
<path d="M525.6 499L530.4 500.2" stroke="black" stroke-width="0.3" stroke-miterlimit="10"/>
<path d="M525.5 499.6L530.2 500.9" stroke="black" stroke-width="0.3" stroke-miterlimit="10"/>
<path d="M525.3 500.3L530 501.5" stroke="black" stroke-width="0.3" stroke-miterlimit="10"/>
<path d="M527.5 501.5L529.7 502.1" stroke="black" stroke-width="0.3" stroke-miterlimit="10"/>
<path d="M527.3 502.2L529.5 502.8" stroke="black" stroke-width="0.3" stroke-miterlimit="10"/>
<path d="M526.6 495.1L524.6 503.1L523.1 502.7" stroke="black" stroke-width="0.3" stroke-miterlimit="10"/>
<path d="M531.2 496.4L529.2 504.5L527 503.8" stroke="black" stroke-width="0.3" stroke-miterlimit="10"/>
<path d="M570.3 513.8L570.7 512.5L573 513.1L573.9 509.8L569.3 508.6L568.2 512.5L568 513.2L570.3 513.8Z" fill="#F9EA3A"/>
<path d="M571.5 509.1L570.3 513.9" stroke="black" stroke-width="0.3" stroke-miterlimit="10"/>
<path d="M573.9 509.8L569.2 508.6" stroke="black" stroke-width="0.3" stroke-miterlimit="10"/>
<path d="M573.7 510.5L569 509.3" stroke="black" stroke-width="0.3" stroke-miterlimit="10"/>
<path d="M573.6 511.2L568.9 509.9" stroke="black" stroke-width="0.3" stroke-miterlimit="10"/>
<path d="M573.3 511.8L568.6 510.6" stroke="black" stroke-width="0.3" stroke-miterlimit="10"/>
<path d="M573.2 512.4L568.5 511.2" stroke="black" stroke-width="0.3" stroke-miterlimit="10"/>
<path d="M573 513.1L568.3 511.8" stroke="black" stroke-width="0.3" stroke-miterlimit="10"/>
<path d="M570.5 513.1L568.2 512.5" stroke="black" stroke-width="0.3" stroke-miterlimit="10"/>
<path d="M570.3 513.8L568.1 513.2" stroke="black" stroke-width="0.3" stroke-miterlimit="10"/>
<path d="M517.406 492.685L511.687 513.722L579.43 532.135L585.149 511.098L517.406 492.685Z" stroke="black" stroke-width="0.3" stroke-miterlimit="10"/>
<path d="M575.8 516.8L577.1 517.1" stroke="black" stroke-width="0.3" stroke-miterlimit="10"/>
<path d="M576.6 518.8L579.1 509.5" stroke="black" stroke-width="0.3" stroke-miterlimit="10"/>
<path d="M576.2 520.3L575.9 521.2" stroke="black" stroke-width="0.3" stroke-miterlimit="10"/>
<path d="M574 516.3L572.4 515.8L574.5 508.2" stroke="black" stroke-width="0.3" stroke-miterlimit="10"/>
<path d="M569.6 506.9L567.6 514.7L569.5 515.2" stroke="black" stroke-width="0.3" stroke-miterlimit="10"/>
<path d="M514 505.2L520.6 507" stroke="black" stroke-width="0.3" stroke-miterlimit="10"/>
<path d="M574.9 520.8L582 522.7" stroke="black" stroke-width="0.3" stroke-miterlimit="10"/>
<path d="M570.5 519.7L573 520.3" stroke="black" stroke-width="0.3" stroke-miterlimit="10"/>
<path d="M568.6 529.2L571.2 519.8" stroke="black" stroke-width="0.3" stroke-miterlimit="10"/>
<path d="M560.4 521.9L561.7 517.3L568.6 519.2" stroke="black" stroke-width="0.3" stroke-miterlimit="10"/>
<path d="M564.3 523.8L563.2 527.7" stroke="black" stroke-width="0.3" stroke-miterlimit="10"/>
<path d="M564.6 522.3L565.7 518.4" stroke="black" stroke-width="0.3" stroke-miterlimit="10"/>
<path d="M560 523.8L559.2 526.6" stroke="black" stroke-width="0.3" stroke-miterlimit="10"/>
<path d="M428.6 623.1L423.1 623L423.4 613.4" stroke="black" stroke-width="0.3" stroke-miterlimit="10"/>
<path d="M403 638.2H404.5" stroke="black" stroke-width="0.3" stroke-miterlimit="10"/>
<path d="M416.1 615.7H414.6L414.5 618.2L411 618.1L411.2 613.1L415.4 613.3H416.2L416.1 615.7Z" fill="#F9EA3A"/>
<path d="M411 615.5L416.2 615.7" stroke="black" stroke-width="0.3" stroke-miterlimit="10"/>
<path d="M411 618.1L411.2 613" stroke="black" stroke-width="0.3" stroke-miterlimit="10"/>
<path d="M411.7 618.1L411.9 613" stroke="black" stroke-width="0.3" stroke-miterlimit="10"/>
<path d="M412.4 618.2L412.6 613.2" stroke="black" stroke-width="0.3" stroke-miterlimit="10"/>
<path d="M413.1 618.1L413.3 613.1" stroke="black" stroke-width="0.3" stroke-miterlimit="10"/>
<path d="M413.8 618.2L414 613.1" stroke="black" stroke-width="0.3" stroke-miterlimit="10"/>
<path d="M414.5 618.2L414.7 613.1" stroke="black" stroke-width="0.3" stroke-miterlimit="10"/>
<path d="M415.3 615.7L415.4 613.3" stroke="black" stroke-width="0.3" stroke-miterlimit="10"/>
<path d="M416 615.7L416.1 613.3" stroke="black" stroke-width="0.3" stroke-miterlimit="10"/>
<path d="M419.3 614.8L419.4 613.3L407.9 613L407.8 618.1" stroke="black" stroke-width="0.3" stroke-miterlimit="10"/>
<path d="M413.8 662.1H412.5V659.9H409.5V664.1H413.1L413.7 664.2L413.8 662.1Z" fill="#F9EA3A"/>
<path d="M409.5 662.1H413.8" stroke="black" stroke-width="0.3" stroke-miterlimit="10"/>
<path d="M410.2 659.9L410.1 664.2" stroke="black" stroke-width="0.3" stroke-miterlimit="10"/>
<path d="M410.8 659.8L410.7 664.1" stroke="black" stroke-width="0.3" stroke-miterlimit="10"/>
<path d="M411.3 659.9V664.2" stroke="black" stroke-width="0.3" stroke-miterlimit="10"/>
<path d="M411.9 659.9V664.2" stroke="black" stroke-width="0.3" stroke-miterlimit="10"/>
<path d="M412.5 659.9V664.2" stroke="black" stroke-width="0.3" stroke-miterlimit="10"/>
<path d="M413.1 662.1V664.1" stroke="black" stroke-width="0.3" stroke-miterlimit="10"/>
<path d="M413.7 662.1L413.6 664.1" stroke="black" stroke-width="0.3" stroke-miterlimit="10"/>
<path d="M407.7 659.9H407.2V664.1H414.5V659.9H409.6L409.5 664.2" stroke="black" stroke-width="0.3" stroke-miterlimit="10"/>
<path d="M420.4 638.2L420.6 622.7L409.2 622.6L409 632.8" stroke="black" stroke-width="0.3" stroke-miterlimit="10"/>
<path d="M409.1 629.9H420.6" stroke="black" stroke-width="0.3" stroke-miterlimit="10"/>
<path d="M407.3 660.5L402.8 660.3L403 638.2L403.7 612.8L407.9 613" stroke="black" stroke-width="0.3" stroke-miterlimit="10"/>
<path d="M414.5 660.5L422.1 660.7L422.6 638.2" stroke="black" stroke-width="0.3" stroke-miterlimit="10"/>
<path d="M427 617H423.3" stroke="black" stroke-width="0.3" stroke-miterlimit="10"/>
<path d="M428.5 617H428" stroke="black" stroke-width="0.3" stroke-miterlimit="10"/>
<path d="M408.2 640.3H411.6L413.2 640.4V638.3L408.2 638.2V640.3Z" fill="#F9EA3A"/>
<path d="M413.2 638.2V640.3" stroke="black" stroke-width="0.3" stroke-miterlimit="10"/>
<path d="M409.1 635.7V638.2" stroke="black" stroke-width="0.3" stroke-miterlimit="10"/>
<path d="M408.2 638.2V640.3" stroke="black" stroke-width="0.3" stroke-miterlimit="10"/>
<path d="M408.9 638.2V640.3" stroke="black" stroke-width="0.3" stroke-miterlimit="10"/>
<path d="M409.7 638.2V640.3" stroke="black" stroke-width="0.3" stroke-miterlimit="10"/>
<path d="M410.4 638.2V640.3" stroke="black" stroke-width="0.3" stroke-miterlimit="10"/>
<path d="M411.1 638.2V640.3" stroke="black" stroke-width="0.3" stroke-miterlimit="10"/>
<path d="M411.8 638.2V640.3" stroke="black" stroke-width="0.3" stroke-miterlimit="10"/>
<path d="M412.5 638.2V640.3" stroke="black" stroke-width="0.3" stroke-miterlimit="10"/>
<path d="M419.4 613.3L428.4 613.5L428.8 637.5L424.1 638.2H406.7V640.3L413.4 640.4" stroke="black" stroke-width="0.3" stroke-miterlimit="10"/>
<path d="M406.3 618.1L419.3 618.4V617.7" stroke="black" stroke-width="0.3" stroke-miterlimit="10"/>
<path d="M404.5 617.7H403.7" stroke="black" stroke-width="0.3" stroke-miterlimit="10"/>
</svg>
