<svg width="828" height="762" viewBox="0 0 828 762" fill="none" xmlns="http://www.w3.org/2000/svg">
<path d="M416.6 632.2V629.3C418.6 628.9 420.1 627.1 420.1 625C420.1 623 418.8 621.4 417.1 620.8V617.8C420.5 618.4 423 621.4 423 625C423 625.5 423 625.7 422.9 626.1L425.7 626.5C425.8 625.9 425.9 625.6 425.9 625C425.9 619.4 421.4 614.9 415.8 614.9C411.6 614.9 408.2 617 406.7 620.7L409.2 622C410.2 619.8 412.2 618.2 414.8 617.9V620.9C412.9 621.4 411.5 623.1 411.5 625.2C411.5 627.1 412.7 628.7 414.4 629.3V632.3C411.1 631.6 408.6 628.7 408.6 625.1C408.6 624.7 408.6 624.2 408.7 623.8L405.9 623.5C405.8 624 405.8 624.5 405.8 625.1C405.8 630.7 410.3 635.2 415.9 635.2C420.2 635.2 423.8 632.9 425.2 629L422.7 627.8C421.5 630.1 419.3 631.8 416.6 632.2Z" fill="#AAAAAA"/>
<path d="M614.5 484.5L613 490L635 496L653.5 428L631.5 422L615.7 480.2L614.5 484.5Z" fill="#AAAAAA"/>
<path d="M634 435.9L632.7 435.5L633.3 433.1L630.1 432.2L628.8 436.8L632.7 437.9L633.4 438.1L634 435.9Z" fill="#F9EA3A"/>
<path d="M629.3 434.6L634.1 435.9" stroke="black" stroke-width="0.3" stroke-miterlimit="10"/>
<path d="M630.1 432.2L628.8 436.9" stroke="black" stroke-width="0.3" stroke-miterlimit="10"/>
<path d="M630.7 432.4L629.4 437.1" stroke="black" stroke-width="0.3" stroke-miterlimit="10"/>
<path d="M631.4 432.5L630.1 437.2" stroke="black" stroke-width="0.3" stroke-miterlimit="10"/>
<path d="M632 432.8L630.7 437.5" stroke="black" stroke-width="0.3" stroke-miterlimit="10"/>
<path d="M632.7 432.9L631.4 437.6" stroke="black" stroke-width="0.3" stroke-miterlimit="10"/>
<path d="M633.3 433.1L632 437.8" stroke="black" stroke-width="0.3" stroke-miterlimit="10"/>
<path d="M633.3 435.6L632.7 437.9" stroke="black" stroke-width="0.3" stroke-miterlimit="10"/>
<path d="M634 435.8L633.4 438.1" stroke="black" stroke-width="0.3" stroke-miterlimit="10"/>
<path d="M622.5 479.5L621.2 479.1L620.4 481.5L617.2 480.6L618.5 475.9L622.4 477L623.1 477.2L622.5 479.5Z" fill="#F9EA3A"/>
<path d="M617.8 478.1L622.6 479.5" stroke="black" stroke-width="0.3" stroke-miterlimit="10"/>
<path d="M617.2 480.6L618.5 475.9" stroke="black" stroke-width="0.3" stroke-miterlimit="10"/>
<path d="M617.9 480.7L619.2 476" stroke="black" stroke-width="0.3" stroke-miterlimit="10"/>
<path d="M618.5 481L619.8 476.3" stroke="black" stroke-width="0.3" stroke-miterlimit="10"/>
<path d="M619.2 481.1L620.5 476.4" stroke="black" stroke-width="0.3" stroke-miterlimit="10"/>
<path d="M619.8 481.2L621.1 476.6" stroke="black" stroke-width="0.3" stroke-miterlimit="10"/>
<path d="M620.4 481.5L621.8 476.8" stroke="black" stroke-width="0.3" stroke-miterlimit="10"/>
<path d="M621.8 479.3L622.4 477" stroke="black" stroke-width="0.3" stroke-miterlimit="10"/>
<path d="M622.4 479.4L623.1 477.2" stroke="black" stroke-width="0.3" stroke-miterlimit="10"/>
<path d="M635.7 436.6L635.1 438.6L627.5 436.6" stroke="black" stroke-width="0.3" stroke-miterlimit="10"/>
<path d="M623.6 482.3L615.7 480.2" stroke="black" stroke-width="0.3" stroke-miterlimit="10"/>
<path d="M617.1 475.4L624.7 477.6L624.1 479.8" stroke="black" stroke-width="0.3" stroke-miterlimit="10"/>
<path d="M631.531 421.961L612.983 489.979L634.98 495.978L653.529 427.959L631.531 421.961Z" stroke="black" stroke-width="0.3" stroke-miterlimit="10"/>
<path d="M636.5 433.8L628.9 431.7" stroke="black" stroke-width="0.3" stroke-miterlimit="10"/>
<path d="M517.445 492.755L511.727 513.792L579.47 532.205L585.188 511.168L517.445 492.755Z" fill="#AAAAAA"/>
<path d="M527.3 502.3L527.6 500.9L525.3 500.3L526.1 497L530.8 498.2L529.7 502.1L529.6 502.9L527.3 502.3Z" fill="#F9EA3A"/>
<path d="M528.5 497.6L527.3 502.4" stroke="black" stroke-width="0.3" stroke-miterlimit="10"/>
<path d="M526.1 497L530.8 498.3" stroke="black" stroke-width="0.3" stroke-miterlimit="10"/>
<path d="M526 497.7L530.7 498.9" stroke="black" stroke-width="0.3" stroke-miterlimit="10"/>
<path d="M525.9 498.4L530.4 499.6" stroke="black" stroke-width="0.3" stroke-miterlimit="10"/>
<path d="M525.6 499L530.4 500.2" stroke="black" stroke-width="0.3" stroke-miterlimit="10"/>
<path d="M525.5 499.6L530.2 500.9" stroke="black" stroke-width="0.3" stroke-miterlimit="10"/>
<path d="M525.3 500.3L530 501.5" stroke="black" stroke-width="0.3" stroke-miterlimit="10"/>
<path d="M527.5 501.5L529.7 502.1" stroke="black" stroke-width="0.3" stroke-miterlimit="10"/>
<path d="M527.3 502.2L529.5 502.8" stroke="black" stroke-width="0.3" stroke-miterlimit="10"/>
<path d="M526.6 495.1L524.6 503.1" stroke="black" stroke-width="0.3" stroke-miterlimit="10"/>
<path d="M531.2 496.4L529.2 504.5L527 503.8" stroke="black" stroke-width="0.3" stroke-miterlimit="10"/>
<path d="M570.3 513.8L570.7 512.5L573 513.1L573.9 509.8L569.3 508.6L568.2 512.5L568 513.2L570.3 513.8Z" fill="#F9EA3A"/>
<path d="M571.5 509.1L570.3 513.9" stroke="black" stroke-width="0.3" stroke-miterlimit="10"/>
<path d="M573.9 509.8L569.2 508.6" stroke="black" stroke-width="0.3" stroke-miterlimit="10"/>
<path d="M573.7 510.5L569 509.3" stroke="black" stroke-width="0.3" stroke-miterlimit="10"/>
<path d="M573.6 511.2L568.9 509.9" stroke="black" stroke-width="0.3" stroke-miterlimit="10"/>
<path d="M573.3 511.8L568.6 510.6" stroke="black" stroke-width="0.3" stroke-miterlimit="10"/>
<path d="M573.2 512.4L568.5 511.2" stroke="black" stroke-width="0.3" stroke-miterlimit="10"/>
<path d="M573 513.1L568.3 511.8" stroke="black" stroke-width="0.3" stroke-miterlimit="10"/>
<path d="M570.5 513.1L568.2 512.5" stroke="black" stroke-width="0.3" stroke-miterlimit="10"/>
<path d="M570.3 513.8L568.1 513.2" stroke="black" stroke-width="0.3" stroke-miterlimit="10"/>
<path d="M517.406 492.685L511.687 513.722L579.43 532.135L585.149 511.098L517.406 492.685Z" stroke="black" stroke-width="0.3" stroke-miterlimit="10"/>
<path d="M572.4 515.8L574.5 508.2" stroke="black" stroke-width="0.3" stroke-miterlimit="10"/>
<path d="M569.6 506.9L567.6 514.7L569.5 515.2" stroke="black" stroke-width="0.3" stroke-miterlimit="10"/>
<path d="M551.4 515.5L537.5 511.5L535.2 520.1" stroke="black" stroke-width="0.3" stroke-miterlimit="10"/>
<path d="M550.5 519L549.2 523.9" stroke="black" stroke-width="0.3" stroke-miterlimit="10"/>
<path d="M405.6 623.5V626.3L406.6 629.4L409 628L408.5 626.4L408.4 623.9L405.6 623.5Z" fill="#F9EA3A"/>
<path d="M425.7 626.5L425.6 623.2L424.7 620.2L422.2 621.5L422.8 623.1L422.9 626.1L425.7 626.5Z" fill="#F9EA3A"/>
<path d="M422.6 638.2L422.1 660.7L402.8 660.3L403 638.2L403.7 612.8L428.4 613.5L428.8 637.5L424.1 638.2H403" stroke="black" stroke-width="0.3" stroke-miterlimit="10"/>
<path d="M425.7 626.5L422.9 626.1C423 625.7 423 625.3 423 624.9C423 623.6 422.7 622.4 422.1 621.4L424.6 620.1" stroke="black" stroke-width="0.3" stroke-miterlimit="10"/>
<path d="M406.6 629.4L409 628C408.6 627 408.3 626 408.3 624.9C408.3 624.6 408.3 624.2 408.4 623.9L405.6 623.5" stroke="black" stroke-width="0.3" stroke-miterlimit="10"/>
<path d="M405.6 624.3L408.2 624.5" stroke="black" stroke-width="0.3" stroke-miterlimit="10"/>
<path d="M405.6 625.3L408.3 625.1" stroke="black" stroke-width="0.3" stroke-miterlimit="10"/>
<path d="M405.6 626.3L408.3 625.9" stroke="black" stroke-width="0.3" stroke-miterlimit="10"/>
<path d="M405.8 627.3L408.5 626.4" stroke="black" stroke-width="0.3" stroke-miterlimit="10"/>
<path d="M406 628.1L408.6 627.1" stroke="black" stroke-width="0.3" stroke-miterlimit="10"/>
<path d="M406.3 628.8L408.8 627.6" stroke="black" stroke-width="0.3" stroke-miterlimit="10"/>
<path d="M424.9 620.7L422.4 622" stroke="black" stroke-width="0.3" stroke-miterlimit="10"/>
<path d="M425.2 621.5L422.6 622.6" stroke="black" stroke-width="0.3" stroke-miterlimit="10"/>
<path d="M425.5 622.4L422.8 623.2" stroke="black" stroke-width="0.3" stroke-miterlimit="10"/>
<path d="M425.7 623.2L422.9 623.7" stroke="black" stroke-width="0.3" stroke-miterlimit="10"/>
<path d="M425.8 624.1L423 624.3" stroke="black" stroke-width="0.3" stroke-miterlimit="10"/>
<path d="M425.8 624.9H423" stroke="black" stroke-width="0.3" stroke-miterlimit="10"/>
<path d="M425.8 625.6L423 625.5" stroke="black" stroke-width="0.3" stroke-miterlimit="10"/>
<path d="M425.8 624.9C425.8 625.4 425.8 625.9 425.7 626.4C425.6 627.3 425.3 628.1 425 628.9C423.4 632.4 419.9 634.9 415.8 634.9C410.2 634.9 405.7 630.4 405.7 624.8C405.7 623.1 406.1 621.6 406.8 620.2C408.5 616.9 411.9 614.7 415.8 614.7C421.2 614.8 425.8 619.3 425.8 624.9Z" stroke="black" stroke-width="0.3" stroke-miterlimit="10"/>
<path d="M423 624.9C423 621.4 420.5 618.4 417.2 617.7L417.1 620.9C418.8 621.5 420 623.1 420 624.9C420 626.9 418.7 628.5 416.8 629V632.1C419.3 631.7 421.5 630 422.4 627.8L424.9 629" stroke="black" stroke-width="0.3" stroke-miterlimit="10"/>
<path d="M406.5 620.6L409 621.8C410 619.6 412.1 618 414.6 617.6L414.4 620.8C412.7 621.3 411.4 623 411.4 624.9C411.4 626.7 412.6 628.3 414.2 628.9L414 632.1C410.8 631.3 408.3 628.4 408.3 625" stroke="black" stroke-width="0.3" stroke-miterlimit="10"/>
</svg>
