<svg width="1560" height="1033" viewBox="0 0 1560 1033" fill="none" xmlns="http://www.w3.org/2000/svg">
<path d="M769.4 259.3V256.8H771.1V257.1C771.1 257.4 771.1 261.2 771.1 261.5V261.8H769.4V259.3Z" fill="#C99147"/>
<path d="M741.2 259.3V256.8H742.9V261.7H741.2V259.3Z" fill="#C99147"/>
<path d="M758.6 265.9V264.8H760.7V266.9H758.6V265.9Z" fill="#C99147"/>
<path d="M751.5 265.9V264.8H753.6V265.9V267H751.5V265.9Z" fill="#C99147"/>
<path d="M761.4 271V270.1H761.7C761.9 270.1 762.9 270.1 764.1 270.1H766.2V271.9H761.5L761.4 271Z" fill="#C99147"/>
<path d="M746.1 271V270.1H748.2C749.3 270.1 750.4 270.1 750.6 270.1H750.9V271.9H746.2L746.1 271Z" fill="#C99147"/>
<path d="M757.3 277.9V275.2H758.7V280.6H757.3V277.9Z" fill="#C99147"/>
<path d="M753.6 277.9V275.2H755V277.9V280.6H753.6V277.9Z" fill="#C99147"/>
<path d="M707.524 341.413C707.524 340.913 707.524 340.013 707.524 339.313V338.113H708.924V340.213H709.424V338.113H710.824V342.313H707.624L707.524 341.413Z" fill="#C99147"/>
<path d="M713.924 325.513V324.813H714.424H714.924V323.313H716.324V323.813C716.324 324.113 716.324 324.713 716.324 325.313V326.313H713.924V325.513Z" fill="#C99147"/>
<path d="M711.124 325.213C711.124 324.713 711.124 324.013 711.124 323.713V323.213H712.524V324.713H713.024H713.524V325.413V326.113H711.124V325.213Z" fill="#C99147"/>
<path d="M650.424 336.713V334.513H653.424V339.013H652.024V338.713C652.024 338.613 652.024 338.013 652.024 337.413V336.413H651.824V337.413C651.824 338.013 651.824 338.513 651.824 338.713V339.013H650.424V336.713Z" fill="#C99147"/>
<path d="M759.2 252.2V255.6V259H759.6V259.3H756.3V259H759V252.2H753.4V259H754.6V259.3H749.3V259.8H748.9V259.3H743.3V261.9H746.1H748.9V261.7V261.5H749.3V262.1V262.3H742.9V261.9H741.2V262.3H741V265H744.6H748.2V265.1V265.2H746.9V269.9H749.1H751.3V267.5V265.1H750V264.8H753.7V261.6H756.2V261.9H754V266.6H758.4V262H757.9V261.7H758.7V264.8H765H771.3V263.5V262.2H771.2H771.1V261.8H769.4V262.2H763V262V261.5H763.4V261.9H769V259.3H763.4V259.8H763V259.3H761.3V259H765.3V255.6V252.2H762.2H759.2ZM751.6 267V270.2H750.9V272H755.2V271L755 270.8L754.8 270.6L754.9 270.5L755 270.4L755.2 270.6L755.4 270.8V273.2L755.2 273.4L755 273.6L754.9 273.5L754.8 273.4L755 273.2L755.2 273V272.1H753.6V272.9H753.3V272.1H747V278.5H753.3V274.6H753.6V275.1H755H755.6V275.3V275.5H755.4H755.2V278.5H757V275.5H756.8H756.6V275.3V275.1H757.2H758.6V274.6H758.9V278.5H762.1H765.3V272.1H762.1H758.9V272.9H758.6V272.1H757V273L757.2 273.2L757.4 273.4L757.3 273.5L757.2 273.6L757 273.4L756.8 273.2V270.8L757 270.6L757.2 270.4L757.3 270.5L757.4 270.6L757.2 270.8L757 271V271.9H761.3V271V270.1H760.6V267H756H751.6Z" fill="#70777F" stroke="#2D2D2D" stroke-width="0.2" stroke-miterlimit="10"/>
<path d="M657.6 338V334.9V325.2H657.4V330.6H653.1V329.2H652.8V329.4H652.9V334.9H645V329.4H647.2H649.4V326.9H649.6V329.4H650.4C650.8 329.4 651.2 329.4 651.2 329.4V329.2V324.7H648V323.9V323.1H652.7H657.4V323.8H657.6V323H695.6V329.4H699.8V329.2H695.9V323H699H702.1V326V329.1H701.4V329.3H702.4V326.1V322.9H705.6H708.8V317H714.3V313.8H714.1C714 313.8 713.6 313.8 713.3 313.8H712.6V315.3H711.6V316.7H711.1V315.3H710.1V313.8H708.7V312.2V310.6H713.2H717.7V311.6H717.9V311.1V310.6H728.7H739.5V328.5H727.1H714.7V319.8H719.5H724.3V314.5H720.1V314.8H720.9V319.6H717.8V314.8H718.6V314.5H718.2H717.8V314.2V313.9H717.6V314.8V319.6H714.4V324.1V328.6H711.3H708.2V334.9H707.7V335.1H708.2V338.1H704.9V335.1H706.2V334.9H704.4V335.1H704.7V338.3H708.2V341.2H702.1V335.1H702.8V334.9H695.4V341.2H657.4L657.6 338Z" fill="#70777F" stroke="#2D2D2D" stroke-width="0.2" stroke-miterlimit="10"/>
</svg>
