<svg width="1560" height="1033" viewBox="0 0 1560 1033" fill="none" xmlns="http://www.w3.org/2000/svg">
<path d="M803.424 325.513V324.813H803.624C803.724 324.813 803.924 324.813 804.124 324.813H804.424V324.013V323.213H805.124H805.824V326.213H803.424V325.513Z" fill="#E5B148"/>
<path d="M800.524 324.713V323.213H801.224H801.924V324.013V324.813H802.224C802.324 324.813 802.624 324.813 802.724 324.813H802.924V326.213H800.524V324.713Z" fill="#E5B148"/>
<path d="M863.524 336.614V334.414H866.524V338.914H865.124V336.414H864.924V338.914H863.524V336.614Z" fill="#E5B148"/>
<path d="M806.224 340.213V338.113H807.624V340.213H808.124V338.113H809.524C809.524 338.113 809.524 339.113 809.524 340.213V342.313H806.324V340.213H806.224Z" fill="#E5B148"/>
<path d="M707.524 341.413C707.524 340.913 707.524 340.013 707.524 339.313V338.113H708.924V340.213H709.424V338.113H710.824V342.313H707.624L707.524 341.413Z" fill="#E5B148"/>
<path d="M713.924 325.513V324.813H714.424H714.924V323.313H716.324V323.813C716.324 324.113 716.324 324.713 716.324 325.313V326.313H713.924V325.513Z" fill="#E5B148"/>
<path d="M711.124 325.213C711.124 324.713 711.124 324.013 711.124 323.713V323.213H712.524V324.713H713.024H713.524V325.413V326.113H711.124V325.213Z" fill="#E5B148"/>
<path d="M650.424 336.713V334.513H653.424V339.013H652.024V338.713C652.024 338.613 652.024 338.013 652.024 337.413V336.413H651.824V337.413C651.824 338.013 651.824 338.513 651.824 338.713V339.013H650.424V336.713Z" fill="#E5B148"/>
<path d="M778.9 309.4V310.9H779.2V311.1H778.9V311.2V311.3H778.8H778.7V313.5H778.5V311.3H772.5V321.6H773.1V322H774.6V321.6H776.7V322H778.2V321.8V321.6H780C781 321.6 782.6 321.6 783.6 321.6H785.4V322H786.9V321.8V321.6H789.6V321.7C789.6 321.8 789.6 321.8 789.6 321.9V322H791.1V321.9C791.1 321.9 791.1 321.8 791.1 321.7V321.6H792.9C793.9 321.6 795.5 321.6 796.5 321.6H798.3V322H799.8V321.9C799.8 321.9 799.8 321.8 799.8 321.7V321.6H801.2V325.2V328.8H802.5H803.9V328.9H805.3V330.8H805.8V328.9H806.4C806.7 328.9 807.1 328.9 807.2 328.9H807.4V332.8H807.7V332.9C807.7 333 807.7 333 807.7 333.1V333.2H809.2V332.8H810.2V333.6H811C811.5 333.6 811.9 333.6 811.9 333.6V333.8V336.4H810.2V340.9H813.1V333.8H812.9V333.6H813C813.1 333.6 813.5 333.6 813.9 333.6H814.6V333.8H813.3V340.9H814.3V341.1H813.5C813.1 341.1 812.1 341.1 811.4 341.1H810.1V341.9V342.7H816.2V341.2H815.8V341H816.8V341.2H816.6H816.4V342V342.8H819.5H822.6V341.3H822.4H822.2V341.1H824H825.8V337.5V333.9H824.7V333.7H825.3C825.6 333.7 826.2 333.7 826.7 333.7H827.4V334.1H828.9V333.7H829.2C829.6 333.7 834.9 333.7 835.4 333.7H835.8V334.1H837.3V333.9V333.7H838C838.4 333.7 839.1 333.7 839.5 333.7H840.3V334.1H841.8V333.9V333.7H842.2C842.4 333.7 844.6 333.7 847.1 333.7C849.6 333.7 851.9 333.7 852.3 333.7H852.9V333.9V334.1H854.4V333.7H854.9C855.2 333.7 856.8 333.7 858.5 333.7H861.6V334.3V334.9H861.8V335V335.2H862.5H863.2V335V334.8H864.1H865V335V335.2H866.5V334.8H867.1V329.4H864.9H862.7V326.7H862.5V329.4H861.1V330.6H859.5V330.5V330.4H860.2H860.9V324.7H864.1V323.3H863V323H865.4V323.2H864.3V329.1H867.1V323.2H867H866.9V323.1V323H867.2V321.5H861.2V323H861.5V323.2H858V330.3H858.1V330.5H856.6V330.3H857.8V323.2H856.6V323H861V321.5H854.9V323H855.2V323.2H851.7V327.2H854.5V328.7V330.2H854.8H855.1V330.4H847.9V330.2H848.2H848.5V329.6V329H848.7V330.1H851.3V327.3H848.7V327.5H848.5V327H851.3V323H845.2V330.1H846.4V330.3H843.7V330.1H844.3H844.9V326.5V322.9H838.8V326.9H841.7V330H842.3V330.2H835.1V330H835.8V326.9H838.6V322.9H837.6V323H841.8V321.5H835.7V323H836.1V323.2H832.5V326.8V330.4H833.1H833.7V330.6H831.2V330.4H832.3V323.3H826.2V327.3H829V327.8H828.8V327.6H826.2V330.4H828.8V329.3H829V329.9V330.5H829.4H829.8V330.7H822.4V330.6C822.4 330.5 822.4 330.5 822.4 330.4V330.3H820.9V330.4C820.9 330.4 820.9 330.5 820.9 330.6V330.7H820.5V333.6H821.4C821.9 333.6 822.6 333.6 822.9 333.6H823.4V333.8H822.7V334.9H822.5V333.8H821.2H819.9V336.6H821.2H822.5V336.4H822.7V336.9H819.9V340.9H821V341.1H818.5V340.9H819.1H819.7V336.9H818.3H816.9V336.4H817.1V336.6H818.4H819.7V335.2V333.8H817.1V334.9H816.9V333.8H816.4V333.6H816.8C817 333.6 817.6 333.6 818.2 333.6H819.2V330.7H818.7V330.3H817.2V330.7H810.3V327.3H810.5H810.7V325.8H810.5H810.3V323.5H803.9V319.2H800.9H797.9V319V318.8H798.1V319H803.9V317H798.1V317.2H797.9V316.7H798.4V313.8H798.6H800V314.1C800 314.2 800 314.6 800 314.9V315.4H801V316.8H801.5V315.4H802.5V313.9H803.9V311.3H802V311H803.4V309.5H798V311H799.6V311.3H797.2H794.8V318.7H793.3V318.5V318.3H791.8V318.5V318.7H788.2H784.6V318.6V318.5H785.2V315.4H788V311.4H784.5V311.2H784.8V309.7H781.8L778.9 309.4ZM780.7 310.9H783.2V311V311.1H782.6H782V318.2H783.2V318.4H780.9C779.6 318.4 778.6 318.4 778.6 318.4C778.6 318.4 778.6 315.2 778.6 315V314.9H778.8V315.1H779.5V315.3H778.8V318.2H781.7V315.3H781V315.1H781.7V313.1V311.1H781.2H780.7V311V310.9ZM774.1 313.3C774.6 313.3 775.7 313.8 775.8 314V314.2V314.3C775.8 314.3 775.7 314.5 775.7 314.6C775.6 314.9 775.6 314.9 775.5 315.1C775.4 315.4 775.4 315.6 775.3 315.7V315.8H775.2L775.1 315.9C775 315.9 774.8 315.9 774.4 315.7C774.2 315.6 774 315.5 773.7 315.5C773.3 315.4 773.1 315.3 773.1 315.1C773.1 315.1 773.1 315 773.2 315L773.3 314.9L773.5 314.7C773.8 314.4 773.9 314.3 773.9 314.2V314.1V313.9V313.7V313.6C773.9 313.4 774 313.3 774.1 313.3ZM795.3 319.3L795.5 319.5L795.3 319.7L795.1 319.9H793L792.8 319.7L792.6 319.5L792.7 319.4C792.8 319.3 792.8 319.3 793 319.5L793.1 319.6H795L795.2 319.4L795.3 319.3ZM793 320.9H795.1L795.3 321.1L795.5 321.3L795.4 321.4L795.3 321.5L795.1 321.3L794.9 321.1H793L792.9 321.2L792.8 321.3L792.7 321.2L792.6 321.1L792.8 320.9H793ZM791.7 322.8L791.6 324.3H792.1V322.8H791.9C791.8 322.8 791.8 322.8 791.7 322.8ZM816.8 322.9V323.4H818.3V322.9H817.6H816.8ZM820.7 322.9V323C820.7 323.1 820.7 323.2 820.7 323.2V323.3H822.2V323.2C822.2 323.1 822.2 323 822.2 323V322.9H821.5H820.7ZM822.8 327.7V329.2H822.9C822.9 329.2 823 329.2 823.1 329.2H823.3V327.7H823.1H822.8ZM791.8 328.8V329.3H793.3V328.8H792.6H791.8ZM795.8 328.8V328.9C795.8 329 795.8 329.1 795.8 329.1V329.2H797.3V329.1C797.3 329 797.3 328.9 797.3 328.9V328.8H796.6H795.8ZM827.2 340.8V341.3H828.7V341.1C828.7 341 828.7 340.9 828.7 340.9V340.8H828H827.2ZM861.5 340.8C861.5 340.9 861.5 341 861.5 341.1V341.3H863V340.8H862.3H861.5ZM865.4 340.8V341.3H866.9V340.8H866.2H865.4Z" fill="#70777F" stroke="#2D2D2D" stroke-width="0.2" stroke-miterlimit="10"/>
<path d="M708.8 309.3V310.1V310.9H709.5H710.2V311.1H708.8V313.8H710.2V315.3H711.2V316.7H711.7V315.3H712.7V314.5V313.7H713.3C713.6 313.7 714 313.7 714.1 313.7H714.3V316.6H714.8V318.9H708.8V323.2H702.4V325.5H702.2V323.2H702V323.1H701.6V323H702V321.5H696V323H696.1H696.2V323.1V323.2H692.8V326.8V330.4H693.4H694V330.6H691.5V330.4H692.6V323.3H691.5V323H695.8V322.2V321.4H692.7H689.6V322.9H690V323.1H689V323H689.3V321.5H683.2V323H683.6V323.2H680V330.3H681.6H683.2V328.8V327.3H686V323.3H685V323H687.5V323.2H686.4V327.2H689.2V327.7H689V327.5H686.4V330.3H687.7H689V329.7V329.1H689.2V329.7V330.3H689.6H690V330.5H687V333.4H687.5V333.8H689V333.4H689.5C690.2 333.4 695.2 333.4 695.7 333.4H696.1V333.6H695.6V336.7H694.2H692.8V338.7V340.7H698.9V337.1V333.5H698.3H697.7V333.3H698.4C698.8 333.3 699.2 333.3 699.3 333.3H699.4V333.5H699.2V340.6H702.1V336.1H700.4V333.4V333.2C700.4 333.2 700.8 333.2 701.3 333.2H702.1V332.3H703.1V332.7H704.6V332.3H704.9V328.5H706.5V330.4H707V328.5H707.7H708.4V328.4H711.1V321.2H712.5V321.6H714V321.4V321.2H721.1V321.6H722.6V321.2H725.3V321.4H724V328.5H730.1V324.5H727.3V324H727.5V324.3H730.1V321.5H728.8H727.5V322V322.5H727.3V322V321.5H727H726.7V321.3H733.9V321.5H733.6H733.3V322V322.5H733V322V321.5H731.7H730.4V324.3H733V324H733.2V324.5H730.4V328.5H733.9V328.7H733.6V330.2H739.6V328.7H739.3V328.5H739.6V324.9V321.3H739.3H739V321.1H739.3H739.6V316V310.9H733.6V313.2H733.5C733.4 313.2 733.4 313.2 733.3 313.2H733.2V314.7H733.6V314.9C733.6 315 733.6 315.8 733.6 316.7V318.3H731.3H729V317.9H728.3H727.6V318.1V318.3H720.5V318.1H721.1V317H721.3V318.1H723.9V315.3H721.3V315.5H721.1V315H723.9V311H720.5V310.8H720.7V309.3H714.6V310.8H714.8V311H714.6C714.5 311 714.1 311 713.6 311H712.8V310.8H714.4V309.3H711.7H708.8ZM727.5 310.7C727.5 310.8 727.5 310.9 727.5 310.9C727.5 310.9 727.5 311 727.5 311.1V311.2H729V311.1C729 311.1 729 311 729 310.9C729 310.9 729 310.8 729 310.7V310.6H728.3H727.5V310.7ZM731.5 310.7C731.5 310.8 731.5 310.9 731.5 311V311.2H733V310.7H732.3H731.5ZM716.1 310.8H718.8V311H717.6V318.1H718.8V318.3H717.4V314.6V310.9H716.8H716.2V311V310.8H716.1ZM731.2 315V315.1C731.2 315.2 731.2 315.3 731.2 315.3V315.4H732.7V315H732H731.2ZM713.5 319.5C713.7 319.5 713.8 319.5 714.1 319.6C714.2 319.7 714.4 319.7 714.4 319.7H714.5H714.6H714.7L714.9 319.6C715 319.6 715.2 319.5 715.2 319.5H715.3H715.4H715.5V319.6C715.5 319.7 715.6 319.9 715.6 320V320.2V320.4C715.6 320.5 715.6 320.6 715.6 320.7V320.8V320.9V321H715.5H715.4H715.3H715.2H714.9H714.6H714.4C713.8 321.1 713.7 321 713.6 320.8V320.7V320.6C713.6 320.5 713.6 320.4 713.6 320.3V320.1V319.8L713.5 319.5C713.4 319.6 713.4 319.6 713.5 319.5ZM657.4 321.5H654.3H651.2V322.3V323.1H651.6V323.3H648V324.7H651.2V327.4V330.4H651.9H652.6V330.6H651V329.4H649.6V326.7H649.4V329.4H648.8C648.5 329.4 647.9 329.4 647.6 329.4H647V329.2H647.7V323.3H646.6V323H650.9V321.5H644.9V323H645.2V323.2H645V326.1V329.1H645.3H645.6V329.3H645V334.6H645.6V334.8H645V340.7H647.8V335H647.1V334.8H648.9V335.2H650.4V334.8H650.6V334.2V333.6H653.7C655.4 333.6 657 333.6 657.3 333.6H657.8V333.8H657.3V334.9H657.2H657.1V334.3V333.7H655.8H654.5V335.1V336.5H657.1V336.3H657.3V336.8H654.5V340.8H657.9V341H657.7V342.5H663.8V341H663.6V340.8H667V336.8H664.2V333.7H663.6V333.5H664C664.6 333.5 669.8 333.5 670.2 333.5H670.5V333.7H670.3H670.1V335.2V336.7H668.7H667.3V338.7V340.7H668.5V340.9H664V342.4H667.1H670.2V341.7V340.9H670V340.7H673.4V337.1V333.5H672.7H672V333.3H675V333.5H673.7V340.6H677.2V340.8H676.9V341.6V342.4H680H683.1V340.9H682.7V340.7H686.3V333.6H685V333.4H685.7V331.7H684V331.1V330.5H681.3H678.6V330.3H679.2H679.8V326.7V323.1H678.7V323H683V321.5H676.9V323H677.2V323.2H676.2V323H676.6V321.5H670.5V323H670.8V323.2H667.3V330.3H668.5V330.5H665.8V330.1H664.3V330.5H661.4V333.4H662.1V333.6H660.9V340.7H662.1V340.8V340.9H660.7H659.3V340.7H660.6V333.6H659.3V333.4H659.8V331.9V330.4H658.4H657V330.2H657.3H657.6V328.7V327.2H660.4V323.2H656.9V323H657.2V322.2L657.4 321.5ZM735.4 321.5H737.5V321.7H737.1H736.7V325.3V328.9H737.8V329.1H736.6C735.9 329.1 735.4 329.1 735.4 329.1V329V328.9H736.5V321.8H735.4V321.7V321.5ZM720.1 322.8V324.3H720.6V322.8H720.4H720.1ZM653.2 323H655.7V323.2H654.5V330.3H655.7V330.5H654.2V330.3H654.3H654.4V326.7V323.1H653.3L653.2 323ZM672.2 323H674.7V323.2H673.7V327.2H675.1H676.5V327.4V327.6H676.3V327.4H673.7V328.8V330.2H675H676.3V329H676.5V330.2H677.2V330.4H675.5C674.6 330.4 673.7 330.4 673.6 330.4C673.5 330.4 672.6 330.4 671.7 330.4H670V330.2H670.5V329.1H670.7V330.2H673.3V327.4H670.7V327.6H670.5V327.1H673.4V323.1H672.2V323ZM697.6 323H700.1V323.2H699.2V327.2H702.1V327.1H702.3V330.5H700.8C700 330.5 699.2 330.5 699.1 330.5C699 330.5 698.1 330.5 697.2 330.5H695.4V330.3H696V328.8V327.3H697.4H698.8V323.3H697.5V323.2L697.6 323ZM699.4 331H699.6H699.7C699.8 331 699.9 331.1 699.9 331.2V331.3V331.5C699.9 331.6 699.9 331.8 699.9 331.9V332.1V332.5V332.9V333V333.1C699.9 333.1 699.9 333.2 699.8 333.2H699.7H699.6H699.5C699.4 333.2 699.3 333.1 699.1 333C699 332.9 698.8 332.9 698.8 332.9H698.7H698.6H698.5H698.4C698.3 332.9 698.2 333 698.1 333L697.9 333.1H697.8H697.7C697.6 333.1 697.6 333 697.5 332.8V332.7V332.4V332.1V332C697.5 331.7 697.6 331.5 697.7 331.4V331.3C697.7 331.3 697.8 331.3 697.8 331.2H697.9H698H698.1H698.3C698.5 331.2 698.7 331.2 698.9 331.2H699.1L699.4 331ZM679.9 333.5C681.3 333.5 682.7 333.5 683 333.5H683.3V333.7H682.8V334.8H682.7H682.6V334.2V333.6H681.3H680V336.4H681.3H682.6V336.2H682.8V336.7H680V340.7H681.1V340.8V340.9H679.9H678.7V340.7H679.8V338.7V336.7H678.4H677V333.6H676.5V333.4H676.9C677 333.5 678.5 333.5 679.9 333.5Z" fill="#70777F"/>
<path d="M713.5 319.5C713.7 319.5 713.8 319.5 714.1 319.6C714.2 319.7 714.4 319.7 714.4 319.7H714.5H714.6H714.7L714.9 319.6C715 319.6 715.2 319.5 715.2 319.5H715.3H715.4H715.5V319.6C715.5 319.7 715.6 319.9 715.6 320V320.2V320.4C715.6 320.5 715.6 320.6 715.6 320.7V320.8V320.9V321H715.5H715.4H715.3H715.2H714.9H714.6H714.4C713.8 321.1 713.7 321 713.6 320.8V320.7V320.6C713.6 320.5 713.6 320.4 713.6 320.3V320.1V319.8L713.5 319.5ZM713.5 319.5C713.4 319.6 713.4 319.6 713.5 319.5ZM708.8 309.3V310.1V310.9H709.5H710.2V311.1H708.8V313.8H710.2V315.3H711.2V316.7H711.7V315.3H712.7V314.5V313.7H713.3C713.6 313.7 714 313.7 714.1 313.7H714.3V316.6H714.8V318.9H708.8V323.2H702.4V325.5H702.2V323.2H702V323.1H701.6V323H702V321.5H696V323H696.1H696.2V323.1V323.2H692.8V326.8V330.4H693.4H694V330.6H691.5V330.4H692.6V323.3H691.5V323H695.8V322.2V321.4H692.7H689.6V322.9H690V323.1H689V323H689.3V321.5H683.2V323H683.6V323.2H680V330.3H681.6H683.2V328.8V327.3H686V323.3H685V323H687.5V323.2H686.4V327.2H689.2V327.7H689V327.5H686.4V330.3H687.7H689V329.7V329.1H689.2V329.7V330.3H689.6H690V330.5H687V333.4H687.5V333.8H689V333.4H689.5C690.2 333.4 695.2 333.4 695.7 333.4H696.1V333.6H695.6V336.7H694.2H692.8V338.7V340.7H698.9V337.1V333.5H698.3H697.7V333.3H698.4C698.8 333.3 699.2 333.3 699.3 333.3H699.4V333.5H699.2V340.6H702.1V336.1H700.4V333.4V333.2C700.4 333.2 700.8 333.2 701.3 333.2H702.1V332.3H703.1V332.7H704.6V332.3H704.9V328.5H706.5V330.4H707V328.5H707.7H708.4V328.4H711.1V321.2H712.5V321.6H714V321.4V321.2H721.1V321.6H722.6V321.2H725.3V321.4H724V328.5H730.1V324.5H727.3V324H727.5V324.3H730.1V321.5H728.8H727.5V322V322.5H727.3V322V321.5H727H726.7V321.3H733.9V321.5H733.6H733.3V322V322.5H733V322V321.5H731.7H730.4V324.3H733V324H733.2V324.5H730.4V328.5H733.9V328.7H733.6V330.2H739.6V328.7H739.3V328.5H739.6V324.9V321.3H739.3H739V321.1H739.3H739.6V316V310.9H733.6V313.2H733.5C733.4 313.2 733.4 313.2 733.3 313.2H733.2V314.7H733.6V314.9C733.6 315 733.6 315.8 733.6 316.7V318.3H731.3H729V317.9H728.3H727.6V318.1V318.3H720.5V318.1H721.1V317H721.3V318.1H723.9V315.3H721.3V315.5H721.1V315H723.9V311H720.5V310.8H720.7V309.3H714.6V310.8H714.8V311H714.6C714.5 311 714.1 311 713.6 311H712.8V310.8H714.4V309.3H711.7H708.8ZM727.5 310.7C727.5 310.8 727.5 310.9 727.5 310.9C727.5 310.9 727.5 311 727.5 311.1V311.2H729V311.1C729 311.1 729 311 729 310.9C729 310.9 729 310.8 729 310.7V310.6H728.3H727.5V310.7ZM731.5 310.7C731.5 310.8 731.5 310.9 731.5 311V311.2H733V310.7H732.3H731.5ZM716.1 310.8H718.8V311H717.6V318.1H718.8V318.3H717.4V314.6V310.9H716.8H716.2V311V310.8H716.1ZM731.2 315V315.1C731.2 315.2 731.2 315.3 731.2 315.3V315.4H732.7V315H732H731.2ZM657.4 321.5H654.3H651.2V322.3V323.1H651.6V323.3H648V324.7H651.2V327.4V330.4H651.9H652.6V330.6H651V329.4H649.6V326.7H649.4V329.4H648.8C648.5 329.4 647.9 329.4 647.6 329.4H647V329.2H647.7V323.3H646.6V323H650.9V321.5H644.9V323H645.2V323.2H645V326.1V329.1H645.3H645.6V329.3H645V334.6H645.6V334.8H645V340.7H647.8V335H647.1V334.8H648.9V335.2H650.4V334.8H650.6V334.2V333.6H653.7C655.4 333.6 657 333.6 657.3 333.6H657.8V333.8H657.3V334.9H657.2H657.1V334.3V333.7H655.8H654.5V335.1V336.5H657.1V336.3H657.3V336.8H654.5V340.8H657.9V341H657.7V342.5H663.8V341H663.6V340.8H667V336.8H664.2V333.7H663.6V333.5H664C664.6 333.5 669.8 333.5 670.2 333.5H670.5V333.7H670.3H670.1V335.2V336.7H668.7H667.3V338.7V340.7H668.5V340.9H664V342.4H667.1H670.2V341.7V340.9H670V340.7H673.4V337.1V333.5H672.7H672V333.3H675V333.5H673.7V340.6H677.2V340.8H676.9V341.6V342.4H680H683.1V340.9H682.7V340.7H686.3V333.6H685V333.4H685.7V331.7H684V331.1V330.5H681.3H678.6V330.3H679.2H679.8V326.7V323.1H678.7V323H683V321.5H676.9V323H677.2V323.2H676.2V323H676.6V321.5H670.5V323H670.8V323.2H667.3V330.3H668.5V330.5H665.8V330.1H664.3V330.5H661.4V333.4H662.1V333.6H660.9V340.7H662.1V340.8V340.9H660.7H659.3V340.7H660.6V333.6H659.3V333.4H659.8V331.9V330.4H658.4H657V330.2H657.3H657.6V328.7V327.2H660.4V323.2H656.9V323H657.2V322.2L657.4 321.5ZM735.4 321.5H737.5V321.7H737.1H736.7V325.3V328.9H737.8V329.1H736.6C735.9 329.1 735.4 329.1 735.4 329.1V329V328.9H736.5V321.8H735.4V321.7V321.5ZM720.1 322.8V324.3H720.6V322.8H720.4H720.1ZM653.2 323H655.7V323.2H654.5V330.3H655.7V330.5H654.2V330.3H654.3H654.4V326.7V323.1H653.3L653.2 323ZM672.2 323H674.7V323.2H673.7V327.2H675.1H676.5V327.4V327.6H676.3V327.4H673.7V328.8V330.2H675H676.3V329H676.5V330.2H677.2V330.4H675.5C674.6 330.4 673.7 330.4 673.6 330.4C673.5 330.4 672.6 330.4 671.7 330.4H670V330.2H670.5V329.1H670.7V330.2H673.3V327.4H670.7V327.6H670.5V327.1H673.4V323.1H672.2V323ZM697.6 323H700.1V323.2H699.2V327.2H702.1V327.1H702.3V330.5H700.8C700 330.5 699.2 330.5 699.1 330.5C699 330.5 698.1 330.5 697.2 330.5H695.4V330.3H696V328.8V327.3H697.4H698.8V323.3H697.5V323.2L697.6 323ZM699.4 331H699.6H699.7C699.8 331 699.9 331.1 699.9 331.2V331.3V331.5C699.9 331.6 699.9 331.8 699.9 331.9V332.1V332.5V332.9V333V333.1C699.9 333.1 699.9 333.2 699.8 333.2H699.7H699.6H699.5C699.4 333.2 699.3 333.1 699.1 333C699 332.9 698.8 332.9 698.8 332.9H698.7H698.6H698.5H698.4C698.3 332.9 698.2 333 698.1 333L697.9 333.1H697.8H697.7C697.6 333.1 697.6 333 697.5 332.8V332.7V332.4V332.1V332C697.5 331.7 697.6 331.5 697.7 331.4V331.3C697.7 331.3 697.8 331.3 697.8 331.2H697.9H698H698.1H698.3C698.5 331.2 698.7 331.2 698.9 331.2H699.1L699.4 331ZM679.9 333.5C681.3 333.5 682.7 333.5 683 333.5H683.3V333.7H682.8V334.8H682.7H682.6V334.2V333.6H681.3H680V336.4H681.3H682.6V336.2H682.8V336.7H680V340.7H681.1V340.8V340.9H679.9H678.7V340.7H679.8V338.7V336.7H678.4H677V333.6H676.5V333.4H676.9C677 333.5 678.5 333.5 679.9 333.5Z" stroke="#2D2D2D" stroke-width="0.2" stroke-miterlimit="10"/>
<path d="M816.5 321.5V323H816.8V322.9H818.3V323H820.8V322.9H822.3V323H822.7V321.5H819.6H816.5ZM789.6 321.7H789H788.4V328.8H791.9V328.7H793.4V328.8H794.6V324.8H791.8V324.3H791.7V322.8H791.8V321.7H791.5H791.2V321.8H790.5H789.8L789.6 321.7ZM794.5 321.7H793.2H791.9V322.2V322.7H792V324.2H791.9V324.5H794.5V323.1V321.7ZM799.7 321.7V321.8H798.2V321.7H797.6V323.2V324.7H796.2H794.8V328.7H795.8V328.6H797.3V328.7H797.6V328.6H799.3H801V321.6H800.4L799.7 321.7ZM820.7 323.3H820.2H819.7V330.4H820.2H820.7V330.3V330.2H822.2V330.3V330.4H822.6H823V329.8V329.2H822.9H822.8V327.7H822.9V327.5V327.3H824.3H825.7V323.3H822.1V323.4L820.7 323.3ZM813.3 323.3V327.3H816.1V328.8C816.1 329.6 816.1 330.3 816.1 330.3C816.1 330.3 816.3 330.3 816.4 330.3H816.7V330.2H818.2V330.3H818.8H819.4V326.7V323.1H818.2V323.2H816.7V323.1H815L813.3 323.3ZM823.2 327.5V327.7H823.3V328.4V329.1H823.2V330.2H825.8V327.4H824.5L823.2 327.5ZM795.8 329.1H794.6H793.4V329.2H791.9V329.1H791.6V330.6H797.6V329.1H797.4H797.2V329.2V329.3H795.7L795.8 329.1ZM803.8 333V340.9H809.8V337.3H807V335H809.9V333H809.1V333.1H808.4H807.7V333H805.8H803.8ZM826.1 333.8V340.9H827.2V340.8H828.7V340.9H832.2V336.9H829.4V333.8H828.9V333.9H827.4V333.8H826.7H826.1ZM861.7 335H861.5V336.9H858V341H861.5V340.9H863V341H863.6H864.2V338V335H863.3V335.1H861.8L861.7 335ZM864.3 335V340.9H865.4V340.8H866.9V340.9V341H867.2V335H866.6V335.1H865.1V335H864.7H864.3ZM827.2 341.2H825.1H823V341.9C823 342.3 823 342.6 823 342.7H829.1V341.2H828.7V341.3H827.2V341.2ZM866.9 341.2V341.3H866.2H865.5V341.2H863V341.3H861.5V341.2H861.2V342.7H867.2V341.2H867.1H866.9Z" fill="#8F9599"/>
<path d="M727.2 309.3V310.8H727.5V310.7V310.6H729V310.7H731.5V310.6H733V310.7H733.3V309.2H730.3H727.2V309.3ZM731.5 311.1H731H730.5V313.1V315.1H731.2V315V314.9H732.7V315H733.1H733.5V314.9V314.8H733.4V314.1V313.4H733.5V311.2H733.4V311.1H733.1V311.2H731.6L731.5 311.1ZM727.5 311.1H725.8H724.1V315.1H726.9V318.2H727.5V318.1H729V318.2H730.2V311.1H729.6H729V311.2V311.3H727.5V311.1ZM730.4 315.4V318.3H733.3V315.4H732.6V315.5H731.9H731.2V315.4H730.8H730.4ZM720.3 321.7H719H717.7V323.1V324.5H720.3V324.2H720.2V322.7H720.3V322.2V321.7ZM720.5 321.7V322.8H720.6V324.3H720.5V324.8H717.6V328.8H723.7V321.7H722.5V321.8H721V321.7H720.7H720.5Z" fill="#8F9599"/>
</svg>
