<svg width="1560" height="1033" viewBox="0 0 1560 1033" fill="none" xmlns="http://www.w3.org/2000/svg">
<path d="M803.424 325.513V324.813H803.624C803.724 324.813 803.924 324.813 804.124 324.813H804.424V324.013V323.213H805.124H805.824V326.213H803.424V325.513Z" fill="#AA6E0E"/>
<path d="M800.524 324.713V323.213H801.224H801.924V324.013V324.813H802.224C802.324 324.813 802.624 324.813 802.724 324.813H802.924V326.213H800.524V324.713Z" fill="#AA6E0E"/>
<path d="M863.524 336.614V334.414H866.524V338.914H865.124V336.414H864.924V338.914H863.524V336.614Z" fill="#AA6E0E"/>
<path d="M806.224 340.213V338.113H807.624V340.213H808.124V338.113H809.524C809.524 338.113 809.524 339.113 809.524 340.213V342.313H806.324V340.213H806.224Z" fill="#AA6E0E"/>
<path d="M754.4 280.6H753.7V280.4C753.7 280.1 753.7 278 753.7 277.7V277.4H758.5V280.6H757.8C757.4 280.6 756.6 280.6 756.1 280.6C755.6 280.6 754.8 280.6 754.4 280.6Z" fill="#AA6E0E"/>
<path d="M707.524 341.413C707.524 340.913 707.524 340.013 707.524 339.313V338.113H708.924V340.213H709.424V338.113H710.824V342.313H707.624L707.524 341.413Z" fill="#AA6E0E"/>
<path d="M713.924 325.513V324.813H714.424H714.924V323.313H716.324V323.813C716.324 324.113 716.324 324.713 716.324 325.313V326.313H713.924V325.513Z" fill="#AA6E0E"/>
<path d="M711.124 325.213C711.124 324.713 711.124 324.013 711.124 323.713V323.213H712.524V324.713H713.024H713.524V325.413V326.113H711.124V325.213Z" fill="#AA6E0E"/>
<path d="M650.424 336.713V334.513H653.424V339.013H652.024V338.713C652.024 338.613 652.024 338.013 652.024 337.413V336.413H651.824V337.413C651.824 338.013 651.824 338.513 651.824 338.713V339.013H650.424V336.713Z" fill="#AA6E0E"/>
<path d="M785 310V311.5H785.2V311.7L781.8 311.6L781.6 318.7H782.8V318.9L780.5 318.8L778.2 318.7V317.1C778.2 316.2 778.2 315.4 778.2 315.3V315.1H778.4V315.3H779.1V315.5H778.4L778.3 318.4L781.2 318.5L781.3 315.6H780.6V315.4H781.3V313.4V311.4H779.9H778.5V311.5V311.6H778.4H778.3L778.2 313.8H778L778.1 311.6L772.1 311.5L771.9 318.3L750.6 317.8L750.5 321.1L771.8 321.6V321.8H772.4V322H771.8L771.6 329.1H771.9V329.3H771.6V330.8L774.6 330.9L777.6 331V330.3V329.6H777.4H777.2V329.5V329.4L780.7 329.5L780.8 325.5H779.4H778V324V322.5H777.3V322.3H779.1C780.1 322.3 781.7 322.4 782.7 322.4H784.5V322.8H786V322.6V322.5L788.7 322.6V322.7C788.7 322.8 788.7 322.8 788.7 322.9V323H790.2V322.9C790.2 322.9 790.2 322.8 790.2 322.7V322.6H792C793 322.6 794.6 322.7 795.6 322.7H797.4V323.1H798.9V322.9V322.7H800.3L800.2 326.3L800.1 329.9H801.4H802.7V330H803.4H804.1V331V332H804.6V331V330H805.3H806H806.2L806.1 333.8H806.4V334V334.2H807.9V333.8H808.9V334.7H809.7C810.2 334.7 810.6 334.7 810.6 334.7V334.9L810.5 337.5H808.8L808.7 342H809V342.2H808.7V343V343.8L814.8 343.9V342.4H814.4V342.2H814.6C814.7 342.2 815.5 342.2 816.4 342.2H818L818.1 338.2H816.7H815.3L815.4 335.1H814.9V334.9H815.3C815.8 334.9 820.9 335 821.6 335H822.1V335.2V335.4H823.6V335H824.2C824.5 335 825.1 335 825.6 335H826.3V335.2H824.9L824.7 342.3H826.3C827.2 342.3 828 342.3 828.1 342.3H828.3V342.5H827.9V344L834 344.1V342.6L829.7 342.5V342.3H830.8L830.9 338.3L828.1 338.2V337.7H828.3V337.8V337.9H829.6H830.9L831 335.1L828.4 335V336.1H828.2V335H827.8V334.8H828.1C828.5 334.8 833.8 334.9 834.3 334.9H834.7V335.1H834.4H834.1V335.7V336.3H833.9V335.2L831.3 335.1L831.2 337.9L833.8 338V337.8H834V338.3L831.2 338.2L831.1 342.2H832.7C833.6 342.2 834.4 342.2 834.5 342.2H834.7V342.4H834.3V343.9L840.4 344V342.5H840.1V342.3H840.2C840.3 342.3 841.1 342.3 841.9 342.3H843.5L843.6 338.3H842.2H840.8L840.9 335.2H840.5V335H840.8C841.2 335 846.4 335.1 847 335.1H847.4V335.3H846.8L846.7 338.4L843.9 338.3L843.8 342.3H845.4C846.3 342.3 847 342.3 847.1 342.3H847.2V342.5H847V344L853.1 344.1V342.6H852.9V342.4H853C853.1 342.4 853.8 342.4 854.7 342.4H856.3L856.4 338.4L853.6 338.3V337.8H853.8V337.9V338H855.1H856.4L856.5 335.2H855.2H853.9V335.8V336.4H853.7V335.3H853.2V335.1H853.7C854 335.1 855.6 335.1 857.3 335.2L860.4 335.3V335.9V336.5H860.6V336.6V336.7H860.5H860.4V338.6L856.8 338.5L856.7 342.6H857.8V342.8L855.7 342.7L853.6 342.6V344.1L859.7 344.2V342.7H859.3V342.5L862.9 342.6L863 336.7H862.1V336.5H863H863.9V336.6V336.7H863.2L863.1 342.6H864.2V342.8L859.9 342.7V344.2L865.9 344.3V342.8H865.8H865.7V342.7V342.6H866L866.1 336.7H865.5V336.5H866.1L866.2 331.1H864H861.8L861.9 328.6H861.7L861.6 331.1H860.2V332.3H858.6V332.2V332.1H859.3H860L860.1 326.4L863.3 326.5V325.1L857.2 325L857 332.1H857.1V332.3H855.6V332.2V332H854.1V332.4L846.9 332.2V331.8H845.4V332.2L834 331.9V331.7H834.7L834.8 328.6L837.6 328.7L837.7 324.7H836.7V324.5L839.2 324.6V324.8H838L837.9 328.8L840.8 328.9L840.7 332L844 332.1L844.2 325L840.7 324.9V324.7H841V323.2L834.9 323.1V324.6H835.3V324.8L831.7 324.7L831.5 331.8H832.1H832.7V331.9V332L830.2 331.9V331.5H828.7V331.9L821.3 331.7V331.3H819.8V331.7L817.3 331.6V331.5V331.4H817.9H818.5L818.7 324.3L815.3 324.2V324H815.5V322.5L809.5 322.4V323.9H809.9V324.1H809.5V324.2H809.4L809.3 326.5H809.1L809.2 324.2L802.8 324.1L802.9 319.8L799.9 319.7L796.9 319.6V319.4V319.2H797.1V319.4L802.9 319.5V317.6L797.1 317.5V317.7H796.9V317.2H797.4L797.5 314.3H797.7H798.4H799.1V315.1V315.9H800.1V317.3H800.6V315.9H801.6V314.4H803L803.1 311.8H801.7V311.5H803.1V310L797.6 309.9V311.4H799.2V311.7L796.8 311.6L794.4 311.5L794.2 318.9H792.8V318.7H794L794.2 311.6L790.8 311.5V311.3H791V309.8L787.9 309.7L785 310ZM786.7 311.6L789.4 311.7V311.9H788.2L788.1 315.9L790.9 316V316.5H790.7V316.4V316.3H789.4H788.1L788 319L790.6 319.1V318H790.8V319.1H791.4V319.2V319.3L787.8 319.2C785.8 319.2 784.2 319.1 784.2 319.1V319V318.9H784.8L784.9 315.8L787.7 315.9L787.8 311.9H787.2H786.6V311.8L786.7 311.6ZM786.8 320L786.9 320.1L787 320.2H788.9L789 320.1L789.1 320L789.2 320.1L789.3 320.2L789.1 320.4L788.9 320.6H786.8L786.6 320.4L786.4 320.2L786.8 320ZM787 321.6H789.1L789.3 321.8C789.5 322 789.5 322 789.4 322.1L789.3 322.2H789.2L789.1 322.1L789 322H787.1L786.9 322.1L786.7 322.2L786.6 322.1L786.5 322L786.7 321.8L787 321.6ZM774.2 321.9H776.3V322.1H775.1L774.9 329.2H776.1V329.4L773.6 329.3V329.1H774.7L774.9 322H774.2V321.9ZM848.2 325V325.1C848.2 325.2 848.2 325.3 848.2 325.3V325.4H849.7V325.3C849.7 325.2 849.7 325.1 849.7 325.1V325H849H848.2ZM852.1 325.1V325.6H853.6V325.1H852.9H852.1ZM854.6 325.1V325.6H856.1V325.1H855.4H854.6ZM811.6 324.3L814.1 324.4V324.6H812.8L812.7 328.6L815.5 328.7L815.4 331.8H816.1V332L809.2 331.8L809.3 328.4H809.5V328.5H810.2V328.7H809.8H809.4L809.3 331.5H810.8H812.3L812.4 328.6H811.7V328.4H812.4L812.5 324.4H812H811.5V324.3H811.6ZM847.8 329.8V331.3H847.9C847.9 331.3 848 331.3 848.1 331.3C848.2 331.3 848.3 331.3 848.3 331.3H848.4V329.8H848.2H847.8ZM784.8 329.4V329.9H786.3V329.8C786.3 329.8 786.3 329.7 786.3 329.6V329.4H785.6H784.8ZM789 329.5C789 329.6 789 329.7 789 329.7C789 329.7 789 329.8 789 329.9V330H790.5V329.9C790.5 329.8 790.5 329.7 790.5 329.7V329.6H789.8L789 329.5ZM825.3 332.4C825.7 332.4 826.1 332.5 826.3 332.6C826.4 332.7 826.5 332.8 826.5 332.9V333V333.3V333.6V333.8C826.5 333.9 826.5 334.1 826.5 334.2V334.3V334.4C826.5 334.5 826.5 334.5 826.5 334.6V334.7C826.4 334.8 826.2 334.8 825.7 334.8H825.4H825.1C824.5 334.8 824.3 334.8 824.3 334.6V334.5V334.4C824.3 334.3 824.4 334.2 824.5 333.9C824.6 333.8 824.6 333.7 824.6 333.6V333.5V333.4V333.3V333.2C824.6 333.2 824.6 333.1 824.5 333C824.5 332.9 824.4 332.8 824.4 332.8V332.7V332.6V332.5H824.5C824.7 332.5 825 332.4 825.3 332.4ZM812.2 334.8C812.3 334.8 812.6 334.8 813.1 334.8H813.8V335H812.5L812.3 342.1H813.3V342.3H812.5C812.1 342.3 811.5 342.3 811.3 342.3H810.8V342.1H812L812.2 335H812V334.8H812.2ZM837.3 335.4C837.7 335.4 838.4 335.4 838.8 335.4H839.6V335.6H838.2L838 342.7H839.2V342.9L836.7 342.8V342.6H837.7L837.9 335.5H836.6V335.3L837.3 335.4ZM850.1 335.7C850.5 335.7 851.1 335.7 851.5 335.7H852.2V335.9H850.9L850.7 343H852V343.2L849.3 343.1V342.9H850.5L850.7 335.8H849.5V335.6L850.1 335.7Z" fill="#9AA5AF" stroke="#2D2D2D" stroke-width="0.2" stroke-miterlimit="10"/>
<path d="M745.9 260.3V262H744H742.1L742 264.2V266.2H743.4V268.3H743.7V268.6H743.4L743.3 271.8H742.1V272H742H741.9V271.7V271.4H743.1L743.2 269L743.3 266.3H742.2V266.4V266.5L739.8 266.4L739.7 271.7L736.9 271.6L734.1 271.5L733.9 278.4L733.7 285L747.2 285.3V283.6V281.9H745.7C744.9 281.9 743.5 281.8 742.7 281.8H741.2V281.1H741.5V281.3V281.5H742.9H744.3L744.4 277.7L741.6 277.6V279.3H741.3V278.4V277.5H740H738.7L738.8 273.1L741.9 273.2V273.1V273H742H742.1L742 277.3L744.5 277.4L744.4 281.5L750.7 281.6V281.9L747.4 281.8L747.3 285.3H747.4L747.3 290L765.4 290.4L765.5 285.7H765.6V284.7H765.9V285.7L770.1 285.8L770.2 282.3H770.1V282H770.5L770.4 285.7L779.5 285.9L779.7 278.4L775.4 278.3L771.2 278.2V278V277.8H771.4V276.2H771.7V277V277.8L775.7 277.9L779.8 278L779.9 272.3L774.1 272.2V272.1L771.8 272L771.7 274.5H771.4L771.5 272H770.3V271.5H770.6V271.7L774.1 271.8L774.2 266.9L771.8 266.8V266.7H770.7L770.6 270.2H770.3V268.8H770V268.5H770.3V266.4H771.7L771.8 262.1L768.1 262V260.3H766.5L766.3 268.4H767.2H768.1V268.5V268.6H766.2V270.5H767.9L767.8 275.5H766.1L766 278.7L758.8 278.5V280L754 279.9V278.4L746.8 278.2L746.9 275H745.2L745.3 270H747V268.1H745.1V267.8H747L747.2 259.7H746.4L745.9 260.3ZM740.8 266.7C741 266.8 741.1 266.9 741.3 267.1C741.5 267.3 741.6 267.4 741.7 267.4H741.8H741.9C742 267.4 742.1 267.4 742.2 267.4C742.3 267.4 742.4 267.4 742.5 267.4H742.6H742.7H742.8V267.5V267.6V267.7C742.7 268.3 742.3 269.2 742.1 269.4C742.1 269.4 742 269.4 742 269.5C741.8 269.5 741.7 269.5 741.4 269.4L741.2 269.3H741.1C741 269.3 740.8 269.2 740.7 269.2C740.2 269.1 740 269 739.9 268.8V268.7V268.6V268.5V268.4C739.9 268.3 740 268.2 740.1 268L740.2 267.7L740.3 267.5C740.5 266.8 740.5 266.7 740.7 266.6L740.8 266.7ZM754.3 276V277.3L759.1 277.4V276.1L756.7 276H754.3ZM768.9 278.1H769.5V278.4H769.2L769.1 282.2H769.3V282.5L766.1 282.4V283.1H765.8V282.4L763.1 282.3V282L765.9 282.1L768.7 282.2L768.8 280.1L768.9 278.1ZM774.7 280.8H774.9H775L775.1 280.9C775.2 281 775.2 281.1 775.3 281.4L775.4 281.6L775.5 281.8C775.6 281.9 775.6 282 775.7 282.1C775.8 282.3 775.9 282.4 776 282.6V282.7V282.8C776 283 775.8 283.1 775.3 283.3C775 283.4 775 283.4 774.7 283.6C774.4 283.7 774.2 283.9 774.1 283.9C774 283.9 773.9 283.9 773.8 283.8V283.7V283.6C773.8 283.5 773.8 283.4 773.8 283.1C773.8 282.5 773.8 282.5 773.4 282.1C773.1 281.8 773 281.7 773.2 281.5L773.3 281.4L773.5 281.3C773.7 281.1 774.4 280.8 774.7 280.8ZM752.3 281.9L761.3 282.1V282.4L752.3 282.2V282.1V281.9Z" fill="#9AA5AF" stroke="#2D2D2D" stroke-width="0.2" stroke-miterlimit="10"/>
<path d="M720.7 308.6V310.1H720.9V310.3L717.5 310.2L717.3 317.3H718.5V317.5H717.1L717.3 310.1C717.3 310.1 715.3 310.1 713 310L708.7 309.9L708.6 312.6H710V312.8C710 312.9 710 313.3 710 313.6V314.1H711V315.5H711.5V314.1H712.5V312.6H713.1C713.5 312.6 713.8 312.6 713.9 312.6H714.1L714 315.5H714.5L714.4 317.8L708.4 317.7L708.3 322L701.9 321.9V324H701.5V325.5H701.9L701.8 329.1L694.9 328.9V328.7H695.5V327.6H695.7V328.7L698.3 328.8L698.4 326L695.8 325.9V326.1H695.7H695.6V325.9V325.7L698.5 325.8L698.6 321.8L692.5 321.7L692.4 325.3L692.3 328.9H692.9H693.5V329.1L691 329V328.8H692.1L692.3 321.7H691.2V321.5L695.5 321.6V320.8V320.1L692.4 320L689.3 319.9V321.4H689.7V321.6L686.1 321.5L686 325.5L688.8 325.6V326.1H688.6V325.9L686 325.8L685.9 328.6H687.2H688.5V328V327.4H688.7V328V328.6H689.1H689.5V328.8H687.6C686.6 328.8 684.9 328.7 683.9 328.7H682.1V328.5V328.3H680.6V328.5V328.7L678.1 328.6V328.5C678.1 328.4 678.1 328.4 678.1 328.3V328.2H676.6V328.3C676.6 328.3 676.6 328.4 676.6 328.5V328.6H674.8C673.8 328.6 672.2 328.5 671.2 328.5H669.4V328.4C669.4 328.3 669.4 328.3 669.4 328.2V328.1H667.9V328.2C667.9 328.2 667.9 328.3 667.9 328.4V328.5L665.2 328.4V328.3C665.2 328.2 665.2 328.2 665.2 328.1V328H663.7V328.4H661.9C660.9 328.4 658.7 328.3 656.8 328.3L653.5 328.2V328L653.6 324.4L653.7 320.8L647.6 320.7V322.1L650.8 322.2L650.7 325L650.6 327.9H651.3H652V328.1H650.4V326.9H649L649.1 324.3H648.9L648.8 326.9H648.2C647.9 326.9 647.4 326.9 647.1 326.9H646.6V326.7H647.2L647.3 320.8L644.5 320.7L644.4 323.7L644.3 326.6H644.7H645.1V326.8H644.4L644.3 332.1H644.7H645.1V332.2V332.3H644.4L644.3 338.2L647.1 338.3L647.2 332.4H646.6V332.2H648.3V332.4H647.4L647.3 338.3L650.9 338.4V338.5V338.6H650.7H650.5V339.3C650.5 339.7 650.5 340 650.5 340.1C650.5 340.1 651.9 340.1 653.6 340.2L656.7 340.3V338.8H656.6H656.5V338.7V338.6L660 338.7L660.2 331.6H658.9V331.4H659.6C660 331.4 660.6 331.4 661 331.4H661.7V331.6H660.5L660.3 338.7L666.4 338.8L666.5 334.8L663.7 334.7V334.2H663.9V334.3V334.4H665.2H666.5L666.6 331.6H665.3H664V332.2V332.8H663.8V331.7H663.2V331.5H663.6C664.2 331.5 669.4 331.6 669.8 331.6H670.1V332H671.6V331.9C671.6 331.9 671.6 331.8 671.6 331.7V331.6H672.4C672.8 331.6 673.5 331.6 673.9 331.6H674.6V332H676.1V331.9C676.1 331.9 676.1 331.8 676.1 331.7V331.6H676.5C677 331.6 682.2 331.7 682.7 331.7H683V331.8C683 331.9 683 331.9 683 332V332.1H684.5V332C684.5 332 684.5 331.9 684.5 331.8V331.7H685.2C685.6 331.7 686.2 331.7 686.6 331.7H687.2V331.9H686.1L685.9 339L689.5 339.1V339.2V339.3H689.3H689.1V340.8L692.2 340.9L695.3 341V340.3V339.6H695.1H694.9V339.5V339.4L698.4 339.5L698.6 332.4H697.3V332.2H698C698.4 332.2 698.8 332.2 698.9 332.2H699V332.4H698.8L698.6 339.5H699.8V339.7L695.4 339.6V340.3V341L698.5 341.1L701.6 341.2V339.7H701.3V339.5H701.6L701.7 335H700L700.1 332.3V332.1C700.1 332.1 700.5 332.1 701 332.1H701.8V331.4H703V331.6H702V333.8L704.9 333.9L704.8 336.2L701.9 336.1L701.8 339.5H702V339.7H701.8V341.2L707.8 341.3V339.8H707.5V339.6H707.8L708 331.8L704.4 331.7V331.5H704.5L704.6 327.5H704.7C704.8 327.5 705.1 327.5 705.5 327.5H706.2V328.5V329.5H706.7V328.5V327.5H707.4H708.1V327.4L710.8 327.5L711 320.3L721.1 320.5V320.7H720.5V321.8H720.3V320.7H719H717.7V322.1V323.5L720.3 323.6V323.3H720.5V323.8L717.6 323.7L717.5 327.7H718.7V327.9L716.2 327.8V327.6H717.2L717.3 323.6L714.5 323.5V323H714.7V323.3L717.3 323.4V322V320.6H716H714.7V321.7H714.5V320.6H712.9H711.3L711.2 324.1L711.1 327.6L714.4 327.7V327.8H714.7V328H714.4V329.5L720.4 329.6V328.1H720.2V327.9L723.6 328L723.8 320.9H722.6V320.7L725.3 320.8V321.2H726.8V320.8L734 321V321.4H735.5V321.3C735.5 321.3 735.5 321.2 735.5 321.1V321H737.5V321.2H737.2H736.9L736.8 324.8L736.7 328.4L739.5 328.5L739.6 324.9L739.7 321.3H739.3H738.9V321.1H739.3H739.7V320.9L761.6 321.4L761.7 318.1L739.8 317.6L740 310.8L734 310.7V312.9H733.8V310.7H733.7V310.6H732.3H730.9V312.6V314.6H732.4H733.9V314.5V314.4H734.1V314.7C734.1 314.8 734.1 315.6 734.1 316.5V318H731.8H729.5V317.8H730.7L730.9 310.7L727.5 310.6V310.4H727.7V308.9L724.6 308.8L720.7 308.6ZM722.4 310.1L725.1 310.2V310.4H723.9L723.8 314.4L726.6 314.5L726.5 317.6H727.1V317.8L720 317.6V317.4H720.6V316.3H720.8V317.4L723.4 317.5L723.5 314.7L720.9 314.6V314.8H720.7V314.3L723.5 314.4L723.6 310.4H722.4V310.3V310.1ZM736.7 312.7C736.8 312.8 736.9 312.8 736.9 312.8L737 312.9L737.1 313C737.1 313.1 737.2 313.2 737.2 313.3L737.3 313.4L737.4 313.5C737.6 313.8 737.7 313.9 737.7 314V314.1V314.2V314.3V314.4C737.7 314.5 737.6 314.5 737.6 314.6L737.5 314.7L737.4 314.8C737.3 314.8 737.2 314.9 737.1 314.9L736.9 315L736.6 315.1C736.3 315.3 736.2 315.3 736.1 315.4H736H735.9C735.8 315.4 735.8 315.3 735.7 315.2V315.1V314.8C735.7 314.7 735.7 314.5 735.7 314.4V314.3V314.2C735.7 314.1 735.6 314 735.4 313.9L735.2 313.8V313.7C735.1 313.6 735.1 313.4 735.3 313.3C735.5 313.1 736.2 312.8 736.6 312.7H736.7ZM732.4 322.3V323.8H732.5C732.5 323.8 732.6 323.8 732.7 323.8C732.8 323.8 732.9 323.8 732.9 323.8V322.3H732.7H732.4ZM665.3 320.8H664.6H663.9V321C663.9 321.1 663.9 321.2 663.9 321.2H665.4V321.1C665.4 321 665.4 320.9 665.4 320.9L665.3 320.8ZM667.8 320.9V321C667.8 321.1 667.8 321.2 667.8 321.2V321.3H669.3V321.2C669.3 321.1 669.3 321 669.3 321V320.9H668.6H667.8ZM670.2 320.9V321.4H671.7V320.9H671H670.2ZM675.6 321.1H674.9H674.2V321.3C674.2 321.4 674.2 321.5 674.2 321.5H675.7V321.4C675.7 321.3 675.7 321.2 675.7 321.2L675.6 321.1ZM711.4 323.8H711.6C711.7 323.8 711.8 323.8 712 323.8H712.2H712.6H713H713.1C713.3 323.8 713.4 323.9 713.4 324V324.1C713.4 324.2 713.4 324.3 713.2 324.6L713 324.9V325V325.1V325.2C713 325.2 713 325.3 713.1 325.4C713.1 325.5 713.2 325.6 713.2 325.6C713.2 325.7 713.2 325.7 713.2 325.8V325.9C713.2 326 713.1 326.1 712.9 326.1H712.8H712.5C712.1 326.1 711.9 326.1 711.6 326C711.2 325.9 711.1 325.8 711.1 325.5V325.4V325.2C711.1 325 711.1 324.8 711.1 324.6C711.1 324.5 711.1 324.3 711.1 324.2V324V323.9C711.1 323.8 711.2 323.7 711.2 323.7L711.4 323.8ZM662.9 325.6L662.8 327.1H663.3V325.6H663.1C663 325.6 662.9 325.6 662.9 325.6ZM675.5 325.9V326.6C675.5 327 675.5 327.3 675.5 327.3C675.5 327.3 675.6 327.3 675.7 327.3H675.9V326.6V325.9H675.7H675.5ZM726.9 328.1V328.2C726.9 328.3 726.9 328.4 726.9 328.4V328.5H728.4V328.4C728.4 328.3 728.4 328.2 728.4 328.2V328.1H727.7H726.9ZM730.8 328.2V328.7H732.3V328.2H731.6H730.8ZM718.2 328.4C718.3 328.5 718.2 328.7 718.1 329L717.9 329.5H717.8H717.7L717.6 329.1C717.5 328.7 717.5 328.7 717.5 328.8C717.4 329.1 717.3 329.5 717.3 329.5C717.3 329.5 717.3 329.5 717.2 329.5H717.1L717 329.2C717 329 716.9 328.9 716.9 328.9C716.9 328.9 716.9 328.9 716.8 329.2L716.7 329.5H716.6H716.5L716.3 328.8C716.3 328.8 716.3 329 716.2 329.1C716.2 329.3 716.1 329.4 716.1 329.5H716C715.9 329.5 715.9 329.5 715.9 329.1C715.8 328.8 715.8 328.7 715.8 328.8C715.8 328.8 715.8 329 715.7 329.1L715.6 329.4H715.5H715.4C715.4 329.3 715.3 328.8 715.3 328.8L715.2 329.5C715.2 329.5 715.2 329.5 715.1 329.5C715.1 329.5 715.1 329.5 715 329.5C715 329.5 715 329.3 715.1 329L715.2 328.5H715.3L715.4 328.8C715.5 329.1 715.5 329.2 715.5 329.2C715.5 329.2 715.5 329 715.6 328.9L715.7 328.6H715.8L715.9 328.9C716 329.3 716 329.3 716 329.3C716 329.3 716.1 329.1 716.1 329L716.2 328.7H716.3L716.4 329.1C716.5 329.5 716.5 329.5 716.5 329.5L716.7 328.8C716.7 328.8 716.7 328.8 716.8 328.8H716.9C716.9 328.8 716.9 329 717 329.1C717 329.3 717.1 329.4 717.1 329.4C717.1 329.4 717.2 329.3 717.2 329.1C717.3 328.9 717.3 328.8 717.3 328.7H717.4C717.5 328.7 717.5 328.7 717.5 329.1C717.5 329.3 717.6 329.5 717.6 329.5C717.6 329.5 717.6 329.5 717.7 329.1C718.2 328.5 718.2 328.4 718.2 328.4ZM649.8 328.3C649.8 328.3 650 328.3 650.3 328.5L650.8 328.7V328.8V328.9L650.5 329C650.2 329.1 650.1 329.1 650.2 329.1L650.9 329.3C650.9 329.3 650.9 329.3 650.9 329.4V329.5H650.6C650.4 329.5 650.3 329.6 650.3 329.6H650.2C650.2 329.6 650.4 329.6 650.6 329.7L651 329.8V329.9C651 329.9 651 329.9 650.4 329.8L649.9 329.7V329.6V329.5L650.3 329.4C650.7 329.3 650.7 329.3 650.6 329.3C650.6 329.3 650.4 329.2 650.2 329.2C650 329.2 649.9 329.1 649.9 329.1C649.9 329.1 649.9 329.1 649.9 329V328.9C649.9 328.9 650.1 328.9 650.3 328.8C650.5 328.8 650.6 328.7 650.6 328.7C650.6 328.7 650.6 328.7 650.2 328.6C649.9 328.4 649.7 328.4 649.8 328.3C649.7 328.3 649.7 328.3 649.8 328.3ZM694.3 329.4C694.3 329.4 695 329.6 695.3 329.7H695.4V329.8C695.4 329.8 695.2 329.8 695.1 329.9C694.9 329.9 694.8 330 694.8 330C694.8 330 694.9 330 695.1 330.1C695.3 330.1 695.4 330.2 695.4 330.2H695.5V330.3H695.4C695.4 330.3 695.2 330.3 695.1 330.4C695 330.4 694.8 330.4 694.8 330.5C694.8 330.5 694.8 330.5 695.2 330.6L695.5 330.7V330.8V330.9L695.2 331C695 331 694.8 331.1 694.8 331.1C694.8 331.1 695 331.2 695.2 331.2L695.6 331.3V331.4L695.3 331.5C694.9 331.6 694.9 331.6 694.9 331.6C694.9 331.6 695.1 331.6 695.2 331.7L695.5 331.8V331.9V332L695.2 332.1C695 332.1 694.9 332.2 694.9 332.2C694.9 332.2 694.9 332.2 695.2 332.3C695.4 332.3 695.5 332.4 695.5 332.4C695.5 332.4 695.5 332.4 695.5 332.5L695 332.4C694.7 332.3 694.5 332.3 694.5 332.3C694.5 332.3 694.5 332.3 694.5 332.2V332.1C694.5 332.1 694.7 332.1 694.8 332C695 332 695.1 331.9 695.1 331.9L694.4 331.7C694.4 331.7 694.4 331.7 694.4 331.6V331.5C694.4 331.5 694.6 331.5 694.7 331.4C694.9 331.4 695 331.3 695 331.3C695 331.3 695 331.3 694.7 331.2C694.5 331.2 694.4 331.1 694.4 331.1V331C694.7 330.9 695.1 330.8 695.1 330.8C695.1 330.8 695.1 330.8 694.7 330.7L694.3 330.6V330.5V330.4L695 330.3L694.6 330.2L694.2 330.1V330L694.6 329.9C694.8 329.9 695 329.8 695 329.8H694.9C694.2 329.5 694.2 329.5 694.3 329.4ZM655.3 331.3C656 331.3 656.4 331.3 656.6 331.3H657.1V331.5H656.6V332.6H656.4V331.5H655.1H653.8V332.9V334.3L656.4 334.4V334.2H656.6V334.7L653.8 334.6L653.7 338.6H654.9V338.8L652.4 338.7V338.5H653.5V336.5V334.5H651.7H649.9V334H650.2V334.3L653.5 334.4L653.6 331.5L650.3 331.4V332.8H650V332.6H649.8V332.4H650V331.8V331.2L653.1 331.3C653.8 331.2 654.7 331.3 655.3 331.3ZM688.8 332C689.5 332 694.5 332.1 695.1 332.1H695.5V332.3H695V333.4H694.8V332.3L692.2 332.2L692.1 335L694.7 335.1V334.9H694.9V335.4H693.5H692.1V337.4V339.4H693.3V339.6L690.8 339.5V339.3H691.9L692 335.3L689.2 335.2L689.3 332.1H688.6V331.9L688.8 332ZM681.7 333.2V334.7H682.2V333.2H682H681.7ZM669.8 338.9V339.4H671.3V338.9H670.6H669.8ZM682.7 339.1V339.6H684.2V339.5C684.2 339.5 684.2 339.4 684.2 339.3C684.2 339.2 684.2 339.1 684.2 339.1V339H683.5L682.7 339.1ZM703.2 339.7L705.7 339.8V339.9V340H704.5H703.3V339.9L703.2 339.7Z" fill="#9AA5AF"/>
<path d="M716.5 329.5H716.6H716.7L716.8 329.2C716.9 328.9 716.9 328.9 716.9 328.9C716.9 328.9 717 329 717 329.2L717.1 329.5H717.2C717.3 329.5 717.3 329.5 717.3 329.5C717.3 329.5 717.4 329.1 717.5 328.8C717.5 328.7 717.5 328.7 717.6 329.1L717.7 329.5H717.8H717.9L718.1 329C718.2 328.7 718.3 328.5 718.2 328.4C718.2 328.4 718.2 328.5 717.7 329.1C717.6 329.5 717.6 329.5 717.6 329.5C717.6 329.5 717.5 329.3 717.5 329.1C717.5 328.7 717.5 328.7 717.4 328.7H717.3C717.3 328.8 717.3 328.9 717.2 329.1C717.2 329.3 717.1 329.4 717.1 329.4C717.1 329.4 717 329.3 717 329.1C716.9 329 716.9 328.8 716.9 328.8H716.8C716.7 328.8 716.7 328.8 716.7 328.8L716.5 329.5ZM716.5 329.5L716.3 328.8C716.3 328.8 716.3 329 716.2 329.1C716.2 329.3 716.1 329.4 716.1 329.5H716C715.9 329.5 715.9 329.5 715.9 329.1C715.8 328.8 715.8 328.7 715.8 328.8C715.8 328.8 715.8 329 715.7 329.1L715.6 329.4H715.5H715.4C715.4 329.3 715.3 328.8 715.3 328.8L715.2 329.5C715.2 329.5 715.2 329.5 715.1 329.5C715.1 329.5 715.1 329.5 715 329.5C715 329.5 715 329.3 715.1 329L715.2 328.5H715.3L715.4 328.8C715.5 329.1 715.5 329.2 715.5 329.2C715.5 329.2 715.5 329 715.6 328.9L715.7 328.6H715.8L715.9 328.9C716 329.3 716 329.3 716 329.3C716 329.3 716.1 329.1 716.1 329L716.2 328.7H716.3L716.4 329.1C716.5 329.5 716.5 329.5 716.5 329.5ZM649.8 328.3C649.8 328.3 650 328.3 650.3 328.5L650.8 328.7V328.8V328.9L650.5 329C650.2 329.1 650.1 329.1 650.2 329.1L650.9 329.3C650.9 329.3 650.9 329.3 650.9 329.4V329.5H650.6C650.4 329.5 650.3 329.6 650.3 329.6H650.2C650.2 329.6 650.4 329.6 650.6 329.7L651 329.8V329.9C651 329.9 651 329.9 650.4 329.8L649.9 329.7V329.6V329.5L650.3 329.4C650.7 329.3 650.7 329.3 650.6 329.3C650.6 329.3 650.4 329.2 650.2 329.2C650 329.2 649.9 329.1 649.9 329.1C649.9 329.1 649.9 329.1 649.9 329V328.9C649.9 328.9 650.1 328.9 650.3 328.8C650.5 328.8 650.6 328.7 650.6 328.7C650.6 328.7 650.6 328.7 650.2 328.6C649.9 328.4 649.7 328.4 649.8 328.3ZM649.8 328.3C649.7 328.3 649.7 328.3 649.8 328.3ZM720.7 308.6V310.1H720.9V310.3L717.5 310.2L717.3 317.3H718.5V317.5H717.1L717.3 310.1C717.3 310.1 715.3 310.1 713 310L708.7 309.9L708.6 312.6H710V312.8C710 312.9 710 313.3 710 313.6V314.1H711V315.5H711.5V314.1H712.5V312.6H713.1C713.5 312.6 713.8 312.6 713.9 312.6H714.1L714 315.5H714.5L714.4 317.8L708.4 317.7L708.3 322L701.9 321.9V324H701.5V325.5H701.9L701.8 329.1L694.9 328.9V328.7H695.5V327.6H695.7V328.7L698.3 328.8L698.4 326L695.8 325.9V326.1H695.7H695.6V325.9V325.7L698.5 325.8L698.6 321.8L692.5 321.7L692.4 325.3L692.3 328.9H692.9H693.5V329.1L691 329V328.8H692.1L692.3 321.7H691.2V321.5L695.5 321.6V320.8V320.1L692.4 320L689.3 319.9V321.4H689.7V321.6L686.1 321.5L686 325.5L688.8 325.6V326.1H688.6V325.9L686 325.8L685.9 328.6H687.2H688.5V328V327.4H688.7V328V328.6H689.1H689.5V328.8H687.6C686.6 328.8 684.9 328.7 683.9 328.7H682.1V328.5V328.3H680.6V328.5V328.7L678.1 328.6V328.5C678.1 328.4 678.1 328.4 678.1 328.3V328.2H676.6V328.3C676.6 328.3 676.6 328.4 676.6 328.5V328.6H674.8C673.8 328.6 672.2 328.5 671.2 328.5H669.4V328.4C669.4 328.3 669.4 328.3 669.4 328.2V328.1H667.9V328.2C667.9 328.2 667.9 328.3 667.9 328.4V328.5L665.2 328.4V328.3C665.2 328.2 665.2 328.2 665.2 328.1V328H663.7V328.4H661.9C660.9 328.4 658.7 328.3 656.8 328.3L653.5 328.2V328L653.6 324.4L653.7 320.8L647.6 320.7V322.1L650.8 322.2L650.7 325L650.6 327.9H651.3H652V328.1H650.4V326.9H649L649.1 324.3H648.9L648.8 326.9H648.2C647.9 326.9 647.4 326.9 647.1 326.9H646.6V326.7H647.2L647.3 320.8L644.5 320.7L644.4 323.7L644.3 326.6H644.7H645.1V326.8H644.4L644.3 332.1H644.7H645.1V332.2V332.3H644.4L644.3 338.2L647.1 338.3L647.2 332.4H646.6V332.2H648.3V332.4H647.4L647.3 338.3L650.9 338.4V338.5V338.6H650.7H650.5V339.3C650.5 339.7 650.5 340 650.5 340.1C650.5 340.1 651.9 340.1 653.6 340.2L656.7 340.3V338.8H656.6H656.5V338.7V338.6L660 338.7L660.2 331.6H658.9V331.4H659.6C660 331.4 660.6 331.4 661 331.4H661.7V331.6H660.5L660.3 338.7L666.4 338.8L666.5 334.8L663.7 334.7V334.2H663.9V334.3V334.4H665.2H666.5L666.6 331.6H665.3H664V332.2V332.8H663.8V331.7H663.2V331.5H663.6C664.2 331.5 669.4 331.6 669.8 331.6H670.1V332H671.6V331.9C671.6 331.9 671.6 331.8 671.6 331.7V331.6H672.4C672.8 331.6 673.5 331.6 673.9 331.6H674.6V332H676.1V331.9C676.1 331.9 676.1 331.8 676.1 331.7V331.6H676.5C677 331.6 682.2 331.7 682.7 331.7H683V331.8C683 331.9 683 331.9 683 332V332.1H684.5V332C684.5 332 684.5 331.9 684.5 331.8V331.7H685.2C685.6 331.7 686.2 331.7 686.6 331.7H687.2V331.9H686.1L685.9 339L689.5 339.1V339.2V339.3H689.3H689.1V340.8L692.2 340.9L695.3 341V340.3V339.6H695.1H694.9V339.5V339.4L698.4 339.5L698.6 332.4H697.3V332.2H698C698.4 332.2 698.8 332.2 698.9 332.2H699V332.4H698.8L698.6 339.5H699.8V339.7L695.4 339.6V340.3V341L698.5 341.1L701.6 341.2V339.7H701.3V339.5H701.6L701.7 335H700L700.1 332.3V332.1C700.1 332.1 700.5 332.1 701 332.1H701.8V331.4H703V331.6H702V333.8L704.9 333.9L704.8 336.2L701.9 336.1L701.8 339.5H702V339.7H701.8V341.2L707.8 341.3V339.8H707.5V339.6H707.8L708 331.8L704.4 331.7V331.5H704.5L704.6 327.5H704.7C704.8 327.5 705.1 327.5 705.5 327.5H706.2V328.5V329.5H706.7V328.5V327.5H707.4H708.1V327.4L710.8 327.5L711 320.3L721.1 320.5V320.7H720.5V321.8H720.3V320.7H719H717.7V322.1V323.5L720.3 323.6V323.3H720.5V323.8L717.6 323.7L717.5 327.7H718.7V327.9L716.2 327.8V327.6H717.2L717.3 323.6L714.5 323.5V323H714.7V323.3L717.3 323.4V322V320.6H716H714.7V321.7H714.5V320.6H712.9H711.3L711.2 324.1L711.1 327.6L714.4 327.7V327.8H714.7V328H714.4V329.5L720.4 329.6V328.1H720.2V327.9L723.6 328L723.8 320.9H722.6V320.7L725.3 320.8V321.2H726.8V320.8L734 321V321.4H735.5V321.3C735.5 321.3 735.5 321.2 735.5 321.1V321H737.5V321.2H737.2H736.9L736.8 324.8L736.7 328.4L739.5 328.5L739.6 324.9L739.7 321.3H739.3H738.9V321.1H739.3H739.7V320.9L761.6 321.4L761.7 318.1L739.8 317.6L740 310.8L734 310.7V312.9H733.8V310.7H733.7V310.6H732.3H730.9V312.6V314.6H732.4H733.9V314.5V314.4H734.1V314.7C734.1 314.8 734.1 315.6 734.1 316.5V318H731.8H729.5V317.8H730.7L730.9 310.7L727.5 310.6V310.4H727.7V308.9L724.6 308.8L720.7 308.6ZM722.4 310.1L725.1 310.2V310.4H723.9L723.8 314.4L726.6 314.5L726.5 317.6H727.1V317.8L720 317.6V317.4H720.6V316.3H720.8V317.4L723.4 317.5L723.5 314.7L720.9 314.6V314.8H720.7V314.3L723.5 314.4L723.6 310.4H722.4V310.3V310.1ZM736.7 312.7C736.8 312.8 736.9 312.8 736.9 312.8L737 312.9L737.1 313C737.1 313.1 737.2 313.2 737.2 313.3L737.3 313.4L737.4 313.5C737.6 313.8 737.7 313.9 737.7 314V314.1V314.2V314.3V314.4C737.7 314.5 737.6 314.5 737.6 314.6L737.5 314.7L737.4 314.8C737.3 314.8 737.2 314.9 737.1 314.9L736.9 315L736.6 315.1C736.3 315.3 736.2 315.3 736.1 315.4H736H735.9C735.8 315.4 735.8 315.3 735.7 315.2V315.1V314.8C735.7 314.7 735.7 314.5 735.7 314.4V314.3V314.2C735.7 314.1 735.6 314 735.4 313.9L735.2 313.8V313.7C735.1 313.6 735.1 313.4 735.3 313.3C735.5 313.1 736.2 312.8 736.6 312.7H736.7ZM732.4 322.3V323.8H732.5C732.5 323.8 732.6 323.8 732.7 323.8C732.8 323.8 732.9 323.8 732.9 323.8V322.3H732.7H732.4ZM665.3 320.8H664.6H663.9V321C663.9 321.1 663.9 321.2 663.9 321.2H665.4V321.1C665.4 321 665.4 320.9 665.4 320.9L665.3 320.8ZM667.8 320.9V321C667.8 321.1 667.8 321.2 667.8 321.2V321.3H669.3V321.2C669.3 321.1 669.3 321 669.3 321V320.9H668.6H667.8ZM670.2 320.9V321.4H671.7V320.9H671H670.2ZM675.6 321.1H674.9H674.2V321.3C674.2 321.4 674.2 321.5 674.2 321.5H675.7V321.4C675.7 321.3 675.7 321.2 675.7 321.2L675.6 321.1ZM711.4 323.8H711.6C711.7 323.8 711.8 323.8 712 323.8H712.2H712.6H713H713.1C713.3 323.8 713.4 323.9 713.4 324V324.1C713.4 324.2 713.4 324.3 713.2 324.6L713 324.9V325V325.1V325.2C713 325.2 713 325.3 713.1 325.4C713.1 325.5 713.2 325.6 713.2 325.6C713.2 325.7 713.2 325.7 713.2 325.8V325.9C713.2 326 713.1 326.1 712.9 326.1H712.8H712.5C712.1 326.1 711.9 326.1 711.6 326C711.2 325.9 711.1 325.8 711.1 325.5V325.4V325.2C711.1 325 711.1 324.8 711.1 324.6C711.1 324.5 711.1 324.3 711.1 324.2V324V323.9C711.1 323.8 711.2 323.7 711.2 323.7L711.4 323.8ZM662.9 325.6L662.8 327.1H663.3V325.6H663.1C663 325.6 662.9 325.6 662.9 325.6ZM675.5 325.9V326.6C675.5 327 675.5 327.3 675.5 327.3C675.5 327.3 675.6 327.3 675.7 327.3H675.9V326.6V325.9H675.7H675.5ZM726.9 328.1V328.2C726.9 328.3 726.9 328.4 726.9 328.4V328.5H728.4V328.4C728.4 328.3 728.4 328.2 728.4 328.2V328.1H727.7H726.9ZM730.8 328.2V328.7H732.3V328.2H731.6H730.8ZM694.3 329.4C694.3 329.4 695 329.6 695.3 329.7H695.4V329.8C695.4 329.8 695.2 329.8 695.1 329.9C694.9 329.9 694.8 330 694.8 330C694.8 330 694.9 330 695.1 330.1C695.3 330.1 695.4 330.2 695.4 330.2H695.5V330.3H695.4C695.4 330.3 695.2 330.3 695.1 330.4C695 330.4 694.8 330.4 694.8 330.5C694.8 330.5 694.8 330.5 695.2 330.6L695.5 330.7V330.8V330.9L695.2 331C695 331 694.8 331.1 694.8 331.1C694.8 331.1 695 331.2 695.2 331.2L695.6 331.3V331.4L695.3 331.5C694.9 331.6 694.9 331.6 694.9 331.6C694.9 331.6 695.1 331.6 695.2 331.7L695.5 331.8V331.9V332L695.2 332.1C695 332.1 694.9 332.2 694.9 332.2C694.9 332.2 694.9 332.2 695.2 332.3C695.4 332.3 695.5 332.4 695.5 332.4C695.5 332.4 695.5 332.4 695.5 332.5L695 332.4C694.7 332.3 694.5 332.3 694.5 332.3C694.5 332.3 694.5 332.3 694.5 332.2V332.1C694.5 332.1 694.7 332.1 694.8 332C695 332 695.1 331.9 695.1 331.9L694.4 331.7C694.4 331.7 694.4 331.7 694.4 331.6V331.5C694.4 331.5 694.6 331.5 694.7 331.4C694.9 331.4 695 331.3 695 331.3C695 331.3 695 331.3 694.7 331.2C694.5 331.2 694.4 331.1 694.4 331.1V331C694.7 330.9 695.1 330.8 695.1 330.8C695.1 330.8 695.1 330.8 694.7 330.7L694.3 330.6V330.5V330.4L695 330.3L694.6 330.2L694.2 330.1V330L694.6 329.9C694.8 329.9 695 329.8 695 329.8H694.9C694.2 329.5 694.2 329.5 694.3 329.4ZM655.3 331.3C656 331.3 656.4 331.3 656.6 331.3H657.1V331.5H656.6V332.6H656.4V331.5H655.1H653.8V332.9V334.3L656.4 334.4V334.2H656.6V334.7L653.8 334.6L653.7 338.6H654.9V338.8L652.4 338.7V338.5H653.5V336.5V334.5H651.7H649.9V334H650.2V334.3L653.5 334.4L653.6 331.5L650.3 331.4V332.8H650V332.6H649.8V332.4H650V331.8V331.2L653.1 331.3C653.8 331.2 654.7 331.3 655.3 331.3ZM688.8 332C689.5 332 694.5 332.1 695.1 332.1H695.5V332.3H695V333.4H694.8V332.3L692.2 332.2L692.1 335L694.7 335.1V334.9H694.9V335.4H693.5H692.1V337.4V339.4H693.3V339.6L690.8 339.5V339.3H691.9L692 335.3L689.2 335.2L689.3 332.1H688.6V331.9L688.8 332ZM681.7 333.2V334.7H682.2V333.2H682H681.7ZM669.8 338.9V339.4H671.3V338.9H670.6H669.8ZM682.7 339.1V339.6H684.2V339.5C684.2 339.5 684.2 339.4 684.2 339.3C684.2 339.2 684.2 339.1 684.2 339.1V339H683.5L682.7 339.1ZM703.2 339.7L705.7 339.8V339.9V340H704.5H703.3V339.9L703.2 339.7Z" stroke="#2D2D2D" stroke-width="0.2" stroke-miterlimit="10"/>
<path d="M848.4 321.5V323H848.6V322.9H850.1V323H852.6V322.9H854.1V323H854.5V321.5H851.4H848.4ZM854.8 321.5V323H855.1V322.9H856.6V323V323.1H860.9V321.6H857.8H854.8V321.5ZM786.9 321.7V321.8H786.2H785.5V321.7H784.9V324.8H782V328.8H785.4V328.7H786.9V328.8V328.9H788.1V321.8H787.5L786.9 321.7ZM789 321.7H788.4V328.8H789.6V328.7H791.1V328.8H794.5V324.8H791.7V321.7H791.1V321.8H790.4H789.7V321.7V321.6L789 321.7ZM848.7 323.3H847H845.3V330.4H846.5V330.3H848V330.4H848.3H848.6V329.8V329.2H848.5H848.4V327.7H848.5V327.2H851.3V323.2H850.7H850.1V323.3V323.4H848.6L848.7 323.3ZM851.6 323.3V327.3H854.4V328.8C854.4 329.6 854.4 330.3 854.4 330.3C854.4 330.3 854.5 330.3 854.7 330.3H855V330.2H855.7H856.4V330.3H857.6V323.2H856.4V323.3H854.9V323.2H853.9V323.3H852.4V323.2H851.9L851.6 323.3ZM848.7 327.5V327.7H848.8V329.2H848.7H848.6V330.3H851.2V327.5H850H848.7ZM786.9 329.1V329.2H786.2H785.5V329.1H785.3V330.6H791.4V329.1H791.3H791.2V329.2V329.3H789.7V329.2V329.1H788.3H786.9Z" fill="#37414C"/>
<path d="M664 321.5V323H664.2V322.9H665.7V323H666.9C667.6 323 668.1 323 668.1 323C668.1 323 668.1 323 668.1 322.9V322.8H669.6V322.9V323H669.8H670V321.5H666.9H664ZM670.4 321.5V323H670.7V322.9H672.2V323H674.7V322.9H676.2V323H676.6V321.5H673.5H670.4ZM726.7 321.7V321.8H725.2V321.7H724V328.8H727.5V328.7V328.6H729V328.7H729.6H730.2V324.7H727.4V323.2V321.7H727.1H726.7ZM733.9 321.7H733.6H733.3V322.2V322.7H733.4V324.2H733.3V324.7H730.5V328.7H731.5V328.6H733V328.7H736.6V325.1V321.5H736H735.4V321.6H734.7H734L733.9 321.7ZM730.4 321.7V324.5H733V324.2H732.9V322.7H733V322.2V321.7H731.7H730.4ZM664.3 323.2H662.6H660.9V327.2H663.7V327.7H663.8V328.4V329.1H663.7V330.2H664.3V330.1H665H665.7V330.2H666.9V323.1H665.7V323.2H664.2H664.3ZM669.7 323.2V323.3H668.2V323.2H667.2V330.3H668.5V330.2V330.1H669.2H669.9V330.2H670.5V327.1H673.4V323.1H672.2V323.2H670.7V323.1H670.2L669.7 323.2ZM673.6 323.2V327.2H675H676.4V327.4V327.6H676.5H676.6V328.3V329H676.5V330.1H677.2V330V329.9H678.7V330V330.1H679.3H679.9V326.5V322.9H676.3V323H674.8V322.9H674.3L673.6 323.2ZM660.8 327.5V328.9C660.8 329.7 660.8 330.3 660.8 330.3C660.8 330.3 661.4 330.3 662.1 330.3H663.4V329.2H663.3V328.5V327.8H663.4V327.7V327.6H662.1L660.8 327.5ZM673.6 327.5V328.9C673.6 329.7 673.6 330.3 673.6 330.3C673.6 330.3 674.2 330.3 674.9 330.3H676.2V329.2H676.1V327.7H676.2V327.5H674.9H673.6ZM727.5 329.1H727.3V330.6H733.4V329.1H733V329.2H731.5V329.1H730.3H729.1V329.2V329.3H728.4H727.7L727.5 329.1ZM670.1 333.8V336.9H668.7H667.3V338.9V340.9H670.8V340.8H672.3V340.9H673.5V333.8H672.1V333.9H670.6V333.8H670.4H670.1ZM673.6 333.8V340.9H679.7V338.9V336.9H678.3H676.9V333.8H676.4V333.9H674.9V333.8H674.3H673.6ZM682.6 333.8H681.3H680V335.2C680 336 680 336.6 680 336.6H682.6V336.5V336.4H682.5V334.9H682.6V334.3V333.8ZM682.8 333.8V334.9H682.9V336.4H682.8V336.9H680V340.9H683.5V340.8H685V340.9V341H686.1V333.9H684.8V334H683.3V333.9H683H682.8V333.8ZM670.7 341.2H670.5V342.7H673.6H676.7V342V341.2H672.3V341.3H670.8L670.7 341.2ZM685 341.2V341.3H684.3H683.6V341.2H683.2V342.7H689.3V341.2H687.2H685Z" fill="#37414C"/>
</svg>
