<svg width="606" height="832" viewBox="0 0 606 832" fill="none" xmlns="http://www.w3.org/2000/svg">
<path d="M192.8 442.3L193.4 440.8L195.1 441.5L196.5 442L195.9 443.5L195.3 445L193.8 444.4L192.3 443.8L192.8 442.3Z" fill="#FFD700"/>
<path d="M143.5 380.4V379H145.6V380.6H144.6V381.9H143.5V380.4Z" fill="#FFD700"/>
<path d="M189.5 438.3L190.1 436.9L190.7 437.1L191.3 437.3L190.7 438.7L190.1 440.1L189.5 439.9L188.9 439.7L189.5 438.3ZM191.7 440L192 439.3L192.5 439.5L193 439.7L192.7 440.4L192.4 441.1L191.9 440.9L191.4 440.7L191.7 440ZM193.2 439.8L193.8 438.4L195.1 438.9L196.4 439.4L196.5 439.3C196.5 439.2 196.5 439.1 196.4 439.1L196.3 439L196.7 438L197.1 437L197.8 437.3L198.5 437.6L198.4 437.8L198.3 438L198.4 438.1L198.5 438.2L198.6 438L198.7 437.8L198.9 437.9L199.1 438L199.2 437.9L199.3 437.8L199.1 437.7L198.9 437.6L199.2 436.7L199.5 435.8L200.2 436.1L200.9 436.4L200.6 437.3L200.3 438.2L200.2 438.1C200.1 438.1 200 438.1 200 438.2L199.9 438.3L200.2 438.4L200.5 438.5L201.1 436.9L201.7 435.3L201.8 435.4C201.9 435.4 202 435.4 202 435.3L202.1 435.2L201.2 434.8L200.3 434.4L200.8 433.2L201.3 432L203.9 433.1L206.5 434.2L206 435.4L205.5 436.6L204.1 436L202.7 435.4L202.6 435.5C202.6 435.6 202.6 435.7 202.7 435.7L202.8 435.8L202.2 437.3L201.6 438.8L201.7 438.9L201.8 439L201.9 438.8L202 438.6L203.1 439.1L204.2 439.6L203.7 440.9L203.2 442.2L202.1 441.7L201 441.2L201.3 440.5L201.6 439.8L201.5 439.7L201.4 439.6L201.1 440.3L200.8 441L200.3 440.8L199.8 440.6L199.7 440.7L199.6 440.8L201.4 441.5L203.2 442.2L202.6 443.6L202 445L199.4 443.9L196.8 442.8L197.4 441.4L198 440L198.5 440.2L199 440.4L199.1 440.3L199.2 440.2L198.7 440L198.2 439.8L198.3 439.6L198.4 439.4L198.3 439.3L198.2 439.2L198.1 439.4L198 439.6H197.8H197.6L197.7 439.7L197.8 439.8L197.2 441.2L196.6 442.6L194.7 441.9L192.9 441.2L193.2 439.8Z" fill="#70777F"/>
<path d="M148.7 385.4V384.8H149.6V383.4H150.2V382.5H152.8V385.9H148.8V385.4H148.7Z" fill="#70777F"/>
<path d="M146.5 384.7V383.4H147.6V386H146.5V384.7Z" fill="#70777F"/>
</svg>
