<svg width="606" height="832" viewBox="0 0 606 832" fill="none" xmlns="http://www.w3.org/2000/svg">
<path d="M381.7 148.9V147.4H385V150.5H381.7V148.9Z" fill="#FFD700"/>
<path d="M280.5 177.4V176.3H281.6V175.8H283.1V178.4H280.5V177.4Z" fill="#FFD700"/>
<path d="M351.6 240L356.5 240.9L355.8 245.8L350.8 244.9L351.6 240Z" fill="#FFD700"/>
<path d="M434.8 283.1L435.1 281.4L436.7 281.7L438.3 282L438.2 282.8L438.1 283.6L437.3 283.5L436.5 283.4L436.3 284.3L436.1 285.2L435.2 285L434.3 284.8L434.8 283.1Z" fill="#FFD700"/>
<path d="M492.2 293.8L492.3 293.1L491.6 293L490.9 292.9L491 292.1L491.1 291.3L492.5 291.6L493.9 291.9L493.6 293.4L493.3 294.9L492.6 294.8L491.9 294.7L492.2 293.8Z" fill="#FFD700"/>
<path d="M275.6 363.7V362.9H277.4V366H275.6V363.7Z" fill="#FFD700"/>
<path d="M432.5 363.1L432.9 361.1L434.7 361.4L436.5 361.7L436.3 362.7L436.1 363.7L435.3 363.6L434.5 363.5L434.3 364.5L434.1 365.5L433.1 365.3L432.1 365.1L432.5 363.1Z" fill="#FFD700"/>
<path d="M272.5 364.4V362.9H274.3V366H272.5V364.4Z" fill="#FFD700"/>
<path d="M143.5 380.4V379H145.6V380.6H144.6V381.9H143.5V380.4Z" fill="#FFD700"/>
<path d="M438.1 395.5L438.3 394.1L436.9 393.8L435.5 393.5L435.7 392.5L435.9 391.5L438.5 392L441.1 392.5L440.7 394.9L440.3 397.3L439.2 397.1L438.1 396.9V395.5Z" fill="#FFD700"/>
<path d="M425.9 392.3L426.3 389.9L428.9 390.4L431.5 390.9L431.3 391.9L431.1 392.9L429.7 392.6L428.3 392.3L428.1 393.7L427.9 395.1L426.8 394.9L425.7 394.7L425.9 392.3Z" fill="#FFD700"/>
<path d="M408.6 427.5L409 425.1L411.4 425.5L413.8 425.9L413.4 428.3L413 430.7L410.6 430.3L408.2 429.9L408.6 427.5Z" fill="#FFD700"/>
<path d="M208 427.5L208.7 425.8L210.3 426.5L211.7 427L211.1 428.6L210.5 430.2L209 429.6L207.5 429L208 427.5Z" fill="#FFD700"/>
<path d="M275.6 429.8V428.3H277.4V431.4H275.6V429.8Z" fill="#FFD700"/>
<path d="M272.5 429.8V428.3H274.3V431.4H272.5V429.8Z" fill="#FFD700"/>
<path d="M219 430.6L219.6 429.1L221.3 429.8L222.5 430.3L222 431.7L221.3 433.4L219.9 432.8L218.5 432.2L219 430.6Z" fill="#FFD700"/>
<path d="M192.8 442.3L193.4 440.8L195.1 441.5L196.5 442L195.9 443.5L195.3 445L193.8 444.4L192.3 443.8L192.8 442.3Z" fill="#FFD700"/>
<path d="M371.8 450L372.2 447.6L374.8 448.1L377.4 448.6L377 451L376.6 453.4L374 452.9L371.4 452.4L371.8 450Z" fill="#FFD700"/>
<path d="M272.8 458.7V457.2H275.9V458.7H274.4V460.2H272.8V458.7Z" fill="#FFD700"/>
<path d="M186.9 520.7V520H185.4V518.4H188.5V521.5H186.9V520.7Z" fill="#FFD700"/>
<path d="M276.7 521.9V521.1H278.2V522.7H276.7V521.9Z" fill="#FFD700"/>
<path d="M254.9 521.9V521.1H256.4V522.7H254.9V521.9Z" fill="#FFD700"/>
<path d="M280.3 522.7V521.2H281.8V524.3H280.3V522.7Z" fill="#FFD700"/>
<path d="M258.4 522.7V521.2H259.9V524.3H258.4V522.7Z" fill="#FFD700"/>
<path d="M461.5 569.2V567H462.8V565.5H464.3V569.9H461.5V569.2Z" fill="#FFD700"/>
<path d="M452.1 570.8V569.6H453.4V572H452.1V570.8Z" fill="#FFD700"/>
<path d="M417.2 573.8V573H418.5V571.5H420V574.6H417.2V573.8Z" fill="#FFD700"/>
<path d="M407.6 573V571.5H409.1V573H410.4V574.6H407.6V573Z" fill="#FFD700"/>
<path d="M548.4 584.1L548.7 583.4L549.4 583.8L550.1 584.2L550.4 583.5L550.7 582.8L551.5 583.2L552.3 583.6L551.7 584.9L551.1 586.2L549.6 585.4L548.1 584.6L548.4 584.1Z" fill="#FFD700"/>
<path d="M428 592.4V591H430.9V592.5H429.6V593.8H428V592.4Z" fill="#FFD700"/>
<path d="M468 597.5L465.9 596.1L466.7 594.9L467.5 593.7L469.5 594.9L471.4 596.1L470.6 597.7L469.9 598.8L468 597.5Z" fill="#FFD700"/>
<path d="M122.8 696.3V695.6H121.3V694H124.4V697.1H122.8V696.3Z" fill="#FFD700"/>
<path d="M62.8 695.4V693.9H65.9001V695.5H64.4001V697H62.8V695.4Z" fill="#FFD700"/>
<path d="M485.3 690.3V688H490.4V691.1H488V692.6H485.4V690.3H485.3Z" fill="#FFD700"/>
<path d="M485.3 708.7V706.4H487.9V707.9H490.3V711H485.2V708.7H485.3Z" fill="#FFD700"/>
<path d="M499.2 681.4H502.3V683.2H499.2V681.4Z" fill="#FFD700"/>
<path d="M499.2 716.7V715.7H502.3V717.7H499.2V716.7Z" fill="#FFD700"/>
<path d="M434.3 401.8L439.4 402.6L438.6 407.8L433.5 407L434.3 401.8Z" fill="#FFD700"/>
<path d="M429.4 428L435.1 428.9L434.3 434.3L428.6 433.4L429.4 428Z" fill="#FFD700"/>
<path d="M502.3 717.7H499.7V720H502.3V717.7Z" fill="#FFD700"/>
<path d="M502.3 678.9H499.7V681.2H502.3V678.9Z" fill="#FFD700"/>
<path d="M381.8 146.2V145.1H384.7V147.4H381.8V146.2Z" fill="#70777F"/>
<path d="M372.3 151.8V149.7H376.2V148.7H377.2V148.4H376.2V147.3H375.9V149.4H372.3V146H375.9L376 146.2L376.1 146.4L376.2 146.2L376.3 146H376.9V145.7H372.3V142.9H378.5V145.7H377.8V146H378.5V146.8H381.4V148.4H380.7V148.7H381.4V151.3H381.7V150.5H384.6V153.9H381.7V152.3H381.4V153.9H379.1V148.7H379.8V148.4H378.2V148.7H378.9V153.9H372.4L372.3 151.8Z" fill="#70777F"/>
<path d="M279.5 177.5V174.7H277.7V173.9H272.5V180.1H269.6V173.9H268.1V159.6H267.8V161.1H266.2V161.4H267.8V164H263.6V161.4H264.9V161H263.3V170.8H251.4V160.4H259.1V160.1H251.4V152.6H261.2V160.1H260.4V160.4H261.5V157H265.6V156.7H264.8V154.6H267.9V156.7H266.9V157H267.9V158.3H268.2V140.2H270.8V171.8H284V180.3H279.6L279.5 177.5ZM283 177.2V175.9H281.5V176.4H280.4V178.5H283V177.2Z" fill="#70777F"/>
<path d="M251.3 177.5V174.7H258.5V174.4H257.8V173.4H257.5V174.4H251.3V171.1H257.5V172.1H257.8V171.1H260.4V174.4H259.7V174.7H260.4V178.5H260.7V174.7H264.3V180.2H260.7V179.7H260.4V180.2H251.3V177.5Z" fill="#70777F"/>
<path d="M344.3 218.3C343.4 223.4 342.5 228.4 341.5 233.5C341.8 233.5 342.1 233.5 342.3 233.4C342.4 233.5 342.5 233.5 342.6 233.6C342.6 233.6 342.5 233.6 342.4 233.6C342.1 233.6 341.8 233.6 341.5 233.6C341.4 233.8 341.3 234 341.3 234.2C341 235.6 340.8 237 340.5 238.4L339.7 243C342.4 243.5 345.1 244 347.8 244.5C348 244.5 348.2 244.6 348.4 244.6C348.9 244.7 349.5 244.8 350 244.8C350.4 242.6 350.7 240.4 351.1 238.2C351.2 238.2 351.2 238.2 351.3 238.2C351.3 238.5 351.3 238.8 351.2 239.1C352.6 239.3 354 239.6 355.4 239.8C355.6 239.8 355.9 239.8 356.1 239.8L356.6 236.6C356.7 236.6 356.8 236.6 356.8 236.7L356.2 240.3C354.6 240 353 239.8 351.4 239.5C351.3 239.5 351.2 239.5 351 239.5C350.7 241.2 350.4 242.9 350.2 244.6C350.3 244.8 350.3 244.9 350.4 245.1C350.7 245.2 351 245.2 351.3 245.3C351.4 245.2 351.6 245 351.6 244.8C351.7 244.5 351.7 244.2 351.9 243.9C352 243.9 352 243.8 352.1 243.8C352.6 243.9 353.1 244 353.6 244.1C353.7 243.7 353.7 243.3 353.8 242.8C354 242.6 354.1 242.4 354.3 242.2C354.5 242.3 354.7 242.4 355 242.5C355.2 242.5 355.5 242.4 355.7 242.4C355.7 242.3 355.6 242.3 355.6 242.2C355.7 242.3 355.8 242.3 355.9 242.4C355.7 243.6 355.5 244.8 355.3 246C355.5 246 355.7 245.9 355.9 245.9C356.1 245.9 356.3 245.9 356.4 246C357.5 246.1 358.6 246.3 359.8 246.5C359.9 246.5 360 246.5 360 246.5C360.2 245.2 360.4 243.9 360.6 242.7C360.7 242.7 360.8 242.7 360.9 242.8C360.7 244 360.5 245.2 360.3 246.4C360.5 246.5 360.7 246.6 360.9 246.6C362 246.8 363.2 247 364.3 247.2C366.1 247.5 368 247.8 369.8 248C370 248 370.3 248.1 370.5 248.1C370.6 248.1 370.6 248.1 370.6 248C370.7 247.6 370.8 247.2 370.9 246.8C371.4 244.3 371.8 241.7 372.3 239.2C372.4 238.8 372.4 238.4 372.5 238.1C371.2 237.9 370 237.7 368.7 237.5C368.7 237.4 368.8 237.3 368.8 237.3C370.1 237.5 371.3 237.7 372.6 237.9C373.2 234.6 373.8 231.3 374.3 228C373.9 228 373.6 227.9 373.2 227.9C373.1 227.9 373 227.9 372.9 227.8C372.9 227.7 372.9 227.6 372.9 227.6C373 227.6 373.2 227.7 373.3 227.7C373.6 226.2 373.8 224.8 374.1 223.3C373.8 223.2 373.5 223.1 373.2 223C371.9 222.7 370.5 222.5 369.2 222.3C369.2 222.5 369.1 222.6 369.1 222.8C368.8 222.7 368.4 222.7 368.1 222.6C368 222.8 367.8 222.9 367.7 223.1C367.6 223.2 367.7 223.4 367.9 223.5C368.2 223.7 368.6 223.7 368.9 223.9C369 223.9 369 224 369 224.1C368.8 225 368.7 225.9 368.5 226.8C369.4 227 370.3 227.2 371.2 227.4L371.1 227.6C368.8 227.2 366.5 226.7 364.2 226.3C364.1 226.5 363.9 226.7 363.8 226.9C363.7 226.9 363.6 226.8 363.6 226.8L363.9 226.1C363.6 226.1 363.3 226.2 363 226.2C362.8 226.1 362.6 226 362.3 225.9C362.3 225.9 362.3 225.8 362.4 225.8C362.8 225.9 363.3 225.9 363.7 225.9C364 224.5 364.2 223.1 364.4 221.7C362.8 221.4 361.2 221.1 359.6 220.9C359.4 222.3 359.1 223.6 359 225C359 225.1 359 225.2 359 225.3C359.5 225.4 360 225.4 360.5 225.5C360.4 225.6 360.4 225.7 360.3 225.9C359.8 225.8 359.4 225.7 358.9 225.6C358.8 225.6 358.7 225.6 358.7 225.6C358.7 225.8 358.8 225.9 358.8 226.1C358.7 226.1 358.6 226.1 358.5 226.2C358.7 224.5 359 222.9 359.3 221.2C359.3 221.1 359.3 221 359.3 220.9C354.2 220 349.1 219.2 344 218.3C344.3 218.2 344.3 218.3 344.3 218.3ZM353.8 223.6C353.9 223.6 353.9 223.6 353.9 223.7C353.8 224.7 353.6 225.7 353.4 226.8C353.3 227.6 353.1 228.5 353 229.3V229.6C354.5 229.8 356 230 357.6 230.3L358.1 230.4C358.2 229.7 358.3 229.1 358.3 228.4C358.4 228.3 358.5 228.1 358.7 228C358.8 228 358.7 228.1 358.7 228.2L358.4 230.4C359.5 230.6 360.7 230.8 361.8 230.9C362.1 230.9 362.4 231 362.7 230.9C362.9 230.8 363 230.6 363.1 230.4C363.2 229.9 363.3 229.4 363.4 228.9C363.5 228.9 363.6 228.9 363.6 228.9C363.6 229.1 363.6 229.3 363.7 229.6C365.2 229.9 366.6 230.1 368.1 230.4C368.3 230.4 368.5 230.5 368.8 230.5C369 230.4 369.1 230.4 369.3 230.3C369.4 229.9 369.4 229.6 369.5 229.2C369.9 229.2 370.4 229.2 370.8 229.3L371.2 229.4C371.2 229.7 371.1 230.1 371.1 230.4C371 231.1 370.9 231.8 370.7 232.5C370.3 232.5 370 232.4 369.7 232.4C366 231.8 362.2 231.2 358.5 230.6C358.4 230.6 358.5 230.7 358.4 230.8C358.2 231.9 358 232.9 357.8 234C357.8 234 357.6 234.1 357.6 234C357.8 232.9 358 231.8 358.2 230.7C356.6 230.5 355 230.2 353.3 230C353.2 230.1 353.1 230.2 353 230.2L352.6 232.4C352.5 232.4 352.4 232.4 352.3 232.4C352.8 229.5 353.3 226.6 353.8 223.7C353.7 223.6 353.7 223.6 353.8 223.6ZM347.7 234.5C348.9 234.7 350.2 235 351.4 235.2H351.8C351.8 234.9 351.8 234.7 351.7 234.4C351.8 234.4 351.9 234.5 352 234.5C351.9 235.2 351.8 235.8 351.7 236.5C351.6 236.5 351.5 236.5 351.4 236.4C351.5 236.2 351.6 235.9 351.7 235.7C351.4 235.6 351.1 235.5 350.7 235.4C349.1 235 347.5 234.8 345.9 234.5C345.4 234.4 344.8 234.3 344.3 234.2C344.3 234.1 344.3 234 344.3 233.9C345.5 234.1 346.6 234.3 347.7 234.5ZM362.3 236.4C363 236.4 363.6 236.6 364.3 236.7C364.8 236.8 365.4 237 365.9 237.2C366 237.2 366 237.3 366.1 237.3C366.1 237.4 366 237.3 365.9 237.3C364.8 237.1 363.7 236.9 362.6 236.7C362.4 236.8 362.3 236.8 362.1 236.9C361.9 238 361.8 239 361.6 240.1C361.5 240.1 361.4 240.1 361.3 240L361.8 236.4C362 236.4 362.1 236.4 362.3 236.4Z" fill="#70777F"/>
<path d="M438.3 262.6C438.1 264.1 437.8 265.7 437.6 267.2L444.1 268.3C444.2 267.9 444.4 267.5 444.5 267.1C444.6 267.2 444.6 267.2 444.7 267.3C444.2 270 443.8 272.6 443.3 275.3C443.2 275.3 443.2 275.4 443.1 275.3C443 275.2 443.1 275.2 443.1 275.1C443.4 273.4 443.7 271.7 443.9 270.1C444 269.7 444 269.3 444 268.9C444 268.8 443.9 268.7 443.9 268.7L437.8 267.7C437.7 267.8 437.6 268 437.4 268.1C436.9 270.9 436.5 273.6 436 276.4C438.3 276.8 440.7 277.1 443 277.5C442.9 278.3 442.7 279.1 442.6 280C442.5 280 442.4 280 442.4 280C442.5 279.3 442.6 278.6 442.7 277.8C440.5 277.4 438.2 277.1 436 276.7C435.8 278.1 435.5 279.5 435.3 281C437.5 281.4 439.7 281.7 441.9 282.1C442 282 442 282 442.1 281.9C442.2 282 442.3 282 442.4 282.1C442.4 282.2 442.4 282.4 442.3 282.5C441 282.3 439.7 282 438.5 281.8C438.4 282.4 438.3 282.9 438.2 283.5C437.7 283.4 437.2 283.3 436.8 283.1C436.7 283.7 436.6 284.2 436.5 284.8C436.1 284.8 435.7 284.7 435.3 284.6C435.2 284.6 435 284.5 434.9 284.5C434.7 285 434.6 285.5 434.6 286C434.6 286.1 434.6 286.2 434.6 286.3C436.3 286.6 438 286.8 439.6 287.1C440 287.2 440.4 287.2 440.8 287.2C441 287.2 441.2 287 441.3 286.8C441.4 286.5 441.4 286.1 441.5 285.8C441.6 285.4 441.7 284.9 441.7 284.5H441.9C441.7 285.5 441.5 286.5 441.4 287.5C441.3 287.5 441.3 287.6 441.2 287.6C438.9 287.2 436.6 286.9 434.4 286.5C434.2 287.9 433.9 289.3 433.7 290.7C433.9 290.8 434.1 290.9 434.3 290.9C436.6 291.3 438.8 291.7 441.1 292.1C449.9 293.6 458.6 295.2 467.4 296.7C475.9 298.2 484.4 299.7 492.9 301.2L493.5 297.1C492.5 296.9 491.5 296.7 490.4 296.5C489.4 296.3 488.4 296.1 487.4 296L487.1 295.8L487.5 292.9C487.6 292.9 487.6 293 487.7 293C487.7 293.3 487.7 293.7 487.6 294C487.5 294.6 487.4 295.1 487.3 295.7L493.3 296.8C493.4 296.5 493.6 296.1 493.6 295.8C493.6 295.6 493.6 295.4 493.6 295.2C493.1 295.1 492.6 294.9 492.1 294.8C492.2 294.3 492.3 293.8 492.4 293.4C491.9 293.3 491.3 293.3 490.8 293.2C490.8 292.6 491 292.1 491.1 291.5C491.2 291.4 491.1 291.4 491 291.4C490 291.3 488.9 291.1 487.9 291C488 290.4 488.1 289.7 488.2 289C488.2 288.7 488.3 288.4 488.4 288.2H488.6C488.4 289 488.3 289.8 488.2 290.6C490 290.9 491.7 291.2 493.5 291.4C493.7 291.4 494 291.5 494.2 291.4C494.3 291.4 494.3 291.4 494.3 291.3C494.5 289.9 494.7 288.6 494.9 287.2C494.9 287.1 494.9 287 494.9 286.9C492.8 286.6 490.7 286.3 488.6 286C488.6 285.8 488.6 285.5 488.6 285.3C488.9 283.1 489.3 280.8 489.6 278.6C489.8 277.5 489.9 276.4 490 275.3C490.1 274.3 490.2 273.3 490.3 272.3C490.3 272.2 490.3 272 490.2 271.9C490.2 271.8 490.1 271.8 490 271.8C481.6 270.3 473.1 268.8 464.7 267.3C458.2 266.1 451.7 265 445.2 263.8C445.1 264.3 445 264.8 444.9 265.3C444.8 265.3 444.7 265.3 444.7 265.3C444.7 264.8 444.9 264.3 445 263.9C443.2 263.5 441.3 263.2 439.5 262.9C439.1 262.8 438.7 262.8 438.3 262.8V262.6ZM458.8 270.5C458.8 271 458.7 271.4 458.6 271.9C458.5 272.9 458.3 273.9 458.1 274.8C458.1 274.9 458 274.8 457.9 274.8C457.8 274.8 457.8 274.7 457.8 274.7C458 273.4 458.2 272.2 458.4 270.9C458.4 270.8 458.4 270.7 458.4 270.5H458.8ZM461.7 271.2C462.5 271.3 463.3 271.4 464.1 271.5C465.6 271.7 467.1 272 468.7 272.3C470 272.5 471.3 272.8 472.6 273C472.7 273.1 472.6 273.2 472.6 273.3C472.4 274.6 472.2 275.8 472 277.1C471.4 280.6 470.9 284 470.3 287.5C470.1 289 469.8 290.4 469.6 291.9C469.4 291.9 469.3 291.9 469.1 291.9C467 291.6 465 291.2 462.9 290.8C461.2 290.5 459.6 290.2 457.9 289.9C458 289.2 458.2 288.4 458.3 287.7C459.3 282.2 460.3 276.7 461.3 271.2C461.5 271.2 461.6 271.2 461.7 271.2ZM475.5 273.4C475.6 273.4 475.7 273.4 475.6 273.5C475.4 274.8 475.2 276 474.9 277.3C474.9 277.4 474.9 277.5 474.9 277.5C474.8 277.5 474.7 277.5 474.7 277.5C474.9 276.1 475.1 274.8 475.4 273.4C475.5 273.4 475.5 273.4 475.5 273.4ZM457.7 276.9C457.8 276.9 457.9 276.9 457.8 277C457.4 279.3 457 281.6 456.6 284C456.5 284 456.4 284.1 456.4 284C456.5 283.1 456.7 282.3 456.8 281.4C457 279.9 457.3 278.4 457.5 276.9C457.6 276.9 457.7 276.9 457.7 276.9ZM474.5 279.5C474.5 279.5 474.6 279.5 474.6 279.6C474.6 280 474.5 280.3 474.5 280.7C474.2 282.7 473.8 284.8 473.5 286.8C473.4 286.8 473.4 286.8 473.3 286.8C473.3 286.4 473.4 286.1 473.5 285.7C473.7 283.5 474.1 281.5 474.5 279.5C474.4 279.5 474.4 279.4 474.5 279.5ZM456.1 286C456.2 286 456.3 286 456.2 286.1C456 287.3 455.8 288.6 455.6 289.8C455.5 289.8 455.5 289.8 455.4 289.8C455.6 288.5 455.8 287.3 456 286H456.1ZM472.8 290.6C472.7 291.2 472.6 291.9 472.5 292.5H472.3C472.5 291.3 472.7 290 472.9 288.8H473.2C473 289.4 472.9 290 472.8 290.6Z" fill="#70777F"/>
<path d="M272.4 361.5V360.1H277.3V362.9H272.4V361.5Z" fill="#70777F"/>
<path d="M275.7 363.7V363H277.3V364.3H275.7V363.7Z" fill="#70777F"/>
<path d="M220 427.8L220.6 426.4L222.1 427L223.6 427.6L223 429L222.4 430.4L220.9 429.8L219.4 429.2L220 427.8Z" fill="#70777F"/>
<path d="M210 427.3L210.3 426.5L210.9 426.7L211.5 426.9L211.2 427.7L210.9 428.5L210.3 428.3L209.7 428.1L210 427.3Z" fill="#70777F"/>
<path d="M220.3 432L220.5 431.4L221.2 431.7L221.9 432L221.7 432.6L221.5 433.2L220.8 432.9L220.1 432.6L220.3 432Z" fill="#70777F"/>
<path d="M211.1 428.6L211.8 426.9L213 427.4L214.2 427.9L213.5 429.6L212.8 431.3L211.6 430.8L210.4 430.3L211.1 428.6Z" fill="#70777F"/>
<path d="M206.7 426.9L207.4 425.2L208.2 425.5L209 425.8L208.3 427.5L207.6 429.2L206.8 428.9L206 428.6L206.7 426.9Z" fill="#70777F"/>
<path d="M218 432.8L218.3 432L219.8 432.6L221.3 433.2L221 434L220.7 434.8L219.2 434.2L217.7 433.6L218 432.8Z" fill="#70777F"/>
<path d="M423.8 348.2C423.4 350.6 422.9 353 422.5 355.4C422.6 355.5 422.6 355.6 422.7 355.7C423.8 355.9 425 356.1 426.1 356.2C426.3 356.1 426.4 356 426.6 355.9C426.6 355.6 426.6 355.3 426.6 354.9C426.8 354.9 427 354.8 427.3 354.8C427.4 354.9 427.5 355 427.7 355.1C427.5 355.2 427.3 355.1 427.2 355.1C427.1 355.1 427 355.1 427 355.1C426.8 356.5 426.6 357.9 426.3 359.2C425.2 359 424 358.9 422.9 358.7C421.3 358.5 419.7 358.2 418 357.9C417.6 358.7 417.3 359.4 416.9 360.2C416.6 360.8 416.3 361.4 416 362C416.1 362.1 416.2 362.2 416.4 362.3C416.7 362.4 417 362.5 417.3 362.5C417.1 362.8 417 363.1 416.9 363.5L416.8 363.9C416.7 363.9 416.6 363.9 416.5 363.9C416.6 363.6 416.7 363.4 416.8 363.1C416.7 362.9 416.7 362.8 416.6 362.6C415.2 362.4 413.9 362.1 412.5 361.9C412.4 362.6 412.2 363.2 412.1 363.9C412.1 364.3 412 364.7 412.2 365C412.4 365.3 412.8 365.5 413.2 365.6C413.9 365.8 414.7 365.9 415.5 366C415.8 366 416.1 366.1 416.4 366.1C416.3 365.9 416.3 365.8 416.2 365.6C416.3 365.4 416.4 365.2 416.5 365C416.5 365 416.7 365 416.7 365.1C416.7 365.5 416.6 365.9 416.6 366.3C416.4 366.3 416.2 366.4 416 366.4C414.8 366.2 413.7 365.9 412.5 365.7C412.3 365.8 412.1 365.8 411.9 365.9C411.6 367.3 411.4 368.6 411.1 370C411.2 370.1 411.3 370.2 411.4 370.2C412.1 370.4 412.8 370.5 413.5 370.6C414.8 370.8 416 371 417.3 371.2C417.8 368.5 418.2 365.8 418.7 363.1C418.6 363 418.5 362.9 418.5 362.8V362.6C419.5 362.8 420.6 363 421.6 363.2C421.7 363.3 421.8 363.3 421.8 363.4C421.7 363.4 421.7 363.6 421.6 363.5C421.4 363.4 421.1 363.3 420.9 363.2C420.6 364.7 420.3 366.2 420 367.6L419.3 371.5C419.6 371.5 419.9 371.5 420.1 371.5C420.1 371.6 420.1 371.7 420.1 371.8C420 371.9 419.9 371.8 419.8 371.8C419 371.7 418.3 371.6 417.6 371.4C417.5 371.4 417.4 371.3 417.4 371.4C416.5 376.6 415.6 381.8 414.6 386.9C415.5 387.1 416.4 387.3 417.3 387.4C417.3 387.5 417.3 387.6 417.3 387.6C416.5 387.5 415.7 387.3 414.9 387.2C414.7 387.2 414.6 387.1 414.4 387.1C414.2 387.9 414.1 388.6 413.8 389.4C413.8 389.5 413.7 389.6 413.6 389.7C412.7 389.5 411.9 389.4 411 389.2C410.9 389.5 410.7 389.9 410.7 390.2C410.6 390.8 410.5 391.5 410.4 392.2C410.5 392.3 410.6 392.4 410.6 392.5C412.3 392.8 414 393.2 415.7 393.5C416.5 393.7 417.4 393.8 418.2 394C418.5 394.1 418.9 394.2 419.2 394.5C419.4 394.8 419.4 395.1 419.4 395.5C419.4 396.2 419.2 396.9 419.1 397.6C418.9 398.6 418.7 399.6 418.6 400.6C420 400.8 421.5 401.1 422.9 401.3C423 400.7 423.2 400 423.3 399.4C424.6 399.6 426 399.8 427.3 400C427.6 400 427.9 400.1 428.2 400.2C428.3 400.2 428.3 400.3 428.3 400.4C428.3 400.5 428.2 400.4 428.1 400.4C426.6 400.2 425 399.9 423.5 399.8C423.4 399.8 423.3 399.7 423.3 399.9C422.9 402 422.6 404.1 422.2 406.1C422.4 406.2 422.5 406.4 422.7 406.5C423.6 406.7 424.5 406.8 425.4 407.1C425.5 407.1 425.6 407.2 425.7 407.2C425.9 407.2 426.2 407.1 426.4 407C426.6 406.9 426.8 406.9 427 407C427.1 407 427.2 407 427.2 407C427.2 406.9 427.2 406.8 427.3 406.7C427.6 406.8 427.8 406.7 428.1 406.6C428.6 406.5 429.2 406.5 429.7 406.5C430.2 406.5 430.8 406.5 431.3 406.5C431.9 406.7 432.6 406.8 433.2 407.1C433.4 407.2 433.5 407.4 433.7 407.4C434.1 407.5 434.4 407.7 434.8 407.9C435.6 408.5 436.3 409.3 437 410.1C437.6 410.9 438.2 411.7 438.6 412.6C438.7 412.8 438.8 413 438.9 413.2C438.9 413.4 438.8 413.6 438.9 413.7C438.9 413.7 439 413.8 439.1 413.8C439.2 414.6 439.4 415.4 439.4 416.2C439.4 416.8 439.4 417.4 439.4 418C439.3 419.2 438.9 420.4 438.3 421.4C438 422 437.6 422.5 437.2 423C436.9 423.4 436.6 423.8 436.3 424.1C436.2 424.2 436 424.3 435.9 424.4C435.8 425.7 435.6 426.9 435.4 428.2C435.4 428.4 435.3 428.6 435.3 428.8C435 428.8 434.8 428.7 434.5 428.7C434.5 429 434.5 429.2 434.5 429.5C434.3 430.8 434.1 432.2 434 433.5C434 433.7 434 433.8 434 434C434 434.1 434 434.2 434.1 434.1C434.9 434.2 435.6 434.3 436.4 434.4C436.5 433.4 436.7 432.4 436.8 431.4C436.9 431.4 437 431.5 437 431.5C436.9 432.3 436.7 433.1 436.6 433.8C436.8 434 436.9 434.2 437.1 434.5C437.3 434.5 437.6 434.6 437.8 434.6C438.2 434.3 438.5 434.1 438.8 433.8C439.3 433.3 439.9 432.8 440.4 432.4C440.8 432.1 441.2 431.7 441.5 431.3C441.7 431.1 441.9 431 442.1 430.8C442.6 430.4 443 430 443.5 429.6C443.8 429.4 444 429.2 444.3 428.9C444.6 428.6 444.9 428.4 445.1 428.1C445.2 428 445.2 427.9 445.2 427.7C445.2 427.7 445.1 427.7 445 427.8C444.9 427.8 444.8 427.9 444.7 427.9C443.8 427.8 443 427.7 442.1 427.6C440.6 427.4 439.1 427.2 437.6 426.9C437.5 427.8 437.3 428.8 437.2 429.7C437.1 429.7 437.1 429.7 437 429.8C437 429.5 437 429.3 437 429C437.1 428.2 437.2 427.5 437.3 426.7C437.4 426.6 437.5 426.7 437.7 426.7C439.2 426.9 440.7 427.1 442.3 427.3C443.2 427.4 444.1 427.6 445.1 427.7C445.1 427.2 445.2 426.8 445.2 426.3C445.2 423.7 445.2 421.1 445.2 418.5C445.2 415.1 445.2 411.6 445.1 408.2C445.1 407.8 445.1 407.4 445.1 407C445 406.3 445 405.5 445 404.8C445 404.1 445 403.3 445 402.6C443.1 402.3 441.1 402 439.2 401.6C439.1 401.6 439 401.6 438.9 401.6C438.9 401.8 439 402.1 438.9 402.3C438.8 403.5 438.6 404.8 438.5 406C438.5 406.3 438.4 406.5 438.4 406.8C438.4 406.9 438.4 406.9 438.3 406.9C438.2 407 438.1 407 438 407.1C436.5 406.9 434.9 406.6 433.4 406.4C433.3 406.3 433.4 406.1 433.4 406C433.5 405.1 433.6 404.3 433.7 403.5C433.8 402.7 433.9 401.8 434 401C433.1 400.9 432.1 400.8 431.2 400.6C431.2 400.5 431.1 400.5 431.1 400.4C431.2 400.4 431.3 400.4 431.4 400.4C432.2 400.5 433 400.6 433.8 400.7C434.5 400.8 435.3 400.9 436 401C436.2 400.9 436.3 400.8 436.5 400.8C436.7 399.3 437 397.8 437.2 396.3C437.4 395.2 437.6 394 437.9 392.9C437.9 392.7 437.7 392.6 437.6 392.6C437.5 392.6 437.4 392.5 437.3 392.5C437.4 392.1 437.4 391.7 437.5 391.4C435.6 391.1 433.6 390.8 431.7 390.4C430.1 390.1 428.5 389.9 426.9 389.6C425.4 389.3 424 389 422.5 388.8L420.4 388.5C420.4 388.4 420.3 388.4 420.2 388.3C420.3 388.3 420.3 388.1 420.4 388.2C421.4 388.5 422.4 388.7 423.4 388.8C423.6 388.8 423.8 388.9 424 388.8C424.1 388.8 424.1 388.8 424.1 388.7C425 383.6 425.9 378.5 426.8 373.4C426.7 373.3 426.7 373.2 426.6 373.1C425.1 372.8 423.6 372.6 422.1 372.3C422.1 372.2 422.1 372.2 422.1 372.1C422.6 372.1 423 372.3 423.5 372.4C423.6 372.4 423.5 372.3 423.6 372.2C424.1 369.6 424.6 366.9 425.2 364.3C424.7 364.2 424.2 364.1 423.7 364C423.7 363.9 423.7 363.8 423.7 363.8C424.5 363.9 425.4 364.1 426.2 364.2C427.5 364.4 428.9 364.7 430.2 364.9C430.7 362 431.1 359 431.6 356.1C431.6 355.9 431.7 355.7 431.7 355.5C432.8 355.7 433.9 355.9 435.1 356C435.2 355.3 435.4 354.6 435.5 353.9C435.5 353.7 435.6 353.5 435.8 353.5C436.1 353.5 436.4 353.5 436.7 353.5C437.5 353.6 438.2 353.7 439 353.8C438.7 355.1 438.5 356.4 438.2 357.7C438 359 437.7 360.3 437.5 361.5L436 361.2C435.9 361.9 435.8 362.6 435.6 363.3C435.1 363.2 434.5 363.1 434 363C433.9 363.7 433.8 364.5 433.7 365.2C436.8 365.8 439.8 366.4 442.9 367C442.9 367.1 443 367.1 442.9 367.2C442.8 367.3 442.7 367.4 442.6 367.5C442.4 368.6 442.2 369.8 441.9 370.9C441.8 371.1 441.8 371.4 441.7 371.6C441.8 371.7 441.9 371.8 442.1 371.9C444.8 372.4 447.5 373 450.2 373.5C450.7 373.6 451.2 373.7 451.6 373.8C452.1 371 452.6 368.2 453.1 365.4C451.6 365.1 450.1 364.8 448.5 364.5C448.2 365.6 448.1 366.8 447.9 367.9C447.7 367.9 447.6 368 447.4 368.1C446.3 367.9 445.2 367.6 444 367.4C444.9 362.2 445.9 357 446.8 351.8C446.2 351.7 445.7 351.6 445.1 351.5C440.2 350.6 435.3 349.7 430.3 348.8C430.2 349.5 430 350.2 429.9 350.9C429.7 352.2 429.5 353.4 429.3 354.7C429.3 354.9 429.2 355.1 429.1 355.2C428.8 355.1 428.5 355.1 428.2 355C428.2 354.9 428.2 354.8 428.2 354.8C428.5 354.8 428.7 354.8 429 354.7C429.1 353.8 429.2 352.9 429.4 352C429.6 350.9 429.7 349.8 429.9 348.8C427.7 348.4 425.5 348 423.3 347.6C423.9 348.1 423.9 348.2 423.8 348.2ZM422.6 395.4C423.1 395.5 423.6 395.6 424.1 395.7C424.1 395.8 424.1 395.9 424.2 396C424.1 396.1 424 396 423.9 396C423.2 395.9 422.5 395.8 421.8 395.6L421.1 395.4C421.1 395.3 421.1 395.1 421.2 395L422.6 395.4ZM427.1 396.4C427.6 396.5 428.1 396.6 428.5 396.7C428.5 396.8 428.4 397 428.4 397.1C427.4 396.9 426.5 396.8 425.5 396.6C425.5 396.5 425.6 396.3 425.6 396.2C426.1 396.3 426.6 396.4 427.1 396.4ZM429.5 400.6C429.6 400.6 429.7 400.6 429.6 400.7C429.6 400.8 429.7 400.9 429.6 400.8C429.5 400.8 429.4 400.8 429.2 400.7C429.2 400.6 429.3 400.6 429.3 400.5C429.5 400.6 429.5 400.6 429.5 400.6ZM430.8 400.9C430.8 401 430.8 401.1 430.7 401.1L430.4 401C430.5 400.9 430.6 400.7 430.8 400.7C430.8 400.8 430.8 400.8 430.8 400.9Z" fill="#70777F"/>
<path d="M429.9 407C429.6 407.1 429.3 407.2 429.1 407.2C428.8 407.2 428.5 407.2 428.2 407.3C427.7 407.4 427.3 407.6 426.8 407.6C426.6 407.6 426.4 407.8 426.3 407.9C426.2 408 426.1 408 426.1 408.1C425.3 412.6 424.6 417.1 423.8 421.5C423.7 421.5 423.6 421.5 423.6 421.4C423.8 419.8 424.1 418.3 424.4 416.7C424.1 416.7 423.8 416.7 423.4 416.7C423 416.7 422.7 416.6 422.3 416.6C421.9 416.5 421.4 416.5 421 416.5C420.9 416.5 420.7 416.5 420.6 416.5C420.6 416.9 420.5 417.3 420.4 417.7C419.3 417.5 418.2 417.2 417 416.9C415.6 416.6 414.2 416.4 412.8 416.2C412.2 416.1 411.6 416 410.9 415.9C410.8 415.9 410.7 415.9 410.6 416C410.5 416 410.5 416.1 410.5 416.2C410.1 418.3 409.7 420.4 409.3 422.4C409.2 423.2 409 424 408.9 424.8C409 424.9 409 425 409.1 425.2C410 425.4 411 425.6 411.9 425.8C412.6 425.9 413.3 426.1 414 426.2C414.1 425.4 414.2 424.6 414.2 423.8C414.3 423.8 414.4 423.8 414.4 423.8C414.5 424.1 414.4 424.4 414.4 424.7C414.3 425.3 414.2 426 414.1 426.6C414.2 426.7 414.3 426.8 414.4 426.8C415.2 427 415.9 427.1 416.7 427.3C417.6 427.5 418.5 427.6 419.4 427.9C419.5 427.9 419.6 428 419.7 428C419.7 428.1 419.5 428.2 419.4 428.3C419.3 428.4 419.2 428.4 419 428.5C419 428.9 419 429.2 419.1 429.6C419.1 429.7 419.2 429.8 419.3 429.8C419.8 429.9 420.2 430 420.7 430.2C420.8 429.7 420.9 429.2 421 428.7L420.6 428.3C420.7 428.3 420.8 428.2 420.9 428.2C421.4 428.3 421.8 428.4 422.3 428.5C422.5 427.7 422.6 426.8 422.7 426C422.8 425.3 422.9 424.6 423.1 423.9C423.2 423.9 423.3 424 423.4 424C422.9 426.8 422.5 429.6 422 432.4C422.3 432.5 422.5 432.6 422.8 432.6C424.3 432.9 425.9 433.2 427.4 433.4C427.7 433.5 428.1 433.5 428.4 433.5C428.7 431.7 429 429.8 429.2 428C430.5 428.2 431.8 428.4 433.2 428.6C433.8 428.7 434.4 428.8 435 428.9C435.1 428.8 435.2 428.7 435.4 428.7C435.6 427.4 435.8 426.2 435.9 424.9C436.3 424.5 436.7 424.1 437 423.7C437.3 423.3 437.6 423 437.8 422.6C438 422.3 438.2 422 438.4 421.7C438.6 421.3 438.8 420.9 439 420.5C439.2 419.3 439.5 418.1 439.7 416.9C439.6 416.9 439.5 416.9 439.4 416.8C439.5 416.5 439.5 416.2 439.6 415.9C439.4 415.2 439.1 414.4 438.9 413.7C438.6 412.8 438.1 412.1 437.6 411.3C436.9 410.3 436 409.3 435 408.6C434.4 408.2 433.7 407.8 433 407.5C432.2 407.3 431.3 407.1 430.4 407C430.3 407.1 430.1 407 429.9 407ZM428.3 412.1C428.3 412.2 428.4 412.2 428.4 412.3C428 414.7 427.7 417.1 427.3 419.4C426.6 419.3 426 419.2 425.3 419.1C425.3 419 425.4 418.8 425.4 418.7C425.9 418.8 426.4 418.8 426.9 418.9C427.3 416.7 427.6 414.5 427.9 412.3C427.9 412.2 427.9 412 428 411.9C428.1 411.9 428.1 411.9 428.2 411.9C428.2 412 428.3 412.1 428.3 412.1Z" fill="#70777F"/>
<path d="M278.4 429V427.5H278.1V428.2H270.1V425.6H278.1V426.3H278.4V390.6H278.1V394.4H274.5V397.3H270.1V391.9H276V390.4H275.7V391.5H270.2V383.2H275.7V389.1H276V385.7H278.1V389.3H278.4V368.1H278.1V368.6H270.1V366H278.1V366.5H278.4V366H281.2V390.9H281.5V386.8H282.3V386.5H281.5V384.1H285.2V386.5H283.6V386.8H285.6V384H291.6V389.2H283.8V391H284.1V389.5H291.6V393.3H284.1V392.3H283.8V394.4H284.1V393.6H291.6V401.1H284.1V395.7H283.8V397.7H281.5V392.2H281.2V430.5H278.4V429ZM280.9 398.9V396.5H278.8V401.4H280.9V398.9Z" fill="#70777F"/>
<path d="M275.7 430.5V429.8H277.3V431.1H275.7V430.5Z" fill="#70777F"/>
<path d="M272.4 432.7V431.3H277.3V434.1H272.4V432.7Z" fill="#70777F"/>
<path d="M195.6 443.5L196.2 441.9L201.5 444L206.8 446.1L206.2 447.7L205.6 449.3L200.3 447.2L195 445.1L195.6 443.5Z" fill="#70777F"/>
<path d="M193.9 443.8L194.2 443L194.8 443.2L195.4 443.4L195.1 444.2L194.8 445L194.2 444.8L193.6 444.6L193.9 443.8Z" fill="#70777F"/>
<path d="M191.4 441.8L192 440.2L192.7 440.5L193.4 440.8L192.8 442.4L192.2 444L191.5 443.7L190.8 443.4L191.4 441.8Z" fill="#70777F"/>
<path d="M376.1 457.7V456.5L376.2 456.6L376.3 456.7V457.8V458.9H376.1V457.7Z" fill="#70777F"/>
<path d="M406.9 430.1C406.6 431.6 406.3 433.1 406 434.6C405.2 438.5 404.4 442.5 403.6 446.4C404.4 446.5 405.2 446.6 406 446.7C406.3 446.8 406.6 446.8 406.8 446.9C406.9 446.9 407 447 407 447C407 447.1 407 447.2 406.9 447.1C405.4 446.8 403.9 446.6 402.4 446.3C402.2 446.4 402.1 446.4 401.9 446.5C401.2 450.2 400.5 454 399.7 457.7C399.6 458.2 399.5 458.8 399.3 459.3C398.7 459.2 398.1 459.1 397.6 459C395.4 458.6 393.2 458.2 391 457.8C386.9 457 382.8 456.3 378.7 455.5C377.9 455.3 377 455.2 376.2 455C376.1 455 376.2 454.9 376.2 454.8C376.3 454.2 376.4 453.7 376.5 453.1C375.8 452.9 375 452.8 374.3 452.7C373.3 452.5 372.4 452.4 371.4 452.2C371.5 451.9 371.5 451.7 371.5 451.4C371.6 450.9 371.7 450.4 371.8 449.9C369.6 449.5 367.5 449.1 365.3 448.7C364.9 450.6 364.5 452.5 364 454.4C363.7 456.2 363.4 458 363 459.8C363.7 459.9 364.4 459.9 365 460C368.3 460.5 371.6 461 374.9 461.5L375.6 457.7C375.7 457.6 375.8 457.5 375.9 457.4C384.8 459 393.7 460.7 402.6 462.3C403.9 462.5 405.2 462.8 406.5 463C407.1 459.7 407.7 456.4 408.3 453.1C408.4 453 408.4 453 408.5 452.9C409.4 453.1 410.4 453.3 411.3 453.4C411.6 451.9 411.9 450.3 412.3 448.8C412.3 448.6 412.4 448.4 412.5 448.2C412.5 448.1 412.6 448 412.6 448C411.4 447.8 410.2 447.6 409.1 447.4C409.1 447.3 409.1 447.2 409.1 447.2C410 447.4 410.9 447.5 411.8 447.7C412 447.7 412.2 447.8 412.4 447.8C412.6 447.3 412.8 446.7 412.9 446.2C413.8 441.3 414.7 436.4 415.6 431.6C414.4 431.4 413.1 431.1 411.9 430.9C411.9 430.7 412 430.5 412 430.4L410 430C410 430.2 409.9 430.4 409.9 430.5C408.9 430.3 407.9 430.1 406.9 429.9V430.1Z" fill="#70777F"/>
<path d="M184.5 516.7V515H188.4V518.4H184.5V516.7Z" fill="#70777F"/>
<path d="M254.8 519.4V517.7H259.9V521.1H254.8V519.4Z" fill="#70777F"/>
<path d="M276.6 524.7V522.7H278.1V524.2H281.7V526.6H276.6V524.7Z" fill="#70777F"/>
<path d="M271.1 531.6V527H272.7V526.7H269.3V525.1H272.6V524.4H272.4C272.3 524.4 272.2 524.5 272.2 524.6V524.8H269.3V517.8H272.2V523.3H272.5V522L272.7 521.9L272.9 521.8L272.7 521.7L272.5 521.6V517.7H274V517.4H273V516.1H279.5V503.2H281.6V517.4H280.8V517.7H281.6V521.1H276.5V517.7H277.3V517.4H275V517.7H276.3V521.6H273.7V521.8C273.7 521.9 273.8 522 273.9 522H274.1V522.7H274.4V522H276.4V524.9H274.4V523.4H274V525.5H274.2C274.3 525.5 274.4 525.4 274.4 525.3V525.1H276.4V526.6H274.5L274.4 526.4L274.3 526.2L274 526.5C273.9 526.7 273.7 526.8 273.7 526.9V527H276.3V536.1H271.1V531.6Z" fill="#70777F"/>
<path d="M262.1 532.6V529.1H265.4V528.8H262V528.3H261.7V528.8H248.5V527H255.7V526.7H254.9V522.8H256.4V524.3H260V526.7H259V527H261.6V527.5H261.9V527H263.4V526.7H260.1V517.7H264.7V526.7H264.5C264.4 526.7 264.3 526.8 264.3 526.9V527.1H268.6V528.1C268.6 528.7 268.6 529.4 268.6 529.7V530.3H270.7V536.2H267V529.2H267.2C267.3 529.2 267.4 529.1 267.4 529V528.8H266.4V529C266.4 529.1 266.5 529.2 266.6 529.2H266.8V536.2H262.2V532.6H262.1Z" fill="#70777F"/>
<path d="M184.7 531.4V526.7H186.3V526.4H180.3V523.8H185.4V520H186.9V521.5H188.5V523.8H191.3V523.5H188.9V515H194.1V523.5H192.5V523.8H196.3V523.5H194.5V515H199.2V523.5H197.6V523.8H198.4V526.4H197.6V526.7H199.2V536H194.8V526.7H196.3V526.4H192.7V526.7H194.5V536H189.4V526.7H191.2V526.4H187.8V526.7H189.1V536.2H184.9V531.4H184.7ZM198 519.8V518.3H196.8H195.6V519.8V521.3H196.8H198V519.8Z" fill="#70777F"/>
<path d="M461.5 569.4V568.7H464.3V570H461.5V569.4Z" fill="#70777F"/>
<path d="M407.5 569.5V567.5H410.3V571.6H407.5V569.5Z" fill="#70777F"/>
<path d="M417.2 572.3V571.6H418.5V572.9H417.2V572.3Z" fill="#70777F"/>
<path d="M409 572.3V571.6H410.3V572.9H409V572.3Z" fill="#70777F"/>
<path d="M426.5 592.5V591.1H428V593.9H426.5V592.5Z" fill="#70777F"/>
<path d="M466.6 596.8L466.2 596.6L466.3 596.4L466.4 596.2L466.1 595.9L465.8 595.6L465.7 595.9L465.6 596.2L464.1 595.3C463.3 594.8 462.5 594.4 462.4 594.3L462.2 594.2L462.7 593.1L463.2 592L463.4 592.1L463.6 592.2L463.8 591.8L464 591.4L463.8 591.3L463.6 591.2L464 590.4C464.2 590 464.5 589.3 464.7 589L465 588.4L464.8 588.3C464.4 588.1 464.4 588.1 464.1 588.6L463.8 589.1H453.5V589.4H461.3V594H447.4V589.4H452.5V589H433.4V593.9H429.6V592.6H431.1V590.8H426.5V585.7H426.2V587.2H420.3V585.7H420V588.6H417.6V587.6H417.3V588.6H407.7V584.2H408.4V583.9H407.7V574.6H410.5V575.9H410V583.9H409.5V584.2H417.3V586.6H417.6V575.8H417.3V574.5H420.1V579.2H420.4V569.1H420.1V571.4H417.3V566H420.1V568H420.4V566H421.9V581.6H420.4V580.3H420.1V584.4H420.4V583.1H426.3V584.4H426.6V581.5H437V586.4H452.5V586.1H447.6V581.5H458V586.1H453.4V586.4H460.4V586.1H458.3V581.5H460.3V581.2H459.2V575.5H460.3V575.2H457.5V571.4H457.2V575.2H452.1V563.8H457.2V570.2H457.5V563.8H464.3V565.6H462.8V567.1H461.2V570.4H464.3V575.3H461.5V575.6H462.6V581.3H461.5V581.6H467.2L466.8 582.4L466.4 583.2L466.5 583.4L466.6 583.6H467.1L467.6 582.7L468.1 581.8L475 585.8C478.8 588 482 589.9 482.1 590L482.3 590.2L481.8 591.1C481.2 592.2 481.5 592.2 478.6 590.6C474.2 588.1 469.8 585.6 469.2 585.3L468.7 585L468.4 585.3C468.2 585.5 467.4 587 466.5 588.6L464.9 591.6H464.7H464.5L464.3 591.9L464.1 592.2L464.5 592.5C464.7 592.7 465 592.8 465.1 592.8C465.2 592.8 465.7 593 466.2 593.3L467.1 593.8L466.8 594.3L466.5 594.8L466.7 595.1C467 595.5 467.1 595.4 467.4 594.9C467.7 594.4 467.8 594.3 468.2 594.6L468.5 594.8L467.9 595.8C467.6 596.3 467.3 596.8 467.3 596.9C467.2 597 467.1 597 466.6 596.8ZM465.8 586.5L466.2 585.7L466 585.4C465.9 585.3 465.8 585.1 465.7 585.1L465.5 585L465.3 585.6L465.1 586.2H461.4V586.5H464.8L464.7 586.7L464.6 586.9L464.9 587.1C465.3 587.4 465.3 587.4 465.8 586.5Z" fill="#70777F"/>
<path d="M471.7 599.8L469.8 598.7L470.1 598.2L470.4 597.7L469.9 597.3L469.4 596.9L469.5 596.6C469.6 596.4 469.7 596.2 469.8 596.2L470 596.1L470.8 596.4L471.6 596.7L471.4 597L471.2 597.3L471.4 597.1L471.6 596.9L473.3 597.8C475.3 598.9 475.1 598.6 474.3 600L473.6 601.1L471.7 599.8Z" fill="#70777F"/>
<path d="M124.4 695.5V694H125.4V697.1H124.4V695.5Z" fill="#70777F"/>
<path d="M61.8 695.5V694H62.8V697.1H61.8V695.5Z" fill="#70777F"/>
<path d="M82.2 710.8V707.3H86.6V706.2H86.3V707H82.2V704.2H86.3V705.2H86.6V703.2H86.3V703.9H58.4V701.8H65.2V701.5H63.4V698.9H68.1V701.5H66.5V701.8H71.2V695.8H71.7V695.5H71.2V695H70.9V696.1H68.3V697.1H64.4V695.6H65.9V693.8H61.8V693.3H70.9V693.8H71.2V693.3H73.2V695.4H72.7V695.7H73.2V701.7H86.2V702.4H86.5V698.8H87.2V698.5H86.5V693.3H94V698.5H88.1V698.8H88.8V699.6H89.1V698.8H94V701.4H89.1V700.6H88.8V701.7H98.6V701.4H97.3V700.6H97V701.4H94.4V698.8H97V699.6H97.3V698.8H99V698.5H94.4V693.3H101.2V698.5H99.9V698.8H104.8V698.5H101.5V693.3H106.9V698.5H106.2V698.8H108V698.5H107.2V693.3H113.6V698.5H108.9V698.8H109.6V699.8H109.9V698.8H113.6V701.4H109.9V700.6H109.6V701.4H108V701.7H114V695.7H114.5V695.4H114V693.3H116V693.8H116.3V693.3H125.4V693.8H121.3V695.6H122.8V697.1H118.9V696.1H116.3V694.8H116V695.5H115.5V695.8H116V701.8H120.7V701.5H119V698.9H123.7V701.5H121.9V701.8H128.7V703.9H104.4V701.8H106.8V701.5H99.8V701.8H101.1V702.5H101.4V701.8H104V703.9H101.4V703.2H101.1V703.9H97V704.2H99.1V705H99.4V704.2H104.9V714.3H99.4V706H99.1V714.3H93.6V704.2H95.6V703.9H89.4V714.3H82.1L82.2 710.8Z" fill="#70777F"/>
<path d="M495.1 678.9V683H495.9V683.3H490.8V699H490.4V691.2H488V693.3H485.4V705.9H488V708H490.4V700.2H490.8V715.5H495.9V715.8H495.1V720H499.7V718.2H498.9V715.8H497.9V715.5H500.7V710.9L499.7 706.9V692L500.7 688V683.2H497.9V682.9H498.9V680.6H499.7V678.8L495.1 678.9ZM486.3 693.8H487.3V696.4H486.3V693.8ZM486.3 697.7H487.3V700.3H486.3V697.7ZM486.3 702.9H487.3V705.5H486.3V702.9Z" fill="#70777F"/>
</svg>
