<svg width="606" height="832" viewBox="0 0 606 832" fill="none" xmlns="http://www.w3.org/2000/svg">
<path d="M381.7 148.9V147.4H385V150.5H381.7V148.9Z" fill="#FFD700"/>
<path d="M280.5 177.4V176.3H281.6V175.8H283.1V178.4H280.5V177.4Z" fill="#FFD700"/>
<path d="M365.6 220.1L366.1 217.3L368.2 217.7L370.3 218.1L369.8 220.9L369.3 223.7L367.2 223.3L365.1 222.9L365.6 220.1Z" fill="#FFD700"/>
<path d="M477.9 232.9L478.1 231.6L477 231.4L475.9 231.2L476.1 230L476.3 228.8L478.5 229.2L480.7 229.6L480.3 232.1L479.9 234.6L478.9 234.4L477.9 234.2V232.9Z" fill="#FFD700"/>
<path d="M351.6 240L356.5 240.9L355.8 245.8L350.8 244.9L351.6 240Z" fill="#FFD700"/>
<path d="M429.2 261.1L427.7 259.1L429.3 258L430.9 256.9L432.4 258.8L433.3 260L431.6 261.2L430 262.3L429.2 261.1Z" fill="#FFD700"/>
<path d="M402 272.7L402.4 270.4L407.1 271.2L406.7 273.5L406.3 275.8L404 275.4L401.7 275L402 272.7Z" fill="#FFD700"/>
<path d="M196.8 282.1V281.4H197.3V280.3H199.4V282.9H196.8V282.1Z" fill="#FFD700"/>
<path d="M434.8 283.1L435.1 281.4L436.7 281.7L438.3 282L438.2 282.8L438.1 283.6L437.3 283.5L436.5 283.4L436.3 284.3L436.1 285.2L435.2 285L434.3 284.8L434.8 283.1Z" fill="#FFD700"/>
<path d="M492.2 293.8L492.3 293.1L491.6 293L490.9 292.9L491 292.1L491.1 291.3L492.5 291.6L493.9 291.9L493.6 293.4L493.3 294.9L492.6 294.8L491.9 294.7L492.2 293.8Z" fill="#FFD700"/>
<path d="M367.4 350.6L367.6 349.6L369.4 349.9L371.2 350.2L371 351.2L370.8 352.2L369 351.9L367.2 351.6L367.4 350.6Z" fill="#FFD700"/>
<path d="M73 357.5V355H77.2V357.6H76.7V359.9H73V357.5Z" fill="#FFD700"/>
<path d="M275.6 363.7V362.9H277.4V366H275.6V363.7Z" fill="#FFD700"/>
<path d="M432.5 363.1L432.9 361.1L434.7 361.4L436.5 361.7L436.3 362.7L436.1 363.7L435.3 363.6L434.5 363.5L434.3 364.5L434.1 365.5L433.1 365.3L432.1 365.1L432.5 363.1Z" fill="#FFD700"/>
<path d="M272.5 364.4V362.9H274.3V366H272.5V364.4Z" fill="#FFD700"/>
<path d="M143.5 380.4V379H145.6V380.6H144.6V381.9H143.5V380.4Z" fill="#FFD700"/>
<path d="M438.1 395.5L438.3 394.1L436.9 393.8L435.5 393.5L435.7 392.5L435.9 391.5L438.5 392L441.1 392.5L440.7 394.9L440.3 397.3L439.2 397.1L438.1 396.9V395.5Z" fill="#FFD700"/>
<path d="M425.9 392.3L426.3 389.9L428.9 390.4L431.5 390.9L431.3 391.9L431.1 392.9L429.7 392.6L428.3 392.3L428.1 393.7L427.9 395.1L426.8 394.9L425.7 394.7L425.9 392.3Z" fill="#FFD700"/>
<path d="M110.4 401.9V400.4H114V402H112.2V403.5H110.4V401.9Z" fill="#FFD700"/>
<path d="M132.8 415.2V413.8H134.4V415.1H135.4V416.6H132.8V415.2Z" fill="#FFD700"/>
<path d="M408.6 427.5L409 425.1L411.4 425.5L413.8 425.9L413.4 428.3L413 430.7L410.6 430.3L408.2 429.9L408.6 427.5Z" fill="#FFD700"/>
<path d="M208 427.5L208.7 425.8L210.3 426.5L211.7 427L211.1 428.6L210.5 430.2L209 429.6L207.5 429L208 427.5Z" fill="#FFD700"/>
<path d="M275.6 429.8V428.3H277.4V431.4H275.6V429.8Z" fill="#FFD700"/>
<path d="M272.5 429.8V428.3H274.3V431.4H272.5V429.8Z" fill="#FFD700"/>
<path d="M219 430.6L219.6 429.1L221.3 429.8L222.5 430.3L222 431.7L221.3 433.4L219.9 432.8L218.5 432.2L219 430.6Z" fill="#FFD700"/>
<path d="M239.2 433V431.5H242.3V433.1V434.6H240.8H239.2V433Z" fill="#FFD700"/>
<path d="M192.8 442.3L193.4 440.8L195.1 441.5L196.5 442L195.9 443.5L195.3 445L193.8 444.4L192.3 443.8L192.8 442.3Z" fill="#FFD700"/>
<path d="M371.8 450L372.2 447.6L374.8 448.1L377.4 448.6L377 451L376.6 453.4L374 452.9L371.4 452.4L371.8 450Z" fill="#FFD700"/>
<path d="M272.8 458.7V457.2H275.9V458.7H274.4V460.2H272.8V458.7Z" fill="#FFD700"/>
<path d="M103.8 474.9V471.9H105.4V475.3H108.5V476.6H103.8V474.9Z" fill="#FFD700"/>
<path d="M216.4 520.7V520H214.9V518.4H218V521.5H216.4V520.7Z" fill="#FFD700"/>
<path d="M186.9 520.7V520H185.4V518.4H188.5V521.5H186.9V520.7Z" fill="#FFD700"/>
<path d="M276.7 521.9V521.1H278.2V522.7H276.7V521.9Z" fill="#FFD700"/>
<path d="M254.9 521.9V521.1H256.4V522.7H254.9V521.9Z" fill="#FFD700"/>
<path d="M280.3 522.7V521.2H281.8V524.3H280.3V522.7Z" fill="#FFD700"/>
<path d="M258.4 522.7V521.2H259.9V524.3H258.4V522.7Z" fill="#FFD700"/>
<path d="M502.8 526.4V524.9H504.3V528H502.8V526.4Z" fill="#FFD700"/>
<path d="M519.6 545.5C519.7 544.8 519.9 544 520.2 543.4C520.5 542.8 521 542.2 521.5 541.7C522 541.2 522.4 540.7 523.1 540.6C523.9 540.4 524.8 540.6 525.6 540.8C526.3 541 527.5 541.7 527.5 541.7L527 542.7L526.5 543.7C526.5 543.7 525 542.9 524.2 542.8C523.8 542.8 523.1 543.1 523.1 543.1L527.5 545L526.7 546.6L525.9 548.3L521.8 546C521.8 546 521.9 546.8 522.2 547.1C522.7 547.8 524.3 548.4 524.3 548.4L523.9 549.3L523.5 550.2C523.5 550.2 522.2 549.7 521.6 549.3C521 548.9 520.3 548.4 520 547.7C519.5 547 519.5 546.2 519.6 545.5Z" fill="#FFD700"/>
<path d="M461.5 569.2V567H462.8V565.5H464.3V569.9H461.5V569.2Z" fill="#FFD700"/>
<path d="M498.9 568.9L499.6 567.4L501.2 568.2L502.8 569L502.4 569.7L502 570.4L501.2 570L500.4 569.6L500 570.3L499.6 571L498.8 570.6L498 570.2L498.9 568.9Z" fill="#FFD700"/>
<path d="M452.1 570.8V569.6H453.4V572H452.1V570.8Z" fill="#FFD700"/>
<path d="M221.8 572.7V571.2H224.4V572.7H226.8V574.3H221.7L221.8 572.7Z" fill="#FFD700"/>
<path d="M417.2 573.8V573H418.5V571.5H420V574.6H417.2V573.8Z" fill="#FFD700"/>
<path d="M407.6 573V571.5H409.1V573H410.4V574.6H407.6V573Z" fill="#FFD700"/>
<path d="M548.4 584.1L548.7 583.4L549.4 583.8L550.1 584.2L550.4 583.5L550.7 582.8L551.5 583.2L552.3 583.6L551.7 584.9L551.1 586.2L549.6 585.4L548.1 584.6L548.4 584.1Z" fill="#FFD700"/>
<path d="M213 585.7V584.2H216.1V585.7H214.6V587.3H213V585.7Z" fill="#FFD700"/>
<path d="M110.4 592.2V590.9H113.3V592.4H111.8V593.5H110.3L110.4 592.2Z" fill="#FFD700"/>
<path d="M428 592.4V591H430.9V592.5H429.6V593.8H428V592.4Z" fill="#FFD700"/>
<path d="M493.2 594L494.8 590.8L497.2 592L499.6 593.2L499.5 593.3L499.4 593.4L498.2 594.4L497 595.4L496.7 595.1C496.6 595 496.5 594.9 496.4 594.8C496.3 594.7 496.1 594.7 496 594.6C495.9 594.6 495.7 594.5 495.6 594.5C495.4 594.5 495.3 594.6 495.1 594.6C495 594.7 494.8 594.7 494.7 594.8C494.5 595 494.5 595.2 494.3 595.5C494.2 595.7 493.9 596.2 493.9 596.2L495.1 596.8L496.3 597.4L495.9 598.3L495.3 599.4L493.3 598.4L491.3 597.4L493.2 594Z" fill="#FFD700"/>
<path d="M468 597.5L465.9 596.1L466.7 594.9L467.5 593.7L469.5 594.9L471.4 596.1L470.6 597.7L469.9 598.8L468 597.5Z" fill="#FFD700"/>
<path d="M263.5 603.1V600.4H265.1V599.4H266.9V604.5H263.5V603.1Z" fill="#FFD700"/>
<path d="M221.9 612.5V610.8H227V612.6H224.6V614.2H222L221.9 612.5Z" fill="#FFD700"/>
<path d="M258.3 632.1V630.6H261.4V632.2H259.9V633.7H258.3V632.1Z" fill="#FFD700"/>
<path d="M171.9 665.1V663.6H173.5V665.1H175V666.7H171.9V665.1Z" fill="#FFD700"/>
<path d="M60.9 671.3V670.6H59.4V669H62.5V672.1H60.9V671.3Z" fill="#FFD700"/>
<path d="M122.8 696.3V695.6H121.3V694H124.4V697.1H122.8V696.3Z" fill="#FFD700"/>
<path d="M62.8 695.4V693.9H65.9001V695.5H64.4001V697H62.8V695.4Z" fill="#FFD700"/>
<path d="M184.5 751.8L184 751L185.6 750.1L187.2 749.2L187.7 750L188.2 750.8L186.6 751.7L185 752.6L184.5 751.8Z" fill="#FFD700"/>
<path d="M501.5 761.8V760.3H503V761.8H504.5V763.4H501.6L501.5 761.8Z" fill="#FFD700"/>
<path d="M492.8 785V782.7H494.1V787.3H492.8V785Z" fill="#FFD700"/>
<path d="M512.4 673.2V671.5H517.9V674.9H512.4V673.2Z" fill="#FFD700"/>
<path d="M503.4 673.2V671.5H511.1V674.9H503.4V673.2Z" fill="#FFD700"/>
<path d="M485.3 690.3V688H490.4V691.1H488V692.6H485.4V690.3H485.3Z" fill="#FFD700"/>
<path d="M485.3 708.7V706.4H487.9V707.9H490.3V711H485.2V708.7H485.3Z" fill="#FFD700"/>
<path d="M499.2 681.4H502.3V683.2H499.2V681.4Z" fill="#FFD700"/>
<path d="M499.2 716.7V715.7H502.3V717.7H499.2V716.7Z" fill="#FFD700"/>
<path d="M515.8 714.2V713H517.6V715.4H515.8V714.2Z" fill="#FFD700"/>
<path d="M515.8 684.7V683.5H517.6V685.9H515.8V684.7Z" fill="#FFD700"/>
<path d="M480.3 727.1V724.1H487V730.1H480.3V727.1Z" fill="#FFD700"/>
<path d="M447.6 692.9H452.1V706.1H447.6V692.9Z" fill="#FFD700"/>
<path d="M375.8 755.4V759.2H379.7V757.5H377.6V755.4H375.8Z" fill="#FFD700"/>
<path d="M381.8 146.2V145.1H384.7V147.4H381.8V146.2Z" fill="#A0A0A0"/>
<path d="M381.8 152.2V150.5H384.7V151.3H385V148.7H385.5V148.4H385V146.8H385.5V146.5H385V143.4H387.8V146.5H386.5V146.8H388.1V145.5H388.8V145.2H388.1V143.4H394.3V145.2H389.7V145.5H390.4V146.5H390.7V145.5H394.3V148.4H390.7V147.4H390.4V148.4H389.6V148.7H394.3V153.9H387.8V148.7H388.6V148.4H386.5V148.7H387.5V153.9H385.1V152.3H384.8V153.9H381.9L381.8 152.2Z" fill="#A0A0A0"/>
<path d="M279.4 177.5V174.7H277.6V174H272.4V180.2H269.5V174H268V140.3H270.6V163.8H270.9V157.6H271.9V157.3H270.9V152.9H275.5V157.3H273.2V157.6H275.8V152.9H283.8V159.9H273.9V163H274.2V160.2H283.8V167H275.2V167.3H283.8V171.5H274.2V164.2H273.9V168.4H273.1V168.7H273.9V171.5H271V168.7H271.8V168.4H271V165H270.7V171.8H283.9V180.3H279.5V177.5H279.4ZM283 177.2V175.9H281.5V176.4H280.4V178.5H283V177.2Z" fill="#A0A0A0"/>
<path d="M364.4 217C364.3 217.4 364.2 217.9 364.1 218.4C363.8 219.8 363.6 221.2 363.3 222.7C363.8 222.8 364.3 222.9 364.8 222.9C365 222.7 365.1 222.4 365.3 222.2C365.6 220.6 365.9 218.9 366.2 217.3C365.6 217.2 365 217.1 364.5 217C364.4 216.9 364.4 217 364.4 217Z" fill="#A0A0A0"/>
<path d="M367.9 213.3C367.9 213.5 368 213.7 367.9 213.9C367.8 214.8 367.6 215.7 367.6 216.5C367.6 216.7 367.6 216.9 367.7 217.1C370.2 217.5 372.7 218 375.1 218.4C375 219 375 219.6 374.9 220.3C374.8 220.3 374.8 220.3 374.7 220.3C374.7 220.1 374.7 219.9 374.7 219.6L375 219.3C375 219.1 374.9 218.9 374.9 218.7C373.3 218.4 371.7 218.1 370.1 217.8C369.8 219.7 369.5 221.5 369.2 223.4C369.2 223.5 369.4 223.5 369.5 223.6C370.6 223.8 371.7 224 372.8 224.2C373.2 224.3 373.6 224.3 373.9 224.4C374 223.9 374.1 223.4 374.2 222.9C374.3 222.9 374.4 222.8 374.4 222.9C374.4 223.1 374.4 223.4 374.4 223.6C374.4 223.9 374.3 224.3 374.3 224.6C374 224.7 373.7 224.6 373.4 224.6C372.4 224.5 371.4 224.3 370.4 224.1C370.2 225.2 370.1 226.3 369.9 227.3C369.9 227.6 369.8 227.9 369.9 228.2C369.9 228.4 370.1 228.5 370.3 228.6C370.6 228.7 370.9 228.7 371.2 228.8C373.4 229.2 375.6 229.6 377.8 229.9C378.1 230 378.5 230 378.8 230C378.9 229.3 379 228.5 379.1 227.8C379.7 223.7 380.4 219.7 381.1 215.7C381 215.6 381 215.5 380.9 215.4C376.8 214.7 372.7 214 368.5 213.3C368.3 213.3 368.1 213.2 367.9 213.2C367.8 213.2 367.9 213.2 367.9 213.3Z" fill="#A0A0A0"/>
<path d="M427.2 258.7L427 258.4L427.3 258.2C427.4 258.1 427.6 257.9 427.7 257.9C427.8 257.9 428.5 257.4 429.2 256.9L430.6 256L430.8 256.4L431 256.8L429.3 258C427.5 259.1 427.5 259.1 427.2 258.7Z" fill="#A0A0A0"/>
<path d="M344.6 219.3V219.4C344.2 221.5 343.8 223.7 343.4 225.8C342.9 228.2 342.5 230.7 342 233.1L342.2 233.5C345.3 234.1 348.5 234.7 351.6 235.2C351.7 234.9 351.9 234.6 352 234.3C352 234.1 352 233.8 351.9 233.6C352 233.6 352.1 233.6 352.1 233.6C352.1 233.9 352.1 234.1 352.1 234.4C352.1 234.7 352 235 352 235.4C351.8 236.8 351.5 238.1 351.3 239.5C352.7 239.8 354.2 240 355.6 240.3C355.7 239.3 355.9 238.4 356 237.4C356.1 237.4 356.2 237.4 356.3 237.4C356.2 238.4 356.1 239.4 355.9 240.3C355.9 240.4 355.9 240.6 355.8 240.7C355.6 240.7 355.4 240.6 355.2 240.6C355.1 240.8 355 241 354.9 241.3C354.8 241.5 354.8 241.7 354.7 242C354.1 241.9 353.6 241.9 353 241.8C352.9 242.2 352.8 242.5 352.8 242.9C352.7 243.1 352.6 243.3 352.4 243.5L350.8 243.2C350.7 243.8 350.6 244.5 350.5 245.1C352 245.4 353.6 245.6 355.1 245.9C355.1 246 355.1 246.1 355 246.2C353.6 246 352.3 245.7 350.9 245.5C350.7 245.6 350.6 245.6 350.4 245.7C350.2 246.6 350 247.4 349.9 248.3C349.8 248.9 349.7 249.5 349.6 250.1C349.6 250.4 349.6 250.7 349.8 250.9C350 251.1 350.3 251.1 350.6 251.2C351.2 251.3 351.8 251.4 352.5 251.5C352.9 251.6 353.3 251.6 353.7 251.7C353.7 251.8 353.7 251.8 353.7 251.9C353.2 251.8 352.6 251.7 352.1 251.6C351.3 251.4 350.4 251.3 349.6 251.1C349.3 252.7 349.1 254.3 348.8 255.9C351.3 256.3 353.8 256.7 356.3 257.1C356.7 257.1 357 257.2 357.4 257.2C357.6 256 357.8 254.8 358 253.5C358.1 253.5 358.1 253.4 358.1 253.5C358.1 253.7 358.2 253.9 358.2 254.1C357.8 256.4 357.4 258.6 356.9 260.9C356.9 260.9 356.8 260.9 356.7 260.9C356.6 260.9 356.6 260.8 356.6 260.8C356.8 259.7 357 258.7 357.2 257.6C354.4 257.1 351.7 256.6 348.9 256.1C348.8 256.2 348.6 256.4 348.5 256.5C348.3 257.7 348.1 258.8 347.9 260C347.9 260.3 347.8 260.6 347.9 260.9C348 261.2 348.3 261.2 348.5 261.3C349 261.4 349.6 261.5 350.1 261.6C350.6 261.7 351 261.8 351.5 261.9C351.5 262 351.5 262 351.5 262.1C350.8 262 350.2 261.9 349.5 261.8C348.9 261.7 348.2 261.6 347.6 261.5L347 265.4C347.2 265.5 347.4 265.6 347.6 265.6C349.1 265.9 350.7 266.2 352.2 266.5C353.3 266.7 355.4 267.1 355.4 267.1C355.4 267.1 355.8 265.2 355.9 264.2C355.9 264.1 355.9 264.1 355.9 264C356.1 264 356.1 264.2 356.2 264.3C356 265.2 355.7 267.1 355.7 267.1L366.4 269C366.4 269 366.8 267 367 266C367 265.9 367 265.8 367.1 265.7C367.2 265.7 367.2 265.8 367.2 265.8C367.2 266 367.3 266.4 367.3 266.4L366.8 269L366.9 269.2L370.4 269.9C370.4 269.9 374.2 270.5 376.1 270.9C376.2 270.5 376.3 270.1 376.3 269.7L376.6 269.8L376.4 270.9L384.1 272.4L385.8 263.4L378.1 261.9L377 267.9L376.7 267.8C376.7 267.7 376.7 267.7 376.7 267.6C376.8 267.2 376.8 266.9 376.9 266.5C376.7 266.5 376.5 266.5 376.3 266.4C375.1 266.2 373.9 266 372.7 265.8C372.7 265.7 372.7 265.6 372.7 265.6C373.6 265.7 374.5 265.9 375.5 266.1C375.9 266.2 376.3 266.2 376.7 266.3C376.8 266 376.9 265.8 377 265.5C377.1 265.2 377.1 264.8 377.1 264.5C377.1 264.4 377 264.3 377 264.2C377 264 377.1 263.7 377.1 263.5C376.8 263.1 376.6 262.7 376.3 262.2C374.9 261.9 373.5 261.7 372.1 261.4C371.8 261.3 371.4 261.3 371.1 261.1C370.5 260.9 369.9 260.6 369.3 260.3C369.1 260.2 368.9 260.1 368.6 260C368.5 260 368.5 260 368.4 260C368.3 260.9 368.1 261.9 368 262.8C367.9 262.8 367.9 262.7 367.8 262.7C367.8 262.5 367.8 262.3 367.8 262.1C368 261 368.2 259.9 368.3 258.7L368.8 255.7C368.9 255.7 369 255.7 369 255.8C369 256.1 369 256.4 368.9 256.7C368.7 257.7 368.5 258.7 368.3 259.6C371.3 260.1 374.3 260.6 377.3 261.1C377.4 261.1 377.5 261.1 377.6 261.1C377.7 261 377.7 260.9 377.8 260.8C378.1 259.7 378.2 258.6 378.4 257.5C378.4 257.2 378.5 256.9 378.5 256.6C378.4 256.5 378.4 256.4 378.3 256.3C377.1 256.1 375.8 255.9 374.6 255.7C374.6 255.6 374.5 255.6 374.5 255.5C374.6 255.5 374.6 255.4 374.7 255.4C376 255.6 377.3 255.9 378.5 256.1C378.6 255.7 378.7 255.3 378.8 255C379 253.8 379.3 252.6 379.5 251.4C379.2 251.3 378.9 251.2 378.6 251.1C377.6 250.9 376.6 250.7 375.6 250.6C375.6 250.5 375.6 250.4 375.7 250.3C376.9 250.5 378.1 250.8 379.4 251C379.5 251 379.6 251 379.7 251C380 249.4 380.3 247.7 380.6 246.1C379.2 245.9 377.8 245.6 376.5 245.4C376.5 245.3 376.5 245.2 376.5 245.2C377.2 245.3 377.8 245.4 378.5 245.5C379.2 245.6 379.9 245.8 380.6 245.9C380.9 244.5 381.1 243 381.4 241.6C381.1 241.5 380.8 241.4 380.5 241.3C379.5 241.1 378.4 240.9 377.3 240.8C377.3 240.7 377.4 240.6 377.4 240.5C378.7 240.7 379.9 240.9 381.2 241.1C381.3 241.1 381.4 241.1 381.6 241.1C381.9 239.4 382.2 237.8 382.5 236.1C382.3 236 382.2 235.9 382 235.9C380.8 235.7 379.7 235.5 378.5 235.2C376.7 234.9 375 234.6 373.2 234.3C372.7 236.9 372.2 239.6 371.6 242.2H371.4C371.9 239.5 372.4 236.9 372.9 234.2C369.3 233.5 365.7 232.9 362.1 232.2C361.9 232.9 361.8 233.7 361.7 234.4C361.4 236.1 361.1 237.8 360.8 239.5C360.7 239.5 360.6 239.4 360.5 239.4C360.9 237 361.4 234.5 361.8 232.1L360.6 231.9C360.5 232 360.3 232.1 360.2 232.2C359.7 232.1 359.1 232.1 358.6 232L357.9 231.3C357.7 231.3 357.5 231.4 357.3 231.4C357.2 232.3 357 233.2 356.9 234.1C356.8 234.1 356.8 234.2 356.7 234.2C356.7 233.8 356.8 233.4 356.8 233C356.8 232.6 356.9 232.2 356.9 231.8C356.9 231.6 356.8 231.4 356.6 231.3C356.3 231.1 355.9 231.1 355.6 231C354.8 230.8 353.9 230.7 353.1 230.5C352.9 230.6 352.7 230.6 352.6 230.7C352.6 230.9 352.7 231.1 352.7 231.3C352.6 231.5 352.5 231.7 352.4 231.9C352.4 231.9 352.2 231.9 352.3 231.8C352.8 228.1 353.3 224.5 353.7 220.8C350.8 220.4 347.7 219.8 344.6 219.3ZM366.6 239.8C366.8 239.9 366.9 239.9 367.1 240C367.8 240.3 368.5 240.8 368.9 241.5C369.1 241.8 369.2 242.1 369.3 242.4C369.3 242.9 369.3 243.4 369.3 243.9C369.3 244.3 369.2 244.8 369 245.2C368.7 245.9 368.1 246.5 367.4 246.8C366.8 247.1 366.2 247.1 365.6 247.1C365.3 247.1 365 247.1 364.7 247.1C364.6 247.1 364.6 247.1 364.5 247C364.3 246.8 364 246.8 363.7 246.6C363.5 246.5 363.3 246.3 363.1 246.1C362.6 245.7 362.3 245.1 362.1 244.5C362.1 244.4 362 244.3 362 244.1C362 243.5 362 242.9 362 242.3C362.2 241.9 362.5 241.4 362.8 241C363 240.7 363.2 240.5 363.5 240.3C363.9 240.1 364.4 239.9 364.8 239.8C365.5 239.8 366 239.8 366.6 239.8ZM360 242.6C360.1 242.6 360.1 242.6 360 242.6C360.1 242.7 360.2 242.7 360.2 242.8C359.7 245.5 359.2 248.1 358.8 250.8C358.7 250.7 358.6 250.7 358.6 250.6C359.1 248 359.5 245.4 360 242.8C360 242.7 360 242.6 360 242.6ZM371 245.3H371.1C371.2 245.3 371.2 245.4 371.2 245.4C370.8 247.9 370.3 250.4 369.9 252.9C369.8 252.9 369.7 252.9 369.7 252.8C369.7 252.5 369.7 252.2 369.8 252C370.1 250.2 370.4 248.3 370.8 246.5C370.8 246.1 370.9 245.7 371 245.3ZM363.5 252.1L364.2 252.3C364.6 252.4 364.9 252.5 365.3 252.7C365.6 252.9 365.8 253.2 366.1 253.4C366.1 253.5 366.2 253.5 366.2 253.6C366.1 253.9 366.2 254.2 366.3 254.4C366.3 254.5 366.4 254.5 366.4 254.6C366.2 256 365.9 257.3 365.7 258.7C365.4 258.7 365.1 258.6 364.8 258.6C365 257.2 365.2 255.8 365.4 254.4C365.2 254.1 365 253.8 364.8 253.5L363.6 253.2C363.4 253.3 363.1 253.4 362.9 253.6C362.7 253.8 362.6 254 362.4 254.2C361.9 257 361.4 259.8 361 262.7C361.2 263 361.3 263.3 361.5 263.5C361.7 263.8 362 263.9 362.3 264.2C362.7 264.1 363.1 263.9 363.4 263.8C363.6 263.5 363.8 263.2 363.9 262.9C364.1 262 364.2 261.2 364.4 260.3C364.6 260.3 364.9 260.3 365.1 260.2C365.2 260.4 365.3 260.5 365.3 260.7C365.1 261.7 364.9 262.6 364.7 263.6L364 264.6C363.6 264.8 363.2 264.9 362.8 265.1C362.3 265.1 361.8 265 361.4 264.9C361 264.5 360.7 264.1 360.3 263.7C360.2 263.4 360.1 263 360 262.7C360.5 259.7 361 256.7 361.5 253.8C361.8 253.4 362.1 252.9 362.5 252.7C362.8 252.4 363.1 252.2 363.5 252.1Z" fill="#A0A0A0"/>
<path d="M191.3 280.2V277.3H192.4V255.3H183.9V248.3H177.4V245H183.9V225.8H186.3V242.1H186.6V240.6H187.9V240.4C187.9 240.3 187.8 240.2 187.7 240.2H187.5V237.3H190.9V240.2H189.1V240.5H191.4L191.3 240.2C191.2 240.1 191.2 239.1 191.2 238.2V236.4H190.9V236.9H187.5V232.7H190.9V235.1H191.2V232.7H199.7V240.2H192.7L192.8 240.5C192.9 240.6 192.9 241.2 192.9 241.8V242.8H193.2V240.5H199.7V251.1H189.9V245H191.7V244.7H189V245H189.8V247.9H186.7V245H187.7V244.7H186.7V243.4H186.4V253H194.9V261.5H202.4V262.3H202.7V261.5H203.4V261.2H200.5V259.9H200.2V261.2H195.3V257.6H200.2V258.6H200.5V256H200.2V257.3H195.3V253H200.2V254.6H200.5V251.7H205.4V261.2H204.7V261.5H207.5V261.2H205.7V251.7H217.3V261.2H209.5V261.5H211.5V262.2H211.8V261.5H214.1V264.1H211.8V263.4H211.5V265.7H211.8V264.4H216V264.1H214.4V261.5H218.5V264.1H217.4V264.4H218.5V268.2H211.8V267H211.5V271.2H218.5V274.5H218V274.8H220.6V274.5H218.8V271.2H220.6V270.9H218.8V268.5H223.5V270.9H221.9V271.2H223.5V274.5H221.9V274.8H223.5V283.1H216V274.8H216.7V274.5H210V274.8H215.5V283.1H207.7V274.8H208.7V274.5H207.1V274.7C207.1 274.8 207.2 274.9 207.3 274.9H207.5V283.2H202.8V274.9H205.8L205.7 273.1L205.6 271.3H207.7V270.2H207.4V271H202.7V268.2H207.4V268.9H207.7V264.5H205.7V264.8H207.3V267.9H202.6V264.8H204.4V264.5H202.6V263.7H202.3V264.5H194.8V269.1H201.3V272.5H194.8V277.2H196.3V279.5H202.3V283.3H191.2L191.3 280.2ZM199.4 281.5V280.2H197.3V281.3H196.8V282.8H199.4V281.5Z" fill="#A0A0A0"/>
<path d="M353.3 226.1C353.2 226.9 353.1 227.6 353 228.4C352.9 228.8 352.8 229.2 352.7 229.6C352.7 229.8 352.7 230.1 352.8 230.2C353 230.4 353.3 230.4 353.6 230.5C354.8 230.7 356 230.9 357.1 231.2C357.5 231.3 357.9 231.4 358.3 231.6C358.4 231.6 358.4 231.7 358.4 231.7C358.4 231.8 358.3 231.9 358.3 232C358.5 232.1 358.7 232.1 359 232.1C359.1 232.1 359 232 359.1 231.9C359.1 231.8 359.1 231.6 359.2 231.5C359.2 231.4 359.3 231.4 359.4 231.5C359.4 231.5 359.4 231.6 359.4 231.7C359.4 231.8 359.3 231.9 359.3 232.1C359.3 232.1 359.4 232.2 359.5 232.2C359.7 232.3 359.9 232.3 360 232.4C360.1 232.2 360.2 232 360.2 231.8C360.2 231.8 360.3 231.8 360.4 231.8C365.5 232.8 370.7 233.7 375.8 234.6C381.6 235.7 387.4 236.7 393.3 237.8C393.4 237.9 393.4 237.9 393.4 238C393.4 238.5 393.3 239 393.2 239.5C393 241.1 392.7 242.6 392.5 244.2C395.6 244.7 398.8 245.3 401.9 245.8C401.9 245.9 402 245.9 402 246C401.2 250.6 400.4 255.3 399.6 259.9C399.6 260 399.7 260 399.7 260C400 260.1 400.2 260.2 400.5 260.3C400.5 260.4 400.5 260.5 400.4 260.5L387.4 258.2C387.2 259.1 387 260.1 386.9 261C386.1 264.9 385.4 268.8 384.6 272.7C389.4 273.6 394.1 274.4 398.9 275.2C399.2 275.2 399.4 275.3 399.7 275.3C399.9 274.1 400.1 272.9 400.3 271.8C400.4 271.8 400.4 271.9 400.5 271.9C400.6 271.9 400.5 272 400.5 272.1C400.3 273.1 400.2 274.1 400 275.2C400.1 275.3 400.2 275.4 400.2 275.5C402.2 275.8 404.2 276.2 406.2 276.5C406.3 276.4 406.5 276.2 406.6 276.1C406.6 275.7 406.7 275.2 406.7 274.8C406.2 274.7 405.8 274.6 405.3 274.6C405.4 274 405.5 273.4 405.6 272.8C405.1 272.7 404.6 272.6 404.1 272.5C404 272.5 403.8 272.4 403.7 272.4C403.6 272.4 403.6 272.3 403.7 272.2C403.8 271.8 403.9 271.3 404 270.9C403 270.7 402.1 270.5 401.1 270.4C401 270.4 400.9 270.4 400.8 270.4C400.8 270.3 400.8 270.2 400.8 270.1C401.2 270.1 401.7 270.2 402.1 270.3C402.2 270.3 402.2 270.3 402.2 270.2C402.4 268.8 402.6 267.5 402.8 266.1C402.9 266.1 403 266.1 403.1 266.2C402.9 267.4 402.7 268.6 402.5 269.7C402.5 269.9 402.5 270.1 402.5 270.3C408.3 271.3 414.1 272.3 419.9 273.3C419.9 273.4 419.9 273.5 419.9 273.5C416 272.8 412 272.1 408.1 271.5C408 271.5 407.8 271.4 407.7 271.4C407.6 271.5 407.6 271.6 407.5 271.7C407.2 272.9 407 274.1 406.8 275.3C406.7 275.7 406.6 276.2 406.6 276.6C412.5 277.6 418.5 278.6 424.4 279.6C424.2 281 424 282.4 423.9 283.7C423.9 283.9 423.9 284 423.9 284.2C424 284.3 424.2 284.3 424.3 284.4C425.3 284.6 426.4 284.7 427.4 284.9C429.6 285.2 431.9 285.5 434.1 285.8C434.2 285.7 434.3 285.6 434.4 285.6C434.4 285.7 434.5 285.9 434.6 285.9C434.9 286 435.1 286 435.4 286.1C436.4 286.3 437.4 286.5 438.4 286.6C439.4 286.8 440.5 286.9 441.5 287.1C441.6 287.1 441.7 287.1 441.7 287.1C441.8 286.4 441.9 285.7 442 284.9C442.1 284.9 442.2 284.8 442.3 284.8C442.2 285.6 442.1 286.4 441.9 287.2C441.8 287.3 441.8 287.4 441.7 287.4C439.3 287 436.9 286.6 434.5 286.2C434.3 287.6 434 289.1 433.8 290.5C433.8 290.6 433.8 290.7 433.8 290.8C447 293.1 460.1 295.4 473.3 297.7C474.3 297.9 475.4 298.1 476.4 298.2C476.5 298.2 476.6 298.2 476.7 298.2L477.4 294C477.3 293.9 477.2 293.7 477.1 293.6C475.2 293.2 473.2 292.8 471.3 292.5C471.4 291.8 471.5 291.1 471.7 290.4C472.3 287 473 283.5 473.6 280.1C474 277.8 474.4 275.4 474.9 273.1C475.4 273.2 475.9 273.3 476.4 273.3C478 273.6 479.6 273.8 481.2 274.1C481.1 274.9 480.9 275.7 480.8 276.5C480.7 277 480.6 277.4 480.5 277.9C480.4 277.9 480.4 277.9 480.3 277.9C480.4 277 480.6 276.2 480.7 275.3C480.7 275 480.8 274.7 480.6 274.5C480.4 274.3 480.1 274.2 479.8 274.1C479.1 274 478.4 273.9 477.7 273.7C476.9 273.6 476.1 273.4 475.4 273.3C475.3 273.4 475.2 273.5 475.1 273.5C474.8 275 474.5 276.5 474.3 278C474.4 278.1 474.5 278.2 474.6 278.2C475.3 278.4 476.1 278.5 476.8 278.7C477.9 278.9 479 279.1 480.1 279.3C480.2 279.3 480.3 279.4 480.4 279.4C480.1 281.3 479.7 283.2 479.4 285.1C479.2 285.1 478.9 285 478.7 285C477 284.7 475.4 284.4 473.7 284.1C473.5 284.1 473.4 284.1 473.2 284L471.8 292C472 292.1 472.1 292.2 472.3 292.2C473.3 292.5 474.3 292.6 475.3 292.8C476.1 293 476.8 293.1 477.6 293.3C477.7 293.1 477.8 292.8 477.8 292.5C478.2 290.7 478.5 288.9 478.8 287C478.8 286.8 478.9 286.6 478.9 286.4L479.1 286.5C478.4 290.2 477.8 294 477.1 297.7C477.2 297.8 477.3 297.9 477.4 298.1C480.3 298.6 483.1 299.2 486 299.7C488.3 300.1 490.6 300.5 492.8 300.9C493 299.9 493.1 298.8 493.3 297.8C493.3 297.5 493.4 297.2 493.3 296.8C493.2 296.5 492.9 296.4 492.6 296.3C492 296.1 491.4 296 490.8 295.9C489.6 295.7 488.3 295.4 487.1 295.1C487 295.1 487 295.1 486.9 295C486.9 294.5 487 293.9 487.1 293.4C487.2 293 487.2 292.6 487.3 292.2C487.4 292.2 487.5 292.2 487.5 292.2C487.4 293.1 487.2 293.9 487 294.8C489.1 295.2 491.2 295.6 493.3 296C493.4 295.5 493.5 295 493.6 294.5C493.1 294.4 492.7 294.4 492.2 294.2C492.1 294.2 492.1 294.1 492 294.1C492.1 293.6 492.2 293.2 492.2 292.7C491.7 292.6 491.1 292.6 490.6 292.5C490.6 292.4 490.5 292.3 490.5 292.2C490.6 291.7 490.8 291.3 490.9 290.8C489.8 290.6 488.6 290.4 487.5 290.3C487.5 290 487.5 289.7 487.6 289.5C487.8 288.2 488 286.9 488.2 285.6C488.4 284.7 488.5 283.7 488.6 282.8C488.7 282.8 488.8 282.9 488.8 282.9C488.4 285.3 488.1 287.7 487.7 290C489.8 290.4 491.9 290.8 494 291.2C494.5 288.3 494.9 285.5 495.3 282.6C495.3 282.4 495.4 282.1 495.4 281.9C493.4 281.5 491.4 281.2 489.4 280.8C489.2 280.7 489 280.6 488.8 280.5C489.2 278 489.6 275.4 490 272.9C490.1 272.3 490.2 271.7 490.3 271.1C488.1 270.7 485.9 270.4 483.7 270C482.3 269.8 481 269.5 479.6 269.3C479.5 269.3 479.4 269.3 479.3 269.3C479.3 269.1 479.2 268.9 479.3 268.6C479.3 268.1 479.4 267.6 479.5 267.1C479.5 266.8 479.6 266.5 479.5 266.2C479.4 266 479.2 265.8 479 265.7C478.9 265.6 478.7 265.6 478.6 265.5C478.6 265.2 478.7 264.9 478.8 264.6C479.1 263.2 479.5 261.8 479.8 260.4C479.8 260.2 479.9 260.1 479.9 259.9C480.1 259.8 480.2 259.8 480.4 259.8C480.7 259.8 480.9 259.9 481.2 259.9C481.2 259.7 481.1 259.4 481.1 259.2C481.1 258.1 481.4 257 481.4 255.9C481.4 255.4 481.4 255 481.2 254.6C481.1 254.3 480.9 254 480.8 253.7C480.8 253.7 480.6 253.7 480.6 253.6C480.7 253.5 480.8 253.4 480.9 253.3L483.7 253.9C483.7 253.4 483.8 252.9 483.7 252.4C483.7 252.3 483.7 252.2 483.6 252C483.5 251.6 483.6 251.1 483.6 250.7V250.4C482.6 250.2 481.6 250 480.6 249.8C479.3 249.5 478.1 249.3 476.8 249C476.7 249 476.6 248.9 476.4 248.9C476.7 247.5 476.9 246 477.2 244.6C477.8 244.7 478.4 244.8 478.9 244.9C479.1 244.9 479.4 244.9 479.5 244.7C479.7 244.5 479.7 244.1 479.8 243.9C480 243 480.2 242 480.3 241.1C480.4 240.7 480.5 240.2 480.6 239.8C479.9 239.7 479.2 239.5 478.5 239.4C478.3 240.6 478 241.7 477.9 242.9C477.8 242.9 477.8 242.9 477.7 242.9C477.7 242.7 477.7 242.4 477.7 242.2C477.8 241.4 478.1 240.6 478.1 239.8C478.1 239.6 478.1 239.4 478 239.3C477.7 239.3 477.4 239.3 477.1 239.3C477.1 239.2 477.1 239.1 477.1 239.1C477.4 239.1 477.6 239.1 477.9 239.1C478.1 239.1 478.4 239.2 478.6 239.1C478.7 239.1 478.7 238.9 478.8 238.8C479 237.8 479.2 236.9 479.4 235.9C479.5 235.4 479.6 235 479.6 234.5C478.7 234.3 477.9 234.1 477 233.9C476.4 233.8 475.9 233.7 475.3 233.6C474.8 233.5 474.3 233.4 473.8 233.4H473.2C473 234.5 472.8 235.5 472.6 236.6C472.5 237.1 472.4 237.5 472.3 238C473.2 238.2 474.2 238.4 475.1 238.6C475.1 238.7 475.1 238.8 475.1 238.9C473.3 238.6 471.5 238.2 469.7 237.9C469.4 239.5 469.1 241 468.8 242.5C468.7 242.6 468.5 242.6 468.4 242.7C467.4 242.5 466.3 242.4 465.3 242.2C465.2 242.3 465 242.4 465 242.5C464.8 242.9 464.7 243.4 464.5 243.8C464.3 244.4 464.2 244.9 464 245.5C463.9 245.6 463.8 245.7 463.8 245.8C464.3 245.9 464.8 246 465.3 246.1C465.4 246.2 465.6 246.2 465.7 246.2C465.8 246.8 465.8 247.5 465.9 248.1C466 248.8 466 249.6 466.1 250.3C466.1 250.5 466.1 250.7 466.1 250.8C466.5 250.9 466.8 250.9 467.2 251C466.6 254.7 465.9 258.5 465.3 262.2C465.1 262.3 465 262.4 464.8 262.5C463.7 262.3 462.6 262.1 461.4 261.9C461.2 261.9 461 261.8 460.8 261.9C460.7 261.9 460.7 261.9 460.7 262L460 265.5C459.9 265.6 459.8 265.7 459.7 265.9C454.9 265 450.2 264.2 445.4 263.3C445.4 263.5 445.5 263.7 445.5 264C445.4 264.1 445.3 264.3 445.3 264.4C445.2 264.4 445.1 264.4 445 264.4C445.1 264.1 445.2 263.7 445.2 263.3C444.1 263.1 442.9 262.9 441.8 262.7L440.1 262.5C440 262.8 439.9 263.1 439.8 263.4C439.7 263.4 439.6 263.4 439.5 263.4C439.7 261.9 440 260.3 440.2 258.8C440.3 258.4 440.3 258 440.3 257.6C440.3 257.5 440.2 257.4 440.2 257.4C439.1 257.2 438 257.1 436.8 256.9C435.2 254.7 433.7 252.6 432.1 250.4C431.7 249.9 431.3 249.3 430.9 248.8C430.9 248.7 430.8 248.7 430.7 248.7C430.4 248.8 430.2 249 430 249.2C428.1 250.5 426.2 251.8 424.3 253.2C422.8 254.3 421.3 255.4 419.8 256.5C419.6 256.6 419.5 256.7 419.3 256.9C419.2 257 419.3 257.1 419.4 257.2C420.1 258.3 420.8 259.4 421.5 260.5C421.7 260.8 421.8 261 421.9 261.4C421.9 261.5 421.9 261.6 421.8 261.6C420.2 259.3 418.7 256.9 417.1 254.5C416.9 254.6 416.8 254.6 416.6 254.7C416.6 254.9 416.7 255.2 416.7 255.4C416.6 255.6 416.5 255.7 416.4 255.9H416.2C416.3 255.4 416.5 254.9 416.6 254.4C416.5 254.1 416.5 253.7 416.3 253.4C416.2 253.2 416 253 415.9 252.8C414.4 252.5 412.9 252.2 411.3 252C409.6 251.7 408 251.5 406.3 251.3C405.9 251.3 405.5 251.2 405.1 251.2C405 251.2 404.9 251.2 404.9 251.2C405.6 247.3 406.2 243.4 406.9 239.5C407.3 237.2 407.7 234.8 408.1 232.5C408.1 232.4 408.1 232.3 408.1 232.3C406.9 232.1 405.7 231.9 404.5 231.7C404.3 233 404.1 234.2 403.8 235.5C394.9 233.9 386 232.4 377.2 230.8C369.1 229.3 361.1 227.9 353 226.4C353.4 226 353.4 226 353.3 226.1ZM397.4 238.4C397.6 238.4 397.8 238.5 398 238.5C398.1 238.6 398.2 238.7 398.3 238.8C398.3 239 398.2 239.1 398.2 239.3C397.9 239.3 397.7 239.4 397.4 239.4C397.1 239.3 396.9 239.2 396.6 239.1L396.5 238.8C396.9 238.9 397.3 239 397.7 239.1C397.8 239.1 397.6 239 397.6 238.9C397.5 238.8 397.4 238.6 397.3 238.5C397 238.6 396.7 238.6 396.4 238.7C396.3 238.6 396.4 238.6 396.5 238.5C396.6 238.4 396.7 238.3 396.8 238.2C397 238.4 397.2 238.4 397.4 238.4ZM396.4 238.8C396.3 238.9 396.3 238.8 396.4 238.8ZM401.5 239.2C401.9 239.2 402.3 239.3 402.7 239.3C402.8 239.5 402.9 239.6 403 239.8C402.9 240 402.7 240.1 402.6 240.3C402.1 240.2 401.6 240.1 401.2 240C401.2 240 401 239.9 401.1 239.9C401.1 239.7 401.2 239.5 401.2 239.4C401.3 239.2 401.4 239.2 401.5 239.2ZM402.4 239.4C402.1 239.4 401.8 239.4 401.5 239.5C401.4 239.5 401.4 239.7 401.4 239.7C401.5 239.8 401.7 239.8 401.8 239.8C402.1 239.8 402.3 239.9 402.6 239.9C402.6 239.8 402.5 239.6 402.4 239.4ZM468.8 252.1C469.5 252.1 470.3 252.2 471 252.3C471.3 252.3 471.7 252.4 472 252.4C472 252.6 472 252.9 472 253.1C472.8 253.2 473.6 253.3 474.4 253.4C474.4 253.2 474.5 253 474.5 252.8H474.7C474.6 253.5 474.5 254.2 474.3 254.9C473.9 257.1 473.4 259.2 472.9 261.4C472.9 261.7 472.8 261.9 472.6 262.1C472.6 262.2 472.5 262.2 472.4 262.1C471.4 261.9 470.5 261.7 469.5 261.6C469.5 261.4 469.6 261.2 469.6 261C468.8 260.9 467.9 260.7 467.1 260.6C467.1 260.9 467 261.2 467 261.4C467 261.4 466.8 261.5 466.8 261.4C466.8 261.2 466.7 261 466.7 260.8C467.3 257.8 467.8 254.9 468.4 251.9C468.6 252.1 468.7 252.1 468.8 252.1ZM476.1 252.5C476.2 252.6 476.3 252.6 476.4 252.7C476.3 253.3 476.2 253.9 476.2 254.6C476.1 254.8 476 254.9 475.8 255.1C475.7 255.2 475.6 255 475.5 255C475.4 254.9 475.3 254.8 475.2 254.7C475.3 254 475.4 253.4 475.7 252.7C475.7 252.6 475.8 252.6 475.8 252.5C475.9 252.4 476 252.4 476.1 252.5ZM404.8 254.8C404.8 255.2 404.7 255.7 404.7 256.1C404.6 256.7 404.5 257.3 404.4 257.9C404.3 258.5 404.4 259.2 404.7 259.7C405.1 260.3 405.7 260.7 406.3 260.9C407.3 261.3 408.3 261.6 409.4 261.8C411.4 262.2 413.4 262.4 415.4 262.7C415.7 261.1 415.9 259.5 416.3 257.8C416.4 257.5 416.4 257.3 416.5 257.1C416.5 257.1 416.5 256.9 416.6 257C416.7 257 416.7 257.1 416.7 257.2C416.4 259 416.1 260.8 415.8 262.6C415.9 262.7 415.9 262.8 416 262.9C418.5 263.3 421 263.8 423.5 264.2C423.7 264.2 424 264.3 424.2 264.3C423.9 263.9 423.6 263.4 423.3 263C423.2 262.9 423.1 262.8 423.2 262.6C423.3 262.6 423.4 262.6 423.4 262.5C423.9 263.2 424.3 263.9 424.8 264.6C425.5 264 426.2 263.5 426.9 262.9C427.3 262.5 427.8 262.2 428.2 261.8C428.4 261.7 428.5 261.5 428.7 261.4C428.1 260.5 427.4 259.7 426.9 258.8C426.8 258.7 426.8 258.6 426.7 258.5C428 257.6 429.4 256.7 430.7 255.8C430.9 255.9 431 256 431.2 256.1C431.7 256.6 432.1 257.1 432.5 257.7C432.8 258.1 433.2 258.5 433.5 259C433.7 259.2 433.9 259.5 434.1 259.7C434 259.8 434 259.8 433.9 259.9C433.8 259.8 433.7 259.7 433.6 259.6C432.9 260.1 432.1 260.7 431.4 261.3C430.9 261.7 430.4 262.1 430 262.5C430.3 263 430.5 263.4 430.8 263.9C431 263.9 431.2 264 431.4 264C432 263.5 432.5 263 433.1 262.6C433.6 262.3 434 261.9 434.4 261.5L434.7 261.2C434.6 261 434.5 260.9 434.5 260.7C434.6 260.6 434.6 260.6 434.7 260.5C434.8 260.6 434.8 260.7 434.9 260.8C435 260.8 435 260.9 435 261C434.9 261.5 434.8 262.1 434.8 262.6C434.6 263.7 434.5 264.8 434.3 265.9C434.6 266 434.8 266.2 435.1 266.2C436.4 266.5 437.7 266.7 439 266.9C439.1 266.9 439.2 266.9 439.2 266.9C439.3 266.5 439.4 266 439.5 265.6C439.5 265.6 439.5 265.4 439.6 265.5L439.7 265.6C439.6 266.1 439.5 266.6 439.4 267C440 267.1 440.6 267.1 441.2 267.2C442.2 267.4 443.3 267.5 444.3 267.6C444.4 267.6 444.5 267.6 444.6 267.6C444.7 267.6 444.7 267.5 444.7 267.5C444.7 267.2 444.8 266.8 444.8 266.5C444.9 266.5 445 266.5 445.1 266.5C444.8 268 444.5 269.6 444.3 271.1C444.2 271.1 444.1 271.1 444.1 271.1C444.3 270.1 444.4 269.1 444.6 268.1C443.4 267.9 442.1 267.7 440.9 267.4C440.5 267.4 440.2 267.3 439.8 267.3C439.6 267.3 439.4 267.3 439.3 267.3C439 268.8 438.8 270.3 438.5 271.8C439.2 271.9 439.9 271.9 440.6 272C441.7 272.2 442.9 272.4 444 272.5C444 272.6 444.1 272.7 444.2 272.9C443.9 274.6 443.6 276.4 443.3 278.1C443.1 279.6 442.8 281 442.6 282.5C441.1 282.2 439.7 282 438.2 281.7C438.1 282.2 438 282.8 437.9 283.3C437.4 283.2 437 283.1 436.5 282.9C436.4 283.4 436.3 283.8 436.2 284.3C436.2 284.4 436.2 284.6 436.2 284.7C435.9 284.6 435.5 284.6 435.2 284.5C435 284.4 434.8 284.4 434.6 284.3C434.6 284.4 434.6 284.4 434.6 284.3C435.1 281.5 435.6 278.6 436.1 275.8C431.5 275 426.9 274.2 422.4 273.4C422.4 273.3 422.4 273.2 422.5 273.2C422.8 273.2 423.2 273.3 423.5 273.4C427.6 274.1 431.8 274.8 435.9 275.5C436 275.4 436.1 275.4 436.2 275.3C436.3 274.5 436.5 273.6 436.6 272.8C436.7 272.3 437.1 271.8 437.4 271.4C437.8 270.8 438.3 270.3 438.7 269.7C438.8 269.5 438.9 269.2 439 268.9C439.1 268.3 439.2 267.7 439.3 267.2C438.9 267.1 438.4 267 437.9 266.9C436.2 266.6 434.5 266.3 432.8 266L431 267.3C430.8 267.3 430.6 267.2 430.4 267.2C430.1 266.9 429.8 266.6 429.5 266.2C429.1 266.1 428.7 265.9 428.2 265.8C427.4 266 426.7 266.2 425.9 266.3C425.9 266.4 425.9 266.5 425.9 266.5C425.7 266.3 425.5 266.1 425.3 265.8C425 265.4 424.7 264.9 424.4 264.5C421.2 263.9 418.1 263.4 414.9 262.8C411.3 262.1 407.8 261.5 404.2 260.8C404.1 261 404 261.2 403.9 261.4C403.8 261.8 403.7 262.2 403.6 262.6C403.5 262.6 403.4 262.7 403.4 262.6C403.5 262 403.6 261.4 403.6 260.8C403.2 260.7 402.7 260.6 402.3 260.5C402.3 260.4 402.4 260.4 402.4 260.3C402.8 260.3 403.3 260.4 403.7 260.4C404 258.5 404.3 256.6 404.6 254.7C404.7 254.9 404.8 254.8 404.8 254.8ZM475.2 257.6C475.3 257.6 475.3 257.7 475.4 257.7C475.4 257.9 475.4 258.2 475.4 258.4C475.4 258.8 475.3 259.1 475.2 259.5C475.1 259.5 474.9 259.6 474.8 259.6C474.7 259.6 474.6 259.6 474.4 259.6C474.3 259.4 474.4 259.2 474.4 259C474.4 258.6 474.5 258.2 474.6 257.8C474.7 257.7 474.9 257.6 475 257.5C475.1 257.5 475.2 257.5 475.2 257.6ZM474.4 262.3C474.5 262.4 474.7 262.4 474.8 262.6C474.6 264.1 474.3 265.7 474 267.2C473.9 267.5 473.9 267.8 473.8 268.2C473.8 268.3 473.8 268.4 473.7 268.4C473.6 268.4 473.4 268.4 473.3 268.3C473.2 268.1 473.1 268 473 267.8C473.3 266 473.6 264.2 473.9 262.5C474 262.4 474.1 262.4 474.2 262.3C474.3 262.3 474.3 262.3 474.4 262.3ZM428 267.1C428.3 267.1 428.5 267.1 428.8 267.1C429.1 267.3 429.5 267.6 429.7 267.9C429.7 268 429.8 268 429.7 268.1C429.1 268.5 428.5 269 427.8 269.3C427.7 269.3 427.6 269.4 427.5 269.4L426.3 267.6L427.1 267C427.4 267.1 427.7 267.1 428 267.1ZM456.5 269.5L459.5 270C459.5 270.1 459.6 270.1 459.6 270.2C458.5 276.7 457.4 283.1 456.2 289.6C455.8 289.6 455.4 289.5 455 289.4C453.7 289.2 452.3 288.9 451 288.7C450.6 288.6 450.1 288.5 449.7 288.4C449.9 287.3 450.1 286.1 450.3 285H450.5C450.4 285.6 450.3 286.2 450.2 286.7C450.1 287.2 450 287.7 449.9 288.2C451.9 288.6 453.9 288.9 455.8 289.3C456.1 287.7 456.4 286.1 456.7 284.5C454.7 284.1 452.6 283.8 450.6 283.4L451.5 277.9C451.6 278 451.7 278.1 451.8 278.1C453.7 278.4 455.6 278.8 457.6 279.1C457.9 277.3 458.2 275.4 458.6 273.6C458.7 272.8 458.9 272.1 459 271.3C459 271 459.1 270.6 458.9 270.3C458.7 270 458.4 269.9 458.1 269.8C457.5 269.7 456.8 269.6 456.2 269.5C455.4 269.4 454.6 269.2 453.7 269.1C453.6 269.2 453.5 269.2 453.4 269.3C453 271.7 452.5 274.2 452.1 276.6C452 276.5 451.9 276.4 451.9 276.2C452.4 273.7 452.8 271.3 453.3 268.8C453.4 268.8 453.4 268.7 453.5 268.7L456.5 269.5ZM477.7 269C477.8 269 477.7 269.1 477.7 269C477.6 269 477.6 269 477.7 269ZM478.7 269.2C478.6 269.2 478.6 269.1 478.7 269.2ZM462.2 270.3C462.8 270.4 463.4 270.5 464 270.6C466.4 271 468.8 271.5 471.2 272C471.6 272.1 472.1 272.2 472.5 272.3C472.4 273.3 472.2 274.3 472 275.3C471.2 280.1 470.3 284.9 469.5 289.7C469.4 290.4 469.3 291.1 469.1 291.8C466.9 291.4 464.7 291 462.5 290.6C462.3 290.6 462.1 290.5 461.8 290.4C460.7 290.2 459.6 289.9 458.4 289.7C458.4 289.5 458.4 289.2 458.5 289C458.8 287 459.2 285 459.6 283C460.4 278.8 461.2 274.6 461.9 270.3C462.1 270.3 462.1 270.3 462.2 270.3Z" fill="#A0A0A0"/>
<path d="M77.1 358.7V357.4H76.6V355.1H78.9V348.9H78.6V354.8H72.9V347.6H78.6V348.1H78.9V347.6H79.6V347.3H77C75.6 347.3 74.1 347.3 73.7 347.3H72.9V345.8H74.2V346.6H74.5V345.8H81V347.3H80.5V347.6H81V360H77.1V358.7Z" fill="#A0A0A0"/>
<path d="M272.4 361.5V360.1H277.3V362.9H272.4V361.5Z" fill="#A0A0A0"/>
<path d="M275.7 363.7V363H277.3V364.3H275.7V363.7Z" fill="#A0A0A0"/>
<path d="M431.2 362.8L431.6 360.6L432.3 360.7L433 360.8L432.6 363L432.2 365.2L431.5 365.1L430.8 365L431.2 362.8Z" fill="#A0A0A0"/>
<path d="M370.6 352.1L371 349.9L371.7 350L372.4 350.1L372 352.3L371.6 354.5L370.9 354.4L370.2 354.3L370.6 352.1Z" fill="#A0A0A0"/>
<path d="M142.2 380.5V379H143.5V381.9H142.2V380.5Z" fill="#A0A0A0"/>
<path d="M129.6 378.5V375.1H136.9V374.8H136.4V374.1H136.1V374.8H129.6V368.4H136.1V372.6H136.4V367.2H136.1V368H129.6V361.2H135.1V363.5H136.1V365.8H136.4V363.5H136.9V363.2H135.4V360.4H139.2V363.2H138.4V363.5H139.2V372H140.2V371.7H139.5V353.6H139.2V357H138.1V357.3H139.2V360.1H135.4V357.3H136.5V357H135.4V356.5H135.1V360.9H129.6V354.5H135.1V355H135.4V354.5H136.4V352.1H136.1V354.2H129.6V347.8H136.1V350.6H136.4V350H137.1V349.7H136.4V347.9H139.2V349.7H138.5V350H139.2V352.1H139.5V347.9H142.4V358.3V368.7H143.8H145.2V368.4H147V368.7H149V377.7H148.3V378H149V381.9H144.4V380.6H145.4V379H146.1V378H146.6V377.7H146.1V371.7H141.5V372H143.5V372.7H143.8V372H145.8V374.8H143.8V374.1H143.5V374.8H138.3V375.1H139.1V381.9H129.5L129.6 378.5Z" fill="#A0A0A0"/>
<path d="M432 383.8L433.5 375.1L433.8 375.2L434.1 375.3V375.1V374.9L433.8 374.8L433.5 374.7L434.2 370.8L434.9 366.9L435.8 367.1L436.7 367.3L436.8 366.7L436.9 366.1L436.1 366L435.3 365.9L435.7 363.7L436.1 361.5L437.1 361.7L438.1 361.9L438.8 358.1L439.5 354.3L437.9 354L436.3 353.7L436.1 354.9L435.9 356.1L435.3 356L434.7 355.9V356.1V356.3L435.3 356.4L435.9 356.5L435.5 358.7L435.1 360.9L433.5 360.6L431.9 360.3L432.3 358.1L432.7 355.9L433.2 356L433.7 356.1V355.9V355.7L433.1 355.6L432.5 355.5L431.7 360.2L430.9 364.9L425.3 363.9L419.7 362.9L418.9 367.4L418.1 371.9L414.6 371.3L411.1 370.7L411.5 368.3L411.9 365.9L414.2 366.3L416.5 366.7L416.6 366L416.7 365.3H416.5H416.3L416.2 365.9L416.1 366.5L413.9 366.1L411.7 365.7L412 364.3L412.3 362.9L414.5 363.3L416.7 363.7V363.9V364.1H416.9H417.1V363.9V363.7L417.5 363.8L417.9 363.9L418 363.4L418.1 362.9L405 360.6L391.9 358.3L391.8 358.8L391.7 359.3L392.1 359.4L392.5 359.5L392.2 361.1L391.9 362.7L394.2 363.1L396.5 363.5L396.1 365.9L395.7 368.3L392.2 367.7L388.7 367.1L389.5 362.6L390.3 358.1L382.6 356.7L374.9 355.3L374.1 359.8L373.3 364.3L370.6 363.8L367.9 363.3L368.3 360.9L368.7 358.5L370.1 358.7L371.5 358.9L371.6 358.5L371.7 358.1H371.5H371.3V358.3V358.5L369.4 358.2L367.5 357.9L367.8 356.5L368.1 355.1L370 355.4L371.9 355.7L371.8 356.5L371.7 357.3H371.9H372.1L372.2 356.5L372.3 355.7L372.9 355.8L373.5 355.9L373.6 355.4L373.7 354.9L373.1 354.8L372.5 354.7L373.3 350L374.1 345.3L372.7 345L371.3 344.7L371.4 343.9L371.5 343.1L369.8 342.8L368.1 342.5L367.5 345.7L366.9 348.9L367.6 349L368.3 349.1L367.9 351.3L367.5 353.5L365.7 353.2L363.9 352.9L363.2 351L362.5 349.1L363.5 343.7L364.5 338.3L372 339.6L379.5 340.9L378.6 346.3L377.7 351.7L384.3 352.9L390.9 354.1L391 353.6L391.1 353.1L390.6 353L390.1 352.9L390.2 352.6L390.3 352.3H390.1H389.9L389.8 352.6L389.7 352.9L387.7 352.5L385.7 352.1L385.9 350.9L386.1 349.7L388.1 350.1L390.1 350.5L390 351L389.9 351.5H390.1H390.3L390.4 350.9L390.5 350.3L388.3 349.9L386.1 349.5L386.9 345.1L387.7 340.7L391.2 341.3L394.7 341.9L393.6 348.2L392.5 354.5H392.7H392.9L394.1 347.8L395.3 341.1L397.5 341.5L399.7 341.9L399.5 343L399.3 344.1L400.5 344.3L401.7 344.5L401 348.2L400.4 351.9L398.4 351.5L396.4 351.1L396.3 351.7L396.2 352.3H396.4H396.6L396.7 351.8L396.8 351.3L398.6 351.6L400.4 351.9L400.2 353.1L400 354.3L398.2 354L396.4 353.7L396.5 353.4L396.6 353.1H396.4H396.2L396.1 353.4L396 353.7L395.5 353.6L395 353.5L394.9 354L394.8 354.5L400.3 355.5L405.8 356.5L405.9 356L406 355.5L405.6 355.4L405.2 355.3L405.4 353.9L405.6 352.5L403.1 352.1L400.6 351.7L401.3 348L401.9 344.3L405.6 344.9L409.3 345.6L408.3 351.1L407.3 356.6L417.3 358.4L427.3 360.2L427.8 357.5L428.3 354.8L429.6 355L430.9 355.2L431.4 352.5L431.9 349.8L440.3 351.3L448.7 352.8L447.3 360.5L445.9 368.2L444.9 368L443.9 367.8L443.5 370L443.1 372.2L442.3 373.9L441.4 375.6L439.9 375.4L438.4 375.2V375.4V375.6L438.7 375.7L439 375.8L437.5 384.5L436 393.3L433.6 392.9L431.2 392.5L432 383.8Z" fill="#A0A0A0"/>
<path d="M278.5 382.3V368.1H278.2V368.6H270.2V366H278.2V366.5H278.5V366H281.3V396.5H278.5V382.3Z" fill="#A0A0A0"/>
<path d="M110.4 404.8V403.3H112.2V401.8H114V406.2H110.4V404.8Z" fill="#A0A0A0"/>
<path d="M129.8 415.3V413.9H132.7V416.7H129.8V415.3Z" fill="#A0A0A0"/>
<path d="M210 427.3L210.3 426.5L210.9 426.7L211.5 426.9L211.2 427.7L210.9 428.5L210.3 428.3L209.7 428.1L210 427.3Z" fill="#A0A0A0"/>
<path d="M220.2 432L220.4 431.4L221.1 431.7L221.8 432L221.6 432.6L221.4 433.2L220.7 432.9L220 432.6L220.2 432Z" fill="#A0A0A0"/>
<path d="M211 428.7L211.7 427L212.5 427.3L213.3 427.6L212.6 429.3L212 431L211.2 430.7L210.4 430.4L211 428.7Z" fill="#A0A0A0"/>
<path d="M217.9 432.9L218.2 432.1L219.7 432.7L221.2 433.3L220.9 434.1L220.6 434.9L219.1 434.3L217.6 433.7L217.9 432.9Z" fill="#A0A0A0"/>
<path d="M137.5 419.8V415.6H137.2V416.7H135.4V415.2H134.4V413.9H135.7V413.6H129.8V391.4H132.9V401.8H133.2V400.5H139.1V401.2H139.4V400.5H142.5V404.4H139.4V402.1H139.1V404.4H133.2V402.8H132.9V410.3H137.1V411.4H137.4V409.3H142.5V413.5H137.4V412.4H137.1V413.5H136.6V413.8H137.1V414.5H137.4V413.8H142.5V424H137.4L137.5 419.8Z" fill="#A0A0A0"/>
<path d="M211.8 434.7L212.4 433.1L214 433.7L215.6 434.3L215.7 434.2L215.8 434L214.2 433.4L212.6 432.8L214.3 428.6L216 424.4L217.2 424.9L218.4 425.4L217.6 427.4L216.8 429.4L216.9 429.5L217.1 429.6L217.9 427.6L218.7 425.6L219.5 425.9L220.3 426.2L220 427L219.7 427.8L219.8 427.9L220 428L220.3 427.2L220.6 426.4L222.1 427L223.6 427.6L223 429L222.4 430.4L220.9 429.8L219.4 429.2L219.5 429.1C219.5 429 219.5 428.9 219.4 428.9L219.2 428.8L218 431.7L216.8 434.6H216.6H216.4L216.6 434.8L216.8 435L216.2 436.6L215.6 438.2L213.4 437.3L211.2 436.4L211.8 434.7Z" fill="#A0A0A0"/>
<path d="M196.8 428.3L197.9 425.7L200.5 426.7L203.1 427.7L202.5 429.1L201.9 430.5L202.4 430.7L202.9 430.9L203 430.7L203.1 430.6L202.7 430.4L202.3 430.2L203 428.4L203.7 426.6L203.5 426.5L203.3 426.4L203.1 426.8L202.9 427.2L200.3 426.2L197.7 425.2L198.1 424.1L198.5 423L201.1 424L203.7 425L203.6 425.2L203.5 425.4L203.7 425.5L203.9 425.6L204.3 424.6L204.7 423.6L204.5 423.5L204.3 423.4L204.1 424L203.9 424.6L201.3 423.6L198.7 422.6L200 419.4L201.3 416.2L203.9 417.2L206.5 418.2L205.6 420.3L204.7 422.4L204.8 422.5L205 422.6L205.2 422L205.4 421.4L206.5 421.9L207.6 422.4L206.7 424.5L205.8 426.6L206 426.7L206.2 426.8L206.6 425.9L207 425L207.8 425.3L208.6 425.6L207.9 427.3L207.2 429L206.4 428.7L205.6 428.4L205.7 428.1L205.8 427.8L205.6 427.7L205.4 427.6L204.7 429.3L204 431L203.7 430.9L203.4 430.8L203.3 431L203.2 431.2L203.5 431.3L203.8 431.4L203.3 432.6L202.8 433.8L198.9 432.2L195 430.6L196.8 428.3Z" fill="#A0A0A0"/>
<path d="M270.2 427V425.7H278.2V428.3H270.2V427Z" fill="#A0A0A0"/>
<path d="M275.7 430.5V429.8H277.3V431.1H275.7V430.5Z" fill="#A0A0A0"/>
<path d="M272.4 432.7V431.3H277.3V434.1H272.4V432.7Z" fill="#A0A0A0"/>
<path d="M239.3 433.9V433.2H240.6V434.7H239.3V433.9Z" fill="#A0A0A0"/>
<path d="M236.7 433.1V431.6H239.1V434.7H236.7V433.1Z" fill="#A0A0A0"/>
<path d="M193.9 443.7L194.2 442.9L194.8 443.1L195.4 443.3L195.1 444.1L194.8 444.9L194.2 444.7L193.6 444.5L193.9 443.7Z" fill="#A0A0A0"/>
<path d="M191.3 441.7L191.9 440.1L192.6 440.4L193.3 440.7L192.7 442.3L192.1 443.9L191.4 443.6L190.7 443.3L191.3 441.7Z" fill="#A0A0A0"/>
<path d="M236.7 441.6V439.3H240V439H236.7V437.2H242.2V435L242.4 434.9L242.6 434.8L242.4 434.7L242.2 434.6V431.5H244.2V434.6L244 434.7L243.8 434.8L244 434.9L244.2 435V436.1H244.5V431H249.4V439H244.5V437H244.2V439H243.7V439.3H249.4V443.9H242.4V439.3H242.6C242.7 439.3 242.8 439.2 242.8 439.1V439H241V439.3H242.1V443.9H236.7V441.6Z" fill="#A0A0A0"/>
<path d="M105.3 427V410.1H103.7V401.1H110.1V406.5H114.3V399.7H114V400.2H110.4V397.9H114V398.6H114.3V397.9H122.9V403.6H118.2V403.9H122.9V409.3H118.2V409.6H122.9V415.6H114.1V409.6H117V409.4C117 409.3 116.9 409.2 116.8 409.2H116.6V404H116.8C116.9 404 117 403.9 117 403.8V403.6H116.3V409.3H109.1V425H109.4V416H117.2V427H109.4V426H109.1V436.1H109.4V427.3H117.2V438.2H109.4V437.1H109.1V443.9H105.2L105.3 427Z" fill="#A0A0A0"/>
<path d="M188.6 451L189.1 449.9L191.3 450.8L193.5 451.7L193.6 451.5C193.6 451.4 193.6 451.3 193.5 451.3L193.3 451.2L193.5 450.6L193.7 450L193.5 449.9L193.3 449.8L193.1 450.4L192.9 451L191 450.2L189.1 449.4L189.7 448L190.2 446.6L192.1 447.4L194 448.2L193.9 448.5L193.8 448.8L194 448.9L194.1 449L194.4 448.3L194.7 447.6L194.5 447.5L194.3 447.4L194.2 447.6L194.1 447.8L192.2 447L190.3 446.2L190.8 444.9L191.3 443.6L193.2 444.4L195.1 445.2L194.9 445.8L194.7 446.4L194.9 446.5L195 446.6L195.2 446L195.4 445.4L195.6 445.5C195.7 445.5 195.8 445.5 195.8 445.4L195.9 445.2L195.4 445L194.9 444.8L195.5 443.2L196.1 441.6L201.4 443.7L206.7 445.8L206.1 447.4L205.5 449L201.1 447.2L196.7 445.4L196.6 445.6C196.6 445.7 196.6 445.8 196.7 445.8L196.9 445.9L196.4 447.1L195.9 448.3L196.1 448.4L196.3 448.5L196.4 448.3L196.5 448.1L197.2 448.4L197.9 448.7L197.6 449.5L197.3 450.3L196.6 450L195.9 449.7L196 449.5L196.1 449.3L195.9 449.2L195.7 449.1L195.4 449.8L195.1 450.5L195.3 450.6L195.4 450.7L195.5 450.4L195.6 450.1L196.3 450.4L197 450.7L196.7 451.5L196.4 452.3L195.7 452L195 451.7V451.5V451.3L194.6 451.4C194.4 451.5 194.2 451.6 194.2 451.6V451.7L195.2 452.1L196.2 452.5L195.7 453.6L195.2 454.7L191.6 453.3L188 451.9L188.6 451Z" fill="#A0A0A0"/>
<path d="M274.4 459.5V458.8H275.9V457.3H276.6V457H276V453H275.7V456.9H270.2V451H275.7V452H276V450.2H275.7V450.7H270.2V447H275.7V449.3H276V448.8H276.5V448.5H276V447H278.1V448.5H277.4V448.8H278.1V449.3H278.4V447H291.1V450.9H289.6V453H278.4V450.2H278.1V454.4H278.4V453.3H280.9L281.6 454.1L282.3 454.9V455.9V456.9H278.4V455.4H278.1V456.9H277.4V457.2H278.1V460.1H274.3L274.4 459.5Z" fill="#A0A0A0"/>
<path d="M270.2 458.7V457.2H272.8V460.1H270.2V458.7Z" fill="#A0A0A0"/>
<path d="M92.6 471.6V467.5H110.7V475.2H105.6V471.9H103.6V470.6H103.3V475.7H92.6V471.6ZM101.8 471.3V471.1H94.5V471.4L101.8 471.3Z" fill="#A0A0A0"/>
<path d="M184.6 516.7V515H188.5V518.4H184.6V516.7Z" fill="#A0A0A0"/>
<path d="M276.7 519.5V517.8H277.5V517.5H273.1V516.2H279.6V503H280.1V502.7H278.8V502.2H278.5V502.7H273.1V498.3H278.5V501.2H278.8V500.7H279.8V500.4H278.8V498.3H281.7V500.4H280.6V500.7H283.5V501.2H283.8V498.3H291V502.7H283.8V502.2H283.5V502.7H283.3C283.2 502.7 283.1 502.8 283.1 502.9V503.1H290.9V507.7H281.9V503.1H282.1C282.2 503.1 282.3 503 282.3 502.9V502.7H281.2V503H281.7V517.5H280.9V517.8H281.7V521.2H276.6V519.5H276.7Z" fill="#A0A0A0"/>
<path d="M254.8 519.5V517.8H259.9V521.2H254.8V519.5Z" fill="#A0A0A0"/>
<path d="M214.9 519.9V518.4H214.1V515H218.2V521.4H214.9V519.9ZM215.5 521V520.8H215V521.1L215.5 521ZM216.4 521V520.8H215.9V521.1L216.4 521ZM217.2 521V520.8H216.7V521.1L217.2 521ZM218 521V520.8H217.5V521.1L218 521Z" fill="#A0A0A0"/>
<path d="M185.4 521.5V520H186.9V521.5H188.5V523H185.4V521.5Z" fill="#A0A0A0"/>
<path d="M276.7 524.8V522.8H278.2V524.3H281.8V526.7H276.7V524.8Z" fill="#A0A0A0"/>
<path d="M485.5 524.9V518.2H492.5V529.1H492.8V528.4H495.1V528.1H492.8V518.2H502.4V528.1H496.2V528.4H502.4V529.1H502.7V528.4H504.2V525.1H502.7V523H505.6V528.5H506.9V528.2H505.9V518.3H512.1V528.2H508V528.5H512.1V531.6H502.6V530.3H502.3V531.6H492.7V530.3H492.4V531.6H485.4L485.5 524.9Z" fill="#A0A0A0"/>
<path d="M189.3 531.4V526.8H191.1V526.5H177.6V524.7H177.3V526.5H167.2V521.8H177.3V523.6H177.6V511.7H180V523.9H185.4V523.4H188.5V523.9H196.2V523.6H194.4V515H199.1V523.5H197.5V523.8H201.4L201.5 524L201.6 524.2V524V523.8H215.9V523.5H214.9V522.7H218.2V523.5H217.4V523.8H218.4V526.4H217.4V526.7H218.7V535.8H214.1V533.4H213.8V535.8H212.8C212.2 535.8 211.2 535.8 210.5 535.9L209.3 536V526.7H213.9V530.6H214.2V526.7H216V526.4H201.7L201.6 526.2L201.5 526V526.2V526.4H192.7V526.7H194.5V536H189.4L189.3 531.4ZM201.5 525.4L201.4 525.8L201.5 525.7L201.6 525.6L201.5 525.4ZM201.5 524.6L201.4 525L201.5 524.9L201.6 524.8L201.5 524.6ZM186.2 523.6V523.4H185.5V523.7L186.2 523.6ZM187.2 523.6V523.4H186.5V523.7L187.2 523.6ZM188.2 523.6V523.4H187.5V523.7L188.2 523.6ZM215.5 523V522.8H215V523.1L215.5 523ZM216.4 523V522.8H215.9V523.1L216.4 523ZM217.2 523V522.8H216.7V523.1L217.2 523ZM218 523V522.8H217.5V523.1L218 523Z" fill="#A0A0A0"/>
<path d="M247.7 534.5V532.8H250V531.7H249.7V532.5H247.7V529.2H249.7V530.5H250V529.9C250 529.6 250 529.2 250.1 529.1L250.2 528.8H248.5V527H255.7V526.7H254.9V522.8H256.4V524.3H260V526.7H259.2V527H261.8V528.8H251.4V529.1H251.9V530.4H252.2V529.1H257.1V530.4H257.4V529.1H262V536.1H257.4V531.5H257V536.1H252.1V531.5H251.8V536.1H247.7V534.5Z" fill="#A0A0A0"/>
<path d="M517.4 557.8L518.2 556.2L515.3 554.8L512.4 553.4L516.8 544.5L521.2 535.6L523.2 535.5C524.3 535.5 525.9 535.4 526.8 535.3L528.4 535.2L532 537L535.6 538.8L529.7 550.9L523.8 563L520.3 561.3L516.8 559.6L517.4 557.8ZM525.1 545.5L527.3 541.1L526.2 540.6L525.1 540.1H524.4H523.7L522.8 540.4L521.9 540.7L521.5 541.2L521.1 541.7L520.3 543.4L519.5 545.1L519.6 546L519.7 546.9L520.1 547.6L520.5 548.3L521 548.8L521.5 549.3L522.3 549.7L523.1 550.1L525.1 545.5Z" fill="#A0A0A0"/>
<path d="M461.5 569.4V568.7H464.3V570H461.5V569.4Z" fill="#A0A0A0"/>
<path d="M497.4 568.3L498.2 566.8L499.1 567.2L500 567.6L499.2 569.1L498.4 570.6L497.5 570.2L496.6 569.8L497.4 568.3Z" fill="#A0A0A0"/>
<path d="M220.9 572.8V571.3H221.7V574.4H220.9V572.8Z" fill="#A0A0A0"/>
<path d="M452.1 569.6V563.9H464.3V565.7H462.8V567.2H461.2V570.5H464.3V575.4H452.1V569.6Z" fill="#A0A0A0"/>
<path d="M417.2 575.3V574.6H420V575.9H417.2V575.3Z" fill="#A0A0A0"/>
<path d="M407.6 575.3V574.6H410.4V575.9H407.6V575.3Z" fill="#A0A0A0"/>
<path d="M212.9 584V583.8H216V584.3H212.9V584Z" fill="#A0A0A0"/>
<path d="M553.2 583.7L552.3 583.3L552.5 582.9L552.7 582.5L552.6 582.4L552.5 582.3L552.3 582.7L552.1 583.1L550.6 582.3L549.1 581.5L549 581.6L548.9 581.7L549.9 582.2L550.9 582.7L550.6 583.4L550.3 584.1L549.6 583.8L548.9 583.5L548.6 584.2L548.3 584.9L547.2 584.4L546.1 583.9L546.7 582.6L547.3 581.3L547.5 581.4L547.7 581.5L547.8 581.4L547.9 581.3L547.7 581.2L547.5 581.1L547.6 580.8L547.7 580.5L547.6 580.4L547.5 580.3L547.4 580.6L547.3 580.9L544 579.3L540.7 577.7L542 575.1L543.3 572.5L546.6 574.1L549.9 575.7L549 577.5L548.1 579.3L548.2 579.4L548.3 579.5L549.5 577.2L550.7 574.9L550.6 574.8L550.5 574.7L550.3 575.1L550.1 575.5L546.8 573.9L543.5 572.3L544.2 570.8L544.9 569.3L548.2 570.9L551.5 572.5L551.2 573L550.9 573.5L551 573.6L551.1 573.7L551.4 573.2L551.7 572.7L552.9 573.3L554.1 573.9L552.7 576.7L551.3 579.5L551.6 579.6L551.9 579.7L552 579.6C552 579.5 552 579.4 551.9 579.4L551.8 579.3L553.1 576.7L554.4 574.1L556.4 575.1L558.4 576.1L557.1 578.7L555.8 581.3L554.5 580.7L553.2 580.1L553.1 580.2L553 580.3L553.3 580.4L553.6 580.5L553.4 580.9L553.2 581.3L553.3 581.4L553.4 581.5L553.6 581.1L553.8 580.7L554.7 581.1L555.6 581.5L554.9 582.9L554.2 584.3L553.2 583.7Z" fill="#A0A0A0"/>
<path d="M551.8 586.6L551 586.2L551.6 584.9L552.2 583.6L553 584L553.8 584.4L553.2 585.7L552.6 587L551.8 586.6Z" fill="#A0A0A0"/>
<path d="M214.6 586.5V585.7H216.1V583.8H216.4V587H214.6V586.5Z" fill="#A0A0A0"/>
<path d="M194.2 587.4V583.8H204.6V589H204.9V587.7H207.5V587.4H204.9V583.8H209.5V587.4H208.7V587.7H210.8V587.4H209.8V583.8H212.6V587.4H211.6V587.7H212.9V587.4H216.3V591H204.9V590H204.6V591H194.2V587.4Z" fill="#A0A0A0"/>
<path d="M111.9 593V592.4H113V593.5H111.9V593Z" fill="#A0A0A0"/>
<path d="M426.5 592.5V591.1H428V593.9H426.5V592.5Z" fill="#A0A0A0"/>
<path d="M466.2 596.5L465.8 596.2L466 595.9C466.1 595.7 466.5 595.2 466.8 594.6L467.4 593.6L467.8 593.8C468.7 594.3 468.7 594.4 467.9 595.7C467.1 597.1 467.2 597.2 466.2 596.5Z" fill="#A0A0A0"/>
<path d="M496.1 598.6L496.5 597.9L497.2 598.3L497.9 598.7L498 598.4C498.1 598.2 498.2 597.6 498.3 597L498.5 595.9L498.4 595L498.3 594.1L497.9 593.4L497.5 592.7L496.6 592C496.1 591.6 495.5 591.2 495.2 591L494.7 590.8L494.8 590.4L494.9 590L498.1 583.5L501.3 577L505.5 579.1L509.7 581.2L509.8 581.1L509.9 581L508 580.1L506.1 579.2L506.9 577.5L507.7 575.8L506.1 575L504.5 574.2L503.7 575.9L502.9 577.6L498.9 575.7L495 573.8L495.8 572.1L496.6 570.4L498.2 571.2L499.8 572L500.2 571.1L500.6 570.2L501.3 570.5L502 570.8L502.4 570L502.8 569.2L507 571.3L511.2 573.4L510.4 575.1L509.6 576.8L512.8 578.4L516 580L515.2 581.7L514.4 583.4L512.8 582.6L511.2 581.8L511.1 581.9L511 582L512.6 582.8L514.2 583.6L509.2 593.7L504.2 603.8L500 601.7L495.8 599.6L496.1 598.6Z" fill="#A0A0A0"/>
<path d="M263.6 605.1V604.4H266.7V605.7H263.6V605.1Z" fill="#A0A0A0"/>
<path d="M116.6 607.5L115.5 606.4V605.5H110.4V593.9H113.3V591H110.4V587.4H115.6V586.3L116.6 585.3L117.6 584.3H121.7H125.8L127 585.7L128.2 587.1V587.9H131.1V590.7H131.5H131.9L132.9 591.9L133.9 593.1V600.3L132.8 601.4L131.7 602.5H131.2H130.7V605.4H127.8V606.8L126.9 607.7L126 608.6H121.8H117.6L116.6 607.5Z" fill="#A0A0A0"/>
<path d="M226.8 612.5V610.9H223.8H220.8H223.9H227V606H226.7V610.6H220.8V603.8H226.7V605.1H227V603.5H220.8V598H218.8V596.9H220.8V574.6H226.7V571.3H228.5V614.2H226.7L226.8 612.5Z" fill="#A0A0A0"/>
<path d="M220.9 612.5V611H221.7V614.1H220.9V612.5Z" fill="#A0A0A0"/>
<path d="M253.7 619.1V613.9H255.7V613.6H253.7V600.4H259.1V613.6H256.8V613.9H259.4V600.4H260.4V600.1H258.6V578.1H256.1L256.2 575.5C256.3 574 256.3 572.1 256.3 571.3V569.7L256.8 568.9L257.5 568.2L258.3 567.9L259.2 567.7L260.9 567.8L262.7 567.9L264.8 568.9C266 569.5 268 570.4 269.4 571.1L271.8 572.3L272.9 573.3L274 574.3L274.6 575.3C274.9 575.8 275.3 576.7 275.5 577.2L275.8 578.1V581.9L275.3 583.1C274.5 584.9 273.5 586.5 272 588.3C271.7 588.6 271.2 589.2 270.9 589.6C270.6 590 269.4 591.4 268.4 592.7C267.3 594 266.2 595.5 265.8 595.9L265.2 596.7V600.3H263.7V600H261.4V600.3H263.4V624.3H253.8V619.1H253.7ZM264.1 592C264.2 591.8 264.9 591 265.6 590.1C266.3 589.2 266.9 588.4 267 588.4C267 588.4 267.7 587.6 268.4 586.7C269.1 585.8 269.8 584.9 270 584.7C270.2 584.5 270.6 583.9 271 583.4L271.7 582.4L272.1 581.5L272.5 580.6V579.8V579L272.3 578.1L272.1 577.2L271.3 576.1L270.5 575L268.9 574.3L267.3 573.6L265.8 573.1L264.3 572.6L263.5 572.8C263.1 572.9 262.6 573 262.5 573.1L262.3 573.3V591.3L262.7 591.8L263.1 592.3H263.6L264.1 592Z" fill="#A0A0A0"/>
<path d="M257.3 632.1V630.6H258.3V633.7H257.3V632.1Z" fill="#A0A0A0"/>
<path d="M257.3 643.6V639.4H263V639H262.2V634.1H263V633.8H261.4V632.2H259.9V630.6H269.4V633.9H267.8V634.2H269.4V639.1H265.5V634.2H266.8V633.9H264V634.2H265.1V639.1H264V639.4H269.4V647.9H257.3V643.6Z" fill="#A0A0A0"/>
<path d="M171.9 667.2V666.7H175V667.7H171.9V667.2Z" fill="#A0A0A0"/>
<path d="M59.4 668.5V668H62.5V669H59.4V668.5Z" fill="#A0A0A0"/>
<path d="M44.4 669.4V667.9H51.6V671H44.4V669.4Z" fill="#A0A0A0"/>
<path d="M511.1 673.2V671.5H512.4V674.9H511.1V673.2Z" fill="#A0A0A0"/>
<path d="M182.8 675.5V673H185.1V672.7H182.8V670.9H182.5V671.4H180.5V663.6H180.2V666H177.9V661.3H180.2V662.8H180.5V658.4H174.3V657.7H174V658.4H173.5V658.7H174V661.3H175V665.2H173.5V663.7H171.7V667.8H171.2V658.7H172.5V658.4H171.2V656H174V656.7H174.3V656H180.2V654.9H180.9V654.6H180.2V651.3H179V651.6H179.8V655.7H177V651.6H178V651.3H176.7V655.7H171.2V649.2H180.2V646.9H179.9V648.9H171.3V641.7H179.9V646.1H180.2V644.8H180.9V644.5H180.2V641.7H182.5V644.5H181.7V644.8H182.5V645C182.5 645.1 182.6 645.2 182.7 645.2H182.9V641.8H191.7V646.9H182.9V646.1H182.6V654.7H181.8V655L182.2 655.1L182.6 655.2V655.9C182.6 656.3 182.6 659.6 182.6 663.3V670H182.9V669.5H183.9V669.2H182.9V667.9H185.3V669.2H185.1C185 669.2 184.9 669.3 184.9 669.4V669.6H185.6V668H191.6V673.1H186.2V673.4H191.6V678.5H182.8V675.5Z" fill="#A0A0A0"/>
<path d="M48.8 649.3V651.9H49.3V652.2H48.8V655.3H51.9V656.3H51.6V655.6H48.8V657.9H51.6V657.1H51.9V664.2L52.1 664.3L52.3 664.4L52.1 664.5L51.9 664.6V678H51.6V674.1H50.6V673.8H51.6V671.4H47.9V673.8H49.5V674.1H48.8V675.4H48.5V674.1H47.5V671.3H44.4V677.3H48.5V676.5H48.8V679.3H48.5V677.7H44.4V682.8H48.5V680.5H48.8V682.8H49.5V683.1H44.4V688.6H51.6V683H50.6V682.7H51.6V679H51.9V680.5H52.4V680.8H51.9V688.6H52.4V688.9H44.4V693H52.4V693.3H51.9V696.9H53.9V693.3H53.4V693H53.9V688.9H53.4V688.6H53.9V685.7H54.2V686.4H54.7V686.7H54.2V693.1H55.3V693.4H54.2V697H57.4V693.4H56.3V693H63.2V686.6H55.7V686.3H63.2V680.1H56.7V684.2H55.9V683.9H56.4V680.2H54.3V683.9H55V684.2H54.3V684.7H54V680.8H53.5V680.5H54V679.8H60V679.1H60.3V679.8H63.1V677.5H61.8V677.2H63.1V668.1H62.6V672.2H60.8V670.7H59.3V674.6H60.3V677.2H60.8V677.5H60.3V678.2H60V677.5H53.8V673.1H54.1V674.6H56.4V669.9H54.1V672H53.8V664.7H53.3V664.4H53.8V662.6H54.1V667.8H63.1V661.3H61.1V661H63.1V655.3H54.1V661H60.1V661.3H54.1V661.5C54.1 661.6 54 661.7 53.9 661.7H53.7V654H54V654.8H63V649.3H54V653.1H53.7V652.3H53V652H53.8V649.4H51.2V652H52V652.3H50.2V652H50.9V649.4L48.8 649.3Z" fill="#A0A0A0"/>
<path d="M124.4 695.5V694H125.4V697.1H124.4V695.5Z" fill="#A0A0A0"/>
<path d="M118.9 696.6V696.1H116.3V693.3H125.4V693.8H121.3V695.6H122.8V697.1H118.9V696.6Z" fill="#A0A0A0"/>
<path d="M64.4001 696.3V695.6H65.9001V693.8H61.8V693.3H71V696.1H68.4001V697.1H64.5L64.4001 696.3Z" fill="#A0A0A0"/>
<path d="M61.8 695.5V694H62.8V697.1H61.8V695.5Z" fill="#A0A0A0"/>
<path d="M452.2 703.8V699.7H454.2V699.4H452.2V691.2H455.5V690.7H456.6V691.2H457.6V699.4H455.6V699.7H457.6V707.9H452.2V703.8Z" fill="#A0A0A0"/>
<path d="M517.6 714.2V712.9L517.3 711.3C517.1 710.4 516.9 708.5 516.7 707L516.4 704.3V700.3V696.3L516.7 693.4C516.9 691.8 517.1 689.7 517.2 688.8C517.3 687.9 517.5 686.3 517.5 685.3L517.6 683.5H519.4V715.5H517.6V714.2Z" fill="#A0A0A0"/>
<path d="M479.1 724L477.8 723.9V708.9H464.4V705.5H457.9V693.4H464.4V690H477.8V675.2H517.9V671.5H520.8V679H514V679.3H520.5V685H519.7V683.2H515.6L515.7 683.5C515.8 683.6 515.8 684.3 515.8 684.9V686H517.1V686.1C517.1 686.2 517 686.8 516.9 687.6C516.6 689.2 516.3 692.8 516 696.6L515.8 699.1L515.9 701.9C516.1 706.3 516.7 711.9 517.2 712.8L517.4 713.1H515.9V714.2C515.9 714.8 515.9 715.4 515.8 715.6L515.7 715.9H520.5V720H514V720.3H520.8V724.1H503C493.2 724.1 484.1 724.1 482.7 724.2C481.5 724.1 479.8 724.1 479.1 724ZM502.6 720.1V719.9H499.5L499.4 719.7L499.3 719.5L499.2 719.7L499.1 719.9H495.1V715.8H495.8V715H495.3V715.3H485.4V711.1H493.6V688.1H485.4V683.7H495.3V697.7H507.2V697.4H495.8V683.2H495.1V679.3H499.1L499.2 679.5L499.3 679.7L499.4 679.5L499.5 679.3H502.6V679H494.8V681.2V683.4H489.9H485.1V692L482.9 692.6L480.7 693.2V694.1V695H481.2V694.7H485.1V694.9C485.1 695 485.2 695.1 485.3 695.1H485.5V692.8H488.1V691.3H490.5V688.5H493.3V710.8H490.5V708H488.1V706.5H485.5V704.4H480.8L480.9 705.2C481 706.2 480.9 706.1 483.2 706.6L485.2 707.1V715.7H495V720.3H502.8L502.6 720.1ZM512.2 720.1V719.9H505.4V718.6H505.1V719.9H504.4V720.2L512.2 720.1ZM499.5 719.1C499.5 719 499.4 718.9 499.3 718.9C499.2 718.9 499.1 719 499.1 719.1C499.1 719.2 499.2 719.3 499.3 719.3C499.4 719.3 499.5 719.2 499.5 719.1ZM499.5 718.4C499.5 718.3 499.4 718.2 499.3 718.2C499.2 718.2 499.1 718.3 499.1 718.4C499.1 718.5 499.2 718.6 499.3 718.6C499.4 718.6 499.5 718.5 499.5 718.4ZM502.3 717V715.9H505.1V717.4H505.4V715.9H513.9V715.6H498V715.9H499.1V718.2H502.2L502.3 717ZM496.4 715.7C496.4 715.6 496.3 715.5 496.2 715.5C496.1 715.5 496 715.6 496 715.7C496 715.8 496.1 715.9 496.2 715.9C496.3 715.8 496.4 715.7 496.4 715.7ZM497.1 715.7C497.1 715.6 497 715.5 496.9 715.5C496.8 715.5 496.7 715.6 496.7 715.7C496.7 715.8 496.8 715.9 496.9 715.9C497 715.9 497.1 715.7 497.1 715.7ZM497.7 715.7C497.7 715.6 497.6 715.5 497.5 715.5C497.4 715.5 497.3 715.6 497.3 715.7C497.3 715.8 497.4 715.9 497.5 715.9C497.6 715.8 497.7 715.7 497.7 715.7ZM495.8 706.6V699.7H507.2V699.4H495.3V713.6H495.8V706.6ZM495 705.5V704.2H494V706.8H495V705.5ZM481.1 703.7V703.3H480.8V704.1H481.1V703.7ZM485.3 703.7V703.3H485V704.1H485.3V703.7ZM495 702.8V701.5H494V704.1H495V702.8ZM481.1 702.5V702.1H480.8V702.9H481.1V702.5ZM485.3 702.5V702.1H485V702.9H485.3V702.5ZM481.1 701.4V701H480.8V701.8H481.1V701.4ZM485.3 701.4V701H485V701.8H485.3V701.4ZM474.3 701.2L475.8 700.8V698.1L475.6 698L475.4 697.9V693.3H473V697H469.5L468 697.5L466.5 698V700.7L467.8 701.1L469.1 701.5H470.9H472.7L474.3 701.2ZM481.1 700.2V699.8H480.8V700.6H481.1V700.2ZM485.3 700.2V699.8H485V700.6H485.3V700.2ZM464.3 699.4V698.8H463.8V699.5H458.6V697.5H458.1V699.9H464.3V699.4ZM481.1 699.1V698.7H480.8V699.5H481.1V699.1ZM485.3 699.1V698.7H485V699.5H485.3V699.1ZM495.6 699C495.6 698.9 495.5 698.8 495.4 698.8C495.3 698.8 495.2 698.9 495.2 699C495.2 699.1 495.3 699.2 495.4 699.2C495.5 699.2 495.6 699.1 495.6 699ZM500.2 699C500.2 698.9 500.1 698.8 500 698.8C499.9 698.8 499.8 698.9 499.8 699C499.8 699.1 499.9 699.2 500 699.2C500.1 699.2 500.2 699.1 500.2 699ZM495.6 698.5C495.6 698.4 495.5 698.3 495.4 698.3C495.3 698.3 495.2 698.4 495.2 698.5C495.2 698.6 495.3 698.7 495.4 698.7C495.5 698.7 495.6 698.6 495.6 698.5ZM500.2 698.5C500.2 698.4 500.1 698.3 500 698.3C499.9 698.3 499.8 698.4 499.8 698.5C499.8 698.6 499.9 698.7 500 698.7C500.1 698.7 500.2 698.6 500.2 698.5ZM481.1 698V697.6H480.8V698.4H481.1V698ZM485.3 698V697.6H485V698.4H485.3V698ZM495.6 698C495.6 697.9 495.5 697.8 495.4 697.8C495.3 697.8 495.2 697.9 495.2 698C495.2 698.1 495.3 698.2 495.4 698.2C495.5 698.2 495.6 698.1 495.6 698ZM500.2 698C500.2 697.9 500.1 697.8 500 697.8C499.9 697.8 499.8 697.9 499.8 698C499.8 698.1 499.9 698.2 500 698.2C500.1 698.2 500.2 698.1 500.2 698ZM464.3 697.8V697.6H459.4V698.1H464.3V697.8ZM481.1 696.8V696.4H480.8V697.2H481.1V696.8ZM485.3 696.8V696.4H485V697.2H485.3V696.8ZM481.1 695.7V695.3H480.8V696.1H481.1V695.7ZM485.3 695.7V695.3H485V696.1H485.3V695.7ZM493 692.7V692.2H490.4V693.2H493V692.7ZM496.4 683.4C496.4 683.3 496.3 683.2 496.2 683.2C496.1 683.2 496 683.3 496 683.4C496 683.5 496.1 683.6 496.2 683.6C496.3 683.5 496.4 683.5 496.4 683.4ZM497.1 683.4C497.1 683.3 497 683.2 496.9 683.2C496.8 683.2 496.7 683.3 496.7 683.4C496.7 683.5 496.8 683.6 496.9 683.6C497 683.6 497.1 683.5 497.1 683.4ZM497.7 683.4C497.7 683.3 497.6 683.2 497.5 683.2C497.4 683.2 497.3 683.3 497.3 683.4C497.3 683.5 497.4 683.6 497.5 683.6C497.6 683.5 497.7 683.5 497.7 683.4ZM513.9 683.4V683.2H505.4V682.1H505.1V683.2H502.3V681.1H499.2V683.2H498V683.5H513.8V683.4H513.9ZM499.5 680.8C499.5 680.7 499.4 680.6 499.3 680.6C499.2 680.6 499.1 680.7 499.1 680.8C499.1 680.9 499.2 681 499.3 681C499.4 681 499.5 680.9 499.5 680.8ZM505.4 680V679.3H512.2V679H504.4V679.3H505.1V680.8H505.4V680ZM499.5 680.1C499.5 680 499.4 679.9 499.3 679.9C499.2 679.9 499.1 680 499.1 680.1C499.1 680.2 499.2 680.3 499.3 680.3C499.4 680.3 499.5 680.2 499.5 680.1Z" fill="#A0A0A0"/>
<path d="M482.1 733.1L481.4 732.8L481 732.2L480.6 731.6L480.5 730.9L480.4 730.2H486.8L486.7 730.9L486.6 731.6L486.2 732.2L485.8 732.8L485.1 733.1L484.4 733.4H482.8L482.1 733.1Z" fill="#A0A0A0"/>
<path d="M187.6 738.7C182.7 741.5 177.9 744.3 173 747.1C174.2 749.3 175.5 751.5 176.7 753.7C177.1 753.5 177.4 753.3 177.8 753.1C177.8 753.2 177.9 753.3 177.9 753.4C177.6 753.6 177.2 753.8 176.9 754C177.7 755.4 178.4 756.7 179.2 758.1C179.4 758.1 179.5 758.2 179.7 758.2C180.7 757.7 181.7 757.1 182.7 756.6L180.2 752.2C179.8 752.4 179.4 752.6 179.1 752.8C179 752.7 179 752.6 178.9 752.5C179.4 752.3 179.8 752 180.3 751.8C181.2 753.3 182 754.8 182.9 756.3C183.1 756.2 183.3 756.2 183.5 756.1C184.8 755.4 186 754.7 187.2 754C188.9 753 190.6 752.1 192.3 751.1C192.5 751 192.6 750.9 192.8 750.8C193.3 750.5 193.8 750.2 194.3 749.8C193.9 749.2 193.5 748.5 193.1 747.9C190.8 749.2 188.5 750.5 186.2 751.7C185.8 751.9 185.5 752.1 185.1 752.3C185 752.3 185 752.4 184.9 752.3C184.7 751.9 184.5 751.5 184.3 751.1L184.1 750.8C183.6 751.1 183.1 751.4 182.6 751.7C182.1 750.8 181.6 750 181.1 749.1C180.5 748.1 180 747.1 179.5 746.1C179.5 746 179.4 745.9 179.4 745.8C182.5 744 185.7 742.2 188.8 740.4C188.4 739.8 188.1 739.1 187.7 738.5C187.6 738.6 187.6 738.7 187.6 738.7Z" fill="#A0A0A0"/>
<path d="M501.5 764.5V763.4H504.4V765.5H501.5V764.5Z" fill="#A0A0A0"/>
<path d="M508.5 766.7V763.4H512.2V769.9H508.5V766.7Z" fill="#A0A0A0"/>
<path d="M504.7 766.7V763.4H505.8V763.1H504.7V759.4H504.4V760.4H501.5V757.6H504.4V758.3H504.7V757.6H505.7V757.3H502.3V755.7H502V757.3H497.9V752.9H502V754.5H502.3V752.9H507.4V757.3H506.9V757.6H508.4V757.3H507.7V752.9H512.3V757.3H509.5V757.6H512.3V763.1H507V763.4H508.1V769.9H504.7V766.7Z" fill="#A0A0A0"/>
<path d="M488.4 787.2V785.2H490.7V785.4C490.7 785.5 490.8 785.6 490.9 785.6H491.1V784.6H490.9C490.8 784.6 490.7 784.7 490.7 784.8V785H488.4V780.9H490.7V783.5H491V783H492.5V787.7H492.7C492.8 787.7 492.9 787.6 492.9 787.5V787.3H494.2V789.1H491V786.7H490.7V789.1H488.4V787.2Z" fill="#A0A0A0"/>
<path d="M379.7 751V756H380.1V756.6H379.8V759.5H371V759.9H370.5V751H365.5V761.7H370.5V761H371V761.7H381.8V756.6H381.4V756H384.6V751H379.7Z" fill="#A0A0A0"/>
</svg>
