<svg width="606" height="832" viewBox="0 0 606 832" fill="none" xmlns="http://www.w3.org/2000/svg">
<path d="M112.1 642V640.5H115.2V642.1H113.7V643.6H112.1V642Z" fill="#FFD700"/>
<path d="M171.9 665.1V663.6H173.5V665.1H175V666.7H171.9V665.1Z" fill="#FFD700"/>
<path d="M60.9 671.3V670.6H59.4V669H62.5V672.1H60.9V671.3Z" fill="#FFD700"/>
<path d="M122.8 696.3V695.6H121.3V694H124.4V697.1H122.8V696.3Z" fill="#FFD700"/>
<path d="M62.8 695.4V693.9H65.9001V695.5H64.4001V697H62.8V695.4Z" fill="#FFD700"/>
<path d="M297.5 278.6H292.5V282.2H297.5V278.6Z" fill="#FFD700"/>
<path d="M294.8 321.4H289.8V324.8H294.8V321.4Z" fill="#FFD700"/>
<path d="M335.4 327.9L336.1 324.5L341.1 325.5L340.4 328.9L335.4 327.9Z" fill="#FFD700"/>
<path d="M333.7 289.3L333 292.8L338 293.8L338.7 290.3L333.7 289.3Z" fill="#FFD700"/>
<path d="M328 326.5H322.3H316.5V323.9H313V326.5H310.6V323.9H307.2V326.5H299V324.8H294.8V321.4H299V282.2H297.5V278.6H328V288.1L333.7 289.3L333.1 292.8L328.1 291.8V322.7L336.1 324.5L335.5 328L328 326.5ZM304.2 320V319.2H302.6V320.8H304.2V320ZM324.1 320V319.2H322.5V320.8H324.1V320ZM319.1 312.4V304.7H307.9V320.2H319.1V312.4ZM304.2 314.3V313.5H302.6V315.1H304.2V314.3ZM324.1 314.3V313.5H322.5V315.1H324.1V314.3ZM304.2 308.6V307.8H302.6V309.4H304.2V308.6ZM324.1 308.6V307.8H322.5V309.4H324.1V308.6ZM304.2 302.9V302.1H302.6V303.7H304.2V302.9ZM324.1 302.9V302.1H322.5V303.7H324.1V302.9ZM319.1 291.5V283.8H307.9V299.3H319.1V291.5ZM304.2 297.2V296.4H302.6V298H304.2V297.2ZM324.1 297.2V296.4H322.5V298H324.1V297.2ZM304.2 291.5V290.7H302.6V292.3H304.2V291.5ZM324.1 291.5V290.7H322.5V292.3H324.1V291.5ZM304.2 285.8V285H302.6V286.6H304.2V285.8ZM324.1 285.8V285H322.5V286.6H324.1V285.8Z" fill="#8A9293"/>
<path d="M171.9 667V666.8H175V665.2H173.5V663.7H171.9V661.4H175.7V667.3H171.9V667Z" fill="#8A9293"/>
<path d="M110.6 709.1V705.4H111.9V705H110.6V699H110.3V708.9H103.1V699H102.8V705.4H63.1V702.3H71.1V693.2H63.6V693.5H66.9V697.6H61V693.5H62V693.2H48.5V670.2H53.7V677H63V670H62.7V674.1H58.8V668.1H63V659.5H67.9V658.2H68.9V657.9H67.6V659.2H63V652.5H71V657.9H70V658.2H71.3V652.5H110.1V646.8H115.6V641.4H115.3V645.1H111.7V639.2H115.3V640.2H115.6V639.2H121.3V652.4H165.3V657.9H169.5V657.6H165.6V652.4H171.5V657.6H170.7V657.9H171.5V664.7H171.8V666.2H171.5V687.4H126.3V692.8H125.5V693.1H126.3V696.8H124.3V693.9H121.2V695.5H122.7V696.8H120.4V693.1H124V692.8H118.1V702.7H121.5V705H113.3V705.3H121.5V712.8H110.4V709.1H110.6ZM64.4 696.3V695.6H65.9V694H62.8V697.1H64.4V696.3ZM127.5 669.8V663.9H116V675.6H127.6L127.5 669.8ZM165.5 669.7V664.2H159.8V675.1H165.5V669.7ZM62.5 670.5V669H59.4V670.6H60.9V672.1H62.5V670.5ZM113.7 642.8V642.1H115.2V640.5H112V643.6H113.6L113.7 642.8Z" fill="#8A9293"/>
</svg>
