<svg width="606" height="832" viewBox="0 0 606 832" fill="none" xmlns="http://www.w3.org/2000/svg">
<path d="M112.101 642V640.5H115.201V642.1H113.701V643.6H112.101V642Z" fill="#FFD700" stroke="black" stroke-width="0.1" stroke-miterlimit="10"/>
<path d="M171.9 665.1V663.6H173.5V665.1H175V666.7H171.9V665.1Z" fill="#FFD700" stroke="black" stroke-width="0.1" stroke-miterlimit="10"/>
<path d="M60.9004 671.3V670.6H59.4004V669H62.5004V672.1H60.9004V671.3Z" fill="#FFD700" stroke="black" stroke-width="0.1" stroke-miterlimit="10"/>
<path d="M122.801 696.3V695.6H121.301V694H124.401V697.1H122.801V696.3Z" fill="#FFD700" stroke="black" stroke-width="0.1" stroke-miterlimit="10"/>
<path d="M62.8008 695.399V693.899H65.9008V695.499H64.4008V696.999H62.8008V695.399Z" fill="#FFD700" stroke="black" stroke-width="0.1" stroke-miterlimit="10"/>
<path d="M297.5 278.6H292.5V282.2H297.5V278.6Z" fill="#FFD700" stroke="black" stroke-width="0.1" stroke-miterlimit="10"/>
<path d="M294.801 321.399H289.801V324.799H294.801V321.399Z" fill="#FFD700" stroke="black" stroke-width="0.1" stroke-miterlimit="10"/>
<path d="M335.4 327.9L336.1 324.5L341.1 325.5L340.4 328.9L335.4 327.9Z" fill="#FFD700" stroke="black" stroke-width="0.1" stroke-miterlimit="10"/>
<path d="M333.701 289.3L333 292.8L338 293.8L338.701 290.3L333.701 289.3Z" fill="#FFD700" stroke="black" stroke-width="0.1" stroke-miterlimit="10"/>
<path d="M328 326.5H322.3H316.5V323.9H313V326.5H310.6V323.9H307.2V326.5H299V324.8H294.8V321.4H299V282.2H297.5V278.6H328V288.1L333.7 289.3L333.1 292.8L328.1 291.8V322.7L336.1 324.5L335.5 328L328 326.5ZM304.2 320V319.2H302.6V320.8H304.2V320ZM324.1 320V319.2H322.5V320.8H324.1V320ZM319.1 312.4V304.7H307.9V320.2H319.1V312.4ZM304.2 314.3V313.5H302.6V315.1H304.2V314.3ZM324.1 314.3V313.5H322.5V315.1H324.1V314.3ZM304.2 308.6V307.8H302.6V309.4H304.2V308.6ZM324.1 308.6V307.8H322.5V309.4H324.1V308.6ZM304.2 302.9V302.1H302.6V303.7H304.2V302.9ZM324.1 302.9V302.1H322.5V303.7H324.1V302.9ZM319.1 291.5V283.8H307.9V299.3H319.1V291.5ZM304.2 297.2V296.4H302.6V298H304.2V297.2ZM324.1 297.2V296.4H322.5V298H324.1V297.2ZM304.2 291.5V290.7H302.6V292.3H304.2V291.5ZM324.1 291.5V290.7H322.5V292.3H324.1V291.5ZM304.2 285.8V285H302.6V286.6H304.2V285.8ZM324.1 285.8V285H322.5V286.6H324.1V285.8Z" fill="#8A9293" stroke="black" stroke-width="0.1" stroke-miterlimit="10"/>
<path d="M171.9 666.999V666.799H175V665.199H173.5V663.699H171.9V661.399H175.7V667.299H171.9V666.999Z" fill="#8A9293" stroke="black" stroke-width="0.1" stroke-miterlimit="10"/>
<path d="M110.6 709.099V705.399H111.9V704.999H110.6V698.999H110.3V708.899H103.1V698.999H102.8V705.399H63.1V702.299H71.1V693.199H63.6V693.499H66.9V697.599H61V693.499H62V693.199H48.5V670.199H53.7V676.999H63V669.999H62.7V674.099H58.8V668.099H63V659.499H67.9V658.199H68.9V657.899H67.6V659.199H63V652.499H71V657.899H70V658.199H71.3V652.499H110.1V646.799H115.6V641.399H115.3V645.099H111.7V639.199H115.3V640.199H115.6V639.199H121.3V652.399H165.3V657.899H169.5V657.599H165.6V652.399H171.5V657.599H170.7V657.899H171.5V664.699H171.8V666.199H171.5V687.399H126.3V692.799H125.5V693.099H126.3V696.799H124.3V693.899H121.2V695.499H122.7V696.799H120.4V693.099H124V692.799H118.1V702.699H121.5V704.999H113.3V705.299H121.5V712.799H110.4V709.099H110.6ZM64.4 696.299V695.599H65.9V693.999H62.8V697.099H64.4V696.299ZM127.5 669.799V663.899H116V675.599H127.6L127.5 669.799ZM165.5 669.699V664.199H159.8V675.099H165.5V669.699ZM62.5 670.499V668.999H59.4V670.599H60.9V672.099H62.5V670.499ZM113.7 642.799V642.099H115.2V640.499H112V643.599H113.6L113.7 642.799Z" fill="#8A9293" stroke="black" stroke-width="0.1" stroke-miterlimit="10"/>
</svg>
