<svg width="606" height="832" viewBox="0 0 606 832" fill="none" xmlns="http://www.w3.org/2000/svg">
<path d="M381.8 146.201V145.101H384.7V147.401H381.8V146.201Z" fill="#70777F" stroke="black" stroke-width="0.1" stroke-miterlimit="10"/>
<path d="M379.8 146.8H378.5V146H377.8V145.7H378.5V142.9H372.3V145.7H376.9V146H376.3L376.2 146.2L376.1 146.4L376 146.2L375.9 146H372.3V149.4H375.9V147.3H376.2V148.4H377.2V148.7H376.2V149.7H372.3V151.8L372.4 153.9H378.9V148.7H378.2V148.4H379.8V148.7H379.1V153.9H381.4V152.3H381.7V153.9H384.6V150.5H381.7V151.3H381.4V148.7H380.7V148.4H381.4V146.8H381.05H380.7V146.5H381.05H381.4V143.9H379.1V146.5H379.45H379.8V146.8Z" fill="#70777F" stroke="black" stroke-width="0.1" stroke-miterlimit="10"/>
<path d="M279.5 177.5V174.7H277.7V173.9H272.5V180.1H269.6V173.9H268.1V159.6H267.8V161.1H266.2V161.4H267.8V164H263.6V161.4H264.9V161H263.3V170.8H251.4V160.4H259.1V160.1H251.4V152.6H261.2V160.1H260.4V160.4H261.5V157H265.6V156.7H264.8V154.6H267.9V156.7H266.9V157H267.9V158.3H268.2V140.2H270.8V171.8H284V180.3H279.6L279.5 177.5ZM283 177.2V175.9H281.5V176.4H280.4V178.5H283V177.2Z" fill="#70777F" stroke="black" stroke-width="0.1" stroke-miterlimit="10"/>
<path d="M251.301 177.501V174.701H258.501V174.401H257.801V173.401H257.501V174.401H251.301V171.101H257.501V172.101H257.801V171.101H260.401V174.401H259.701V174.701H260.401V178.501H260.701V174.701H264.301V180.201H260.701V179.701H260.401V180.201H251.301V177.501Z" fill="#70777F" stroke="black" stroke-width="0.1" stroke-miterlimit="10"/>
<path d="M442.301 282.7L438.301 282L438.101 283.7L436.501 283.4L436.101 285.2L434.701 284.9L434.501 286.3L441.001 287.3L441.601 284.5H441.801L441.101 287.6L434.401 286.6L433.601 290.8L492.801 301.3L493.401 297.2L487.001 295.9L487.401 293H487.601L487.201 295.8L492.901 296.9L493.201 295.1L491.701 294.9L492.101 293.3L490.701 293.1L490.901 291.5L487.701 291L488.201 288.4H488.401C488.201 289.2 488.101 290 488.001 290.8L493.801 291.8L494.601 287.2L488.401 286.2L490.501 272.1L445.001 264C444.901 264.5 444.801 265 444.701 265.5C444.601 265.5 444.501 265.5 444.501 265.5L444.801 264.1L438.201 262.9L437.401 267.4L444.001 268.5L444.201 267.4H444.501C444.001 270.1 443.601 272.7 443.101 275.4H442.801L443.901 268.9L437.601 267.9L435.901 276.5L442.801 277.7L442.401 280.2C442.301 280.2 442.201 280.2 442.201 280.2C442.301 279.5 442.401 278.8 442.501 278C440.301 277.6 438.001 277.3 435.801 276.9C435.601 278.3 435.301 279.7 435.101 281.2L442.101 282.5L442.301 282.7ZM458.801 270.5C458.801 271 458.701 271.4 458.601 271.9C458.501 272.9 458.301 273.9 458.101 274.8C458.101 274.9 458.001 274.8 457.901 274.8C457.801 274.8 457.801 274.7 457.801 274.7C458.001 273.4 458.201 272.2 458.401 270.9C458.401 270.8 458.401 270.7 458.401 270.5H458.801ZM458.301 289.4L461.301 271.2L472.701 273.2L469.601 291.3L458.301 289.4ZM475.501 273.4C475.601 273.4 475.701 273.4 475.601 273.5C475.401 274.8 475.201 276 474.901 277.3C474.901 277.4 474.901 277.5 474.901 277.5C474.801 277.5 474.701 277.5 474.701 277.5C474.901 276.1 475.101 274.8 475.401 273.4C475.501 273.4 475.501 273.4 475.501 273.4ZM457.701 276.9C457.801 276.9 457.901 276.9 457.801 277C457.401 279.3 457.001 281.6 456.601 284C456.501 284 456.401 284.1 456.401 284C456.501 283.1 456.701 282.3 456.801 281.4C457.001 279.9 457.301 278.4 457.501 276.9C457.601 276.9 457.701 276.9 457.701 276.9ZM474.501 279.5C474.501 279.5 474.601 279.5 474.601 279.6C474.601 280 474.501 280.3 474.501 280.7C474.201 282.7 473.801 284.8 473.501 286.8C473.401 286.8 473.401 286.8 473.301 286.8C473.301 286.4 473.401 286.1 473.501 285.7C473.701 283.5 474.101 281.5 474.501 279.5C474.401 279.5 474.401 279.4 474.501 279.5ZM456.101 286C456.201 286 456.301 286 456.201 286.1C456.001 287.3 455.801 288.6 455.601 289.8C455.501 289.8 455.501 289.8 455.401 289.8C455.601 288.5 455.801 287.3 456.001 286H456.101ZM472.801 290.6C472.701 291.2 472.601 291.9 472.501 292.5H472.301C472.501 291.3 472.701 290 472.901 288.8H473.201C473.001 289.4 472.901 290 472.801 290.6Z" fill="#70777F"/>
<path d="M474.501 279.5C474.501 279.5 474.601 279.5 474.601 279.6C474.601 280 474.501 280.3 474.501 280.7C474.201 282.7 473.801 284.8 473.501 286.8C473.401 286.8 473.401 286.8 473.301 286.8C473.301 286.4 473.401 286.1 473.501 285.7C473.701 283.5 474.101 281.5 474.501 279.5ZM474.501 279.5C474.401 279.4 474.401 279.5 474.501 279.5ZM442.301 282.7L438.301 282L438.101 283.7L436.501 283.4L436.101 285.2L434.701 284.9L434.501 286.3L441.001 287.3L441.601 284.5H441.801L441.101 287.6L434.401 286.6L433.601 290.8L492.801 301.3L493.401 297.2L487.001 295.9L487.401 293H487.601L487.201 295.8L492.901 296.9L493.201 295.1L491.701 294.9L492.101 293.3L490.701 293.1L490.901 291.5L487.701 291L488.201 288.4H488.401C488.201 289.2 488.101 290 488.001 290.8L493.801 291.8L494.601 287.2L488.401 286.2L490.501 272.1L445.001 264C444.901 264.5 444.801 265 444.701 265.5C444.601 265.5 444.501 265.5 444.501 265.5L444.801 264.1L438.201 262.9L437.401 267.4L444.001 268.5L444.201 267.4H444.501C444.001 270.1 443.601 272.7 443.101 275.4H442.801L443.901 268.9L437.601 267.9L435.901 276.5L442.801 277.7L442.401 280.2C442.301 280.2 442.201 280.2 442.201 280.2C442.301 279.5 442.401 278.8 442.501 278C440.301 277.6 438.001 277.3 435.801 276.9C435.601 278.3 435.301 279.7 435.101 281.2L442.101 282.5L442.301 282.7ZM458.801 270.5C458.801 271 458.701 271.4 458.601 271.9C458.501 272.9 458.301 273.9 458.101 274.8C458.101 274.9 458.001 274.8 457.901 274.8C457.801 274.8 457.801 274.7 457.801 274.7C458.001 273.4 458.201 272.2 458.401 270.9C458.401 270.8 458.401 270.7 458.401 270.5H458.801ZM458.301 289.4L461.301 271.2L472.701 273.2L469.601 291.3L458.301 289.4ZM475.501 273.4C475.601 273.4 475.701 273.4 475.601 273.5C475.401 274.8 475.201 276 474.901 277.3C474.901 277.4 474.901 277.5 474.901 277.5C474.801 277.5 474.701 277.5 474.701 277.5C474.901 276.1 475.101 274.8 475.401 273.4C475.501 273.4 475.501 273.4 475.501 273.4ZM457.701 276.9C457.801 276.9 457.901 276.9 457.801 277C457.401 279.3 457.001 281.6 456.601 284C456.501 284 456.401 284.1 456.401 284C456.501 283.1 456.701 282.3 456.801 281.4C457.001 279.9 457.301 278.4 457.501 276.9C457.601 276.9 457.701 276.9 457.701 276.9ZM456.101 286C456.201 286 456.301 286 456.201 286.1C456.001 287.3 455.801 288.6 455.601 289.8C455.501 289.8 455.501 289.8 455.401 289.8C455.601 288.5 455.801 287.3 456.001 286H456.101ZM472.801 290.6C472.701 291.2 472.601 291.9 472.501 292.5H472.301C472.501 291.3 472.701 290 472.901 288.8H473.201C473.001 289.4 472.901 290 472.801 290.6Z" stroke="black" stroke-width="0.1" stroke-miterlimit="10"/>
<path d="M272.4 361.501V360.101H277.3V362.901H272.4V361.501Z" fill="#70777F" stroke="black" stroke-width="0.1" stroke-miterlimit="10"/>
<path d="M275.7 363.7V363H277.3V364.3H275.7V363.7Z" fill="#70777F" stroke="black" stroke-width="0.1" stroke-miterlimit="10"/>
<path d="M220 427.8L220.6 426.4L222.1 427L223.6 427.6L223 429L222.4 430.4L220.9 429.8L219.4 429.2L220 427.8Z" fill="#70777F" stroke="black" stroke-width="0.1" stroke-miterlimit="10"/>
<path d="M210 427.3L210.3 426.5L210.9 426.7L211.5 426.9L211.2 427.7L210.9 428.5L210.3 428.3L209.7 428.1L210 427.3Z" fill="#70777F" stroke="black" stroke-width="0.1" stroke-miterlimit="10"/>
<path d="M220.301 432L220.501 431.4L221.201 431.7L221.901 432L221.701 432.6L221.501 433.2L220.801 432.9L220.101 432.6L220.301 432Z" fill="#70777F" stroke="black" stroke-width="0.1" stroke-miterlimit="10"/>
<path d="M211.1 428.6L211.8 426.9L213 427.4L214.2 427.9L213.5 429.6L212.8 431.3L211.6 430.8L210.4 430.3L211.1 428.6Z" fill="#70777F" stroke="black" stroke-width="0.1" stroke-miterlimit="10"/>
<path d="M206.7 426.9L207.4 425.2L208.2 425.5L209 425.8L208.3 427.5L207.6 429.2L206.8 428.9L206 428.6L206.7 426.9Z" fill="#70777F" stroke="black" stroke-width="0.1" stroke-miterlimit="10"/>
<path d="M218 432.8L218.3 432L219.8 432.6L221.3 433.2L221 434L220.7 434.8L219.2 434.2L217.7 433.6L218 432.8Z" fill="#70777F" stroke="black" stroke-width="0.1" stroke-miterlimit="10"/>
<path d="M291.601 389.2V384H285.601V386.8H283.601V386.5H285.201V384.1H281.501V386.5H282.301V386.8H281.501V390.9H281.201V366H278.401V366.5H278.101V366H270.101V368.6H278.101V368.1H278.401V389.3H278.101V385.7H276.001V389.1H275.701V383.2H270.201V391.5H275.701V390.4H276.001V391.9H270.101V397.3H274.501V394.4H276.401V394.7H274.701V397.3H276.401V397.6H276.201V399.7H276.401V400H276.201V403.7H276.001V397.7H270.101V405.3H276.001V404.7H276.201V405.6H270.101V407.8V410.6H273.901V407.8H276.201H278.101V403.4H278.401V426.5H278.101V425.8H270.101V428.4H278.101V427.7H278.401V429.2V430.7H281.201V392.4H281.501V397.9H283.801V395.9H284.101V401.3H291.601V393.8H284.101V394.6H283.801V392.5H284.101V393.5H291.601V389.7H284.101V391.2H283.801V389.4H291.601V389.2ZM278.401 402.1H278.101V399.9H277.601V399.6H278.101V397.5H277.601V397.2H278.101V394.6H277.601V394.3H278.101V390.5H278.401V402.1ZM280.901 398.9V401.4H278.801V396.5H280.901V398.9Z" fill="#70777F" stroke="black" stroke-width="0.1" stroke-miterlimit="10"/>
<path d="M275.7 430.5V429.8H277.3V431.1H275.7V430.5Z" fill="#70777F" stroke="black" stroke-width="0.1" stroke-miterlimit="10"/>
<path d="M272.4 432.7V431.3H277.3V434.1H272.4V432.7Z" fill="#70777F" stroke="black" stroke-width="0.1" stroke-miterlimit="10"/>
<path d="M195.6 443.5L196.2 441.9L201.5 444L206.8 446.1L206.2 447.7L205.6 449.3L200.3 447.2L195 445.1L195.6 443.5Z" fill="#70777F" stroke="black" stroke-width="0.1" stroke-miterlimit="10"/>
<path d="M193.901 443.8L194.201 443L194.801 443.2L195.401 443.4L195.101 444.2L194.801 445L194.201 444.8L193.601 444.6L193.901 443.8Z" fill="#70777F" stroke="black" stroke-width="0.1" stroke-miterlimit="10"/>
<path d="M191.401 441.8L192.001 440.2L192.701 440.5L193.401 440.8L192.801 442.4L192.201 444L191.501 443.7L190.801 443.4L191.401 441.8Z" fill="#70777F" stroke="black" stroke-width="0.1" stroke-miterlimit="10"/>
<path d="M184.5 516.7V515H188.4V518.4H184.5V516.7Z" fill="#70777F" stroke="black" stroke-width="0.1" stroke-miterlimit="10"/>
<path d="M254.801 519.4V517.7H259.901V521.1H254.801V519.4Z" fill="#70777F" stroke="black" stroke-width="0.1" stroke-miterlimit="10"/>
<path d="M276.601 524.7V522.7H278.101V524.2H281.701V526.6H276.601V524.7Z" fill="#70777F" stroke="black" stroke-width="0.1" stroke-miterlimit="10"/>
<path d="M271.101 531.6V527H272.701V526.7H269.301V525.1H272.601V524.4H272.401C272.301 524.4 272.201 524.5 272.201 524.6V524.8H269.301V517.8H272.201V523.3H272.501V522L272.701 521.9L272.901 521.8L272.701 521.7L272.501 521.6V517.7H274.001V517.4H273.001V516.1H279.501V503.2H281.601V517.4H280.801V517.7H281.601V521.1H276.501V517.7H277.301V517.4H275.001V517.7H276.301V521.6H273.701V521.8C273.701 521.9 273.801 522 273.901 522H274.101V522.7H274.401V522H276.401V524.9H274.401V523.4H274.001V525.5H274.201C274.301 525.5 274.401 525.4 274.401 525.3V525.1H276.401V526.6H274.501L274.401 526.4L274.301 526.2L274.001 526.5C273.901 526.7 273.701 526.8 273.701 526.9V527H276.301V536.1H271.101V531.6Z" fill="#70777F" stroke="black" stroke-width="0.1" stroke-miterlimit="10"/>
<path d="M262.1 532.6V529.1H265.4V528.8H262V528.3H261.7V528.8H248.5V527H255.7V526.7H254.9V522.8H256.4V524.3H260V526.7H259V527H261.6V527.5H261.9V527H263.4V526.7H260.1V517.7H264.7V526.7H264.5C264.4 526.7 264.3 526.8 264.3 526.9V527.1H268.6V528.1C268.6 528.7 268.6 529.4 268.6 529.7V530.3H270.7V536.2H267V529.2H267.2C267.3 529.2 267.4 529.1 267.4 529V528.8H266.4V529C266.4 529.1 266.5 529.2 266.6 529.2H266.8V536.2H262.2V532.6H262.1Z" fill="#70777F" stroke="black" stroke-width="0.1" stroke-miterlimit="10"/>
<path d="M184.701 531.4V526.7H186.301V526.4H180.301V523.8H185.401V520H186.901V521.5H188.501V523.8H191.301V523.5H188.901V515H194.101V523.5H192.501V523.8H196.301V523.5H194.501V515H199.201V523.5H197.601V523.8H198.401V526.4H197.601V526.7H199.201V536H194.801V526.7H196.301V526.4H192.701V526.7H194.501V536H189.401V526.7H191.201V526.4H187.801V526.7H189.101V536.2H184.901V531.4H184.701ZM198.001 519.8V518.3H196.801H195.601V519.8V521.3H196.801H198.001V519.8Z" fill="#70777F" stroke="black" stroke-width="0.1" stroke-miterlimit="10"/>
<path d="M461.5 569.4V568.7H464.3V570H461.5V569.4Z" fill="#70777F" stroke="black" stroke-width="0.1" stroke-miterlimit="10"/>
<path d="M407.5 569.5V567.5H410.3V571.6H407.5V569.5Z" fill="#70777F" stroke="black" stroke-width="0.1" stroke-miterlimit="10"/>
<path d="M417.2 572.301V571.601H418.5V572.901H417.2V572.301Z" fill="#70777F" stroke="black" stroke-width="0.1" stroke-miterlimit="10"/>
<path d="M409 572.301V571.601H410.3V572.901H409V572.301Z" fill="#70777F" stroke="black" stroke-width="0.1" stroke-miterlimit="10"/>
<path d="M426.5 592.501V591.101H428V593.901H426.5V592.501Z" fill="#70777F" stroke="black" stroke-width="0.1" stroke-miterlimit="10"/>
<path d="M466.6 596.8L466.2 596.6L466.3 596.4L466.4 596.2L466.1 595.9L465.8 595.6L465.7 595.9L465.6 596.2L464.1 595.3C463.3 594.8 462.5 594.4 462.4 594.3L462.2 594.2L462.7 593.1L463.2 592L463.4 592.1L463.6 592.2L463.8 591.8L464 591.4L463.8 591.3L463.6 591.2L464 590.4C464.2 590 464.5 589.3 464.7 589L465 588.4L464.8 588.3C464.4 588.1 464.4 588.1 464.1 588.6L463.8 589.1H453.5V589.4H461.3V594H447.4V589.4H452.5V589H433.4V593.9H429.6V592.6H431.1V590.8H426.5V585.7H426.2V587.2H420.3V585.7H420V588.6H417.6V587.6H417.3V588.6H407.7V584.2H408.4V583.9H407.7V574.6H410.5V575.9H410V583.9H409.5V584.2H417.3V586.6H417.6V575.8H417.3V574.5H420.1V579.2H420.4V569.1H420.1V571.4H417.3V566H420.1V568H420.4V566H421.9V581.6H420.4V580.3H420.1V584.4H420.4V583.1H426.3V584.4H426.6V581.5H437V586.4H452.5V586.1H447.6V581.5H458V586.1H453.4V586.4H460.4V586.1H458.3V581.5H460.3V581.2H459.2V575.5H460.3V575.2H457.5V571.4H457.2V575.2H452.1V563.8H457.2V570.2H457.5V563.8H464.3V565.6H462.8V567.1H461.2V570.4H464.3V575.3H461.5V575.6H462.6V581.3H461.5V581.6H467.2L466.8 582.4L466.4 583.2L466.5 583.4L466.6 583.6H467.1L467.6 582.7L468.1 581.8L475 585.8C478.8 588 482 589.9 482.1 590L482.3 590.2L481.8 591.1C481.2 592.2 481.5 592.2 478.6 590.6C474.2 588.1 469.8 585.6 469.2 585.3L468.7 585L468.4 585.3C468.2 585.5 467.4 587 466.5 588.6L464.9 591.6H464.7H464.5L464.3 591.9L464.1 592.2L464.5 592.5C464.7 592.7 465 592.8 465.1 592.8C465.2 592.8 465.7 593 466.2 593.3L467.1 593.8L466.8 594.3L466.5 594.8L466.7 595.1C467 595.5 467.1 595.4 467.4 594.9C467.7 594.4 467.8 594.3 468.2 594.6L468.5 594.8L467.9 595.8C467.6 596.3 467.3 596.8 467.3 596.9C467.2 597 467.1 597 466.6 596.8ZM465.8 586.5L466.2 585.7L466 585.4C465.9 585.3 465.8 585.1 465.7 585.1L465.5 585L465.3 585.6L465.1 586.2H461.4V586.5H464.8L464.7 586.7L464.6 586.9L464.9 587.1C465.3 587.4 465.3 587.4 465.8 586.5Z" fill="#70777F" stroke="black" stroke-width="0.1" stroke-miterlimit="10"/>
<path d="M471.7 599.801L469.8 598.701L470.1 598.201L470.4 597.701L469.9 597.301L469.4 596.901L469.5 596.601C469.6 596.401 469.7 596.201 469.8 596.201L470 596.101L470.8 596.401L471.6 596.701L471.4 597.001L471.2 597.301L471.4 597.101L471.6 596.901L473.3 597.801C475.3 598.901 475.1 598.601 474.3 600.001L473.6 601.101L471.7 599.801Z" fill="#70777F" stroke="black" stroke-width="0.1" stroke-miterlimit="10"/>
<path d="M124.4 695.5V694H125.4V697.1H124.4V695.5Z" fill="#70777F" stroke="black" stroke-width="0.1" stroke-miterlimit="10"/>
<path d="M61.8008 695.5V694H62.8008V697.1H61.8008V695.5Z" fill="#70777F" stroke="black" stroke-width="0.1" stroke-miterlimit="10"/>
<path d="M82.2004 710.8V707.3H86.6004V706.2H86.3004V707H82.2004V704.2H86.3004V705.2H86.6004V703.2H86.3004V703.9H58.4004V701.8H65.2004V701.5H63.4004V698.9H68.1004V701.5H66.5004V701.8H71.2004V695.8H71.7004V695.5H71.2004V695H70.9004V696.1H68.3004V697.1H64.4004V695.6H65.9004V693.8H61.8004V693.3H70.9004V693.8H71.2004V693.3H73.2004V695.4H72.7004V695.7H73.2004V701.7H86.2004V702.4H86.5004V698.8H87.2004V698.5H86.5004V693.3H94.0004V698.5H88.1004V698.8H88.8004V699.6H89.1004V698.8H94.0004V701.4H89.1004V700.6H88.8004V701.7H98.6004V701.4H97.3004V700.6H97.0004V701.4H94.4004V698.8H97.0004V699.6H97.3004V698.8H99.0004V698.5H94.4004V693.3H101.2V698.5H99.9004V698.8H104.8V698.5H101.5V693.3H106.9V698.5H106.2V698.8H108V698.5H107.2V693.3H113.6V698.5H108.9V698.8H109.6V699.8H109.9V698.8H113.6V701.4H109.9V700.6H109.6V701.4H108V701.7H114V695.7H114.5V695.4H114V693.3H116V693.8H116.3V693.3H125.4V693.8H121.3V695.6H122.8V697.1H118.9V696.1H116.3V694.8H116V695.5H115.5V695.8H116V701.8H120.7V701.5H119V698.9H123.7V701.5H121.9V701.8H128.7V703.9H104.4V701.8H106.8V701.5H99.8004V701.8H101.1V702.5H101.4V701.8H104V703.9H101.4V703.2H101.1V703.9H97.0004V704.2H99.1004V705H99.4004V704.2H104.9V714.3H99.4004V706H99.1004V714.3H93.6004V704.2H95.6004V703.9H89.4004V714.3H82.1004L82.2004 710.8Z" fill="#70777F" stroke="black" stroke-width="0.1" stroke-miterlimit="10"/>
<path d="M495.1 678.9V683H495.9V683.3H490.8V699H490.4V691.2H488V693.3H485.4V705.9H488V708H490.4V700.2H490.8V715.5H495.9V715.8H495.1V720H499.7V718.2H498.9V715.8H497.9V715.5H500.7V710.9L499.7 706.9V692L500.7 688V683.2H497.9V682.9H498.9V680.6H499.7V678.8L495.1 678.9ZM486.3 693.8H487.3V696.4H486.3V693.8ZM486.3 697.7H487.3V700.3H486.3V697.7ZM486.3 702.9H487.3V705.5H486.3V702.9Z" fill="#70777F" stroke="black" stroke-width="0.1" stroke-miterlimit="10"/>
<path d="M402.1 446.601L404 446.901L407.1 429.001L408.5 429.301L410.9 415.701L420.9 417.501L421 416.501L425 417.201L426.7 407.701L422.9 406.901L423.7 401.701L419.7 401.101L420.7 394.401L410.9 392.801L411.5 389.701L414.7 390.201L418 371.701L419.5 371.901L421.1 363.101L419.4 362.701L417.8 371.401L411.2 370.301L412.7 361.601L416.4 362.401L418.4 357.801L426.7 359.101L427.1 356.201L423 355.301L424.3 347.601L447.8 351.801L445.1 367.401L448.9 367.901L449.4 364.901L454.4 365.901L452.9 374.601L442.3 372.801L443.2 367.001L432.2 365.101L433 360.501L438.4 361.401L439.9 354.001L436.8 353.401L436.5 355.901L433.1 355.401L431.2 364.701L426.1 363.801L424.6 372.301L428.2 373.001L425.3 389.001L439.4 391.501L437.5 401.801L445.8 403.201L446.1 428.601L439.6 434.601L422.4 431.701L422.9 428.401L421.6 428.101L421.2 430.101L419.6 429.701L419.9 427.701L414.3 426.601L413.7 430.001L416.7 430.401L412.4 453.801L408.7 453.201L406.8 463.101L375.9 457.501L375.2 461.601C375.2 461.601 363.7 459.701 363.8 459.501C363.8 459.301 365.4 449.001 365.4 449.001L371.8 450.101L372.2 447.201L377.4 448.301L376.3 455.101L399.8 459.201L402.1 446.601Z" fill="#70777F"/>
<path d="M428.2 354.8L427.4 354.7L426.7 359.1L418.4 357.8L416.4 362.4L417.6 362.6L417.4 363.7" stroke="black" stroke-width="0.1" stroke-miterlimit="10"/>
<path d="M416.4 362.401L412.7 361.601L411.2 370.301L417.7 371.401L419.3 362.801L422.3 363.301" stroke="black" stroke-width="0.1" stroke-miterlimit="10"/>
<path d="M417.2 365.101L416.9 366.401L412 365.501" stroke="black" stroke-width="0.1" stroke-miterlimit="10"/>
<path d="M421.1 363.101L419.7 371.901" stroke="black" stroke-width="0.1" stroke-miterlimit="10"/>
<path d="M420.7 372.1L418 371.7L414.7 390.2L411.4 389.7L410.9 392.8L420.7 394.4L419.7 401.1L423.7 401.7" stroke="black" stroke-width="0.1" stroke-miterlimit="10"/>
<path d="M429 400.401L424.1 399.601L422.9 406.801L426.7 407.601L424.3 421.601" stroke="black" stroke-width="0.1" stroke-miterlimit="10"/>
<path d="M421.6 395.301L424.5 395.801" stroke="black" stroke-width="0.1" stroke-miterlimit="10"/>
<path d="M426.2 396.001L428.8 396.501" stroke="black" stroke-width="0.1" stroke-miterlimit="10"/>
<path d="M418 387.901L415.1 387.501" stroke="black" stroke-width="0.1" stroke-miterlimit="10"/>
<path d="M421.1 388.501L439.3 391.701L437.5 402.001" stroke="black" stroke-width="0.1" stroke-miterlimit="10"/>
<path d="M429.9 400.7H430.2" stroke="black" stroke-width="0.1" stroke-miterlimit="10"/>
<path d="M430.9 400.801H431.4" stroke="black" stroke-width="0.1" stroke-miterlimit="10"/>
<path d="M425 417.1L421.1 416.4L420.9 417.4L410.9 415.7L408.6 429.3L407.1 429L404 446.9" stroke="black" stroke-width="0.1" stroke-miterlimit="10"/>
<path d="M407.3 447.4L402.1 446.6L399.7 459.5L376.2 455.5L377.3 448.7L372.2 447.6L371.7 450.5L365.4 449.4L363.7 459.9L375.2 462L375.9 457.9L406.8 463.5L408.7 453.4L412.4 454.1L416.6 430.7L413.7 430.3L414.8 423.9" stroke="black" stroke-width="0.1" stroke-miterlimit="10"/>
<path d="M409.6 447.801L413.4 448.601" stroke="black" stroke-width="0.1" stroke-miterlimit="10"/>
<path d="M414.3 426.801L419.9 427.901L419.7 429.901L421.2 430.301L421.6 428.301L422.9 428.601" stroke="black" stroke-width="0.1" stroke-miterlimit="10"/>
<path d="M423.7 423.901L422.4 431.901L439.6 434.801L446.1 428.801L445.8 403.401L432.3 401.101" stroke="black" stroke-width="0.1" stroke-miterlimit="10"/>
<path d="M438.1 430.301L438.5 427.601L446.1 428.801" stroke="black" stroke-width="0.1" stroke-miterlimit="10"/>
<path d="M437.7 432.301L437.4 434.401" stroke="black" stroke-width="0.1" stroke-miterlimit="10"/>
<path d="M425.9 419.4L427.5 419.6L428.7 412.2" stroke="black" stroke-width="0.1" stroke-miterlimit="10"/>
<path d="M426.7 407.6C426.7 407.6 431.5 406.2 434.8 408.2C438 410.1 440 414.3 440 415.7C440 417.1 440.5 421 438.1 423.3L436.5 425.1L435.9 429.2L434.5 429" stroke="black" stroke-width="0.1" stroke-miterlimit="10"/>
<path d="M425.2 389.201L427.8 373.401L422.8 372.501" stroke="black" stroke-width="0.1" stroke-miterlimit="10"/>
<path d="M424.7 363.801L431.2 364.901L433.1 355.601L436.5 356.001L436.8 353.501L440 354.001L438.5 361.501L433.1 360.501L432.4 365.101L443.4 366.901L442.4 372.801L453 374.601L454.5 365.901L449.4 365.001L448.9 367.901L445 367.401L447.8 351.801L424.3 347.601L423 355.301L427.2 356.201" stroke="black" stroke-width="0.1" stroke-miterlimit="10"/>
<path d="M424.5 372.801L426.1 364.001" stroke="black" stroke-width="0.1" stroke-miterlimit="10"/>
<path d="M429.3 355.101L430 355.201L431.2 348.801" stroke="black" stroke-width="0.1" stroke-miterlimit="10"/>
<path d="M372.6 237.901L374.3 228.001L372.8 227.801V227.601L373.3 227.701L374.1 223.301L369.2 222.301L369.1 222.801L367.9 222.601L367.7 223.601L369 223.901L368.4 226.801L371.2 227.401V227.601L364.2 226.301L364 226.901L363.8 226.801L364 226.101L362.4 225.801L362.5 225.601L363.9 225.801L364.6 221.601L359.8 220.801L359.2 225.201L360.7 225.401L360.6 225.601L359.1 225.401L359 226.201L358.7 226.101L359.5 220.601L344.5 218.101L341.7 233.001L342.8 233.301L342.7 233.601L341.6 233.401L339.8 242.801L349.9 244.801L351.2 238.001H351.5L351.4 238.901L356.2 239.801L356.7 236.401H356.9L356.3 240.101L351.2 239.201L350.2 244.701L351.7 245.001L352 243.401L353.7 243.701L354.2 241.601L356.2 241.901L355.5 245.401L360 246.201L360.7 242.301L361 242.401L360.3 246.101L370.6 247.701L372.6 237.801L368.9 237.201L369 236.901L372.6 237.901ZM351.7 236.501L351.5 236.401L351.6 235.601L344.3 234.101V233.801L351.7 235.201L351.8 234.401L352.1 234.501L351.7 236.501ZM366.1 237.301L362.1 236.701L361.6 240.101L361.3 240.001L361.8 236.301L366.2 237.001L366.1 237.301ZM358.4 230.701L357.8 234.001H357.5L358 230.601L353 229.901L352.5 232.301L352.2 232.201L353.7 223.501H353.9L352.9 229.501L357.9 230.301L358.2 227.801L358.5 227.901L358.2 230.301L362.8 231.001L363.2 228.801L363.5 228.901L363.4 229.601L369.1 230.601L369.4 229.001L371.1 229.301L370.6 232.501L358.4 230.701Z" fill="#70777F" stroke="black" stroke-width="0.1" stroke-miterlimit="10"/>
<path d="M93.1006 353.4V383H105.601V353.4H93.1006ZM100.801 365.9H97.2006V362H100.801V365.9Z" fill="#70777F" stroke="black" stroke-width="0.1" stroke-miterlimit="10"/>
<path d="M94.5006 359.101H93.1006" stroke="black" stroke-width="0.1" stroke-miterlimit="10"/>
<path d="M96.1006 359.101H105.601" stroke="black" stroke-width="0.1" stroke-miterlimit="10"/>
<path d="M99.6006 358.5V359.1" stroke="black" stroke-width="0.1" stroke-miterlimit="10"/>
<path d="M99.6006 356.7V353.4" stroke="black" stroke-width="0.1" stroke-miterlimit="10"/>
<path d="M101.801 361.3V362H100.801" stroke="black" stroke-width="0.1" stroke-miterlimit="10"/>
<path d="M101.801 359.101V359.601" stroke="black" stroke-width="0.1" stroke-miterlimit="10"/>
<path d="M94.9006 365.9H93.1006" stroke="black" stroke-width="0.1" stroke-miterlimit="10"/>
<path d="M96.3008 365.9H105.601" stroke="black" stroke-width="0.1" stroke-miterlimit="10"/>
<path d="M103.9 367.8V365.9" stroke="black" stroke-width="0.1" stroke-miterlimit="10"/>
<path d="M103.9 369.101V370.401" stroke="black" stroke-width="0.1" stroke-miterlimit="10"/>
<path d="M105.601 370.4H95.6006" stroke="black" stroke-width="0.1" stroke-miterlimit="10"/>
<path d="M99.9004 375.1V370.4" stroke="black" stroke-width="0.1" stroke-miterlimit="10"/>
<path d="M97.3008 375.101H100.401" stroke="black" stroke-width="0.1" stroke-miterlimit="10"/>
<path d="M97.1006 370.4V370.9" stroke="black" stroke-width="0.1" stroke-miterlimit="10"/>
<path d="M97.1006 372.2V373H99.9006" stroke="black" stroke-width="0.1" stroke-miterlimit="10"/>
<path d="M93.9006 370.4H93.1006" stroke="black" stroke-width="0.1" stroke-miterlimit="10"/>
<path d="M94.2002 370.4H94.5002" stroke="black" stroke-width="0.1" stroke-miterlimit="10"/>
<path d="M94.9004 370.4H95.2004" stroke="black" stroke-width="0.1" stroke-miterlimit="10"/>
<path d="M101.801 375.101H105.601" stroke="black" stroke-width="0.1" stroke-miterlimit="10"/>
<path d="M101.801 377.801H102.401V375.101" stroke="black" stroke-width="0.1" stroke-miterlimit="10"/>
<path d="M100.401 377.8H96.1006" stroke="black" stroke-width="0.1" stroke-miterlimit="10"/>
<path d="M94.5006 377.8H93.1006" stroke="black" stroke-width="0.1" stroke-miterlimit="10"/>
<path d="M99.3008 382.9V377.8" stroke="black" stroke-width="0.1" stroke-miterlimit="10"/>
<path d="M381.701 148.9V147.4H385.001V150.5H381.701V148.9Z" fill="#FFD700" stroke="black" stroke-width="0.1" stroke-miterlimit="10"/>
<path d="M280.501 177.401V176.301H281.601V175.801H283.101V178.401H280.501V177.401Z" fill="#FFD700" stroke="black" stroke-width="0.1" stroke-miterlimit="10"/>
<path d="M351.601 240L356.501 240.9L355.801 245.8L350.801 244.9L351.601 240Z" fill="#FFD700" stroke="black" stroke-width="0.1" stroke-miterlimit="10"/>
<path d="M434.801 283.1L435.101 281.4L436.701 281.7L438.301 282L438.201 282.8L438.101 283.6L437.301 283.5L436.501 283.4L436.301 284.3L436.101 285.2L435.201 285L434.301 284.8L434.801 283.1Z" fill="#FFD700" stroke="black" stroke-width="0.1" stroke-miterlimit="10"/>
<path d="M492.201 293.801L492.301 293.101L491.601 293.001L490.901 292.901L491.001 292.101L491.101 291.301L492.501 291.601L493.901 291.901L493.601 293.401L493.301 294.901L492.601 294.801L491.901 294.701L492.201 293.801Z" fill="#FFD700" stroke="black" stroke-width="0.1" stroke-miterlimit="10"/>
<path d="M275.601 363.7V362.9H277.401V366H275.601V363.7Z" fill="#FFD700" stroke="black" stroke-width="0.1" stroke-miterlimit="10"/>
<path d="M432.501 363.101L432.901 361.101L434.701 361.401L436.501 361.701L436.301 362.701L436.101 363.701L435.301 363.601L434.501 363.501L434.301 364.501L434.101 365.501L433.101 365.301L432.101 365.101L432.501 363.101Z" fill="#FFD700" stroke="black" stroke-width="0.1" stroke-miterlimit="10"/>
<path d="M272.501 364.4V362.9H274.301V366H272.501V364.4Z" fill="#FFD700" stroke="black" stroke-width="0.1" stroke-miterlimit="10"/>
<path d="M143.501 380.4V379H145.601V380.6H144.601V381.9H143.501V380.4Z" fill="#FFD700" stroke="black" stroke-width="0.1" stroke-miterlimit="10"/>
<path d="M408.601 427.501L409.001 425.101L411.401 425.501L413.801 425.901L413.401 428.301L413.001 430.701L410.601 430.301L408.201 429.901L408.601 427.501Z" fill="#FFD700" stroke="black" stroke-width="0.1" stroke-miterlimit="10"/>
<path d="M208.001 427.501L208.701 425.801L210.301 426.501L211.701 427.001L211.101 428.601L210.501 430.201L209.001 429.601L207.501 429.001L208.001 427.501Z" fill="#FFD700" stroke="black" stroke-width="0.1" stroke-miterlimit="10"/>
<path d="M275.601 429.801V428.301H277.401V431.401H275.601V429.801Z" fill="#FFD700" stroke="black" stroke-width="0.1" stroke-miterlimit="10"/>
<path d="M272.501 429.801V428.301H274.301V431.401H272.501V429.801Z" fill="#FFD700" stroke="black" stroke-width="0.1" stroke-miterlimit="10"/>
<path d="M219.001 430.601L219.601 429.101L221.301 429.801L222.501 430.301L222.001 431.701L221.301 433.401L219.901 432.801L218.501 432.201L219.001 430.601Z" fill="#FFD700" stroke="black" stroke-width="0.1" stroke-miterlimit="10"/>
<path d="M192.801 442.301L193.401 440.801L195.101 441.501L196.501 442.001L195.901 443.501L195.301 445.001L193.801 444.401L192.301 443.801L192.801 442.301Z" fill="#FFD700" stroke="black" stroke-width="0.1" stroke-miterlimit="10"/>
<path d="M371.801 450.001L372.201 447.601L374.801 448.101L377.401 448.601L377.001 451.001L376.601 453.401L374.001 452.901L371.401 452.401L371.801 450.001Z" fill="#FFD700" stroke="black" stroke-width="0.1" stroke-miterlimit="10"/>
<path d="M272.801 458.7V457.2H275.901V458.7H274.401V460.2H272.801V458.7Z" fill="#FFD700" stroke="black" stroke-width="0.1" stroke-miterlimit="10"/>
<path d="M186.9 520.7V520H185.4V518.4H188.5V521.5H186.9V520.7Z" fill="#FFD700" stroke="black" stroke-width="0.1" stroke-miterlimit="10"/>
<path d="M276.701 521.901V521.101H278.201V522.701H276.701V521.901Z" fill="#FFD700" stroke="black" stroke-width="0.1" stroke-miterlimit="10"/>
<path d="M254.9 521.901V521.101H256.4V522.701H254.9V521.901Z" fill="#FFD700" stroke="black" stroke-width="0.1" stroke-miterlimit="10"/>
<path d="M280.301 522.7V521.2H281.801V524.3H280.301V522.7Z" fill="#FFD700" stroke="black" stroke-width="0.1" stroke-miterlimit="10"/>
<path d="M258.4 522.7V521.2H259.9V524.3H258.4V522.7Z" fill="#FFD700" stroke="black" stroke-width="0.1" stroke-miterlimit="10"/>
<path d="M461.501 569.2V567H462.801V565.5H464.301V569.9H461.501V569.2Z" fill="#FFD700" stroke="black" stroke-width="0.1" stroke-miterlimit="10"/>
<path d="M452.101 570.801V569.601H453.401V572.001H452.101V570.801Z" fill="#FFD700" stroke="black" stroke-width="0.1" stroke-miterlimit="10"/>
<path d="M417.201 573.8V573H418.501V571.5H420.001V574.6H417.201V573.8Z" fill="#FFD700" stroke="black" stroke-width="0.1" stroke-miterlimit="10"/>
<path d="M407.601 573V571.5H409.101V573H410.401V574.6H407.601V573Z" fill="#FFD700" stroke="black" stroke-width="0.1" stroke-miterlimit="10"/>
<path d="M548.401 584.101L548.701 583.401L549.401 583.801L550.101 584.201L550.401 583.501L550.701 582.801L551.501 583.201L552.301 583.601L551.701 584.901L551.101 586.201L549.601 585.401L548.101 584.601L548.401 584.101Z" fill="#FFD700" stroke="black" stroke-width="0.1" stroke-miterlimit="10"/>
<path d="M428.001 592.4V591H430.901V592.5H429.601V593.8H428.001V592.4Z" fill="#FFD700" stroke="black" stroke-width="0.1" stroke-miterlimit="10"/>
<path d="M468.001 597.5L465.901 596.1L466.701 594.9L467.501 593.7L469.501 594.9L471.401 596.1L470.601 597.7L469.901 598.8L468.001 597.5Z" fill="#FFD700" stroke="black" stroke-width="0.1" stroke-miterlimit="10"/>
<path d="M122.801 696.3V695.6H121.301V694H124.401V697.1H122.801V696.3Z" fill="#FFD700" stroke="black" stroke-width="0.1" stroke-miterlimit="10"/>
<path d="M62.8008 695.4V693.9H65.9008V695.5H64.4008V697H62.8008V695.4Z" fill="#FFD700" stroke="black" stroke-width="0.1" stroke-miterlimit="10"/>
<path d="M485.301 690.3V688H490.401V691.1H488.001V692.6H485.401V690.3H485.301Z" fill="#FFD700" stroke="black" stroke-width="0.1" stroke-miterlimit="10"/>
<path d="M485.301 708.7V706.4H487.901V707.9H490.301V711H485.201V708.7H485.301Z" fill="#FFD700" stroke="black" stroke-width="0.1" stroke-miterlimit="10"/>
<path d="M499.201 681.4H502.301V683.2H499.201V681.4Z" fill="#FFD700" stroke="black" stroke-width="0.1" stroke-miterlimit="10"/>
<path d="M499.201 716.7V715.7H502.301V717.7H499.201V716.7Z" fill="#FFD700" stroke="black" stroke-width="0.1" stroke-miterlimit="10"/>
<path d="M434.301 401.801L439.401 402.601L438.601 407.801L433.501 407.001L434.301 401.801Z" fill="#FFD700" stroke="black" stroke-width="0.1" stroke-miterlimit="10"/>
<path d="M429.401 428L435.101 428.9L434.301 434.3L428.601 433.4L429.401 428Z" fill="#FFD700" stroke="black" stroke-width="0.1" stroke-miterlimit="10"/>
<path d="M502.301 717.7H499.701V720H502.301V717.7Z" fill="#FFD700" stroke="black" stroke-width="0.1" stroke-miterlimit="10"/>
<path d="M502.301 678.9H499.701V681.2H502.301V678.9Z" fill="#FFD700" stroke="black" stroke-width="0.1" stroke-miterlimit="10"/>
<path d="M97.7012 368.2V366.2H99.3012V368.5H100.801V370.1H97.7012V368.2Z" fill="#FFD700" stroke="black" stroke-width="0.1" stroke-miterlimit="10"/>
</svg>
