<svg width="606" height="832" viewBox="0 0 606 832" fill="none" xmlns="http://www.w3.org/2000/svg">
<path d="M275.6 363.7V362.9H277.4V366H275.6V363.7Z" fill="#FFD700"/>
<path d="M272.5 364.4V362.9H274.3V366H272.5V364.4Z" fill="#FFD700"/>
<path d="M143.5 380.4V379H145.6V380.6H144.6V381.9H143.5V380.4Z" fill="#FFD700"/>
<path d="M275.6 429.8V428.3H277.4V431.4H275.6V429.8Z" fill="#FFD700"/>
<path d="M272.5 429.8V428.3H274.3V431.4H272.5V429.8Z" fill="#FFD700"/>
<path d="M192.8 442.3L193.4 440.8L195.1 441.5L196.5 442L195.9 443.5L195.3 445L193.8 444.4L192.3 443.8L192.8 442.3Z" fill="#FFD700"/>
<path d="M272.8 458.7V457.2H275.9V458.7H274.4V460.2H272.8V458.7Z" fill="#FFD700"/>
<path d="M461.5 569.2V567H462.8V565.5H464.3V569.9H461.5V569.2Z" fill="#FFD700"/>
<path d="M548.4 584.1L548.7 583.4L549.4 583.8L550.1 584.2L550.4 583.5L550.7 582.8L551.5 583.2L552.3 583.6L551.7 584.9L551.1 586.2L549.6 585.4L548.1 584.6L548.4 584.1Z" fill="#FFD700"/>
<path d="M276.7 521.9V521.1H278.2V522.7H276.7V521.9Z" fill="#FFD700"/>
<path d="M254.9 521.9V521.1H256.4V522.7H254.9V521.9Z" fill="#FFD700"/>
<path d="M280.3 522.7V521.2H281.8V524.3H280.3V522.7Z" fill="#FFD700"/>
<path d="M258.4 522.7V521.2H259.9V524.3H258.4V522.7Z" fill="#FFD700"/>
<path d="M272.4 361.4V360H277.3V362.8H272.4V361.4Z" fill="#70777F"/>
<path d="M139.7 347.9V366.8H140.4V367.2H139.7V371.6H146.3V377.6H146.9V378H146.2V379H145.5V380.6H144.5V381.9H149.1V378H148.5V377.6H149.1V368.8H142.6V367.2H142.1V366.8H142.6V347.9H139.7Z" fill="#70777F"/>
<path d="M142.2 380.5V379H143.5V381.9H142.2V380.5Z" fill="#70777F"/>
<path d="M278.4 429V427.5H278.1V428.2H270.1V425.6H278.1V426.3H278.4V368H278.1V368.5H270.1V365.9H278.1V366.4H278.4V365.9H281.2V390.8H281.5V386.7H285.6V384H291.6V389.2H283.8V391H284.1V389.5H291.6V393.3H284.1V392.3H283.8V394.4H284.1V393.6H291.6V401.1H284.1V395.7H283.8V397.7H281.5V392.2H281.2V430.5H278.4V429Z" fill="#70777F"/>
<path d="M275.7 430.5V429.8H277.3V431.1H275.7V430.5Z" fill="#70777F"/>
<path d="M276.3 456.9H276V453.6H275.7V456.9H270.2V447H273.8V449.1H274.1V447H274.3V446.7H270.2V434.5H274.3V434.2H272.5V431.4H277.4V434.2H275.6V434.5H278.2V446.7H275.6V447H278.2V449.1H278.5V447H291.2V450.9H287.8V452.7H285V453H288.1V451.2H289.7V456.9H282.5V453H284V452.7H278.5V450.3H278.2V454.7H278.5V453H282.3V456.9H278.5V455.8H278.2V456.9H277.9L277.8 457.2L277.6 456.9H277.3L277.2 457.2L277 456.9H276.7L276.5 457.2L276.3 456.9Z" fill="#70777F"/>
<path d="M274.4 459.4V458.7H275.9V457.2H278.2V460.1H274.5L274.4 459.4Z" fill="#70777F"/>
<path d="M270.1 458.7V457.2H272.7V460.1H270.1V458.7Z" fill="#70777F"/>
<path d="M461.5 569.4V568.7H464.3V570H461.5V569.4Z" fill="#70777F"/>
<path d="M452.1 569.5V563.8H457.2V569.8H457.5V563.8H464.3V565.6H462.8V567.1H461.2V570.4H464.3V575.3H457.5V572.7H457.2V575.3H452.1V569.5Z" fill="#70777F"/>
<path d="M551.8 584.9L552.4 583.6L553.2 584L554 584.4L553.4 585.7L552.8 587L552 586.6L551.2 586.2L551.8 584.9Z" fill="#70777F"/>
<path d="M546.8 582.5L547.4 581.2L547.6 581.3L547.8 581.4L547.9 581.3L548 581.2L547.8 581.1L547.6 581L547.7 580.7L547.8 580.4L547.7 580.3L547.6 580.2L547.5 580.5L547.4 580.8L544.1 579.2L540.8 577.6L542.1 575L543.4 572.4L546.7 574L550 575.6L549.1 577.4L548.2 579.2L548.3 579.3L548.4 579.4L550.1 576L551.8 572.6L553 573.2L554.2 573.8L552.8 576.6L551.4 579.4L551.7 579.5L552 579.6L552.1 579.5C552.1 579.4 552.1 579.3 552 579.3L551.9 579.2L553.2 576.6L554.5 574L556.5 575L558.5 576L557.2 578.6L555.9 581.2L554.6 580.6L553.3 580L553.2 580.1L553.1 580.2L553.4 580.3L553.7 580.4L553.5 580.8L553.3 581.2L553.4 581.3L553.5 581.4L553.7 581L553.9 580.6L554.8 581L555.7 581.4L555 582.8L554.3 584.2L553.4 583.8L552.5 583.4L552.7 583L552.9 582.6L552.8 582.5L552.7 582.4L552.5 582.8L552.3 583.2L550.8 582.4L549.3 581.6L549.2 581.7L549.1 581.8L550.1 582.3L551.1 582.8L550.8 583.5L550.5 584.2L549.8 583.9L549.1 583.6L548.8 584.3L548.5 585L547.4 584.5L546.3 584L546.8 582.5Z" fill="#70777F"/>
<path d="M279.6 503.2V516.1H273.1V517.4H274.1V517.7H272.6V521.6H272.8V521.9H272.6V523.2H272.3V517.7H269.4V524.7H272.3V524.5V524.3H272.6V525H269.3V525.3H269V517.7H264.4V526.7H267.1V527H262V527.5H261.7V527H259V526.7H259.8V524.3H256.2V522.8H254.7V526.7H255.5V527H248.3V528.8H261.5V528.3H261.8V528.8H265.2V529.1H261.9V536.1H266.5V529.1H266.2V528.9V528.7H267.2V528.9V529.1H267V536.1H270.8V530.2H268.7V529.6V528.2H269V529.9H270.9V527H269V527.4H268.8V527H268.3V526.7H268.5H269.2V526.4H269.5V526.7H272.9V527H271.3V536.1H276.5V527H273.9V526.7H274.2V526.3H274.5V526.7H276.4V525.2H274.4V525.4V525.6H274V523.5H274.3V525H276.3V522H274.3V522.7H274V522H273.7V521.8V521.6H276.3V517.7H275V517.4H277.4V517.7H276.6V521.1H281.7V517.7H280.9V517.4H281.7V503.2H279.6Z" fill="#70777F"/>
</svg>
