<svg width="888" height="1044" viewBox="0 0 888 1044" fill="none" xmlns="http://www.w3.org/2000/svg">
<g clip-path="url(#clip0_39_2)">
<mask id="mask0_39_2" style="mask-type:luminance" maskUnits="userSpaceOnUse" x="0" y="0" width="888" height="1044">
<path d="M0 3.88157e-05L4.56347e-05 1044L887.7 1044L887.7 1.31129e-08L0 3.88157e-05Z" fill="white"/>
</mask>
<g mask="url(#mask0_39_2)">
<path d="M392.1 44.2L400.4 75L491.4 12.9L459.4 5.35636e-06" fill="#C2DAE9"/>
<path d="M7.85931e-06 179.8L4.56347e-05 1044L887.7 1044L887.7 1.31129e-08L459.4 1.87347e-05L0 3.88157e-05L7.85931e-06 179.8ZM550.1 356.6L693.1 890.5L790.7 864.4L727.4 628L751.6 621.5L821.7 883.3L828.7 881.4L834.9 904.5L488.3 997.3L413.6 718.5L381.5 718.5L381.5 727.6L342.4 727.6L342.4 854.8L269.5 854.8L269.5 847.3L201.8 847.3L201.8 413.5L158 413.5L158 408.1L52.6 408.1L52.6 392.6L158 392.6L158 305L52.7 305L52.7 289.7L157.7 289.7L157.7 179.8L444.4 179.8L487.3 339.8L550.1 356.6Z" fill="#C2DAE9"/>
<path d="M392.1 44.2001L369.5 50.3001L359.3 48.4001L307.6 65.2001L288.8 121.5L211.9 161.5L202.2 156.3L151.4 155.6L151.4 179.7L157.7 179.7L157.7 289.6L52.7001 289.6L52.7001 304.9L158 304.9L158 392.5L52.6001 392.5L52.6001 408L158 408L158 413.4L201.7 413.4L201.7 847.3L266.8 847.3L266.8 856.5L264.4 856.5L264.4 861.4L266.8 861.4L266.8 870.7L261.6 870.7L261.6 880L266.8 880L266.8 895.9L261.6 895.9L261.6 905.2L266.8 905.2L266.8 919.8L261.6 919.8L261.6 929L266.8 929L266.8 943.6L261.6 943.6L261.6 952.9C261.6 955.4 262 957.4 264.4 958.5C266.8 959.5 269.4 959.5 271.8 958.5C274.2 957.5 274.6 955.3 274.6 952.9L274.6 943.6L269.4 943.6L269.4 929L274.6 929L274.6 919.7L269.4 919.7L269.4 905.1L274.6 905.1L274.6 895.8L269.4 895.8L269.4 880L274.6 880L274.6 870.7L269.4 870.7L269.4 861.4L271.8 861.4L271.8 856.5L269.4 856.5L269.4 854.8L342.3 854.8L342.3 727.5L381.4 727.5L381.4 718.4L413.5 718.4L488.3 997.3L835 904.4L828.8 881.3L821.8 883.2L751.7 621.4L727.5 627.9L790.8 864.3L693.2 890.4L550.2 356.5L487.4 339.7L422.4 96.9001L400.5 75.0001L392.1 44.2001Z" fill="#D8BEA9"/>
<path d="M327.1 58.8C330.3 73.8 333.8 93.3 333.8 93.3L457.6 553.8C457.6 553.8 462.2 571.5 462.8 574.8C463.3 578.1 445.2 578.6 445.2 578.6L267.1 579.1" stroke="black" stroke-miterlimit="10"/>
<path d="M231.4 391.6L231.4 190C231.4 190 231 179.4 228.8 174.6C226.1 168.6 221.3 163.5 216.4 159.1" stroke="black" stroke-miterlimit="10"/>
<path d="M231.4 315.7L393.6 315.7" stroke="black" stroke-miterlimit="10"/>
<path d="M306.9 315.7L306.9 405.1L417.6 405.1" stroke="black" stroke-miterlimit="10"/>
<path d="M384.5 578.7L384.5 440.2" stroke="black" stroke-miterlimit="10"/>
<path d="M384.5 533.1L432.1 459" stroke="black" stroke-miterlimit="10"/>
<path d="M276.1 578.7L276.1 485.6" stroke="black" stroke-miterlimit="10"/>
<path d="M445.1 578.6L545.3 954.6L814.4 882.5L748.3 635.7" stroke="black" stroke-miterlimit="10"/>
<path d="M536.4 921.3L589.8 907L565.8 817.5L623.7 802" stroke="black" stroke-miterlimit="10"/>
<g opacity="0.8">
<path d="M359.3 48.4L307.6 65.2L288.8 121.5L211.9 161.5L202.2 156.3L151.4 155.6L151.4 179.7L157.7 179.7L157.7 289.6L52.7001 289.6L52.7001 304.9L158 304.9L158 392.5L52.6001 392.5L52.6001 408L158 408L158 413.4L201.7 413.4L201.7 847.3L266.8 847.3L266.8 856.5L264.4 856.5L264.4 861.4L266.8 861.4L266.8 870.7L261.6 870.7L261.6 880L266.8 880L266.8 895.9L261.6 895.9L261.6 905.2L266.8 905.2L266.8 919.8L261.6 919.8L261.6 929L266.8 929L266.8 943.6L261.6 943.6L261.6 952.9C261.6 955.4 262 957.4 264.4 958.5C266.8 959.5 269.4 959.5 271.8 958.5C274.2 957.5 274.6 955.3 274.6 952.9L274.6 943.6L269.4 943.6L269.4 929L274.6 929L274.6 919.7L269.4 919.7L269.4 905.1L274.6 905.1L274.6 895.8L269.4 895.8L269.4 880L274.6 880L274.6 870.7L269.4 870.7L269.4 861.4L271.8 861.4L271.8 856.5L269.4 856.5L269.4 854.8L342.3 854.8L342.3 727.5L381.4 727.5L381.4 718.4L413.5 718.4L413.5 708.6L378.3 708.6L378.3 717.2L331.5 717.2L331.5 844.7L266.3 844.7L266.3 687.7L271.7 687.7L271.7 630.7L268.5 625.2L266.2 626.7L266.2 671.1L258 671.1L258 681L247.4 681L247.4 611.2L245 611.2L245 593.8L247.4 593.8L247.4 568.4L245.2 568.4L245.2 556.2L247.7 556.2L247.7 552.4L256 552.4L260.9 544L260.9 534.7L267.5 534.7L278.9 523.3L289.2 523.3L289.2 543.4L371.4 543.4L371.4 498.4L366.9 472.7L366.9 433.4L397.8 433.4L397.8 438.6L403.1 441.1L431.8 433.4L429.4 424.6L435.5 423L431.6 408.5L446 404.6L446.9 407.9L451.2 406.8L450.8 405.3L449.4 401.3L425.3 407.7L429 421.7L418.9 424.4L420.3 429.6L407.9 432L323.3 416.3L321.2 416.3L309.7 406.8L308.1 408.7L304.8 406.8L304.8 396.3L302.3 396.3L302.3 405.1L298.4 405.1L298.4 399.6L289.1 399.6L289.1 388.3L262.3 388.3L262.3 411.7L179.2 411.7L176.6 407.2L176.6 286.9L170.1 281.3L168.3 270.4L168.3 261.8L221.4 261.8L221.4 230.5L225.6 230.5L225.6 221.5L239.3 221.5L240.7 220.1L240.7 174L289.5 147.8L300.7 144.8L332.6 136.2L338.9 139.7L353.7 135.7L338.4 71.3L354.7 66.9001L368.8 70.7L374.7 60.5L371.8 49.8L369.3 50.5L359.3 48.4Z" fill="#EAE4DF" stroke="#3D3D3D" stroke-width="0.2" stroke-miterlimit="10"/>
<path d="M620.1 617.7L607.3 608.8L600.6 610.6L598.8 603.8L576 601.7L550.8 608.4L544.4 584.5L546.6 583.9L543.5 572.2L541.3 572.8L530 530.8L540.9 527.9L535.6 508.1L494.4 519.1L473.4 440.8L478 439.6L472.3 418.5L464.3 420.6L463.2 416.6L461.9 411.4L506.5 399.2L494 351.5L491.1 340.6L550.1 356.4L620.1 617.7Z" fill="#EAE4DF" stroke="#3D3D3D" stroke-width="0.2" stroke-miterlimit="10"/>
<path d="M662 774L651 776.9L652.7 783.4L639.2 787L637.5 780.7L633.7 781.7L615.2 800.2L602.9 803.5L582 725.7L594.2 722.4L595.4 726.9L615.2 721.6L614.2 717.9L633.7 712.7L631.6 704.8L642.7 701.8L662 774Z" fill="#EAE4DF" stroke="#3D3D3D" stroke-width="0.2" stroke-miterlimit="10"/>
<path d="M504 537.2L511.6 535.2L522.8 577.1L520.3 577.8L523.6 589.9L526 589.3L532.4 613.3L527.8 614.5L533.1 634.1L544 631.2L557.6 634.8L555.8 628.1L567.4 625L578.3 665.5L576.1 666.1L578.1 673.6L580.8 672.9L588.8 702.8L576.8 706L576 703.1L561.8 717.3L561.8 731.1L564 730.5L584.8 808L572.4 811.3L565.3 784.9L563.1 785.5L551.2 773.6L534.2 769.1L531.4 758.5L526.8 759.7L523.9 748.7L505.7 743.8L504.6 739.6L508.6 732.7L493.5 676.2L488.4 677.6L476.9 634.8L481.8 633.5L472.6 599.2L482.5 582L494.7 578.7L495.4 581.2L509 584.8L508 581.2L513.1 579.8L510 568.3L507.4 569L500.7 543.9L505.4 542.6L504 537.2Z" fill="#EAE4DF" stroke="#3D3D3D" stroke-width="0.2" stroke-miterlimit="10"/>
<path d="M698.4 889L702.3 903.7L709.2 901.9L711.4 910.3L714.1 909.6L720.9 935L723.4 934.3L716.2 907.4L713.4 908.2L710.8 898.6L707.9 899.4L704.7 887.4L698.4 889Z" fill="#EAE4DF" stroke="#3D3D3D" stroke-width="0.2" stroke-miterlimit="10"/>
<path d="M537.2 984.2L533.1 968.7L526.2 944.1L487.8 954.5L477.6 957.2L488.3 997.3L537.2 984.2Z" fill="#EAE4DF" stroke="#3D3D3D" stroke-width="0.2" stroke-miterlimit="10"/>
<path d="M341.3 335.9L360 335.9L360 394.6L341.2 394.6L341.3 335.9Z" fill="#EAE4DF" stroke="#3D3D3D" stroke-width="0.2" stroke-miterlimit="10"/>
</g>
<path d="M392.1 44.2L369.5 50.3L359.3 48.4001L327.1 58.8L307.6 65.1L288.8 121.4L211.9 161.4L202.2 156.2L151.3 155.5L151.3 179.6" stroke="black" stroke-miterlimit="10"/>
<path d="M303.3 154.3L261.2 165.6L267.1 187.7M267.9 190.5L271.3 203.1L287.2 198.9" stroke="#555E55"/>
<path d="M310.1 156.6L315.4 176.4M316.3 179.8L319.1 190.2L310 192.6" stroke="#555E55"/>
<path d="M270 228.1L284.1 228.1M289.2 228.1L296.1 228.1" stroke="#555E55"/>
<path d="M270 304.7L283.4 304.7M288.8 304.7L296.1 304.7" stroke="#555E55"/>
<path d="M328.3 303.8L331.8 303.8M336.2 303.8L341 303.8" stroke="#555E55"/>
<path d="M263.9 329.4L263.9 305.6" stroke="#555E55"/>
<path d="M250.3 365.4L243.6 365.4L243.6 372.2M243.6 377.6L243.6 398.1" stroke="#555E55"/>
<path d="M262.3 398.1L262.3 388.1L289.1 388.1L289.1 376.8M289.1 370.4L289.1 356.6" stroke="#555E55"/>
<path d="M289.1 388.2L289.1 399.5" stroke="#555E55"/>
<path d="M391.2 323.3L397.5 346.7L388.8 346.7" stroke="#555E55"/>
<path d="M372 564.8L372 574.3L289.6 574.3L289.6 569.1" stroke="#555E55"/>
<path d="M266.4 472.7L266.4 575.2M266.4 581.5L266.4 828.2" stroke="#555E55"/>
<path d="M266.4 844.7L331.6 844.7L331.6 717.3L378.4 717.3L378.4 583.2L266.4 583.2" stroke="#555E55"/>
<path d="M278.2 814L318.9 814L318.9 695.5L278.2 695.5L278.2 814Z" stroke="#555E55"/>
<path d="M278.2 736.6L318.9 736.6" stroke="#555E55"/>
<path d="M278.2 773.6L318.9 773.6" stroke="#555E55"/>
<path d="M288.3 624.5L271.8 624.5M271.8 630.6L271.8 690.2M275.1 690.2L298.5 690.2M304.9 690.2L318.6 690.2M323.1 690.2L323.1 634.3M323.1 627.8L323.1 624.4L299.9 624.4" stroke="#555E55"/>
<path d="M330.3 639.1L371 639.1L371 705.5L330.3 705.5L330.3 639.1Z" stroke="#555E55"/>
<path d="M323.3 438.6L323.3 446.1L287.8 446.1L287.8 472.7L203.4 472.7L203.4 411.6" stroke="#555E55"/>
<path d="M220.7 411.6L159.4 411.6" stroke="#555E55"/>
<path d="M221.3 261.8L159.6 261.8L159.6 179.8L225.5 179.8L225.5 230.6L221.3 230.6L221.3 261.8Z" stroke="#555E55"/>
<path d="M240.7 185.2L240.7 174L289.5 147.8L300.7 144.8" stroke="#555E55"/>
<path d="M239.3 221.5L225.6 221.5" stroke="#555E55"/>
<path d="M289.1 399.5L298.4 399.5L298.4 412L289.1 412L289.1 399.5Z" stroke="#555E55"/>
<path d="M262.3 411.6L262.3 472.7" stroke="#555E55"/>
<path d="M186.2 172.6L191.4 168.5L187.5 163.6L182.3 167.7L186.2 172.6Z" fill="#AF895B"/>
<path d="M342 63.6L340.7 58.7001L347.8 56.8L354.9 54.9001L356.2 59.8L357.5 64.7001L350.4 66.6L343.3 68.5L342 63.6Z" fill="#AF895B"/>
<path d="M381.1 69.9L379.8 65L386.9 63.1L394 61.2L395.3 66.1L396.6 71L389.5 72.9L382.4 74.8L381.1 69.9Z" fill="#AF895B"/>
<path d="M304.3 158.1L302.3 150.5L300.3 142.9L322.3 126.4L327.1 127.5L330.3 125.7L335.6 127.6L339 139.6L336.7 140.2L339 148.9L304.3 158.1Z" fill="#AF895B"/>
<path d="M307.2 163.7L306.4 160.6L307.8 160.2L309.2 159.8L310 162.9L310.8 166L309.4 166.4L308 166.8L307.2 163.7Z" fill="#AF895B"/>
<path d="M324.1 163.1L321.5 153.5L328.7 151.6L335.9 149.7L338.5 159.3L340.8 167.8L333.6 169.7L326.4 171.6L324.1 163.1Z" fill="#AF895B"/>
<path d="M277 191.5L276.8 190.7L281.3 189.5L285.8 188.3L286 189.1L286.2 189.9L281.7 191.1L277.2 192.3L277 191.5Z" fill="#AF895B"/>
<path d="M304.1 186.4L303.7 184.9L306.9 184L310.1 183.1L310.5 184.6L310.9 186.1L307.7 187L304.5 187.9L304.1 186.4Z" fill="#AF895B"/>
<path d="M291.8 189.5L290.9 186.1L294.3 185.2L297.7 184.3L298.6 187.7L299.5 191.1L296.1 192L292.7 192.9L291.8 189.5Z" fill="#AF895B"/>
<path d="M314.2 185.1L313.6 182.8L314.7 182.5L315.8 182.2L316.4 184.5L317 186.8L315.9 187.1L314.8 187.4L314.2 185.1Z" fill="#AF895B"/>
<path d="M278.4 196.8L278.2 196L282.7 194.8L287.2 193.6L287.4 194.4L287.6 195.2L283.1 196.4L278.6 197.6L278.4 196.8Z" fill="#AF895B"/>
<path d="M272.2 194.9L271 190.4L271.8 190.2L272.6 190L273.8 194.5L275 199L274.2 199.2L273.4 199.4L272.2 194.9Z" fill="#AF895B"/>
<path d="M354.2 118.9L382.5 111.3L397.6 167.6L369.5 175.1L354.2 118.9Z" fill="#AF895B"/>
<path d="M290.3 211.1L286.9 198L309.8 191.9L313.3 205L290.3 211.1Z" fill="#AF895B"/>
<path d="M293.5 214.4L291.3 215L290.9 213.6L290.3 211.3L305.7 207.2L306.3 209.6L306.7 211.1L293.5 214.4Z" fill="#AF895B"/>
<path d="M336.2 203.8L332.7 190.6L349.5 186.1L353 199.3L356.8 213.5L348.4 215.8L340 218L336.2 203.8Z" fill="#AF895B"/>
<path d="M335.4 219.2L346.1 216.3L356.8 213.4L365.9 247.5L355.1 250.4L344.3 253.3L335.4 219.2Z" fill="#AF895B"/>
<path d="M434.4 356.6L456.9 350.6L460.5 363.9L438 369.9L434.4 356.6Z" fill="#AF895B"/>
<path d="M450.7 405.2L458.8 403L455.6 391.1L468.9 387.5L468.3 385.4L469.9 385L470.5 387.1L486.4 382.8L485.8 380.5L489.9 379.4L490.5 381.8L497.7 379.9L490.4 352.5L501.6 349.4L503.3 355.6L510.7 353.6L523.3 400.5L454.5 418.9L450.7 405.2Z" fill="#AF895B"/>
<path d="M425.3 690.6L419.9 670.3L423.6 669.3L428.4 667.9L439.3 708.5L434.5 709.9L430.8 710.9L425.3 690.6Z" fill="#AF895B"/>
<path d="M430.4 676.3L420.2 638.4L431.8 635.3L443.4 632.2L453.6 670.1L463.7 708L452.1 711.1L440.5 714.2L430.4 676.3Z" fill="#AF895B"/>
<path d="M441 730.8L439.4 724.9L457 720.2L474.6 715.5L476.2 721.4L477.8 727.3L460.2 732L442.6 736.7L441 730.8Z" fill="#AF895B"/>
<path d="M445.7 748.4L444.1 742.5L461.7 737.8L479.3 733.1L481 739L482.6 744.9L465 749.6L447.4 754.3L445.7 748.4Z" fill="#AF895B"/>
<path d="M451.5 768.8L449.7 762.2L472.1 756.2L473.9 762.8L475.7 769.4L453.3 775.4L451.5 768.8Z" fill="#AF895B"/>
<path d="M495 938.2L493.6 932.9L502.7 930.5L511.8 928.1L513.2 933.4L514.6 938.7L505.5 941.1L496.4 943.5L495 938.2Z" fill="#AF895B"/>
<path d="M637.5 896.4L632.9 879.3L653.3 873.7L672.7 868.5L677.3 885.6L681.9 902.7L662.5 907.9L642.1 913.5L637.5 896.4Z" fill="#AF895B"/>
<path d="M588.5 877.9L575.9 830.9L596.5 825.4L617.1 819.9L629.7 866.9L642.3 913.9L621.7 919.4L601.1 924.9L588.5 877.9Z" fill="#AF895B"/>
<path d="M490.9 966.2L487.4 953.3L507.6 947.9L527.8 942.5L531.3 955.4L534.8 968.3L514.6 973.7L494.4 979.1L490.9 966.2Z" fill="#AF895B"/>
<path d="M194.9 169.7L209.1 169.7L209.1 178.3L194.9 178.3L194.9 169.7Z" fill="#AF895B"/>
<path d="M163.6 183.8L176.9 183.8L177 206.8L163.8 206.9L163.6 183.8Z" fill="#AF895B"/>
<path d="M188.5 213.7L188.6 183.9L202.9 184L202.8 213.7L188.5 213.7Z" fill="#AF895B"/>
<path d="M210.8 184.4L225.1 184.4L225.1 214.2L210.8 214.2L210.8 184.4Z" fill="#AF895B"/>
<path d="M239.3 221.5L239.3 185.2L256.8 185.2L256.7 221.5L239.3 221.5Z" fill="#AF895B"/>
<path d="M163.2 245.3L191.8 245.2L191.8 250L201.3 250.1L201.3 259L163.2 259.1L163.2 245.3Z" fill="#AF895B"/>
<path d="M203.4 251.6L220.1 251.6L220.1 259.8L203.4 259.8L203.4 251.6Z" fill="#AF895B"/>
<path d="M163.2 267.3L167.7 267.3L167.7 269.7L163.2 269.7L163.2 267.3Z" fill="#AF895B"/>
<path d="M270 244.4L278.6 244.4L278.3 286.3L270 286.4L270 244.4Z" fill="#AF895B"/>
<path d="M319.8 304.9L319.8 263L328.3 263L328.3 304.9L319.8 304.9Z" fill="#AF895B"/>
<path d="M296.1 305.5L296.1 227.2L319.8 227.2L319.8 305.5L296.1 305.5Z" fill="#AF895B"/>
<path d="M246.5 305.5L246.3 227.2L270 227.4L270 305.6L246.5 305.5Z" fill="#AF895B"/>
<path d="M341.1 267.2L368.2 267.5L368.3 309.3L341 309.4L341.1 267.2Z" fill="#AF895B"/>
<path d="M250.4 368.1L250.3 363.5L250.3 361.8L249.2 361.8L248.1 361.8L248.1 355L248.1 348.2L250.6 348.2L250.6 341L262.4 341L262.4 329.5L275.7 329.5L275.7 341L288.1 341L288.1 339.4L291.7 339.4L295.2 339.4L295.3 341L296.6 341L296.7 356.7L279.2 356.7L261.7 356.7L261.7 368.2L250.4 368.1Z" fill="#AF895B"/>
<path d="M171.9 387L171.9 385.6L170 385.6L170 281.3L171.7 281.2L171.7 279.9L202.1 279.8L202 281.2L203.9 281.3L203.9 329L203.8 385.7L202.1 385.8L202 387.1L171.9 387Z" fill="#AF895B"/>
<path d="M245.2 385.5L248.7 385.5L248.7 391.7L245.2 391.7L245.2 385.5Z" fill="#AF895B"/>
<path d="M357.7 333.4L384.1 333.5L384.1 395.4L357.8 395.4L357.7 333.4Z" fill="#AF895B"/>
<path d="M317.4 333.4L343.7 333.3L343.7 395.4L317.4 395.4L317.4 333.4Z" fill="#AF895B"/>
<path d="M278.6 410L278.6 392L288.6 391.9L288.6 410L278.6 410Z" fill="#AF895B"/>
<path d="M292 404.2L295.5 404.2L295.5 410.4L292 410.4L292 404.2Z" fill="#AF895B"/>
<path d="M220.7 413.5L220.8 403.2L230.1 403.2L230 398.1L263.2 398.1L263.3 413.5L220.7 413.5Z" fill="#AF895B"/>
<path d="M397.7 418.2L404.4 418.2L408.5 434.4L405.1 438L397.7 438L397.7 418.2Z" fill="#AF895B"/>
<path d="M240.3 424.4L264.5 424.4L264.5 438.4L240.3 438.4L240.3 424.4Z" fill="#AF895B"/>
<path d="M323.3 413.9L397.7 413.9L397.7 438.5L323.3 438.5L323.3 413.9Z" fill="#AF895B"/>
<path d="M240.4 442.2L240.4 438.4L256 438.4L256 442.2L240.4 442.2Z" fill="#AF895B"/>
<path d="M207.4 427.4L220 427.4L220 449.2L207.3 449.3L207.4 427.4Z" fill="#AF895B"/>
<path d="M228 458.9L228 447.2L246.1 447.2L263.6 447.2L263.5 458.9L228 458.9Z" fill="#AF895B"/>
<path d="M335.7 438.6L375.3 438.6L375.2 464.2L335.7 464.3L335.7 438.6Z" fill="#AF895B"/>
<path d="M289.1 451.1L292.6 451.2L292.6 464.6L289.1 464.6L289.1 451.1Z" fill="#AF895B"/>
<path d="M286.2 472.7L372.5 472.7L372.5 498.4L286.2 498.4L286.2 472.7Z" fill="#AF895B"/>
<path d="M286.4 531.6L286.2 506L372.6 506L372.5 531.6L286.4 531.6Z" fill="#AF895B"/>
<path d="M286.4 564.6L286.4 539.1L372.8 539L372.8 564.7L286.4 564.6Z" fill="#AF895B"/>
<path d="M421.1 529.4L431.6 529.4L431.7 538.6L436.6 538.6L436.6 569.1L421.2 569.1L421.1 529.4Z" fill="#AF895B"/>
<path d="M418.7 604.9L418.7 591.4L442.6 591.3L442.7 604.8L418.7 604.8L418.7 604.9Z" fill="#AF895B"/>
<path d="M300.7 608.9L300.8 600.3L297.1 600.3L297.1 588.6L300.6 588.6L300.6 585.1L322.7 585.2L322.6 593L326.3 593.1L326.2 603.2L324.7 603.2L324.7 608L310.2 607.9L310.2 609L300.7 608.9Z" fill="#AF895B"/>
<path d="M418.7 604.9L434.2 604.9L434.1 609.3L418.6 609.4L418.6 604.9L418.7 604.9Z" fill="#AF895B"/>
<path d="M272.7 615.5L272.7 606L291.7 606L291.7 615.5L272.7 615.5Z" fill="#AF895B"/>
<path d="M343.1 602.5L367.9 602.5L367.9 624L343.1 624L343.1 602.5Z" fill="#AF895B"/>
<path d="M391.3 603.2L398.2 603.2L398.2 695.4L391.3 695.4L391.3 603.2Z" fill="#AF895B"/>
<path d="M282.2 826.8L328.7 826.8L328.7 838.4L282.2 838.4L282.2 826.8Z" fill="#AF895B"/>
<path d="M312.3 794C312.3 785.937 305.763 779.4 297.7 779.4C289.637 779.4 283.1 785.937 283.1 794C283.1 802.063 289.637 808.6 297.7 808.6C305.763 808.6 312.3 802.063 312.3 794Z" fill="#AF895B"/>
<path d="M312.3 755.7C312.3 747.637 305.763 741.1 297.7 741.1C289.637 741.1 283.1 747.637 283.1 755.7C283.1 763.763 289.637 770.3 297.7 770.3C305.763 770.3 312.3 763.763 312.3 755.7Z" fill="#AF895B"/>
<path d="M312.3 716.4C312.3 708.337 305.763 701.8 297.7 701.8C289.637 701.8 283.1 708.337 283.1 716.4C283.1 724.463 289.637 731 297.7 731C305.763 731 312.3 724.463 312.3 716.4Z" fill="#AF895B"/>
<path d="M293 673.1C293 668.461 289.239 664.7 284.6 664.7C279.961 664.7 276.2 668.461 276.2 673.1C276.2 677.739 279.961 681.5 284.6 681.5C289.239 681.5 293 677.739 293 673.1Z" fill="#AF895B"/>
<path d="M319.1 673.1C319.1 668.461 315.34 664.7 310.7 664.7C306.061 664.7 302.3 668.461 302.3 673.1C302.3 677.739 306.061 681.5 310.7 681.5C315.34 681.5 319.1 677.739 319.1 673.1Z" fill="#AF895B"/>
<path d="M293 645.2C293 640.561 289.239 636.8 284.6 636.8C279.961 636.8 276.2 640.561 276.2 645.2C276.2 649.839 279.961 653.6 284.6 653.6C289.239 653.6 293 649.839 293 645.2Z" fill="#AF895B"/>
<path d="M319.1 645.2C319.1 640.561 315.34 636.8 310.7 636.8C306.061 636.8 302.3 640.561 302.3 645.2C302.3 649.839 306.061 653.6 310.7 653.6C315.34 653.6 319.1 649.839 319.1 645.2Z" fill="#AF895B"/>
<path d="M349.8 692.7C349.8 688.668 346.532 685.4 342.5 685.4C338.469 685.4 335.2 688.668 335.2 692.7C335.2 696.732 338.469 700 342.5 700C346.532 700 349.8 696.732 349.8 692.7Z" fill="#AF895B"/>
<path d="M368.8 692.7C368.8 688.668 365.532 685.4 361.5 685.4C357.469 685.4 354.2 688.668 354.2 692.7C354.2 696.732 357.469 700 361.5 700C365.532 700 368.8 696.732 368.8 692.7Z" fill="#AF895B"/>
<path d="M349.8 672.2C349.8 668.168 346.532 664.9 342.5 664.9C338.469 664.9 335.2 668.168 335.2 672.2C335.2 676.232 338.469 679.5 342.5 679.5C346.532 679.5 349.8 676.232 349.8 672.2Z" fill="#AF895B"/>
<path d="M368.8 672.2C368.8 668.168 365.532 664.9 361.5 664.9C357.469 664.9 354.2 668.168 354.2 672.2C354.2 676.232 357.469 679.5 361.5 679.5C365.532 679.5 368.8 676.232 368.8 672.2Z" fill="#AF895B"/>
<path d="M349.8 651.8C349.8 647.768 346.532 644.5 342.5 644.5C338.469 644.5 335.2 647.768 335.2 651.8C335.2 655.832 338.469 659.1 342.5 659.1C346.532 659.1 349.8 655.832 349.8 651.8Z" fill="#AF895B"/>
<path d="M368.8 651.8C368.8 647.768 365.532 644.5 361.5 644.5C357.469 644.5 354.2 647.768 354.2 651.8C354.2 655.832 357.469 659.1 361.5 659.1C365.532 659.1 368.8 655.832 368.8 651.8Z" fill="#AF895B"/>
<path d="M366.6 49.7L366.1 51C363.2 56.4 359.6 64 357.7 69.2C355.7 74.4 353.8 81.9 355.1 88.1L388.7 215.8L403.4 269.8L419.2 328.8C419.2 328.8 420.7 335.8 420.7 339.3C420.8 342.3 420.2 345.3 419.8 348.2C419.4 351.2 418.6 354.2 418.4 357.2C418.1 360.9 418.6 368.3 418.6 368.3L560.9 899.7" stroke="#7C6F66" stroke-width="3" stroke-dasharray="22 12"/>
<path d="M361.6 60.5C361.6 60.5 359.5 66.0001 359.4 69.2001C359.3 72.1001 360.7 77.9001 360.7 77.9001L427.4 328C427.4 328 429 335.7 428.9 339.6C428.8 343.4 427.6 347 427 350.7C426.3 355 425.3 359.2 425.3 363.5C425.3 367.6 426.8 375.7 426.8 375.7L566.6 898.4" stroke="#7C6F66" stroke-width="3" stroke-dasharray="22 12"/>
<path d="M372.7 90.4001L420.2 266.1" stroke="#7C6F66" stroke-width="3" stroke-dasharray="22 12"/>
<path d="M407.5 101.8L479.1 368.5" stroke="#7C6F66" stroke-width="3" stroke-dasharray="22 12"/>
<path d="M412.5 100.5L484.1 367.2" stroke="#7C6F66" stroke-width="3" stroke-dasharray="22 12"/>
<path d="M431.5 231.9L469.2 370.7" stroke="#7C6F66" stroke-width="3" stroke-dasharray="22 12"/>
<path d="M555.5 901.2L463.3 557.6C463.3 557.6 462.7 549.7 462.5 545.8C462.2 540.2 461.4 528.5 461.4 528.5" stroke="#7C6F66" stroke-width="3" stroke-dasharray="22 12"/>
<path d="M550.5 902.6L472.8 613C472.8 613 472.5 605.1 472.3 601.2C472 596.2 471.2 586.2 471.2 586.2" stroke="#7C6F66" stroke-width="3" stroke-dasharray="22 12"/>
<path d="M390.7 698.2L390.4 547.8C390.4 547.8 391.5 538.8 393 534.6C394.6 530 399.8 521.7 399.8 521.7L432.7 469.8C432.7 469.8 436.6 460.9 437.4 456.1C438.4 450.9 437.9 441.3 437.9 441.3" stroke="#7C6F66" stroke-width="3" stroke-dasharray="22 12"/>
<path d="M398.6 697.7L398.6 539.4C398.6 539.4 399.6 529.3 401 524.4C402.4 519.7 406.7 511.1 406.7 511.1" stroke="#7C6F66" stroke-width="3" stroke-dasharray="22 12"/>
<path d="M472.6 910.5L416.3 702C416.3 702 415.2 696.4 414.9 693.6C414.6 691.2 414.5 686.5 414.5 686.5L416 505C416 505 416.7 499.2 417.5 496.4C418.3 493.6 421.2 488.2 421.2 488.2" stroke="#7C6F66" stroke-width="3" stroke-dasharray="22 12"/>
<path d="M477.3 909.4L417 683.2C417 683.2 415.8 678.1 415.4 675.5C415 672.9 414.6 667.6 414.6 667.6" stroke="#7C6F66" stroke-width="3" stroke-dasharray="22 12"/>
<path d="M404.6 275.4C404.6 275.4 403.1 265.9 403.3 261.2C403.4 257.7 404.8 254.2 404.9 250.7C405 245.6 403.1 235.4 403.1 235.4" stroke="#7C6F66" stroke-width="3" stroke-dasharray="22 12"/>
<path d="M389.8 220.1C389.8 220.1 388.5 210.6 388.6 205.8C388.7 202.3 390.1 198.8 390.2 195.3C390.3 190.2 388 180.2 388 180.2" stroke="#7C6F66" stroke-width="3" stroke-dasharray="22 12"/>
<path d="M397.9 217.4C397.9 217.4 397.4 207.7 397.5 202.9C397.6 199.4 399 195.9 399.1 192.4C399.2 187.3 396.1 177.1 396.1 177.1" stroke="#7C6F66" stroke-width="3" stroke-dasharray="22 12"/>
<path d="M408.9 224.3C408.9 224.3 412.4 234.2 415.2 238.5C420.9 247.2 430.3 252.9 436.3 261.4C439.3 265.6 443 273.9 443 273.9" stroke="#7C6F66" stroke-width="3" stroke-dasharray="22 12"/>
<path d="M451.4 305.1C451.4 305.1 455.1 314.5 457.6 318.8C460.8 324.4 465.3 329.2 468.4 334.9C470.5 338.8 473.7 347.3 473.7 347.3" stroke="#7C6F66" stroke-width="3" stroke-dasharray="22 12"/>
<path d="M437.1 211.6C437.1 211.6 440.2 220.1 442.3 224C443.3 225.8 444.5 227.5 445.5 229.3C447.2 232.6 450.1 240 450.1 240" stroke="#7C6F66" stroke-width="3" stroke-dasharray="22 12"/>
<path d="M176.8 156L186.9 168.1" stroke="#F9B75F" stroke-width="2" stroke-miterlimit="10" stroke-dasharray="6 6"/>
<path d="M317 705.8L320.9 705.8L320.9 712.4L317 712.4L317 705.8Z" fill="#C2DAE9"/>
<path d="M317 751.4L320.9 751.4L320.9 758L317 758L317 751.4Z" fill="#C2DAE9"/>
<path d="M317 789.6L320.9 789.6L320.9 796.2L317 796.2L317 789.6Z" fill="#C2DAE9"/>
<path d="M305.3 734.7L312.2 734.7L312.2 738.4L305.3 738.4L305.3 734.7Z" fill="#C2DAE9"/>
<path d="M305.3 771.7L312.2 771.7L312.2 775.4L305.3 775.4L305.3 771.7Z" fill="#C2DAE9"/>
<path d="M305.3 812.1L312.2 812.1L312.2 815.8L305.3 815.8L305.3 812.1Z" fill="#C2DAE9"/>
<path d="M390.7 414.3L390.7 420.1L390.3 420.1L390.3 418.6L383.8 418.6L383.8 433.6L390.3 433.6L390.3 432.1L390.7 432.1L390.7 438.2L392.5 438.2L392.5 438.5L395.7 438.5L395.7 438.2L397.3 438.2L397.3 430.2L390.7 430.2L390.7 430.6L390.3 430.6L390.3 430.2L387.8 430.2L387.8 422L390.3 422L390.3 421.6L390.7 421.6L390.7 422L397.3 422L397.3 414.2L390.7 414.3Z" fill="#FFE7CF" stroke="#2D2D2D" stroke-width="0.2"/>
<path d="M392.6 413.9L392.6 415.1L395.5 415.1L395.5 413.9L392.6 413.9ZM282.7 827.4L282.7 829.3L282.1 829.3L282.1 832L282.7 832L282.7 835.2L321.3 835.2L321.3 831.4L323.8 831.4L323.8 831.8L321.8 831.8L321.8 835.2L328.1 835.2L328.1 831.8L325.7 831.8L325.7 831.4L328.1 831.4L328.1 827.4L282.7 827.4Z" fill="#FFE7CF" stroke="#2D2D2D" stroke-width="0.2"/>
<path d="M256.4 340.9L256.4 341.4L255.4 341.4L255.4 346.3L258.3 346.3L258.3 348.8L262 348.8L262 356.2L265.9 356.2L265.9 356.7L267.9 356.7L267.9 356.2L270.1 356.2L270.1 354.3L263.8 354.3L263.8 346.3L261.2 346.3L261.2 341.4L258.5 341.4L258.5 340.9L256.4 340.9Z" fill="#FFE7CF" stroke="#2D2D2D" stroke-width="0.2"/>
<path d="M262.8 329.9L262.8 332.6L262.3 332.6L262.3 334.5L262.8 334.5L262.8 337.5L275.2 337.5L275.2 337.3L275.7 337.3L275.7 335.9L275.2 335.9L275.2 335.6L271 335.6L271 335.2L275.1 335.2L275.1 330L268.3 330L268.3 335.2L269.1 335.2L269.1 335.6L267.8 335.6L267.8 330L262.8 330L262.8 329.9Z" fill="#FFE7CF" stroke="#2D2D2D" stroke-width="0.2"/>
<path d="M185.6 307.7L185.6 322.5L185.2 322.5L185.2 319.4L179.4 319.4L179.4 324.7L185.2 324.7L185.2 324.2L185.6 324.2L185.6 325.1L179.4 325.1L179.4 341.7L185.2 341.7L185.2 347.3L186 347.3L186 358.9L189.2 358.9L189.2 347.3L197.3 347.3L197.3 345.1L203.5 345.1L203.5 340.7L204 340.7L204 337.9L203.5 337.9L203.5 337.3L197.3 337.3L197.3 335.1L203.5 335.1L203.5 329.7L201.6 329.7L201.6 331.7L197.3 331.7L197.3 329.7L197.1 329.7L197.1 329.3L203.5 329.3L203.5 328.7L203.9 328.7L203.9 325.7L203.5 325.7L203.5 325.1L195.7 325.1L195.7 329.4L195.9 329.4L195.9 329.8L195.4 329.8L195.4 319.5L189.1 319.5L189.1 307.8L185.6 307.7Z" fill="#FFE7CF" stroke="#2D2D2D" stroke-width="0.2"/>
<path d="M336.2 153.1L327.9 155.3L331.7 169.7L332.5 169.5L332.6 170L334.3 169.5L334.2 169L339.9 167.5L336.2 153.1Z" fill="#FFE7CF" stroke="#2D2D2D" stroke-width="0.2"/>
<path d="M432.5 856C433.3 855.7 439.4 854.5 439.4 854.5L442 842L420.2 758C420.2 758 413.5 750.8 411 751.4C408.5 752 405.2 761.3 405.2 761.3L424.2 844.8C424.3 844.7 431.8 856.2 432.5 856Z" fill="#9B9B9B" stroke="#444444" stroke-width="0.25" stroke-miterlimit="10"/>
<path d="M674.1 675.7C671.3 676.5 668.9 678.4 667.5 680.9L665.3 684.7C664.5 686 664.1 687.4 663.9 688.9L662.7 698.5C662.5 699.9 662.6 701.4 663 702.8L707.3 868.6L745.6 858.4L699.1 689.2C698.6 687.5 697.8 686 696.7 684.7L692.1 679.5C691 678.2 689.6 677.3 688.1 676.6L684.9 675.2C682.5 674.2 679.9 674 677.4 674.7L674.1 675.7Z" fill="#9B9B9B" stroke="#444444" stroke-width="0.25" stroke-miterlimit="10"/>
<path d="M602.1 351.8L595.3 359.1C594.1 360.3 593.4 361.9 593.1 363.6L591.2 374.9C591.1 375.6 591 376.4 591.1 377.1L606.7 545.2L646.2 542.7L629.7 373.5C629.7 373.1 629.6 372.7 629.5 372.4L627.2 362.6C626.7 360.4 625.4 358.6 623.5 357.3L613.1 350.4C611.2 349.1 608.9 348.7 606.6 349.1C605 349.6 603.4 350.5 602.1 351.8Z" fill="#9B9B9B" stroke="#444444" stroke-width="0.25" stroke-miterlimit="10"/>
<path d="M462.6 174.9L460.9 178.8C460.9 178.9 460.8 179 460.8 179.1L459 185.1C458.9 185.5 458.9 186 459 186.4L479.3 269C479.4 269.6 479.7 270.1 480 270.6L483.1 275.6C483.4 276.1 483.8 276.5 484.2 276.9L485.3 277.8C486.8 279 488.7 279.5 490.6 278.9C492.6 278.3 494.1 276.6 494.5 274.5L494.9 271.8C494.9 271.5 495 271.2 495 270.9L495 265.4C495 264.9 494.9 264.5 494.8 264L473.9 180.8C473.8 180.4 473.6 180.1 473.4 179.8L469.7 175.6C469.5 175.3 469.2 175.1 468.8 175L465.9 173.8C465.3 173.6 464.7 173.5 464.1 173.7C463.4 173.8 462.8 174.3 462.6 174.9Z" fill="#9B9B9B" stroke="#444444" stroke-width="0.25" stroke-miterlimit="10"/>
<path d="M437.3 108.1C436.8 108.7 436.5 109.4 436.5 110.2L436.5 113.8C436.5 114.3 436.6 114.7 436.8 115.1L446.6 135.7C446.7 136 446.9 136.3 447.1 136.5L449.2 138.7C449.8 139.3 450.5 139.6 451.3 139.7C452 139.7 452.9 139.7 453 139.6C453.1 139.5 453.7 139.2 454.3 138.8C455.2 138.2 455.8 137.2 455.8 136.2L455.8 135C455.8 134.6 455.7 134.1 455.5 133.7C453.8 130 444.8 110.5 444.7 110.3C444.6 110.1 442.8 108.7 442 108C441.7 107.8 441.4 107.6 441 107.5L440.4 107.3C439.4 106.9 438.2 107.2 437.3 108.1Z" fill="#9B9B9B" stroke="#444444" stroke-width="0.25" stroke-miterlimit="10"/>
<path d="M155.2 275.1C154.2 275.1 115.8 274.5 112 274.4C111.8 274.4 111.6 274.4 111.4 274.5L95.3999 279.1C94.4999 279.3 93.8999 280.1 93.8999 281C93.8999 281.9 94.4999 282.7 95.2999 282.9L107.9 286.8C108.1 286.9 108.3 286.9 108.5 286.9L155.6 286.9C155.7 286.9 156.2 275.1 155.2 275.1Z" fill="#9B9B9B" stroke="#444444" stroke-width="0.25" stroke-miterlimit="10"/>
<path d="M141.2 389.8C141.6 389.7 142 389.5 142.2 389.2L143.9 387.2C144.3 386.7 144.4 386.1 144.2 385.5L143.6 383.5C143.4 382.9 143 382.5 142.4 382.3L136.3 380.5C135.8 380.3 135.2 380.3 134.6 380.3L113 380.3L107.7 380.3C107.4 380.3 107.1 380.4 106.9 380.5L103.3 382.3C103.2 382.4 103.1 382.4 103 382.5L101.8 383.4C101.4 383.7 101.1 384.3 101.1 384.8C101.1 385.4 101.4 385.9 101.8 386.2L104.5 388.3C104.7 388.4 104.9 388.5 105.1 388.6L110 390.1C110.2 390.1 110.3 390.2 110.5 390.2C113.1 390.3 135.9 390.9 136.3 390.9C136.5 390.8 139.8 390.1 141.2 389.8Z" fill="#9B9B9B" stroke="#444444" stroke-width="0.25" stroke-miterlimit="10"/>
<path d="M358 796.2C358.5 795.9 365.2 784.5 366.2 782.7C366.3 782.5 366.4 782.4 366.4 782.2L379.1 737.7L368 734.7C368 734.7 355.2 780 355.2 780.6L354.6 793.9C354.6 794.3 354.7 794.6 354.8 795L354.9 795.2C355.6 796.3 356.9 796.8 358 796.2Z" fill="#9B9B9B" stroke="#444444" stroke-width="0.25" stroke-miterlimit="10"/>
<path d="M262.5 865.7L260.4 857.9C260.3 857.4 260 857 259.6 856.7C258.2 855.6 255 853.1 254.7 853.5C254.5 853.9 252.1 854.8 250.9 855.3C250.4 855.5 249.9 855.9 249.7 856.5L246.1 864.2C246 864.5 245.9 864.8 245.9 865.2L245.9 951.6C245.9 951.9 245.9 952.1 246 952.4L247.9 957.7C248 957.9 248.1 958.1 248.3 958.3L251.2 962C251.6 962.6 252.3 962.9 253 962.9C253.7 962.9 254.4 962.6 254.8 962C256 960.4 258.2 957.4 258.4 957.1C258.7 956.6 260.1 949.7 260.4 948.5C260.4 948.4 260.4 948.2 260.4 948.1L262.6 866.5C262.6 866.1 262.6 865.9 262.5 865.7Z" fill="#9B9B9B" stroke="#444444" stroke-width="0.25" stroke-miterlimit="10"/>
<path d="M773.9 680L776.7 679.2L777 680.2L781.1 679.2L780.8 678.1L789.1 676.1L789.4 677L793.9 675.7L793.7 674.8L795.8 674.2L784.4 631.7C783.9 630 783 628.5 781.7 627.3L779.9 625.7C779.1 625 778.2 624.4 777.3 624L776.9 623.8C774.9 623 772.7 622.8 770.6 623.5L770.3 623.6C768 624.3 766.2 625.8 765 627.9L764.1 629.5C763.7 630.2 763.4 631 763.2 631.8L762.4 635C762 636.5 762 638.1 762.5 639.7L773.9 680Z" fill="#9B9B9B" stroke="#444444" stroke-width="0.25" stroke-miterlimit="10"/>
<path d="M171 865.1L180.4 856.7C186.1 851.6 188.4 845.2 191 838L195 826.8C196.9 821.6 197.9 816 197.9 810.4L197.9 469.3L138.4 469.3L138.4 806.4C138.4 809.8 138.8 821.1 139.5 824.4L144.1 840.7C144.3 841.8 144.8 842.9 145.4 843.9L156.8 861.2C158.3 863.6 160.9 866.1 163.7 866.4C166.2 866.8 168.9 867 171 865.1Z" fill="#9B9B9B" stroke="#444444" stroke-width="0.25" stroke-miterlimit="10"/>
</g>
</g>
<defs>
<clipPath id="clip0_39_2">
<rect width="1044" height="888" fill="white" transform="translate(4.56347e-05 1044) rotate(-90)"/>
</clipPath>
</defs>
</svg>
