<svg width="912" height="743" viewBox="0 0 912 743" fill="none" xmlns="http://www.w3.org/2000/svg">
<path d="M432.1 191.9V408.1" stroke="#AAA9A9" stroke-width="0.5" stroke-miterlimit="10" stroke-dasharray="15 15"/>
<path d="M471.299 178.601V395.501" stroke="#AAA9A9" stroke-width="0.5" stroke-miterlimit="10" stroke-dasharray="15 15"/>
<path d="M476.199 298.8H540.599V299.9H542.199V298.8H542.499V269.9V267.3H540.399V215.5H578.599V213H575.999L575.699 185.2H578.799V183.5H575.499V159.9H538.799V185.2H560.799V183.5H558.799V161.8H573.899V183.5H571.899V185.2H573.899V196.1H468.799V298.8H474.099V299.7H476.199V298.8Z" stroke="#221F20" stroke-width="0.5" stroke-miterlimit="10"/>
<path d="M543.699 392.1V368.6H538.699V344.7H492.799V310.6H499.399V308.5H476.199V307.7H474.099V308.5H468.799V382.6H474.099V383.4H476.099V382.6H513.399V392.8V400.3H515.899H549.599V394.3V392.1H543.699Z" stroke="#221F20" stroke-width="0.5" stroke-miterlimit="10"/>
<path d="M593.4 185.201V213.001H578.7V215.501H593.7V267.301H551.5V269.901V298.801H588.8V299.601H590.7V298.801H590.9V295.901H602.8V245.301H602.6V243.001H602.8V180.701H595.4V176.601H593.4V183.501H590.7V185.201H593.4Z" stroke="#221F20" stroke-width="0.5" stroke-miterlimit="10"/>
<path d="M323.799 196.101H338.899H340.199H347.499H348.599H430.999V301.001H429.399V302.001V309.001V310.101H430.999V358.001H429.499V359.001V366.101V367.201H430.999V392.901H438.599H446.199H450.899V334.501H452.499V392.901H474.099V391.401V383.501V382.701H473.599V308.401H474.099V307.601V299.701V298.801H473.999V196.101H573.799V185.301H571.799H560.699H545.999V160.001H575.399V183.501H578.699H590.599H593.399V176.501V168.501V146.901H528.999V173.601H491.599V85.1006H479.599H471.999H452.799V90.9006V102.701V110.701H462.099H469.599H474.999V142.701H428.099V110.701H433.999H441.299H450.699V102.701V90.9006V85.1006H407.699V92.4006H374.999V116.001H378.799H383.599V109.001H386.199V114.201H404.999V107.901H393.799V106.001H407.699V107.801V114.101V115.901V171.401V173.501H366.499V128.601H355.199H328.799V129.701V139.001V139.901H355.199V173.601H323.799V178.701V191.401V196.101ZM452.499 326.501H450.899V277.501H452.499V326.501ZM428.199 168.801H434.499V151.801H428.199V149.301H471.999V173.601H452.499V178.701V191.301V258.001H450.899V191.201V178.601V173.501H428.399L428.199 168.801Z" fill="#D4EBF7" stroke="#221F20" stroke-width="0.5" stroke-miterlimit="10"/>
<path d="M450.9 110.801H441.5V112.801H462.1V110.801H452.8V102.601H450.9V110.801Z" stroke="#221F20" stroke-width="0.5" stroke-miterlimit="10"/>
<path d="M599.799 350.7V311.7H590.899V308.5H590.699V307.7H588.799V308.5H542.199V307.7H540.599V308.5H510.699V310.6H538.699V334.5H543.699V358.3L572.299 356.1V392.1H558.799V394.3V400.3H585.799V401.5H587.699V397.5H599.799V352.7H602.799V350.7H599.799Z" stroke="#221F20" stroke-width="0.5" stroke-miterlimit="10"/>
<path d="M492.799 310.6V344.7H538.699V368.6H543.699V392.1H549.599H558.799H572.299V356.1H550.899V334.5H538.699V310.6H510.699H499.399H492.799Z" fill="#BBBBBB" stroke="#221F20" stroke-width="0.5" stroke-miterlimit="10"/>
<path d="M474.099 392.8H452.499V334.4H450.899V392.8H446.199V394.3H470.299V398.4H472.499V394.3H498.399V410.3H472.499V406.3H470.299V434.1H433.099V406.3H431.099V410.3H410.799V394.3H431.099V398.4H433.099V394.3H438.599V392.8H431.099V367H429.499V365.9H427.499V367H388.999V410.2H388.299V412.3H419.899V423.2H421.499V412.3H431.999V434.1H421.499V431.3H419.899V471.7V482.7H412.699V484.3H440.699V521.5H399.499V527.5H401.499V523.4H440.699V539.3H401.499V535.5H399.499V539.3H393.799V541.6H472.199L468.399 539.3H461.899V516.8H482.299V539.3H475.899L475.999 541.7L484.399 541.6V543.5H486.499V538L503.899 538.3V538H504.999V536.2H503.899V392.8H476.099V391.4H474.099V392.8Z" stroke="#221F20" stroke-width="0.5" stroke-miterlimit="10"/>
<path d="M315.499 482.7V482.2H313.899V482.8H287.599V482.1H285.799V482.8H255.299V482.1H253.199V543.5H255.399V541.6H329.099V543.5H331.399V484.2H333.199V482.7H315.499Z" stroke="#221F20" stroke-width="0.5" stroke-miterlimit="10"/>
<path d="M585.8 400.3H558.8V394.3H549.6V400.3H515.9V410.2H585.8V409.3V401.5V400.3Z" fill="#F7F4B6" stroke="#221F20" stroke-width="0.5" stroke-miterlimit="10"/>
<path d="M429.5 357.9H431.1V310H429.4V309H427.5V310H389V357.9H427.5V358.9H429.5V357.9Z" stroke="#221F20" stroke-width="0.5" stroke-miterlimit="10"/>
<path d="M473.399 112.8V140.5H430.299V112.8H434.099V110.8H428.199V142.6H474.999V110.8H469.599V112.8H473.399Z" stroke="#221F20" stroke-width="0.5" stroke-miterlimit="10"/>
<path d="M429.4 301.001H431.1V196.101H348.5H347.5V198.301H348.5V262.901H350.1V262.001H377.9V262.901H379.8V262.001L389 262.901V301.901L427.5 301.001V302.001H429.4V301.001Z" stroke="#221F20" stroke-width="0.5" stroke-miterlimit="10"/>
<path d="M513.4 392.8V382.6H476.1V383.4V391.4V392.8H503.9V536.2H505H512.4H513.4V505.7H518.8V495.9H513.4V452H518.9V442.1H513.4V410.2V400.3V392.8Z" fill="#F7F4B6" stroke="#221F20" stroke-width="0.5" stroke-miterlimit="10"/>
<path d="M338.799 196.1H323.799V191.3H321.999V196.1H283.299V198.2H309.099V221.5V231.1H322.099V251.2H306.099V252.4H316.399V255.4H318.299V252.4H338.299V198.3H340.099V196.1H338.799Z" stroke="#221F20" stroke-width="0.5" stroke-miterlimit="10"/>
<path d="M322.099 251.2V231.1H309.099V221.5V198.2H278.199H270.599H256.199V226.3H279.599V229.3V251.2H298.599H306.099H322.099Z" fill="#BBBBBB" stroke="#221F20" stroke-width="0.5" stroke-miterlimit="10"/>
<path d="M593.7 267.3V215.5H578.7H571.1H540.4V267.3H542.5H551.5H593.7Z" fill="#BBBBBB" stroke="#221F20" stroke-width="0.5" stroke-miterlimit="10"/>
<path d="M433.1 394.3V398.4V406.2V433.8H470.2V406.2V398.4V394.3H446.2H438.6H433.1ZM441.7 403.3H462V425.2H441.7V403.3Z" fill="#D4EBF7" stroke="#221F20" stroke-width="0.5" stroke-miterlimit="10"/>
<path d="M283.199 196.101H275.799V198.201H283.199V196.101Z" fill="#AED2A0" stroke="#221F20" stroke-width="0.5" stroke-miterlimit="10"/>
<path d="M305.9 251.2H298.6V252.5H305.9V251.2Z" fill="#AED2A0" stroke="#221F20" stroke-width="0.5" stroke-miterlimit="10"/>
<path d="M586.199 213H578.699V215.4H586.199V213Z" fill="#AED2A0" stroke="#221F20" stroke-width="0.5" stroke-miterlimit="10"/>
<path d="M510.6 308.5H499.4V310.7H510.6V308.5Z" fill="#AED2A0" stroke="#221F20" stroke-width="0.5" stroke-miterlimit="10"/>
<path d="M446.2 392.8H438.6V394.4H446.2V392.8Z" fill="#AED2A0" stroke="#221F20" stroke-width="0.5" stroke-miterlimit="10"/>
<path d="M431.099 394.3H410.799V410.3H431.099V406.3V398.4V394.3Z" fill="#F9D577" stroke="#221F20" stroke-width="0.5" stroke-miterlimit="10"/>
<path d="M433.2 398.4H431.1V406.2H433.2V398.4Z" fill="#AED2A0" stroke="#221F20" stroke-width="0.5" stroke-miterlimit="10"/>
<path d="M472.5 410.3H498.4V394.3H472.5V398.4V406.3V410.3Z" fill="#F9D577" stroke="#221F20" stroke-width="0.5" stroke-miterlimit="10"/>
<path d="M472.399 398.4H470.299V406.2H472.399V398.4Z" fill="#AED2A0" stroke="#221F20" stroke-width="0.5" stroke-miterlimit="10"/>
<path d="M412.5 482.7H405.1V484.2H412.5V482.7Z" fill="#AED2A0" stroke="#221F20" stroke-width="0.5" stroke-miterlimit="10"/>
<path d="M393.8 539.3H386.5V541.7H393.8V539.3Z" fill="#AED2A0" stroke="#221F20" stroke-width="0.5" stroke-miterlimit="10"/>
<path d="M482.3 539.3V516.8H461.9V539.3H468.4H475.9H482.3Z" fill="#F9D577" stroke="#221F20" stroke-width="0.5" stroke-miterlimit="10"/>
<path d="M476 539.3H468.4V541.7H476V539.3Z" fill="#AED2A0" stroke="#221F20" stroke-width="0.5" stroke-miterlimit="10"/>
<path d="M234.199 559.4V581.2H256.099V559.4H249.699H240.399H234.199Z" fill="#F9D577" stroke="#221F20" stroke-width="0.5" stroke-miterlimit="10"/>
<path d="M249.5 557.3H240.4V559.4H249.5V557.3Z" fill="#AED2A0" stroke="#221F20" stroke-width="0.5" stroke-miterlimit="10"/>
<path d="M326.199 110.8H311.299V140H326.199V139.1V129.7V110.8Z" fill="#F9D577" stroke="#221F20" stroke-width="0.5" stroke-miterlimit="10"/>
<path d="M328.599 129.7H326.199V139.1H328.599V129.7Z" fill="#AED2A0" stroke="#221F20" stroke-width="0.5" stroke-miterlimit="10"/>
<path d="M480.299 83.9002V75.7002H471.199V83.9002H471.899H479.499H480.299Z" fill="#F9D577" stroke="#221F20" stroke-width="0.5" stroke-miterlimit="10"/>
<path d="M479.4 83.9004H471.9V85.3004H479.4V83.9004Z" fill="#AED2A0" stroke="#221F20" stroke-width="0.5" stroke-miterlimit="10"/>
<path d="M573.899 183.5V161.8H558.799V183.5H560.799H571.899H573.899Z" fill="#F9D577" stroke="#221F20" stroke-width="0.5" stroke-miterlimit="10"/>
<path d="M571.899 183.5H560.799V185.2H571.899V183.5Z" fill="#AED2A0" stroke="#221F20" stroke-width="0.5" stroke-miterlimit="10"/>
<path d="M552.5 545.4H545V547.6H552.5V545.4Z" fill="#AED2A0" stroke="#221F20" stroke-width="0.5" stroke-miterlimit="10"/>
<path d="M486.6 543.5H484.4V555.3H486.6V543.5Z" fill="#AED2A0" stroke="#221F20" stroke-width="0.5" stroke-miterlimit="10"/>
<path d="M484.4 541.6H479.7H472.2H393.8H386.5H350.5V543.5V555.2V557.3H427.5H435H442.5H450H484.4V555.2V543.5V541.6Z" fill="#EED7E5" stroke="#221F20" stroke-width="0.5" stroke-miterlimit="10"/>
<path d="M350.499 543.5H348.299V555.3H350.499V543.5Z" fill="#AED2A0" stroke="#221F20" stroke-width="0.5" stroke-miterlimit="10"/>
<path d="M331.3 543.5H329.1V555.3H331.3V543.5Z" fill="#AED2A0" stroke="#221F20" stroke-width="0.5" stroke-miterlimit="10"/>
<path d="M329.1 541.6H255.4V543.5V555.2V557.3H329.1V555.2V543.5V541.6Z" fill="#EED7E5" stroke="#221F20" stroke-width="0.5" stroke-miterlimit="10"/>
<path d="M255.399 543.5H253.199V555.3H255.399V543.5Z" fill="#AED2A0" stroke="#221F20" stroke-width="0.5" stroke-miterlimit="10"/>
<path d="M512.3 536.2H505V538H512.3V536.2Z" fill="#AED2A0" stroke="#221F20" stroke-width="0.5" stroke-miterlimit="10"/>
<path d="M515.9 400.3H513.4V410.2H515.9V400.3Z" fill="#AED2A0" stroke="#221F20" stroke-width="0.5" stroke-miterlimit="10"/>
<path d="M476.1 383.4H474.1V391.3H476.1V383.4Z" fill="#AED2A0" stroke="#221F20" stroke-width="0.5" stroke-miterlimit="10"/>
<path d="M429.5 358.9H427.5V366H429.5V358.9Z" fill="#AED2A0" stroke="#221F20" stroke-width="0.5" stroke-miterlimit="10"/>
<path d="M429.4 302H427.5V309H429.4V302Z" fill="#AED2A0" stroke="#221F20" stroke-width="0.5" stroke-miterlimit="10"/>
<path d="M476.2 299.7H474.1V307.6H476.2V299.7Z" fill="#AED2A0" stroke="#221F20" stroke-width="0.5" stroke-miterlimit="10"/>
<path d="M540.599 298.8H476.199V299.7V307.7V308.5H499.399H510.699H540.599V307.7V299.9V298.8Z" fill="#F7F4B6" stroke="#221F20" stroke-width="0.5" stroke-miterlimit="10"/>
<path d="M542.2 299.9H540.6V307.6H542.2V299.9Z" fill="#AED2A0" stroke="#221F20" stroke-width="0.5" stroke-miterlimit="10"/>
<path d="M590.599 299.6H588.799V307.6H590.599V299.6Z" fill="#AED2A0" stroke="#221F20" stroke-width="0.5" stroke-miterlimit="10"/>
<path d="M610.299 350.7H602.799V352.8H610.299V350.7Z" fill="#AED2A0" stroke="#221F20" stroke-width="0.5" stroke-miterlimit="10"/>
<path d="M379.9 262.9H377.9V271.6H379.9V262.9Z" fill="#AED2A0" stroke="#221F20" stroke-width="0.5" stroke-miterlimit="10"/>
<path d="M377.9 262H350.1V262.9V271.6V272.6H377.9V271.6V262.9V262Z" fill="#D4EBF7" stroke="#221F20" stroke-width="0.5" stroke-miterlimit="10"/>
<path d="M350.2 262.9H348.5V271.6H350.2V262.9Z" fill="#AED2A0" stroke="#221F20" stroke-width="0.5" stroke-miterlimit="10"/>
<path d="M318.4 255.4H316.4V260.8H318.4V255.4Z" fill="#AED2A0" stroke="#221F20" stroke-width="0.5" stroke-miterlimit="10"/>
<path d="M323.7 178.601H322V191.301H323.7V178.601Z" fill="#AED2A0" stroke="#221F20" stroke-width="0.5" stroke-miterlimit="10"/>
<path d="M347.4 196.101H340.1V198.301H347.4V196.101Z" fill="#AED2A0" stroke="#221F20" stroke-width="0.5" stroke-miterlimit="10"/>
<path d="M595.4 168.601H593.4V176.601H595.4V168.601Z" fill="#AED2A0" stroke="#221F20" stroke-width="0.5" stroke-miterlimit="10"/>
<path d="M590.699 183.5H578.799V185.2H590.699V183.5Z" fill="#AED2A0" stroke="#221F20" stroke-width="0.5" stroke-miterlimit="10"/>
<path d="M610.1 243H602.6V245.2H610.1V243Z" fill="#AED2A0" stroke="#221F20" stroke-width="0.5" stroke-miterlimit="10"/>
<path d="M558.8 392.1H549.6V394.3H558.8V392.1Z" fill="#AED2A0" stroke="#221F20" stroke-width="0.5" stroke-miterlimit="10"/>
<path d="M587.699 401.5H585.799V409.3H587.699V401.5Z" fill="#AED2A0" stroke="#221F20" stroke-width="0.5" stroke-miterlimit="10"/>
<path d="M255.299 472.7H253.199V482.1H255.299V472.7Z" fill="#AED2A0" stroke="#221F20" stroke-width="0.5" stroke-miterlimit="10"/>
<path d="M255.299 482.8H285.799V482.1V472.6V471.7H255.299V472.7V482.1V482.8Z" fill="#EED7E5" stroke="#221F20" stroke-width="0.5" stroke-miterlimit="10"/>
<path d="M287.699 472.6H285.799V482.1H287.699V472.6Z" fill="#AED2A0" stroke="#221F20" stroke-width="0.5" stroke-miterlimit="10"/>
<path d="M315.5 472.5H313.9V482.1H315.5V472.5Z" fill="#AED2A0" stroke="#221F20" stroke-width="0.5" stroke-miterlimit="10"/>
<path d="M346.499 482.7H333.199V484.2H346.499V482.7Z" fill="#AED2A0" stroke="#221F20" stroke-width="0.5" stroke-miterlimit="10"/>
<path d="M315.5 482.7H333.2H346.5H372.5V482.2V472.7L374.7 471.7H317.7L315.5 472.5V482.2V482.7Z" fill="#EED7E5" stroke="#221F20" stroke-width="0.5" stroke-miterlimit="10"/>
<path d="M374.5 472.7H372.5V482.2H374.5V472.7Z" fill="#AED2A0" stroke="#221F20" stroke-width="0.5" stroke-miterlimit="10"/>
<path d="M388.099 410.2H380.699V412.3H388.099V410.2Z" fill="#AED2A0" stroke="#221F20" stroke-width="0.5" stroke-miterlimit="10"/>
<path d="M452.5 277.5H450.9V326.5H452.5V277.5Z" stroke="#221F20" stroke-width="0.5" stroke-miterlimit="10"/>
<path d="M383.699 116H376.199V117.8H383.699V116Z" fill="#AED2A0" stroke="#221F20" stroke-width="0.5" stroke-miterlimit="10"/>
<path d="M452.5 191.3H450.9V258.1H452.5V191.3Z" stroke="#221F20" stroke-width="0.5" stroke-miterlimit="10"/>
<path d="M450.899 178.7H452.499V173.6H471.999V149.3H428.199V151.8H434.399V168.8H428.199V173.6H450.899V178.7Z" stroke="#221F20" stroke-width="0.5" stroke-miterlimit="10"/>
<path d="M348.3 484.2H346.5H333.2H331.4V543.5V555.2V557.3H348.3V555.2V543.5V484.2Z" fill="#EED7E5" stroke="#221F20" stroke-width="0.5" stroke-miterlimit="10"/>
<path d="M374 117.8V173.3H408V117.8H397.8H382.8H381H374Z" fill="#BBBBBB" stroke="#221F20" stroke-width="0.5" stroke-miterlimit="10"/>
<path d="M316.4 252.4H306.1H298.6H294.1V272.6H316.4V260.8V255.4V252.4Z" fill="#D4EBF7" stroke="#221F20" stroke-width="0.5" stroke-miterlimit="10"/>
<path d="M419.9 482.7V471.7V431.3V423.2V412.3H388.3H380.7H379.8V422.1H402.4V471.7H374.5V482.7H405.1H412.7H419.9Z" fill="#EED7E5" stroke="#221F20" stroke-width="0.5" stroke-miterlimit="10"/>
<path d="M389 410.2V367H427.5V365.9V358.9V357.9H389V310H427.5V309V302V301L389 300.7V262H379.8V262.9V271.6V301H368.5V310H379.8V357.9H368.5V367H379.8V410.2H380.7H388.3H389Z" fill="#F7F4B6" stroke="#221F20" stroke-width="0.5" stroke-miterlimit="10"/>
<path d="M348.499 198.3H347.499H340.099H338.299V252.4H318.299V255.4V260.8V272.6H348.499V271.6V262.9V198.3Z" fill="#D4EBF7" stroke="#221F20" stroke-width="0.5" stroke-miterlimit="10"/>
<path d="M322 196.101V191.301V178.601V173.601H229.6V196.101H270.6H278.2H322Z" fill="#D4EBF7" stroke="#221F20" stroke-width="0.5" stroke-miterlimit="10"/>
<path d="M588.799 298.8H551.499V269.9H542.499V298.8H542.199V299.9V307.7V308.5H588.799V307.7V299.6V298.8Z" fill="#F7F4B6" stroke="#221F20" stroke-width="0.5" stroke-miterlimit="10"/>
<path d="M551.6 267.3H542.5V270H551.6V267.3Z" fill="#AED2A0" stroke="#221F20" stroke-width="0.5" stroke-miterlimit="10"/>
<path d="M665.099 484.2V501.9C614.499 505.3 614.099 467.1 614.099 467.1V352.8H610.499H602.999H599.999V397.5H587.799V401.5V409.3V413.2H599.999V467C599.999 467 596.099 519.2 665.099 515.3V537.1L706.299 537.4V521.2L679.899 516.4V497.2H706.299V484.1H665.099V484.2Z" fill="#F7F4B6" stroke="#221F20" stroke-width="0.5" stroke-miterlimit="10"/>
<path d="M599.799 245.3V295.9H590.899V298.8H590.699V299.6V307.7V308.5H590.899V311.7H599.799V350.7H602.799H610.399H613.899V245.3H610.099H602.599H599.799Z" fill="#F7F4B6" stroke="#221F20" stroke-width="0.5" stroke-miterlimit="10"/>
<path d="M253.2 482.1V472.7V471.7H236.9V542.6V557.3H240.4H249.7H253.2V555.2V543.5V482.1Z" fill="#EED7E5" stroke="#221F20" stroke-width="0.5" stroke-miterlimit="10"/>
<path d="M503.9 538V538.3L486.5 538V543.5V555.2V557.3H557.3V547.4H552.6H545H523.7V538.3H513.4V538H512.4H505H503.9Z" fill="#EED7E5" stroke="#221F20" stroke-width="0.5" stroke-miterlimit="10"/>
<path d="M557.299 545.4V523.5H525.699V545.4H544.999H552.599H557.299Z" fill="#D4EBF7" stroke="#221F20" stroke-width="0.5" stroke-miterlimit="10"/>
<path d="M287.6 482.8H313.9V482.2V472.5V465.8H287.6V472.6V482.1V482.8Z" fill="#EED7E5" stroke="#221F20" stroke-width="0.5" stroke-miterlimit="10"/>
<path d="M593.4 213V185.2H590.7H578.8H575.6L575.9 213H578.5H586H593.4Z" fill="#D4EBF7" stroke="#221F20" stroke-width="0.5" stroke-miterlimit="10"/>
<path d="M430.299 112.8V140.5H473.399V112.8H469.599H462.099H441.499H434.099H430.299Z" fill="#BBBBBB" stroke="#221F20" stroke-width="0.5" stroke-miterlimit="10"/>
<path d="M452.7 90.9004H450.9V102.6H452.7V90.9004Z" fill="#AED2A0" stroke="#221F20" stroke-width="0.5" stroke-miterlimit="10"/>
<path d="M469.6 110.8H462.1V112.9H469.6V110.8Z" fill="#AED2A0" stroke="#221F20" stroke-width="0.5" stroke-miterlimit="10"/>
<path d="M441.4 110.8H434.1V112.9H441.4V110.8Z" fill="#AED2A0" stroke="#221F20" stroke-width="0.5" stroke-miterlimit="10"/>
<path d="M452.5 178.7H450.9V191.3H452.5V178.7Z" fill="#AED2A0" stroke="#221F20" stroke-width="0.5" stroke-miterlimit="10"/>
<path d="M396.2 119.3H388.5V125.6H396.2V119.3Z" fill="#F9D577" stroke="#221F20" stroke-width="0.5" stroke-miterlimit="10"/>
<path d="M396.2 144.9H388.5V151.2H396.2V144.9Z" fill="#F9D577" stroke="#221F20" stroke-width="0.5" stroke-miterlimit="10"/>
<path d="M461.9 403.3H441.6V425.2H461.9V403.3ZM460.2 423.2H443.2V405H460.2V423.2Z" stroke="#221F20" stroke-width="0.5" stroke-miterlimit="10"/>
<path d="M460.299 405.3H443.299V423.5H460.299V405.3Z" fill="#97857A" stroke="#221F20" stroke-width="0.5" stroke-miterlimit="10"/>
<path d="M399.499 539.3V535.5V527.6V521.6H440.699V484.2H412.699H405.299H384.199V539.2H386.599H393.899L399.499 539.3ZM385.499 511.5V494H398.499V511.5H385.499Z" fill="#BBBBBB" stroke="#221F20" stroke-width="0.5" stroke-miterlimit="10"/>
<path d="M398.5 494.1H385.5V511.6H398.5V494.1Z" stroke="#221F20" stroke-width="0.5" stroke-miterlimit="10"/>
<path d="M401.5 539.3H440.7V523.4H401.5V527.5V535.5V539.3Z" fill="#BBBBBB" stroke="#221F20" stroke-width="0.5" stroke-miterlimit="10"/>
<path d="M401.6 527.5H399.5V535.5H401.6V527.5Z" fill="#AED2A0" stroke="#221F20" stroke-width="0.5" stroke-miterlimit="10"/>
<path d="M431.1 559.1V568.2H441.3V559.1H439.1H433.2H431.1Z" fill="#97857A" stroke="#221F20" stroke-width="0.5" stroke-miterlimit="10"/>
<path d="M442.699 559.1V568.2H452.699V559.1H450.599H444.899H442.699Z" fill="#F9D577" stroke="#221F20" stroke-width="0.5" stroke-miterlimit="10"/>
<path d="M450.8 557.3H444.9V559.1H450.8V557.3Z" fill="#AED2A0" stroke="#221F20" stroke-width="0.5" stroke-miterlimit="10"/>
<path d="M439.099 557.3H433.199V559.1H439.099V557.3Z" fill="#AED2A0" stroke="#221F20" stroke-width="0.5" stroke-miterlimit="10"/>
<path d="M730.8 497.3H680V526H730.8V497.3Z" fill="#97857A" stroke="#221F20" stroke-width="0.5" stroke-miterlimit="10"/>
<path d="M421.5 434.1H432V412.3H421.5V423.2V431.3V434.1Z" fill="#97857A" stroke="#221F20" stroke-width="0.5" stroke-miterlimit="10"/>
<path d="M421.5 423.2H419.9V431.1H421.5V423.2Z" fill="#AED2A0" stroke="#221F20" stroke-width="0.5" stroke-miterlimit="10"/>
<path d="M673.6 146.9V161.8H613.9H595.4V168.6V176.6V180.7H599.8V243.1H602.6H610.1H613.9V177.9H673.6V190.6H687.6V146.9H673.6Z" fill="#F7F4B6" stroke="#221F20" stroke-width="0.5" stroke-miterlimit="10"/>
<path d="M399.699 136.3H384.199V144.8H399.699V136.3Z" fill="#9FD0CB" stroke="#221F20" stroke-width="0.5" stroke-miterlimit="10"/>
<path d="M399.699 125.601H384.199V134.101H399.699V125.601Z" fill="#9FD0CB" stroke="#221F20" stroke-width="0.5" stroke-miterlimit="10"/>
<path d="M463.499 122.2H459.299V131.2H463.499V122.2Z" fill="#97857A" stroke="#221F20" stroke-width="0.5" stroke-miterlimit="10"/>
<path d="M444.7 122.2H440.5V131.2H444.7V122.2Z" fill="#97857A" stroke="#221F20" stroke-width="0.5" stroke-miterlimit="10"/>
<path d="M593.4 185.2H585.6V191H593.4V185.2Z" fill="#97857A" stroke="#221F20" stroke-width="0.5" stroke-miterlimit="10"/>
<path d="M593.499 196.2H583.299V202H593.499V196.2Z" fill="#97857A" stroke="#221F20" stroke-width="0.5" stroke-miterlimit="10"/>
<path d="M593.499 207.3H583.299V213.1H593.499V207.3Z" fill="#97857A" stroke="#221F20" stroke-width="0.5" stroke-miterlimit="10"/>
<path d="M278.1 208H271.4V216.9H278.1V208Z" fill="#97857A" stroke="#221F20" stroke-width="0.5" stroke-miterlimit="10"/>
<path d="M299.899 210.3H293.199V216.3H299.899V210.3Z" fill="#97857A" stroke="#221F20" stroke-width="0.5" stroke-miterlimit="10"/>
<path d="M263.8 212.4H257.1V224.6H263.8V212.4Z" fill="#97857A" stroke="#221F20" stroke-width="0.5" stroke-miterlimit="10"/>
<path d="M312.599 237.8H303.699V244.5H312.599V237.8Z" fill="#97857A" stroke="#221F20" stroke-width="0.5" stroke-miterlimit="10"/>
<path d="M308.199 199.7H288.199V208H308.199V199.7Z" fill="#97857A" stroke="#221F20" stroke-width="0.5" stroke-miterlimit="10"/>
<path d="M291 228.7H282.9V249H291V228.7Z" fill="#97857A" stroke="#221F20" stroke-width="0.5" stroke-miterlimit="10"/>
<path d="M503.7 318.6H498V330.6H503.7V318.6Z" fill="#97857A" stroke="#221F20" stroke-width="0.5" stroke-miterlimit="10"/>
<path d="M514.699 319.7H510.799V323.8H514.699V319.7Z" fill="#97857A" stroke="#221F20" stroke-width="0.5" stroke-miterlimit="10"/>
<path d="M514.699 325.8H510.799V329.9H514.699V325.8Z" fill="#97857A" stroke="#221F20" stroke-width="0.5" stroke-miterlimit="10"/>
<path d="M521.4 319.7H517.5V323.8H521.4V319.7Z" fill="#97857A" stroke="#221F20" stroke-width="0.5" stroke-miterlimit="10"/>
<path d="M521.4 325.8H517.5V329.9H521.4V325.8Z" fill="#97857A" stroke="#221F20" stroke-width="0.5" stroke-miterlimit="10"/>
<path d="M527.9 319.7H524V323.8H527.9V319.7Z" fill="#97857A" stroke="#221F20" stroke-width="0.5" stroke-miterlimit="10"/>
<path d="M527.9 325.8H524V329.9H527.9V325.8Z" fill="#97857A" stroke="#221F20" stroke-width="0.5" stroke-miterlimit="10"/>
<path d="M534.4 319.7H530.5V323.8H534.4V319.7Z" fill="#97857A" stroke="#221F20" stroke-width="0.5" stroke-miterlimit="10"/>
<path d="M534.4 325.8H530.5V329.9H534.4V325.8Z" fill="#97857A" stroke="#221F20" stroke-width="0.5" stroke-miterlimit="10"/>
<path d="M574 224.4H551.5V236.4H574V224.4Z" fill="#9FD0CB" stroke="#221F20" stroke-width="0.5" stroke-miterlimit="10"/>
<path d="M574 246.4H551.5V258.4H574V246.4Z" fill="#9FD0CB" stroke="#221F20" stroke-width="0.5" stroke-miterlimit="10"/>
<path d="M435.099 493.3H416.199V502.1H435.099V493.3Z" fill="#9FD0CB" stroke="#221F20" stroke-width="0.5" stroke-miterlimit="10"/>
<path d="M435.099 506.1H416.199V514.9H435.099V506.1Z" fill="#9FD0CB" stroke="#221F20" stroke-width="0.5" stroke-miterlimit="10"/>
<path d="M549.999 528.4H544.199V540.4H549.999V528.4Z" fill="#97857A" stroke="#221F20" stroke-width="0.5" stroke-miterlimit="10"/>
<path d="M538.7 528.4H532.9V540.4H538.7V528.4Z" fill="#97857A" stroke="#221F20" stroke-width="0.5" stroke-miterlimit="10"/>
</svg>
