<svg width="912" height="743" viewBox="0 0 912 743" fill="none" xmlns="http://www.w3.org/2000/svg">
<path d="M314.2 430.3H258.4V485.7H314.2V430.3Z" fill="#FFFBDE" stroke="#221F20" stroke-width="0.5" stroke-miterlimit="10"/>
<path d="M269.2 429H258.6V430.9H269.2V429Z" fill="#8CCEF0" stroke="#221F20" stroke-width="0.5" stroke-miterlimit="10"/>
<path d="M283.301 429H272.701V430.9H283.301V429Z" fill="#AED2A0" stroke="#221F20" stroke-width="0.5" stroke-miterlimit="10"/>
<path d="M297.301 429H286.701V430.9H297.301V429Z" fill="#AED2A0" stroke="#221F20" stroke-width="0.5" stroke-miterlimit="10"/>
<path d="M311.5 429H300.9V430.9H311.5V429Z" fill="#8CCEF0" stroke="#221F20" stroke-width="0.5" stroke-miterlimit="10"/>
<path d="M315.101 432.6H313.201V480.1H315.101V432.6Z" fill="#8CCEF0" stroke="#221F20" stroke-width="0.5" stroke-miterlimit="10"/>
<path d="M214.7 512.2H176.9V527.1H214.7V512.2Z" fill="#C8C8C8" stroke="#221F20" stroke-width="0.5" stroke-miterlimit="10"/>
<path d="M231.701 512.2H216.801V527.1H231.701V512.2Z" fill="#C8C8C8" stroke="#221F20" stroke-width="0.5" stroke-miterlimit="10"/>
<path d="M216.901 516H214.701V523.6H216.901V516Z" fill="#AED2A0" stroke="#221F20" stroke-width="0.5" stroke-miterlimit="10"/>
<path d="M233.601 516H231.701V523.6H233.601V516Z" fill="#AED2A0" stroke="#221F20" stroke-width="0.5" stroke-miterlimit="10"/>
<path d="M214.7 531.6H176.9V546.5H214.7V531.6Z" fill="#C8C8C8" stroke="#221F20" stroke-width="0.5" stroke-miterlimit="10"/>
<path d="M231.701 531.6H216.801V546.5H231.701V531.6Z" fill="#C8C8C8" stroke="#221F20" stroke-width="0.5" stroke-miterlimit="10"/>
<path d="M216.901 535.4H214.701V543H216.901V535.4Z" fill="#AED2A0" stroke="#221F20" stroke-width="0.5" stroke-miterlimit="10"/>
<path d="M233.601 535.4H231.701V543H233.601V535.4Z" fill="#AED2A0" stroke="#221F20" stroke-width="0.5" stroke-miterlimit="10"/>
<path d="M256.9 541.6V509.4H233.5V560.4H252.5H330.9V541.6H256.9Z" fill="#D4EBF7" stroke="#221F20" stroke-width="0.5" stroke-miterlimit="10"/>
<path d="M254.401 561.6H235.301V580.7H254.401V561.6Z" fill="#F9D577" stroke="#221F20" stroke-width="0.5" stroke-miterlimit="10"/>
<path d="M248.3 560.4H241.5V561.6H248.3V560.4Z" fill="#AED2A0" stroke="#221F20" stroke-width="0.5" stroke-miterlimit="10"/>
<path d="M272.4 561.2H262V569.5H272.4V561.2Z" fill="#F9D577" stroke="#221F20" stroke-width="0.5" stroke-miterlimit="10"/>
<path d="M270.101 560.4H264.701V561.1H270.101V560.4Z" fill="#AED2A0" stroke="#221F20" stroke-width="0.25" stroke-miterlimit="10"/>
<path d="M635 485H609.6V535.9H635V485Z" fill="#C8C8C8" stroke="#221F20" stroke-width="0.5" stroke-miterlimit="10"/>
<path d="M635 537.8H609.6V543.8H635V537.8Z" fill="#C8C8C8" stroke="#221F20" stroke-width="0.5" stroke-miterlimit="10"/>
<path d="M631.6 543.8H609.6V560H631.6V543.8Z" fill="#F9D577" stroke="#221F20" stroke-width="0.5" stroke-miterlimit="10"/>
<path d="M609.601 489.3H492.201V498.5H609.601V489.3Z" fill="#C8C8C8" stroke="#221F20" stroke-width="0.5" stroke-miterlimit="10"/>
<path d="M503.9 485.7H493.4V489.3H503.9V485.7Z" fill="#AED2A0" stroke="#221F20" stroke-width="0.5" stroke-miterlimit="10"/>
<path d="M542 486.6H520.4V489.3H542V486.6Z" fill="#5578B7" stroke="#221F20" stroke-width="0.5" stroke-miterlimit="10"/>
<path d="M568.9 485.7H558.4V489.3H568.9V485.7Z" fill="#AED2A0" stroke="#221F20" stroke-width="0.5" stroke-miterlimit="10"/>
<path d="M593.401 486.6H571.801V489.3H593.401V486.6Z" fill="#5578B7" stroke="#221F20" stroke-width="0.5" stroke-miterlimit="10"/>
<path d="M497.801 498.5H492.201V515.9H497.801V498.5Z" fill="#F9D577" stroke="#221F20" stroke-width="0.5" stroke-miterlimit="10"/>
<path d="M609.5 498.5H603.9V515.9H609.5V498.5Z" fill="#F9D577" stroke="#221F20" stroke-width="0.5" stroke-miterlimit="10"/>
<path d="M476.202 417.601H433.602V429.501H476.202V417.601Z" fill="#C8C8C8" stroke="#221F20" stroke-width="0.5" stroke-miterlimit="10"/>
<path d="M595.301 199H616.901V196.2V178.5V175.8H595.301V178.4V196.2V199Z" fill="#FFFBDE" stroke="#221F20" stroke-width="0.5" stroke-miterlimit="10"/>
<path d="M635.501 256.8V145.4H619.401V178.7H617.301V196.3H619.401V273.7H634.801V297.2H630.401V291.1V284.6H626.501V291.1H620.501V294.7H594.001V316.1H581.701V318.6V318.7H550.301V317.9H542.701V316H550.501V258.7H544.501H538.901V199.9V199H544.501H552.701H594.001V196.3H595.801V178.6H594.001V176H542.001H371.801V154.5H354.501V170.9H352.001H334.701V198.4H352.001V186.9H354.501V206V274.2H353.101V256H341.201V283.7H353.101H358.901V316.2H364.401V318.1H358.901V319.7H336.001V319.8H315.401V370.5H258.001V362.2H233.701V385.3H242.701H306.501L312.501 391.1V408.3L307.401 414.6H242.801H233.701V437.3H257.401V429.2H315.601V466V486.2H332.001H342.001H442.601V490.1H462.801V486.3H580.101H593.101V426H595.901V424.2H597.701V426H600.201V425.9H639.901V416.1H615.101V384H643.701V375H600.301V377.7H597.801V379.3H596.001V377.8H593.201V343.5V322.2H595.801V318.6H638.701H652.701V272.5V256.8H635.501ZM461.201 318.1V320.6H459.401V313.3H461.201V316.1H463.001V304.8H527.001V316.1H537.101V318H527.001V322.1H463.001V318.1H461.201ZM473.901 196.6L527.201 196.7V289.3H520.901L472.301 203.6C471.601 198.4 472.401 196.6 473.901 196.6ZM439.101 250.4C451.601 257 462.801 252.4 466.701 250.4C467.501 250 468.601 250.2 469.101 251L491.001 286.1C491.901 287.5 490.901 289.2 491.301 289.2H419.101C415.501 289.2 414.601 287.4 415.301 286.1L436.401 251C437.101 250.3 438.201 250 439.101 250.4ZM456.701 313.5V320.7H451.201V313.5H456.701ZM379.201 196.9L432.201 196.8C433.601 196.8 434.501 198.4 433.701 203.8L384.601 289.4L379.201 289.5V196.9ZM373.701 316.2L379.201 316.3V305H444.601V316.3H446.501V313.6H448.401V320.8H446.601V318.3H444.601V322.4H379.201V318.2H373.701V316.2ZM568.801 461.9H504.301L498.901 457.1H409.701L402.801 463H335.901V427.9L342.101 419V379.9L336.101 371.9V344.2L391.401 343.6L397.701 354.6H447.101V367.9C447.101 367.9 448.101 373.6 434.601 380C433.901 380.3 433.601 381 433.601 381.8V416H443.001V387.5H466.801L466.701 416H476.101L476.201 381.7C476.201 381 475.801 380.2 475.201 379.9C462.301 373.4 462.601 368.1 462.601 368.1V354.6H508.201L515.301 343.6H568.401L568.301 373.8L562.301 378.9V419.2L568.801 427.8V461.9ZM596.201 396.7H598.001V405H596.201V396.7Z" fill="#C8C8C8" stroke="#221F20" stroke-width="0.5" stroke-miterlimit="10"/>
<path d="M353.3 251.5H335.9V283.3H353.3V251.5Z" fill="#F9ED4C" stroke="#221F20" stroke-width="0.5" stroke-miterlimit="10"/>
<path d="M588 201.7H561.5V207.5H588V201.7Z" fill="#A9CA54" stroke="#221F20" stroke-width="0.5" stroke-miterlimit="10"/>
<path d="M349.102 285.1H346.602V293.2H349.102V285.1Z" fill="#AED2A0" stroke="#221F20" stroke-width="0.5" stroke-miterlimit="10"/>
<path d="M589.402 314.8H578.102V316.1H589.402V314.8Z" fill="#AED2A0" stroke="#221F20" stroke-width="0.5" stroke-miterlimit="10"/>
<path d="M416.509 235.258L389.07 284.188L392.559 286.144L419.998 237.214L416.509 235.258Z" fill="#A9CA54" stroke="#221F20" stroke-width="0.5" stroke-miterlimit="9.9992"/>
<path d="M487.854 236.191L484.393 238.195L512.499 286.744L515.96 284.74L487.854 236.191Z" fill="#A9CA54" stroke="#221F20" stroke-width="0.5" stroke-miterlimit="10"/>
<path d="M477.914 250.508L472.949 253.695L492.775 284.578L497.739 281.391L477.914 250.508Z" fill="#A9CA54" stroke="#221F20" stroke-width="0.5" stroke-miterlimit="9.9991"/>
<path d="M426.511 250.686L407.754 282.23L412.825 285.245L431.582 253.702L426.511 250.686Z" fill="#A9CA54" stroke="#221F20" stroke-width="0.5" stroke-miterlimit="10.0002"/>
<path d="M400.6 196.8V191.2L390.5 196.6L400.6 196.8Z" fill="#A9CA54" stroke="#221F20" stroke-width="0.5" stroke-miterlimit="10"/>
<path d="M378.901 218.8L373.201 218.7L378.801 208.9L378.901 218.8Z" fill="#A9CA54" stroke="#221F20" stroke-width="0.5" stroke-miterlimit="10"/>
<path d="M378.901 226.5H373.201L378.801 236.5L378.901 226.5Z" fill="#A9CA54" stroke="#221F20" stroke-width="0.5" stroke-miterlimit="10"/>
<path d="M378.901 261.5L373.201 261.3L378.801 251.5L378.901 261.5Z" fill="#A9CA54" stroke="#221F20" stroke-width="0.5" stroke-miterlimit="10"/>
<path d="M378.901 269.1H373.201L378.801 279.1L378.901 269.1Z" fill="#A9CA54" stroke="#221F20" stroke-width="0.5" stroke-miterlimit="10"/>
<path d="M504.4 196.8V191.2L514.4 196.6L504.4 196.8Z" fill="#A9CA54" stroke="#221F20" stroke-width="0.5" stroke-miterlimit="10"/>
<path d="M527.602 227.6L533.302 227.5L527.702 217.7L527.602 227.6Z" fill="#A9CA54" stroke="#221F20" stroke-width="0.5" stroke-miterlimit="10"/>
<path d="M527.602 235.3H533.302L527.702 245.3L527.602 235.3Z" fill="#A9CA54" stroke="#221F20" stroke-width="0.5" stroke-miterlimit="10"/>
<path d="M527.602 261.5L533.302 261.3L527.702 251.5L527.602 261.5Z" fill="#A9CA54" stroke="#221F20" stroke-width="0.5" stroke-miterlimit="10"/>
<path d="M527.602 269.1H533.302L527.702 279.1L527.602 269.1Z" fill="#A9CA54" stroke="#221F20" stroke-width="0.5" stroke-miterlimit="10"/>
<path d="M444.701 300.7H379.201V304.2H444.701V300.7Z" fill="#A9CA54" stroke="#221F20" stroke-width="0.5" stroke-miterlimit="10"/>
<path d="M526.902 300.7H463.102V304.2H526.902V300.7Z" fill="#A9CA54" stroke="#221F20" stroke-width="0.5" stroke-miterlimit="10"/>
<path d="M384.9 340H338.4V343.4H384.9V340Z" fill="#A9CA54" stroke="#221F20" stroke-width="0.5" stroke-miterlimit="10"/>
<path d="M568.4 340H515V343.4H568.4V340Z" fill="#A9CA54" stroke="#221F20" stroke-width="0.5" stroke-miterlimit="10"/>
<path d="M554.8 462.4H506V465.8H554.8C555.6 465.8 556.3 465.2 556.3 464.3V464C556.4 463.2 555.7 462.4 554.8 462.4Z" fill="#A9CA54" stroke="#221F20" stroke-width="0.5" stroke-miterlimit="10"/>
<path d="M401.702 350.1V345.9H398.102V350.1V353.3H423.402V350.1H401.702Z" fill="#A9CA54" stroke="#221F20" stroke-width="0.5" stroke-miterlimit="10"/>
<path d="M504.401 350.1V345.9H508.201V350.1V353.3H482.701V350.1H504.401Z" fill="#A9CA54" stroke="#221F20" stroke-width="0.5" stroke-miterlimit="10"/>
<path d="M475.1 461.6V465.7H471.4V461.6V458.2H496.9V461.6H475.1Z" fill="#A9CA54" stroke="#221F20" stroke-width="0.5" stroke-miterlimit="10"/>
<path d="M431.1 461.6V465.7H434.8V461.6V458.2H409.4V461.6H431.1Z" fill="#A9CA54" stroke="#221F20" stroke-width="0.5" stroke-miterlimit="10"/>
<path d="M423.701 289H433.501V294.8L423.701 289Z" fill="#A9CA54" stroke="#221F20" stroke-width="0.5" stroke-miterlimit="10"/>
<path d="M481.502 288.7H471.602V294.4L481.502 288.7Z" fill="#A9CA54" stroke="#221F20" stroke-width="0.5" stroke-miterlimit="10"/>
<path d="M463.102 322.3L469.302 333.5L486.802 322.3H463.102Z" fill="#A9CA54" stroke="#221F20" stroke-width="0.5" stroke-miterlimit="10"/>
<path d="M445.101 322.3L439.001 333.5L421.201 322.3H445.101Z" fill="#A9CA54" stroke="#221F20" stroke-width="0.5" stroke-miterlimit="10"/>
<path d="M550.2 283.4V271.6L543 280.3C542.5 280.9 542.8 281.9 543.6 282.1L550.2 283.4Z" fill="#A9CA54" stroke="#221F20" stroke-width="0.5" stroke-miterlimit="10"/>
<path d="M550.2 288.2V300L543 291.3C542.5 290.7 542.8 289.7 543.6 289.5L550.2 288.2Z" fill="#A9CA54" stroke="#221F20" stroke-width="0.5" stroke-miterlimit="10"/>
<path d="M550.101 313.5H547.501C547.101 313.5 546.701 313.1 547.001 312.6L550.301 305.4L550.101 313.5Z" fill="#A9CA54" stroke="#221F20" stroke-width="0.5" stroke-miterlimit="10"/>
<path d="M385.802 464.1H336.602V467.8H385.802C386.502 467.8 387.202 467.2 387.202 466.4V465.6C387.202 464.8 386.502 464.1 385.802 464.1Z" fill="#A9CA54" stroke="#221F20" stroke-width="0.5" stroke-miterlimit="10"/>
<path d="M335.501 349.6V366.5L327.001 360.9C326.401 360.5 326.301 359.5 326.801 359L335.501 349.6Z" fill="#A9CA54" stroke="#221F20" stroke-width="0.5" stroke-miterlimit="10"/>
<path d="M335.501 461V444.1L327.001 449.7C326.401 450.1 326.301 451.1 326.801 451.6L335.501 461Z" fill="#A9CA54" stroke="#221F20" stroke-width="0.5" stroke-miterlimit="10"/>
<path d="M592.401 448.1V431.2L583.901 436.8C583.301 437.2 583.201 438.2 583.701 438.7L592.401 448.1Z" fill="#A9CA54" stroke="#221F20" stroke-width="0.5" stroke-miterlimit="10"/>
<path d="M592.401 460.7V480.6L583.901 474C583.301 473.6 583.201 472.4 583.701 471.7L592.401 460.7Z" fill="#A9CA54" stroke="#221F20" stroke-width="0.5" stroke-miterlimit="10"/>
<path d="M568.9 459.1V439.2L577.4 445.8C578 446.2 578.1 447.4 577.6 448.1L568.9 459.1Z" fill="#A9CA54" stroke="#221F20" stroke-width="0.5" stroke-miterlimit="10"/>
<path d="M592.401 356.4V336.6L583.901 343.2C583.301 343.6 583.201 344.8 583.701 345.5L592.401 356.4Z" fill="#A9CA54" stroke="#221F20" stroke-width="0.5" stroke-miterlimit="10"/>
<path d="M592.401 366.7V386.6L583.901 380C583.301 379.6 583.201 378.4 583.701 377.7L592.401 366.7Z" fill="#A9CA54" stroke="#221F20" stroke-width="0.5" stroke-miterlimit="10"/>
<path d="M569.102 350.7V370.6L577.602 364C578.202 363.6 578.302 362.4 577.802 361.7L569.102 350.7Z" fill="#A9CA54" stroke="#221F20" stroke-width="0.5" stroke-miterlimit="10"/>
<path d="M341.701 380.6H335.701V417.7H341.701V380.6Z" fill="#A9CA54" stroke="#221F20" stroke-width="0.5" stroke-miterlimit="10"/>
<path d="M568.801 378.8H562.801V419.5H568.801V378.8Z" fill="#A9CA54" stroke="#221F20" stroke-width="0.5" stroke-miterlimit="10"/>
<path d="M421.6 482.2H350.4V485.5H421.6V482.2Z" fill="#A9CA54" stroke="#221F20" stroke-width="0.5" stroke-miterlimit="10"/>
<path d="M257.3 454.6H236.9V480.5H257.3V454.6Z" fill="#C8C8C8" stroke="#221F20" stroke-width="0.5" stroke-miterlimit="10"/>
<path d="M257.3 482.8H236.9V507.6H257.3V482.8Z" fill="#C8C8C8" stroke="#221F20" stroke-width="0.5" stroke-miterlimit="10"/>
<path d="M249.901 480.6H241.301V482.8H249.901V480.6Z" fill="#AED2A0" stroke="#221F20" stroke-width="0.5" stroke-miterlimit="10"/>
<path d="M249.901 507.3H241.301V509.3H249.901V507.3Z" fill="#AED2A0" stroke="#221F20" stroke-width="0.5" stroke-miterlimit="10"/>
<path d="M270 486.7H258.6V506.7H270V486.7Z" fill="#D4EBF7" stroke="#221F20" stroke-width="0.5" stroke-miterlimit="10"/>
<path d="M270 508.7H258.6V539.7H270V508.7Z" fill="#D4EBF7" stroke="#221F20" stroke-width="0.5" stroke-miterlimit="10"/>
<path d="M282.8 486.7H271V539.6H282.8V500H302.4V486.7H282.8Z" fill="#D4EBF7" stroke="#221F20" stroke-width="0.5" stroke-miterlimit="10"/>
<path d="M302.401 500.6H283.801V513.2H302.401V500.6Z" fill="#D4EBF7" stroke="#221F20" stroke-width="0.5" stroke-miterlimit="10"/>
<path d="M302.401 527.4H283.801V539.6H302.401V527.4Z" fill="#D4EBF7" stroke="#221F20" stroke-width="0.5" stroke-miterlimit="10"/>
<path d="M302.401 514.6H283.801V526.4H302.401V514.6Z" fill="#D4EBF7" stroke="#221F20" stroke-width="0.5" stroke-miterlimit="10"/>
<path d="M331 486.7H303.4V539.6H331V486.7Z" fill="#D4EBF7" stroke="#221F20" stroke-width="0.5" stroke-miterlimit="10"/>
<path d="M303.4 489.4H302.4V495.9H303.4V489.4Z" fill="#AED2A0" stroke="#221F20" stroke-width="0.5" stroke-miterlimit="10"/>
<path d="M258.6 512.3H257V519.5H258.6V512.3Z" fill="#AED2A0" stroke="#221F20" stroke-width="0.5" stroke-miterlimit="10"/>
<path d="M267.4 506.7H261.5V508.7H267.4V506.7Z" fill="#AED2A0" stroke="#221F20" stroke-width="0.5" stroke-miterlimit="10"/>
<path d="M281.301 539.6H272.801V541.6H281.301V539.6Z" fill="#AED2A0" stroke="#221F20" stroke-width="0.5" stroke-miterlimit="10"/>
<path d="M284.001 503.8H282.801V510.5H284.001V503.8Z" fill="#AED2A0" stroke="#221F20" stroke-width="0.5" stroke-miterlimit="10"/>
<path d="M284.001 517.1H282.801V523.8H284.001V517.1Z" fill="#AED2A0" stroke="#221F20" stroke-width="0.5" stroke-miterlimit="10"/>
<path d="M284.001 530.1H282.801V536.8H284.001V530.1Z" fill="#AED2A0" stroke="#221F20" stroke-width="0.5" stroke-miterlimit="10"/>
<path d="M325.201 539.7H310.801V541.6H325.201V539.7Z" fill="#AED2A0" stroke="#221F20" stroke-width="0.5" stroke-miterlimit="10"/>
<path d="M425.8 487.4H353.6V539.6H425.8V487.4Z" fill="#A3C96D" stroke="#221F20" stroke-miterlimit="10"/>
<path d="M441.5 487.4H427V502.4H441.5V487.4Z" fill="#A3C96D" stroke="#221F20" stroke-miterlimit="10"/>
<path d="M441.5 504.4H427V539.8H441.5V504.4Z" fill="#A3C96D" stroke="#221F20" stroke-miterlimit="10"/>
<path d="M427.3 518.4H426V525.5H427.3V518.4Z" fill="#AED2A0" stroke="#221F20" stroke-width="0.5" stroke-miterlimit="10"/>
<path d="M427.3 489.1H426V500.5H427.3V489.1Z" fill="#AED2A0" stroke="#221F20" stroke-width="0.5" stroke-miterlimit="10"/>
<path d="M443.1 489.1H441.6V500.5H443.1V489.1Z" fill="#AED2A0" stroke="#221F20" stroke-width="0.5" stroke-miterlimit="10"/>
<path d="M478.201 499.9H463.701V519.5H478.201V499.9Z" fill="#C8C8C8" stroke="#221F20" stroke-width="0.5" stroke-miterlimit="10"/>
<path d="M463.8 510.2H462.9V517H463.8V510.2Z" fill="#AED2A0" stroke="#221F20" stroke-width="0.5" stroke-miterlimit="10"/>
<path d="M483.301 520.3H463.701V539.9H483.301V520.3Z" fill="#F9D577" stroke="#221F20" stroke-width="0.5" stroke-miterlimit="10"/>
<path d="M477 539.9H470.1V541.1H477V539.9Z" fill="#AED2A0" stroke="#221F20" stroke-width="0.5" stroke-miterlimit="10"/>
<path d="M375.3 486.3H356.6V487.2H375.3V486.3Z" fill="#5578B7" stroke="#221F20" stroke-width="0.5" stroke-miterlimit="10"/>
<path d="M398.401 486.3H379.701V487.2H398.401V486.3Z" fill="#5578B7" stroke="#221F20" stroke-width="0.5" stroke-miterlimit="10"/>
<path d="M421.4 486.3H405.5V487.2H421.4V486.3Z" fill="#5578B7" stroke="#221F20" stroke-width="0.5" stroke-miterlimit="10"/>
<path d="M385.5 546.2V541.6H351.6V506.1H347V505.1H336.5V506.1H332.1V541.6V546.2H331V556.7H332.1V560.4H385.5V556.7H386.5V546.2H385.5Z" fill="#D4EBF7" stroke="#221F20" stroke-width="0.5" stroke-miterlimit="10"/>
<path d="M351.8 486.3H332V505.2H351.8V486.3Z" fill="#D4EBF7" stroke="#221F20" stroke-width="0.5" stroke-miterlimit="10"/>
<path d="M442.5 541H441.6H386V560.4H483V541H462.8V490.1H442.5V541Z" fill="#D4EBF7" stroke="#221F20" stroke-width="0.5" stroke-miterlimit="10"/>
<path d="M257.9 348.1H242.4V362.2H257.9V348.1Z" fill="#F9D577" stroke="#221F20" stroke-width="0.5" stroke-miterlimit="10"/>
<path d="M257.301 437.2H241.801V451.3H257.301V437.2Z" fill="#F9D577" stroke="#221F20" stroke-width="0.5" stroke-miterlimit="10"/>
<path d="M313.8 313.6H259.6V369.4H313.8V313.6Z" fill="#FFFBDE" stroke="#221F20" stroke-width="0.5" stroke-miterlimit="10"/>
<path d="M276.6 369.5H270.5V370.3H276.6V369.5Z" fill="#8CCEF0" stroke="#221F20" stroke-width="0.5" stroke-miterlimit="10"/>
<path d="M284.801 369.5H278.701V370.3H284.801V369.5Z" fill="#AED2A0" stroke="#221F20" stroke-width="0.5" stroke-miterlimit="10"/>
<path d="M292.901 369.5H286.801V370.3H292.901V369.5Z" fill="#AED2A0" stroke="#221F20" stroke-width="0.5" stroke-miterlimit="10"/>
<path d="M301.3 369.5H295.1V370.3H301.3V369.5Z" fill="#8CCEF0" stroke="#221F20" stroke-width="0.5" stroke-miterlimit="10"/>
<path d="M315.501 320.1H313.801V369.7H315.501V320.1Z" fill="#8CCEF0" stroke="#221F20" stroke-width="0.5" stroke-miterlimit="10"/>
<path d="M409.5 117.7H372.4V173.8H409.5V117.7Z" fill="#FFFBDE" stroke="#221F20" stroke-width="0.5" stroke-miterlimit="10"/>
<path d="M369.601 117.7H353.301V134.9H369.601V117.7Z" fill="#666667" stroke="#221F20" stroke-miterlimit="10"/>
<path d="M352.7 154.3H332V169.5H352.7V162H354.4V154.3H352.7Z" fill="#F9D577" stroke="#221F20" stroke-width="0.5" stroke-miterlimit="10"/>
<path d="M461.1 147.2H444V175.8H461.1V147.2Z" fill="#F9D577" stroke="#221F20" stroke-width="0.5" stroke-miterlimit="10"/>
<path d="M492.6 149.3H486.6V175.9H492.6V149.3Z" fill="#F9D577" stroke="#221F20" stroke-width="0.5" stroke-miterlimit="10"/>
<path d="M418.101 147.2H411.201V175.8H418.101V147.2Z" fill="#F9D577" stroke="#221F20" stroke-width="0.5" stroke-miterlimit="10"/>
<path d="M411.2 121.8H409.4V145.2H411.2V121.8Z" fill="#5578B7" stroke="#221F20" stroke-width="0.5" stroke-miterlimit="10"/>
<path d="M372.3 142H369.6V149.7H372.3V142Z" fill="#AED2A0" stroke="#221F20" stroke-width="0.5" stroke-miterlimit="10"/>
<path d="M367.1 135H359.4V137.7H367.1V135Z" fill="#AED2A0" stroke="#221F20" stroke-width="0.5" stroke-miterlimit="10"/>
<path d="M369.6 142V152.4H340.4V124.2H352.3V137.7H369.6V142Z" fill="#C8C8C8" stroke="#221F20" stroke-width="0.5" stroke-miterlimit="10"/>
<path d="M579.9 120.8H564.5V157.6H579.9V120.8Z" fill="#C8C8C8" stroke="#221F20" stroke-width="0.5" stroke-miterlimit="10"/>
<path d="M579.9 159.7H564.5V174.4H579.9V159.7Z" fill="#C8C8C8" stroke="#221F20" stroke-width="0.5" stroke-miterlimit="10"/>
<path d="M546.3 120.8H531.6V157.6H546.3V120.8Z" fill="#C8C8C8" stroke="#221F20" stroke-width="0.5" stroke-miterlimit="10"/>
<path d="M546.3 159.7H531.6V174.4H546.3V159.7Z" fill="#C8C8C8" stroke="#221F20" stroke-width="0.5" stroke-miterlimit="10"/>
<path d="M547.5 161.8V174.7H557.1V176H562.7V174.7V161.8H547.5Z" fill="#F9D577" stroke="#221F20" stroke-width="0.5" stroke-miterlimit="10"/>
<path d="M542.3 157.7H534.9V159.8H542.3V157.7Z" fill="#AED2A0" stroke="#221F20" stroke-width="0.5" stroke-miterlimit="10"/>
<path d="M576.001 157.7H568.301V159.8H576.001V157.7Z" fill="#AED2A0" stroke="#221F20" stroke-width="0.5" stroke-miterlimit="10"/>
<path d="M529.901 119.8H508.801V139.3H529.901V119.8Z" fill="#80529A" stroke="#221F20" stroke-miterlimit="10"/>
<path d="M516.9 141H507.9V119.8H494.9V143.9V153.4H516.9V174H529.9V141H516.9Z" fill="#C8C8C8" stroke="#221F20" stroke-width="0.5" stroke-miterlimit="10"/>
<path d="M499.9 164.6H494.9V174.6H499.9V164.6Z" fill="#DC575B" stroke="#221F20" stroke-miterlimit="10"/>
<path d="M494.9 155V163.5H501.1V174.6H516.1V163.5V155H494.9Z" fill="#DC575B" stroke="#221F20" stroke-miterlimit="10"/>
<path d="M494.9 123.8H493V149.3H494.9V123.8Z" fill="#5578B7" stroke="#221F20" stroke-width="0.5" stroke-miterlimit="10"/>
<path d="M528.7 139.2H521.6V140.7H528.7V139.2Z" fill="#AED2A0" stroke="#221F20" stroke-width="0.5" stroke-miterlimit="10"/>
<path d="M515.9 153.4H507.9V155.1H515.9V153.4Z" fill="#AED2A0" stroke="#221F20" stroke-width="0.5" stroke-miterlimit="10"/>
<path d="M501.001 167.1H499.801V171.7H501.001V167.1Z" fill="#AED2A0" stroke="#221F20" stroke-width="0.5" stroke-miterlimit="10"/>
<path d="M405.1 174.2H397.4V175.8H405.1V174.2Z" fill="#AED2A0" stroke="#221F20" stroke-width="0.5" stroke-miterlimit="10"/>
<path d="M576.5 174H568.1V175.7H576.5V174Z" fill="#AED2A0" stroke="#221F20" stroke-width="0.5" stroke-miterlimit="10"/>
<path d="M542.701 174H534.701V175.7H542.701V174Z" fill="#AED2A0" stroke="#221F20" stroke-width="0.5" stroke-miterlimit="10"/>
<path d="M526.1 174.1H518.4V175.7H526.1V174.1Z" fill="#AED2A0" stroke="#221F20" stroke-width="0.5" stroke-miterlimit="10"/>
<path d="M357.7 291.7V285.5H340.9V297.9H357.7H359V291.7H357.7Z" fill="#F9D577" stroke="#221F20" stroke-width="0.5" stroke-miterlimit="10"/>
<path d="M354.201 203.1H352.701V232.3H354.201V203.1Z" fill="#5578B7" stroke="#221F20" stroke-width="0.5" stroke-miterlimit="10"/>
<path d="M354.201 233.6H352.701V247.2H354.201V233.6Z" fill="#8CCEF0" stroke="#221F20" stroke-width="0.5" stroke-miterlimit="10"/>
<path d="M354.201 249H352.701V277.7H354.201V249Z" fill="#5578B7" stroke="#221F20" stroke-width="0.5" stroke-miterlimit="10"/>
<path d="M527.101 196.8H520.801V223.6H527.101V196.8Z" fill="#F9D577" stroke="#221F20" stroke-width="0.5" stroke-miterlimit="10"/>
<path d="M527.101 262.6H520.801V289.4H527.101V262.6Z" fill="#F9D577" stroke="#221F20" stroke-width="0.5" stroke-miterlimit="10"/>
<path d="M384.601 196.8H379.201V223.6H384.601V196.8Z" fill="#F9D577" stroke="#221F20" stroke-width="0.5" stroke-miterlimit="10"/>
<path d="M384.601 262.6H379.201V289.4H384.601V262.6Z" fill="#F9D577" stroke="#221F20" stroke-width="0.5" stroke-miterlimit="10"/>
<path d="M461.1 264.5H444V289.5H461.1V264.5Z" fill="#F9D577" stroke="#221F20" stroke-width="0.5" stroke-miterlimit="10"/>
<path d="M344.601 436.7H335.701V462.9H344.601V436.7Z" fill="#F9D577" stroke="#221F20" stroke-width="0.5" stroke-miterlimit="10"/>
<path d="M344.601 344H335.701V364.1H344.601V344Z" fill="#F9D577" stroke="#221F20" stroke-width="0.5" stroke-miterlimit="10"/>
<path d="M568.701 436.2H559.801V461.9H568.701V436.2Z" fill="#F9D577" stroke="#221F20" stroke-width="0.5" stroke-miterlimit="10"/>
<path d="M568.5 343.5H559.6V363.6H568.5V343.5Z" fill="#F9D577" stroke="#221F20" stroke-width="0.5" stroke-miterlimit="10"/>
<path d="M435.9 431H427V457.2H435.9V431Z" fill="#F9D577" stroke="#221F20" stroke-width="0.5" stroke-miterlimit="10"/>
<path d="M480.3 431H471.4V457.2H480.3V431Z" fill="#F9D577" stroke="#221F20" stroke-width="0.5" stroke-miterlimit="10"/>
<path d="M435.9 354.2H427V369.5H435.9V354.2Z" fill="#F9D577" stroke="#221F20" stroke-width="0.5" stroke-miterlimit="10"/>
<path d="M480.3 354.2H471.4V369.5H480.3V354.2Z" fill="#F9D577" stroke="#221F20" stroke-width="0.5" stroke-miterlimit="10"/>
<path d="M452.6 251C466.186 251 477.2 239.986 477.2 226.4C477.2 212.814 466.186 201.8 452.6 201.8C439.014 201.8 428 212.814 428 226.4C428 239.986 439.014 251 452.6 251Z" fill="#FFFBDE" stroke="#221F20" stroke-width="0.5" stroke-miterlimit="10"/>
<path d="M452.6 235.9C457.846 235.9 462.1 231.647 462.1 226.4C462.1 221.154 457.846 216.9 452.6 216.9C447.353 216.9 443.1 221.154 443.1 226.4C443.1 231.647 447.353 235.9 452.6 235.9Z" fill="#C8C8C8"/>
<path d="M444.801 416V387H464.801V416H444.801Z" fill="#C8C8C8" stroke="#221F20" stroke-width="0.5" stroke-miterlimit="10"/>
<path d="M444.801 388H443.201V395.3H444.801V388Z" fill="#AED2A0" stroke="#221F20" stroke-width="0.5" stroke-miterlimit="10"/>
<path d="M444.801 397H443.201V416H444.801V397Z" fill="#8CCEF0" stroke="#221F20" stroke-width="0.5" stroke-miterlimit="10"/>
<path d="M466.401 388H464.801V395.3H466.401V388Z" fill="#AED2A0" stroke="#221F20" stroke-width="0.5" stroke-miterlimit="10"/>
<path d="M466.401 397H464.801V416H466.401V397Z" fill="#8CCEF0" stroke="#221F20" stroke-width="0.5" stroke-miterlimit="10"/>
<path d="M441.7 416H434.5V417.7H441.7V416Z" fill="#AED2A0" stroke="#221F20" stroke-width="0.5" stroke-miterlimit="10"/>
<path d="M474.6 416H467.4V417.7H474.6V416Z" fill="#AED2A0" stroke="#221F20" stroke-width="0.5" stroke-miterlimit="10"/>
<path d="M464.301 416H444.801V417.7H464.301V416Z" fill="#5578B7" stroke="#221F20" stroke-width="0.5" stroke-miterlimit="10"/>
<path d="M520.8 305.4H491.5V308.1H520.8V305.4Z" fill="#5578B7" stroke="#221F20" stroke-width="0.5" stroke-miterlimit="10"/>
<path d="M520.8 318.9H491.5V321.6H520.8V318.9Z" fill="#5578B7" stroke="#221F20" stroke-width="0.5" stroke-miterlimit="10"/>
<path d="M572.701 314.7H551.801V318.2H572.701V314.7Z" fill="#5578B7" stroke="#221F20" stroke-width="0.5" stroke-miterlimit="10"/>
<path d="M416.101 305.6H386.801V308.3H416.101V305.6Z" fill="#5578B7" stroke="#221F20" stroke-width="0.5" stroke-miterlimit="10"/>
<path d="M416.101 319H386.801V321.7H416.101V319Z" fill="#5578B7" stroke="#221F20" stroke-width="0.5" stroke-miterlimit="10"/>
<path d="M358.301 316.7H316.301V319.4H358.301V316.7Z" fill="#5578B7" stroke="#221F20" stroke-width="0.5" stroke-miterlimit="10"/>
<path d="M488.701 316.6H468.801V318.5H488.701V316.6Z" fill="#5578B7" stroke="#221F20" stroke-width="0.5" stroke-miterlimit="10"/>
<path d="M438.701 315.6H418.801V317.5H438.701V315.6Z" fill="#5578B7" stroke="#221F20" stroke-width="0.5" stroke-miterlimit="10"/>
<path d="M379.101 316.2H373.701V318H379.101V316.2Z" fill="#5578B7" stroke="#221F20" stroke-width="0.5" stroke-miterlimit="10"/>
<path d="M364.501 316.2H358.801V318.1H364.501V316.2Z" fill="#8CCEF0" stroke="#221F20" stroke-width="0.5" stroke-miterlimit="10"/>
<path d="M536.8 316.1H528.4V317.8H536.8V316.1Z" fill="#8CCEF0" stroke="#221F20" stroke-width="0.5" stroke-miterlimit="10"/>
<path d="M550.5 316.1H543.1V317.9H550.5V316.1Z" fill="#5578B7" stroke="#221F20" stroke-width="0.5" stroke-miterlimit="10"/>
<path d="M592.401 199H577.701V259H592.401V199Z" fill="#C8C8C8" stroke="#221F20" stroke-width="0.5" stroke-miterlimit="10"/>
<path d="M575.801 199H541.801V258.1H575.801V199Z" fill="#FFFBDE" stroke="#221F20" stroke-width="0.5" stroke-miterlimit="10"/>
<path d="M577.701 200.8H575.701V216.7H577.701V200.8Z" fill="#5578B7" stroke="#221F20" stroke-width="0.5" stroke-miterlimit="10"/>
<path d="M577.701 220.3H575.701V231.3H577.701V220.3Z" fill="#AED2A0" stroke="#221F20" stroke-width="0.5" stroke-miterlimit="10"/>
<path d="M577.701 235.1H575.701V257H577.701V235.1Z" fill="#5578B7" stroke="#221F20" stroke-width="0.5" stroke-miterlimit="10"/>
<path d="M592.401 260.3H550.301V284H592.401V260.3Z" fill="#C8C8C8" stroke="#221F20" stroke-width="0.5" stroke-miterlimit="10"/>
<path d="M589.601 259H578.201V260.4H589.601V259Z" fill="#AED2A0" stroke="#221F20" stroke-width="0.5" stroke-miterlimit="10"/>
<path d="M566 258.1H558.4V260H566V258.1Z" fill="#AED2A0" stroke="#221F20" stroke-width="0.5" stroke-miterlimit="10"/>
<path d="M589.101 284.1H577.801V285.1H589.101V284.1Z" fill="#AED2A0" stroke="#221F20" stroke-width="0.5" stroke-miterlimit="10"/>
<path d="M573.6 293.1H572.6V309.3H573.6V293.1Z" fill="#AED2A0" stroke="#221F20" stroke-width="0.5" stroke-miterlimit="10"/>
<path d="M593.9 296H592.4V309.2H593.9V296Z" fill="#AED2A0" stroke="#221F20" stroke-width="0.5" stroke-miterlimit="10"/>
<path d="M572.701 285.6H551.801V314.5H572.701V285.6Z" fill="#C8C8C8" stroke="#221F20" stroke-width="0.5" stroke-miterlimit="10"/>
<path d="M592.5 285.6H574V314.5H592.5V285.6Z" fill="#C8C8C8" stroke="#221F20" stroke-width="0.5" stroke-miterlimit="10"/>
<path d="M583.8 297.4H581.5V308.6H583.8V297.4Z" fill="#AED2A0" stroke="#221F20" stroke-width="0.5" stroke-miterlimit="10"/>
<path d="M630.5 387.5H617.5V413.9H630.5V387.5Z" fill="#C8C8C8" stroke="#221F20" stroke-width="0.5" stroke-miterlimit="10"/>
<path d="M617.501 389.3H615.301V402.2H617.501V389.3Z" fill="#AED2A0" stroke="#221F20" stroke-width="0.5" stroke-miterlimit="10"/>
<path d="M639.901 363.1H633.801V374.9H639.901V363.1Z" fill="#F9D577" stroke="#221F20" stroke-width="0.5" stroke-miterlimit="10"/>
<path d="M639.901 425.7H633.801V437.5H639.901V425.7Z" fill="#F9D577" stroke="#221F20" stroke-width="0.5" stroke-miterlimit="10"/>
<path d="M541.5 213.4H539V242.9H541.5V213.4Z" fill="#8CCEF0" stroke="#221F20" stroke-width="0.5" stroke-miterlimit="10"/>
<path d="M614.701 284.6V293.3H619.901V290.3H626.601V284.6H614.701Z" fill="#F9D577" stroke="#221F20" stroke-width="0.5" stroke-miterlimit="10"/>
</svg>
