<svg id="Layer_1" data-name="Layer 1" xmlns="http://www.w3.org/2000/svg" viewBox="0 0 739.68 685.07"><defs><style>.cls-1{fill:#7a7a7a;}.cls-2{opacity:0.63;}.cls-3{fill:#f71616;}.cls-4,.cls-8{fill:none;stroke:#020202;stroke-miterlimit:10;}.cls-4{stroke-width:0.75px;}.cls-5{fill:#262626;}.cls-6{fill:#a09f9f;}.cls-7{fill:#b2b2b2;}.cls-8{stroke-width:0.25px;}</style></defs><path class="cls-1" d="M699.21,136.63V123.79H682.46V86.23H660.29v37.56h-3.43V86.23H636.15v37.56H633V86.23H607.91v37.56h-1v4.51h-2V110.94H547.68v2.73H520.2v4.52h-4V107.65H494.41v31.81H504v27.86l1.69,3.57h-2.07v18.64S501,209.29,481.42,217l-13.27,2.92V214.7h8.19a10.69,10.69,0,0,0,6.92-6.35V172.63H452.2v5.23l-4.94-2.69v-2.54H413.8V201l-4.38-1.27V172.63H375.68L371.16,177v-4.38h-50L318.5,185.9v15.82l2.4,13.55h4.8v4.52h-4.94v4.37h-4.37v-4.37h-36v32h10v4.38h-9.74v29.51h9.74v4.65H273.19v-4.65H277v-38.4s-.43-20.62-19.63-38.4l8.76-9.91s-17.79-15.93-37.41-16.64H216.86V170.23H206.69V157.81h3.25V144.68h-3V137.9h3V124.07h-2.82v-6.21h2.82V103.6h-3.11V68h4.24v33.7h26.26V50.66H211.07V62.94h-4.24V50.66H169.14V172.77h-7.62v20.76h33v25.41h22.59s15.53,1.41,23.72,8.75l4.66-5.5s11.71,9.46,13.41,25.13v20.33h-4.1v-5.79h-31.1v81.46l4.7,2.07v2.44H215.07v5.27h-5.84v-6H187c-28.05-6-30.87-35.95-30.87-35.95V256.54H125.28v11.67H114.55V279.5H101.94v-3.76H71.63V394.33h30.31V285.9h12.8v5.27h23.9v20.52s.19,45,48.38,53.08h22.21v-6.21h5.84v26.73h-4.14V375.13H180.81V410h29.93V399.6h4.33v26.92h32.75V381h4v34.83h8.1v4.33H252V439.5h30.68v11.82H293V439.74h14.68v2.54h-9.74v33h29.93V442.84H316.1v-3.52h26v3.24h-9.74v32.76H362V464l3-1.41v12.71h33.74V459.08h4.24v13s29.17-10.73,34.44-42.54v-9.06H426V416h11.38v-30.3h4.71v30.49H475v-2.73l4.52-3.57v6.21H513v-1.7l3.11-1.41v2.17l19.67,5.36.56-.94,2.54,1-3.29,6.58L528.67,434l-11,5.37H482.83v26.16h12.52v14.68h6.31v2.45h-3.49V513.1l-.66,2.87L481.84,545.2l-4.51,5.22-24.57-24.7,17.23-17-4.52-4.8,3.24-3-11.85-11.86-3.11,3.11-24.42-24.14-8.47,8.47-25.56,5.08-4.8,25.83-15.38,14.69,26.39,26.68-38.39,38.26L353.23,577,333,597.29l27,27,5.65-5.93,15.1,14.4,8.19-8.19-15-15.39,5.5-5.51-8.33-8.32L410,556.92l6.21,6.21,27.53-28,24.14,24.15-30.64,30.35,9.74,10L492.71,553l6.92-12.84,26.83,7.34-2.69,8.75,64.38,18.07,14.26-52.52-63.58-18.07-9.13,30.07L507,527.27l3.82-8.33.84-5.84V482.52h-3.76v-2.36h5.74V456.44l3.1-2h12.9l10.92-8.19,9-8.94,6.21-11.77,3.11-12.33V401.39H590.5V368.44h-7.24l-1.6-3.2h8.84V309.62H549.19l-1.79-4.89h25.13V286.56l5.08-3v6h5.83s26,3.63,29,33.56V347l6.78,1.41v2.12h-6.92V462.75H556.53V481.1h61.55v4.24H606.5v26.54h56.19V485.62h-1.27v-5.08h2.68V467.83H649.7V425.34H635.3v6.21h-4.94V350.66h-6.63v-2.4l5.22-1.42-.85-26.4-1.69-12-5.22-11.86-6.78-8.19-5.65-4.8L600,278.23l-10-3.53-6.36-1.41h-5.79v3.58l-5.69-2.64V241.86H566.5l-1.93-5.09h7.77V202H528.29l-1.5,7-6-1.13-1.32-10.92,1.7-7.15V170.89h-4.71L513,166h8.1V130.42h-4.71V122h4v4.14h27.48V137h57.22v-4.14H607V137h49.89v3.39H636.15V147H607v18.83h-2.44V147H577.61V177.1h26.92v-6.21h2.63v6.21h8.66v37.65h45.93V177.1h13.36V140.4H662.88v-3.77ZM623.73,480.54h6.63v-43.2H635v43.2h19.06v4.66H623.73ZM427.35,215.13h20V187.32l1.55-1.84,3.25-.71L451.91,215h7.49l1.27,4.66H431.3l-3.95,2.11ZM342.93,215H371l.28-27.67h4v28H409.7v-5.22l1.7-1.56h2.68V215h3.25v4.09h-14.4l-12,.71-9.18,3L375.26,227l-5.09,7.34V227l-9-6.92H342.93Zm31.34,149.22,2.68,4.66h-9.88v29.65h-5.15l-.22-57.46-1.69-4,.85-3.24,3,.7,2.68,3.11v26.54Zm-69-78.21h11.16V256.49H305.23v-5.08h11.16V241.1h4.51v28.8H351v-8.61l2.55-9.17,4,1.83-1.55,7.34v9.6h5.78v4.94H320.34v14.54H305.23Zm-53.08,59.57v20.05h-4.42V347.36H236.34l.94-4.23,10.26,3,2.73-9.13,3.39.94Zm22.73,74.9v-5.08h7.91V374.87h33.74V363.36h4.23l.21,16.8-2,8.26h-2.4v-8.75H286.1v36h30.36v-16.1h2.47l1.55,15.82,6.85,5.08ZM328,342.84H321v9.51h-4.42V337.76H284.15l-25.41-16.37-1.61,5.73-4.13-.89,2.26-9v-37h4.61v5.51h5.65v2.35h-2.08v2.35h-3.57v26.35l28.05,17h28.51V307.08h2.83l14.58,26.82H344.2v4.52H328Zm86.4,77.63H402.93V444H398.5v-9.5h-2.26v-14h-29v14h-2.17v19.2L361.7,452v-9.6H350.41V439.5H361.7v-19H340.81l8.09-5.15,12.9.14v-5.79h5.36v6H398.6v-6h4.33v5.65h11.48Zm0-51.84H402.93v29.89h-4.52V368.63H387.77V364h26.64Zm38.21,0H442.2v5.74h-4.52v-5.74H426V364h26.63Zm11.29-44.8h-38l-8.75-6.63,2.4-2.83,6.91,7.06h37.41Zm27,44.8H479.44v29.89h-4.51V368.63H464.29V364h26.64Zm-1.42-99v4.94h-1.12v49.22H474.46v-2.35h10.73l-1.93-46.92H472.81v-4.8h1.65V257.48h4.8v12.19Zm75.06,95.81v2.82H533.8l9.31,33.18-1,7.06h-2.69v-2.4l-23.71-6.64v4h-3V368.73H502V364h27.39l.09-33.13h3.79V364H545v1.46ZM524.9,236.4H549v5.08H534.31v8.09h-4.7v-8.09H524.9Zm4.64,33.08,0-3.25h4.38v38.54h2.12l5.64,5H498.79V274.56h-1.56v-5.08Zm-16-50.12,3.58,4-8.75,9v4h3.95v4.7H479.35v3H475v-3H448.86v29h12.8v4.33H394.17v13.46l8.19,10.82-1.88,1.51L391.63,288V274.61h-17.5l-1.32-4.52H377v-8.28l3.18-6.4,9.62-11.48,8.85-4.71,10.73-1.88h18v-6.4l4.56-1.32v6.78h43.86l7-.47s16.66-5.65,23.34-13.18l3.58-4.8Z"/><polygon class="cls-1" points="92.2 407.97 71.63 407.97 71.63 458.66 71.63 526.85 102.22 526.85 102.22 407.97 92.2 407.97"/><g class="cls-2"><polygon class="cls-3" points="206.74 95.13 190.93 95.13 190.93 144.29 191.4 144.29 206.88 144.29 206.88 143.33 206.88 137.52 209.84 137.52 209.84 123.68 207.02 123.68 207.02 117.47 209.84 117.47 209.84 103.21 206.74 103.21 206.74 95.13"/><rect class="cls-3" x="92.76" y="285.29" width="8.75" height="41.65"/><rect class="cls-3" x="498.74" y="503.03" width="12.42" height="9.69"/><rect class="cls-3" x="612.9" y="382.09" width="17.46" height="22.31"/><rect class="cls-3" x="557.23" y="111.22" width="37.69" height="25.06"/></g><polygon class="cls-4" points="319.26 307.08 316.43 307.08 316.43 333.72 287.92 333.72 259.87 316.77 259.87 290.42 263.44 290.42 263.44 288.07 265.51 288.07 265.51 285.72 259.87 285.72 259.87 280.21 255.26 280.21 255.26 317.2 253 326.23 257.13 327.12 258.74 321.39 284.15 337.76 316.53 337.76 316.53 352.35 320.95 352.35 320.95 342.85 328.01 342.85 328.01 338.42 344.2 338.42 344.2 333.9 333.85 333.9 319.26 307.08"/><polygon class="cls-4" points="236.34 347.36 247.73 347.36 247.73 365.62 252.15 365.62 252.15 345.57 253.66 337.95 250.27 337.01 247.54 346.14 237.28 343.13 236.34 347.36"/><polygon class="cls-4" points="320.97 380.16 318.93 388.42 316.53 388.42 316.53 379.67 286.1 379.67 286.1 415.67 316.46 415.67 316.46 399.57 318.93 399.57 320.48 415.39 327.33 420.47 274.88 420.47 274.88 415.39 282.79 415.39 282.79 374.87 316.53 374.87 316.53 363.36 320.76 363.36 320.97 380.16"/><polygon class="cls-4" points="348.9 415.31 340.81 420.47 361.7 420.47 361.7 439.5 350.41 439.5 350.41 442.42 361.7 442.42 361.7 452.02 365.09 453.71 365.09 434.51 367.26 434.51 367.26 420.47 396.24 420.47 396.24 434.51 398.5 434.51 398.5 444.02 402.93 444.02 402.93 420.47 414.41 420.47 414.41 415.31 402.93 415.31 402.93 409.67 398.6 409.67 398.6 415.69 367.16 415.69 367.16 409.67 361.8 409.67 361.8 415.46 348.9 415.31"/><polygon class="cls-4" points="361.92 398.51 367.07 398.51 367.07 368.87 376.95 368.87 374.27 364.21 366.5 364.21 366.5 337.67 363.82 334.56 360.86 333.86 360.01 337.1 361.7 341.06 361.92 398.51"/><polygon class="cls-4" points="402.93 398.51 402.93 368.63 414.41 368.63 414.41 364.02 387.77 364.02 387.77 368.63 398.41 368.63 398.41 398.51 402.93 398.51"/><polygon class="cls-4" points="479.44 398.51 479.44 368.63 490.93 368.63 490.93 364.02 464.29 364.02 464.29 368.63 474.93 368.63 474.93 398.51 479.44 398.51"/><polygon class="cls-4" points="442.2 374.37 442.2 368.63 452.62 368.63 452.62 364.02 425.99 364.02 425.99 368.63 437.68 368.63 437.68 374.37 442.2 374.37"/><polygon class="cls-4" points="529.42 364.02 502.03 364.02 502.03 368.73 512.76 368.73 512.76 403.46 515.73 403.46 515.73 399.5 539.44 406.14 539.44 408.54 542.13 408.54 543.12 401.48 533.8 368.3 564.57 368.3 564.57 365.48 544.95 365.48 544.95 364.02 533.3 364.02 533.3 330.89 529.51 330.89 529.42 364.02"/><polygon class="cls-4" points="630.36 480.54 623.73 480.54 623.73 485.2 654.08 485.2 654.08 480.54 635.02 480.54 635.02 437.34 630.36 437.34 630.36 480.54"/><line class="cls-4" x1="639.82" y1="467.83" x2="635.3" y2="467.83"/><line class="cls-4" x1="619.07" y1="450.19" x2="612.29" y2="450.19"/><rect class="cls-4" x="71.63" y="407.97" width="30.59" height="118.87"/><line class="cls-4" x1="85" y1="458.66" x2="71.63" y2="458.66"/><line class="cls-4" x1="92.2" y1="446.09" x2="92.2" y2="407.97"/><path class="cls-4" d="M617.37,123.79H606.93v4.51h-2V110.94H547.68v2.73H520.2v4.52h-4V107.65H494.41v31.81H504v27.86l1.69,3.57h-2.07v18.64S501,209.29,481.42,217l-13.27,2.92V214.7h8.19a10.69,10.69,0,0,0,6.92-6.35V172.63H452.2v5.23l-4.94-2.69v-2.54H413.8V201l-4.38-1.27V172.63H375.68L371.16,177v-4.38h-50L318.5,185.9v15.82l2.4,13.55h4.8v4.52h-4.94v4.37h-4.37v-4.37h-36v32h10v4.38h-9.74v29.51h9.74v4.65H273.19v-4.65H277v-38.4s-.43-20.62-19.63-38.4l8.76-9.91s-17.79-15.93-37.41-16.64H216.86V170.23H203.59"/><polygon class="cls-4" points="371.02 214.99 342.93 214.99 342.93 220.07 361.14 220.07 370.17 226.99 370.17 234.33 375.26 226.99 381.75 222.75 390.93 219.79 402.93 219.08 417.33 219.08 417.33 214.99 414.08 214.99 414.08 208.49 411.4 208.49 409.7 210.04 409.7 215.27 375.26 215.27 375.26 187.32 371.3 187.32 371.02 214.99"/><polyline class="cls-4" points="661.75 177.1 661.75 214.75 615.82 214.75 615.82 177.1"/><line class="cls-4" x1="630.31" y1="177.1" x2="647.63" y2="177.1"/><polyline class="cls-4" points="624.1 177.1 607.16 177.1 607.16 170.89 604.53 170.89 604.53 177.1 577.61 177.1 577.61 146.99 604.53 146.99 604.53 165.81 606.97 165.82 606.97 146.99 636.15 146.99 636.15 140.4 656.86 140.4 656.86 137.01 606.97 137.01 606.97 132.87 605.09 132.87 605.09 137.01 547.87 137.01 547.87 126.09 520.38 126.09 520.38 121.95 516.43 121.95 516.43 130.42 521.14 130.42 521.14 166 513.04 166 516.43 170.89 521.14 170.89 521.14 189.72 519.44 196.87 520.76 207.79 526.78 208.92 528.29 201.95 572.34 201.95 572.34 236.78 564.57 236.78 566.5 241.86 572.15 241.86 572.15 274.23 577.84 276.87 577.84 273.29 583.63 273.29 589.99 274.7 600.01 278.23 608.76 283.6 614.41 288.4 621.18 296.59 626.41 308.44 628.1 320.44 628.95 346.85 623.73 348.26 623.73 350.66 630.36 350.66 630.36 431.55 635.3 431.55 635.3 425.34 649.7 425.34 649.7 467.83"/><line class="cls-4" x1="638.97" y1="177.1" x2="638.97" y2="214.75"/><polygon class="cls-4" points="316.39 251.41 305.23 251.41 305.23 256.49 316.39 256.49 316.39 286 305.23 286 305.23 290.37 320.34 290.37 320.34 275.83 361.7 275.83 361.7 270.89 355.92 270.89 355.92 261.29 357.47 253.95 353.51 252.12 350.97 261.29 350.97 269.9 320.9 269.9 320.9 241.1 316.39 241.1 316.39 251.41"/><polygon class="cls-4" points="419.59 314.37 417.19 317.2 425.94 323.83 463.92 323.83 463.92 321.43 426.5 321.43 419.59 314.37"/><polygon class="cls-4" points="529.56 266.23 533.94 266.23 533.94 304.77 536.06 304.77 541.7 309.72 498.79 309.72 498.79 274.56 497.23 274.56 497.23 269.48 529.54 269.48 529.56 266.23"/><polygon class="cls-4" points="452.2 184.78 448.95 185.48 447.4 187.32 447.4 215.13 427.35 215.13 427.35 221.76 431.3 219.65 460.67 219.65 459.4 214.99 451.92 214.99 452.2 184.78"/><polyline class="cls-4" points="674.27 123.79 699.21 123.79 699.21 136.63 662.88 136.63 662.88 140.4 675.11 140.4 675.11 177.1 653.66 177.1"/><line class="cls-4" x1="668.2" y1="123.79" x2="649.56" y2="123.79"/><line class="cls-4" x1="643.91" y1="123.79" x2="623.73" y2="123.79"/><polyline class="cls-4" points="633.04 123.79 633.04 86.23 607.91 86.23 607.91 123.79"/><polyline class="cls-4" points="636.15 123.79 636.15 86.23 656.86 86.23 656.86 123.79"/><polyline class="cls-4" points="660.29 123.79 660.29 86.23 682.46 86.23 682.46 123.79"/><polygon class="cls-4" points="524.9 236.4 524.9 241.48 529.61 241.48 529.61 249.57 534.32 249.57 534.32 241.48 549 241.48 549 236.4 524.9 236.4"/><polygon class="cls-4" points="485.19 321.48 474.46 321.48 474.46 323.83 488.38 323.83 488.38 274.61 489.51 274.61 489.51 269.67 479.26 269.67 479.26 257.48 474.46 257.48 474.46 269.76 472.81 269.76 472.81 274.56 483.26 274.56 485.19 321.48"/><path class="cls-4" d="M508.34,232.45v4h3.95v4.7H479.35v3H475v-3H448.86v29h12.8v4.33H394.17v13.46l8.19,10.82-1.88,1.51L391.63,288V274.61h-17.5l-1.32-4.52H377v-8.28l3.18-6.4,9.62-11.48,8.85-4.71,10.73-1.88h18v-6.4l4.56-1.32v6.78h43.86l7-.47s16.66-5.65,23.34-13.18l3.58-4.8,3.85,1.41,3.58,4Z"/><line class="cls-4" x1="617.04" y1="381.53" x2="612.29" y2="381.53"/><line class="cls-4" x1="625.61" y1="381.53" x2="630.36" y2="381.53"/><polyline class="cls-4" points="92.2 275.74 92.2 326.94 71.63 326.94"/><polyline class="cls-4" points="194.55 193.53 161.52 193.53 161.52 172.78 169.14 172.78"/><line class="cls-4" x1="169.14" y1="184.92" x2="169.14" y2="193.53"/><line class="cls-4" x1="178.6" y1="170.23" x2="181.28" y2="170.23"/><line class="cls-4" x1="171.12" y1="170.23" x2="169.14" y2="170.23"/><polyline class="cls-4" points="206.69 170.23 206.69 157.81 209.94 157.81 209.94 144.68 206.97 144.68 206.97 137.9 209.94 137.9 209.94 124.07 207.12 124.07 207.12 117.86 209.94 117.86 209.94 103.6 206.83 103.6 206.83 68.02 211.07 68.02 211.07 101.72 237.33 101.72 237.33 50.66 211.07 50.66 211.07 62.94 206.83 62.94 206.83 50.66 169.14 50.66 169.14 179.27"/><polyline class="cls-4" points="180.15 70.28 180.15 92.16 191.02 92.16 191.73 170.23 197.37 170.23"/><polyline class="cls-4" points="169.14 101.72 181.56 101.72 181.56 174.61 191.73 174.61 191.73 170.23"/><rect class="cls-5" x="285.47" y="220.96" width="19.76" height="18.07"/><rect class="cls-5" x="499.7" y="250.05" width="19.76" height="18.07"/><rect class="cls-5" x="377.61" y="455.76" width="19.76" height="18.07"/><rect class="cls-5" x="307.56" y="440.23" width="8.26" height="1.55"/><rect class="cls-5" x="235.12" y="285.2" width="19.18" height="20.84"/><rect class="cls-5" x="389.02" y="174.35" width="19.18" height="20.84"/><rect class="cls-5" x="261.52" y="385.37" width="19.18" height="20.84"/><rect class="cls-5" x="379.43" y="321.7" width="19.18" height="20.84"/><rect class="cls-5" x="492.44" y="383.02" width="19.18" height="20.84"/><rect class="cls-5" x="537.06" y="341.69" width="19.18" height="20.84"/><polygon class="cls-5" points="93.12 457.03 93.12 459.13 71.63 459.13 71.63 463.1 101.8 463.1 101.8 459.13 101.8 457.03 93.12 457.03"/><polygon class="cls-6" points="435.11 473.83 380.87 528 387.49 534.69 441.7 480.35 435.11 473.83"/><polygon class="cls-7" points="426.61 508.62 422.5 512.73 426.27 516.68 430.41 512.73 426.61 508.62"/><path class="cls-4" d="M194.55,170.23v48.71h22.59s15.53,1.41,23.72,8.75l4.66-5.5s11.71,9.46,13.41,25.13v20.33h-4.1v-5.79h-31.1v81.46l4.7,2.07v2.44H215.07v5.27h-5.84v-6H187c-28.05-6-30.87-35.95-30.87-35.95V256.54H125.28v11.67H114.55V279.5H101.94v-3.76H71.63V394.33h30.31V285.9h12.8v5.27h23.9v20.52s.19,45,48.38,53.08h22.21v-6.21h5.84v26.73h-4.14V375.13H180.81V410h29.93V399.6h4.33v26.92h32.75V381h4v34.83h8.1v4.33H252V439.5h30.68v11.82H293V439.74h14.68v2.54h-9.74v33h29.93V442.84H316.1v-3.52h26v3.24h-9.74v32.76H362V464l3-1.41v12.71h33.74V459.08h4.24v13s29.17-10.73,34.44-42.54v-9.06H426V416h11.38v-30.3h4.71v30.49H475v-2.73l4.52-3.57v6.21H513v-1.7l3.11-1.41v2.17l19.67,5.36.56-.94,2.54,1-3.29,6.58L528.67,434l-11,5.37H482.83v26.16h12.52v14.68h6.31v2.45h-3.49V513.1l-.66,2.87L481.84,545.2l-4.51,5.22-24.57-24.7,17.23-17-4.52-4.8,3.24-3-11.85-11.86-3.11,3.11-24.42-24.14-8.47,8.47-25.56,5.08-4.8,25.83-15.38,14.69,26.4,26.68-38.4,38.26L353.23,577,333,597.29l27,27,5.65-5.93,15.1,14.4,8.19-8.19-15-15.39,5.5-5.51-8.33-8.32L410,556.92l6.21,6.21,27.53-28,24.14,24.15-30.64,30.35,9.74,10L492.71,553l6.92-12.84,26.83,7.34-2.69,8.75,64.38,18.07,14.26-52.52-63.58-18.07-9.13,30.07L507,527.27l3.82-8.33.84-5.84V482.52h-3.76v-2.36h5.74V456.44l3.1-2h12.9l10.92-8.19,9-8.94,6.21-11.77,3.11-12.33V401.39H590.5V368.44h-7.24l-1.6-3.2h8.84V309.62H549.19l-1.79-4.89h25.13V286.56l5.08-3v6h5.83s26,3.63,29,33.56V347l6.78,1.41v2.12h-6.92V462.75H556.53V481.1h61.55v4.24H606.5v26.54h56.19V485.62h-1.27v-5.08h2.68V467.83H645.19"/><rect class="cls-8" x="71.63" y="275.74" width="7.51" height="24.02"/><line class="cls-8" x1="79.14" y1="283.46" x2="71.63" y2="283.46"/><line class="cls-8" x1="79.14" y1="284.34" x2="71.63" y2="284.34"/><line class="cls-8" x1="79.14" y1="285.29" x2="71.63" y2="285.29"/><line class="cls-8" x1="79.14" y1="286.25" x2="71.63" y2="286.25"/><line class="cls-8" x1="79.14" y1="287.13" x2="71.63" y2="287.13"/><line class="cls-8" x1="79.14" y1="288.08" x2="71.63" y2="288.08"/><line class="cls-8" x1="79.14" y1="289.03" x2="71.63" y2="289.03"/><line class="cls-8" x1="79.14" y1="289.92" x2="71.63" y2="289.92"/><line class="cls-8" x1="79.14" y1="290.87" x2="71.63" y2="290.87"/><line class="cls-8" x1="79.14" y1="291.82" x2="71.63" y2="291.82"/><line class="cls-8" x1="79.14" y1="292.7" x2="71.63" y2="292.7"/><line class="cls-8" x1="79.14" y1="293.66" x2="71.63" y2="293.66"/><line class="cls-8" x1="79.14" y1="294.61" x2="71.63" y2="294.61"/><line class="cls-8" x1="79.14" y1="295.49" x2="71.63" y2="295.49"/><line class="cls-8" x1="79.14" y1="296.45" x2="71.63" y2="296.45"/><line class="cls-8" x1="79.14" y1="297.4" x2="71.63" y2="297.4"/><line class="cls-8" x1="79.14" y1="298.28" x2="71.63" y2="298.28"/><line class="cls-8" x1="79.14" y1="299" x2="71.63" y2="299"/><rect class="cls-8" x="71.63" y="416.31" width="7.51" height="29.08"/><line class="cls-8" x1="71.63" y1="431.73" x2="79.14" y2="431.73"/><line class="cls-8" x1="71.63" y1="430.78" x2="79.14" y2="430.78"/><line class="cls-8" x1="71.63" y1="429.83" x2="79.14" y2="429.83"/><line class="cls-8" x1="71.63" y1="428.94" x2="79.14" y2="428.94"/><line class="cls-8" x1="71.63" y1="427.99" x2="79.14" y2="427.99"/><line class="cls-8" x1="71.63" y1="427.04" x2="79.14" y2="427.04"/><line class="cls-8" x1="71.63" y1="426.16" x2="79.14" y2="426.16"/><line class="cls-8" x1="71.63" y1="425.2" x2="79.14" y2="425.2"/><line class="cls-8" x1="71.63" y1="424.25" x2="79.14" y2="424.25"/><line class="cls-8" x1="71.63" y1="423.37" x2="79.14" y2="423.37"/><line class="cls-8" x1="71.63" y1="422.42" x2="79.14" y2="422.42"/><line class="cls-8" x1="71.63" y1="421.46" x2="79.14" y2="421.46"/><line class="cls-8" x1="71.63" y1="420.58" x2="79.14" y2="420.58"/><line class="cls-8" x1="71.63" y1="419.63" x2="79.14" y2="419.63"/><line class="cls-8" x1="71.63" y1="418.67" x2="79.14" y2="418.67"/><line class="cls-8" x1="71.63" y1="417.79" x2="79.14" y2="417.79"/><line class="cls-8" x1="71.63" y1="417.07" x2="79.14" y2="417.07"/></svg>